<?xml version="1.0" encoding="utf-8" standalone="no"?>
<!DOCTYPE svg PUBLIC "-//W3C//DTD SVG 1.1//EN"
  "http://www.w3.org/Graphics/SVG/1.1/DTD/svg11.dtd">
<svg xmlns:xlink="http://www.w3.org/1999/xlink" width="515.254687pt" height="392.247187pt" viewBox="0 0 515.254687 392.247187" xmlns="http://www.w3.org/2000/svg" version="1.1">
 <metadata>
  <rdf:RDF xmlns:dc="http://purl.org/dc/elements/1.1/" xmlns:cc="http://creativecommons.org/ns#" xmlns:rdf="http://www.w3.org/1999/02/22-rdf-syntax-ns#">
   <cc:Work>
    <dc:type rdf:resource="http://purl.org/dc/dcmitype/StillImage"/>
    <dc:date>2026-01-03T22:40:03.910943</dc:date>
    <dc:format>image/svg+xml</dc:format>
    <dc:creator>
     <cc:Agent>
      <dc:title>Matplotlib v3.10.8, https://matplotlib.org/</dc:title>
     </cc:Agent>
    </dc:creator>
   </cc:Work>
  </rdf:RDF>
 </metadata>
 <defs>
  <style type="text/css">*{stroke-linejoin: round; stroke-linecap: butt}</style>
 </defs>
 <g id="figure_1">
  <g id="patch_1">
   <path d="M 0 392.247187 
L 515.254687 392.247187 
L 515.254687 0 
L 0 0 
L 0 392.247187 
z
" style="fill: none"/>
  </g>
  <g id="axes_1">
   <g id="patch_2">
    <path d="M 61.654688 339.84 
L 508.054688 339.84 
L 508.054688 7.2 
L 61.654688 7.2 
L 61.654688 339.84 
z
" style="fill: none"/>
   </g>
   <g id="matplotlib.axis_1">
    <g id="xtick_1">
     <g id="line2d_1">
      <path d="M 81.945597 339.84 
L 81.945597 7.2 
" clip-path="url(#pd6a4f54789)" style="fill: none; stroke-dasharray: 4.48,1.12,0.7,1.12; stroke-dashoffset: 0; stroke: #93a1a1; stroke-width: 0.7"/>
     </g>
     <g id="line2d_2">
      <defs>
       <path id="m8f04ef8edb" d="M 0 0 
L 0 3.5 
" style="stroke: #657b83; stroke-width: 0.8"/>
      </defs>
      <g>
       <use xlink:href="#m8f04ef8edb" x="81.945597" y="339.84" style="fill: #657b83; stroke: #657b83; stroke-width: 0.8"/>
      </g>
     </g>
     <g id="text_1">
      <!-- 4 -->
      <g style="fill: #657b83" transform="translate(77.809347 358.3125) scale(0.16 -0.16)">
       <defs>
        <path id="YsabeauOffice-Medium-34" d="M 2509 4211 
L 2086 4250 
L 134 1370 
L 307 1069 
L 2061 1069 
L 2061 0 
L 2528 0 
L 2522 1069 
L 3130 1069 
L 3130 1478 
L 2522 1478 
L 2509 4211 
z
M 704 1478 
L 2067 3514 
L 2061 1478 
L 704 1478 
z
" transform="scale(0.015625)"/>
       </defs>
       <use xlink:href="#YsabeauOffice-Medium-34"/>
      </g>
     </g>
    </g>
    <g id="xtick_2">
     <g id="line2d_3">
      <path d="M 127.036506 339.84 
L 127.036506 7.2 
" clip-path="url(#pd6a4f54789)" style="fill: none; stroke-dasharray: 4.48,1.12,0.7,1.12; stroke-dashoffset: 0; stroke: #93a1a1; stroke-width: 0.7"/>
     </g>
     <g id="line2d_4">
      <g>
       <use xlink:href="#m8f04ef8edb" x="127.036506" y="339.84" style="fill: #657b83; stroke: #657b83; stroke-width: 0.8"/>
      </g>
     </g>
     <g id="text_2">
      <!-- 5 -->
      <g style="fill: #657b83" transform="translate(122.900256 358.3125) scale(0.16 -0.16)">
       <defs>
        <path id="YsabeauOffice-Medium-35" d="M 608 2144 
C 806 2208 1152 2240 1350 2240 
C 2016 2240 2413 1894 2413 1306 
C 2413 774 2054 410 1498 410 
C 1165 410 858 525 627 749 
L 390 429 
C 704 122 1082 -38 1536 -38 
C 2362 -38 2918 518 2918 1350 
C 2918 2144 2400 2624 1517 2624 
C 1376 2624 1229 2618 1082 2598 
L 1178 3770 
L 2778 3770 
L 2778 4230 
L 774 4192 
L 608 2144 
z
" transform="scale(0.015625)"/>
       </defs>
       <use xlink:href="#YsabeauOffice-Medium-35"/>
      </g>
     </g>
    </g>
    <g id="xtick_3">
     <g id="line2d_5">
      <path d="M 172.127415 339.84 
L 172.127415 7.2 
" clip-path="url(#pd6a4f54789)" style="fill: none; stroke-dasharray: 4.48,1.12,0.7,1.12; stroke-dashoffset: 0; stroke: #93a1a1; stroke-width: 0.7"/>
     </g>
     <g id="line2d_6">
      <g>
       <use xlink:href="#m8f04ef8edb" x="172.127415" y="339.84" style="fill: #657b83; stroke: #657b83; stroke-width: 0.8"/>
      </g>
     </g>
     <g id="text_3">
      <!-- 6 -->
      <g style="fill: #657b83" transform="translate(167.991165 358.3125) scale(0.16 -0.16)">
       <defs>
        <path id="YsabeauOffice-Medium-36" d="M 1946 2387 
C 1523 2387 1171 2240 890 2016 
C 1056 3014 1837 3731 2835 3853 
L 2739 4262 
C 1370 4102 339 2976 339 1549 
C 339 589 826 -38 1690 -38 
C 2502 -38 3046 499 3046 1254 
C 3046 1875 2694 2387 1946 2387 
z
M 858 1606 
C 858 1632 858 1664 858 1690 
C 1114 1901 1440 2010 1728 2010 
C 2266 2010 2528 1632 2528 1158 
C 2528 659 2221 352 1766 352 
C 1190 352 858 870 858 1606 
z
" transform="scale(0.015625)"/>
       </defs>
       <use xlink:href="#YsabeauOffice-Medium-36"/>
      </g>
     </g>
    </g>
    <g id="xtick_4">
     <g id="line2d_7">
      <path d="M 217.218324 339.84 
L 217.218324 7.2 
" clip-path="url(#pd6a4f54789)" style="fill: none; stroke-dasharray: 4.48,1.12,0.7,1.12; stroke-dashoffset: 0; stroke: #93a1a1; stroke-width: 0.7"/>
     </g>
     <g id="line2d_8">
      <g>
       <use xlink:href="#m8f04ef8edb" x="217.218324" y="339.84" style="fill: #657b83; stroke: #657b83; stroke-width: 0.8"/>
      </g>
     </g>
     <g id="text_4">
      <!-- 7 -->
      <g style="fill: #657b83" transform="translate(213.082074 358.3125) scale(0.16 -0.16)">
       <defs>
        <path id="YsabeauOffice-Medium-37" d="M 1357 0 
L 3149 4211 
L 435 4211 
L 390 3757 
L 2490 3757 
L 800 0 
L 1357 0 
z
" transform="scale(0.015625)"/>
       </defs>
       <use xlink:href="#YsabeauOffice-Medium-37"/>
      </g>
     </g>
    </g>
    <g id="xtick_5">
     <g id="line2d_9">
      <path d="M 262.309233 339.84 
L 262.309233 7.2 
" clip-path="url(#pd6a4f54789)" style="fill: none; stroke-dasharray: 4.48,1.12,0.7,1.12; stroke-dashoffset: 0; stroke: #93a1a1; stroke-width: 0.7"/>
     </g>
     <g id="line2d_10">
      <g>
       <use xlink:href="#m8f04ef8edb" x="262.309233" y="339.84" style="fill: #657b83; stroke: #657b83; stroke-width: 0.8"/>
      </g>
     </g>
     <g id="text_5">
      <!-- 8 -->
      <g style="fill: #657b83" transform="translate(258.172983 358.3125) scale(0.16 -0.16)">
       <defs>
        <path id="YsabeauOffice-Medium-38" d="M 1645 -38 
C 2470 -38 3008 467 3008 1126 
C 3008 1728 2586 2029 2131 2272 
C 2573 2547 2874 2918 2874 3354 
C 2874 3891 2426 4250 1734 4250 
C 973 4250 493 3821 493 3213 
C 493 2714 832 2438 1229 2214 
C 691 1907 371 1491 371 992 
C 371 365 915 -38 1645 -38 
z
M 870 1094 
C 870 1472 1094 1805 1523 2061 
C 2022 1805 2509 1568 2509 1037 
C 2509 666 2253 333 1728 333 
C 1248 333 870 602 870 1094 
z
M 973 3277 
C 973 3648 1248 3885 1664 3885 
C 2112 3885 2400 3622 2400 3238 
C 2400 2912 2170 2624 1830 2419 
C 1376 2643 973 2854 973 3277 
z
" transform="scale(0.015625)"/>
       </defs>
       <use xlink:href="#YsabeauOffice-Medium-38"/>
      </g>
     </g>
    </g>
    <g id="xtick_6">
     <g id="line2d_11">
      <path d="M 307.400142 339.84 
L 307.400142 7.2 
" clip-path="url(#pd6a4f54789)" style="fill: none; stroke-dasharray: 4.48,1.12,0.7,1.12; stroke-dashoffset: 0; stroke: #93a1a1; stroke-width: 0.7"/>
     </g>
     <g id="line2d_12">
      <g>
       <use xlink:href="#m8f04ef8edb" x="307.400142" y="339.84" style="fill: #657b83; stroke: #657b83; stroke-width: 0.8"/>
      </g>
     </g>
     <g id="text_6">
      <!-- 9 -->
      <g style="fill: #657b83" transform="translate(303.263892 358.3125) scale(0.16 -0.16)">
       <defs>
        <path id="YsabeauOffice-Medium-39" d="M 1402 1824 
C 1824 1824 2176 1971 2458 2195 
C 2291 1197 1510 480 512 358 
L 608 -51 
C 1978 109 3008 1235 3008 2662 
C 3008 3622 2522 4250 1658 4250 
C 845 4250 301 3712 301 2957 
C 301 2336 653 1824 1402 1824 
z
M 819 3053 
C 819 3552 1126 3859 1581 3859 
C 2157 3859 2490 3341 2490 2605 
C 2490 2579 2490 2547 2490 2522 
C 2234 2310 1907 2202 1619 2202 
C 1082 2202 819 2579 819 3053 
z
" transform="scale(0.015625)"/>
       </defs>
       <use xlink:href="#YsabeauOffice-Medium-39"/>
      </g>
     </g>
    </g>
    <g id="xtick_7">
     <g id="line2d_13">
      <path d="M 352.491051 339.84 
L 352.491051 7.2 
" clip-path="url(#pd6a4f54789)" style="fill: none; stroke-dasharray: 4.48,1.12,0.7,1.12; stroke-dashoffset: 0; stroke: #93a1a1; stroke-width: 0.7"/>
     </g>
     <g id="line2d_14">
      <g>
       <use xlink:href="#m8f04ef8edb" x="352.491051" y="339.84" style="fill: #657b83; stroke: #657b83; stroke-width: 0.8"/>
      </g>
     </g>
     <g id="text_7">
      <!-- 10 -->
      <g style="fill: #657b83" transform="translate(344.218551 358.3125) scale(0.16 -0.16)">
       <defs>
        <path id="YsabeauOffice-Medium-31" d="M 1805 0 
L 2317 0 
L 2317 4211 
L 2054 4211 
L 454 3149 
L 723 2752 
L 1805 3526 
L 1805 0 
z
" transform="scale(0.015625)"/>
        <path id="YsabeauOffice-Medium-30" d="M 1626 -38 
C 2445 -38 3008 832 3008 2150 
C 3008 3418 2496 4250 1690 4250 
C 858 4250 301 3379 301 2067 
C 301 794 819 -38 1626 -38 
z
M 1683 390 
C 1178 390 832 1088 832 2163 
C 832 3162 1139 3821 1626 3821 
C 2131 3821 2477 3123 2477 2054 
C 2477 1056 2170 390 1683 390 
z
" transform="scale(0.015625)"/>
       </defs>
       <use xlink:href="#YsabeauOffice-Medium-31"/>
       <use xlink:href="#YsabeauOffice-Medium-30" transform="translate(51.699997 0)"/>
      </g>
     </g>
    </g>
    <g id="xtick_8">
     <g id="line2d_15">
      <path d="M 397.58196 339.84 
L 397.58196 7.2 
" clip-path="url(#pd6a4f54789)" style="fill: none; stroke-dasharray: 4.48,1.12,0.7,1.12; stroke-dashoffset: 0; stroke: #93a1a1; stroke-width: 0.7"/>
     </g>
     <g id="line2d_16">
      <g>
       <use xlink:href="#m8f04ef8edb" x="397.58196" y="339.84" style="fill: #657b83; stroke: #657b83; stroke-width: 0.8"/>
      </g>
     </g>
     <g id="text_8">
      <!-- 11 -->
      <g style="fill: #657b83" transform="translate(389.30946 358.3125) scale(0.16 -0.16)">
       <use xlink:href="#YsabeauOffice-Medium-31"/>
       <use xlink:href="#YsabeauOffice-Medium-31" transform="translate(51.699997 0)"/>
      </g>
     </g>
    </g>
    <g id="xtick_9">
     <g id="line2d_17">
      <path d="M 442.672869 339.84 
L 442.672869 7.2 
" clip-path="url(#pd6a4f54789)" style="fill: none; stroke-dasharray: 4.48,1.12,0.7,1.12; stroke-dashoffset: 0; stroke: #93a1a1; stroke-width: 0.7"/>
     </g>
     <g id="line2d_18">
      <g>
       <use xlink:href="#m8f04ef8edb" x="442.672869" y="339.84" style="fill: #657b83; stroke: #657b83; stroke-width: 0.8"/>
      </g>
     </g>
     <g id="text_9">
      <!-- 12 -->
      <g style="fill: #657b83" transform="translate(434.400369 358.3125) scale(0.16 -0.16)">
       <defs>
        <path id="YsabeauOffice-Medium-32" d="M 352 269 
L 435 0 
L 2989 0 
L 2989 442 
L 1094 442 
C 2125 1434 2822 2336 2822 3155 
C 2822 3757 2445 4250 1709 4250 
C 1184 4250 672 4006 384 3315 
L 755 3136 
C 954 3648 1280 3821 1606 3821 
C 2042 3821 2323 3520 2323 3066 
C 2323 2304 1530 1434 352 269 
z
" transform="scale(0.015625)"/>
       </defs>
       <use xlink:href="#YsabeauOffice-Medium-31"/>
       <use xlink:href="#YsabeauOffice-Medium-32" transform="translate(51.699997 0)"/>
      </g>
     </g>
    </g>
    <g id="xtick_10">
     <g id="line2d_19">
      <path d="M 487.763778 339.84 
L 487.763778 7.2 
" clip-path="url(#pd6a4f54789)" style="fill: none; stroke-dasharray: 4.48,1.12,0.7,1.12; stroke-dashoffset: 0; stroke: #93a1a1; stroke-width: 0.7"/>
     </g>
     <g id="line2d_20">
      <g>
       <use xlink:href="#m8f04ef8edb" x="487.763778" y="339.84" style="fill: #657b83; stroke: #657b83; stroke-width: 0.8"/>
      </g>
     </g>
     <g id="text_10">
      <!-- 13 -->
      <g style="fill: #657b83" transform="translate(479.491278 358.3125) scale(0.16 -0.16)">
       <defs>
        <path id="YsabeauOffice-Medium-33" d="M 2522 1158 
C 2522 678 2202 384 1683 384 
C 1248 384 851 595 659 1082 
L 250 845 
C 506 205 1075 -32 1606 -32 
C 2330 -32 3040 429 3040 1190 
C 3040 1690 2739 2061 2157 2227 
C 2650 2406 2893 2778 2893 3219 
C 2893 3853 2413 4250 1722 4250 
C 1126 4250 614 3955 378 3347 
L 742 3226 
C 909 3654 1261 3859 1632 3859 
C 2074 3859 2368 3590 2368 3168 
C 2368 2707 2022 2336 1293 2336 
L 1293 2022 
C 2144 2022 2522 1683 2522 1158 
z
" transform="scale(0.015625)"/>
       </defs>
       <use xlink:href="#YsabeauOffice-Medium-31"/>
       <use xlink:href="#YsabeauOffice-Medium-33" transform="translate(51.699997 0)"/>
      </g>
     </g>
    </g>
    <g id="text_11">
     <!-- n: power of 2 -->
     <g style="fill: #657b83" transform="translate(235.097344 379.844063) scale(0.18 -0.18)">
      <defs>
       <path id="YsabeauOffice-Medium-6e" d="M 2419 1530 
L 2419 0 
L 2925 0 
L 2925 1702 
C 2925 2330 2534 2701 1990 2701 
C 1638 2701 1261 2566 954 2253 
L 890 2707 
L 474 2618 
L 474 0 
L 979 0 
L 979 1920 
C 1203 2202 1510 2323 1779 2323 
C 2189 2323 2419 2022 2419 1530 
z
" transform="scale(0.015625)"/>
       <path id="YsabeauOffice-Medium-3a" d="M 826 -38 
C 1037 -38 1184 109 1184 320 
C 1184 538 1037 678 826 678 
C 602 678 454 538 454 320 
C 454 109 602 -38 826 -38 
z
M 826 1792 
C 1030 1792 1184 1939 1184 2150 
C 1184 2362 1037 2509 826 2509 
C 608 2509 454 2368 454 2150 
C 454 1946 602 1792 826 1792 
z
" transform="scale(0.015625)"/>
       <path id="YsabeauOffice-Medium-20" transform="scale(0.015625)"/>
       <path id="YsabeauOffice-Medium-70" d="M 1760 -38 
C 2534 -38 3136 576 3136 1402 
C 3136 2144 2650 2694 1907 2694 
C 1523 2694 1210 2547 954 2253 
L 883 2707 
L 474 2618 
L 474 -1850 
L 973 -1766 
L 973 282 
C 1165 70 1440 -38 1760 -38 
z
M 973 672 
L 973 1875 
C 1203 2221 1504 2336 1779 2336 
C 2291 2336 2598 1894 2598 1344 
C 2598 723 2227 314 1690 314 
C 1395 314 1146 435 973 672 
z
" transform="scale(0.015625)"/>
       <path id="YsabeauOffice-Medium-6f" d="M 1626 -58 
C 2470 -58 3085 538 3085 1370 
C 3085 2157 2509 2720 1728 2720 
C 877 2720 262 2125 262 1293 
C 262 512 832 -58 1626 -58 
z
M 1696 294 
C 1190 294 794 704 794 1350 
C 794 1914 1114 2368 1658 2368 
C 2163 2368 2547 1965 2547 1318 
C 2547 768 2240 294 1696 294 
z
" transform="scale(0.015625)"/>
       <path id="YsabeauOffice-Medium-77" d="M 1082 0 
L 1536 0 
L 2304 2093 
L 3117 0 
L 3571 0 
L 4512 2662 
L 3987 2662 
L 3392 525 
L 2573 2662 
L 2112 2662 
L 1357 518 
L 691 2662 
L 141 2662 
L 1082 0 
z
" transform="scale(0.015625)"/>
       <path id="YsabeauOffice-Medium-65" d="M 1574 -64 
C 1926 -64 2291 51 2637 384 
L 2464 646 
C 2221 429 1958 326 1677 326 
C 1133 326 762 704 762 1312 
C 762 1350 762 1382 768 1427 
L 2202 1427 
L 2566 1427 
L 2630 1427 
C 2643 1517 2643 1606 2643 1677 
C 2643 2323 2323 2720 1677 2720 
C 890 2720 288 2125 288 1242 
C 288 429 819 -64 1574 -64 
z
M 826 1741 
C 947 2125 1242 2362 1638 2362 
C 2010 2362 2189 2144 2202 1741 
L 826 1741 
z
" transform="scale(0.015625)"/>
       <path id="YsabeauOffice-Medium-72" d="M 474 0 
L 979 0 
L 979 1805 
C 1197 2106 1434 2253 1709 2253 
C 1869 2253 2029 2202 2125 2125 
L 2330 2547 
C 2214 2643 2048 2694 1856 2694 
C 1510 2694 1216 2496 966 2150 
L 890 2707 
L 474 2618 
L 474 0 
z
" transform="scale(0.015625)"/>
       <path id="YsabeauOffice-Medium-66" d="M 704 2726 
L 704 2598 
L 205 2592 
L 173 2278 
L 704 2278 
L 704 0 
L 1210 0 
L 1210 2272 
L 2214 2272 
L 2240 2624 
L 1210 2605 
L 1210 2861 
C 1210 3475 1350 4192 2067 4192 
C 2304 4192 2528 4109 2720 3962 
L 2944 4333 
C 2746 4480 2483 4550 2208 4550 
C 1338 4550 704 3930 704 2726 
z
" transform="scale(0.015625)"/>
      </defs>
      <use xlink:href="#YsabeauOffice-Medium-6e"/>
      <use xlink:href="#YsabeauOffice-Medium-3a" transform="translate(53.099991 0)"/>
      <use xlink:href="#YsabeauOffice-Medium-20" transform="translate(78.699982 0)"/>
      <use xlink:href="#YsabeauOffice-Medium-70" transform="translate(103.299973 0)"/>
      <use xlink:href="#YsabeauOffice-Medium-6f" transform="translate(156.299957 0)"/>
      <use xlink:href="#YsabeauOffice-Medium-77" transform="translate(208.599945 0)"/>
      <use xlink:href="#YsabeauOffice-Medium-65" transform="translate(281.399933 0)"/>
      <use xlink:href="#YsabeauOffice-Medium-72" transform="translate(327.09993 0)"/>
      <use xlink:href="#YsabeauOffice-Medium-20" transform="translate(364.599915 0)"/>
      <use xlink:href="#YsabeauOffice-Medium-6f" transform="translate(389.199905 0)"/>
      <use xlink:href="#YsabeauOffice-Medium-66" transform="translate(441.499893 0)"/>
      <use xlink:href="#YsabeauOffice-Medium-20" transform="translate(476.599884 0)"/>
      <use xlink:href="#YsabeauOffice-Medium-32" transform="translate(501.199875 0)"/>
     </g>
    </g>
   </g>
   <g id="matplotlib.axis_2">
    <g id="ytick_1">
     <g id="line2d_21">
      <path d="M 61.654688 336.150341 
L 508.054688 336.150341 
" clip-path="url(#pd6a4f54789)" style="fill: none; stroke-dasharray: 4.48,1.12,0.7,1.12; stroke-dashoffset: 0; stroke: #93a1a1; stroke-width: 0.7"/>
     </g>
     <g id="line2d_22">
      <defs>
       <path id="mfda9b53613" d="M 0 0 
L -3.5 0 
" style="stroke: #657b83; stroke-width: 0.8"/>
      </defs>
      <g>
       <use xlink:href="#mfda9b53613" x="61.654688" y="336.150341" style="fill: #657b83; stroke: #657b83; stroke-width: 0.8"/>
      </g>
     </g>
     <g id="text_12">
      <!-- −18 -->
      <g style="fill: #657b83" transform="translate(29.309688 341.886591) scale(0.16 -0.16)">
       <defs>
        <path id="YsabeauOffice-Medium-2212" d="M 282 1286 
L 3238 1286 
L 3238 1658 
L 282 1658 
L 282 1286 
z
" transform="scale(0.015625)"/>
       </defs>
       <use xlink:href="#YsabeauOffice-Medium-2212"/>
       <use xlink:href="#YsabeauOffice-Medium-31" transform="translate(54.999985 0)"/>
       <use xlink:href="#YsabeauOffice-Medium-38" transform="translate(106.699982 0)"/>
      </g>
     </g>
    </g>
    <g id="ytick_2">
     <g id="line2d_23">
      <path d="M 61.654688 310.538657 
L 508.054688 310.538657 
" clip-path="url(#pd6a4f54789)" style="fill: none; stroke-dasharray: 4.48,1.12,0.7,1.12; stroke-dashoffset: 0; stroke: #93a1a1; stroke-width: 0.7"/>
     </g>
     <g id="line2d_24">
      <g>
       <use xlink:href="#mfda9b53613" x="61.654688" y="310.538657" style="fill: #657b83; stroke: #657b83; stroke-width: 0.8"/>
      </g>
     </g>
     <g id="text_13">
      <!-- −16 -->
      <g style="fill: #657b83" transform="translate(29.309688 316.274907) scale(0.16 -0.16)">
       <use xlink:href="#YsabeauOffice-Medium-2212"/>
       <use xlink:href="#YsabeauOffice-Medium-31" transform="translate(54.999985 0)"/>
       <use xlink:href="#YsabeauOffice-Medium-36" transform="translate(106.699982 0)"/>
      </g>
     </g>
    </g>
    <g id="ytick_3">
     <g id="line2d_25">
      <path d="M 61.654688 284.926974 
L 508.054688 284.926974 
" clip-path="url(#pd6a4f54789)" style="fill: none; stroke-dasharray: 4.48,1.12,0.7,1.12; stroke-dashoffset: 0; stroke: #93a1a1; stroke-width: 0.7"/>
     </g>
     <g id="line2d_26">
      <g>
       <use xlink:href="#mfda9b53613" x="61.654688" y="284.926974" style="fill: #657b83; stroke: #657b83; stroke-width: 0.8"/>
      </g>
     </g>
     <g id="text_14">
      <!-- −14 -->
      <g style="fill: #657b83" transform="translate(29.309688 290.663224) scale(0.16 -0.16)">
       <use xlink:href="#YsabeauOffice-Medium-2212"/>
       <use xlink:href="#YsabeauOffice-Medium-31" transform="translate(54.999985 0)"/>
       <use xlink:href="#YsabeauOffice-Medium-34" transform="translate(106.699982 0)"/>
      </g>
     </g>
    </g>
    <g id="ytick_4">
     <g id="line2d_27">
      <path d="M 61.654688 259.315291 
L 508.054688 259.315291 
" clip-path="url(#pd6a4f54789)" style="fill: none; stroke-dasharray: 4.48,1.12,0.7,1.12; stroke-dashoffset: 0; stroke: #93a1a1; stroke-width: 0.7"/>
     </g>
     <g id="line2d_28">
      <g>
       <use xlink:href="#mfda9b53613" x="61.654688" y="259.315291" style="fill: #657b83; stroke: #657b83; stroke-width: 0.8"/>
      </g>
     </g>
     <g id="text_15">
      <!-- −12 -->
      <g style="fill: #657b83" transform="translate(29.309688 265.051541) scale(0.16 -0.16)">
       <use xlink:href="#YsabeauOffice-Medium-2212"/>
       <use xlink:href="#YsabeauOffice-Medium-31" transform="translate(54.999985 0)"/>
       <use xlink:href="#YsabeauOffice-Medium-32" transform="translate(106.699982 0)"/>
      </g>
     </g>
    </g>
    <g id="ytick_5">
     <g id="line2d_29">
      <path d="M 61.654688 233.703607 
L 508.054688 233.703607 
" clip-path="url(#pd6a4f54789)" style="fill: none; stroke-dasharray: 4.48,1.12,0.7,1.12; stroke-dashoffset: 0; stroke: #93a1a1; stroke-width: 0.7"/>
     </g>
     <g id="line2d_30">
      <g>
       <use xlink:href="#mfda9b53613" x="61.654688" y="233.703607" style="fill: #657b83; stroke: #657b83; stroke-width: 0.8"/>
      </g>
     </g>
     <g id="text_16">
      <!-- −10 -->
      <g style="fill: #657b83" transform="translate(29.309688 239.439857) scale(0.16 -0.16)">
       <use xlink:href="#YsabeauOffice-Medium-2212"/>
       <use xlink:href="#YsabeauOffice-Medium-31" transform="translate(54.999985 0)"/>
       <use xlink:href="#YsabeauOffice-Medium-30" transform="translate(106.699982 0)"/>
      </g>
     </g>
    </g>
    <g id="ytick_6">
     <g id="line2d_31">
      <path d="M 61.654688 208.091924 
L 508.054688 208.091924 
" clip-path="url(#pd6a4f54789)" style="fill: none; stroke-dasharray: 4.48,1.12,0.7,1.12; stroke-dashoffset: 0; stroke: #93a1a1; stroke-width: 0.7"/>
     </g>
     <g id="line2d_32">
      <g>
       <use xlink:href="#mfda9b53613" x="61.654688" y="208.091924" style="fill: #657b83; stroke: #657b83; stroke-width: 0.8"/>
      </g>
     </g>
     <g id="text_17">
      <!-- −8 -->
      <g style="fill: #657b83" transform="translate(37.582188 213.828174) scale(0.16 -0.16)">
       <use xlink:href="#YsabeauOffice-Medium-2212"/>
       <use xlink:href="#YsabeauOffice-Medium-38" transform="translate(54.999985 0)"/>
      </g>
     </g>
    </g>
    <g id="ytick_7">
     <g id="line2d_33">
      <path d="M 61.654688 182.48024 
L 508.054688 182.48024 
" clip-path="url(#pd6a4f54789)" style="fill: none; stroke-dasharray: 4.48,1.12,0.7,1.12; stroke-dashoffset: 0; stroke: #93a1a1; stroke-width: 0.7"/>
     </g>
     <g id="line2d_34">
      <g>
       <use xlink:href="#mfda9b53613" x="61.654688" y="182.48024" style="fill: #657b83; stroke: #657b83; stroke-width: 0.8"/>
      </g>
     </g>
     <g id="text_18">
      <!-- −6 -->
      <g style="fill: #657b83" transform="translate(37.582188 188.21649) scale(0.16 -0.16)">
       <use xlink:href="#YsabeauOffice-Medium-2212"/>
       <use xlink:href="#YsabeauOffice-Medium-36" transform="translate(54.999985 0)"/>
      </g>
     </g>
    </g>
    <g id="ytick_8">
     <g id="line2d_35">
      <path d="M 61.654688 156.868557 
L 508.054688 156.868557 
" clip-path="url(#pd6a4f54789)" style="fill: none; stroke-dasharray: 4.48,1.12,0.7,1.12; stroke-dashoffset: 0; stroke: #93a1a1; stroke-width: 0.7"/>
     </g>
     <g id="line2d_36">
      <g>
       <use xlink:href="#mfda9b53613" x="61.654688" y="156.868557" style="fill: #657b83; stroke: #657b83; stroke-width: 0.8"/>
      </g>
     </g>
     <g id="text_19">
      <!-- −4 -->
      <g style="fill: #657b83" transform="translate(37.582188 162.604807) scale(0.16 -0.16)">
       <use xlink:href="#YsabeauOffice-Medium-2212"/>
       <use xlink:href="#YsabeauOffice-Medium-34" transform="translate(54.999985 0)"/>
      </g>
     </g>
    </g>
    <g id="ytick_9">
     <g id="line2d_37">
      <path d="M 61.654688 131.256873 
L 508.054688 131.256873 
" clip-path="url(#pd6a4f54789)" style="fill: none; stroke-dasharray: 4.48,1.12,0.7,1.12; stroke-dashoffset: 0; stroke: #93a1a1; stroke-width: 0.7"/>
     </g>
     <g id="line2d_38">
      <g>
       <use xlink:href="#mfda9b53613" x="61.654688" y="131.256873" style="fill: #657b83; stroke: #657b83; stroke-width: 0.8"/>
      </g>
     </g>
     <g id="text_20">
      <!-- −2 -->
      <g style="fill: #657b83" transform="translate(37.582188 136.993123) scale(0.16 -0.16)">
       <use xlink:href="#YsabeauOffice-Medium-2212"/>
       <use xlink:href="#YsabeauOffice-Medium-32" transform="translate(54.999985 0)"/>
      </g>
     </g>
    </g>
    <g id="ytick_10">
     <g id="line2d_39">
      <path d="M 61.654688 105.64519 
L 508.054688 105.64519 
" clip-path="url(#pd6a4f54789)" style="fill: none; stroke-dasharray: 4.48,1.12,0.7,1.12; stroke-dashoffset: 0; stroke: #93a1a1; stroke-width: 0.7"/>
     </g>
     <g id="line2d_40">
      <g>
       <use xlink:href="#mfda9b53613" x="61.654688" y="105.64519" style="fill: #657b83; stroke: #657b83; stroke-width: 0.8"/>
      </g>
     </g>
     <g id="text_21">
      <!-- 0 -->
      <g style="fill: #657b83" transform="translate(46.382188 111.38144) scale(0.16 -0.16)">
       <use xlink:href="#YsabeauOffice-Medium-30"/>
      </g>
     </g>
    </g>
    <g id="ytick_11">
     <g id="line2d_41">
      <path d="M 61.654688 80.033506 
L 508.054688 80.033506 
" clip-path="url(#pd6a4f54789)" style="fill: none; stroke-dasharray: 4.48,1.12,0.7,1.12; stroke-dashoffset: 0; stroke: #93a1a1; stroke-width: 0.7"/>
     </g>
     <g id="line2d_42">
      <g>
       <use xlink:href="#mfda9b53613" x="61.654688" y="80.033506" style="fill: #657b83; stroke: #657b83; stroke-width: 0.8"/>
      </g>
     </g>
     <g id="text_22">
      <!-- 2 -->
      <g style="fill: #657b83" transform="translate(46.382188 85.769756) scale(0.16 -0.16)">
       <use xlink:href="#YsabeauOffice-Medium-32"/>
      </g>
     </g>
    </g>
    <g id="ytick_12">
     <g id="line2d_43">
      <path d="M 61.654688 54.421823 
L 508.054688 54.421823 
" clip-path="url(#pd6a4f54789)" style="fill: none; stroke-dasharray: 4.48,1.12,0.7,1.12; stroke-dashoffset: 0; stroke: #93a1a1; stroke-width: 0.7"/>
     </g>
     <g id="line2d_44">
      <g>
       <use xlink:href="#mfda9b53613" x="61.654688" y="54.421823" style="fill: #657b83; stroke: #657b83; stroke-width: 0.8"/>
      </g>
     </g>
     <g id="text_23">
      <!-- 4 -->
      <g style="fill: #657b83" transform="translate(46.382188 60.158073) scale(0.16 -0.16)">
       <use xlink:href="#YsabeauOffice-Medium-34"/>
      </g>
     </g>
    </g>
    <g id="ytick_13">
     <g id="line2d_45">
      <path d="M 61.654688 28.810139 
L 508.054688 28.810139 
" clip-path="url(#pd6a4f54789)" style="fill: none; stroke-dasharray: 4.48,1.12,0.7,1.12; stroke-dashoffset: 0; stroke: #93a1a1; stroke-width: 0.7"/>
     </g>
     <g id="line2d_46">
      <g>
       <use xlink:href="#mfda9b53613" x="61.654688" y="28.810139" style="fill: #657b83; stroke: #657b83; stroke-width: 0.8"/>
      </g>
     </g>
     <g id="text_24">
      <!-- 6 -->
      <g style="fill: #657b83" transform="translate(46.382188 34.546389) scale(0.16 -0.16)">
       <use xlink:href="#YsabeauOffice-Medium-36"/>
      </g>
     </g>
    </g>
    <g id="text_25">
     <!-- time: power of 2 -->
     <g style="fill: #657b83" transform="translate(20.106562 235.535625) rotate(-90) scale(0.18 -0.18)">
      <defs>
       <path id="YsabeauOffice-Medium-74" d="M 1491 -45 
C 1773 -45 2067 58 2317 294 
L 2170 525 
C 1990 390 1805 333 1632 333 
C 1350 333 1171 506 1171 870 
L 1171 2272 
L 2163 2272 
L 2189 2624 
L 1171 2605 
L 1171 3290 
L 838 3226 
L 685 2598 
L 173 2592 
L 141 2278 
L 666 2278 
L 666 781 
C 666 250 1024 -45 1491 -45 
z
" transform="scale(0.015625)"/>
       <path id="YsabeauOffice-Medium-69" d="M 589 0 
L 1094 0 
L 1094 2707 
L 589 2618 
L 589 0 
z
M 845 3398 
C 1037 3398 1184 3533 1184 3731 
C 1184 3930 1043 4064 845 4064 
C 640 4064 499 3936 499 3731 
C 499 3539 634 3398 845 3398 
z
" transform="scale(0.015625)"/>
       <path id="YsabeauOffice-Medium-6d" d="M 4090 1568 
L 4090 0 
L 4595 0 
L 4595 1702 
C 4595 2330 4237 2701 3731 2701 
C 3373 2701 2989 2528 2707 2195 
C 2573 2515 2291 2701 1939 2701 
C 1600 2701 1235 2560 954 2266 
L 890 2707 
L 474 2618 
L 474 0 
L 979 0 
L 979 1926 
C 1190 2202 1478 2323 1722 2323 
C 2093 2323 2298 2042 2298 1568 
L 2298 0 
L 2797 0 
L 2797 1702 
C 2797 1779 2790 1850 2784 1914 
C 2989 2195 3277 2323 3520 2323 
C 3898 2323 4090 2042 4090 1568 
z
" transform="scale(0.015625)"/>
      </defs>
      <use xlink:href="#YsabeauOffice-Medium-74"/>
      <use xlink:href="#YsabeauOffice-Medium-69" transform="translate(38.099991 0)"/>
      <use xlink:href="#YsabeauOffice-Medium-6d" transform="translate(64.399979 0)"/>
      <use xlink:href="#YsabeauOffice-Medium-65" transform="translate(143.59996 0)"/>
      <use xlink:href="#YsabeauOffice-Medium-3a" transform="translate(189.299957 0)"/>
      <use xlink:href="#YsabeauOffice-Medium-20" transform="translate(214.899948 0)"/>
      <use xlink:href="#YsabeauOffice-Medium-70" transform="translate(239.499939 0)"/>
      <use xlink:href="#YsabeauOffice-Medium-6f" transform="translate(292.499924 0)"/>
      <use xlink:href="#YsabeauOffice-Medium-77" transform="translate(344.799911 0)"/>
      <use xlink:href="#YsabeauOffice-Medium-65" transform="translate(417.599899 0)"/>
      <use xlink:href="#YsabeauOffice-Medium-72" transform="translate(463.299896 0)"/>
      <use xlink:href="#YsabeauOffice-Medium-20" transform="translate(500.799881 0)"/>
      <use xlink:href="#YsabeauOffice-Medium-6f" transform="translate(525.399872 0)"/>
      <use xlink:href="#YsabeauOffice-Medium-66" transform="translate(577.69986 0)"/>
      <use xlink:href="#YsabeauOffice-Medium-20" transform="translate(612.79985 0)"/>
      <use xlink:href="#YsabeauOffice-Medium-32" transform="translate(637.399841 0)"/>
     </g>
    </g>
   </g>
   <g id="line2d_47">
    <path d="M 81.945597 318.656753 
L 127.036506 324.72 
L 172.127415 322.565425 
L 217.218324 317.93996 
L 262.309233 307.427891 
L 307.400142 292.651442 
L 352.491051 273.445993 
L 397.58196 251.934556 
L 442.672869 230.117055 
L 487.763778 208.937906 
" clip-path="url(#pd6a4f54789)" style="fill: none; stroke: #268bd2; stroke-width: 2"/>
   </g>
   <g id="line2d_48">
    <path d="M 81.945597 248.113558 
L 127.036506 226.997463 
L 172.127415 201.642064 
L 217.218324 177.854711 
L 262.309233 152.365152 
L 307.400142 125.271178 
L 352.491051 100.824092 
L 397.58196 74.947952 
L 442.672869 49.236875 
L 487.763778 22.32 
" clip-path="url(#pd6a4f54789)" style="fill: none; stroke-dasharray: 7.4,3.2; stroke-dashoffset: 0; stroke: #2aa198; stroke-width: 2"/>
   </g>
   <g id="line2d_49">
    <path d="M 81.945597 240.006442 
L 127.036506 221.919992 
L 172.127415 203.658559 
L 217.218324 181.484547 
L 262.309233 162.841194 
L 307.400142 142.845954 
L 352.491051 123.543151 
L 397.58196 103.249696 
L 442.672869 82.944333 
L 487.763778 63.114484 
" clip-path="url(#pd6a4f54789)" style="fill: none; stroke-dasharray: 12.8,3.2,2,3.2; stroke-dashoffset: 0; stroke: #859900; stroke-width: 2"/>
   </g>
   <g id="line2d_50">
    <path d="M 81.945597 240.28212 
L 127.036506 225.674915 
L 172.127415 208.293281 
L 217.218324 192.478653 
L 262.309233 169.940273 
L 307.400142 150.411435 
L 352.491051 136.112156 
L 397.58196 116.06598 
L 442.672869 97.460892 
L 487.763778 79.402064 
" clip-path="url(#pd6a4f54789)" style="fill: none; stroke-dasharray: 2,3.3; stroke-dashoffset: 0; stroke: #b58900; stroke-width: 2"/>
   </g>
   <g id="patch_3">
    <path d="M 61.654688 339.84 
L 61.654688 7.2 
" style="fill: none; stroke: #eee8d5; stroke-width: 0.8; stroke-linejoin: miter; stroke-linecap: square"/>
   </g>
   <g id="patch_4">
    <path d="M 508.054688 339.84 
L 508.054688 7.2 
" style="fill: none; stroke: #eee8d5; stroke-width: 0.8; stroke-linejoin: miter; stroke-linecap: square"/>
   </g>
   <g id="patch_5">
    <path d="M 61.654687 339.84 
L 508.054688 339.84 
" style="fill: none; stroke: #eee8d5; stroke-width: 0.8; stroke-linejoin: miter; stroke-linecap: square"/>
   </g>
   <g id="patch_6">
    <path d="M 61.654687 7.2 
L 508.054688 7.2 
" style="fill: none; stroke: #eee8d5; stroke-width: 0.8; stroke-linejoin: miter; stroke-linecap: square"/>
   </g>
   <g id="legend_1">
    <g id="patch_7">
     <path d="M 72.854687 116.405 
L 207.282187 116.405 
Q 210.482187 116.405 210.482187 113.205 
L 210.482187 18.4 
Q 210.482187 15.2 207.282187 15.2 
L 72.854687 15.2 
Q 69.654687 15.2 69.654687 18.4 
L 69.654687 113.205 
Q 69.654687 116.405 72.854687 116.405 
z
" style="fill: #eee8d5; opacity: 0.8; stroke: #cccccc; stroke-linejoin: miter"/>
    </g>
    <g id="line2d_51">
     <path d="M 76.054688 27.4725 
L 92.054688 27.4725 
L 108.054688 27.4725 
" style="fill: none; stroke: #268bd2; stroke-width: 2"/>
    </g>
    <g id="text_26">
     <!-- built-in -->
     <g transform="translate(120.854687 33.0725) scale(0.16 -0.16)">
      <defs>
       <path id="YsabeauOffice-Medium-62" d="M 1600 -45 
C 2624 -45 3142 653 3142 1427 
C 3142 2227 2611 2701 1965 2701 
C 1594 2701 1267 2541 1011 2298 
L 1011 4595 
L 518 4506 
L 518 288 
C 704 83 1165 -45 1600 -45 
z
M 1011 550 
L 1011 1926 
C 1229 2202 1510 2323 1773 2323 
C 2266 2323 2605 1933 2605 1274 
C 2605 730 2317 288 1747 288 
C 1466 288 1184 378 1011 550 
z
" transform="scale(0.015625)"/>
       <path id="YsabeauOffice-Medium-75" d="M 1395 -32 
C 1741 -32 2106 115 2394 410 
L 2458 -45 
L 2874 45 
L 2874 2707 
L 2368 2618 
L 2368 736 
C 2157 461 1862 339 1600 339 
C 1203 339 979 634 979 1133 
L 979 2707 
L 474 2618 
L 474 960 
C 474 339 858 -32 1395 -32 
z
" transform="scale(0.015625)"/>
       <path id="YsabeauOffice-Medium-6c" d="M 550 0 
L 1043 0 
L 1043 4589 
L 550 4506 
L 550 0 
z
" transform="scale(0.015625)"/>
       <path id="YsabeauOffice-Medium-2d" d="M 218 1222 
L 2176 1222 
L 2182 1651 
L 224 1651 
L 218 1222 
z
" transform="scale(0.015625)"/>
      </defs>
      <use xlink:href="#YsabeauOffice-Medium-62"/>
      <use xlink:href="#YsabeauOffice-Medium-75" transform="translate(53.099991 0)"/>
      <use xlink:href="#YsabeauOffice-Medium-69" transform="translate(105.499985 0)"/>
      <use xlink:href="#YsabeauOffice-Medium-6c" transform="translate(131.799973 0)"/>
      <use xlink:href="#YsabeauOffice-Medium-74" transform="translate(156.59996 0)"/>
      <use xlink:href="#YsabeauOffice-Medium-2d" transform="translate(194.699951 0)"/>
      <use xlink:href="#YsabeauOffice-Medium-69" transform="translate(232.199936 0)"/>
      <use xlink:href="#YsabeauOffice-Medium-6e" transform="translate(258.499924 0)"/>
     </g>
    </g>
    <g id="line2d_52">
     <path d="M 76.054688 51.585 
L 92.054688 51.585 
L 108.054688 51.585 
" style="fill: none; stroke-dasharray: 7.4,3.2; stroke-dashoffset: 0; stroke: #2aa198; stroke-width: 2"/>
    </g>
    <g id="text_27">
     <!-- grade school -->
     <g transform="translate(120.854687 57.185) scale(0.16 -0.16)">
      <defs>
       <path id="YsabeauOffice-Medium-67" d="M 1350 -1850 
C 2214 -1850 2944 -1312 2944 -595 
C 2944 -19 2432 70 1747 141 
C 1114 211 845 256 845 493 
C 845 627 941 730 1069 813 
C 1178 781 1312 762 1446 762 
C 2112 762 2592 1197 2592 1786 
C 2592 1984 2534 2157 2438 2298 
L 2995 2298 
L 2995 2630 
L 2150 2566 
C 1984 2662 1773 2714 1542 2714 
C 890 2714 384 2291 384 1702 
C 384 1370 544 1088 819 922 
C 563 755 416 582 416 326 
C 416 64 621 -70 902 -147 
C 454 -416 224 -755 224 -1069 
C 224 -1549 704 -1850 1350 -1850 
z
M 1517 1094 
C 1126 1094 851 1370 851 1760 
C 851 2138 1094 2381 1459 2381 
C 1862 2381 2131 2106 2131 1709 
C 2131 1350 1894 1094 1517 1094 
z
M 736 -966 
C 736 -704 896 -442 1242 -218 
C 1312 -224 1402 -237 1478 -243 
C 2157 -314 2458 -365 2458 -749 
C 2458 -1190 2022 -1523 1478 -1523 
C 1037 -1523 736 -1318 736 -966 
z
" transform="scale(0.015625)"/>
       <path id="YsabeauOffice-Medium-61" d="M 2374 -38 
C 2586 -38 2771 45 2893 192 
L 2733 429 
C 2669 352 2573 307 2490 307 
C 2381 307 2317 403 2317 570 
L 2330 1914 
C 2336 2406 2099 2714 1568 2714 
C 992 2714 442 2368 352 1869 
L 838 1818 
C 877 2221 1229 2394 1485 2394 
C 1728 2394 1862 2234 1856 1850 
L 1850 1491 
L 1056 1286 
C 461 1133 294 877 294 563 
C 294 205 563 -38 960 -38 
C 1280 -38 1574 122 1869 358 
C 1939 102 2125 -38 2374 -38 
z
M 794 634 
C 794 781 870 922 1178 1018 
L 1843 1222 
L 1830 666 
C 1830 653 1830 621 1830 608 
C 1562 442 1331 333 1139 333 
C 947 333 794 442 794 634 
z
" transform="scale(0.015625)"/>
       <path id="YsabeauOffice-Medium-64" d="M 1491 -45 
C 1875 -45 2195 102 2451 416 
L 2515 -45 
L 2925 45 
L 2925 4595 
L 2432 4499 
L 2432 2368 
C 2234 2586 1946 2707 1619 2707 
C 870 2707 269 2086 269 1261 
C 269 506 749 -45 1491 -45 
z
M 806 1312 
C 806 1926 1165 2342 1702 2342 
C 2003 2342 2259 2208 2432 1958 
L 2432 794 
C 2202 429 1894 307 1613 307 
C 1114 307 806 742 806 1312 
z
" transform="scale(0.015625)"/>
       <path id="YsabeauOffice-Medium-73" d="M 1171 -64 
C 1818 -64 2182 333 2182 787 
C 2182 1690 813 1466 813 2048 
C 813 2240 973 2400 1280 2400 
C 1459 2400 1760 2310 1920 2150 
L 2061 2534 
C 1869 2656 1568 2726 1306 2726 
C 781 2726 358 2458 358 1946 
C 358 1056 1715 1306 1715 685 
C 1715 474 1530 275 1197 275 
C 915 275 576 403 371 595 
L 230 186 
C 435 45 781 -64 1171 -64 
z
" transform="scale(0.015625)"/>
       <path id="YsabeauOffice-Medium-63" d="M 1613 -58 
C 1952 -58 2323 45 2630 346 
L 2470 634 
C 2266 435 2003 326 1747 326 
C 1210 326 794 723 794 1344 
C 794 1894 1107 2349 1638 2349 
C 1920 2349 2157 2227 2374 2003 
L 2592 2387 
C 2355 2598 2061 2720 1702 2720 
C 883 2720 262 2112 262 1293 
C 262 499 832 -58 1613 -58 
z
" transform="scale(0.015625)"/>
       <path id="YsabeauOffice-Medium-68" d="M 2445 1530 
L 2445 0 
L 2944 0 
L 2944 1702 
C 2944 2330 2560 2701 2016 2701 
C 1677 2701 1306 2566 1018 2291 
L 1018 4595 
L 525 4499 
L 525 0 
L 1018 0 
L 1018 1933 
C 1242 2202 1542 2323 1805 2323 
C 2214 2323 2445 2022 2445 1530 
z
" transform="scale(0.015625)"/>
      </defs>
      <use xlink:href="#YsabeauOffice-Medium-67"/>
      <use xlink:href="#YsabeauOffice-Medium-72" transform="translate(48.599991 0)"/>
      <use xlink:href="#YsabeauOffice-Medium-61" transform="translate(86.099976 0)"/>
      <use xlink:href="#YsabeauOffice-Medium-64" transform="translate(131.699966 0)"/>
      <use xlink:href="#YsabeauOffice-Medium-65" transform="translate(184.799957 0)"/>
      <use xlink:href="#YsabeauOffice-Medium-20" transform="translate(230.499954 0)"/>
      <use xlink:href="#YsabeauOffice-Medium-73" transform="translate(255.099945 0)"/>
      <use xlink:href="#YsabeauOffice-Medium-63" transform="translate(293.199936 0)"/>
      <use xlink:href="#YsabeauOffice-Medium-68" transform="translate(337.09993 0)"/>
      <use xlink:href="#YsabeauOffice-Medium-6f" transform="translate(390.799927 0)"/>
      <use xlink:href="#YsabeauOffice-Medium-6f" transform="translate(443.099915 0)"/>
      <use xlink:href="#YsabeauOffice-Medium-6c" transform="translate(495.399902 0)"/>
     </g>
    </g>
    <g id="line2d_53">
     <path d="M 76.054688 75.6825 
L 92.054688 75.6825 
L 108.054688 75.6825 
" style="fill: none; stroke-dasharray: 12.8,3.2,2,3.2; stroke-dashoffset: 0; stroke: #859900; stroke-width: 2"/>
    </g>
    <g id="text_28">
     <!-- Karatsuba -->
     <g transform="translate(120.854687 81.2825) scale(0.16 -0.16)">
      <defs>
       <path id="YsabeauOffice-Medium-4b" d="M 3149 0 
L 3949 0 
L 1728 2227 
L 3629 4211 
L 2950 4211 
L 1210 2246 
L 1210 4211 
L 678 4211 
L 678 0 
L 1210 0 
L 1210 2061 
L 3149 0 
z
" transform="scale(0.015625)"/>
      </defs>
      <use xlink:href="#YsabeauOffice-Medium-4b"/>
      <use xlink:href="#YsabeauOffice-Medium-61" transform="translate(62.199997 0)"/>
      <use xlink:href="#YsabeauOffice-Medium-72" transform="translate(107.799988 0)"/>
      <use xlink:href="#YsabeauOffice-Medium-61" transform="translate(145.299973 0)"/>
      <use xlink:href="#YsabeauOffice-Medium-74" transform="translate(190.899963 0)"/>
      <use xlink:href="#YsabeauOffice-Medium-73" transform="translate(228.999954 0)"/>
      <use xlink:href="#YsabeauOffice-Medium-75" transform="translate(267.099945 0)"/>
      <use xlink:href="#YsabeauOffice-Medium-62" transform="translate(319.499939 0)"/>
      <use xlink:href="#YsabeauOffice-Medium-61" transform="translate(372.59993 0)"/>
     </g>
    </g>
    <g id="line2d_54">
     <path d="M 76.054688 99.78 
L 92.054688 99.78 
L 108.054688 99.78 
" style="fill: none; stroke-dasharray: 2,3.3; stroke-dashoffset: 0; stroke: #b58900; stroke-width: 2"/>
    </g>
    <g id="text_29">
     <!-- Toom -->
     <g transform="translate(120.854687 105.38) scale(0.16 -0.16)">
      <defs>
       <path id="YsabeauOffice-Medium-54" d="M 1722 0 
L 2278 0 
L 2278 3782 
L 3834 3782 
L 3834 4211 
L 2278 4211 
L 1722 4211 
L 173 4211 
L 173 3782 
L 1722 3782 
L 1722 0 
z
" transform="scale(0.015625)"/>
      </defs>
      <use xlink:href="#YsabeauOffice-Medium-54"/>
      <use xlink:href="#YsabeauOffice-Medium-6f" transform="translate(62.599991 0)"/>
      <use xlink:href="#YsabeauOffice-Medium-6f" transform="translate(114.899979 0)"/>
      <use xlink:href="#YsabeauOffice-Medium-6d" transform="translate(167.199966 0)"/>
     </g>
    </g>
   </g>
  </g>
 </g>
 <defs>
  <clipPath id="pd6a4f54789">
   <rect x="61.654688" y="7.2" width="446.4" height="332.64"/>
  </clipPath>
 </defs>
</svg>
