<?xml version="1.0" encoding="UTF-8" standalone="no"?>
<!-- Created with Inkscape (http://www.inkscape.org/) -->

<svg
   version="1.1"
   id="svg1"
   width="170.10156"
   height="167.16406"
   viewBox="0 0 170.10156 167.16406"
   sodipodi:docname="integer-multiplication.svg"
   inkscape:version="1.4.3 (0d15f75042, 2025-12-25)"
   xmlns:inkscape="http://www.inkscape.org/namespaces/inkscape"
   xmlns:sodipodi="http://sodipodi.sourceforge.net/DTD/sodipodi-0.dtd"
   xmlns="http://www.w3.org/2000/svg"
   xmlns:svg="http://www.w3.org/2000/svg">
  <defs
     id="defs1" />
  <sodipodi:namedview
     id="namedview1"
     pagecolor="#ffffff"
     bordercolor="#666666"
     borderopacity="1.0"
     inkscape:showpageshadow="2"
     inkscape:pageopacity="0.0"
     inkscape:pagecheckerboard="0"
     inkscape:deskcolor="#d1d1d1"
     inkscape:zoom="1.28"
     inkscape:cx="536.32813"
     inkscape:cy="457.42188"
     inkscape:window-width="3840"
     inkscape:window-height="2346"
     inkscape:window-x="0"
     inkscape:window-y="54"
     inkscape:window-maximized="1"
     inkscape:current-layer="g1">
    <inkscape:page
       x="0"
       y="0"
       inkscape:label="1"
       id="page1"
       width="170.10156"
       height="167.16406"
       margin="0"
       bleed="0" />
  </sodipodi:namedview>
  <g
     id="g1"
     inkscape:groupmode="layer"
     inkscape:label="1"
     transform="translate(-71.117189,-42.058593)">
    <g
       id="g36">
      <path
         id="path1"
         d="M 0,0 H 85.04042 M 0,28.3468 H 85.04042 M 0,56.69362 H 85.04042 M 0,85.03047 H 85.04042 M 0,0 V 85.04042 M 28.3468,0 V 85.04042 M 56.69362,0 V 85.04042 M 85.03047,0 v 85.04042"
         style="fill:none;stroke:#000000;stroke-width:0.3985;stroke-linecap:butt;stroke-linejoin:miter;stroke-miterlimit:10;stroke-dasharray:none;stroke-opacity:1"
         transform="matrix(1.3333333,0,0,-1.3333333,104.596,181.19467)" />
      <path
         id="path2"
         d="m 0,56.69362 28.3468,28.3468"
         style="fill:none;stroke:#000000;stroke-width:0.3985;stroke-linecap:butt;stroke-linejoin:miter;stroke-miterlimit:10;stroke-dasharray:0.3985, 1.99255;stroke-dashoffset:0;stroke-opacity:1"
         transform="matrix(1.3333333,0,0,-1.3333333,104.596,181.19467)" />
      <path
         id="path3"
         d="M 0,28.3468 56.69362,85.04042"
         style="fill:none;stroke:#000000;stroke-width:0.3985;stroke-linecap:butt;stroke-linejoin:miter;stroke-miterlimit:10;stroke-dasharray:0.3985, 1.99255;stroke-dashoffset:0;stroke-opacity:1"
         transform="matrix(1.3333333,0,0,-1.3333333,104.596,181.19467)" />
      <path
         id="path4"
         d="M 0,0 85.04042,85.04042"
         style="fill:none;stroke:#000000;stroke-width:0.3985;stroke-linecap:butt;stroke-linejoin:miter;stroke-miterlimit:10;stroke-dasharray:0.3985, 1.99255;stroke-dashoffset:0;stroke-opacity:1"
         transform="matrix(1.3333333,0,0,-1.3333333,104.596,181.19467)" />
      <path
         id="path5"
         d="M 28.3468,0 85.04042,56.69362"
         style="fill:none;stroke:#000000;stroke-width:0.3985;stroke-linecap:butt;stroke-linejoin:miter;stroke-miterlimit:10;stroke-dasharray:0.3985, 1.99255;stroke-dashoffset:0;stroke-opacity:1"
         transform="matrix(1.3333333,0,0,-1.3333333,104.596,181.19467)" />
      <path
         id="path6"
         d="m 56.69362,0 28.3468,28.3468"
         style="fill:none;stroke:#000000;stroke-width:0.3985;stroke-linecap:butt;stroke-linejoin:miter;stroke-miterlimit:10;stroke-dasharray:0.3985, 1.99255;stroke-dashoffset:0;stroke-opacity:1"
         transform="matrix(1.3333333,0,0,-1.3333333,104.596,181.19467)" />
      <path
         id="path7"
         d="m 4.3234609,-9.6087734 c 0,-0.3515625 0,-0.3632813 -0.3046875,-0.3632813 -0.3632812,0.3984375 -1.1132812,0.9609375 -2.6601562,0.9609375 v 0.4335938 c 0.3515625,0 1.1015625,0 1.921875,-0.3867188 v 7.8046875 c 0,0.55078126 -0.046875,0.72656251 -1.359375,0.72656251 h -0.46875 V 6.015625e-4 C 1.8625234,-0.03455469 3.3156484,-0.03455469 3.8078359,-0.03455469 c 0.4921875,0 1.9335938,0 2.34375,0.0351562525 V -0.43299219 h -0.46875 c -1.3242187,0 -1.359375,-0.17578125 -1.359375,-0.72656251 z m 0,0"
         style="fill:#d33682;fill-opacity:1;fill-rule:nonzero;stroke:none"
         aria-label="1"
         transform="matrix(1.3333333,0,0,1.3333333,118.59867,55.354667)" />
      <path
         id="path8"
         d="m 6.5985547,-2.5189297 h -0.328125 c -0.046875,0.2578125 -0.1640625,1.078125 -0.3164063,1.3242188 -0.1054687,0.1289062 -0.9609375,0.1289062 -1.40625,0.1289062 H 1.7704297 c 0.4101562,-0.3398437 1.3242187,-1.3007812 1.7109375,-1.6640625 2.2851562,-2.0976562 3.1171875,-2.8828125 3.1171875,-4.359375 0,-1.734375 -1.359375,-2.8828125 -3.1054688,-2.8828125 -1.734375,0 -2.75390621,1.4882813 -2.75390621,2.7773438 0,0.7617187 0.65625001,0.7617187 0.70312501,0.7617187 0.3164062,0 0.703125,-0.2226562 0.703125,-0.703125 0,-0.421875 -0.28125,-0.703125 -0.703125,-0.703125 -0.140625,0 -0.1640625,0 -0.2109375,0.011719 0.28125,-1.0195313 1.0898437,-1.7109375 2.0742187,-1.7109375 1.265625,0 2.0507813,1.0664062 2.0507813,2.4492187 0,1.265625 -0.7382813,2.3789063 -1.59375,3.3398438 L 0.73917969,-0.36267969 V 6.015625e-4 H 6.2118359 Z m 0,0"
         style="fill:#d33682;fill-opacity:1;fill-rule:nonzero;stroke:none"
         aria-label="2"
         transform="matrix(1.3333333,0,0,1.3333333,156.39333,55.354667)" />
      <path
         id="path9"
         d="m 2.76425,-5.3900234 c -0.2578125,0.023437 -0.3164062,0.035156 -0.3164062,0.1757812 0,0.140625 0.070312,0.140625 0.3398437,0.140625 h 0.6914063 c 1.2773437,0 1.8398437,1.0546875 1.8398437,2.4960938 0,1.96874996 -1.0195312,2.48437496 -1.7460937,2.48437496 -0.7265625,0 -1.9570313,-0.33984375 -2.390625,-1.33593746 0.4804687,0.082031 0.9140625,-0.1875 0.9140625,-0.7265625 0,-0.4335938 -0.3164063,-0.7382813 -0.7382813,-0.7382813 -0.3515625,0 -0.75,0.2109375 -0.75,0.7851563 0,1.32421871 1.3359375,2.42578121 3,2.42578121 1.7929688,0 3.1054688,-1.37109371 3.1054688,-2.88281251 0,-1.3828125 -1.1015625,-2.4609375 -2.5429688,-2.71875 1.3007813,-0.375 2.1445313,-1.4648437 2.1445313,-2.6367187 0,-1.1835938 -1.2304688,-2.0507813 -2.6835938,-2.0507813 -1.5,0 -2.6132812,0.9140625 -2.6132812,2.0039063 0,0.609375 0.46875,0.7265625 0.6914062,0.7265625 0.3164063,0 0.6796875,-0.2226563 0.6796875,-0.6796875 0,-0.4804688 -0.3632812,-0.6914063 -0.6914062,-0.6914063 -0.09375,0 -0.1289063,0 -0.1640625,0.023437 0.5625,-1.0195312 1.9804687,-1.0195312 2.0507812,-1.0195312 0.4921875,0 1.4648438,0.2226562 1.4648438,1.6875 0,0.28125 -0.035156,1.125 -0.4804688,1.7695312 C 4.123625,-5.4837734 3.608,-5.4486172 3.2095625,-5.4251797 Z m 0,0"
         style="fill:#d33682;fill-opacity:1;fill-rule:nonzero;stroke:none"
         aria-label="3"
         transform="matrix(1.3333333,0,0,1.3333333,194.18933,55.354667)" />
      <path
         id="path10"
         d="m 5.4133437,-9.7623906 c 0,-0.2929684 0,-0.3632814 -0.2109375,-0.3632814 -0.1171875,0 -0.1640625,0 -0.28125,0.1757814 l -4.5117187,7.0078125 v 0.4335937 h 3.9375 v 1.3710938 c 0,0.55078123 -0.023437,0.70312498 -1.125,0.70312498 H 2.9289687 V -6.71875e-4 C 3.2688125,-0.03582812 4.4524062,-0.03582812 4.8742812,-0.03582812 c 0.421875,0 1.6171875,0 1.96875,0.035156245 V -0.43426562 H 6.5383437 c -1.078125,0 -1.125,-0.15234375 -1.125,-0.70312498 V -2.5084844 H 6.9250625 V -2.9420781 H 5.4133437 Z m -0.984375,1.171875 v 5.6484375 H 0.7844375 Z m 0,0"
         style="fill:#d33682;fill-opacity:1;fill-rule:nonzero;stroke:none"
         aria-label="4"
         transform="matrix(1.3333333,0,0,1.3333333,231.98533,93.149333)" />
      <path
         id="path11"
         d="m 1.9211562,-8.5898594 c 0.6445313,0.1992188 1.171875,0.2226563 1.3359375,0.2226563 1.6875,0 2.7773438,-1.2421875 2.7773438,-1.453125 0,-0.070312 -0.035156,-0.140625 -0.1289063,-0.140625 -0.023437,0 -0.058594,0 -0.1875,0.058594 -0.84375,0.3632813 -1.5585937,0.4101563 -1.9570312,0.4101563 -0.984375,0 -1.6875,-0.3046875 -1.9804688,-0.421875 -0.1054687,-0.046875 -0.1289062,-0.046875 -0.140625,-0.046875 -0.1289062,0 -0.1289062,0.09375 -0.1289062,0.328125 v 4.453125 c 0,0.2695312 0,0.3632812 0.1875,0.3632812 0.070312,0 0.082031,-0.011719 0.234375,-0.1992187 0.421875,-0.609375 1.125,-0.9726563 1.875,-0.9726563 0.796875,0 1.1835937,0.7382813 1.3007812,0.9960938 0.2578125,0.5859375 0.28125,1.3125 0.28125,1.8867187 0,0.5742188 0,1.4296875 -0.421875,2.0976563 -0.328125,0.53906248 -0.9140625,0.91406248 -1.5820312,0.91406248 -0.984375,0 -1.9570313,-0.66796875 -2.2265625,-1.76953128 0.070312,0.035156 0.1640625,0.046875 0.234375,0.046875 0.2578125,0 0.65625,-0.1523437 0.65625,-0.65625 0,-0.421875 -0.28125,-0.6679687 -0.65625,-0.6679687 -0.2695313,0 -0.65625,0.140625 -0.65625,0.7265625 0,1.2773437 1.0195312,2.73046873 2.6835937,2.73046873 1.6875,0 3.1757813,-1.42968753 3.1757813,-3.32812503 0,-1.7929687 -1.1953125,-3.2695312 -2.7773438,-3.2695312 -0.8554687,0 -1.5117187,0.375 -1.8984375,0.796875 z m 0,0"
         style="fill:#d33682;fill-opacity:1;fill-rule:nonzero;stroke:none"
         aria-label="5"
         transform="matrix(1.3333333,0,0,1.3333333,231.98533,130.94533)" />
      <path
         id="path12"
         d="m 1.839125,-5.2142031 c 0,-3.796875 1.8515625,-4.3945313 2.6601562,-4.3945313 0.5390625,0 1.078125,0.1640625 1.359375,0.609375 -0.1757812,0 -0.75,0 -0.75,0.609375 0,0.3398438 0.234375,0.6210938 0.6210938,0.6210938 0.375,0 0.6328125,-0.2226563 0.6328125,-0.65625 0,-0.7851563 -0.5742188,-1.546875 -1.875,-1.546875 -1.8984375,0 -3.87890625,1.9335937 -3.87890625,5.2382812 0,4.12500003 1.80468745,5.05078128 3.08203125,5.05078128 1.6289062,0 3.0234375,-1.42968748 3.0234375,-3.37499998 0,-1.9921875 -1.3945313,-3.328125 -2.8945313,-3.328125 -1.3359375,0 -1.828125,1.1484375 -1.9804687,1.5703125 z m 1.8515625,5.12109373 c -0.9492188,0 -1.3945313,-0.83203125 -1.5351563,-1.14843753 -0.1289062,-0.3984375 -0.28125,-1.125 -0.28125,-2.1796875 0,-1.1835937 0.5390625,-2.671875 1.8867188,-2.671875 0.8320312,0 1.265625,0.5625 1.4882812,1.0664063 0.234375,0.5625 0.234375,1.3125 0.234375,1.9570312 0,0.7617188 0,1.4296875 -0.28125,2.0039063 -0.375,0.72656248 -0.9140625,0.97265623 -1.5117187,0.97265623 z m 0,0"
         style="fill:#d33682;fill-opacity:1;fill-rule:nonzero;stroke:none"
         aria-label="6"
         transform="matrix(1.3333333,0,0,1.3333333,231.98533,168.74133)" />
      <path
         id="path13"
         d="m 4.4633828,-5.4135078 c 0.75,-0.4101563 1.8515625,-1.1015625 1.8515625,-2.3554688 0,-1.3007812 -1.265625,-2.203125 -2.6367187,-2.203125 -1.4882813,0 -2.6601563,1.0898438 -2.6601563,2.4609375 0,0.5039063 0.1523438,1.0195313 0.5742188,1.5234375 0.1640625,0.1992188 0.1757812,0.2109375 1.2304687,0.9492188 -1.4648437,0.6796875 -2.21484374,1.6757812 -2.21484374,2.7773437 0,1.58203129 1.52343754,2.57812504 3.04687504,2.57812504 1.6640625,0 3.0585937,-1.23046875 3.0585937,-2.80078124 0,-1.5351563 -1.078125,-2.2148438 -2.25,-2.9296875 z M 2.4243203,-6.7611641 c -0.1875,-0.140625 -0.7851562,-0.5273437 -0.7851562,-1.265625 0,-0.9726562 1.0195312,-1.5820312 2.015625,-1.5820312 1.078125,0 2.0390625,0.7734375 2.0390625,1.8515625 0,0.9140625 -0.65625,1.6523437 -1.5234375,2.1328125 z m 0.7148438,1.9335938 1.8046875,1.1835937 c 0.3984375,0.2578125 1.0898437,0.7148438 1.0898437,1.6289063 0,1.14843749 -1.1601562,1.92187499 -2.3554687,1.92187499 -1.2773438,0 -2.3789063,-0.92578129 -2.3789063,-2.16796879 0,-1.171875 0.8554688,-2.1210937 1.8398438,-2.5664062 z m 0,0"
         style="fill:#d33682;fill-opacity:1;fill-rule:nonzero;stroke:none"
         aria-label="8"
         transform="matrix(1.3333333,0,0,1.3333333,203.63867,178.19067)" />
      <path
         id="path14"
         d="m 4.3229297,-9.6086484 c 0,-0.3515625 0,-0.3632813 -0.3046875,-0.3632813 -0.3632813,0.3984375 -1.1132813,0.9609375 -2.6601563,0.9609375 v 0.4335938 c 0.3515625,0 1.1015625,0 1.921875,-0.3867188 v 7.8046875 c 0,0.55078126 -0.046875,0.72656251 -1.359375,0.72656251 h -0.46875 V 7.265625e-4 C 1.8619922,-0.03442969 3.3151172,-0.03442969 3.8073047,-0.03442969 c 0.4921875,0 1.9335937,0 2.34375,0.0351562525 V -0.43286719 h -0.46875 c -1.3242188,0 -1.359375,-0.17578125 -1.359375,-0.72656251 z m 0,0"
         style="fill:#d33682;fill-opacity:1;fill-rule:nonzero;stroke:none"
         aria-label="1"
         transform="matrix(1.3333333,0,0,1.3333333,184.74,159.292)" />
      <path
         id="path15"
         d="m 1.9204141,-8.5899453 c 0.6445312,0.1992187 1.171875,0.2226562 1.3359375,0.2226562 1.6875,0 2.7773437,-1.2421875 2.7773437,-1.453125 0,-0.070312 -0.035156,-0.140625 -0.1289062,-0.140625 -0.023437,0 -0.058594,0 -0.1875,0.058594 -0.84375,0.3632812 -1.5585938,0.4101562 -1.9570313,0.4101562 -0.984375,0 -1.6875,-0.3046875 -1.9804687,-0.421875 -0.1054688,-0.046875 -0.1289063,-0.046875 -0.140625,-0.046875 -0.1289063,0 -0.1289063,0.09375 -0.1289063,0.328125 v 4.453125 c 0,0.2695313 0,0.3632813 0.1875,0.3632813 0.070312,0 0.082031,-0.011719 0.234375,-0.1992188 0.421875,-0.609375 1.125,-0.9726562 1.875,-0.9726562 0.796875,0 1.1835938,0.7382812 1.3007813,0.9960937 0.2578125,0.5859375 0.28125,1.3125 0.28125,1.8867188 0,0.5742187 0,1.4296875 -0.421875,2.0976562 -0.328125,0.53906254 -0.9140625,0.91406254 -1.5820313,0.91406254 -0.984375,0 -1.9570312,-0.66796875 -2.2265625,-1.76953124 0.070312,0.035156 0.1640625,0.046875 0.234375,0.046875 0.2578125,0 0.65625,-0.1523438 0.65625,-0.65625 0,-0.421875 -0.28125,-0.6679688 -0.65625,-0.6679688 -0.2695312,0 -0.65624999,0.140625 -0.65624999,0.7265625 0,1.2773438 1.01953129,2.73046879 2.68359379,2.73046879 1.6875,0 3.1757812,-1.42968749 3.1757812,-3.32812499 0,-1.7929688 -1.1953125,-3.2695313 -2.7773437,-3.2695313 -0.8554688,0 -1.5117188,0.375 -1.8984375,0.796875 z m 0,0"
         style="fill:#d33682;fill-opacity:1;fill-rule:nonzero;stroke:none"
         aria-label="5"
         transform="matrix(1.3333333,0,0,1.3333333,203.63867,140.39467)" />
      <path
         id="path16"
         d="m 4.3229297,-9.6093047 c 0,-0.3515625 0,-0.3632812 -0.3046875,-0.3632812 -0.3632813,0.3984375 -1.1132813,0.9609375 -2.6601563,0.9609375 v 0.4335937 c 0.3515625,0 1.1015625,0 1.921875,-0.3867187 v 7.8046875 c 0,0.55078121 -0.046875,0.72656246 -1.359375,0.72656246 h -0.46875 V 7.03125e-5 C 1.8619922,-0.03508594 3.3151172,-0.03508594 3.8073047,-0.03508594 c 0.4921875,0 1.9335937,0 2.34375,0.0351562525 V -0.43352344 h -0.46875 c -1.3242188,0 -1.359375,-0.17578125 -1.359375,-0.72656246 z m 0,0"
         style="fill:#d33682;fill-opacity:1;fill-rule:nonzero;stroke:none"
         aria-label="1"
         transform="matrix(1.3333333,0,0,1.3333333,184.74,121.496)" />
      <path
         id="path17"
         d="m 6.5961953,-2.5202891 h -0.328125 c -0.046875,0.2578125 -0.1640625,1.078125 -0.3164062,1.3242188 -0.1054688,0.1289062 -0.9609375,0.1289062 -1.40625,0.1289062 H 1.7680703 c 0.4101563,-0.3398437 1.3242188,-1.3007812 1.7109375,-1.6640625 2.2851563,-2.0976562 3.1171875,-2.8828125 3.1171875,-4.359375 0,-1.734375 -1.359375,-2.8828125 -3.1054687,-2.8828125 -1.734375,0 -2.75390629,1.4882813 -2.75390629,2.7773438 0,0.7617187 0.65624999,0.7617187 0.70312499,0.7617187 0.3164063,0 0.703125,-0.2226562 0.703125,-0.703125 0,-0.421875 -0.28125,-0.703125 -0.703125,-0.703125 -0.140625,0 -0.1640625,0 -0.2109375,0.011719 0.28125,-1.0195313 1.0898438,-1.7109375 2.0742188,-1.7109375 1.265625,0 2.0507812,1.0664062 2.0507812,2.4492187 0,1.265625 -0.7382812,2.3789063 -1.59375,3.3398438 L 0.73682031,-0.36403906 V -7.578125e-4 H 6.2094766 Z m 0,0"
         style="fill:#d33682;fill-opacity:1;fill-rule:nonzero;stroke:none"
         aria-label="2"
         transform="matrix(1.3333333,0,0,1.3333333,203.63867,102.59867)" />
      <path
         id="path18"
         d="m 4.3229297,-9.6080312 c 0,-0.3515625 0,-0.3632813 -0.3046875,-0.3632813 C 3.6549609,-9.572875 2.9049609,-9.010375 1.3580859,-9.010375 v 0.4335938 c 0.3515625,0 1.1015625,0 1.921875,-0.3867188 v 7.8046875 c 0,0.55078125 -0.046875,0.7265625 -1.359375,0.7265625 h -0.46875 V 0.00134375 C 1.8619922,-0.0338125 3.3151172,-0.0338125 3.8073047,-0.0338125 c 0.4921875,0 1.9335937,0 2.34375,0.03515625 V -0.43225 h -0.46875 c -1.3242188,0 -1.359375,-0.17578125 -1.359375,-0.7265625 z m 0,0"
         style="fill:#d33682;fill-opacity:1;fill-rule:nonzero;stroke:none"
         aria-label="1"
         transform="matrix(1.3333333,0,0,1.3333333,184.74,83.701333)" />
      <path
         id="path19"
         d="M 6.5984687,-2.5189766 H 6.2703437 C 6.2234687,-2.2611641 6.1062812,-1.4408516 5.9539375,-1.1947578 5.8484687,-1.0658516 4.993,-1.0658516 4.5476875,-1.0658516 H 1.7703437 C 2.1805,-1.4056953 3.0945625,-2.3666328 3.4812812,-2.7299141 c 2.2851563,-2.0976562 3.1171875,-2.8828125 3.1171875,-4.359375 0,-1.734375 -1.359375,-2.8828125 -3.1054687,-2.8828125 -1.734375,0 -2.75390625,1.4882813 -2.75390625,2.7773438 0,0.7617187 0.65624995,0.7617187 0.70312495,0.7617187 0.3164063,0 0.703125,-0.2226562 0.703125,-0.703125 0,-0.421875 -0.28125,-0.703125 -0.703125,-0.703125 -0.140625,0 -0.1640625,0 -0.2109375,0.011719 0.28125,-1.0195313 1.0898438,-1.7109375 2.0742188,-1.7109375 1.265625,0 2.0507812,1.0664062 2.0507812,2.4492187 0,1.265625 -0.7382812,2.3789063 -1.59375,3.3398438 L 0.73909375,-0.36272656 V 5.546875e-4 H 6.21175 Z m 0,0"
         style="fill:#d33682;fill-opacity:1;fill-rule:nonzero;stroke:none"
         aria-label="2"
         transform="matrix(1.3333333,0,0,1.3333333,165.84267,178.19067)" />
      <path
         id="path20"
         d="m 4.3242031,-9.6086484 c 0,-0.3515625 0,-0.3632813 -0.3046875,-0.3632813 -0.3632812,0.3984375 -1.1132812,0.9609375 -2.6601562,0.9609375 v 0.4335938 c 0.3515625,0 1.1015625,0 1.921875,-0.3867188 v 7.8046875 c 0,0.55078126 -0.046875,0.72656251 -1.359375,0.72656251 h -0.46875 V 7.265625e-4 C 1.8632656,-0.03442969 3.3163906,-0.03442969 3.8085781,-0.03442969 c 0.4921875,0 1.9335938,0 2.34375,0.0351562525 V -0.43286719 h -0.46875 c -1.3242187,0 -1.359375,-0.17578125 -1.359375,-0.72656251 z m 0,0"
         style="fill:#d33682;fill-opacity:1;fill-rule:nonzero;stroke:none"
         aria-label="1"
         transform="matrix(1.3333333,0,0,1.3333333,146.94533,159.292)" />
      <path
         id="path21"
         d="m 6.7156562,-4.8047891 c 0,-1.2421875 -0.070312,-2.4609375 -0.609375,-3.5976562 C 5.4851875,-9.6446328 4.4070625,-9.9727578 3.6805,-9.9727578 c -0.8789063,0 -1.9453125,0.4335937 -2.4960938,1.6757812 -0.42187495,0.9492188 -0.5742187,1.875 -0.5742187,3.4921875 0,1.4648438 0.10546875,2.5546875 0.65625,3.6210938 0.5742187,1.13671874 1.6171875,1.49999999 2.390625,1.49999999 1.3125,0 2.0625,-0.78515625 2.4960937,-1.65234379 0.5390625,-1.125 0.5625,-2.5898437 0.5625,-3.46875 z M 3.6570625,0.01161719 c -0.4804688,0 -1.453125,-0.26953125 -1.734375,-1.89843749 -0.1640625,-0.9023438 -0.1640625,-2.0390625 -0.1640625,-3.09375 0,-1.2304688 0,-2.34375 0.234375,-3.2226563 0.2578125,-1.0078125 1.0195312,-1.4765625 1.6640625,-1.4765625 0.5742187,0 1.4414062,0.3515625 1.734375,1.640625 0.1875,0.8554688 0.1875,2.0390625 0.1875,3.0585938 0,1.0078125 0,2.1445312 -0.1640625,3.0585937 -0.28125,1.65234379 -1.2304688,1.93359379 -1.7578125,1.93359379 z m 0,0"
         style="fill:#d33682;fill-opacity:1;fill-rule:nonzero;stroke:none"
         aria-label="0"
         transform="matrix(1.3333333,0,0,1.3333333,165.84267,140.39467)" />
      <path
         id="path22"
         d="m 4.3242031,-9.6093047 c 0,-0.3515625 0,-0.3632812 -0.3046875,-0.3632812 -0.3632812,0.3984375 -1.1132812,0.9609375 -2.6601562,0.9609375 v 0.4335937 c 0.3515625,0 1.1015625,0 1.921875,-0.3867187 v 7.8046875 c 0,0.55078121 -0.046875,0.72656246 -1.359375,0.72656246 h -0.46875 V 7.03125e-5 C 1.8632656,-0.03508594 3.3163906,-0.03508594 3.8085781,-0.03508594 c 0.4921875,0 1.9335938,0 2.34375,0.0351562525 V -0.43352344 h -0.46875 c -1.3242187,0 -1.359375,-0.17578125 -1.359375,-0.72656246 z m 0,0"
         style="fill:#d33682;fill-opacity:1;fill-rule:nonzero;stroke:none"
         aria-label="1"
         transform="matrix(1.3333333,0,0,1.3333333,146.94533,121.496)" />
      <path
         id="path23"
         d="m 4.4656562,-5.4148203 c 0.75,-0.4101563 1.8515625,-1.1015625 1.8515625,-2.3554688 0,-1.3007812 -1.265625,-2.203125 -2.6367187,-2.203125 -1.4882813,0 -2.6601563,1.0898438 -2.6601563,2.4609375 0,0.5039063 0.1523438,1.0195313 0.5742188,1.5234375 0.1640625,0.1992188 0.1757812,0.2109375 1.2304687,0.9492188 -1.4648437,0.6796875 -2.2148437,1.6757812 -2.2148437,2.7773437 0,1.58203129 1.5234375,2.57812504 3.046875,2.57812504 1.6640625,0 3.0585937,-1.23046875 3.0585937,-2.80078124 0,-1.5351563 -1.078125,-2.2148438 -2.25,-2.9296875 z M 2.4265937,-6.7624766 c -0.1875,-0.140625 -0.7851562,-0.5273437 -0.7851562,-1.265625 0,-0.9726562 1.0195312,-1.5820312 2.015625,-1.5820312 1.078125,0 2.0390625,0.7734375 2.0390625,1.8515625 0,0.9140625 -0.65625,1.6523437 -1.5234375,2.1328125 z m 0.7148438,1.9335938 1.8046875,1.1835937 c 0.3984375,0.2578125 1.0898437,0.7148438 1.0898437,1.6289063 0,1.14843749 -1.1601562,1.92187499 -2.3554687,1.92187499 -1.2773438,0 -2.3789063,-0.92578129 -2.3789063,-2.16796879 0,-1.171875 0.8554688,-2.1210937 1.8398438,-2.5664062 z m 0,0"
         style="fill:#d33682;fill-opacity:1;fill-rule:nonzero;stroke:none"
         aria-label="8"
         transform="matrix(1.3333333,0,0,1.3333333,165.84267,102.59867)" />
      <path
         id="path24"
         d="m 6.7148281,-4.8033437 c 0,-1.2421875 -0.070312,-2.4609375 -0.609375,-3.5976563 -0.6210937,-1.2421875 -1.6992187,-1.5703125 -2.4257812,-1.5703125 -0.8789063,0 -1.9453125,0.4335938 -2.4960938,1.6757813 -0.42187498,0.9492187 -0.57421873,1.875 -0.57421873,3.4921875 0,1.4648437 0.10546875,2.5546875 0.65625003,3.6210937 0.5742187,1.13671875 1.6171875,1.5 2.390625,1.5 1.3125,0 2.0625,-0.78515625 2.4960937,-1.6523437 0.5390625,-1.125 0.5625,-2.5898438 0.5625,-3.46875 z M 3.6562344,0.0130625 c -0.4804688,0 -1.453125,-0.26953125 -1.734375,-1.8984375 -0.1640625,-0.9023437 -0.1640625,-2.0390625 -0.1640625,-3.09375 0,-1.2304687 0,-2.34375 0.234375,-3.2226562 0.2578125,-1.0078125 1.0195312,-1.4765625 1.6640625,-1.4765625 0.5742187,0 1.4414062,0.3515625 1.734375,1.640625 0.1875,0.8554687 0.1875,2.0390625 0.1875,3.0585937 0,1.0078125 0,2.1445313 -0.1640625,3.0585938 -0.28125,1.6523437 -1.2304688,1.9335937 -1.7578125,1.9335937 z m 0,0"
         style="fill:#d33682;fill-opacity:1;fill-rule:nonzero;stroke:none"
         aria-label="0"
         transform="matrix(1.3333333,0,0,1.3333333,146.94533,83.701333)" />
      <path
         id="path25"
         d="m 1.84,-5.2142891 c 0,-3.796875 1.8515625,-4.3945312 2.6601563,-4.3945312 0.5390625,0 1.078125,0.1640625 1.359375,0.609375 -0.1757813,0 -0.75,0 -0.75,0.609375 0,0.3398437 0.234375,0.6210937 0.6210937,0.6210937 0.375,0 0.6328125,-0.2226562 0.6328125,-0.65625 0,-0.7851562 -0.5742187,-1.546875 -1.875,-1.546875 -1.8984375,0 -3.87890625,1.9335938 -3.87890625,5.2382813 0,4.12499999 1.80468755,5.05078124 3.08203125,5.05078124 1.6289063,0 3.0234375,-1.42968754 3.0234375,-3.37500004 0,-1.9921875 -1.3945312,-3.328125 -2.8945312,-3.328125 -1.3359375,0 -1.828125,1.1484375 -1.9804688,1.5703125 z m 1.8515625,5.12109379 c -0.9492187,0 -1.3945312,-0.83203125 -1.5351562,-1.14843749 -0.1289063,-0.3984375 -0.28125,-1.125 -0.28125,-2.1796875 0,-1.1835938 0.5390625,-2.671875 1.8867187,-2.671875 0.8320313,0 1.265625,0.5625 1.4882813,1.0664062 0.234375,0.5625 0.234375,1.3125 0.234375,1.9570313 0,0.7617187 0,1.4296875 -0.28125,2.0039062 -0.375,0.72656254 -0.9140625,0.97265629 -1.5117188,0.97265629 z m 0,0"
         style="fill:#d33682;fill-opacity:1;fill-rule:nonzero;stroke:none"
         aria-label="6"
         transform="matrix(1.3333333,0,0,1.3333333,128.04667,178.19067)" />
      <path
         id="path26"
         d="m 6.7141719,-4.8039609 c 0,-1.2421875 -0.070312,-2.4609375 -0.609375,-3.5976563 -0.6210938,-1.2421875 -1.6992188,-1.5703125 -2.4257813,-1.5703125 -0.8789062,0 -1.9453125,0.4335938 -2.4960937,1.6757813 -0.42187502,0.9492187 -0.57421877,1.875 -0.57421877,3.4921875 0,1.4648437 0.10546875,2.5546875 0.65624997,3.6210937 0.5742188,1.13671876 1.6171875,1.50000001 2.390625,1.50000001 1.3125,0 2.0625,-0.78515625 2.4960938,-1.65234371 0.5390625,-1.125 0.5625,-2.5898438 0.5625,-3.46875 z M 3.6555781,0.01244531 c -0.4804687,0 -1.453125,-0.26953125 -1.734375,-1.89843751 -0.1640625,-0.9023437 -0.1640625,-2.0390625 -0.1640625,-3.09375 0,-1.2304687 0,-2.34375 0.234375,-3.2226562 0.2578125,-1.0078125 1.0195313,-1.4765625 1.6640625,-1.4765625 0.5742188,0 1.4414063,0.3515625 1.734375,1.640625 0.1875,0.8554687 0.1875,2.0390625 0.1875,3.0585937 0,1.0078125 0,2.1445313 -0.1640625,3.0585938 -0.28125,1.65234371 -1.2304687,1.93359371 -1.7578125,1.93359371 z m 0,0"
         style="fill:#d33682;fill-opacity:1;fill-rule:nonzero;stroke:none"
         aria-label="0"
         transform="matrix(1.3333333,0,0,1.3333333,109.14933,159.292)" />
      <path
         id="path27"
         d="m 1.9220313,-8.5899453 c 0.6445312,0.1992187 1.171875,0.2226562 1.3359375,0.2226562 1.6875,0 2.7773437,-1.2421875 2.7773437,-1.453125 0,-0.070312 -0.035156,-0.140625 -0.1289062,-0.140625 -0.023437,0 -0.058594,0 -0.1875,0.058594 -0.84375,0.3632812 -1.5585938,0.4101562 -1.9570313,0.4101562 -0.984375,0 -1.6875,-0.3046875 -1.9804687,-0.421875 -0.1054688,-0.046875 -0.1289063,-0.046875 -0.140625,-0.046875 -0.1289063,0 -0.1289063,0.09375 -0.1289063,0.328125 v 4.453125 c 0,0.2695313 0,0.3632813 0.1875,0.3632813 0.070312,0 0.082031,-0.011719 0.234375,-0.1992188 0.421875,-0.609375 1.125,-0.9726562 1.875,-0.9726562 0.796875,0 1.1835938,0.7382812 1.3007813,0.9960937 0.2578125,0.5859375 0.28125,1.3125 0.28125,1.8867188 0,0.5742187 0,1.4296875 -0.421875,2.0976562 -0.328125,0.53906254 -0.9140625,0.91406254 -1.5820313,0.91406254 -0.984375,0 -1.9570312,-0.66796875 -2.2265625,-1.76953124 0.070312,0.035156 0.1640625,0.046875 0.234375,0.046875 0.2578125,0 0.65625,-0.1523438 0.65625,-0.65625 0,-0.421875 -0.28125,-0.6679688 -0.65625,-0.6679688 -0.2695312,0 -0.65625,0.140625 -0.65625,0.7265625 0,1.2773438 1.0195313,2.73046879 2.6835938,2.73046879 1.6875,0 3.1757812,-1.42968749 3.1757812,-3.32812499 0,-1.7929688 -1.1953125,-3.2695313 -2.7773437,-3.2695313 -0.8554688,0 -1.5117188,0.375 -1.8984375,0.796875 z m 0,0"
         style="fill:#d33682;fill-opacity:1;fill-rule:nonzero;stroke:none"
         aria-label="5"
         transform="matrix(1.3333333,0,0,1.3333333,128.04667,140.39467)" />
      <path
         id="path28"
         d="m 6.7141719,-4.8046172 c 0,-1.2421875 -0.070312,-2.4609375 -0.609375,-3.5976562 -0.6210938,-1.2421875 -1.6992188,-1.5703125 -2.4257813,-1.5703125 -0.8789062,0 -1.9453125,0.4335937 -2.4960937,1.6757812 -0.42187502,0.9492188 -0.57421877,1.875 -0.57421877,3.4921875 0,1.4648438 0.10546875,2.5546875 0.65624997,3.6210938 0.5742188,1.13671871 1.6171875,1.49999996 2.390625,1.49999996 1.3125,0 2.0625,-0.78515625 2.4960938,-1.65234376 0.5390625,-1.125 0.5625,-2.5898437 0.5625,-3.46875 z M 3.6555781,0.01178906 c -0.4804687,0 -1.453125,-0.26953125 -1.734375,-1.89843746 -0.1640625,-0.9023438 -0.1640625,-2.0390625 -0.1640625,-3.09375 0,-1.2304688 0,-2.34375 0.234375,-3.2226563 0.2578125,-1.0078125 1.0195313,-1.4765625 1.6640625,-1.4765625 0.5742188,0 1.4414063,0.3515625 1.734375,1.640625 0.1875,0.8554688 0.1875,2.0390625 0.1875,3.0585938 0,1.0078125 0,2.1445312 -0.1640625,3.0585937 -0.28125,1.65234376 -1.2304687,1.93359376 -1.7578125,1.93359376 z m 0,0"
         style="fill:#d33682;fill-opacity:1;fill-rule:nonzero;stroke:none"
         aria-label="0"
         transform="matrix(1.3333333,0,0,1.3333333,109.14933,121.496)" />
      <path
         id="path29"
         d="m 5.4142188,-9.7624766 c 0,-0.2929684 0,-0.3632814 -0.2109375,-0.3632814 -0.1171875,0 -0.1640625,0 -0.28125,0.1757814 l -4.5117188,7.0078125 v 0.4335938 h 3.9375 v 1.3710937 c 0,0.55078129 -0.023437,0.70312504 -1.125,0.70312504 H 2.9298438 V -7.578125e-4 C 3.2696875,-0.03591406 4.4532813,-0.03591406 4.8751563,-0.03591406 c 0.421875,0 1.6171875,0 1.96875,0.0351562475 V -0.43435156 H 6.5392188 c -1.078125,0 -1.125,-0.15234375 -1.125,-0.70312504 V -2.5085703 H 6.9259375 V -2.9421641 H 5.4142188 Z m -0.984375,1.171875 v 5.6484375 H 0.7853125 Z m 0,0"
         style="fill:#d33682;fill-opacity:1;fill-rule:nonzero;stroke:none"
         aria-label="4"
         transform="matrix(1.3333333,0,0,1.3333333,128.04667,102.59867)" />
      <path
         id="path30"
         d="m 6.7141719,-4.8033437 c 0,-1.2421875 -0.070312,-2.4609375 -0.609375,-3.5976563 -0.6210938,-1.2421875 -1.6992188,-1.5703125 -2.4257813,-1.5703125 -0.8789062,0 -1.9453125,0.4335938 -2.4960937,1.6757813 -0.42187502,0.9492187 -0.57421877,1.875 -0.57421877,3.4921875 0,1.4648437 0.10546875,2.5546875 0.65624997,3.6210937 0.5742188,1.13671875 1.6171875,1.5 2.390625,1.5 1.3125,0 2.0625,-0.78515625 2.4960938,-1.6523437 0.5390625,-1.125 0.5625,-2.5898438 0.5625,-3.46875 z M 3.6555781,0.0130625 c -0.4804687,0 -1.453125,-0.26953125 -1.734375,-1.8984375 -0.1640625,-0.9023437 -0.1640625,-2.0390625 -0.1640625,-3.09375 0,-1.2304687 0,-2.34375 0.234375,-3.2226562 0.2578125,-1.0078125 1.0195313,-1.4765625 1.6640625,-1.4765625 0.5742188,0 1.4414063,0.3515625 1.734375,1.640625 0.1875,0.8554687 0.1875,2.0390625 0.1875,3.0585937 0,1.0078125 0,2.1445313 -0.1640625,3.0585938 -0.28125,1.6523437 -1.2304687,1.9335937 -1.7578125,1.9335937 z m 0,0"
         style="fill:#d33682;fill-opacity:1;fill-rule:nonzero;stroke:none"
         aria-label="0"
         transform="matrix(1.3333333,0,0,1.3333333,109.14933,83.701333)" />
      <path
         id="path31"
         d="m 5.3802656,-3.8425703 c 0,-0.9960938 -0.058594,-1.96875 -0.4921875,-2.8710938 -0.4921875,-0.9960937 -1.359375,-1.265625 -1.9453125,-1.265625 -0.703125,0 -1.546875,0.3515625 -1.99218748,1.3476563 -0.33984375,0.75 -0.45703125,1.5 -0.45703125,2.7890625 0,1.171875 0.0820312,2.0390625 0.51562503,2.89453124 0.46875,0.9140625 1.3007812,1.20703125 1.921875,1.20703125 1.0429687,0 1.640625,-0.6328125 1.9921875,-1.32421879 0.4335937,-0.9023437 0.4570312,-2.0742187 0.4570312,-2.7773437 z M 2.9310469,0.01289844 c -0.3867188,0 -1.1601563,-0.2109375 -1.3945313,-1.52343754 -0.1289062,-0.7148437 -0.1289062,-1.6289062 -0.1289062,-2.4726562 0,-0.984375 0,-1.875 0.1875,-2.578125 0.2109375,-0.8085938 0.8203125,-1.171875 1.3359375,-1.171875 0.4570312,0 1.1484375,0.2695312 1.3828125,1.3007812 0.1523437,0.6914063 0.1523437,1.6289063 0.1523437,2.4492188 0,0.8085937 0,1.7109375 -0.1289062,2.4492187 -0.234375,1.32421879 -0.984375,1.54687504 -1.40625,1.54687504 z M 12.136125,-8.2195234 h 3.304687 c 0.175782,0 0.386719,0 0.386719,-0.2109375 0,-0.2226563 -0.199219,-0.2226563 -0.386719,-0.2226563 h -3.304687 v -3.3164058 c 0,-0.164063 0,-0.386719 -0.222656,-0.386719 -0.222657,0 -0.222657,0.210937 -0.222657,0.386719 v 3.3164058 H 8.3744062 c -0.1640625,0 -0.3867187,0 -0.3867187,0.2109375 0,0.2226563 0.2109375,0.2226563 0.3867187,0.2226563 h 3.3164058 v 3.3164062 c 0,0.1640625 0,0.3867188 0.210938,0.3867188 0.234375,0 0.234375,-0.2109375 0.234375,-0.3867188 z m 7.795898,-4.9101566 c 0,-0.28125 0,-0.292968 -0.246093,-0.292968 -0.28125,0.328125 -0.878907,0.773437 -2.121094,0.773437 v 0.339844 c 0.28125,0 0.878906,0 1.535156,-0.304688 v 6.2460941 c 0,0.4335937 -0.03516,0.5742187 -1.089844,0.5742187 h -0.375 v 0.3515625 c 0.328125,-0.023437 1.488282,-0.023437 1.886719,-0.023437 0.398438,0 1.546875,0 1.875,0.023437 v -0.3515625 h -0.375 c -1.054687,0 -1.089844,-0.140625 -1.089844,-0.5742187 z m 0,0"
         style="fill:#d33682;fill-opacity:1;fill-rule:nonzero;stroke:none"
         aria-label="0&#10;+1"
         transform="matrix(1.3333333,0,0,1.3333333,108.256,208.87733)" />
      <path
         id="path32"
         d="m 4.4657422,-5.4127656 c 0.75,-0.4101563 1.8515625,-1.1015625 1.8515625,-2.3554688 0,-1.3007812 -1.265625,-2.203125 -2.6367188,-2.203125 -1.4882812,0 -2.6601562,1.0898438 -2.6601562,2.4609375 0,0.5039063 0.1523437,1.0195313 0.5742187,1.5234375 0.1640625,0.1992188 0.1757813,0.2109375 1.2304688,0.9492188 -1.4648438,0.6796875 -2.21484376,1.6757812 -2.21484376,2.7773437 0,1.58203128 1.52343746,2.57812503 3.04687496,2.57812503 1.6640625,0 3.0585938,-1.23046875 3.0585938,-2.80078123 0,-1.5351563 -1.078125,-2.2148438 -2.25,-2.9296875 z M 2.4266797,-6.7604219 c -0.1875,-0.140625 -0.7851563,-0.5273437 -0.7851563,-1.265625 0,-0.9726562 1.0195313,-1.5820312 2.015625,-1.5820312 1.078125,0 2.0390625,0.7734375 2.0390625,1.8515625 0,0.9140625 -0.65625,1.6523437 -1.5234375,2.1328125 z m 0.7148437,1.9335938 1.8046875,1.1835937 c 0.3984375,0.2578125 1.0898438,0.7148438 1.0898438,1.6289063 0,1.14843748 -1.1601563,1.92187498 -2.3554688,1.92187498 -1.2773437,0 -2.3789062,-0.92578128 -2.3789062,-2.16796878 0,-1.171875 0.8554687,-2.1210937 1.8398437,-2.5664062 z m 0,0"
         style="fill:#d33682;fill-opacity:1;fill-rule:nonzero;stroke:none"
         aria-label="8"
         transform="matrix(1.3333333,0,0,1.3333333,156.39333,206.53733)" />
      <path
         id="path33"
         d="m 4.4634688,-5.4127656 c 0.75,-0.4101563 1.8515625,-1.1015625 1.8515625,-2.3554688 0,-1.3007812 -1.265625,-2.203125 -2.6367188,-2.203125 -1.4882812,0 -2.6601562,1.0898438 -2.6601562,2.4609375 0,0.5039063 0.1523437,1.0195313 0.5742187,1.5234375 0.1640625,0.1992188 0.1757813,0.2109375 1.2304688,0.9492188 C 1.358,-4.3580781 0.608,-3.3619844 0.608,-2.2604219 c 0,1.58203128 1.5234375,2.57812503 3.046875,2.57812503 1.6640625,0 3.0585938,-1.23046875 3.0585938,-2.80078123 0,-1.5351563 -1.078125,-2.2148438 -2.25,-2.9296875 z M 2.4244063,-6.7604219 c -0.1875,-0.140625 -0.7851563,-0.5273437 -0.7851563,-1.265625 0,-0.9726562 1.0195313,-1.5820312 2.015625,-1.5820312 1.078125,0 2.0390625,0.7734375 2.0390625,1.8515625 0,0.9140625 -0.65625,1.6523437 -1.5234375,2.1328125 z m 0.7148437,1.9335938 1.8046875,1.1835937 c 0.3984375,0.2578125 1.0898438,0.7148438 1.0898438,1.6289063 0,1.14843748 -1.1601563,1.92187498 -2.3554688,1.92187498 -1.2773437,0 -2.3789062,-0.92578128 -2.3789062,-2.16796878 0,-1.171875 0.8554687,-2.1210937 1.8398437,-2.5664062 z m 0,0"
         style="fill:#d33682;fill-opacity:1;fill-rule:nonzero;stroke:none"
         aria-label="8"
         transform="matrix(1.3333333,0,0,1.3333333,194.18933,206.53733)" />
      <path
         id="path34"
         d="m 6.7134297,-4.8053594 c 0,-1.2421875 -0.070312,-2.4609375 -0.609375,-3.5976562 -0.6210938,-1.2421875 -1.6992188,-1.5703125 -2.4257813,-1.5703125 -0.8789062,0 -1.9453125,0.4335937 -2.4960937,1.6757812 -0.42187501,0.9492188 -0.57421876,1.875 -0.57421876,3.4921875 0,1.4648438 0.10546875,2.5546875 0.65624996,3.6210938 0.5742188,1.13671873 1.6171875,1.49999998 2.390625,1.49999998 1.3125,0 2.0625,-0.78515625 2.4960938,-1.65234378 0.5390625,-1.125 0.5625,-2.5898437 0.5625,-3.46875 z M 3.6548359,0.01104688 c -0.4804687,0 -1.453125,-0.26953125 -1.734375,-1.89843748 -0.1640625,-0.9023438 -0.1640625,-2.0390625 -0.1640625,-3.09375 0,-1.2304688 0,-2.34375 0.234375,-3.2226563 0.2578125,-1.0078125 1.0195313,-1.4765625 1.6640625,-1.4765625 0.5742188,0 1.4414063,0.3515625 1.734375,1.640625 0.1875,0.8554688 0.1875,2.0390625 0.1875,3.0585938 0,1.0078125 0,2.1445312 -0.1640625,3.0585937 -0.28125,1.65234378 -1.2304687,1.93359378 -1.7578125,1.93359378 z m 0,0"
         style="fill:#d33682;fill-opacity:1;fill-rule:nonzero;stroke:none"
         aria-label="0"
         transform="matrix(1.3333333,0,0,1.3333333,80.802667,93.149333)" />
      <path
         id="path35"
         d="m 1.9204609,-8.5898594 c 0.6445313,0.1992188 1.171875,0.2226563 1.3359375,0.2226563 1.6875,0 2.7773438,-1.2421875 2.7773438,-1.453125 0,-0.070312 -0.035156,-0.140625 -0.1289063,-0.140625 -0.023437,0 -0.058594,0 -0.1875,0.058594 -0.84375,0.3632813 -1.5585937,0.4101563 -1.9570312,0.4101563 -0.984375,0 -1.6875,-0.3046875 -1.9804688,-0.421875 -0.1054687,-0.046875 -0.1289062,-0.046875 -0.140625,-0.046875 -0.1289062,0 -0.1289062,0.09375 -0.1289062,0.328125 v 4.453125 c 0,0.2695312 0,0.3632812 0.1875,0.3632812 0.070312,0 0.082031,-0.011719 0.234375,-0.1992187 0.421875,-0.609375 1.125,-0.9726563 1.875,-0.9726563 0.796875,0 1.1835937,0.7382813 1.3007812,0.9960938 0.2578125,0.5859375 0.28125,1.3125 0.28125,1.8867187 0,0.5742188 0,1.4296875 -0.421875,2.0976563 -0.328125,0.53906248 -0.9140625,0.91406248 -1.5820312,0.91406248 -0.984375,0 -1.9570313,-0.66796875 -2.2265625,-1.76953128 0.070312,0.035156 0.1640625,0.046875 0.234375,0.046875 0.2578125,0 0.65625,-0.1523437 0.65625,-0.65625 0,-0.421875 -0.28125,-0.6679687 -0.65625,-0.6679687 -0.2695313,0 -0.65625001,0.140625 -0.65625001,0.7265625 0,1.2773437 1.01953121,2.73046873 2.68359371,2.73046873 1.6875,0 3.1757813,-1.42968753 3.1757813,-3.32812503 0,-1.7929687 -1.1953125,-3.2695312 -2.7773438,-3.2695312 -0.8554687,0 -1.5117187,0.375 -1.8984375,0.796875 z m 0,0"
         style="fill:#d33682;fill-opacity:1;fill-rule:nonzero;stroke:none"
         aria-label="5"
         transform="matrix(1.3333333,0,0,1.3333333,80.802667,130.94533)" />
      <path
         id="path36"
         d="m 1.4762656,-4.1713516 c 0,-3.0351562 1.4765625,-3.515625 2.1210938,-3.515625 0.4335937,0 0.8671875,0.1289063 1.0898437,0.4921875 -0.140625,0 -0.5976562,0 -0.5976562,0.4921875 0,0.2578125 0.1875,0.4921875 0.4921875,0.4921875 0.3046875,0 0.5039062,-0.1875 0.5039062,-0.5273437 0,-0.6328125 -0.4570312,-1.2421875 -1.5,-1.2421875 -1.5117187,0 -3.09374997,1.546875 -3.09374997,4.1835937 0,3.30468754 1.44140627,4.05468754 2.46093747,4.05468754 1.3125,0 2.4257813,-1.1484375 2.4257813,-2.70703124 0,-1.59375 -1.1132813,-2.6601563 -2.3203125,-2.6601563 -1.0664063,0 -1.4648438,0.9257813 -1.5820313,1.2539063 z m 1.4765625,4.10156254 c -0.7617187,0 -1.1132812,-0.66796875 -1.2304687,-0.92578125 C 1.6168906,-1.3119766 1.4997031,-1.8979141 1.4997031,-2.7299453 c 0,-0.9492188 0.4335938,-2.1445313 1.5117188,-2.1445313 0.65625,0 1.0078125,0.4453125 1.1835937,0.8554688 0.1992188,0.4453125 0.1992188,1.0429687 0.1992188,1.5585937 0,0.609375 0,1.1484375 -0.234375,1.60546879 -0.2929688,0.57421875 -0.7265625,0.78515625 -1.2070313,0.78515625 z M 12.137398,-8.2201797 h 3.304688 c 0.175781,0 0.386719,0 0.386719,-0.2109375 0,-0.2226562 -0.199219,-0.2226562 -0.386719,-0.2226562 H 12.137398 V -11.97018 c 0,-0.164062 0,-0.386718 -0.222656,-0.386718 -0.222656,0 -0.222656,0.210937 -0.222656,0.386718 v 3.3164066 H 8.3756797 c -0.1640625,0 -0.3867188,0 -0.3867188,0.2109375 0,0.2226562 0.2109375,0.2226562 0.3867188,0.2226562 h 3.3164063 v 3.3164063 c 0,0.1640625 0,0.3867187 0.210937,0.3867187 0.234375,0 0.234375,-0.2109375 0.234375,-0.3867187 z m 7.795899,-4.9101563 c 0,-0.28125 0,-0.292969 -0.246094,-0.292969 -0.28125,0.328125 -0.878906,0.773438 -2.121094,0.773438 v 0.339844 c 0.28125,0 0.878907,0 1.535157,-0.304688 v 6.2460938 c 0,0.4335938 -0.03516,0.5742188 -1.089844,0.5742188 h -0.375 v 0.3515625 c 0.328125,-0.023437 1.488281,-0.023437 1.886719,-0.023437 0.398437,0 1.546875,0 1.875,0.023437 v -0.3515625 h -0.375 c -1.054688,0 -1.089844,-0.140625 -1.089844,-0.5742188 z m 0,0"
         style="fill:#d33682;fill-opacity:1;fill-rule:nonzero;stroke:none"
         aria-label="6&#10;+1"
         transform="matrix(1.3333333,0,0,1.3333333,70.461333,171.08133)" />
    </g>
  </g>
</svg>
