<?xml version="1.0" encoding="UTF-8" standalone="no"?>
<!-- Created with Inkscape (http://www.inkscape.org/) -->

<svg
   version="1.1"
   id="svg1"
   width="539.86108"
   height="246.86533"
   viewBox="0 0 539.86107 246.86533"
   sodipodi:docname="closest-pair.svg"
   inkscape:version="1.4.2 (ebf0e940d0, 2025-05-08)"
   xmlns:inkscape="http://www.inkscape.org/namespaces/inkscape"
   xmlns:sodipodi="http://sodipodi.sourceforge.net/DTD/sodipodi-0.dtd"
   xmlns="http://www.w3.org/2000/svg"
   xmlns:svg="http://www.w3.org/2000/svg">
  <defs
     id="defs1" />
  <sodipodi:namedview
     id="namedview1"
     pagecolor="#ffffff"
     bordercolor="#666666"
     borderopacity="1.0"
     inkscape:showpageshadow="2"
     inkscape:pageopacity="0.0"
     inkscape:pagecheckerboard="0"
     inkscape:deskcolor="#d1d1d1"
     inkscape:zoom="2.500924"
     inkscape:cx="490.41875"
     inkscape:cy="354.46899"
     inkscape:window-width="3840"
     inkscape:window-height="2346"
     inkscape:window-x="0"
     inkscape:window-y="54"
     inkscape:window-maximized="1"
     inkscape:current-layer="g1">
    <inkscape:page
       x="0"
       y="0"
       inkscape:label="1"
       id="page1"
       width="539.86108"
       height="246.86533"
       margin="0"
       bleed="0" />
  </sodipodi:namedview>
  <g
     id="g1"
     inkscape:groupmode="layer"
     inkscape:label="1"
     transform="translate(-70.615495,-42.304687)">
    <g
       id="g35">
      <path
         id="path2"
         d="M -56.69362,0 H 56.69362"
         style="fill:none;stroke:#586e75;stroke-width:0.79701;stroke-linecap:butt;stroke-linejoin:miter;stroke-miterlimit:10;stroke-dasharray:none;stroke-opacity:1"
         transform="matrix(1.3333333,0,0,-1.3333333,217.05733,288.63867)" />
      <path
         id="path3"
         d="M 0,0 V 170.08086"
         style="fill:none;stroke:#586e75;stroke-width:0.79701;stroke-linecap:butt;stroke-linejoin:miter;stroke-miterlimit:10;stroke-dasharray:none;stroke-opacity:1"
         transform="matrix(1.3333333,0,0,-1.3333333,217.05733,288.63867)" />
      <path
         id="path4"
         d="M -56.69362,0 V 170.08086"
         style="fill:none;stroke:#586e75;stroke-width:0.79701;stroke-linecap:butt;stroke-linejoin:miter;stroke-miterlimit:10;stroke-dasharray:2.98883, 2.98883;stroke-dashoffset:0;stroke-opacity:1"
         transform="matrix(1.3333333,0,0,-1.3333333,217.05733,288.63867)" />
      <path
         id="path5"
         d="M 56.69362,0 V 170.08086"
         style="fill:none;stroke:#586e75;stroke-width:0.79701;stroke-linecap:butt;stroke-linejoin:miter;stroke-miterlimit:10;stroke-dasharray:2.98883, 2.98883;stroke-dashoffset:0;stroke-opacity:1"
         transform="matrix(1.3333333,0,0,-1.3333333,217.05733,288.63867)" />
      <path
         id="path6"
         d="m 4.2648125,-6.6561953 c -2.6601562,0.609375 -3.57421875,2.90625 -3.57421875,4.2304687 0,1.82812504 1.44140625,2.60156254 3.04687505,2.60156254 1.9804687,0 3.3984375,-2.37890624 3.3984375,-4.79296874 0,-1.3476563 -0.5273438,-1.9921875 -1.1484375,-2.578125 C 5.3195,-7.8280703 4.007,-9.0585391 4.007,-9.5858828 c 0,-0.070312 0.1523438,-0.4804692 0.703125,-0.4804692 0.4921875,0 0.8554688,0.2695317 1.1132813,0.4570317 0.28125,0.2226562 0.75,0.5625 1.078125,0.5625 0.4453125,0 0.796875,-0.4335938 0.796875,-0.8085938 0,-0.4335939 -0.2460938,-0.4921879 -1.0546875,-0.6562499 -0.328125,-0.08203 -1.1953125,-0.257813 -1.59375,-0.257813 -0.8085938,0 -1.6875,0.574219 -1.6875,1.6523442 0,0.8320312 0.5507812,1.8398437 0.9023437,2.4609375 z m 0.328125,0.5507812 c 0.375,0.5859375 0.8320313,1.4296875 0.8320313,2.4726563 0,0.6679687 -0.3984375,3.26953124 -1.640625,3.26953124 -0.1757813,0 -0.7382813,-0.0234375 -1.1601563,-0.3984375 -0.375,-0.36328124 -0.375,-0.93750004 -0.375,-1.11328124 0,-0.7851563 0.421875,-2.2382813 0.6914063,-2.7890625 0.2109375,-0.3867188 0.65625,-1.125 1.6523437,-1.4414063 z m 0,0"
         style="fill:#d33682;fill-opacity:1;fill-rule:nonzero;stroke:none"
         aria-label="δ"
         transform="matrix(1.3333333,0,0,1.3333333,173.65733,283.44133)" />
      <path
         id="path7"
         d="m 4.266125,-6.6561953 c -2.6601563,0.609375 -3.57421875,2.90625 -3.57421875,4.2304687 0,1.82812504 1.44140625,2.60156254 3.04687495,2.60156254 1.9804688,0 3.3984375,-2.37890624 3.3984375,-4.79296874 0,-1.3476563 -0.5273437,-1.9921875 -1.1484375,-2.578125 -0.6679687,-0.6328125 -1.9804687,-1.8632813 -1.9804687,-2.390625 0,-0.070312 0.1523437,-0.4804692 0.703125,-0.4804692 0.4921875,0 0.8554687,0.2695317 1.1132812,0.4570317 0.28125,0.2226562 0.75,0.5625 1.078125,0.5625 0.4453125,0 0.796875,-0.4335938 0.796875,-0.8085938 0,-0.4335939 -0.2460937,-0.4921879 -1.0546875,-0.6562499 -0.328125,-0.08203 -1.1953125,-0.257813 -1.59375,-0.257813 -0.8085937,0 -1.6875,0.574219 -1.6875,1.6523442 0,0.8320312 0.5507813,1.8398437 0.9023438,2.4609375 z m 0.328125,0.5507812 c 0.375,0.5859375 0.8320312,1.4296875 0.8320312,2.4726563 0,0.6679687 -0.3984375,3.26953124 -1.640625,3.26953124 -0.1757812,0 -0.7382812,-0.0234375 -1.1601562,-0.3984375 -0.375,-0.36328124 -0.375,-0.93750004 -0.375,-1.11328124 0,-0.7851563 0.421875,-2.2382813 0.6914062,-2.7890625 0.2109375,-0.3867188 0.65625,-1.125 1.6523438,-1.4414063 z m 0,0"
         style="fill:#d33682;fill-opacity:1;fill-rule:nonzero;stroke:none"
         aria-label="δ"
         transform="matrix(1.3333333,0,0,1.3333333,249.24933,283.44133)" />
      <path
         id="path8"
         d="m 8.0380156,-6.0130469 c -0.5390625,0.1523438 -0.8085937,0.65625 -0.8085937,1.03125 0,0.328125 0.2578125,0.6914063 0.75,0.6914063 0.5273437,0 1.078125,-0.4335938 1.078125,-1.171875 0,-0.796875 -0.796875,-1.3242188 -1.7109375,-1.3242188 -0.8554688,0 -1.40625,0.6445313 -1.6054688,0.9257813 -0.375,-0.6328125 -1.2070312,-0.9257813 -2.0625,-0.9257813 -1.8984375,0 -2.91796872,1.8515625 -2.91796872,2.34375 0,0.2109375 0.22265625,0.2109375 0.36328122,0.2109375 0.1757813,0 0.28125,0 0.3398438,-0.1992187 0.4453125,-1.359375 1.5234375,-1.8046875 2.1328125,-1.8046875 0.5742187,0 0.84375,0.2695312 0.84375,0.75 0,0.28125 -0.2109375,1.1015625 -0.3515625,1.640625 l -0.5039063,2.0625 c -0.2226562,0.91406248 -0.7617187,1.35937498 -1.2773437,1.35937498 -0.070312,0 -0.421875,0 -0.7148438,-0.22265625 0.5390625,-0.15234375 0.8085938,-0.65625003 0.8085938,-1.03125003 0,-0.3398437 -0.2578125,-0.6914062 -0.75,-0.6914062 -0.5273438,0 -1.07812502,0.4335937 -1.07812502,1.171875 0,0.78515623 0.78515622,1.31249998 1.71093752,1.31249998 0.8554687,0 1.40625,-0.64453125 1.6054687,-0.9140625 0.375,0.6328125 1.2070313,0.9140625 2.0625,0.9140625 1.8867188,0 2.90625,-1.83984378 2.90625,-2.33203128 0,-0.2109375 -0.2226562,-0.2109375 -0.3515625,-0.2109375 -0.1875,0 -0.2929687,0 -0.3515625,0.1875 -0.4335937,1.37109378 -1.5117187,1.81640628 -2.1210937,1.81640628 -0.5742188,0 -0.84375,-0.26953125 -0.84375,-0.74999998 0,-0.3164063 0.1992187,-1.1132813 0.328125,-1.6640625 0.1054687,-0.3867188 0.4453125,-1.8046875 0.5273437,-2.0390625 0.2226563,-0.9023438 0.75,-1.359375 1.2773438,-1.359375 0.070312,0 0.4101562,0 0.7148437,0.2226562 z m 0,0"
         style="fill:#d33682;fill-opacity:1;fill-rule:nonzero;stroke:none"
         aria-label="x"
         transform="matrix(1.3333333,0,0,1.3333333,185.83733,51.353333)" />
      <path
         id="path9"
         d="m 11.56707,-4.9700781 c 0.222657,0 0.609375,0 0.609375,-0.421875 0,-0.3984375 -0.398437,-0.3984375 -0.597656,-0.3984375 H 1.5358203 c -0.1992187,0 -0.60937499,0 -0.60937499,0.3984375 0,0.421875 0.39843749,0.421875 0.62109379,0.421875 z m 0.01172,3.2695312 c 0.199219,0 0.597656,0 0.597656,-0.3984375 0,-0.421875 -0.386718,-0.421875 -0.609375,-0.421875 H 1.5475391 c -0.2226563,0 -0.62109379,0 -0.62109379,0.421875 0,0.3984375 0.41015629,0.3984375 0.60937499,0.3984375 z m 0,0"
         style="fill:#d33682;fill-opacity:1;fill-rule:nonzero;stroke:none"
         aria-label="="
         transform="matrix(1.3333333,0,0,1.3333333,204.57333,51.353333)" />
      <path
         id="path10"
         d="m 6.4684297,-1.6536719 c -0.09375,0.375 -0.2578125,1.00781253 -0.2578125,1.11328128 0,0.31640625 0.234375,0.65625 0.703125,0.65625 0.2578125,0 0.7265625,-0.12890625 0.9492187,-0.64453125 0.1171875,-0.31640625 0.796875,-3.15234373 0.9375,-3.76171873 0.046875,-0.2226563 0.082031,-0.3046875 0.3984375,-0.7265625 0.3867188,-0.5039063 1.0898436,-1.21875 2.1445316,-1.21875 0.386718,0 0.75,0.140625 0.75,0.8789062 0,0.8554688 -0.667969,2.6132813 -0.949219,3.3632813 -0.164063,0.3984375 -0.210938,0.5039062 -0.210938,0.7617187 0,0.86718753 0.867188,1.34765628 1.699219,1.34765628 1.582031,0 2.332031,-2.03906248 2.332031,-2.33203128 0,-0.2109375 -0.222656,-0.2109375 -0.351562,-0.2109375 -0.1875,0 -0.292969,0 -0.351563,0.1875 -0.492187,1.66406253 -1.300781,1.81640628 -1.546875,1.81640628 -0.105468,0 -0.246093,0 -0.246093,-0.31640625 0,-0.33984373 0.140625,-0.71484373 0.292968,-1.08984373 0.246094,-0.6210938 0.9375,-2.3671875 0.9375,-3.2109375 0,-1.3828125 -1.160156,-1.7460938 -2.238281,-1.7460938 -0.351562,0 -1.4882811,0 -2.6132811,1.3007813 -0.046875,-0.1992188 -0.1523437,-0.6679688 -0.7148437,-0.984375 -0.5390625,-0.3164063 -1.2890625,-0.3164063 -1.453125,-0.3164063 -0.3164063,0 -1.4179688,0 -2.484375,1.1484375 -0.2109375,-0.75 -1.03125,-1.1484375 -1.8398438,-1.1484375 -0.5507812,0 -0.9726562,0.3164063 -1.3007812,0.8554688 -0.37500001,0.609375 -0.57421876,1.4179687 -0.57421876,1.4882812 0,0.2109375 0.22265625,0.2109375 0.36328125,0.2109375 0.16406251,0 0.22265621,0 0.29296871,-0.070312 0.035156,-0.035156 0.035156,-0.058594 0.1289063,-0.4335937 0.2929687,-1.171875 0.6210937,-1.5 1.0195312,-1.5 0.2226563,0 0.3398438,0.140625 0.3398438,0.5507812 0,0.2578125 -0.058594,0.4921875 -0.2109375,1.0898438 -0.1054688,0.421875 -0.2578125,1.0195312 -0.328125,1.359375 l -0.5390625,2.0976562 c -0.046875,0.21093753 -0.1171875,0.49218753 -0.1171875,0.59765628 0,0.31640625 0.234375,0.65625 0.703125,0.65625 0.7734375,0 0.9609375,-0.69140625 1.0664062,-1.13671878 0.140625,-0.5507812 0.2695313,-1.03125 0.4101563,-1.6757812 0.070312,-0.1992188 0.4453125,-1.7460938 0.46875,-1.7929688 0.011719,-0.082031 0.4335937,-0.7617187 0.9375,-1.171875 0.4101562,-0.328125 0.9140625,-0.5742187 1.5351562,-0.5742187 0.3984375,0 0.75,0.140625 0.75,0.8789062 0,0.3398438 -0.1054687,0.7851563 -0.1640625,1.0078125 z m 0,0"
         style="fill:#d33682;fill-opacity:1;fill-rule:nonzero;stroke:none"
         aria-label="m"
         transform="matrix(1.3333333,0,0,1.3333333,227.62933,51.353333)" />
      <path
         id="path11"
         d="m -9.2251,31.18166 c 0,1.16722 -0.94621,2.11343 -2.11345,2.11343 -1.16722,0 -2.11343,-0.94621 -2.11343,-2.11343 0,-1.16723 0.94621,-2.11346 2.11343,-2.11346 1.16724,0 2.11345,0.94623 2.11345,2.11346 z"
         style="fill:#586e75;fill-opacity:1;fill-rule:nonzero;stroke:none"
         transform="matrix(1.3333333,0,0,-1.3333333,217.05733,288.63867)" />
      <path
         id="path12"
         d="m -46.07603,68.03217 c 0,1.16722 -0.94622,2.11343 -2.11344,2.11343 -1.16722,0 -2.11345,-0.94621 -2.11345,-2.11343 0,-1.16724 0.94623,-2.11345 2.11345,-2.11345 1.16722,0 2.11344,0.94621 2.11344,2.11345 z"
         style="fill:#586e75;fill-opacity:1;fill-rule:nonzero;stroke:none"
         transform="matrix(1.3333333,0,0,-1.3333333,217.05733,288.63867)" />
      <path
         id="path13"
         d="m -105.6045,76.53629 c 0,1.16721 -0.94622,2.11343 -2.11344,2.11343 -1.16722,0 -2.11344,-0.94622 -2.11344,-2.11343 0,-1.16723 0.94622,-2.11345 2.11344,-2.11345 1.16722,0 2.11344,0.94622 2.11344,2.11345 z"
         style="fill:#586e75;fill-opacity:1;fill-rule:nonzero;stroke:none"
         transform="matrix(1.3333333,0,0,-1.3333333,217.05733,288.63867)" />
      <path
         id="path14"
         d="m -71.58842,116.22208 c 0,1.16722 -0.94622,2.11345 -2.11344,2.11345 -1.16722,0 -2.11343,-0.94623 -2.11343,-2.11345 0,-1.16722 0.94621,-2.11344 2.11343,-2.11344 1.16722,0 2.11344,0.94622 2.11344,2.11344 z"
         style="fill:#586e75;fill-opacity:1;fill-rule:nonzero;stroke:none"
         transform="matrix(1.3333333,0,0,-1.3333333,217.05733,288.63867)" />
      <path
         id="path15"
         d="m -34.73749,164.41156 c 0,1.16722 -0.94621,2.11345 -2.11343,2.11345 -1.16722,0 -2.11345,-0.94623 -2.11345,-2.11345 0,-1.16722 0.94623,-2.11343 2.11345,-2.11343 1.16722,0 2.11343,0.94621 2.11343,2.11343 z"
         style="fill:#586e75;fill-opacity:1;fill-rule:nonzero;stroke:none"
         transform="matrix(1.3333333,0,0,-1.3333333,217.05733,288.63867)" />
      <path
         id="path16"
         d="m -106.21295,78.29211 31.0061,36.17414"
         style="fill:none;stroke:#586e75;stroke-width:0.79701;stroke-linecap:butt;stroke-linejoin:miter;stroke-miterlimit:10;stroke-dasharray:none;stroke-opacity:1"
         transform="matrix(1.3333333,0,0,-1.3333333,217.05733,288.63867)" />
      <path
         id="path17"
         d="M 7.1979136,-7.8974472 C 7.2360477,-8.0690508 7.23859,-8.1021004 7.23859,-8.1021004 7.2347766,-8.2686195 7.1152896,-8.3359899 6.990718,-8.337261 6.932246,-8.333451 6.932246,-8.333451 6.897925,-8.319465 L 5.3547632,-8.24701 c -0.1677902,0.020338 -0.3851549,0.036863 -0.3851549,0.3610033 0,0.2160935 0.2160935,0.2160935 0.3152423,0.2237203 0.1334695,-0.00636 0.3330382,-0.00763 0.497015,0.021609 L 5.1373986,-4.989083 C 4.9505413,-5.1530598 4.5475905,-5.4250834 3.9158348,-5.4238123 1.829897,-5.4263546 0.5371495,-3.5310875 0.54350519,-1.8849636 0.53842064,-0.41425671 1.6379552,0.09419856 2.6357986,0.08784287 3.4912746,0.0954697 4.1090478,-0.37230915 4.3060742,-0.55662419 4.7713108,0.09419856 5.5530608,0.08784287 5.6852591,0.09801197 6.1263441,0.09038514 6.4771782,-0.14858883 6.7352193,-0.58586037 7.0301233,-1.070164 7.1788465,-1.7070042 7.183931,-1.7731034 7.1801176,-1.9396225 7.0059717,-1.9447071 6.897925,-1.9447071 c -0.1245716,-0.00127 -0.1830439,0.00254 -0.2377029,0.064828 -0.034321,0.013983 -0.027965,0.039405 -0.101691,0.349563 -0.2313472,0.95462474 -0.5071842,1.19105644 -0.8147996,1.19232758 -0.1245716,-0.001271 -0.2707524,-0.045761 -0.2643968,-0.45252519 -0.00381,-0.16651911 0.0089,-0.33176709 0.063557,-0.50209959 z m -3.0151398,6.7827933 c -0.3470207,0.40549313 -0.8986947,0.77030979 -1.480876,0.77539434 -0.7398024,0.001271 -0.8059016,-0.65209389 -0.8033593,-0.90123694 -0.00127,-0.6317557 0.4118488,-2.1126317 0.5974349,-2.5804105 0.3660878,-0.8694586 0.9622516,-1.1643626 1.452911,-1.168176 0.6978548,0.00381 0.9953012,0.5669276 0.99403,0.6914991 l -0.021609,0.1728748 z m 8.3720342,-3.6259216 c 0.04576,-0.1627057 0.0483,-0.1957553 0.0483,-0.1957553 -0.0038,-0.1665191 -0.123301,-0.2338894 -0.264397,-0.2364317 -0.05847,0.00381 -0.05847,0.00381 -0.09279,0.017796 l -1.535535,0.081353 c -0.175417,0.01144 -0.392782,0.027965 -0.392782,0.3521053 0,0.2160935 0.232619,0.2173646 0.315243,0.2237203 0.133469,-0.00636 0.349563,-0.00636 0.504642,0.030507 L 9.6095805,1.6735877 c -0.052117,0.137283 -0.061015,0.2529565 -0.064828,0.4105777 -0.00254,0.7893768 0.7906475,1.1745317 1.4974005,1.1707182 0.448712,0.00127 0.766497,-0.2402451 1.04996,-0.6838723 0.284735,-0.460152 0.449983,-1.0957211 0.456339,-1.1783451 -0.0038,-0.1665191 -0.194484,-0.1728748 -0.302531,-0.1728748 -0.124571,-0.00127 -0.166519,0.00381 -0.228805,0.057201 -0.03559,0.030507 -0.02924,0.05593 -0.09406,0.358461 -0.236432,0.9126772 -0.490659,1.1923276 -0.8148,1.1923276 -0.183044,0.00254 -0.289819,-0.1220292 -0.282192,-0.4372715 0.0013,-0.2326183 0.02669,-0.3470207 0.08135,-0.5173533 z m 0,0"
         style="fill:#d33682;fill-opacity:1;fill-rule:nonzero;stroke:none"
         aria-label="d&#10;l"
         transform="matrix(0.86768,-1.0122933,1.0122933,0.86768,82.917016,161.05292)" />
      <path
         id="path18"
         d="m 2.11343,113.38724 c 0,1.16722 -0.94621,2.11343 -2.11343,2.11343 -1.16722,0 -2.11343,-0.94621 -2.11343,-2.11343 0,-1.16724 0.94621,-2.11345 2.11343,-2.11345 1.16722,0 2.11343,0.94621 2.11343,2.11345 z"
         style="fill:#586e75;fill-opacity:1;fill-rule:nonzero;stroke:none"
         transform="matrix(1.3333333,0,0,-1.3333333,217.05733,288.63867)" />
      <path
         id="path19"
         d="m 24.79095,39.68535 c 0,1.16722 -0.94621,2.11343 -2.11343,2.11343 -1.16724,0 -2.11345,-0.94621 -2.11345,-2.11343 0,-1.16722 0.94621,-2.11344 2.11345,-2.11344 1.16722,0 2.11343,0.94622 2.11343,2.11344 z"
         style="fill:#586e75;fill-opacity:1;fill-rule:nonzero;stroke:none"
         transform="matrix(1.3333333,0,0,-1.3333333,217.05733,288.63867)" />
      <path
         id="path20"
         d="m 84.319,79.37114 c 0,1.16722 -0.94621,2.11343 -2.11345,2.11343 -1.16722,0 -2.11343,-0.94621 -2.11343,-2.11343 0,-1.16724 0.94621,-2.11345 2.11343,-2.11345 1.16724,0 2.11345,0.94621 2.11345,2.11345 z"
         style="fill:#586e75;fill-opacity:1;fill-rule:nonzero;stroke:none"
         transform="matrix(1.3333333,0,0,-1.3333333,217.05733,288.63867)" />
      <path
         id="path21"
         d="m 44.63364,164.41156 c 0,1.16722 -0.94622,2.11345 -2.11344,2.11345 -1.16722,0 -2.11345,-0.94623 -2.11345,-2.11345 0,-1.16722 0.94623,-2.11343 2.11345,-2.11343 1.16722,0 2.11344,0.94621 2.11344,2.11343 z"
         style="fill:#586e75;fill-opacity:1;fill-rule:nonzero;stroke:none"
         transform="matrix(1.3333333,0,0,-1.3333333,217.05733,288.63867)" />
      <path
         id="path22"
         d="m 95.65799,147.40332 c 0,1.16722 -0.94623,2.11343 -2.11345,2.11343 -1.16722,0 -2.11344,-0.94621 -2.11344,-2.11343 0,-1.16722 0.94622,-2.11345 2.11344,-2.11345 1.16722,0 2.11345,0.94623 2.11345,2.11345 z"
         style="fill:#586e75;fill-opacity:1;fill-rule:nonzero;stroke:none"
         transform="matrix(1.3333333,0,0,-1.3333333,217.05733,288.63867)" />
      <path
         id="path23"
         d="M 44.7141,163.68027 91.35065,148.13461"
         style="fill:none;stroke:#586e75;stroke-width:0.79701;stroke-linecap:butt;stroke-linejoin:miter;stroke-miterlimit:10;stroke-dasharray:none;stroke-opacity:1"
         transform="matrix(1.3333333,0,0,-1.3333333,217.05733,288.63867)" />
      <path
         id="path24"
         d="m 7.185719,-7.9037465 c 0.051884,-0.1778862 0.05559,-0.203828 0.05559,-0.203828 -0.00741,-0.1704745 -0.1260022,-0.2297704 -0.263123,-0.2334768 -0.03706,-10e-8 -0.048177,0.00371 -0.070413,0.011118 l -1.5490946,0.09635 c -0.1815924,0.011117 -0.3891266,0.018529 -0.3891276,0.3520656 -7e-7,0.2223581 0.2112394,0.2260647 0.3224184,0.226065 0.1222969,-0.00371 0.3335371,1.1e-6 0.4965996,0.00741 l -0.6448467,2.6608824 c -0.1890038,-0.1593571 -0.5892474,-0.4336 -1.2192618,-0.433602 -2.0864596,0.0037 -3.38355407,1.8937386 -3.3798533,3.535482 -4.68e-6,1.4823869 1.0932541,1.98269592 2.0827473,1.98640502 0.8634903,-0.0037032 1.4860943,-0.47065313 1.6825112,-0.65965684 0.4558318,0.66336957 1.2452028,0.6596661 1.3674998,0.65596052 0.444716,1.4e-6 0.8079016,-0.24459128 1.0599087,-0.67448268 C 7.0337529,-1.0588291 7.1856997,-1.7147848 7.1894058,-1.7777862 7.1856958,-1.9371428 7.000402,-1.9371434 6.9003409,-1.9408497 c -0.1334148,0.00741 -0.1852984,-6e-7 -0.240888,0.055589 -0.029648,0.022236 -0.022236,0.044472 -0.1037683,0.3557725 -0.2334789,0.96725668 -0.5077212,1.18220191 -0.8153165,1.1859069 -0.1371208,-0.003706 -0.2705355,-0.0333546 -0.2705342,-0.44101095 0.00371,-0.17418044 0.022237,-0.34094895 0.077827,-0.50771725 z m -2.9981489,6.7930284 c -0.3446563,0.41136125 -0.9042584,0.7708383 -1.4972132,0.77083642 -0.7411934,-2.34e-6 -0.785663,-0.6522527 -0.7856621,-0.91167042 1.9e-6,-0.6300144 0.400251,-2.0975761 0.5892569,-2.5682334 0.3668934,-0.8634892 0.9672611,-1.1747885 1.4638607,-1.167375 0.7041338,2.2e-6 0.9857855,0.5484862 0.9820791,0.685607 l -0.025942,0.1815923 z M 14.479046,-2.5801016 c -0.667075,0.1482366 -0.733784,0.7263673 -0.733785,0.8375463 -0.0074,0.2742416 0.211239,0.5596017 0.592953,0.555897 0.407657,1.2e-6 0.863492,-0.3372403 0.856082,-0.9524309 0.0037,-0.5447772 -0.429889,-1.0302602 -1.159965,-1.0339685 -0.678192,0.0037 -1.248912,0.3298271 -1.586156,0.7263645 -0.300181,-0.5670139 -0.982079,-0.7226667 -1.415677,-0.726374 -0.444716,-1.4e-6 -0.789372,0.2631212 -1.041379,0.6930126 -0.2927728,0.455833 -0.4595434,1.1043767 -0.4595436,1.1784961 -0.00741,0.1630625 0.1778859,0.1630631 0.277947,0.1667694 0.1371208,0.00371 0.1852983,6e-7 0.2520056,-0.059295 0.02594,-0.033354 0.01853,-0.055589 0.09265,-0.3520666 0.229772,-0.9042553 0.489191,-1.2007318 0.822728,-1.2007308 0.174181,0.00371 0.274241,0.1185919 0.270534,0.441011 -0.0037,0.2112401 -0.03335,0.3446548 -0.166771,0.9079614 -0.05559,0.203828 -0.259421,1.00061035 -0.337247,1.28596957 -0.05559,0.24088769 -0.174183,0.77454659 -0.237185,0.99319846 -0.07783,0.32241887 -0.222361,0.85237177 -0.218655,0.93760897 -1e-6,0.2594177 0.189002,0.5299539 0.559599,0.5299551 0.233476,-0.00371 0.667075,-0.1482366 0.796785,-0.6485417 0.0074,-0.014824 0.830147,-3.2908963 0.841265,-3.3687215 0.04077,-0.1741804 0.04447,-0.2001221 0.192712,-0.38542 0.281654,-0.3409481 0.733784,-0.6893076 1.337856,-0.6930116 0.28536,0.00371 0.426186,0.1297102 0.463246,0.1667699 z m 0,0"
         style="fill:#d33682;fill-opacity:1;fill-rule:nonzero;stroke:none"
         aria-label="d&#10;r"
         transform="matrix(1.2648533,0.42161333,-0.42161333,1.2648533,300.00458,69.533891)" />
      <path
         id="path25"
         d="M 226.77448,0 V 170.08086"
         style="fill:none;stroke:#586e75;stroke-width:0.79701;stroke-linecap:butt;stroke-linejoin:miter;stroke-miterlimit:10;stroke-dasharray:none;stroke-opacity:1"
         transform="matrix(1.3333333,0,0,-1.3333333,217.05733,288.63867)" />
      <path
         id="path26"
         d="M 170.08086,56.69362 H 283.4681"
         style="fill:none;stroke:#586e75;stroke-width:0.79701;stroke-linecap:butt;stroke-linejoin:miter;stroke-miterlimit:10;stroke-dasharray:none;stroke-opacity:1"
         transform="matrix(1.3333333,0,0,-1.3333333,217.05733,288.63867)" />
      <path
         id="path27"
         d="m 170.08086,56.69362 v 56.69362 H 283.4681 V 56.69362"
         style="fill:none;stroke:#586e75;stroke-width:0.79701;stroke-linecap:butt;stroke-linejoin:miter;stroke-miterlimit:10;stroke-dasharray:2.98883, 2.98883;stroke-dashoffset:0;stroke-opacity:1"
         transform="matrix(1.3333333,0,0,-1.3333333,217.05733,288.63867)" />
      <path
         id="path28"
         d="m 8.0394062,-6.0130469 c -0.5390625,0.1523438 -0.8085937,0.65625 -0.8085937,1.03125 0,0.328125 0.2578125,0.6914063 0.75,0.6914063 0.5273437,0 1.078125,-0.4335938 1.078125,-1.171875 0,-0.796875 -0.796875,-1.3242188 -1.7109375,-1.3242188 -0.8554688,0 -1.40625,0.6445313 -1.6054688,0.9257813 -0.375,-0.6328125 -1.2070312,-0.9257813 -2.0625,-0.9257813 -1.8984375,0 -2.9179687,1.8515625 -2.9179687,2.34375 0,0.2109375 0.22265625,0.2109375 0.3632812,0.2109375 0.1757813,0 0.28125,0 0.3398438,-0.1992187 C 1.9105,-5.7903906 2.988625,-6.2357031 3.598,-6.2357031 c 0.5742187,0 0.84375,0.2695312 0.84375,0.75 0,0.28125 -0.2109375,1.1015625 -0.3515625,1.640625 l -0.5039063,2.0625 c -0.2226562,0.91406248 -0.7617187,1.35937498 -1.2773437,1.35937498 -0.070312,0 -0.421875,0 -0.7148438,-0.22265625 0.5390625,-0.15234375 0.8085938,-0.65625003 0.8085938,-1.03125003 0,-0.3398437 -0.2578125,-0.6914062 -0.75,-0.6914062 -0.5273438,0 -1.078125,0.4335937 -1.078125,1.171875 0,0.78515623 0.7851562,1.31249998 1.7109375,1.31249998 0.8554687,0 1.40625,-0.64453125 1.6054687,-0.9140625 0.375,0.6328125 1.2070313,0.9140625 2.0625,0.9140625 1.8867188,0 2.90625,-1.83984378 2.90625,-2.33203128 0,-0.2109375 -0.2226562,-0.2109375 -0.3515625,-0.2109375 -0.1875,0 -0.2929687,0 -0.3515625,0.1875 C 7.723,-0.86851562 6.644875,-0.42320312 6.0355,-0.42320312 c -0.5742188,0 -0.84375,-0.26953125 -0.84375,-0.74999998 0,-0.3164063 0.1992187,-1.1132813 0.328125,-1.6640625 0.1054687,-0.3867188 0.4453125,-1.8046875 0.5273437,-2.0390625 0.2226563,-0.9023438 0.75,-1.359375 1.2773438,-1.359375 0.070312,0 0.4101562,0 0.7148437,0.2226562 z m 0,0"
         style="fill:#d33682;fill-opacity:1;fill-rule:nonzero;stroke:none"
         aria-label="x"
         transform="matrix(1.3333333,0,0,1.3333333,488.20267,51.353333)" />
      <path
         id="path29"
         d="m 11.565531,-4.9700781 c 0.222656,0 0.609375,0 0.609375,-0.421875 0,-0.3984375 -0.398437,-0.3984375 -0.597656,-0.3984375 H 1.5342812 c -0.1992187,0 -0.60937495,0 -0.60937495,0.3984375 0,0.421875 0.39843745,0.421875 0.62109375,0.421875 z m 0.01172,3.2695312 c 0.199219,0 0.597656,0 0.597656,-0.3984375 0,-0.421875 -0.386719,-0.421875 -0.609375,-0.421875 H 1.546 c -0.2226563,0 -0.62109375,0 -0.62109375,0.421875 0,0.3984375 0.41015625,0.3984375 0.60937495,0.3984375 z m 0,0"
         style="fill:#d33682;fill-opacity:1;fill-rule:nonzero;stroke:none"
         aria-label="="
         transform="matrix(1.3333333,0,0,1.3333333,506.93867,51.353333)" />
      <path
         id="path30"
         d="m 6.4698203,-1.6536719 c -0.09375,0.375 -0.2578125,1.00781253 -0.2578125,1.11328128 0,0.31640625 0.234375,0.65625 0.703125,0.65625 0.2578125,0 0.7265625,-0.12890625 0.9492188,-0.64453125 0.1171875,-0.31640625 0.796875,-3.15234373 0.9375,-3.76171873 0.046875,-0.2226563 0.082031,-0.3046875 0.3984375,-0.7265625 0.3867187,-0.5039063 1.0898439,-1.21875 2.1445309,-1.21875 0.386719,0 0.75,0.140625 0.75,0.8789062 0,0.8554688 -0.667968,2.6132813 -0.949218,3.3632813 -0.164063,0.3984375 -0.210938,0.5039062 -0.210938,0.7617187 0,0.86718753 0.867188,1.34765628 1.699219,1.34765628 1.582031,0 2.332031,-2.03906248 2.332031,-2.33203128 0,-0.2109375 -0.222656,-0.2109375 -0.351562,-0.2109375 -0.1875,0 -0.292969,0 -0.351563,0.1875 -0.492187,1.66406253 -1.300781,1.81640628 -1.546875,1.81640628 -0.105469,0 -0.246094,0 -0.246094,-0.31640625 0,-0.33984373 0.140625,-0.71484373 0.292969,-1.08984373 0.246094,-0.6210938 0.9375,-2.3671875 0.9375,-3.2109375 0,-1.3828125 -1.160156,-1.7460938 -2.238281,-1.7460938 -0.351563,0 -1.4882814,0 -2.6132814,1.3007813 -0.046875,-0.1992188 -0.1523438,-0.6679688 -0.7148438,-0.984375 -0.5390625,-0.3164063 -1.2890625,-0.3164063 -1.453125,-0.3164063 -0.3164062,0 -1.4179687,0 -2.484375,1.1484375 -0.2109375,-0.75 -1.03125,-1.1484375 -1.8398437,-1.1484375 -0.5507813,0 -0.9726563,0.3164063 -1.3007813,0.8554688 -0.37499999,0.609375 -0.57421874,1.4179687 -0.57421874,1.4882812 0,0.2109375 0.22265625,0.2109375 0.36328125,0.2109375 0.16406249,0 0.22265629,0 0.29296879,-0.070312 0.035156,-0.035156 0.035156,-0.058594 0.1289062,-0.4335937 0.2929688,-1.171875 0.6210938,-1.5 1.0195313,-1.5 0.2226562,0 0.3398437,0.140625 0.3398437,0.5507812 0,0.2578125 -0.058594,0.4921875 -0.2109375,1.0898438 -0.1054687,0.421875 -0.2578125,1.0195312 -0.328125,1.359375 l -0.5390625,2.0976562 c -0.046875,0.21093753 -0.1171875,0.49218753 -0.1171875,0.59765628 0,0.31640625 0.234375,0.65625 0.703125,0.65625 0.7734375,0 0.9609375,-0.69140625 1.0664063,-1.13671878 0.140625,-0.5507812 0.2695312,-1.03125 0.4101562,-1.6757812 0.070312,-0.1992188 0.4453125,-1.7460938 0.46875,-1.7929688 0.011719,-0.082031 0.4335938,-0.7617187 0.9375,-1.171875 0.4101563,-0.328125 0.9140625,-0.5742187 1.5351563,-0.5742187 0.3984375,0 0.75,0.140625 0.75,0.8789062 0,0.3398438 -0.1054688,0.7851563 -0.1640625,1.0078125 z m 0,0"
         style="fill:#d33682;fill-opacity:1;fill-rule:nonzero;stroke:none"
         aria-label="m"
         transform="matrix(1.3333333,0,0,1.3333333,529.99467,51.353333)" />
      <path
         id="path31"
         d="m 4.2652031,-6.6566406 c -2.6601562,0.609375 -3.57421873,2.90625 -3.57421873,4.2304687 0,1.82812503 1.44140623,2.60156253 3.04687503,2.60156253 1.9804687,0 3.3984375,-2.37890623 3.3984375,-4.79296873 0,-1.3476563 -0.5273438,-1.9921875 -1.1484375,-2.578125 -0.6679688,-0.6328125 -1.9804688,-1.8632813 -1.9804688,-2.390625 0,-0.070312 0.1523438,-0.4804689 0.703125,-0.4804689 0.4921875,0 0.8554688,0.2695314 1.1132813,0.4570314 0.28125,0.2226562 0.75,0.5625 1.078125,0.5625 0.4453125,0 0.796875,-0.4335938 0.796875,-0.8085938 0,-0.4335936 -0.2460938,-0.4921876 -1.0546875,-0.6562496 -0.328125,-0.08203 -1.1953125,-0.257813 -1.59375,-0.257813 -0.8085938,0 -1.6875,0.574219 -1.6875,1.6523439 0,0.8320312 0.5507812,1.8398437 0.9023437,2.4609375 z m 0.328125,0.5507812 c 0.375,0.5859375 0.8320313,1.4296875 0.8320313,2.4726563 0,0.6679687 -0.3984375,3.26953123 -1.640625,3.26953123 -0.1757813,0 -0.7382813,-0.0234375 -1.1601563,-0.3984375 -0.375,-0.36328123 -0.375,-0.93750003 -0.375,-1.11328123 0,-0.7851563 0.421875,-2.2382813 0.6914063,-2.7890625 0.2109375,-0.3867188 0.65625,-1.125 1.6523437,-1.4414063 z m 0,0"
         style="fill:#d33682;fill-opacity:1;fill-rule:nonzero;stroke:none"
         aria-label="δ"
         transform="matrix(1.3333333,0,0,1.3333333,476.024,232.13333)" />
      <path
         id="path32"
         d="m 4.2645859,-6.6566406 c -2.6601562,0.609375 -3.57421871,2.90625 -3.57421871,4.2304687 0,1.82812503 1.44140621,2.60156253 3.04687501,2.60156253 1.9804687,0 3.3984375,-2.37890623 3.3984375,-4.79296873 0,-1.3476563 -0.5273438,-1.9921875 -1.1484375,-2.578125 -0.6679688,-0.6328125 -1.9804688,-1.8632813 -1.9804688,-2.390625 0,-0.070312 0.1523438,-0.4804689 0.703125,-0.4804689 0.4921875,0 0.8554688,0.2695314 1.1132813,0.4570314 0.28125,0.2226562 0.75,0.5625 1.078125,0.5625 0.4453125,0 0.796875,-0.4335938 0.796875,-0.8085938 0,-0.4335936 -0.2460938,-0.4921876 -1.0546875,-0.6562496 -0.328125,-0.08203 -1.1953125,-0.257813 -1.59375,-0.257813 -0.8085938,0 -1.6875,0.574219 -1.6875,1.6523439 0,0.8320312 0.5507812,1.8398437 0.9023437,2.4609375 z m 0.328125,0.5507812 c 0.375,0.5859375 0.8320313,1.4296875 0.8320313,2.4726563 0,0.6679687 -0.3984375,3.26953123 -1.640625,3.26953123 -0.1757813,0 -0.7382813,-0.0234375 -1.1601563,-0.3984375 -0.375,-0.36328123 -0.375,-0.93750003 -0.375,-1.11328123 0,-0.7851563 0.421875,-2.2382813 0.6914063,-2.7890625 0.2109375,-0.3867188 0.65625,-1.125 1.6523437,-1.4414063 z m 0,0"
         style="fill:#d33682;fill-opacity:1;fill-rule:nonzero;stroke:none"
         aria-label="δ"
         transform="matrix(1.3333333,0,0,1.3333333,551.61467,232.13333)" />
      <path
         id="path33"
         d="m 4.2659609,-6.6567656 c -2.6601562,0.609375 -3.57421871,2.90625 -3.57421871,4.2304687 0,1.82812503 1.44140621,2.60156253 3.04687501,2.60156253 1.9804687,0 3.3984375,-2.37890623 3.3984375,-4.79296873 0,-1.3476563 -0.5273438,-1.9921875 -1.1484375,-2.578125 -0.6679688,-0.6328125 -1.9804688,-1.8632813 -1.9804688,-2.390625 0,-0.070312 0.1523438,-0.4804689 0.703125,-0.4804689 0.4921875,0 0.8554688,0.2695314 1.1132813,0.4570314 0.28125,0.2226562 0.75,0.5625 1.078125,0.5625 0.4453125,0 0.796875,-0.4335938 0.796875,-0.8085938 0,-0.4335936 -0.2460938,-0.4921876 -1.0546875,-0.6562496 -0.328125,-0.08203 -1.1953125,-0.257813 -1.59375,-0.257813 -0.8085938,0 -1.6875,0.574219 -1.6875,1.6523439 0,0.8320312 0.5507812,1.8398437 0.9023437,2.4609375 z m 0.328125,0.5507812 c 0.375,0.5859375 0.8320313,1.4296875 0.8320313,2.4726563 0,0.6679687 -0.3984375,3.26953123 -1.640625,3.26953123 -0.1757813,0 -0.7382813,-0.0234375 -1.1601563,-0.3984375 -0.375,-0.36328123 -0.375,-0.93750003 -0.375,-1.11328123 0,-0.7851563 0.421875,-2.2382813 0.6914063,-2.7890625 0.2109375,-0.3867188 0.65625,-1.125 1.6523437,-1.4414063 z m 0,0"
         style="fill:#d33682;fill-opacity:1;fill-rule:nonzero;stroke:none"
         aria-label="δ"
         transform="matrix(1.3333333,0,0,1.3333333,427.42533,182.196)" />
      <path
         id="path34"
         d="m 4.2648281,-6.6567656 c -2.6601562,0.609375 -3.57421872,2.90625 -3.57421872,4.2304687 0,1.82812503 1.44140622,2.60156253 3.04687502,2.60156253 1.9804687,0 3.3984375,-2.37890623 3.3984375,-4.79296873 0,-1.3476563 -0.5273438,-1.9921875 -1.1484375,-2.578125 -0.6679688,-0.6328125 -1.9804688,-1.8632813 -1.9804688,-2.390625 0,-0.070312 0.1523438,-0.4804689 0.703125,-0.4804689 0.4921875,0 0.8554688,0.2695314 1.1132813,0.4570314 0.28125,0.2226562 0.75,0.5625 1.078125,0.5625 0.4453125,0 0.796875,-0.4335938 0.796875,-0.8085938 0,-0.4335936 -0.2460938,-0.4921876 -1.0546875,-0.6562496 -0.328125,-0.08203 -1.1953125,-0.257813 -1.59375,-0.257813 -0.8085938,0 -1.6875,0.574219 -1.6875,1.6523439 0,0.8320312 0.5507812,1.8398437 0.9023437,2.4609375 z m 0.328125,0.5507812 c 0.375,0.5859375 0.8320313,1.4296875 0.8320313,2.4726563 0,0.6679687 -0.3984375,3.26953123 -1.640625,3.26953123 -0.1757813,0 -0.7382813,-0.0234375 -1.1601563,-0.3984375 -0.375,-0.36328123 -0.375,-0.93750003 -0.375,-1.11328123 0,-0.7851563 0.421875,-2.2382813 0.6914063,-2.7890625 0.2109375,-0.3867188 0.65625,-1.125 1.6523437,-1.4414063 z m 0,0"
         style="fill:#d33682;fill-opacity:1;fill-rule:nonzero;stroke:none"
         aria-label="δ"
         transform="matrix(1.3333333,0,0,1.3333333,600.212,182.196)" />
      <path
         id="path35"
         d="m 248.73058,56.69362 c 0,1.16722 -0.94622,2.11343 -2.11344,2.11343 -1.16722,0 -2.11343,-0.94621 -2.11343,-2.11343 0,-1.16724 0.94621,-2.11345 2.11343,-2.11345 1.16722,0 2.11344,0.94621 2.11344,2.11345 z"
         style="fill:#586e75;fill-opacity:1;fill-rule:nonzero;stroke:none"
         transform="matrix(1.3333333,0,0,-1.3333333,217.05733,288.63867)" />
    </g>
  </g>
</svg>
