<?xml version="1.0" encoding="UTF-8" standalone="no"?>
<!-- Created with Inkscape (http://www.inkscape.org/) -->

<svg
   version="1.1"
   id="svg1"
   width="259.0368"
   height="259.39417"
   viewBox="0 0 259.0368 259.39417"
   sodipodi:docname="span-tree-proof.svg"
   inkscape:version="1.4.2 (ebf0e940d0, 2025-05-08)"
   xmlns:inkscape="http://www.inkscape.org/namespaces/inkscape"
   xmlns:sodipodi="http://sodipodi.sourceforge.net/DTD/sodipodi-0.dtd"
   xmlns="http://www.w3.org/2000/svg"
   xmlns:svg="http://www.w3.org/2000/svg">
  <defs
     id="defs1" />
  <sodipodi:namedview
     id="namedview1"
     pagecolor="#ffffff"
     bordercolor="#666666"
     borderopacity="1.0"
     inkscape:showpageshadow="2"
     inkscape:pageopacity="0.0"
     inkscape:pagecheckerboard="0"
     inkscape:deskcolor="#d1d1d1"
     inkscape:zoom="2.500924"
     inkscape:cx="495.21698"
     inkscape:cy="358.86737"
     inkscape:window-width="3840"
     inkscape:window-height="2346"
     inkscape:window-x="0"
     inkscape:window-y="54"
     inkscape:window-maximized="1"
     inkscape:current-layer="g1">
    <inkscape:page
       x="0"
       y="0"
       inkscape:label="1"
       id="page1"
       width="259.0368"
       height="259.39417"
       margin="0"
       bleed="0" />
  </sodipodi:namedview>
  <g
     id="g1"
     inkscape:groupmode="layer"
     inkscape:label="1"
     transform="translate(-65.795304,-37.799888)">
    <g
       id="g27">
      <path
         id="path2"
         d="M 11.33876,0 C 11.33876,6.2623 6.2623,11.33876 0,11.33876 -6.2623,11.33876 -11.33876,6.2623 -11.33876,0 c 0,-6.2623 5.07646,-11.33876 11.33876,-11.33876 6.2623,0 11.33876,5.07646 11.33876,11.33876 z"
         style="fill:none;stroke:#b58900;stroke-width:1.19553;stroke-linecap:butt;stroke-linejoin:miter;stroke-miterlimit:10;stroke-dasharray:none;stroke-opacity:1"
         transform="matrix(1.3333333,0,0,-1.3333333,81.710667,129.404)" />
      <path
         id="path3"
         d="m 8.4480469,-4.7580703 c 0.1054687,-0.421875 0.28125,-1.1367188 0.28125,-1.2421875 0,-0.3164063 -0.2460938,-0.65625 -0.703125,-0.65625 -0.2460938,0 -0.796875,0.1289062 -0.9960938,0.796875 -0.058594,0.1992187 -0.7265625,2.9179687 -0.8554687,3.4101562 -0.082031,0.3515625 -0.1875,0.7851563 -0.2226563,1.0546875 -0.2695312,0.3632813 -0.8554687,0.97265629 -1.6171875,0.97265629 -0.890625,0 -0.9023437,-0.74999999 -0.9023437,-1.08984379 0,-0.9140625 0.46875,-2.0859375 0.890625,-3.1640625 0.140625,-0.3984375 0.1875,-0.5039062 0.1875,-0.75 0,-0.8789062 -0.8671875,-1.359375 -1.6875,-1.359375 -1.59375,0 -2.34375003,2.0507813 -2.34375003,2.34375 0,0.2109375 0.22265625,0.2109375 0.36328125,0.2109375 0.17578128,0 0.28124998,0 0.33984378,-0.1992187 0.4921875,-1.6640625 1.3007812,-1.8046875 1.546875,-1.8046875 0.1054687,0 0.2578125,0 0.2578125,0.3046875 0,0.3515625 -0.1875,0.7734375 -0.2460938,0.9492187 -0.6328125,1.5703125 -0.9140625,2.4140625 -0.9140625,3.1523438 0,1.71093749 1.5,1.94531249 2.390625,1.94531249 0.4335938,0 1.0898438,-0.05859375 1.8984375,-0.8203125 0.4804688,0.73828125 1.3476563,0.8203125 1.7109375,0.8203125 0.5625,0 0.9960938,-0.31640625 1.3125,-0.85546875 0.375,-0.59765624 0.5625,-1.40625004 0.5625,-1.47656254 0,-0.2109375 -0.2226562,-0.2109375 -0.3632812,-0.2109375 -0.1640625,0 -0.2226563,0 -0.2929688,0.070312 -0.035156,0.035156 -0.035156,0.058594 -0.1171875,0.4335938 -0.3046875,1.17187499 -0.6328125,1.49999999 -1.0195312,1.49999999 -0.234375,0 -0.3515625,-0.15234375 -0.3515625,-0.55078125 0,-0.25781254 0.058594,-0.49218754 0.2109375,-1.10156254 0.1054687,-0.4101562 0.2578125,-1.0195312 0.328125,-1.3476562 z m 0,0"
         style="fill:#d33682;fill-opacity:1;fill-rule:nonzero;stroke:none"
         aria-label="u"
         transform="matrix(1.3333333,0,0,1.3333333,74.9,133.848)" />
      <path
         id="path4"
         d="m 68.75839,0 c 0,6.66327 -5.4015,12.06477 -12.06477,12.06477 -6.66329,0 -12.06479,-5.4015 -12.06479,-12.06477 0,-6.66327 5.4015,-12.06477 12.06479,-12.06477 6.66327,0 12.06477,5.4015 12.06477,12.06477 z"
         style="fill:none;stroke:#b58900;stroke-width:1.19553;stroke-linecap:butt;stroke-linejoin:miter;stroke-miterlimit:10;stroke-dasharray:none;stroke-opacity:1"
         transform="matrix(1.3333333,0,0,-1.3333333,81.710667,129.404)" />
      <path
         id="path5"
         d="m 8.3449531,-5.3205703 c 0.058594,-0.234375 0.140625,-0.609375 0.140625,-0.6796875 0,-0.328125 -0.234375,-0.65625 -0.703125,-0.65625 -0.234375,0 -0.796875,0.1171875 -0.984375,0.796875 -0.2578125,0.9375 -0.5273437,2.0390625 -0.7617187,3.0585937 -0.1289063,0.515625 -0.1289063,0.7148438 -0.1289063,0.9140625 0,0.3984375 0.046875,0.3867188 0.046875,0.4804688 0,0.070312 -0.3984375,0.98437499 -1.2773437,0.98437499 -1.2070313,0 -1.2070313,-0.91406249 -1.2070313,-1.23046879 0,-0.6328125 0.1757813,-1.3359375 0.7734375,-2.859375 0.1171875,-0.3046875 0.2695313,-0.6679687 0.2695313,-0.9140625 0,-0.8789062 -0.8671875,-1.359375 -1.6875,-1.359375 -1.59375,0 -2.34375003,2.0507813 -2.34375003,2.34375 0,0.2109375 0.22265625,0.2109375 0.36328125,0.2109375 0.17578128,0 0.28124998,0 0.33984378,-0.1992187 0.4921875,-1.6640625 1.3007812,-1.8046875 1.546875,-1.8046875 0.09375,0 0.2578125,0 0.2578125,0.3046875 0,0.3515625 -0.1523438,0.7265625 -0.328125,1.1953125 -0.5859375,1.453125 -0.8203125,2.1796875 -0.8203125,2.8125 0,1.65234374 1.4414062,2.03906249 2.7304687,2.03906249 0.3046875,0 0.9960938,0 1.6875,-0.83203125 0.3984375,0.50390625 1.078125,0.83203125 2.25,0.83203125 0.9023438,0 1.6875004,-0.43359375 2.3789064,-1.75781249 0.597656,-1.125 1.066406,-3.0117188 1.066406,-3.7851563 0,-1.3710937 -1.007812,-1.3710937 -1.019531,-1.3710937 -0.574219,0 -1.1367189,0.5976562 -1.1367189,1.1367187 0,0.421875 0.3164059,0.609375 0.4453129,0.6796875 0.585937,0.3398438 0.75,0.6210938 0.75,0.9492188 0,0.2226562 -0.375,1.640625 -0.832032,2.4726562 -0.4218746,0.75000004 -0.9023434,1.13671879 -1.5468746,1.13671879 -1.078125,0 -1.1015625,-0.87890629 -1.1015625,-1.18359379 0,-0.3867187 0.058594,-0.609375 0.2460937,-1.359375 0.1054688,-0.4453125 0.28125,-1.171875 0.375,-1.5234375 z m 0,0"
         style="fill:#d33682;fill-opacity:1;fill-rule:nonzero;stroke:none"
         aria-label="w"
         transform="matrix(1.3333333,0,0,1.3333333,148.70933,133.848)" />
      <path
         id="path6"
         d="m 124.726,0 c 0,6.2623 -5.07646,11.33876 -11.33876,11.33876 -6.26232,0 -11.33876,-5.07646 -11.33876,-11.33876 0,-6.2623 5.07644,-11.33876 11.33876,-11.33876 6.2623,0 11.33876,5.07646 11.33876,11.33876 z"
         style="fill:none;stroke:#b58900;stroke-width:1.19553;stroke-linecap:butt;stroke-linejoin:miter;stroke-miterlimit:10;stroke-dasharray:none;stroke-opacity:1"
         transform="matrix(1.3333333,0,0,-1.3333333,81.710667,129.404)" />
      <path
         id="path7"
         d="m 8.0376484,-6.0119766 c -0.5390625,0.1523438 -0.8085937,0.65625 -0.8085937,1.03125 0,0.328125 0.2578125,0.6914063 0.75,0.6914063 0.5273437,0 1.078125,-0.4335938 1.078125,-1.171875 0,-0.796875 -0.796875,-1.3242188 -1.7109375,-1.3242188 -0.8554688,0 -1.40625,0.6445313 -1.6054688,0.9257813 -0.375,-0.6328125 -1.2070312,-0.9257813 -2.0625,-0.9257813 -1.8984375,0 -2.91796871,1.8515625 -2.91796871,2.34375 0,0.2109375 0.22265625,0.2109375 0.36328121,0.2109375 0.1757813,0 0.28125,0 0.3398438,-0.1992187 0.4453125,-1.359375 1.5234375,-1.8046875 2.1328125,-1.8046875 0.5742187,0 0.84375,0.2695312 0.84375,0.75 0,0.28125 -0.2109375,1.1015625 -0.3515625,1.640625 l -0.5039063,2.0625 c -0.2226562,0.91406249 -0.7617187,1.35937499 -1.2773437,1.35937499 -0.070312,0 -0.421875,0 -0.7148438,-0.22265625 0.5390625,-0.15234375 0.8085938,-0.65625004 0.8085938,-1.03125004 0,-0.3398437 -0.2578125,-0.6914062 -0.75,-0.6914062 -0.5273438,0 -1.07812501,0.4335937 -1.07812501,1.171875 0,0.78515624 0.78515621,1.31249999 1.71093751,1.31249999 0.8554687,0 1.40625,-0.64453125 1.6054687,-0.9140625 0.375,0.6328125 1.2070313,0.9140625 2.0625,0.9140625 1.8867188,0 2.90625,-1.83984379 2.90625,-2.33203129 0,-0.2109375 -0.2226562,-0.2109375 -0.3515625,-0.2109375 -0.1875,0 -0.2929687,0 -0.3515625,0.1875 -0.4335937,1.37109379 -1.5117187,1.81640629 -2.1210937,1.81640629 -0.5742188,0 -0.84375,-0.26953125 -0.84375,-0.74999999 0,-0.3164063 0.1992187,-1.1132813 0.328125,-1.6640625 0.1054687,-0.3867188 0.4453125,-1.8046875 0.5273437,-2.0390625 0.2226563,-0.9023438 0.75,-1.359375 1.2773438,-1.359375 0.070312,0 0.4101562,0 0.7148437,0.2226562 z m 0,0"
         style="fill:#d33682;fill-opacity:1;fill-rule:nonzero;stroke:none"
         aria-label="x"
         transform="matrix(1.3333333,0,0,1.3333333,226.30267,133.848)" />
      <path
         id="path8"
         d="m 181.74332,0 c 0,6.44107 -5.22139,11.66246 -11.66246,11.66246 -6.44109,0 -11.66248,-5.22139 -11.66248,-11.66246 0,-6.44107 5.22139,-11.66246 11.66248,-11.66246 6.44107,0 11.66246,5.22139 11.66246,11.66246 z"
         style="fill:none;stroke:#b58900;stroke-width:1.19553;stroke-linecap:butt;stroke-linejoin:miter;stroke-miterlimit:10;stroke-dasharray:none;stroke-opacity:1"
         transform="matrix(1.3333333,0,0,-1.3333333,81.710667,129.404)" />
      <path
         id="path9"
         d="m 8.6593594,-5.6613984 c 0.070312,-0.2695313 0.070312,-0.2929688 0.070312,-0.3398438 0,-0.328125 -0.2460938,-0.65625 -0.703125,-0.65625 -0.7851563,0 -0.9609375,0.703125 -1.0664063,1.1015625 l -0.3867187,1.5703125 c -0.1875,0.7148438 -0.46875,1.875 -0.6328125,2.484375 -0.082031,0.328125 -0.5390625,0.69140626 -0.5859375,0.71484376 -0.1640625,0.10546875 -0.5273438,0.36328125 -1.0195313,0.36328125 -0.890625,0 -0.9023437,-0.75000001 -0.9023437,-1.08984371 0,-0.9140625 0.46875,-2.0859375 0.890625,-3.1640625 0.140625,-0.3984375 0.1875,-0.5039063 0.1875,-0.75 0,-0.8789063 -0.8671875,-1.359375 -1.6875,-1.359375 -1.59375,0 -2.34375002,2.0507812 -2.34375002,2.34375 0,0.2109375 0.22265625,0.2109375 0.36328125,0.2109375 0.17578127,0 0.28124997,0 0.33984377,-0.1992188 0.4921875,-1.6640625 1.3242187,-1.8046875 1.546875,-1.8046875 0.1054687,0 0.2578125,0 0.2578125,0.3046875 0,0.3515625 -0.1640625,0.7382813 -0.2578125,0.984375 -0.5859375,1.5 -0.9023438,2.3554688 -0.9023438,3.1171875 0,1.71093751 1.5,1.94531251 2.390625,1.94531251 0.375,0 0.8789063,-0.05859375 1.4414063,-0.4453125 -0.421875,1.83984379 -1.546875,2.81249999 -2.5898438,2.81249999 -0.1875,0 -0.609375,-0.023437 -0.9140625,-0.1992187 0.4804688,-0.1992188 0.7265625,-0.609375 0.7265625,-1.0078125 0,-0.53906254 -0.4335937,-0.69140629 -0.7382812,-0.69140629 -0.5507813,0 -1.078125,0.48046879 -1.078125,1.13671879 0,0.7617187 0.796875,1.3125 2.0039062,1.3125 1.734375,0 3.7148438,-1.1601563 4.171875,-3.02343754 z m 0,0"
         style="fill:#d33682;fill-opacity:1;fill-rule:nonzero;stroke:none"
         aria-label="y"
         transform="matrix(1.3333333,0,0,1.3333333,302.212,131.904)" />
      <path
         id="path10"
         d="m 68.10532,56.69362 c 0,6.30258 -5.10912,11.4117 -11.4117,11.4117 -6.3026,0 -11.41172,-5.10912 -11.41172,-11.4117 0,-6.3026 5.10912,-11.41172 11.41172,-11.41172 6.30258,0 11.4117,5.10912 11.4117,11.41172 z"
         style="fill:none;stroke:#b58900;stroke-width:1.19553;stroke-linecap:butt;stroke-linejoin:miter;stroke-miterlimit:10;stroke-dasharray:none;stroke-opacity:1"
         transform="matrix(1.3333333,0,0,-1.3333333,81.710667,129.404)" />
      <path
         id="path11"
         d="m 7.9465938,-5.4722812 c 0.070313,-0.2460938 0.070313,-0.328125 0.070313,-0.3867188 0,-0.4804687 -0.3984375,-0.6679687 -0.7148438,-0.6679687 -0.2929687,0 -0.5625,0.140625 -0.7617187,0.3632812 -0.2109375,-0.2226562 -0.703125,-0.6210937 -1.59375,-0.6210937 -2.6484375,0 -4.2070313,2.3789062 -4.2070313,4.3359375 0,1.7695312 1.3359375,2.4492187 2.625,2.4492187 0.7734375,0 1.3710938,-0.3046875 1.6523438,-0.46875 -0.09375,0.375 -0.1875,0.75 -0.2929688,1.125 C 4.6184688,1.0902188 4.513,1.54725 3.9856563,1.969125 3.3645625,2.48475 2.8606563,2.48475 2.4622188,2.48475 c -0.3632813,0 -0.6328125,0 -1.0195313,-0.058594 0.4335938,-0.3164063 0.46875,-0.8085938 0.46875,-0.8671875 0,-0.328125 -0.2578125,-0.6914063 -0.75,-0.6914063 -0.50390625,0 -1.06640625,0.421875 -1.06640625,1.1132813 0,0.984375 1.31250005,1.0546875 2.37890625,1.0546875 1.3476563,0 3.421875,-0.3164063 3.8671875,-2.1210938 z m -2.625,3.7734375 C 5.263,-1.4879062 5.263,-1.4293125 5.0872188,-1.26525 c -0.796875,0.7265625 -1.5,0.7265625 -1.640625,0.7265625 -0.5859375,0 -1.0195313,-0.328125 -1.0195313,-1.125 0,-0.7265625 0.5039063,-2.5195312 0.7265625,-3.0703125 0.5273438,-1.3007812 1.3828125,-1.5 1.828125,-1.5 0.9257813,0 1.2539063,0.7265625 1.2539063,0.8320313 0,0.035156 0,0.058594 -0.035156,0.2226562 z m 0,0"
         style="fill:#d33682;fill-opacity:1;fill-rule:nonzero;stroke:none"
         aria-label="g"
         transform="matrix(1.3333333,0,0,1.3333333,151.48267,56.312)" />
      <path
         id="path12"
         d="m 124.81912,-56.69362 c 0,6.31374 -5.11816,11.4319 -11.43188,11.4319 -6.31374,0 -11.4319,-5.11816 -11.4319,-11.4319 0,-6.31372 5.11816,-11.43188 11.4319,-11.43188 6.31372,0 11.43188,5.11816 11.43188,11.43188 z"
         style="fill:none;stroke:#268bd2;stroke-width:1.19553;stroke-linecap:butt;stroke-linejoin:miter;stroke-miterlimit:10;stroke-dasharray:none;stroke-opacity:1"
         transform="matrix(1.3333333,0,0,-1.3333333,81.710667,129.404)" />
      <path
         id="path13"
         d="m 4.2174453,-9.8895703 c 0.058594,-0.1992187 0.058594,-0.2343747 0.058594,-0.2460937 0,-0.199219 -0.1640625,-0.269531 -0.328125,-0.269531 -0.058594,0 -0.082031,0 -0.1054688,0.01172 l -1.9335937,0.09375 c -0.2109375,0.01172 -0.4804688,0.02344 -0.4804688,0.4453129 0,0.2695313 0.28125,0.2695313 0.3867188,0.2695313 0.1640625,0 0.4335937,0 0.6328125,0.035156 -0.1289063,0.5039063 -0.2695313,1.1484375 -0.421875,1.7226563 l -1.04296879,4.1367187 c -0.19921875,0.84375 -0.19921875,1.0195313 -0.19921875,1.3710938 0,1.91015624 1.41796874,2.43749999 2.54296874,2.43749999 2.71875,0 4.265625,-2.43749999 4.265625,-4.41796879 0,-1.8515625 -1.3828125,-2.484375 -2.625,-2.484375 -0.7265625,0 -1.3242187,0.2929688 -1.640625,0.4804688 z m -0.8554687,9.46874999 c -0.5859375,0 -1.078125,-0.31640625 -1.078125,-1.24218749 0,-0.4804688 0.140625,-1.03125 0.2460937,-1.5 0.1523438,-0.5742188 0.4101563,-1.6054688 0.515625,-2.0507813 0.070312,-0.2578125 0.9257813,-1.0195312 1.8398438,-1.0195312 0.9375,0 1.0078125,0.8085937 1.0078125,1.1367187 0,0.7734375 -0.5039063,2.625 -0.75,3.2109375 -0.5039063,1.20703129 -1.3476563,1.46484379 -1.78125,1.46484379 z m 0,0"
         style="fill:#d33682;fill-opacity:1;fill-rule:nonzero;stroke:none"
         aria-label="b"
         transform="matrix(1.3333333,0,0,1.3333333,227.68533,211.94)" />
      <path
         id="path14"
         d="m 181.41962,-56.69362 c 0,6.26232 -5.07647,11.33876 -11.33876,11.33876 -6.26232,0 -11.33876,-5.07644 -11.33876,-11.33876 0,-6.2623 5.07644,-11.33876 11.33876,-11.33876 6.26229,0 11.33876,5.07646 11.33876,11.33876 z"
         style="fill:none;stroke:#268bd2;stroke-width:1.19553;stroke-linecap:butt;stroke-linejoin:miter;stroke-miterlimit:10;stroke-dasharray:none;stroke-opacity:1"
         transform="matrix(1.3333333,0,0,-1.3333333,81.710667,129.404)" />
      <path
         id="path15"
         d="m 6.4694219,-5.9403516 c -0.796875,0.2460938 -0.8085938,0.9960938 -0.8085938,1.0195313 0,0.2226562 0.1289063,0.6914062 0.75,0.6914062 0.6210938,0 1.078125,-0.5390625 1.078125,-1.1601562 0,-0.7851563 -0.7851562,-1.3945313 -2.0976562,-1.3945313 -3.0234375,0 -4.69921877,2.34375 -4.69921877,4.3125 0,1.3476563 0.84374997,2.58984379 3.17578127,2.58984379 0.3984375,0 1.4296875,-0.0117188 2.3320312,-0.3515625 0.8671875,-0.3515625 1.4648438,-0.96093749 1.4648438,-1.14843749 0,-0.1171875 -0.234375,-0.3867188 -0.375,-0.3867188 -0.09375,0 -0.1171875,0.046875 -0.2226563,0.1640625 -0.8085937,0.85546879 -1.9921875,1.18359379 -3.1640625,1.18359379 -0.9960937,0 -1.4882812,-0.4921875 -1.4882812,-1.39453129 0,-0.5273437 0.3867187,-2.3554687 0.84375,-3.1289062 0.5976562,-1.0195313 1.5117187,-1.2890625 2.1445312,-1.2890625 0.1875,0 0.6679688,0.011719 1.0664063,0.2929687 z m 0,0"
         style="fill:#d33682;fill-opacity:1;fill-rule:nonzero;stroke:none"
         aria-label="c"
         transform="matrix(1.3333333,0,0,1.3333333,303.35067,209.44)" />
      <path
         id="path16"
         d="m 68.03238,-56.69362 c 0,6.26232 -5.07646,11.33876 -11.33876,11.33876 -6.26232,0 -11.33876,-5.07644 -11.33876,-11.33876 0,-6.2623 5.07644,-11.33876 11.33876,-11.33876 6.2623,0 11.33876,5.07646 11.33876,11.33876 z"
         style="fill:none;stroke:#268bd2;stroke-width:1.19553;stroke-linecap:butt;stroke-linejoin:miter;stroke-miterlimit:10;stroke-dasharray:none;stroke-opacity:1"
         transform="matrix(1.3333333,0,0,-1.3333333,81.710667,129.404)" />
      <path
         id="path17"
         d="m 7.7221484,-4.7567578 c 0.09375,-0.375 0.2460938,-0.9726563 0.2460938,-1.1015625 0,-0.4804688 -0.3984375,-0.6679688 -0.703125,-0.6679688 -0.2929688,0 -0.5859375,0.1523438 -0.7734375,0.375 -0.2226563,-0.234375 -0.7148438,-0.6328125 -1.5820313,-0.6328125 -2.6132812,0 -4.23046871,2.3789063 -4.23046871,4.4296875 0,1.83984379 1.37109371,2.47265629 2.62500001,2.47265629 1.0546875,0 1.8398437,-0.5859375 2.0859375,-0.80859375 0.5625,0.80859375 1.5585937,0.80859375 1.7226562,0.80859375 0.5507813,0 0.984375,-0.31640625 1.3007813,-0.85546875 0.375,-0.59765624 0.5742187,-1.40625004 0.5742187,-1.47656254 0,-0.2109375 -0.2226562,-0.2109375 -0.3632812,-0.2109375 -0.1640625,0 -0.2226563,0 -0.3046875,0.070312 -0.023437,0.035156 -0.023437,0.058594 -0.1171875,0.4335938 -0.2929688,1.20703124 -0.6445313,1.49999999 -1.0195313,1.49999999 -0.1640625,0 -0.3398437,-0.0585938 -0.3398437,-0.55078125 0,-0.25781254 0.058594,-0.49218754 0.2109375,-1.10156254 0.1054687,-0.4101562 0.2460937,-1.0195312 0.328125,-1.3476562 z m -2.484375,3.3632812 c -0.4335937,0.50390629 -1.1484375,0.97265629 -1.8632812,0.97265629 -0.9257813,0 -1.0078125,-0.80859379 -1.0078125,-1.13671879 0,-0.7851562 0.515625,-2.625 0.75,-3.2109375 0.46875,-1.0898437 1.2070312,-1.4648437 1.8164062,-1.4648437 0.890625,0 1.2421875,0.703125 1.2421875,0.8671875 l -0.023437,0.2109375 z m 0,0"
         style="fill:#d33682;fill-opacity:1;fill-rule:nonzero;stroke:none"
         aria-label="a"
         transform="matrix(1.3333333,0,0,1.3333333,150.97333,209.44)" />
      <path
         id="path18"
         d="m 125.24478,-113.38724 c 0,6.54882 -5.30873,11.85754 -11.85754,11.85754 -6.54882,0 -11.85754,-5.30872 -11.85754,-11.85754 0,-6.54881 5.30872,-11.85754 11.85754,-11.85754 6.54881,0 11.85754,5.30873 11.85754,11.85754 z"
         style="fill:none;stroke:#268bd2;stroke-width:1.19553;stroke-linecap:butt;stroke-linejoin:miter;stroke-miterlimit:10;stroke-dasharray:none;stroke-opacity:1"
         transform="matrix(1.3333333,0,0,-1.3333333,81.710667,129.404)" />
      <path
         id="path19"
         d="M 9.0006563,-9.8911875 C 9.05925,-10.090406 9.05925,-10.125562 9.05925,-10.137281 c 0,-0.199219 -0.1640625,-0.269531 -0.328125,-0.269531 -0.058594,0 -0.070312,0 -0.1054687,0.01172 l -1.9335938,0.09375 c -0.2109375,0.01172 -0.4804687,0.02344 -0.4804687,0.4453128 0,0.2695312 0.2695312,0.2695312 0.3867187,0.2695312 0.1640625,0 0.4335938,0 0.6328125,0.035156 L 6.4225313,-6.2349375 C 6.199875,-6.445875 5.6959688,-6.7857187 4.9108125,-6.7857187 c -2.6132812,0 -4.23046875,2.3789062 -4.23046875,4.4296875 0,1.8398437 1.37109375,2.4726562 2.62500005,2.4726562 1.0546875,0 1.8398437,-0.5859375 2.0859375,-0.80859375 0.5625,0.80859375 1.5585937,0.80859375 1.7226562,0.80859375 0.5507813,0 0.984375,-0.31640625 1.3007813,-0.85546875 0.375,-0.59765625 0.5742187,-1.40624995 0.5742187,-1.47656245 0,-0.2109375 -0.2226562,-0.2109375 -0.3632812,-0.2109375 -0.1640625,0 -0.2226563,0 -0.3046875,0.070312 -0.023437,0.035156 -0.023437,0.058594 -0.1171875,0.4335937 -0.2929688,1.20703125 -0.6445313,1.5 -1.0195313,1.5 -0.1640625,0 -0.3398437,-0.0585938 -0.3398437,-0.55078125 0,-0.22265625 0.023437,-0.43359375 0.082031,-0.64453125 z M 5.2389375,-1.3950937 C 4.8053438,-0.8911875 4.0905,-0.4224375 3.3756563,-0.4224375 c -0.9257813,0 -1.0078125,-0.8085937 -1.0078125,-1.1367187 0,-0.7851563 0.515625,-2.625 0.75,-3.2109375 0.46875,-1.0898438 1.2070312,-1.4648438 1.8164062,-1.4648438 0.890625,0 1.2421875,0.703125 1.2421875,0.8671875 L 6.153,-5.1568125 Z m 0,0"
         style="fill:#d33682;fill-opacity:1;fill-rule:nonzero;stroke:none"
         aria-label="d"
         transform="matrix(1.3333333,0,0,1.3333333,226.796,287.532)" />
      <path
         id="path20"
         d="m 11.33876,-56.69362 c 0,6.26232 -5.07646,11.33876 -11.33876,11.33876 -6.2623,0 -11.33876,-5.07644 -11.33876,-11.33876 0,-6.2623 5.07646,-11.33876 11.33876,-11.33876 6.2623,0 11.33876,5.07646 11.33876,11.33876 z"
         style="fill:none;stroke:#268bd2;stroke-width:1.19553;stroke-linecap:butt;stroke-linejoin:miter;stroke-miterlimit:10;stroke-dasharray:none;stroke-opacity:1"
         transform="matrix(1.3333333,0,0,-1.3333333,81.710667,129.404)" />
      <path
         id="path21"
         d="m 8.1082813,-5.4247266 c 0,-1.3710937 -0.9960938,-1.3710937 -1.0195313,-1.3710937 -0.5976562,0 -1.1367187,0.6328125 -1.1367187,1.1367187 0,0.421875 0.3164062,0.609375 0.4570312,0.6796875 0.6210938,0.375 0.75,0.6445313 0.75,0.9492188 0,0.328125 -0.8789062,3.60937499 -2.625,3.60937499 -1.0898437,0 -1.0898437,-0.90234379 -1.0898437,-1.17187499 0,-0.8671875 0.421875,-1.9570313 0.9023437,-3.1640625 0.1171875,-0.2929688 0.1640625,-0.4335938 0.1640625,-0.6679688 0,-0.8789062 -0.8671875,-1.359375 -1.6875,-1.359375 -1.59375,0 -2.34375,2.0507813 -2.34375,2.34375 0,0.2109375 0.22265625,0.2109375 0.36328125,0.2109375 0.17578125,0 0.28125005,0 0.33984375,-0.1992187 0.4804688,-1.6171875 1.2773438,-1.8046875 1.546875,-1.8046875 0.1054688,0 0.2578125,0 0.2578125,0.3046875 0,0.3515625 -0.1875,0.7851562 -0.2226562,0.9023437 -0.6914063,1.7460938 -0.9257813,2.4140625 -0.9257813,3.140625 0,1.58203129 1.3007813,2.00390629 2.6015625,2.00390629 2.578125,0 3.6679688,-4.25390629 3.6679688,-5.54296879 z m 0,0"
         style="fill:#d33682;fill-opacity:1;fill-rule:nonzero;stroke:none"
         aria-label="v"
         transform="matrix(1.3333333,0,0,1.3333333,75.673333,209.44)" />
      <path
         id="path22"
         d="m 11.93651,0 1.16914,-0.09578 4.17363,-1.19531 -0.33095,2.47597 1.61995,-2.13634 4.1752,1.56782 1.71726,0.26107 1.52032,0.20713 1.35097,-1.85484 2.97753,-0.05418 1.2769,0.38377 3.74159,0.63812 0.97375,-0.80038 2.96074,0.18091 1.43441,-0.35477 0.43173,0.76544 L 44.03108,0 m 25.32506,0 2.09453,1.10855 0.64886,-0.02643 4.46222,-1.1913 -0.16885,0.50617 4.19842,-1.61197 0.5239,1.00278 1.31132,1.44384 3.12384,-0.57068 3.14662,-1.72685 -0.63294,0.48191 4.63636,-0.301 1.89251,0.19304 0.61857,-0.26949 2.3792,2.06104 0.64221,0.03232 L 101.45071,0 m 23.87304,0 3.41624,0.74059 1.86877,-0.60747 0.0102,-0.31868 4.04369,0.11523 1.6652,0.02358 2.1622,-0.46759 0.44376,-0.64313 2.0349,1.69078 2.13505,-0.89117 1.64368,-1.03046 2.90988,2.2691 2.88086,-1.30009 0.12886,-0.02216 2.81951,-1.03781 1.9805,1.14708 L 157.82062,0"
         style="fill:none;stroke:#b58900;stroke-width:1.19553;stroke-linecap:round;stroke-linejoin:round;stroke-miterlimit:10;stroke-dasharray:none;stroke-opacity:1"
         transform="matrix(1.3333333,0,0,-1.3333333,81.710667,129.404)" />
      <path
         id="path23"
         d="m 56.69362,12.66252 1.01021,0.54129 -0.13677,2.07314 -0.48135,1.9205 0.53047,3.03631 -1.035,1.47582 1.31332,3.02754 -0.97691,2.04241 0.45208,2.05781 -0.81869,1.84846 1.48317,0.90945 -1.54189,2.63949 -1.03094,2.73634 1.77158,0.31352 0.38278,3.85226 -1.44445,0.60388 0.52239,2.94342"
         style="fill:none;stroke:#b58900;stroke-width:1.19553;stroke-linecap:round;stroke-linejoin:round;stroke-miterlimit:10;stroke-dasharray:none;stroke-opacity:1"
         transform="matrix(1.3333333,0,0,-1.3333333,81.710667,129.404)" />
      <path
         id="path24"
         d="m 11.93651,-56.69362 1.23242,-0.65808 1.97122,2.02946 2.28752,0.06884 1.62009,-0.5777 3.6608,-0.67195 2.51948,0.33787 -0.34982,-0.09007 1.52828,-1.38179 2.90011,-0.06158 1.72293,1.57418 3.40257,-1.46986 0.42707,1.31798 1.84127,-1.44681 2.36385,1.52406 2.96579,0.78317 2.72701,-1.27772 m 23.87303,0 1.46592,0.71599 3.3638,-0.96368 0.4302,0.97299 2.47631,0.71815 2.23046,-0.9368 3.02504,0.41797 0.55577,-0.52734 2.69023,-0.88339 0.97125,-0.7025 2.04869,0.44773 2.80608,1.11538 2.61535,-0.11016 2.2699,-0.57484 1.10196,0.57855 1.05269,-1.5047 3.62381,1.23665 m 24.05928,0 1.46771,-0.92604 2.81891,0.48976 3.05299,-0.55888 -0.46723,0.07684 2.40136,1.55052 2.33639,-0.18547 2.017,-0.89776 3.30237,1.39213 -0.0929,-2.08064 3.42156,-0.30199 0.26758,0.62323 3.93047,1.50118 0.68829,0.67844 1.85693,-2.2601 1.95743,0.55727 3.76857,0.34151"
         style="fill:none;stroke:#268bd2;stroke-width:1.19553;stroke-linecap:round;stroke-linejoin:round;stroke-miterlimit:10;stroke-dasharray:none;stroke-opacity:1"
         transform="matrix(1.3333333,0,0,-1.3333333,81.710667,129.404)" />
      <path
         id="path25"
         d="m 113.38724,-68.72325 -0.832,-1.48723 0.9974,-3.32791 -1.63394,-2.35733 0.52698,-0.30289 1.06389,-3.39415 -0.80507,-2.16139 0.15448,-0.11496 0.31297,-2.85167 -0.87068,-3.23233 0.93268,-0.79095 -0.76459,-1.84195 0.65649,-1.17846 1.21085,-3.41381 -1.82799,-0.39307 0.60375,-1.69218 0.27478,-3.6684"
         style="fill:none;stroke:#268bd2;stroke-width:1.19553;stroke-linecap:round;stroke-linejoin:round;stroke-miterlimit:10;stroke-dasharray:none;stroke-opacity:1"
         transform="matrix(1.3333333,0,0,-1.3333333,81.710667,129.404)" />
      <path
         id="path26"
         d="m 113.38724,-44.66397 v 32.72746"
         style="fill:none;stroke:#586e75;stroke-width:1.19553;stroke-linecap:butt;stroke-linejoin:miter;stroke-miterlimit:10;stroke-dasharray:none;stroke-opacity:1"
         transform="matrix(1.3333333,0,0,-1.3333333,81.710667,129.404)" />
      <path
         id="path27"
         d="M 0,-11.93651 V -44.7571"
         style="fill:none;stroke:#586e75;stroke-width:1.19553;stroke-linecap:butt;stroke-linejoin:miter;stroke-miterlimit:10;stroke-dasharray:2.98883, 2.98883;stroke-dashoffset:0;stroke-opacity:1"
         transform="matrix(1.3333333,0,0,-1.3333333,81.710667,129.404)" />
    </g>
  </g>
</svg>
