<?xml version="1.0" encoding="UTF-8"?>
<svg xmlns="http://www.w3.org/2000/svg" xmlns:xlink="http://www.w3.org/1999/xlink" width="490.19pt" height="315.85pt" viewBox="0 0 490.19 315.85">
<defs>
<clipPath id="clip-0">
<path clip-rule="nonzero" d="M 451 65 L 490.191406 65 L 490.191406 110 L 451 110 Z M 451 65 "/>
</clipPath>
<clipPath id="clip-1">
<path clip-rule="nonzero" d="M 439 42 L 490.191406 42 L 490.191406 104 L 439 104 Z M 439 42 "/>
</clipPath>
<clipPath id="clip-2">
<path clip-rule="nonzero" d="M 292 278 L 337 278 L 337 315.851562 L 292 315.851562 Z M 292 278 "/>
</clipPath>
<clipPath id="clip-3">
<path clip-rule="nonzero" d="M 280 255 L 332 255 L 332 315.851562 L 280 315.851562 Z M 280 255 "/>
</clipPath>
<clipPath id="clip-4">
<path clip-rule="nonzero" d="M 377 278 L 422 278 L 422 315.851562 L 377 315.851562 Z M 377 278 "/>
</clipPath>
<clipPath id="clip-5">
<path clip-rule="nonzero" d="M 365 255 L 417 255 L 417 315.851562 L 365 315.851562 Z M 365 255 "/>
</clipPath>
<clipPath id="clip-6">
<path clip-rule="nonzero" d="M 451 235 L 490.191406 235 L 490.191406 280 L 451 280 Z M 451 235 "/>
</clipPath>
<clipPath id="clip-7">
<path clip-rule="nonzero" d="M 439 212 L 490.191406 212 L 490.191406 274 L 439 274 Z M 439 212 "/>
</clipPath>
<clipPath id="clip-8">
<path clip-rule="nonzero" d="M 275 168 L 337 168 L 337 315.851562 L 275 315.851562 Z M 275 168 "/>
</clipPath>
</defs>
<path fill-rule="nonzero" fill="rgb(93.331909%, 90.979004%, 83.529663%)" fill-opacity="1" stroke-width="1.19553" stroke-linecap="butt" stroke-linejoin="miter" stroke="rgb(34.510803%, 43.136597%, 45.881653%)" stroke-opacity="1" stroke-miterlimit="10" d="M 4.949094 -170.082625 C 4.949094 -167.34825 2.73425 -165.1295 -0.000125 -165.1295 C -2.7345 -165.1295 -4.949344 -167.34825 -4.949344 -170.082625 C -4.949344 -172.813094 -2.7345 -175.031844 -0.000125 -175.031844 C 2.73425 -175.031844 4.949094 -172.813094 4.949094 -170.082625 Z M 4.949094 -170.082625 " transform="matrix(1, 0, 0, -1, 5.547, -97.192)"/>
<path fill-rule="nonzero" fill="rgb(93.331909%, 90.979004%, 83.529663%)" fill-opacity="1" stroke-width="1.19553" stroke-linecap="butt" stroke-linejoin="miter" stroke="rgb(34.510803%, 43.136597%, 45.881653%)" stroke-opacity="1" stroke-miterlimit="10" d="M 54.04675 -141.734969 C 54.04675 -139.000594 51.831906 -136.78575 49.097531 -136.78575 C 46.363156 -136.78575 44.148313 -139.000594 44.148313 -141.734969 C 44.148313 -144.469344 46.363156 -146.684187 49.097531 -146.684187 C 51.831906 -146.684187 54.04675 -144.469344 54.04675 -141.734969 Z M 54.04675 -141.734969 " transform="matrix(1, 0, 0, -1, 5.547, -97.192)"/>
<path fill-rule="nonzero" fill="rgb(93.331909%, 90.979004%, 83.529663%)" fill-opacity="1" stroke-width="1.19553" stroke-linecap="butt" stroke-linejoin="miter" stroke="rgb(34.510803%, 43.136597%, 45.881653%)" stroke-opacity="1" stroke-miterlimit="10" d="M 54.04675 -198.426375 C 54.04675 -195.692 51.831906 -193.477156 49.097531 -193.477156 C 46.363156 -193.477156 44.148313 -195.692 44.148313 -198.426375 C 44.148313 -201.16075 46.363156 -203.375594 49.097531 -203.375594 C 51.831906 -203.375594 54.04675 -201.16075 54.04675 -198.426375 Z M 54.04675 -198.426375 " transform="matrix(1, 0, 0, -1, 5.547, -97.192)"/>
<path fill-rule="nonzero" fill="rgb(93.331909%, 90.979004%, 83.529663%)" fill-opacity="1" stroke-width="1.19553" stroke-linecap="butt" stroke-linejoin="miter" stroke="rgb(34.510803%, 43.136597%, 45.881653%)" stroke-opacity="1" stroke-miterlimit="10" d="M 110.742063 -141.734969 C 110.742063 -139.000594 108.527219 -136.78575 105.792844 -136.78575 C 103.058469 -136.78575 100.843625 -139.000594 100.843625 -141.734969 C 100.843625 -144.469344 103.058469 -146.684187 105.792844 -146.684187 C 108.527219 -146.684187 110.742063 -144.469344 110.742063 -141.734969 Z M 110.742063 -141.734969 " transform="matrix(1, 0, 0, -1, 5.547, -97.192)"/>
<path fill-rule="nonzero" fill="rgb(93.331909%, 90.979004%, 83.529663%)" fill-opacity="1" stroke-width="1.19553" stroke-linecap="butt" stroke-linejoin="miter" stroke="rgb(34.510803%, 43.136597%, 45.881653%)" stroke-opacity="1" stroke-miterlimit="10" d="M 110.742063 -198.426375 C 110.742063 -195.692 108.527219 -193.477156 105.792844 -193.477156 C 103.058469 -193.477156 100.843625 -195.692 100.843625 -198.426375 C 100.843625 -201.16075 103.058469 -203.375594 105.792844 -203.375594 C 108.527219 -203.375594 110.742063 -201.16075 110.742063 -198.426375 Z M 110.742063 -198.426375 " transform="matrix(1, 0, 0, -1, 5.547, -97.192)"/>
<path fill-rule="nonzero" fill="rgb(93.331909%, 90.979004%, 83.529663%)" fill-opacity="1" stroke-width="1.19553" stroke-linecap="butt" stroke-linejoin="miter" stroke="rgb(34.510803%, 43.136597%, 45.881653%)" stroke-opacity="1" stroke-miterlimit="10" d="M 159.839719 -170.082625 C 159.839719 -167.34825 157.624875 -165.1295 154.8905 -165.1295 C 152.156125 -165.1295 149.941281 -167.34825 149.941281 -170.082625 C 149.941281 -172.813094 152.156125 -175.031844 154.8905 -175.031844 C 157.624875 -175.031844 159.839719 -172.813094 159.839719 -170.082625 Z M 159.839719 -170.082625 " transform="matrix(1, 0, 0, -1, 5.547, -97.192)"/>
<path fill="none" stroke-width="1.59404" stroke-linecap="butt" stroke-linejoin="miter" stroke="rgb(14.898682%, 54.499817%, 82.398987%)" stroke-opacity="1" stroke-miterlimit="10" d="M 4.804563 -167.305281 L 40.031125 -146.969344 " transform="matrix(1, 0, 0, -1, 5.547, -97.192)"/>
<path fill-rule="nonzero" fill="rgb(14.898682%, 54.499817%, 82.398987%)" fill-opacity="1" stroke-width="1.37189" stroke-linecap="butt" stroke-linejoin="miter" stroke="rgb(14.898682%, 54.499817%, 82.398987%)" stroke-opacity="1" stroke-miterlimit="10" d="M 6.175197 -0.0000504594 L 2.214101 1.5065 L 3.550031 -0.0000153015 L 2.215246 -1.507262 Z M 6.175197 -0.0000504594 " transform="matrix(0.86601, -0.49998, -0.49998, -0.86601, 42.80063, 51.3804)"/>
<path fill="none" stroke-width="1.19553" stroke-linecap="butt" stroke-linejoin="miter" stroke="rgb(34.498596%, 43.099976%, 45.899963%)" stroke-opacity="1" stroke-miterlimit="10" d="M 4.804563 -172.856062 L 40.785031 -193.625594 " transform="matrix(1, 0, 0, -1, 5.547, -97.192)"/>
<path fill-rule="nonzero" fill="rgb(34.498596%, 43.099976%, 45.899963%)" fill-opacity="1" stroke-width="1.12978" stroke-linecap="butt" stroke-linejoin="miter" stroke="rgb(34.498596%, 43.099976%, 45.899963%)" stroke-opacity="1" stroke-miterlimit="10" d="M 5.086767 0.00189568 L 1.823795 1.239415 L 2.923856 -0.00189996 L 1.825607 -1.240385 Z M 5.086767 0.00189568 " transform="matrix(0.86601, 0.49998, 0.49998, -0.86601, 44.04308, 95.11461)"/>
<path fill="none" stroke-width="1.19553" stroke-linecap="butt" stroke-linejoin="miter" stroke="rgb(34.498596%, 43.099976%, 45.899963%)" stroke-opacity="1" stroke-miterlimit="10" d="M 49.097531 -192.8795 L 49.097531 -151.336531 " transform="matrix(1, 0, 0, -1, 5.547, -97.192)"/>
<path fill-rule="nonzero" fill="rgb(34.498596%, 43.099976%, 45.899963%)" fill-opacity="1" stroke-width="1.12978" stroke-linecap="butt" stroke-linejoin="miter" stroke="rgb(34.498596%, 43.099976%, 45.899963%)" stroke-opacity="1" stroke-miterlimit="10" d="M 5.085331 0.00070875 L 1.823612 1.242896 L 2.925175 0.00070875 L 1.823612 -1.241479 Z M 5.085331 0.00070875 " transform="matrix(0, -1, -1, 0, 54.64524, 56.78455)"/>
<path fill="none" stroke-width="1.59404" stroke-linecap="butt" stroke-linejoin="miter" stroke="rgb(14.898682%, 54.499817%, 82.398987%)" stroke-opacity="1" stroke-miterlimit="10" d="M 54.644406 -141.734969 L 95.320188 -141.734969 " transform="matrix(1, 0, 0, -1, 5.547, -97.192)"/>
<path fill-rule="nonzero" fill="rgb(14.898682%, 54.499817%, 82.398987%)" fill-opacity="1" stroke-width="1.37189" stroke-linecap="butt" stroke-linejoin="miter" stroke="rgb(14.898682%, 54.499817%, 82.398987%)" stroke-opacity="1" stroke-miterlimit="10" d="M 6.174267 -0.00092875 L 2.21333 1.506884 L 3.549267 -0.00092875 L 2.21333 -1.508741 Z M 6.174267 -0.00092875 " transform="matrix(1, 0, 0, -1, 97.66167, 44.54204)"/>
<path fill="none" stroke-width="1.59404" stroke-linecap="butt" stroke-linejoin="miter" stroke="rgb(14.898682%, 54.499817%, 82.398987%)" stroke-opacity="1" stroke-miterlimit="10" d="M 54.644406 -198.426375 L 95.320188 -198.426375 " transform="matrix(1, 0, 0, -1, 5.547, -97.192)"/>
<path fill-rule="nonzero" fill="rgb(14.898682%, 54.499817%, 82.398987%)" fill-opacity="1" stroke-width="1.37189" stroke-linecap="butt" stroke-linejoin="miter" stroke="rgb(14.898682%, 54.499817%, 82.398987%)" stroke-opacity="1" stroke-miterlimit="10" d="M 6.174267 0.001285 L 2.21333 1.509098 L 3.549267 0.001285 L 2.21333 -1.506527 Z M 6.174267 0.001285 " transform="matrix(1, 0, 0, -1, 97.66167, 101.23566)"/>
<path fill="none" stroke-width="1.19553" stroke-linecap="butt" stroke-linejoin="miter" stroke="rgb(34.498596%, 43.099976%, 45.899963%)" stroke-opacity="1" stroke-miterlimit="10" d="M 105.792844 -192.8795 L 105.792844 -151.336531 " transform="matrix(1, 0, 0, -1, 5.547, -97.192)"/>
<path fill-rule="nonzero" fill="rgb(34.498596%, 43.099976%, 45.899963%)" fill-opacity="1" stroke-width="1.12978" stroke-linecap="butt" stroke-linejoin="miter" stroke="rgb(34.498596%, 43.099976%, 45.899963%)" stroke-opacity="1" stroke-miterlimit="10" d="M 5.085331 -0.00099375 L 1.823612 1.241194 L 2.925175 -0.00099375 L 1.823612 -1.243181 Z M 5.085331 -0.00099375 " transform="matrix(0, -1, -1, 0, 111.33885, 56.78455)"/>
<path fill="none" stroke-width="1.19553" stroke-linecap="butt" stroke-linejoin="miter" stroke="rgb(34.498596%, 43.099976%, 45.899963%)" stroke-opacity="1" stroke-miterlimit="10" d="M 53.019406 -194.5045 L 99.003781 -148.524031 " transform="matrix(1, 0, 0, -1, 5.547, -97.192)"/>
<path fill-rule="nonzero" fill="rgb(34.498596%, 43.099976%, 45.899963%)" fill-opacity="1" stroke-width="1.12978" stroke-linecap="butt" stroke-linejoin="miter" stroke="rgb(34.498596%, 43.099976%, 45.899963%)" stroke-opacity="1" stroke-miterlimit="10" d="M 5.085901 0.00140981 L 1.823787 1.241621 L 2.923128 -0.00135235 L 1.826549 -1.241563 Z M 5.085901 0.00140981 " transform="matrix(0.7071, -0.7071, -0.7071, -0.7071, 102.6821, 53.1988)"/>
<path fill="none" stroke-width="1.59404" stroke-linecap="butt" stroke-linejoin="miter" stroke="rgb(14.898682%, 54.499817%, 82.398987%)" stroke-opacity="1" stroke-miterlimit="10" d="M 110.597531 -144.508406 L 145.824094 -164.844344 " transform="matrix(1, 0, 0, -1, 5.547, -97.192)"/>
<path fill-rule="nonzero" fill="rgb(14.898682%, 54.499817%, 82.398987%)" fill-opacity="1" stroke-width="1.37189" stroke-linecap="butt" stroke-linejoin="miter" stroke="rgb(14.898682%, 54.499817%, 82.398987%)" stroke-opacity="1" stroke-miterlimit="10" d="M 6.175561 0.0016376 L 2.21561 1.508849 L 3.550395 0.00160245 L 2.216418 -1.508296 Z M 6.175561 0.0016376 " transform="matrix(0.86601, 0.49998, 0.49998, -0.86601, 148.59249, 66.05048)"/>
<path fill="none" stroke-width="1.19553" stroke-linecap="butt" stroke-linejoin="miter" stroke="rgb(34.498596%, 43.099976%, 45.899963%)" stroke-opacity="1" stroke-miterlimit="10" d="M 110.597531 -195.652937 L 146.574094 -174.883406 " transform="matrix(1, 0, 0, -1, 5.547, -97.192)"/>
<path fill-rule="nonzero" fill="rgb(34.498596%, 43.099976%, 45.899963%)" fill-opacity="1" stroke-width="1.12978" stroke-linecap="butt" stroke-linejoin="miter" stroke="rgb(34.498596%, 43.099976%, 45.899963%)" stroke-opacity="1" stroke-miterlimit="10" d="M 5.08409 -0.00091629 L 1.82293 1.241364 L 2.924563 0.000926218 L 1.824502 -1.240389 Z M 5.08409 -0.00091629 " transform="matrix(0.86601, -0.49998, -0.49998, -0.86601, 149.83495, 79.0099)"/>
<path fill-rule="nonzero" fill="rgb(93.331909%, 90.979004%, 83.529663%)" fill-opacity="1" stroke-width="1.19553" stroke-linecap="butt" stroke-linejoin="miter" stroke="rgb(34.510803%, 43.136597%, 45.881653%)" stroke-opacity="1" stroke-miterlimit="10" d="M 223.218625 -155.352156 C 223.218625 -152.617781 221.003781 -150.402937 218.269406 -150.402937 C 215.535031 -150.402937 213.320188 -152.617781 213.320188 -155.352156 C 213.320188 -158.086531 215.535031 -160.301375 218.269406 -160.301375 C 221.003781 -160.301375 223.218625 -158.086531 223.218625 -155.352156 Z M 223.218625 -155.352156 " transform="matrix(1, 0, 0, -1, 5.547, -97.192)"/>
<path fill-rule="nonzero" fill="rgb(93.331909%, 90.979004%, 83.529663%)" fill-opacity="1" stroke-width="1.19553" stroke-linecap="butt" stroke-linejoin="miter" stroke="rgb(34.510803%, 43.136597%, 45.881653%)" stroke-opacity="1" stroke-miterlimit="10" d="M 240.226438 -184.809187 C 240.226438 -182.074812 238.011594 -179.859969 235.277219 -179.859969 C 232.54675 -179.859969 230.328 -182.074812 230.328 -184.809187 C 230.328 -187.543562 232.54675 -189.758406 235.277219 -189.758406 C 238.011594 -189.758406 240.226438 -187.543562 240.226438 -184.809187 Z M 240.226438 -184.809187 " transform="matrix(1, 0, 0, -1, 5.547, -97.192)"/>
<path fill="none" stroke-width="0.79701" stroke-linecap="butt" stroke-linejoin="miter" stroke="rgb(34.498596%, 43.099976%, 45.899963%)" stroke-opacity="1" stroke-dasharray="2.98883 2.98883" stroke-miterlimit="10" d="M 251.917844 -140.113875 L 251.917844 -200.047469 L 201.628781 -200.047469 L 201.628781 -140.113875 Z M 251.917844 -140.113875 " transform="matrix(1, 0, 0, -1, 5.547, -97.192)"/>
<path fill-rule="nonzero" fill="rgb(93.331909%, 90.979004%, 83.529663%)" fill-opacity="1" stroke-width="1.19553" stroke-linecap="butt" stroke-linejoin="miter" stroke="rgb(34.510803%, 43.136597%, 45.881653%)" stroke-opacity="1" stroke-miterlimit="10" d="M 296.867062 -112.832625 C 296.867062 -110.09825 294.652219 -107.883406 291.917844 -107.883406 C 289.183469 -107.883406 286.968625 -110.09825 286.968625 -112.832625 C 286.968625 -115.567 289.183469 -117.781844 291.917844 -117.781844 C 294.652219 -117.781844 296.867062 -115.567 296.867062 -112.832625 Z M 296.867062 -112.832625 " transform="matrix(1, 0, 0, -1, 5.547, -97.192)"/>
<path fill-rule="nonzero" fill="rgb(93.331909%, 90.979004%, 83.529663%)" fill-opacity="1" stroke-width="1.19553" stroke-linecap="butt" stroke-linejoin="miter" stroke="rgb(34.510803%, 43.136597%, 45.881653%)" stroke-opacity="1" stroke-miterlimit="10" d="M 313.874875 -142.289656 C 313.874875 -139.555281 311.660031 -137.340437 308.925656 -137.340437 C 306.191281 -137.340437 303.976437 -139.555281 303.976437 -142.289656 C 303.976437 -145.024031 306.191281 -147.238875 308.925656 -147.238875 C 311.660031 -147.238875 313.874875 -145.024031 313.874875 -142.289656 Z M 313.874875 -142.289656 " transform="matrix(1, 0, 0, -1, 5.547, -97.192)"/>
<path fill="none" stroke-width="0.79701" stroke-linecap="butt" stroke-linejoin="miter" stroke="rgb(34.498596%, 43.099976%, 45.899963%)" stroke-opacity="1" stroke-dasharray="2.98883 2.98883" stroke-miterlimit="10" d="M 325.566281 -97.594344 L 325.566281 -157.527937 L 275.277219 -157.527937 L 275.277219 -97.594344 Z M 325.566281 -97.594344 " transform="matrix(1, 0, 0, -1, 5.547, -97.192)"/>
<path fill-rule="nonzero" fill="rgb(93.331909%, 90.979004%, 83.529663%)" fill-opacity="1" stroke-width="1.19553" stroke-linecap="butt" stroke-linejoin="miter" stroke="rgb(34.510803%, 43.136597%, 45.881653%)" stroke-opacity="1" stroke-miterlimit="10" d="M 296.867062 -197.871687 C 296.867062 -195.137312 294.652219 -192.922469 291.917844 -192.922469 C 289.183469 -192.922469 286.968625 -195.137312 286.968625 -197.871687 C 286.968625 -200.606062 289.183469 -202.820906 291.917844 -202.820906 C 294.652219 -202.820906 296.867062 -200.606062 296.867062 -197.871687 Z M 296.867062 -197.871687 " transform="matrix(1, 0, 0, -1, 5.547, -97.192)"/>
<path fill-rule="nonzero" fill="rgb(93.331909%, 90.979004%, 83.529663%)" fill-opacity="1" stroke-width="1.19553" stroke-linecap="butt" stroke-linejoin="miter" stroke="rgb(34.510803%, 43.136597%, 45.881653%)" stroke-opacity="1" stroke-miterlimit="10" d="M 313.874875 -227.328719 C 313.874875 -224.59825 311.660031 -222.3795 308.925656 -222.3795 C 306.191281 -222.3795 303.976437 -224.59825 303.976437 -227.328719 C 303.976437 -230.063094 306.191281 -232.281844 308.925656 -232.281844 C 311.660031 -232.281844 313.874875 -230.063094 313.874875 -227.328719 Z M 313.874875 -227.328719 " transform="matrix(1, 0, 0, -1, 5.547, -97.192)"/>
<path fill="none" stroke-width="0.79701" stroke-linecap="butt" stroke-linejoin="miter" stroke="rgb(34.498596%, 43.099976%, 45.899963%)" stroke-opacity="1" stroke-dasharray="2.98883 2.98883" stroke-miterlimit="10" d="M 325.566281 -182.633406 L 325.566281 -242.567 L 275.277219 -242.567 L 275.277219 -182.633406 Z M 325.566281 -182.633406 " transform="matrix(1, 0, 0, -1, 5.547, -97.192)"/>
<path fill-rule="nonzero" fill="rgb(93.331909%, 90.979004%, 83.529663%)" fill-opacity="1" stroke-width="1.19553" stroke-linecap="butt" stroke-linejoin="miter" stroke="rgb(34.510803%, 43.136597%, 45.881653%)" stroke-opacity="1" stroke-miterlimit="10" d="M 381.906125 -112.832625 C 381.906125 -110.09825 379.691281 -107.883406 376.956906 -107.883406 C 374.222531 -107.883406 372.007687 -110.09825 372.007687 -112.832625 C 372.007687 -115.567 374.222531 -117.781844 376.956906 -117.781844 C 379.691281 -117.781844 381.906125 -115.567 381.906125 -112.832625 Z M 381.906125 -112.832625 " transform="matrix(1, 0, 0, -1, 5.547, -97.192)"/>
<path fill-rule="nonzero" fill="rgb(93.331909%, 90.979004%, 83.529663%)" fill-opacity="1" stroke-width="1.19553" stroke-linecap="butt" stroke-linejoin="miter" stroke="rgb(34.510803%, 43.136597%, 45.881653%)" stroke-opacity="1" stroke-miterlimit="10" d="M 398.917844 -142.289656 C 398.917844 -139.555281 396.699094 -137.340437 393.964719 -137.340437 C 391.23425 -137.340437 389.0155 -139.555281 389.0155 -142.289656 C 389.0155 -145.024031 391.23425 -147.238875 393.964719 -147.238875 C 396.699094 -147.238875 398.917844 -145.024031 398.917844 -142.289656 Z M 398.917844 -142.289656 " transform="matrix(1, 0, 0, -1, 5.547, -97.192)"/>
<path fill="none" stroke-width="0.79701" stroke-linecap="butt" stroke-linejoin="miter" stroke="rgb(34.498596%, 43.099976%, 45.899963%)" stroke-opacity="1" stroke-dasharray="2.98883 2.98883" stroke-miterlimit="10" d="M 410.60925 -97.594344 L 410.60925 -157.527937 L 360.316281 -157.527937 L 360.316281 -97.594344 Z M 410.60925 -97.594344 " transform="matrix(1, 0, 0, -1, 5.547, -97.192)"/>
<path fill-rule="nonzero" fill="rgb(93.331909%, 90.979004%, 83.529663%)" fill-opacity="1" stroke-width="1.19553" stroke-linecap="butt" stroke-linejoin="miter" stroke="rgb(34.510803%, 43.136597%, 45.881653%)" stroke-opacity="1" stroke-miterlimit="10" d="M 381.906125 -197.871687 C 381.906125 -195.137312 379.691281 -192.922469 376.956906 -192.922469 C 374.222531 -192.922469 372.007687 -195.137312 372.007687 -197.871687 C 372.007687 -200.606062 374.222531 -202.820906 376.956906 -202.820906 C 379.691281 -202.820906 381.906125 -200.606062 381.906125 -197.871687 Z M 381.906125 -197.871687 " transform="matrix(1, 0, 0, -1, 5.547, -97.192)"/>
<path fill-rule="nonzero" fill="rgb(93.331909%, 90.979004%, 83.529663%)" fill-opacity="1" stroke-width="1.19553" stroke-linecap="butt" stroke-linejoin="miter" stroke="rgb(34.510803%, 43.136597%, 45.881653%)" stroke-opacity="1" stroke-miterlimit="10" d="M 398.917844 -227.328719 C 398.917844 -224.59825 396.699094 -222.3795 393.964719 -222.3795 C 391.23425 -222.3795 389.0155 -224.59825 389.0155 -227.328719 C 389.0155 -230.063094 391.23425 -232.281844 393.964719 -232.281844 C 396.699094 -232.281844 398.917844 -230.063094 398.917844 -227.328719 Z M 398.917844 -227.328719 " transform="matrix(1, 0, 0, -1, 5.547, -97.192)"/>
<path fill="none" stroke-width="0.79701" stroke-linecap="butt" stroke-linejoin="miter" stroke="rgb(34.498596%, 43.099976%, 45.899963%)" stroke-opacity="1" stroke-dasharray="2.98883 2.98883" stroke-miterlimit="10" d="M 410.60925 -182.633406 L 410.60925 -242.567 L 360.316281 -242.567 L 360.316281 -182.633406 Z M 410.60925 -182.633406 " transform="matrix(1, 0, 0, -1, 5.547, -97.192)"/>
<path fill-rule="nonzero" fill="rgb(93.331909%, 90.979004%, 83.529663%)" fill-opacity="1" stroke-width="1.19553" stroke-linecap="butt" stroke-linejoin="miter" stroke="rgb(34.510803%, 43.136597%, 45.881653%)" stroke-opacity="1" stroke-miterlimit="10" d="M 455.554562 -155.352156 C 455.554562 -152.617781 453.339719 -150.402937 450.605344 -150.402937 C 447.870969 -150.402937 445.656125 -152.617781 445.656125 -155.352156 C 445.656125 -158.086531 447.870969 -160.301375 450.605344 -160.301375 C 453.339719 -160.301375 455.554562 -158.086531 455.554562 -155.352156 Z M 455.554562 -155.352156 " transform="matrix(1, 0, 0, -1, 5.547, -97.192)"/>
<path fill-rule="nonzero" fill="rgb(93.331909%, 90.979004%, 83.529663%)" fill-opacity="1" d="M 478.109375 87.617188 C 478.109375 84.882812 475.894531 82.667969 473.160156 82.667969 C 470.425781 82.667969 468.210938 84.882812 468.210938 87.617188 C 468.210938 90.351562 470.425781 92.566406 473.160156 92.566406 C 475.894531 92.566406 478.109375 90.351562 478.109375 87.617188 Z M 478.109375 87.617188 "/>
<g clip-path="url(#clip-0)">
<path fill="none" stroke-width="1.19553" stroke-linecap="butt" stroke-linejoin="miter" stroke="rgb(34.510803%, 43.136597%, 45.881653%)" stroke-opacity="1" stroke-miterlimit="10" d="M 472.562375 -184.809187 C 472.562375 -182.074812 470.347531 -179.859969 467.613156 -179.859969 C 464.878781 -179.859969 462.663937 -182.074812 462.663937 -184.809187 C 462.663937 -187.543562 464.878781 -189.758406 467.613156 -189.758406 C 470.347531 -189.758406 472.562375 -187.543562 472.562375 -184.809187 Z M 472.562375 -184.809187 " transform="matrix(1, 0, 0, -1, 5.547, -97.192)"/>
</g>
<g clip-path="url(#clip-1)">
<path fill="none" stroke-width="0.79701" stroke-linecap="butt" stroke-linejoin="miter" stroke="rgb(34.498596%, 43.099976%, 45.899963%)" stroke-opacity="1" stroke-dasharray="2.98883 2.98883" stroke-miterlimit="10" d="M 484.253781 -140.113875 L 484.253781 -200.047469 L 433.964719 -200.047469 L 433.964719 -140.113875 Z M 484.253781 -140.113875 " transform="matrix(1, 0, 0, -1, 5.547, -97.192)"/>
</g>
<path fill="none" stroke-width="1.59404" stroke-linecap="butt" stroke-linejoin="miter" stroke="rgb(14.898682%, 54.499817%, 82.398987%)" stroke-opacity="1" stroke-miterlimit="10" d="M 238.710813 -180.449812 L 288.488156 -117.192 " transform="matrix(1, 0, 0, -1, 5.547, -97.192)"/>
<path fill="none" stroke-width="1.19553" stroke-linecap="butt" stroke-linejoin="miter" stroke="rgb(34.498596%, 43.099976%, 45.899963%)" stroke-opacity="1" stroke-miterlimit="10" d="M 240.683469 -186.055281 L 286.511594 -196.625594 " transform="matrix(1, 0, 0, -1, 5.547, -97.192)"/>
<path fill="none" stroke-width="1.19553" stroke-linecap="butt" stroke-linejoin="miter" stroke="rgb(34.498596%, 43.099976%, 45.899963%)" stroke-opacity="1" stroke-miterlimit="10" d="M 308.10925 -221.844344 L 292.73425 -118.317 " transform="matrix(1, 0, 0, -1, 5.547, -97.192)"/>
<path fill="none" stroke-width="1.59404" stroke-linecap="butt" stroke-linejoin="miter" stroke="rgb(14.898682%, 54.499817%, 82.398987%)" stroke-opacity="1" stroke-miterlimit="10" d="M 314.0155 -140.086531 L 371.867062 -115.03575 " transform="matrix(1, 0, 0, -1, 5.547, -97.192)"/>
<path fill="none" stroke-width="1.59404" stroke-linecap="butt" stroke-linejoin="miter" stroke="rgb(14.898682%, 54.499817%, 82.398987%)" stroke-opacity="1" stroke-miterlimit="10" d="M 314.0155 -225.125594 L 371.867062 -200.074812 " transform="matrix(1, 0, 0, -1, 5.547, -97.192)"/>
<path fill="none" stroke-width="1.19553" stroke-linecap="butt" stroke-linejoin="miter" stroke="rgb(34.498596%, 43.099976%, 45.899963%)" stroke-opacity="1" stroke-miterlimit="10" d="M 393.152219 -221.844344 L 377.773312 -118.317 " transform="matrix(1, 0, 0, -1, 5.547, -97.192)"/>
<path fill="none" stroke-width="1.19553" stroke-linecap="butt" stroke-linejoin="miter" stroke="rgb(34.498596%, 43.099976%, 45.899963%)" stroke-opacity="1" stroke-miterlimit="10" d="M 311.757687 -222.563094 L 374.124875 -117.602156 " transform="matrix(1, 0, 0, -1, 5.547, -97.192)"/>
<path fill="none" stroke-width="1.59404" stroke-linecap="butt" stroke-linejoin="miter" stroke="rgb(14.898682%, 54.499817%, 82.398987%)" stroke-opacity="1" stroke-miterlimit="10" d="M 399.370969 -143.53575 L 445.199094 -154.106062 " transform="matrix(1, 0, 0, -1, 5.547, -97.192)"/>
<path fill="none" stroke-width="1.19553" stroke-linecap="butt" stroke-linejoin="miter" stroke="rgb(34.498596%, 43.099976%, 45.899963%)" stroke-opacity="1" stroke-miterlimit="10" d="M 397.398312 -222.969344 L 447.175656 -159.711531 " transform="matrix(1, 0, 0, -1, 5.547, -97.192)"/>
<path fill-rule="nonzero" fill="rgb(93.331909%, 90.979004%, 83.529663%)" fill-opacity="1" stroke-width="1.19553" stroke-linecap="butt" stroke-linejoin="miter" stroke="rgb(34.510803%, 43.136597%, 45.881653%)" stroke-opacity="1" stroke-miterlimit="10" d="M 4.949094 -340.16075 C 4.949094 -337.426375 2.73425 -335.211531 -0.000125 -335.211531 C -2.7345 -335.211531 -4.949344 -337.426375 -4.949344 -340.16075 C -4.949344 -342.895125 -2.7345 -345.109969 -0.000125 -345.109969 C 2.73425 -345.109969 4.949094 -342.895125 4.949094 -340.16075 Z M 4.949094 -340.16075 " transform="matrix(1, 0, 0, -1, 5.547, -97.192)"/>
<path fill-rule="nonzero" fill="rgb(93.331909%, 90.979004%, 83.529663%)" fill-opacity="1" stroke-width="1.19553" stroke-linecap="butt" stroke-linejoin="miter" stroke="rgb(34.510803%, 43.136597%, 45.881653%)" stroke-opacity="1" stroke-miterlimit="10" d="M 54.04675 -311.813094 C 54.04675 -309.082625 51.831906 -306.863875 49.097531 -306.863875 C 46.363156 -306.863875 44.148313 -309.082625 44.148313 -311.813094 C 44.148313 -314.547469 46.363156 -316.766219 49.097531 -316.766219 C 51.831906 -316.766219 54.04675 -314.547469 54.04675 -311.813094 Z M 54.04675 -311.813094 " transform="matrix(1, 0, 0, -1, 5.547, -97.192)"/>
<path fill-rule="nonzero" fill="rgb(93.331909%, 90.979004%, 83.529663%)" fill-opacity="1" stroke-width="1.19553" stroke-linecap="butt" stroke-linejoin="miter" stroke="rgb(34.510803%, 43.136597%, 45.881653%)" stroke-opacity="1" stroke-miterlimit="10" d="M 54.04675 -368.508406 C 54.04675 -365.774031 51.831906 -363.559188 49.097531 -363.559188 C 46.363156 -363.559188 44.148313 -365.774031 44.148313 -368.508406 C 44.148313 -371.242781 46.363156 -373.457625 49.097531 -373.457625 C 51.831906 -373.457625 54.04675 -371.242781 54.04675 -368.508406 Z M 54.04675 -368.508406 " transform="matrix(1, 0, 0, -1, 5.547, -97.192)"/>
<path fill-rule="nonzero" fill="rgb(93.331909%, 90.979004%, 83.529663%)" fill-opacity="1" stroke-width="1.19553" stroke-linecap="butt" stroke-linejoin="miter" stroke="rgb(34.510803%, 43.136597%, 45.881653%)" stroke-opacity="1" stroke-miterlimit="10" d="M 110.742063 -311.813094 C 110.742063 -309.082625 108.527219 -306.863875 105.792844 -306.863875 C 103.058469 -306.863875 100.843625 -309.082625 100.843625 -311.813094 C 100.843625 -314.547469 103.058469 -316.766219 105.792844 -316.766219 C 108.527219 -316.766219 110.742063 -314.547469 110.742063 -311.813094 Z M 110.742063 -311.813094 " transform="matrix(1, 0, 0, -1, 5.547, -97.192)"/>
<path fill-rule="nonzero" fill="rgb(93.331909%, 90.979004%, 83.529663%)" fill-opacity="1" stroke-width="1.19553" stroke-linecap="butt" stroke-linejoin="miter" stroke="rgb(34.510803%, 43.136597%, 45.881653%)" stroke-opacity="1" stroke-miterlimit="10" d="M 110.742063 -368.508406 C 110.742063 -365.774031 108.527219 -363.559188 105.792844 -363.559188 C 103.058469 -363.559188 100.843625 -365.774031 100.843625 -368.508406 C 100.843625 -371.242781 103.058469 -373.457625 105.792844 -373.457625 C 108.527219 -373.457625 110.742063 -371.242781 110.742063 -368.508406 Z M 110.742063 -368.508406 " transform="matrix(1, 0, 0, -1, 5.547, -97.192)"/>
<path fill-rule="nonzero" fill="rgb(93.331909%, 90.979004%, 83.529663%)" fill-opacity="1" stroke-width="1.19553" stroke-linecap="butt" stroke-linejoin="miter" stroke="rgb(34.510803%, 43.136597%, 45.881653%)" stroke-opacity="1" stroke-miterlimit="10" d="M 159.839719 -340.16075 C 159.839719 -337.426375 157.624875 -335.211531 154.8905 -335.211531 C 152.156125 -335.211531 149.941281 -337.426375 149.941281 -340.16075 C 149.941281 -342.895125 152.156125 -345.109969 154.8905 -345.109969 C 157.624875 -345.109969 159.839719 -342.895125 159.839719 -340.16075 Z M 159.839719 -340.16075 " transform="matrix(1, 0, 0, -1, 5.547, -97.192)"/>
<path fill="none" stroke-width="1.19553" stroke-linecap="butt" stroke-linejoin="miter" stroke="rgb(34.498596%, 43.099976%, 45.899963%)" stroke-opacity="1" stroke-miterlimit="10" d="M 4.804563 -337.387313 L 40.785031 -316.613875 " transform="matrix(1, 0, 0, -1, 5.547, -97.192)"/>
<path fill-rule="nonzero" fill="rgb(34.498596%, 43.099976%, 45.899963%)" fill-opacity="1" stroke-width="1.12978" stroke-linecap="butt" stroke-linejoin="miter" stroke="rgb(34.498596%, 43.099976%, 45.899963%)" stroke-opacity="1" stroke-miterlimit="10" d="M 5.088307 0.000772834 L 1.825194 1.23967 L 2.923444 0.00118547 L 1.823382 -1.24013 Z M 5.088307 0.000772834 " transform="matrix(0.86601, -0.49998, -0.49998, -0.86601, 44.04308, 220.74394)"/>
<path fill="none" stroke-width="1.59404" stroke-linecap="butt" stroke-linejoin="miter" stroke="rgb(14.898682%, 54.499817%, 82.398987%)" stroke-opacity="1" stroke-miterlimit="10" d="M 4.804563 -342.934188 L 40.031125 -363.274031 " transform="matrix(1, 0, 0, -1, 5.547, -97.192)"/>
<path fill-rule="nonzero" fill="rgb(14.898682%, 54.499817%, 82.398987%)" fill-opacity="1" stroke-width="1.37189" stroke-linecap="butt" stroke-linejoin="miter" stroke="rgb(14.898682%, 54.499817%, 82.398987%)" stroke-opacity="1" stroke-miterlimit="10" d="M 6.175609 -0.000664032 L 2.215659 1.506547 L 3.550444 -0.00069919 L 2.214513 -1.507214 Z M 6.175609 -0.000664032 " transform="matrix(0.86601, 0.49998, 0.49998, -0.86601, 42.80063, 264.47815)"/>
<path fill="none" stroke-width="1.59404" stroke-linecap="butt" stroke-linejoin="miter" stroke="rgb(14.898682%, 54.499817%, 82.398987%)" stroke-opacity="1" stroke-miterlimit="10" d="M 49.097531 -362.961531 L 49.097531 -322.28575 " transform="matrix(1, 0, 0, -1, 5.547, -97.192)"/>
<path fill-rule="nonzero" fill="rgb(14.898682%, 54.499817%, 82.398987%)" fill-opacity="1" stroke-width="1.37189" stroke-linecap="butt" stroke-linejoin="miter" stroke="rgb(14.898682%, 54.499817%, 82.398987%)" stroke-opacity="1" stroke-miterlimit="10" d="M 6.1751 0.00070875 L 2.214162 1.508521 L 3.5501 0.00070875 L 2.214162 -1.507104 Z M 6.1751 0.00070875 " transform="matrix(0, -1, -1, 0, 54.64524, 228.3001)"/>
<path fill="none" stroke-width="1.59404" stroke-linecap="butt" stroke-linejoin="miter" stroke="rgb(14.898682%, 54.499817%, 82.398987%)" stroke-opacity="1" stroke-miterlimit="10" d="M 54.644406 -311.813094 L 95.320188 -311.813094 " transform="matrix(1, 0, 0, -1, 5.547, -97.192)"/>
<path fill-rule="nonzero" fill="rgb(14.898682%, 54.499817%, 82.398987%)" fill-opacity="1" stroke-width="1.37189" stroke-linecap="butt" stroke-linejoin="miter" stroke="rgb(14.898682%, 54.499817%, 82.398987%)" stroke-opacity="1" stroke-miterlimit="10" d="M 6.174267 0.00180625 L 2.21333 1.509619 L 3.549267 0.00180625 L 2.21333 -1.506006 Z M 6.174267 0.00180625 " transform="matrix(1, 0, 0, -1, 97.66167, 214.6229)"/>
<path fill="none" stroke-width="1.19553" stroke-linecap="butt" stroke-linejoin="miter" stroke="rgb(34.498596%, 43.099976%, 45.899963%)" stroke-opacity="1" stroke-miterlimit="10" d="M 54.644406 -368.508406 L 96.191281 -368.508406 " transform="matrix(1, 0, 0, -1, 5.547, -97.192)"/>
<path fill-rule="nonzero" fill="rgb(34.498596%, 43.099976%, 45.899963%)" fill-opacity="1" stroke-width="1.12978" stroke-linecap="butt" stroke-linejoin="miter" stroke="rgb(34.498596%, 43.099976%, 45.899963%)" stroke-opacity="1" stroke-miterlimit="10" d="M 5.087244 0.00010375 L 1.825525 1.242291 L 2.923181 0.00010375 L 1.825525 -1.242084 Z M 5.087244 0.00010375 " transform="matrix(1, 0, 0, -1, 99.09635, 271.31651)"/>
<path fill="none" stroke-width="1.19553" stroke-linecap="butt" stroke-linejoin="miter" stroke="rgb(34.498596%, 43.099976%, 45.899963%)" stroke-opacity="1" stroke-miterlimit="10" d="M 105.792844 -362.961531 L 105.792844 -321.414656 " transform="matrix(1, 0, 0, -1, 5.547, -97.192)"/>
<path fill-rule="nonzero" fill="rgb(34.498596%, 43.099976%, 45.899963%)" fill-opacity="1" stroke-width="1.12978" stroke-linecap="butt" stroke-linejoin="miter" stroke="rgb(34.498596%, 43.099976%, 45.899963%)" stroke-opacity="1" stroke-miterlimit="10" d="M 5.088056 -0.00099375 L 1.822431 1.241194 L 2.923994 -0.00099375 L 1.822431 -1.243181 Z M 5.088056 -0.00099375 " transform="matrix(0, -1, -1, 0, 111.33885, 226.8654)"/>
<path fill="none" stroke-width="1.19553" stroke-linecap="butt" stroke-linejoin="miter" stroke="rgb(34.498596%, 43.099976%, 45.899963%)" stroke-opacity="1" stroke-miterlimit="10" d="M 53.019406 -364.586531 L 99.003781 -318.606063 " transform="matrix(1, 0, 0, -1, 5.547, -97.192)"/>
<path fill-rule="nonzero" fill="rgb(34.498596%, 43.099976%, 45.899963%)" fill-opacity="1" stroke-width="1.12978" stroke-linecap="butt" stroke-linejoin="miter" stroke="rgb(34.498596%, 43.099976%, 45.899963%)" stroke-opacity="1" stroke-miterlimit="10" d="M 5.085066 0.00057453 L 1.822952 1.240785 L 2.925055 0.00057453 L 1.825714 -1.242399 Z M 5.085066 0.00057453 " transform="matrix(0.7071, -0.7071, -0.7071, -0.7071, 102.6821, 223.27965)"/>
<path fill="none" stroke-width="1.59404" stroke-linecap="butt" stroke-linejoin="miter" stroke="rgb(14.898682%, 54.499817%, 82.398987%)" stroke-opacity="1" stroke-miterlimit="10" d="M 110.597531 -314.590438 L 145.824094 -334.926375 " transform="matrix(1, 0, 0, -1, 5.547, -97.192)"/>
<path fill-rule="nonzero" fill="rgb(14.898682%, 54.499817%, 82.398987%)" fill-opacity="1" stroke-width="1.37189" stroke-linecap="butt" stroke-linejoin="miter" stroke="rgb(14.898682%, 54.499817%, 82.398987%)" stroke-opacity="1" stroke-miterlimit="10" d="M 6.176142 0.000631902 L 2.216191 1.507843 L 3.550976 0.000596744 L 2.215045 -1.505918 Z M 6.176142 0.000631902 " transform="matrix(0.86601, 0.49998, 0.49998, -0.86601, 148.59249, 236.13135)"/>
<path fill="none" stroke-width="1.19553" stroke-linecap="butt" stroke-linejoin="miter" stroke="rgb(34.498596%, 43.099976%, 45.899963%)" stroke-opacity="1" stroke-miterlimit="10" d="M 110.597531 -365.734969 L 146.574094 -344.961531 " transform="matrix(1, 0, 0, -1, 5.547, -97.192)"/>
<path fill-rule="nonzero" fill="rgb(34.498596%, 43.099976%, 45.899963%)" fill-opacity="1" stroke-width="1.12978" stroke-linecap="butt" stroke-linejoin="miter" stroke="rgb(34.498596%, 43.099976%, 45.899963%)" stroke-opacity="1" stroke-miterlimit="10" d="M 5.085458 0.00145236 L 1.824298 1.243733 L 2.923977 -0.0000881433 L 1.823916 -1.241403 Z M 5.085458 0.00145236 " transform="matrix(0.86601, -0.49998, -0.49998, -0.86601, 149.83495, 249.09076)"/>
<path fill-rule="nonzero" fill="rgb(93.331909%, 90.979004%, 83.529663%)" fill-opacity="1" stroke-width="1.19553" stroke-linecap="butt" stroke-linejoin="miter" stroke="rgb(34.510803%, 43.136597%, 45.881653%)" stroke-opacity="1" stroke-miterlimit="10" d="M 223.218625 -325.434188 C 223.218625 -322.699813 221.003781 -320.481063 218.269406 -320.481063 C 215.535031 -320.481063 213.320188 -322.699813 213.320188 -325.434188 C 213.320188 -328.164656 215.535031 -330.383406 218.269406 -330.383406 C 221.003781 -330.383406 223.218625 -328.164656 223.218625 -325.434188 Z M 223.218625 -325.434188 " transform="matrix(1, 0, 0, -1, 5.547, -97.192)"/>
<path fill-rule="nonzero" fill="rgb(93.331909%, 90.979004%, 83.529663%)" fill-opacity="1" stroke-width="1.19553" stroke-linecap="butt" stroke-linejoin="miter" stroke="rgb(34.510803%, 43.136597%, 45.881653%)" stroke-opacity="1" stroke-miterlimit="10" d="M 240.226438 -354.891219 C 240.226438 -352.156844 238.011594 -349.942 235.277219 -349.942 C 232.54675 -349.942 230.328 -352.156844 230.328 -354.891219 C 230.328 -357.625594 232.54675 -359.840438 235.277219 -359.840438 C 238.011594 -359.840438 240.226438 -357.625594 240.226438 -354.891219 Z M 240.226438 -354.891219 " transform="matrix(1, 0, 0, -1, 5.547, -97.192)"/>
<path fill="none" stroke-width="0.79701" stroke-linecap="butt" stroke-linejoin="miter" stroke="rgb(34.498596%, 43.099976%, 45.899963%)" stroke-opacity="1" stroke-dasharray="2.98883 2.98883" stroke-miterlimit="10" d="M 251.917844 -310.195906 L 251.917844 -370.1295 L 201.628781 -370.1295 L 201.628781 -310.195906 Z M 251.917844 -310.195906 " transform="matrix(1, 0, 0, -1, 5.547, -97.192)"/>
<path fill-rule="nonzero" fill="rgb(93.331909%, 90.979004%, 83.529663%)" fill-opacity="1" stroke-width="1.19553" stroke-linecap="butt" stroke-linejoin="miter" stroke="rgb(34.510803%, 43.136597%, 45.881653%)" stroke-opacity="1" stroke-miterlimit="10" d="M 296.867062 -282.91075 C 296.867062 -280.180281 294.652219 -277.961531 291.917844 -277.961531 C 289.183469 -277.961531 286.968625 -280.180281 286.968625 -282.91075 C 286.968625 -285.645125 289.183469 -287.863875 291.917844 -287.863875 C 294.652219 -287.863875 296.867062 -285.645125 296.867062 -282.91075 Z M 296.867062 -282.91075 " transform="matrix(1, 0, 0, -1, 5.547, -97.192)"/>
<path fill-rule="nonzero" fill="rgb(93.331909%, 90.979004%, 83.529663%)" fill-opacity="1" stroke-width="1.19553" stroke-linecap="butt" stroke-linejoin="miter" stroke="rgb(34.510803%, 43.136597%, 45.881653%)" stroke-opacity="1" stroke-miterlimit="10" d="M 313.874875 -312.371688 C 313.874875 -309.637313 311.660031 -307.422469 308.925656 -307.422469 C 306.191281 -307.422469 303.976437 -309.637313 303.976437 -312.371688 C 303.976437 -315.106063 306.191281 -317.320906 308.925656 -317.320906 C 311.660031 -317.320906 313.874875 -315.106063 313.874875 -312.371688 Z M 313.874875 -312.371688 " transform="matrix(1, 0, 0, -1, 5.547, -97.192)"/>
<path fill="none" stroke-width="0.79701" stroke-linecap="butt" stroke-linejoin="miter" stroke="rgb(34.498596%, 43.099976%, 45.899963%)" stroke-opacity="1" stroke-dasharray="2.98883 2.98883" stroke-miterlimit="10" d="M 325.566281 -267.676375 L 325.566281 -327.609969 L 275.277219 -327.609969 L 275.277219 -267.676375 Z M 325.566281 -267.676375 " transform="matrix(1, 0, 0, -1, 5.547, -97.192)"/>
<path fill-rule="nonzero" fill="rgb(93.331909%, 90.979004%, 83.529663%)" fill-opacity="1" stroke-width="1.19553" stroke-linecap="butt" stroke-linejoin="miter" stroke="rgb(34.510803%, 43.136597%, 45.881653%)" stroke-opacity="1" stroke-miterlimit="10" d="M 296.867062 -367.953719 C 296.867062 -365.219344 294.652219 -363.0045 291.917844 -363.0045 C 289.183469 -363.0045 286.968625 -365.219344 286.968625 -367.953719 C 286.968625 -370.688094 289.183469 -372.902938 291.917844 -372.902938 C 294.652219 -372.902938 296.867062 -370.688094 296.867062 -367.953719 Z M 296.867062 -367.953719 " transform="matrix(1, 0, 0, -1, 5.547, -97.192)"/>
<path fill-rule="nonzero" fill="rgb(93.331909%, 90.979004%, 83.529663%)" fill-opacity="1" d="M 319.421875 300.21875 C 319.421875 297.484375 317.207031 295.269531 314.472656 295.269531 C 311.738281 295.269531 309.523438 297.484375 309.523438 300.21875 C 309.523438 302.953125 311.738281 305.167969 314.472656 305.167969 C 317.207031 305.167969 319.421875 302.953125 319.421875 300.21875 Z M 319.421875 300.21875 "/>
<g clip-path="url(#clip-2)">
<path fill="none" stroke-width="1.19553" stroke-linecap="butt" stroke-linejoin="miter" stroke="rgb(34.510803%, 43.136597%, 45.881653%)" stroke-opacity="1" stroke-miterlimit="10" d="M 313.874875 -397.41075 C 313.874875 -394.676375 311.660031 -392.461531 308.925656 -392.461531 C 306.191281 -392.461531 303.976437 -394.676375 303.976437 -397.41075 C 303.976437 -400.145125 306.191281 -402.359969 308.925656 -402.359969 C 311.660031 -402.359969 313.874875 -400.145125 313.874875 -397.41075 Z M 313.874875 -397.41075 " transform="matrix(1, 0, 0, -1, 5.547, -97.192)"/>
</g>
<g clip-path="url(#clip-3)">
<path fill="none" stroke-width="0.79701" stroke-linecap="butt" stroke-linejoin="miter" stroke="rgb(34.498596%, 43.099976%, 45.899963%)" stroke-opacity="1" stroke-dasharray="2.98883 2.98883" stroke-miterlimit="10" d="M 325.566281 -352.715438 L 325.566281 -412.649031 L 275.277219 -412.649031 L 275.277219 -352.715438 Z M 325.566281 -352.715438 " transform="matrix(1, 0, 0, -1, 5.547, -97.192)"/>
</g>
<path fill-rule="nonzero" fill="rgb(93.331909%, 90.979004%, 83.529663%)" fill-opacity="1" stroke-width="1.19553" stroke-linecap="butt" stroke-linejoin="miter" stroke="rgb(34.510803%, 43.136597%, 45.881653%)" stroke-opacity="1" stroke-miterlimit="10" d="M 381.906125 -282.91075 C 381.906125 -280.180281 379.691281 -277.961531 376.956906 -277.961531 C 374.222531 -277.961531 372.007687 -280.180281 372.007687 -282.91075 C 372.007687 -285.645125 374.222531 -287.863875 376.956906 -287.863875 C 379.691281 -287.863875 381.906125 -285.645125 381.906125 -282.91075 Z M 381.906125 -282.91075 " transform="matrix(1, 0, 0, -1, 5.547, -97.192)"/>
<path fill-rule="nonzero" fill="rgb(93.331909%, 90.979004%, 83.529663%)" fill-opacity="1" stroke-width="1.19553" stroke-linecap="butt" stroke-linejoin="miter" stroke="rgb(34.510803%, 43.136597%, 45.881653%)" stroke-opacity="1" stroke-miterlimit="10" d="M 398.917844 -312.371688 C 398.917844 -309.637313 396.699094 -307.422469 393.964719 -307.422469 C 391.23425 -307.422469 389.0155 -309.637313 389.0155 -312.371688 C 389.0155 -315.106063 391.23425 -317.320906 393.964719 -317.320906 C 396.699094 -317.320906 398.917844 -315.106063 398.917844 -312.371688 Z M 398.917844 -312.371688 " transform="matrix(1, 0, 0, -1, 5.547, -97.192)"/>
<path fill="none" stroke-width="0.79701" stroke-linecap="butt" stroke-linejoin="miter" stroke="rgb(34.498596%, 43.099976%, 45.899963%)" stroke-opacity="1" stroke-dasharray="2.98883 2.98883" stroke-miterlimit="10" d="M 410.60925 -267.676375 L 410.60925 -327.609969 L 360.316281 -327.609969 L 360.316281 -267.676375 Z M 410.60925 -267.676375 " transform="matrix(1, 0, 0, -1, 5.547, -97.192)"/>
<path fill-rule="nonzero" fill="rgb(93.331909%, 90.979004%, 83.529663%)" fill-opacity="1" stroke-width="1.19553" stroke-linecap="butt" stroke-linejoin="miter" stroke="rgb(34.510803%, 43.136597%, 45.881653%)" stroke-opacity="1" stroke-miterlimit="10" d="M 381.906125 -367.953719 C 381.906125 -365.219344 379.691281 -363.0045 376.956906 -363.0045 C 374.222531 -363.0045 372.007687 -365.219344 372.007687 -367.953719 C 372.007687 -370.688094 374.222531 -372.902938 376.956906 -372.902938 C 379.691281 -372.902938 381.906125 -370.688094 381.906125 -367.953719 Z M 381.906125 -367.953719 " transform="matrix(1, 0, 0, -1, 5.547, -97.192)"/>
<path fill-rule="nonzero" fill="rgb(93.331909%, 90.979004%, 83.529663%)" fill-opacity="1" d="M 404.464844 300.21875 C 404.464844 297.484375 402.246094 295.269531 399.511719 295.269531 C 396.78125 295.269531 394.5625 297.484375 394.5625 300.21875 C 394.5625 302.953125 396.78125 305.167969 399.511719 305.167969 C 402.246094 305.167969 404.464844 302.953125 404.464844 300.21875 Z M 404.464844 300.21875 "/>
<g clip-path="url(#clip-4)">
<path fill="none" stroke-width="1.19553" stroke-linecap="butt" stroke-linejoin="miter" stroke="rgb(34.510803%, 43.136597%, 45.881653%)" stroke-opacity="1" stroke-miterlimit="10" d="M 398.917844 -397.41075 C 398.917844 -394.676375 396.699094 -392.461531 393.964719 -392.461531 C 391.23425 -392.461531 389.0155 -394.676375 389.0155 -397.41075 C 389.0155 -400.145125 391.23425 -402.359969 393.964719 -402.359969 C 396.699094 -402.359969 398.917844 -400.145125 398.917844 -397.41075 Z M 398.917844 -397.41075 " transform="matrix(1, 0, 0, -1, 5.547, -97.192)"/>
</g>
<g clip-path="url(#clip-5)">
<path fill="none" stroke-width="0.79701" stroke-linecap="butt" stroke-linejoin="miter" stroke="rgb(34.498596%, 43.099976%, 45.899963%)" stroke-opacity="1" stroke-dasharray="2.98883 2.98883" stroke-miterlimit="10" d="M 410.60925 -352.715438 L 410.60925 -412.649031 L 360.316281 -412.649031 L 360.316281 -352.715438 Z M 410.60925 -352.715438 " transform="matrix(1, 0, 0, -1, 5.547, -97.192)"/>
</g>
<path fill-rule="nonzero" fill="rgb(93.331909%, 90.979004%, 83.529663%)" fill-opacity="1" stroke-width="1.19553" stroke-linecap="butt" stroke-linejoin="miter" stroke="rgb(34.510803%, 43.136597%, 45.881653%)" stroke-opacity="1" stroke-miterlimit="10" d="M 455.554562 -325.434188 C 455.554562 -322.699813 453.339719 -320.481063 450.605344 -320.481063 C 447.870969 -320.481063 445.656125 -322.699813 445.656125 -325.434188 C 445.656125 -328.164656 447.870969 -330.383406 450.605344 -330.383406 C 453.339719 -330.383406 455.554562 -328.164656 455.554562 -325.434188 Z M 455.554562 -325.434188 " transform="matrix(1, 0, 0, -1, 5.547, -97.192)"/>
<path fill-rule="nonzero" fill="rgb(93.331909%, 90.979004%, 83.529663%)" fill-opacity="1" d="M 478.109375 257.699219 C 478.109375 254.964844 475.894531 252.75 473.160156 252.75 C 470.425781 252.75 468.210938 254.964844 468.210938 257.699219 C 468.210938 260.433594 470.425781 262.648438 473.160156 262.648438 C 475.894531 262.648438 478.109375 260.433594 478.109375 257.699219 Z M 478.109375 257.699219 "/>
<g clip-path="url(#clip-6)">
<path fill="none" stroke-width="1.19553" stroke-linecap="butt" stroke-linejoin="miter" stroke="rgb(34.510803%, 43.136597%, 45.881653%)" stroke-opacity="1" stroke-miterlimit="10" d="M 472.562375 -354.891219 C 472.562375 -352.156844 470.347531 -349.942 467.613156 -349.942 C 464.878781 -349.942 462.663937 -352.156844 462.663937 -354.891219 C 462.663937 -357.625594 464.878781 -359.840438 467.613156 -359.840438 C 470.347531 -359.840438 472.562375 -357.625594 472.562375 -354.891219 Z M 472.562375 -354.891219 " transform="matrix(1, 0, 0, -1, 5.547, -97.192)"/>
</g>
<g clip-path="url(#clip-7)">
<path fill="none" stroke-width="0.79701" stroke-linecap="butt" stroke-linejoin="miter" stroke="rgb(34.498596%, 43.099976%, 45.899963%)" stroke-opacity="1" stroke-dasharray="2.98883 2.98883" stroke-miterlimit="10" d="M 484.253781 -310.195906 L 484.253781 -370.1295 L 433.964719 -370.1295 L 433.964719 -310.195906 Z M 484.253781 -310.195906 " transform="matrix(1, 0, 0, -1, 5.547, -97.192)"/>
</g>
<path fill="none" stroke-width="1.19553" stroke-linecap="butt" stroke-linejoin="miter" stroke="rgb(34.498596%, 43.099976%, 45.899963%)" stroke-opacity="1" stroke-miterlimit="10" d="M 238.710813 -350.531844 L 288.488156 -287.270125 " transform="matrix(1, 0, 0, -1, 5.547, -97.192)"/>
<path fill="none" stroke-width="1.59404" stroke-linecap="butt" stroke-linejoin="miter" stroke="rgb(14.898682%, 54.499817%, 82.398987%)" stroke-opacity="1" stroke-miterlimit="10" d="M 240.683469 -356.137313 L 286.511594 -366.707625 " transform="matrix(1, 0, 0, -1, 5.547, -97.192)"/>
<g clip-path="url(#clip-8)">
<path fill="none" stroke-width="1.59404" stroke-linecap="butt" stroke-linejoin="miter" stroke="rgb(14.898682%, 54.499817%, 82.398987%)" stroke-opacity="1" stroke-miterlimit="10" d="M 308.10925 -391.922469 L 292.73425 -288.399031 " transform="matrix(1, 0, 0, -1, 5.547, -97.192)"/>
</g>
<path fill="none" stroke-width="1.59404" stroke-linecap="butt" stroke-linejoin="miter" stroke="rgb(14.898682%, 54.499817%, 82.398987%)" stroke-opacity="1" stroke-miterlimit="10" d="M 314.0155 -310.164656 L 371.867062 -285.117781 " transform="matrix(1, 0, 0, -1, 5.547, -97.192)"/>
<path fill="none" stroke-width="1.19553" stroke-linecap="butt" stroke-linejoin="miter" stroke="rgb(34.498596%, 43.099976%, 45.899963%)" stroke-opacity="1" stroke-miterlimit="10" d="M 314.0155 -395.207625 L 371.867062 -370.156844 " transform="matrix(1, 0, 0, -1, 5.547, -97.192)"/>
<path fill="none" stroke-width="1.19553" stroke-linecap="butt" stroke-linejoin="miter" stroke="rgb(34.498596%, 43.099976%, 45.899963%)" stroke-opacity="1" stroke-miterlimit="10" d="M 393.152219 -391.922469 L 377.773312 -288.399031 " transform="matrix(1, 0, 0, -1, 5.547, -97.192)"/>
<path fill="none" stroke-width="1.19553" stroke-linecap="butt" stroke-linejoin="miter" stroke="rgb(34.498596%, 43.099976%, 45.899963%)" stroke-opacity="1" stroke-miterlimit="10" d="M 311.757687 -392.641219 L 374.124875 -287.680281 " transform="matrix(1, 0, 0, -1, 5.547, -97.192)"/>
<path fill="none" stroke-width="1.59404" stroke-linecap="butt" stroke-linejoin="miter" stroke="rgb(14.898682%, 54.499817%, 82.398987%)" stroke-opacity="1" stroke-miterlimit="10" d="M 399.370969 -313.617781 L 445.199094 -324.184188 " transform="matrix(1, 0, 0, -1, 5.547, -97.192)"/>
<path fill="none" stroke-width="1.19553" stroke-linecap="butt" stroke-linejoin="miter" stroke="rgb(34.498596%, 43.099976%, 45.899963%)" stroke-opacity="1" stroke-miterlimit="10" d="M 397.398312 -393.051375 L 447.175656 -329.793563 " transform="matrix(1, 0, 0, -1, 5.547, -97.192)"/>
</svg>
