<?xml version="1.0" encoding="UTF-8"?>
<svg xmlns="http://www.w3.org/2000/svg" xmlns:xlink="http://www.w3.org/1999/xlink" width="217.48pt" height="134.56pt" viewBox="0 0 217.48 134.56">
<defs>
<g>
<g id="glyph-0-0">
<path d="M 5.046875 -4.25 C 5.046875 -4.9375 4.34375 -5.296875 3.59375 -5.296875 C 2.84375 -5.296875 2.296875 -5.078125 1.984375 -4.625 C 1.703125 -4.21875 1.5625 -3.859375 1.5625 -3.546875 C 1.5625 -2.90625 1.984375 -2.5 2.8125 -2.3125 C 3.15625 -2.25 3.421875 -2.171875 3.625 -2.078125 C 3.875 -1.96875 4 -1.765625 4 -1.46875 C 4 -1.265625 3.90625 -1.015625 3.703125 -0.75 C 3.4375 -0.390625 3 -0.21875 2.359375 -0.21875 C 1.71875 -0.21875 1.296875 -0.390625 1.109375 -0.75 C 1.484375 -0.734375 1.8125 -1.046875 1.8125 -1.421875 C 1.8125 -1.734375 1.65625 -1.890625 1.328125 -1.890625 C 0.90625 -1.890625 0.625 -1.484375 0.625 -1.0625 C 0.625 -0.265625 1.484375 0.125 2.359375 0.125 C 3.25 0.125 3.90625 -0.125 4.28125 -0.671875 C 4.609375 -1.109375 4.765625 -1.515625 4.765625 -1.875 C 4.765625 -2.390625 4.515625 -2.765625 4.015625 -3.03125 C 3.640625 -3.15625 3.359375 -3.234375 3.1875 -3.28125 C 2.765625 -3.390625 2.328125 -3.421875 2.328125 -3.9375 C 2.328125 -4.578125 2.921875 -4.953125 3.59375 -4.953125 C 4.109375 -4.953125 4.421875 -4.796875 4.578125 -4.5 C 4.3125 -4.453125 4.046875 -4.21875 4.046875 -3.921875 C 4.046875 -3.671875 4.171875 -3.546875 4.453125 -3.546875 C 4.828125 -3.546875 5.046875 -3.875 5.046875 -4.25 Z M 5.046875 -4.25 "/>
</g>
<g id="glyph-0-1">
<path d="M 4.421875 -4.6875 C 4.421875 -4.59375 4.53125 -4.4375 4.734375 -4.203125 C 4.921875 -3.953125 5.015625 -3.6875 5.015625 -3.375 C 5.015625 -3.03125 4.84375 -2.4375 4.5 -1.609375 C 4.25 -1.03125 3.671875 -0.21875 2.96875 -0.21875 C 2.40625 -0.21875 2.140625 -0.546875 2.140625 -1.203125 C 2.140625 -1.671875 2.359375 -2.5 2.8125 -3.6875 C 2.921875 -3.9375 2.96875 -4.140625 2.96875 -4.28125 C 2.96875 -4.890625 2.5625 -5.296875 1.953125 -5.296875 C 1.421875 -5.296875 1.015625 -5 0.703125 -4.40625 C 0.46875 -3.90625 0.34375 -3.59375 0.34375 -3.4375 C 0.34375 -3.34375 0.40625 -3.28125 0.546875 -3.28125 C 0.703125 -3.28125 0.71875 -3.34375 0.765625 -3.515625 C 1.046875 -4.46875 1.421875 -4.953125 1.921875 -4.953125 C 2.078125 -4.953125 2.15625 -4.84375 2.15625 -4.625 C 2.15625 -4.421875 2.09375 -4.15625 1.96875 -3.8125 C 1.53125 -2.625 1.296875 -1.828125 1.296875 -1.375 C 1.296875 -0.765625 1.5 -0.34375 1.90625 -0.125 C 2.234375 0.046875 2.5625 0.125 2.921875 0.125 C 3.984375 0.125 4.734375 -1.015625 5.046875 -1.9375 C 5.421875 -3.078125 5.609375 -3.90625 5.609375 -4.421875 C 5.609375 -5.015625 5.421875 -5.296875 5.046875 -5.296875 C 4.75 -5.296875 4.421875 -4.984375 4.421875 -4.6875 Z M 4.421875 -4.6875 "/>
</g>
<g id="glyph-0-2">
<path d="M 3.953125 -5.03125 C 3.953125 -5.140625 3.84375 -5.203125 3.59375 -5.203125 L 2.609375 -5.203125 C 2.921875 -6.4375 3.078125 -7.09375 3.078125 -7.140625 C 3.078125 -7.390625 2.953125 -7.515625 2.703125 -7.515625 C 2.421875 -7.515625 2.25 -7.359375 2.1875 -7.046875 L 1.734375 -5.203125 L 0.671875 -5.203125 C 0.40625 -5.203125 0.28125 -5.1875 0.28125 -4.9375 C 0.28125 -4.796875 0.390625 -4.734375 0.640625 -4.734375 L 1.625 -4.734375 C 1.03125 -2.40625 0.75 -1.15625 0.75 -1.015625 C 0.75 -0.34375 1.203125 0.125 1.875 0.125 C 2.328125 0.125 2.71875 -0.078125 3.078125 -0.484375 C 3.359375 -0.84375 3.5625 -1.171875 3.703125 -1.5 C 3.75 -1.625 3.765625 -1.703125 3.765625 -1.734375 C 3.765625 -1.84375 3.703125 -1.90625 3.59375 -1.90625 C 3.484375 -1.90625 3.421875 -1.84375 3.375 -1.71875 C 2.96875 -0.71875 2.46875 -0.234375 1.890625 -0.234375 C 1.6875 -0.234375 1.578125 -0.390625 1.578125 -0.71875 C 1.578125 -0.90625 1.59375 -1.09375 1.640625 -1.28125 L 2.5 -4.734375 L 3.5625 -4.734375 C 3.875 -4.734375 3.953125 -4.765625 3.953125 -5.03125 Z M 3.953125 -5.03125 "/>
</g>
<g id="glyph-0-3">
<path d="M 3.234375 -7.984375 C 2.734375 -7.484375 2.015625 -7.234375 1.0625 -7.234375 L 1.0625 -6.765625 C 1.6875 -6.765625 2.203125 -6.859375 2.609375 -7.0625 L 2.609375 -0.984375 C 2.609375 -0.765625 2.5625 -0.625 2.453125 -0.5625 C 2.34375 -0.5 2.046875 -0.46875 1.5625 -0.46875 L 1.140625 -0.46875 L 1.140625 0 C 1.4375 -0.03125 2.09375 -0.03125 3.078125 -0.03125 C 4.078125 -0.03125 4.734375 -0.03125 5.03125 0 L 5.03125 -0.46875 L 4.609375 -0.46875 C 4.109375 -0.46875 3.8125 -0.5 3.71875 -0.5625 C 3.625 -0.625 3.5625 -0.765625 3.5625 -0.984375 L 3.5625 -7.625 C 3.5625 -7.921875 3.546875 -7.984375 3.234375 -7.984375 Z M 3.234375 -7.984375 "/>
</g>
<g id="glyph-0-4">
<path d="M 2.84375 -7.984375 C 2.234375 -7.984375 1.71875 -7.78125 1.265625 -7.34375 C 0.828125 -6.90625 0.59375 -6.40625 0.59375 -5.796875 C 0.59375 -5.390625 0.90625 -5.09375 1.265625 -5.09375 C 1.625 -5.09375 1.9375 -5.40625 1.9375 -5.765625 C 1.9375 -6.15625 1.640625 -6.4375 1.265625 -6.4375 C 1.21875 -6.4375 1.203125 -6.4375 1.171875 -6.421875 C 1.40625 -7.015625 1.9375 -7.53125 2.6875 -7.53125 C 3.671875 -7.53125 4.21875 -6.671875 4.21875 -5.640625 C 4.21875 -4.84375 3.8125 -3.96875 3 -3.0625 L 0.75 -0.515625 C 0.59375 -0.34375 0.59375 -0.34375 0.59375 0 L 5.046875 0 L 5.40625 -2.15625 L 5 -2.15625 C 4.90625 -1.546875 4.828125 -1.203125 4.75 -1.09375 C 4.6875 -1.03125 4.328125 -1.015625 3.671875 -1.015625 L 1.671875 -1.015625 L 2.828125 -2.140625 C 3.640625 -2.921875 4.6875 -3.75 5.03125 -4.375 C 5.265625 -4.796875 5.390625 -5.21875 5.390625 -5.640625 C 5.390625 -7.0625 4.28125 -7.984375 2.84375 -7.984375 Z M 2.84375 -7.984375 "/>
</g>
<g id="glyph-0-5">
<path d="M 5.328125 -8.609375 C 5.34375 -8.640625 5.34375 -8.671875 5.34375 -8.71875 C 5.34375 -8.90625 5.25 -9 5.046875 -9 C 4.921875 -9 4.84375 -8.9375 4.78125 -8.8125 L 0.6875 2.609375 C 0.671875 2.640625 0.671875 2.671875 0.671875 2.71875 C 0.671875 2.90625 0.765625 3 0.953125 3 C 1.09375 3 1.171875 2.9375 1.21875 2.8125 Z M 5.328125 -8.609375 "/>
</g>
<g id="glyph-0-6">
<path d="M 4.234375 -8.125 C 4.125 -8.125 4.03125 -8.0625 3.953125 -7.953125 L 0.34375 -2.390625 L 0.34375 -1.953125 L 3.46875 -1.953125 L 3.46875 -0.96875 C 3.46875 -0.75 3.421875 -0.609375 3.34375 -0.546875 C 3.25 -0.484375 3.03125 -0.46875 2.625 -0.46875 L 2.328125 -0.46875 L 2.328125 0 C 2.671875 -0.03125 3.234375 -0.03125 3.96875 -0.03125 C 4.71875 -0.03125 5.265625 -0.03125 5.609375 0 L 5.609375 -0.46875 L 5.3125 -0.46875 C 4.921875 -0.46875 4.6875 -0.484375 4.609375 -0.546875 C 4.53125 -0.609375 4.46875 -0.75 4.46875 -0.96875 L 4.46875 -1.953125 L 5.65625 -1.953125 L 5.65625 -2.421875 L 4.46875 -2.421875 L 4.46875 -7.921875 C 4.46875 -8.046875 4.390625 -8.125 4.234375 -8.125 Z M 3.546875 -6.640625 L 3.546875 -2.421875 L 0.796875 -2.421875 Z M 3.546875 -6.640625 "/>
</g>
<g id="glyph-1-0">
<path d="M 2.421875 -5.296875 C 2.078125 -4.953125 1.5625 -4.796875 0.875 -4.796875 L 0.875 -4.4375 C 1.34375 -4.4375 1.71875 -4.515625 2 -4.640625 L 2 -0.671875 C 2 -0.578125 1.984375 -0.515625 1.96875 -0.484375 C 1.921875 -0.390625 1.6875 -0.34375 1.25 -0.34375 L 0.921875 -0.34375 L 0.921875 0 L 2.34375 -0.03125 L 3.765625 0 L 3.765625 -0.34375 L 3.4375 -0.34375 C 3 -0.34375 2.765625 -0.390625 2.71875 -0.484375 C 2.703125 -0.515625 2.6875 -0.578125 2.6875 -0.671875 L 2.6875 -5.03125 C 2.6875 -5.25 2.65625 -5.296875 2.421875 -5.296875 Z M 2.421875 -5.296875 "/>
</g>
<g id="glyph-1-1">
<path d="M 0.953125 -3.375 C 1.203125 -3.375 1.390625 -3.5625 1.390625 -3.828125 C 1.390625 -4.109375 1.25 -4.265625 0.953125 -4.265625 C 1.125 -4.640625 1.515625 -4.953125 2.046875 -4.953125 C 2.734375 -4.953125 3.203125 -4.421875 3.203125 -3.71875 C 3.203125 -3.34375 3.0625 -2.96875 2.78125 -2.609375 C 2.65625 -2.4375 2.546875 -2.296875 2.484375 -2.234375 L 0.59375 -0.359375 C 0.484375 -0.265625 0.5 -0.234375 0.5 0 L 3.78125 0 L 4.03125 -1.5 L 3.703125 -1.5 C 3.640625 -1.078125 3.578125 -0.828125 3.5 -0.765625 C 3.46875 -0.75 3.21875 -0.734375 2.75 -0.734375 L 1.390625 -0.734375 C 1.921875 -1.203125 2.421875 -1.625 2.890625 -2 C 3.25 -2.28125 3.5 -2.53125 3.671875 -2.734375 C 3.90625 -3.046875 4.03125 -3.375 4.03125 -3.71875 C 4.03125 -4.21875 3.828125 -4.609375 3.4375 -4.890625 C 3.09375 -5.15625 2.671875 -5.296875 2.15625 -5.296875 C 1.71875 -5.296875 1.34375 -5.15625 1.015625 -4.90625 C 0.671875 -4.625 0.5 -4.28125 0.5 -3.84375 C 0.5 -3.578125 0.703125 -3.375 0.953125 -3.375 Z M 0.953125 -3.375 "/>
</g>
<g id="glyph-1-2">
<path d="M 2.8125 -2.8125 C 3.34375 -3.03125 3.859375 -3.5 3.859375 -4.171875 C 3.859375 -4.53125 3.671875 -4.828125 3.296875 -5.03125 C 2.984375 -5.203125 2.625 -5.296875 2.234375 -5.296875 C 1.84375 -5.296875 1.5 -5.21875 1.21875 -5.046875 C 0.859375 -4.84375 0.671875 -4.5625 0.671875 -4.203125 C 0.671875 -3.90625 0.828125 -3.75 1.109375 -3.75 C 1.359375 -3.75 1.546875 -3.9375 1.546875 -4.1875 C 1.546875 -4.4375 1.421875 -4.578125 1.171875 -4.625 C 1.40625 -4.875 1.75 -5 2.21875 -5 C 2.734375 -5 3.03125 -4.6875 3.03125 -4.171875 C 3.03125 -3.796875 2.921875 -3.5 2.71875 -3.265625 C 2.5 -3 2.34375 -2.953125 1.875 -2.921875 C 1.671875 -2.90625 1.515625 -2.9375 1.515625 -2.765625 C 1.515625 -2.671875 1.609375 -2.625 1.75 -2.625 L 2.171875 -2.625 C 2.859375 -2.625 3.203125 -2.109375 3.203125 -1.390625 C 3.203125 -0.6875 2.875 -0.15625 2.203125 -0.15625 C 1.625 -0.15625 1.203125 -0.3125 0.9375 -0.640625 C 1.21875 -0.671875 1.359375 -0.84375 1.359375 -1.109375 C 1.359375 -1.375 1.15625 -1.578125 0.90625 -1.578125 C 0.59375 -1.578125 0.4375 -1.421875 0.4375 -1.09375 C 0.4375 -0.6875 0.640625 -0.359375 1.046875 -0.125 C 1.390625 0.0625 1.78125 0.15625 2.21875 0.15625 C 2.703125 0.15625 3.125 0.03125 3.5 -0.25 C 3.890625 -0.546875 4.09375 -0.921875 4.09375 -1.390625 C 4.09375 -2.140625 3.453125 -2.640625 2.8125 -2.8125 Z M 2.8125 -2.8125 "/>
</g>
<g id="glyph-1-3">
<path d="M 3.140625 -5.375 C 3.046875 -5.375 2.96875 -5.328125 2.90625 -5.25 L 0.3125 -1.625 L 0.3125 -1.296875 L 2.609375 -1.296875 L 2.609375 -0.671875 C 2.609375 -0.546875 2.59375 -0.453125 2.53125 -0.40625 C 2.484375 -0.359375 2.296875 -0.34375 2.015625 -0.34375 L 1.765625 -0.34375 L 1.765625 0 L 2.96875 -0.03125 L 4.1875 0 L 4.1875 -0.34375 L 3.953125 -0.34375 C 3.65625 -0.34375 3.484375 -0.359375 3.421875 -0.40625 C 3.375 -0.453125 3.34375 -0.546875 3.34375 -0.671875 L 3.34375 -1.296875 L 4.21875 -1.296875 L 4.21875 -1.640625 L 3.34375 -1.640625 L 3.34375 -5.109375 C 3.34375 -5.3125 3.328125 -5.375 3.140625 -5.375 Z M 2.671875 -4.390625 L 2.671875 -1.640625 L 0.6875 -1.640625 Z M 2.671875 -4.390625 "/>
</g>
<g id="glyph-2-0">
<path d="M -1.1875 -8.53125 C -1.359375 -7.84375 -1.859375 -7.265625 -2.6875 -6.796875 L -2.453125 -6.390625 C -1.90625 -6.703125 -1.515625 -7.03125 -1.265625 -7.40625 L 1.78125 -2.15625 C 1.890625 -1.953125 1.90625 -1.828125 1.84375 -1.703125 C 1.78125 -1.609375 1.53125 -1.421875 1.125 -1.1875 L 0.75 -0.96875 L 0.984375 -0.5625 C 1.234375 -0.75 1.796875 -1.078125 2.65625 -1.5625 C 3.515625 -2.0625 4.078125 -2.390625 4.359375 -2.515625 L 4.125 -2.921875 L 3.75 -2.703125 C 3.328125 -2.453125 3.046875 -2.34375 2.9375 -2.34375 C 2.828125 -2.359375 2.703125 -2.4375 2.59375 -2.640625 L -0.734375 -8.390625 C -0.875 -8.640625 -0.90625 -8.6875 -1.1875 -8.53125 Z M -1.1875 -8.53125 "/>
</g>
<g id="glyph-2-1">
<path d="M 0.3125 -10.109375 C 0.3125 -10.15625 0.296875 -10.1875 0.265625 -10.21875 C 0.171875 -10.390625 0.046875 -10.421875 -0.125 -10.3125 C -0.234375 -10.25 -0.28125 -10.15625 -0.265625 -10.015625 L 1.890625 1.921875 C 1.890625 1.953125 1.90625 1.984375 1.9375 2.03125 C 2.03125 2.1875 2.15625 2.21875 2.328125 2.125 C 2.453125 2.046875 2.484375 1.96875 2.46875 1.828125 Z M 0.3125 -10.109375 "/>
</g>
<g id="glyph-2-2">
<path d="M 0.96875 -7.53125 C 1.296875 -7.71875 1.375 -8 1.171875 -8.359375 C 0.734375 -9.109375 -0.0625 -9.1875 -0.828125 -8.734375 C -1.6875 -8.25 -2.15625 -7.4375 -2.1875 -6.328125 C -2.21875 -5.375 -1.984375 -4.4375 -1.453125 -3.53125 C -0.6875 -2.21875 0.078125 -1.4375 0.875 -1.15625 C 1.578125 -0.921875 2.1875 -0.953125 2.734375 -1.265625 C 3.375 -1.640625 3.765625 -2.1875 3.890625 -2.890625 C 4 -3.578125 3.890625 -4.234375 3.53125 -4.859375 C 3.15625 -5.5 2.65625 -5.921875 2.03125 -6.171875 C 1.34375 -6.421875 0.703125 -6.375 0.09375 -6.015625 C -0.453125 -5.703125 -0.6875 -5.171875 -0.640625 -4.421875 L -0.671875 -4.484375 C -1.34375 -5.65625 -1.640625 -6.8125 -1.265625 -7.65625 C -1.109375 -8 -0.90625 -8.25 -0.609375 -8.40625 C -0.234375 -8.625 0.09375 -8.671875 0.390625 -8.5625 C 0.046875 -8.359375 -0.015625 -8.0625 0.171875 -7.75 C 0.34375 -7.453125 0.671875 -7.359375 0.96875 -7.53125 Z M 1.546875 -5.59375 C 1.796875 -5.40625 2.125 -4.984375 2.515625 -4.296875 C 2.90625 -3.625 3.109375 -3.140625 3.125 -2.84375 C 3.1875 -2.3125 2.984375 -1.921875 2.53125 -1.65625 C 2.21875 -1.484375 1.9375 -1.453125 1.640625 -1.546875 C 1.40625 -1.640625 1.234375 -1.734375 1.140625 -1.8125 C 0.828125 -2.078125 0.5 -2.53125 0.109375 -3.203125 C -0.0625 -3.5 -0.1875 -3.796875 -0.28125 -4.109375 C -0.421875 -4.671875 -0.3125 -5.34375 0.28125 -5.671875 C 0.6875 -5.90625 1.125 -5.890625 1.546875 -5.59375 Z M 1.546875 -5.59375 "/>
</g>
<g id="glyph-2-3">
<path d="M -0.390625 -9.140625 C -0.484375 -9.09375 -0.546875 -9 -0.546875 -8.859375 L -0.890625 -2.25 L -0.671875 -1.859375 L 2.03125 -3.421875 L 2.515625 -2.578125 C 2.625 -2.390625 2.671875 -2.234375 2.625 -2.140625 C 2.578125 -2.046875 2.390625 -1.921875 2.03125 -1.71875 L 1.78125 -1.5625 L 2.015625 -1.15625 C 2.296875 -1.359375 2.78125 -1.640625 3.421875 -2.015625 C 4.078125 -2.390625 4.546875 -2.65625 4.859375 -2.796875 L 4.625 -3.203125 L 4.359375 -3.0625 C 4.03125 -2.859375 3.828125 -2.765625 3.71875 -2.765625 C 3.625 -2.796875 3.5 -2.890625 3.390625 -3.078125 L 2.90625 -3.921875 L 3.9375 -4.515625 L 3.703125 -4.921875 L 2.671875 -4.328125 L -0.078125 -9.09375 C -0.140625 -9.203125 -0.265625 -9.21875 -0.390625 -9.140625 Z M -0.234375 -7.515625 L 1.875 -3.859375 L -0.515625 -2.484375 Z M -0.234375 -7.515625 "/>
</g>
<g id="glyph-3-0">
<path d="M 6.578125 -5.421875 C 6.0625 -5.71875 5.53125 -5.8125 4.96875 -5.6875 C 4.40625 -5.578125 3.96875 -5.265625 3.6875 -4.765625 C 3.4375 -4.328125 3.375 -3.859375 3.484375 -3.328125 C 3.515625 -3.203125 3.625 -2.90625 3.859375 -2.421875 C 2.640625 -2.453125 1.796875 -2.109375 1.359375 -1.34375 C 1.03125 -0.796875 1 -0.21875 1.25 0.390625 C 1.5 0.9375 1.890625 1.390625 2.453125 1.71875 C 3.046875 2.0625 3.671875 2.171875 4.28125 2.015625 C 4.9375 1.90625 5.4375 1.546875 5.765625 0.96875 C 6.046875 0.484375 6.125 -0.03125 6 -0.625 C 5.953125 -0.8125 5.75 -1.234375 5.4375 -1.859375 C 6.5 -1.828125 7.203125 -2.140625 7.578125 -2.78125 C 8.109375 -3.71875 7.5625 -4.859375 6.578125 -5.421875 Z M 7.03125 -3.09375 C 6.71875 -2.546875 6.109375 -2.265625 5.265625 -2.25 L 4.484375 -3.78125 C 4.28125 -4.171875 4.28125 -4.53125 4.46875 -4.859375 C 4.828125 -5.484375 5.71875 -5.46875 6.375 -5.09375 C 7.09375 -4.671875 7.4375 -3.8125 7.03125 -3.09375 Z M 2.671875 1.34375 C 1.828125 0.84375 1.46875 -0.15625 1.953125 -1 C 2.34375 -1.6875 3.046875 -2.03125 4.0625 -2.03125 L 4.84375 -0.515625 C 5.15625 0.078125 5.203125 0.578125 4.953125 1 C 4.53125 1.734375 3.46875 1.796875 2.671875 1.34375 Z M 2.671875 1.34375 "/>
</g>
<g id="glyph-3-1">
<path d="M 8.90625 -4.796875 C 8.9375 -4.8125 8.953125 -4.84375 8.984375 -4.875 C 9.078125 -5.046875 9.046875 -5.171875 8.875 -5.28125 C 8.765625 -5.34375 8.65625 -5.3125 8.546875 -5.234375 L -0.703125 2.609375 C -0.734375 2.609375 -0.75 2.640625 -0.78125 2.6875 C -0.875 2.84375 -0.84375 2.96875 -0.671875 3.0625 C -0.546875 3.140625 -0.453125 3.125 -0.34375 3.046875 Z M 8.90625 -4.796875 "/>
</g>
<g id="glyph-3-2">
<path d="M 6.78125 -5.3125 C 6.109375 -5.125 5.359375 -5.265625 4.53125 -5.734375 L 4.296875 -5.328125 C 4.84375 -5.015625 5.328125 -4.84375 5.796875 -4.8125 L 2.75 0.4375 C 2.640625 0.640625 2.53125 0.734375 2.40625 0.734375 C 2.28125 0.734375 2 0.609375 1.59375 0.375 L 1.21875 0.15625 L 0.984375 0.5625 C 1.265625 0.6875 1.828125 1.015625 2.6875 1.5 C 3.546875 2 4.109375 2.328125 4.359375 2.515625 L 4.59375 2.109375 L 4.21875 1.890625 C 3.796875 1.640625 3.546875 1.46875 3.5 1.375 C 3.453125 1.265625 3.453125 1.125 3.5625 0.921875 L 6.890625 -4.828125 C 7.03125 -5.078125 7.0625 -5.15625 6.78125 -5.3125 Z M 6.78125 -5.3125 "/>
</g>
<g id="glyph-3-3">
<path d="M 5.265625 -1.859375 C 6.09375 -1.71875 7.125 -2.015625 7.640625 -2.890625 C 7.890625 -3.328125 7.890625 -3.828125 7.609375 -4.359375 C 7.390625 -4.796875 7.015625 -5.171875 6.546875 -5.453125 C 6.0625 -5.71875 5.59375 -5.828125 5.109375 -5.796875 C 4.546875 -5.765625 4.125 -5.53125 3.875 -5.09375 C 3.671875 -4.734375 3.765625 -4.375 4.09375 -4.171875 C 4.421875 -3.984375 4.796875 -4.09375 4.984375 -4.4375 C 5.1875 -4.765625 5.109375 -5.078125 4.703125 -5.3125 C 5.1875 -5.53125 5.734375 -5.46875 6.3125 -5.125 C 6.9375 -4.765625 7.03125 -4.234375 6.609375 -3.5 C 6.359375 -3.046875 6.078125 -2.75 5.71875 -2.53125 C 5.171875 -2.1875 4.734375 -2.3125 4.09375 -2.6875 C 3.9375 -2.75 3.859375 -2.71875 3.796875 -2.625 C 3.71875 -2.484375 3.78125 -2.4375 3.984375 -2.328125 L 4.4375 -2.0625 C 5.21875 -1.609375 5.28125 -0.828125 4.640625 0.28125 C 4.140625 1.15625 3.359375 1.734375 2.578125 1.28125 C 1.90625 0.890625 1.546875 0.390625 1.5 -0.234375 C 1.859375 -0.03125 2.296875 -0.140625 2.5 -0.5 C 2.703125 -0.84375 2.59375 -1.25 2.25 -1.453125 C 1.84375 -1.6875 1.5 -1.609375 1.25 -1.171875 C 0.96875 -0.671875 0.953125 -0.140625 1.234375 0.453125 C 1.484375 0.96875 1.875 1.390625 2.40625 1.6875 C 3 2.03125 3.625 2.125 4.296875 2 C 4.953125 1.859375 5.453125 1.515625 5.78125 0.9375 C 6.34375 -0.046875 5.96875 -1.15625 5.265625 -1.859375 Z M 5.265625 -1.859375 "/>
</g>
<g id="glyph-3-4">
<path d="M 3.125 -2.578125 C 3.15625 -2.546875 3.25 -2.546875 3.34375 -2.59375 C 3.921875 -2.875 4.484375 -2.875 5.03125 -2.5625 C 5.390625 -2.34375 5.546875 -1.96875 5.484375 -1.4375 C 5.4375 -1.09375 5.265625 -0.625 4.9375 -0.046875 C 4.5625 0.609375 4.203125 1.015625 3.890625 1.203125 C 3.390625 1.46875 2.90625 1.46875 2.453125 1.21875 C 1.75 0.8125 1.515625 0 1.640625 -0.640625 C 1.640625 -0.609375 1.6875 -0.609375 1.734375 -0.59375 C 2.046875 -0.40625 2.421875 -0.5 2.609375 -0.8125 C 2.796875 -1.140625 2.671875 -1.484375 2.359375 -1.671875 C 1.984375 -1.875 1.71875 -1.78125 1.484375 -1.390625 C 0.890625 -0.359375 1.234375 1.015625 2.265625 1.609375 C 2.90625 1.984375 3.578125 2.0625 4.265625 1.859375 C 4.984375 1.640625 5.515625 1.21875 5.875 0.59375 C 6.234375 -0.015625 6.359375 -0.625 6.25 -1.28125 C 6.140625 -2 5.8125 -2.5 5.21875 -2.84375 C 4.734375 -3.125 4.203125 -3.21875 3.703125 -3.09375 L 4.765625 -4.953125 C 5 -4.71875 5.25 -4.515625 5.53125 -4.359375 C 6.015625 -4.078125 6.484375 -3.953125 6.984375 -3.984375 C 7.40625 -4 7.75 -4.0625 7.984375 -4.1875 C 8.078125 -4.234375 8.171875 -4.265625 8.1875 -4.296875 C 8.25 -4.40625 8.203125 -4.484375 8.09375 -4.546875 C 7.40625 -4.65625 6.859375 -4.828125 6.46875 -5.0625 C 5.984375 -5.328125 5.609375 -5.6875 5.296875 -6.109375 C 5.25 -6.171875 5.21875 -6.21875 5.171875 -6.234375 C 5.078125 -6.296875 4.984375 -6.21875 4.859375 -6.015625 L 3.109375 -2.984375 C 2.984375 -2.78125 2.9375 -2.6875 3.125 -2.578125 Z M 3.125 -2.578125 "/>
</g>
<g id="glyph-3-5">
<path d="M 6.453125 -5.5 C 5.921875 -5.8125 5.375 -5.875 4.765625 -5.734375 C 4.171875 -5.578125 3.71875 -5.25 3.40625 -4.71875 C 3.203125 -4.375 3.328125 -3.953125 3.640625 -3.78125 C 3.953125 -3.59375 4.375 -3.71875 4.546875 -4.03125 C 4.75 -4.359375 4.640625 -4.765625 4.3125 -4.953125 C 4.28125 -4.96875 4.265625 -4.984375 4.21875 -4.984375 C 4.71875 -5.375 5.4375 -5.546875 6.09375 -5.171875 C 6.953125 -4.6875 6.984375 -3.671875 6.46875 -2.78125 C 6.078125 -2.078125 5.28125 -1.53125 4.125 -1.15625 L 0.90625 -0.078125 C 0.6875 0 0.6875 0 0.515625 0.296875 L 4.375 2.515625 L 5.765625 0.828125 L 5.40625 0.625 C 5.015625 1.109375 4.78125 1.359375 4.65625 1.421875 C 4.578125 1.453125 4.25 1.28125 3.6875 0.953125 L 1.953125 -0.046875 L 3.515625 -0.453125 C 4.609375 -0.71875 5.9375 -0.90625 6.546875 -1.265625 C 6.953125 -1.53125 7.28125 -1.828125 7.484375 -2.203125 C 8.203125 -3.421875 7.6875 -4.78125 6.453125 -5.5 Z M 6.453125 -5.5 "/>
</g>
<g id="glyph-3-6">
<path d="M 2.453125 1.71875 C 3.9375 2.578125 5.328125 1.796875 6.703125 -0.578125 C 7.609375 -2.15625 7.90625 -3.421875 7.53125 -4.3125 C 7.328125 -4.8125 7 -5.1875 6.578125 -5.421875 C 5.125 -6.265625 3.703125 -5.484375 2.328125 -3.09375 C 1.21875 -1.171875 0.796875 0.765625 2.453125 1.71875 Z M 6.890625 -3.28125 C 6.765625 -2.890625 6.40625 -2.1875 5.84375 -1.234375 C 5.296875 -0.265625 4.84375 0.421875 4.5 0.828125 C 3.875 1.578125 3.265625 1.78125 2.625 1.40625 C 2.40625 1.28125 2.203125 1.046875 2.09375 0.734375 C 1.953125 0.328125 2.078125 -0.25 2.40625 -1.046875 C 2.546875 -1.3125 2.84375 -1.859375 3.3125 -2.6875 C 3.84375 -3.59375 4.234375 -4.21875 4.484375 -4.515625 C 4.90625 -5.046875 5.296875 -5.296875 5.6875 -5.28125 C 6 -5.265625 6.21875 -5.21875 6.390625 -5.125 C 7.078125 -4.734375 7.140625 -3.96875 6.890625 -3.28125 Z M 6.890625 -3.28125 "/>
</g>
<g id="glyph-4-0">
<path d="M -7.984375 -3.234375 C -7.484375 -2.734375 -7.234375 -2.015625 -7.234375 -1.0625 L -6.765625 -1.0625 C -6.765625 -1.6875 -6.859375 -2.203125 -7.0625 -2.609375 L -0.984375 -2.609375 C -0.765625 -2.609375 -0.625 -2.5625 -0.5625 -2.453125 C -0.5 -2.34375 -0.46875 -2.046875 -0.46875 -1.5625 L -0.46875 -1.140625 L 0 -1.140625 C -0.03125 -1.4375 -0.03125 -2.09375 -0.03125 -3.078125 C -0.03125 -4.078125 -0.03125 -4.734375 0 -5.03125 L -0.46875 -5.03125 L -0.46875 -4.609375 C -0.46875 -4.109375 -0.5 -3.8125 -0.5625 -3.71875 C -0.625 -3.625 -0.765625 -3.5625 -0.984375 -3.5625 L -7.625 -3.5625 C -7.921875 -3.5625 -7.984375 -3.546875 -7.984375 -3.234375 Z M -7.984375 -3.234375 "/>
</g>
<g id="glyph-4-1">
<path d="M -8.609375 -5.328125 C -8.640625 -5.34375 -8.671875 -5.34375 -8.71875 -5.34375 C -8.90625 -5.34375 -9 -5.25 -9 -5.046875 C -9 -4.921875 -8.9375 -4.84375 -8.8125 -4.78125 L 2.609375 -0.6875 C 2.640625 -0.671875 2.671875 -0.671875 2.71875 -0.671875 C 2.90625 -0.671875 3 -0.765625 3 -0.953125 C 3 -1.09375 2.9375 -1.171875 2.8125 -1.21875 Z M -8.609375 -5.328125 "/>
</g>
<g id="glyph-4-2">
<path d="M -8.125 -4.234375 C -8.125 -4.125 -8.0625 -4.03125 -7.953125 -3.953125 L -2.390625 -0.34375 L -1.953125 -0.34375 L -1.953125 -3.46875 L -0.96875 -3.46875 C -0.75 -3.46875 -0.609375 -3.421875 -0.546875 -3.34375 C -0.484375 -3.25 -0.46875 -3.03125 -0.46875 -2.625 L -0.46875 -2.328125 L 0 -2.328125 C -0.03125 -2.671875 -0.03125 -3.234375 -0.03125 -3.96875 C -0.03125 -4.71875 -0.03125 -5.265625 0 -5.609375 L -0.46875 -5.609375 L -0.46875 -5.3125 C -0.46875 -4.921875 -0.484375 -4.6875 -0.546875 -4.609375 C -0.609375 -4.53125 -0.75 -4.46875 -0.96875 -4.46875 L -1.953125 -4.46875 L -1.953125 -5.65625 L -2.421875 -5.65625 L -2.421875 -4.46875 L -7.921875 -4.46875 C -8.046875 -4.46875 -8.125 -4.390625 -8.125 -4.234375 Z M -6.640625 -3.546875 L -2.421875 -3.546875 L -2.421875 -0.796875 Z M -6.640625 -3.546875 "/>
</g>
<g id="glyph-4-3">
<path d="M -7.25 -5.703125 C -7.359375 -5.78125 -7.515625 -5.8125 -7.734375 -5.8125 L -7.734375 -2.921875 C -7.734375 -2.09375 -7.78125 -1.625 -7.890625 -1.53125 C -7.921875 -1.5 -8 -1.46875 -8.109375 -1.4375 L -8.109375 -1.0625 L -5.5625 -0.65625 L -5.5625 -1.0625 C -6.234375 -1.171875 -6.59375 -1.265625 -6.65625 -1.34375 C -6.703125 -1.375 -6.71875 -1.75 -6.71875 -2.453125 L -6.71875 -4.8125 L -4.921875 -3.546875 C -3.546875 -2.5625 -2.046875 -2.09375 -0.4375 -2.09375 C 0.03125 -2.09375 0.265625 -2.28125 0.265625 -2.671875 C 0.265625 -3.078125 0.03125 -3.265625 -0.4375 -3.265625 L -1.046875 -3.265625 C -2.875 -3.265625 -4.1875 -3.546875 -4.984375 -4.109375 Z M -7.25 -5.703125 "/>
</g>
<g id="glyph-5-0">
<path d="M -2.75 -8.75 C -2.828125 -8.671875 -2.859375 -8.546875 -2.828125 -8.421875 L -1.4375 -1.9375 L -1.125 -1.625 L 1.078125 -3.828125 L 1.765625 -3.140625 C 1.921875 -2.984375 1.984375 -2.859375 1.96875 -2.75 C 1.953125 -2.640625 1.8125 -2.46875 1.53125 -2.1875 L 1.3125 -1.96875 L 1.640625 -1.640625 C 1.875 -1.90625 2.265625 -2.296875 2.796875 -2.828125 C 3.328125 -3.359375 3.703125 -3.734375 3.96875 -3.96875 L 3.640625 -4.296875 L 3.421875 -4.078125 C 3.15625 -3.8125 2.96875 -3.65625 2.875 -3.65625 C 2.765625 -3.640625 2.625 -3.6875 2.46875 -3.84375 L 1.78125 -4.53125 L 2.625 -5.375 L 2.28125 -5.71875 L 1.4375 -4.875 L -2.4375 -8.75 C -2.53125 -8.84375 -2.640625 -8.859375 -2.75 -8.75 Z M -2.1875 -7.21875 L 0.796875 -4.234375 L -1.15625 -2.28125 Z M -2.1875 -7.21875 "/>
</g>
<g id="glyph-5-1">
<path d="M -2.328125 -9.859375 C -2.328125 -9.890625 -2.34375 -9.90625 -2.390625 -9.953125 C -2.515625 -10.078125 -2.640625 -10.078125 -2.796875 -9.921875 C -2.875 -9.84375 -2.890625 -9.734375 -2.859375 -9.609375 L 2.328125 1.359375 C 2.328125 1.390625 2.359375 1.421875 2.390625 1.453125 C 2.53125 1.59375 2.671875 1.578125 2.796875 1.453125 C 2.890625 1.359375 2.90625 1.25 2.84375 1.125 Z M -2.328125 -9.859375 "/>
</g>
<g id="glyph-5-2">
<path d="M -0.203125 -2.171875 C -0.484375 -1.890625 -0.46875 -1.59375 -0.1875 -1.3125 C 0.4375 -0.6875 1.265625 -0.890625 1.9375 -1.5625 C 2.625 -2.25 2.828125 -3.140625 2.53125 -4.21875 C 2.3125 -5.125 1.8125 -5.9375 1.078125 -6.671875 C 0.015625 -7.734375 -0.953125 -8.296875 -1.78125 -8.375 C -2.5 -8.4375 -3.0625 -8.21875 -3.5 -7.78125 C -4 -7.28125 -4.25 -6.6875 -4.21875 -6 C -4.203125 -5.265625 -3.90625 -4.625 -3.375 -4.09375 C -2.859375 -3.578125 -2.25 -3.28125 -1.59375 -3.21875 C -0.875 -3.15625 -0.265625 -3.390625 0.234375 -3.890625 C 0.671875 -4.328125 0.78125 -4.90625 0.515625 -5.609375 L 0.625 -5.5 C 1.5625 -4.5625 2.03125 -3.78125 2.046875 -3.109375 C 2.0625 -2.5625 1.90625 -2.15625 1.625 -1.875 C 1.28125 -1.53125 0.953125 -1.359375 0.640625 -1.359375 C 0.90625 -1.625 0.890625 -1.921875 0.640625 -2.171875 C 0.40625 -2.40625 0.03125 -2.40625 -0.203125 -2.171875 Z M -0.03125 -4.15625 C -0.359375 -3.828125 -0.765625 -3.734375 -1.28125 -3.90625 C -1.578125 -4.015625 -2 -4.34375 -2.546875 -4.890625 C -3.109375 -5.453125 -3.4375 -5.875 -3.515625 -6.203125 C -3.671875 -6.734375 -3.578125 -7.171875 -3.234375 -7.515625 C -2.875 -7.875 -2.40625 -7.90625 -1.828125 -7.640625 C -1.5 -7.5 -1.046875 -7.171875 -0.5 -6.625 C 0.234375 -5.890625 0.640625 -4.828125 -0.03125 -4.15625 Z M -0.03125 -4.15625 "/>
</g>
</g>
<clipPath id="clip-0">
<path clip-rule="nonzero" d="M 177 39 L 217.480469 39 L 217.480469 96 L 177 96 Z M 177 39 "/>
</clipPath>
</defs>
<path fill-rule="nonzero" fill="rgb(93.331909%, 90.979004%, 83.529663%)" fill-opacity="1" stroke-width="1.19553" stroke-linecap="butt" stroke-linejoin="miter" stroke="rgb(34.510803%, 43.136597%, 45.881653%)" stroke-opacity="1" stroke-miterlimit="10" d="M 11.337438 0.00075 C 11.337438 6.262469 6.263219 11.340594 0.0015 11.340594 C -6.264125 11.340594 -11.338344 6.262469 -11.338344 0.00075 C -11.338344 -6.260969 -6.264125 -11.339094 0.0015 -11.339094 C 6.263219 -11.339094 11.337438 -6.260969 11.337438 0.00075 Z M 11.337438 0.00075 " transform="matrix(1, 0, 0, -1, 11.936, 67.282)"/>
<g fill="rgb(82.699585%, 21.199036%, 50.999451%)" fill-opacity="1">
<use xlink:href="#glyph-0-0" x="9.122" y="69.868"/>
</g>
<path fill-rule="nonzero" fill="rgb(93.331909%, 90.979004%, 83.529663%)" fill-opacity="1" stroke-width="1.19553" stroke-linecap="butt" stroke-linejoin="miter" stroke="rgb(34.510803%, 43.136597%, 45.881653%)" stroke-opacity="1" stroke-miterlimit="10" d="M 73.091344 35.434344 C 73.091344 41.907 67.84525 47.153094 61.372594 47.153094 C 54.899938 47.153094 49.653844 41.907 49.653844 35.434344 C 49.653844 28.961688 54.899938 23.715594 61.372594 23.715594 C 67.84525 23.715594 73.091344 28.961688 73.091344 35.434344 Z M 73.091344 35.434344 " transform="matrix(1, 0, 0, -1, 11.936, 67.282)"/>
<g fill="rgb(82.699585%, 21.199036%, 50.999451%)" fill-opacity="1">
<use xlink:href="#glyph-0-1" x="67.882" y="33.018"/>
</g>
<g fill="rgb(82.699585%, 21.199036%, 50.999451%)" fill-opacity="1">
<use xlink:href="#glyph-1-0" x="73.702" y="35.982"/>
</g>
<path fill-rule="nonzero" fill="rgb(93.331909%, 90.979004%, 83.529663%)" fill-opacity="1" stroke-width="1.19553" stroke-linecap="butt" stroke-linejoin="miter" stroke="rgb(34.510803%, 43.136597%, 45.881653%)" stroke-opacity="1" stroke-miterlimit="10" d="M 73.091344 -35.432844 C 73.091344 -28.960187 67.84525 -23.714094 61.372594 -23.714094 C 54.899938 -23.714094 49.653844 -28.960187 49.653844 -35.432844 C 49.653844 -41.9055 54.899938 -47.151594 61.372594 -47.151594 C 67.84525 -47.151594 73.091344 -41.9055 73.091344 -35.432844 Z M 73.091344 -35.432844 " transform="matrix(1, 0, 0, -1, 11.936, 67.282)"/>
<g fill="rgb(82.699585%, 21.199036%, 50.999451%)" fill-opacity="1">
<use xlink:href="#glyph-0-1" x="67.882" y="103.885"/>
</g>
<g fill="rgb(82.699585%, 21.199036%, 50.999451%)" fill-opacity="1">
<use xlink:href="#glyph-1-1" x="73.702" y="106.849"/>
</g>
<path fill-rule="nonzero" fill="rgb(93.331909%, 90.979004%, 83.529663%)" fill-opacity="1" stroke-width="1.19553" stroke-linecap="butt" stroke-linejoin="miter" stroke="rgb(34.510803%, 43.136597%, 45.881653%)" stroke-opacity="1" stroke-miterlimit="10" d="M 144.017125 35.434344 C 144.017125 41.93825 138.743687 47.211688 132.239781 47.211688 C 125.735875 47.211688 120.462437 41.93825 120.462437 35.434344 C 120.462437 28.926531 125.735875 23.653094 132.239781 23.653094 C 138.743687 23.653094 144.017125 28.926531 144.017125 35.434344 Z M 144.017125 35.434344 " transform="matrix(1, 0, 0, -1, 11.936, 67.282)"/>
<g fill="rgb(82.699585%, 21.199036%, 50.999451%)" fill-opacity="1">
<use xlink:href="#glyph-0-1" x="138.749" y="32.939"/>
</g>
<g fill="rgb(82.699585%, 21.199036%, 50.999451%)" fill-opacity="1">
<use xlink:href="#glyph-1-2" x="144.569" y="35.903"/>
</g>
<path fill-rule="nonzero" fill="rgb(93.331909%, 90.979004%, 83.529663%)" fill-opacity="1" stroke-width="1.19553" stroke-linecap="butt" stroke-linejoin="miter" stroke="rgb(34.510803%, 43.136597%, 45.881653%)" stroke-opacity="1" stroke-miterlimit="10" d="M 143.958531 -35.432844 C 143.958531 -28.960187 138.712437 -23.714094 132.239781 -23.714094 C 125.767125 -23.714094 120.521031 -28.960187 120.521031 -35.432844 C 120.521031 -41.9055 125.767125 -47.151594 132.239781 -47.151594 C 138.712437 -47.151594 143.958531 -41.9055 143.958531 -35.432844 Z M 143.958531 -35.432844 " transform="matrix(1, 0, 0, -1, 11.936, 67.282)"/>
<g fill="rgb(82.699585%, 21.199036%, 50.999451%)" fill-opacity="1">
<use xlink:href="#glyph-0-1" x="138.749" y="103.885"/>
</g>
<g fill="rgb(82.699585%, 21.199036%, 50.999451%)" fill-opacity="1">
<use xlink:href="#glyph-1-3" x="144.569" y="106.849"/>
</g>
<path fill-rule="nonzero" fill="rgb(93.331909%, 90.979004%, 83.529663%)" fill-opacity="1" d="M 216.886719 67.28125 C 216.886719 61.019531 211.8125 55.941406 205.546875 55.941406 C 199.285156 55.941406 194.210938 61.019531 194.210938 67.28125 C 194.210938 73.542969 199.285156 78.621094 205.546875 78.621094 C 211.8125 78.621094 216.886719 73.542969 216.886719 67.28125 Z M 216.886719 67.28125 "/>
<g clip-path="url(#clip-0)">
<path fill="none" stroke-width="1.19553" stroke-linecap="butt" stroke-linejoin="miter" stroke="rgb(34.510803%, 43.136597%, 45.881653%)" stroke-opacity="1" stroke-miterlimit="10" d="M 204.950719 0.00075 C 204.950719 6.262469 199.8765 11.340594 193.610875 11.340594 C 187.349156 11.340594 182.274937 6.262469 182.274937 0.00075 C 182.274937 -6.260969 187.349156 -11.339094 193.610875 -11.339094 C 199.8765 -11.339094 204.950719 -6.260969 204.950719 0.00075 Z M 204.950719 0.00075 " transform="matrix(1, 0, 0, -1, 11.936, 67.282)"/>
</g>
<g fill="rgb(82.699585%, 21.199036%, 50.999451%)" fill-opacity="1">
<use xlink:href="#glyph-0-2" x="203.383" y="70.972"/>
</g>
<path fill="none" stroke-width="0.79701" stroke-linecap="butt" stroke-linejoin="miter" stroke="rgb(70.999146%, 53.69873%, 0%)" stroke-opacity="1" stroke-dasharray="2.98883 2.98883" stroke-miterlimit="10" d="M 96.806187 60.082781 L 96.806187 -60.081281 " transform="matrix(1, 0, 0, -1, 11.936, 67.282)"/>
<path fill="none" stroke-width="1.19553" stroke-linecap="butt" stroke-linejoin="miter" stroke="rgb(34.498596%, 43.099976%, 45.899963%)" stroke-opacity="1" stroke-miterlimit="10" d="M 10.337438 5.9695 L 47.196813 27.246844 " transform="matrix(1, 0, 0, -1, 11.936, 67.282)"/>
<path fill-rule="nonzero" fill="rgb(34.498596%, 43.099976%, 45.899963%)" fill-opacity="1" stroke-width="1.12978" stroke-linecap="butt" stroke-linejoin="miter" stroke="rgb(34.498596%, 43.099976%, 45.899963%)" stroke-opacity="1" stroke-miterlimit="10" d="M 5.08568 -0.00166076 L 1.82452 1.24062 L 2.922769 0.00213488 L 1.826091 -1.241133 Z M 5.08568 -0.00166076 " transform="matrix(0.86601, -0.49998, -0.49998, -0.86601, 56.84492, 41.3538)"/>
<g fill="rgb(82.699585%, 21.199036%, 50.999451%)" fill-opacity="1">
<use xlink:href="#glyph-2-0" x="25.91957" y="51.013366"/>
<use xlink:href="#glyph-2-0" x="31.11563" y="48.013486"/>
<use xlink:href="#glyph-2-1" x="36.31169" y="45.013606"/>
<use xlink:href="#glyph-2-0" x="41.50775" y="42.013726"/>
<use xlink:href="#glyph-2-2" x="46.70381" y="39.013846"/>
</g>
<path fill="none" stroke-width="1.19553" stroke-linecap="butt" stroke-linejoin="miter" stroke="rgb(34.498596%, 43.099976%, 45.899963%)" stroke-opacity="1" stroke-miterlimit="10" d="M 10.337438 -5.968 L 47.196813 -27.24925 " transform="matrix(1, 0, 0, -1, 11.936, 67.282)"/>
<path fill-rule="nonzero" fill="rgb(34.498596%, 43.099976%, 45.899963%)" fill-opacity="1" stroke-width="1.12978" stroke-linecap="butt" stroke-linejoin="miter" stroke="rgb(34.498596%, 43.099976%, 45.899963%)" stroke-opacity="1" stroke-miterlimit="10" d="M 5.086883 -0.000423171 L 1.825341 1.242433 L 2.922019 -0.000835807 L 1.825723 -1.242704 Z M 5.086883 -0.000423171 " transform="matrix(0.86601, 0.49998, 0.49998, -0.86601, 56.84492, 93.2102)"/>
<g fill="rgb(82.699585%, 21.199036%, 50.999451%)" fill-opacity="1">
<use xlink:href="#glyph-3-0" x="25.517381" y="90.246768"/>
<use xlink:href="#glyph-3-1" x="30.713441" y="93.246648"/>
<use xlink:href="#glyph-3-2" x="35.909501" y="96.246528"/>
<use xlink:href="#glyph-3-3" x="41.105561" y="99.246408"/>
</g>
<path fill="none" stroke-width="1.19553" stroke-linecap="butt" stroke-linejoin="miter" stroke="rgb(34.498596%, 43.099976%, 45.899963%)" stroke-opacity="1" stroke-miterlimit="10" d="M 61.372594 -23.116437 L 61.372594 19.06325 " transform="matrix(1, 0, 0, -1, 11.936, 67.282)"/>
<path fill-rule="nonzero" fill="rgb(34.498596%, 43.099976%, 45.899963%)" fill-opacity="1" stroke-width="1.12978" stroke-linecap="butt" stroke-linejoin="miter" stroke="rgb(34.498596%, 43.099976%, 45.899963%)" stroke-opacity="1" stroke-miterlimit="10" d="M 5.086233 0.00020625 L 1.824514 1.242394 L 2.92217 0.00020625 L 1.824514 -1.241981 Z M 5.086233 0.00020625 " transform="matrix(0, -1, -1, 0, 73.3088, 50.85967)"/>
<g fill="rgb(82.699585%, 21.199036%, 50.999451%)" fill-opacity="1">
<use xlink:href="#glyph-4-0" x="66.212" y="76.282"/>
<use xlink:href="#glyph-4-1" x="66.212" y="70.282"/>
<use xlink:href="#glyph-4-2" x="66.212" y="64.282"/>
</g>
<path fill="none" stroke-width="1.59404" stroke-linecap="butt" stroke-linejoin="miter" stroke="rgb(14.898682%, 54.499817%, 82.398987%)" stroke-opacity="1" stroke-miterlimit="10" d="M 73.689 35.434344 L 114.939 35.434344 " transform="matrix(1, 0, 0, -1, 11.936, 67.282)"/>
<path fill-rule="nonzero" fill="rgb(14.898682%, 54.499817%, 82.398987%)" fill-opacity="1" stroke-width="1.37189" stroke-linecap="butt" stroke-linejoin="miter" stroke="rgb(14.898682%, 54.499817%, 82.398987%)" stroke-opacity="1" stroke-miterlimit="10" d="M 6.17434 0.00085375 L 2.213403 1.508666 L 3.54934 0.00085375 L 2.213403 -1.506959 Z M 6.17434 0.00085375 " transform="matrix(1, 0, 0, -1, 123.66941, 31.84851)"/>
<g fill="rgb(82.699585%, 21.199036%, 50.999451%)" fill-opacity="1">
<use xlink:href="#glyph-0-3" x="93.712" y="24.552"/>
<use xlink:href="#glyph-0-4" x="99.712" y="24.552"/>
<use xlink:href="#glyph-0-5" x="105.712" y="24.552"/>
<use xlink:href="#glyph-0-3" x="111.712" y="24.552"/>
<use xlink:href="#glyph-0-4" x="117.712" y="24.552"/>
</g>
<path fill="none" stroke-width="1.59404" stroke-linecap="butt" stroke-linejoin="miter" stroke="rgb(14.898682%, 54.499817%, 82.398987%)" stroke-opacity="1" stroke-miterlimit="10" d="M 73.689 -35.432844 L 115.0015 -35.432844 " transform="matrix(1, 0, 0, -1, 11.936, 67.282)"/>
<path fill-rule="nonzero" fill="rgb(14.898682%, 54.499817%, 82.398987%)" fill-opacity="1" stroke-width="1.37189" stroke-linecap="butt" stroke-linejoin="miter" stroke="rgb(14.898682%, 54.499817%, 82.398987%)" stroke-opacity="1" stroke-miterlimit="10" d="M 6.17627 0.00064625 L 2.215332 1.508459 L 3.55127 0.00064625 L 2.215332 -1.507166 Z M 6.17627 0.00064625 " transform="matrix(1, 0, 0, -1, 123.72998, 102.71549)"/>
<g fill="rgb(82.699585%, 21.199036%, 50.999451%)" fill-opacity="1">
<use xlink:href="#glyph-0-3" x="93.742" y="116.012"/>
<use xlink:href="#glyph-0-3" x="99.742" y="116.012"/>
<use xlink:href="#glyph-0-5" x="105.742" y="116.012"/>
<use xlink:href="#glyph-0-3" x="111.742" y="116.012"/>
<use xlink:href="#glyph-0-6" x="117.742" y="116.012"/>
</g>
<path fill="none" stroke-width="1.19553" stroke-linecap="butt" stroke-linejoin="miter" stroke="rgb(34.498596%, 43.099976%, 45.899963%)" stroke-opacity="1" stroke-miterlimit="10" d="M 132.239781 -23.116437 L 132.239781 19.00075 " transform="matrix(1, 0, 0, -1, 11.936, 67.282)"/>
<path fill-rule="nonzero" fill="rgb(34.498596%, 43.099976%, 45.899963%)" fill-opacity="1" stroke-width="1.12978" stroke-linecap="butt" stroke-linejoin="miter" stroke="rgb(34.498596%, 43.099976%, 45.899963%)" stroke-opacity="1" stroke-miterlimit="10" d="M 5.084293 0.00001875 L 1.822574 1.242206 L 2.924136 0.00001875 L 1.822574 -1.242169 Z M 5.084293 0.00001875 " transform="matrix(0, -1, -1, 0, 144.1758, 50.92023)"/>
<g fill="rgb(82.699585%, 21.199036%, 50.999451%)" fill-opacity="1">
<use xlink:href="#glyph-4-3" x="137.079" y="76.468"/>
</g>
<g fill="rgb(82.699585%, 21.199036%, 50.999451%)" fill-opacity="1">
<use xlink:href="#glyph-4-1" x="137.079" y="70.312"/>
<use xlink:href="#glyph-4-3" x="137.079" y="64.312"/>
</g>
<path fill="none" stroke-width="1.59404" stroke-linecap="butt" stroke-linejoin="miter" stroke="rgb(14.898682%, 54.499817%, 82.398987%)" stroke-opacity="1" stroke-miterlimit="10" d="M 123.489781 26.680438 L 73.564 -23.245344 " transform="matrix(1, 0, 0, -1, 11.936, 67.282)"/>
<path fill-rule="nonzero" fill="rgb(14.898682%, 54.499817%, 82.398987%)" fill-opacity="1" stroke-width="1.37189" stroke-linecap="butt" stroke-linejoin="miter" stroke="rgb(14.898682%, 54.499817%, 82.398987%)" stroke-opacity="1" stroke-miterlimit="10" d="M 6.176384 -0.000595743 L 2.215443 1.507545 L 3.549568 0.00216642 L 2.215443 -1.508736 Z M 6.176384 -0.000595743 " transform="matrix(-0.7071, 0.7071, 0.7071, 0.7071, 87.76618, 88.2581)"/>
<g fill="rgb(82.699585%, 21.199036%, 50.999451%)" fill-opacity="1">
<use xlink:href="#glyph-5-0" x="97.197526" y="68.508035"/>
<use xlink:href="#glyph-5-1" x="101.440126" y="64.265435"/>
<use xlink:href="#glyph-5-2" x="105.682727" y="60.022835"/>
</g>
<path fill="none" stroke-width="1.19553" stroke-linecap="butt" stroke-linejoin="miter" stroke="rgb(34.498596%, 43.099976%, 45.899963%)" stroke-opacity="1" stroke-miterlimit="10" d="M 142.958531 29.246844 L 179.763219 7.996844 " transform="matrix(1, 0, 0, -1, 11.936, 67.282)"/>
<path fill-rule="nonzero" fill="rgb(34.498596%, 43.099976%, 45.899963%)" fill-opacity="1" stroke-width="1.12978" stroke-linecap="butt" stroke-linejoin="miter" stroke="rgb(34.498596%, 43.099976%, 45.899963%)" stroke-opacity="1" stroke-miterlimit="10" d="M 5.083756 0.000605018 L 1.824167 1.240078 L 2.924229 -0.00123749 L 1.822596 -1.241675 Z M 5.083756 0.000605018 " transform="matrix(0.86601, 0.49998, 0.49998, -0.86601, 189.41352, 57.96656)"/>
<g fill="rgb(82.699585%, 21.199036%, 50.999451%)" fill-opacity="1">
<use xlink:href="#glyph-3-2" x="165.611381" y="36.028768"/>
<use xlink:href="#glyph-3-4" x="170.807441" y="39.028648"/>
<use xlink:href="#glyph-3-1" x="176.003501" y="42.028528"/>
<use xlink:href="#glyph-3-5" x="181.199561" y="45.028408"/>
<use xlink:href="#glyph-3-6" x="186.395621" y="48.028288"/>
</g>
<path fill="none" stroke-width="1.19553" stroke-linecap="butt" stroke-linejoin="miter" stroke="rgb(34.498596%, 43.099976%, 45.899963%)" stroke-opacity="1" stroke-miterlimit="10" d="M 142.903844 -29.276594 L 179.763219 -7.995344 " transform="matrix(1, 0, 0, -1, 11.936, 67.282)"/>
<path fill-rule="nonzero" fill="rgb(34.498596%, 43.099976%, 45.899963%)" fill-opacity="1" stroke-width="1.12978" stroke-linecap="butt" stroke-linejoin="miter" stroke="rgb(34.498596%, 43.099976%, 45.899963%)" stroke-opacity="1" stroke-miterlimit="10" d="M 5.084506 0.000694058 L 1.823346 1.242974 L 2.923025 -0.000846444 L 1.822964 -1.242162 Z M 5.084506 0.000694058 " transform="matrix(0.86601, -0.49998, -0.49998, -0.86601, 189.41352, 76.59744)"/>
<g fill="rgb(82.699585%, 21.199036%, 50.999451%)" fill-opacity="1">
<use xlink:href="#glyph-2-3" x="173.78157" y="100.746366"/>
<use xlink:href="#glyph-2-1" x="178.97763" y="97.746486"/>
<use xlink:href="#glyph-2-3" x="184.17369" y="94.746606"/>
</g>
</svg>
