<?xml version="1.0" encoding="UTF-8"?>
<svg xmlns="http://www.w3.org/2000/svg" xmlns:xlink="http://www.w3.org/1999/xlink" width="635.08pt" height="130.52pt" viewBox="0 0 635.08 130.52">
<defs>
<g>
<g id="glyph-0-0">
<path d="M 5.046875 -4.25 C 5.046875 -4.9375 4.34375 -5.296875 3.59375 -5.296875 C 2.84375 -5.296875 2.296875 -5.078125 1.984375 -4.625 C 1.703125 -4.21875 1.5625 -3.859375 1.5625 -3.546875 C 1.5625 -2.90625 1.984375 -2.5 2.8125 -2.3125 C 3.15625 -2.25 3.421875 -2.171875 3.625 -2.078125 C 3.875 -1.96875 4 -1.765625 4 -1.46875 C 4 -1.265625 3.90625 -1.015625 3.703125 -0.75 C 3.4375 -0.390625 3 -0.21875 2.359375 -0.21875 C 1.71875 -0.21875 1.296875 -0.390625 1.109375 -0.75 C 1.484375 -0.734375 1.8125 -1.046875 1.8125 -1.421875 C 1.8125 -1.734375 1.65625 -1.890625 1.328125 -1.890625 C 0.90625 -1.890625 0.625 -1.484375 0.625 -1.0625 C 0.625 -0.265625 1.484375 0.125 2.359375 0.125 C 3.25 0.125 3.90625 -0.125 4.28125 -0.671875 C 4.609375 -1.109375 4.765625 -1.515625 4.765625 -1.875 C 4.765625 -2.390625 4.515625 -2.765625 4.015625 -3.03125 C 3.640625 -3.15625 3.359375 -3.234375 3.1875 -3.28125 C 2.765625 -3.390625 2.328125 -3.421875 2.328125 -3.9375 C 2.328125 -4.578125 2.921875 -4.953125 3.59375 -4.953125 C 4.109375 -4.953125 4.421875 -4.796875 4.578125 -4.5 C 4.3125 -4.453125 4.046875 -4.21875 4.046875 -3.921875 C 4.046875 -3.671875 4.171875 -3.546875 4.453125 -3.546875 C 4.828125 -3.546875 5.046875 -3.875 5.046875 -4.25 Z M 5.046875 -4.25 "/>
</g>
<g id="glyph-0-1">
<path d="M 4.421875 -4.6875 C 4.421875 -4.59375 4.53125 -4.4375 4.734375 -4.203125 C 4.921875 -3.953125 5.015625 -3.6875 5.015625 -3.375 C 5.015625 -3.03125 4.84375 -2.4375 4.5 -1.609375 C 4.25 -1.03125 3.671875 -0.21875 2.96875 -0.21875 C 2.40625 -0.21875 2.140625 -0.546875 2.140625 -1.203125 C 2.140625 -1.671875 2.359375 -2.5 2.8125 -3.6875 C 2.921875 -3.9375 2.96875 -4.140625 2.96875 -4.28125 C 2.96875 -4.890625 2.5625 -5.296875 1.953125 -5.296875 C 1.421875 -5.296875 1.015625 -5 0.703125 -4.40625 C 0.46875 -3.90625 0.34375 -3.59375 0.34375 -3.4375 C 0.34375 -3.34375 0.40625 -3.28125 0.546875 -3.28125 C 0.703125 -3.28125 0.71875 -3.34375 0.765625 -3.515625 C 1.046875 -4.46875 1.421875 -4.953125 1.921875 -4.953125 C 2.078125 -4.953125 2.15625 -4.84375 2.15625 -4.625 C 2.15625 -4.421875 2.09375 -4.15625 1.96875 -3.8125 C 1.53125 -2.625 1.296875 -1.828125 1.296875 -1.375 C 1.296875 -0.765625 1.5 -0.34375 1.90625 -0.125 C 2.234375 0.046875 2.5625 0.125 2.921875 0.125 C 3.984375 0.125 4.734375 -1.015625 5.046875 -1.9375 C 5.421875 -3.078125 5.609375 -3.90625 5.609375 -4.421875 C 5.609375 -5.015625 5.421875 -5.296875 5.046875 -5.296875 C 4.75 -5.296875 4.421875 -4.984375 4.421875 -4.6875 Z M 4.421875 -4.6875 "/>
</g>
<g id="glyph-0-2">
<path d="M 3.953125 -5.03125 C 3.953125 -5.140625 3.84375 -5.203125 3.59375 -5.203125 L 2.609375 -5.203125 C 2.921875 -6.4375 3.078125 -7.09375 3.078125 -7.140625 C 3.078125 -7.390625 2.953125 -7.515625 2.703125 -7.515625 C 2.421875 -7.515625 2.25 -7.359375 2.1875 -7.046875 L 1.734375 -5.203125 L 0.671875 -5.203125 C 0.40625 -5.203125 0.28125 -5.1875 0.28125 -4.9375 C 0.28125 -4.796875 0.390625 -4.734375 0.640625 -4.734375 L 1.625 -4.734375 C 1.03125 -2.40625 0.75 -1.15625 0.75 -1.015625 C 0.75 -0.34375 1.203125 0.125 1.875 0.125 C 2.328125 0.125 2.71875 -0.078125 3.078125 -0.484375 C 3.359375 -0.84375 3.5625 -1.171875 3.703125 -1.5 C 3.75 -1.625 3.765625 -1.703125 3.765625 -1.734375 C 3.765625 -1.84375 3.703125 -1.90625 3.59375 -1.90625 C 3.484375 -1.90625 3.421875 -1.84375 3.375 -1.71875 C 2.96875 -0.71875 2.46875 -0.234375 1.890625 -0.234375 C 1.6875 -0.234375 1.578125 -0.390625 1.578125 -0.71875 C 1.578125 -0.90625 1.59375 -1.09375 1.640625 -1.28125 L 2.5 -4.734375 L 3.5625 -4.734375 C 3.875 -4.734375 3.953125 -4.765625 3.953125 -5.03125 Z M 3.953125 -5.03125 "/>
</g>
<g id="glyph-0-3">
<path d="M 3.234375 -7.984375 C 2.734375 -7.484375 2.015625 -7.234375 1.0625 -7.234375 L 1.0625 -6.765625 C 1.6875 -6.765625 2.203125 -6.859375 2.609375 -7.0625 L 2.609375 -0.984375 C 2.609375 -0.765625 2.5625 -0.625 2.453125 -0.5625 C 2.34375 -0.5 2.046875 -0.46875 1.5625 -0.46875 L 1.140625 -0.46875 L 1.140625 0 C 1.4375 -0.03125 2.09375 -0.03125 3.078125 -0.03125 C 4.078125 -0.03125 4.734375 -0.03125 5.03125 0 L 5.03125 -0.46875 L 4.609375 -0.46875 C 4.109375 -0.46875 3.8125 -0.5 3.71875 -0.5625 C 3.625 -0.625 3.5625 -0.765625 3.5625 -0.984375 L 3.5625 -7.625 C 3.5625 -7.921875 3.546875 -7.984375 3.234375 -7.984375 Z M 3.234375 -7.984375 "/>
</g>
<g id="glyph-0-4">
<path d="M 2.84375 -7.984375 C 2.234375 -7.984375 1.71875 -7.78125 1.265625 -7.34375 C 0.828125 -6.90625 0.59375 -6.40625 0.59375 -5.796875 C 0.59375 -5.390625 0.90625 -5.09375 1.265625 -5.09375 C 1.625 -5.09375 1.9375 -5.40625 1.9375 -5.765625 C 1.9375 -6.15625 1.640625 -6.4375 1.265625 -6.4375 C 1.21875 -6.4375 1.203125 -6.4375 1.171875 -6.421875 C 1.40625 -7.015625 1.9375 -7.53125 2.6875 -7.53125 C 3.671875 -7.53125 4.21875 -6.671875 4.21875 -5.640625 C 4.21875 -4.84375 3.8125 -3.96875 3 -3.0625 L 0.75 -0.515625 C 0.59375 -0.34375 0.59375 -0.34375 0.59375 0 L 5.046875 0 L 5.40625 -2.15625 L 5 -2.15625 C 4.90625 -1.546875 4.828125 -1.203125 4.75 -1.09375 C 4.6875 -1.03125 4.328125 -1.015625 3.671875 -1.015625 L 1.671875 -1.015625 L 2.828125 -2.140625 C 3.640625 -2.921875 4.6875 -3.75 5.03125 -4.375 C 5.265625 -4.796875 5.390625 -5.21875 5.390625 -5.640625 C 5.390625 -7.0625 4.28125 -7.984375 2.84375 -7.984375 Z M 2.84375 -7.984375 "/>
</g>
<g id="glyph-0-5">
<path d="M 4.234375 -8.125 C 4.125 -8.125 4.03125 -8.0625 3.953125 -7.953125 L 0.34375 -2.390625 L 0.34375 -1.953125 L 3.46875 -1.953125 L 3.46875 -0.96875 C 3.46875 -0.75 3.421875 -0.609375 3.34375 -0.546875 C 3.25 -0.484375 3.03125 -0.46875 2.625 -0.46875 L 2.328125 -0.46875 L 2.328125 0 C 2.671875 -0.03125 3.234375 -0.03125 3.96875 -0.03125 C 4.71875 -0.03125 5.265625 -0.03125 5.609375 0 L 5.609375 -0.46875 L 5.3125 -0.46875 C 4.921875 -0.46875 4.6875 -0.484375 4.609375 -0.546875 C 4.53125 -0.609375 4.46875 -0.75 4.46875 -0.96875 L 4.46875 -1.953125 L 5.65625 -1.953125 L 5.65625 -2.421875 L 4.46875 -2.421875 L 4.46875 -7.921875 C 4.46875 -8.046875 4.390625 -8.125 4.234375 -8.125 Z M 3.546875 -6.640625 L 3.546875 -2.421875 L 0.796875 -2.421875 Z M 3.546875 -6.640625 "/>
</g>
<g id="glyph-1-0">
<path d="M 2.421875 -5.296875 C 2.078125 -4.953125 1.5625 -4.796875 0.875 -4.796875 L 0.875 -4.4375 C 1.34375 -4.4375 1.71875 -4.515625 2 -4.640625 L 2 -0.671875 C 2 -0.578125 1.984375 -0.515625 1.96875 -0.484375 C 1.921875 -0.390625 1.6875 -0.34375 1.25 -0.34375 L 0.921875 -0.34375 L 0.921875 0 L 2.34375 -0.03125 L 3.765625 0 L 3.765625 -0.34375 L 3.4375 -0.34375 C 3 -0.34375 2.765625 -0.390625 2.71875 -0.484375 C 2.703125 -0.515625 2.6875 -0.578125 2.6875 -0.671875 L 2.6875 -5.03125 C 2.6875 -5.25 2.65625 -5.296875 2.421875 -5.296875 Z M 2.421875 -5.296875 "/>
</g>
<g id="glyph-1-1">
<path d="M 0.953125 -3.375 C 1.203125 -3.375 1.390625 -3.5625 1.390625 -3.828125 C 1.390625 -4.109375 1.25 -4.265625 0.953125 -4.265625 C 1.125 -4.640625 1.515625 -4.953125 2.046875 -4.953125 C 2.734375 -4.953125 3.203125 -4.421875 3.203125 -3.71875 C 3.203125 -3.34375 3.0625 -2.96875 2.78125 -2.609375 C 2.65625 -2.4375 2.546875 -2.296875 2.484375 -2.234375 L 0.59375 -0.359375 C 0.484375 -0.265625 0.5 -0.234375 0.5 0 L 3.78125 0 L 4.03125 -1.5 L 3.703125 -1.5 C 3.640625 -1.078125 3.578125 -0.828125 3.5 -0.765625 C 3.46875 -0.75 3.21875 -0.734375 2.75 -0.734375 L 1.390625 -0.734375 C 1.921875 -1.203125 2.421875 -1.625 2.890625 -2 C 3.25 -2.28125 3.5 -2.53125 3.671875 -2.734375 C 3.90625 -3.046875 4.03125 -3.375 4.03125 -3.71875 C 4.03125 -4.21875 3.828125 -4.609375 3.4375 -4.890625 C 3.09375 -5.15625 2.671875 -5.296875 2.15625 -5.296875 C 1.71875 -5.296875 1.34375 -5.15625 1.015625 -4.90625 C 0.671875 -4.625 0.5 -4.28125 0.5 -3.84375 C 0.5 -3.578125 0.703125 -3.375 0.953125 -3.375 Z M 0.953125 -3.375 "/>
</g>
<g id="glyph-1-2">
<path d="M 2.8125 -2.8125 C 3.34375 -3.03125 3.859375 -3.5 3.859375 -4.171875 C 3.859375 -4.53125 3.671875 -4.828125 3.296875 -5.03125 C 2.984375 -5.203125 2.625 -5.296875 2.234375 -5.296875 C 1.84375 -5.296875 1.5 -5.21875 1.21875 -5.046875 C 0.859375 -4.84375 0.671875 -4.5625 0.671875 -4.203125 C 0.671875 -3.90625 0.828125 -3.75 1.109375 -3.75 C 1.359375 -3.75 1.546875 -3.9375 1.546875 -4.1875 C 1.546875 -4.4375 1.421875 -4.578125 1.171875 -4.625 C 1.40625 -4.875 1.75 -5 2.21875 -5 C 2.734375 -5 3.03125 -4.6875 3.03125 -4.171875 C 3.03125 -3.796875 2.921875 -3.5 2.71875 -3.265625 C 2.5 -3 2.34375 -2.953125 1.875 -2.921875 C 1.671875 -2.90625 1.515625 -2.9375 1.515625 -2.765625 C 1.515625 -2.671875 1.609375 -2.625 1.75 -2.625 L 2.171875 -2.625 C 2.859375 -2.625 3.203125 -2.109375 3.203125 -1.390625 C 3.203125 -0.6875 2.875 -0.15625 2.203125 -0.15625 C 1.625 -0.15625 1.203125 -0.3125 0.9375 -0.640625 C 1.21875 -0.671875 1.359375 -0.84375 1.359375 -1.109375 C 1.359375 -1.375 1.15625 -1.578125 0.90625 -1.578125 C 0.59375 -1.578125 0.4375 -1.421875 0.4375 -1.09375 C 0.4375 -0.6875 0.640625 -0.359375 1.046875 -0.125 C 1.390625 0.0625 1.78125 0.15625 2.21875 0.15625 C 2.703125 0.15625 3.125 0.03125 3.5 -0.25 C 3.890625 -0.546875 4.09375 -0.921875 4.09375 -1.390625 C 4.09375 -2.140625 3.453125 -2.640625 2.8125 -2.8125 Z M 2.8125 -2.8125 "/>
</g>
<g id="glyph-1-3">
<path d="M 3.140625 -5.375 C 3.046875 -5.375 2.96875 -5.328125 2.90625 -5.25 L 0.3125 -1.625 L 0.3125 -1.296875 L 2.609375 -1.296875 L 2.609375 -0.671875 C 2.609375 -0.546875 2.59375 -0.453125 2.53125 -0.40625 C 2.484375 -0.359375 2.296875 -0.34375 2.015625 -0.34375 L 1.765625 -0.34375 L 1.765625 0 L 2.96875 -0.03125 L 4.1875 0 L 4.1875 -0.34375 L 3.953125 -0.34375 C 3.65625 -0.34375 3.484375 -0.359375 3.421875 -0.40625 C 3.375 -0.453125 3.34375 -0.546875 3.34375 -0.671875 L 3.34375 -1.296875 L 4.21875 -1.296875 L 4.21875 -1.640625 L 3.34375 -1.640625 L 3.34375 -5.109375 C 3.34375 -5.3125 3.328125 -5.375 3.140625 -5.375 Z M 2.671875 -4.390625 L 2.671875 -1.640625 L 0.6875 -1.640625 Z M 2.671875 -4.390625 "/>
</g>
<g id="glyph-2-0">
<path d="M -1.1875 -8.53125 C -1.359375 -7.84375 -1.859375 -7.265625 -2.6875 -6.796875 L -2.453125 -6.390625 C -1.90625 -6.703125 -1.515625 -7.03125 -1.265625 -7.40625 L 1.78125 -2.15625 C 1.890625 -1.953125 1.90625 -1.828125 1.84375 -1.703125 C 1.78125 -1.609375 1.53125 -1.421875 1.125 -1.1875 L 0.75 -0.96875 L 0.984375 -0.5625 C 1.234375 -0.75 1.796875 -1.078125 2.65625 -1.5625 C 3.515625 -2.0625 4.078125 -2.390625 4.359375 -2.515625 L 4.125 -2.921875 L 3.75 -2.703125 C 3.328125 -2.453125 3.046875 -2.34375 2.9375 -2.34375 C 2.828125 -2.359375 2.703125 -2.4375 2.59375 -2.640625 L -0.734375 -8.390625 C -0.875 -8.640625 -0.90625 -8.6875 -1.1875 -8.53125 Z M -1.1875 -8.53125 "/>
</g>
<g id="glyph-2-1">
<path d="M 0.96875 -7.53125 C 1.296875 -7.71875 1.375 -8 1.171875 -8.359375 C 0.734375 -9.109375 -0.0625 -9.1875 -0.828125 -8.734375 C -1.6875 -8.25 -2.15625 -7.4375 -2.1875 -6.328125 C -2.21875 -5.375 -1.984375 -4.4375 -1.453125 -3.53125 C -0.6875 -2.21875 0.078125 -1.4375 0.875 -1.15625 C 1.578125 -0.921875 2.1875 -0.953125 2.734375 -1.265625 C 3.375 -1.640625 3.765625 -2.1875 3.890625 -2.890625 C 4 -3.578125 3.890625 -4.234375 3.53125 -4.859375 C 3.15625 -5.5 2.65625 -5.921875 2.03125 -6.171875 C 1.34375 -6.421875 0.703125 -6.375 0.09375 -6.015625 C -0.453125 -5.703125 -0.6875 -5.171875 -0.640625 -4.421875 L -0.671875 -4.484375 C -1.34375 -5.65625 -1.640625 -6.8125 -1.265625 -7.65625 C -1.109375 -8 -0.90625 -8.25 -0.609375 -8.40625 C -0.234375 -8.625 0.09375 -8.671875 0.390625 -8.5625 C 0.046875 -8.359375 -0.015625 -8.0625 0.171875 -7.75 C 0.34375 -7.453125 0.671875 -7.359375 0.96875 -7.53125 Z M 1.546875 -5.59375 C 1.796875 -5.40625 2.125 -4.984375 2.515625 -4.296875 C 2.90625 -3.625 3.109375 -3.140625 3.125 -2.84375 C 3.1875 -2.3125 2.984375 -1.921875 2.53125 -1.65625 C 2.21875 -1.484375 1.9375 -1.453125 1.640625 -1.546875 C 1.40625 -1.640625 1.234375 -1.734375 1.140625 -1.8125 C 0.828125 -2.078125 0.5 -2.53125 0.109375 -3.203125 C -0.0625 -3.5 -0.1875 -3.796875 -0.28125 -4.109375 C -0.421875 -4.671875 -0.3125 -5.34375 0.28125 -5.671875 C 0.6875 -5.90625 1.125 -5.890625 1.546875 -5.59375 Z M 1.546875 -5.59375 "/>
</g>
<g id="glyph-2-2">
<path d="M -0.390625 -9.140625 C -0.484375 -9.09375 -0.546875 -9 -0.546875 -8.859375 L -0.890625 -2.25 L -0.671875 -1.859375 L 2.03125 -3.421875 L 2.515625 -2.578125 C 2.625 -2.390625 2.671875 -2.234375 2.625 -2.140625 C 2.578125 -2.046875 2.390625 -1.921875 2.03125 -1.71875 L 1.78125 -1.5625 L 2.015625 -1.15625 C 2.296875 -1.359375 2.78125 -1.640625 3.421875 -2.015625 C 4.078125 -2.390625 4.546875 -2.65625 4.859375 -2.796875 L 4.625 -3.203125 L 4.359375 -3.0625 C 4.03125 -2.859375 3.828125 -2.765625 3.71875 -2.765625 C 3.625 -2.796875 3.5 -2.890625 3.390625 -3.078125 L 2.90625 -3.921875 L 3.9375 -4.515625 L 3.703125 -4.921875 L 2.671875 -4.328125 L -0.078125 -9.09375 C -0.140625 -9.203125 -0.265625 -9.21875 -0.390625 -9.140625 Z M -0.234375 -7.515625 L 1.875 -3.859375 L -0.515625 -2.484375 Z M -0.234375 -7.515625 "/>
</g>
<g id="glyph-3-0">
<path d="M 6.78125 -5.3125 C 6.109375 -5.125 5.359375 -5.265625 4.53125 -5.734375 L 4.296875 -5.328125 C 4.84375 -5.015625 5.328125 -4.84375 5.796875 -4.8125 L 2.75 0.4375 C 2.640625 0.640625 2.53125 0.734375 2.40625 0.734375 C 2.28125 0.734375 2 0.609375 1.59375 0.375 L 1.21875 0.15625 L 0.984375 0.5625 C 1.265625 0.6875 1.828125 1.015625 2.6875 1.5 C 3.546875 2 4.109375 2.328125 4.359375 2.515625 L 4.59375 2.109375 L 4.21875 1.890625 C 3.796875 1.640625 3.546875 1.46875 3.5 1.375 C 3.453125 1.265625 3.453125 1.125 3.5625 0.921875 L 6.890625 -4.828125 C 7.03125 -5.078125 7.0625 -5.15625 6.78125 -5.3125 Z M 6.78125 -5.3125 "/>
</g>
<g id="glyph-3-1">
<path d="M 5.265625 -1.859375 C 6.09375 -1.71875 7.125 -2.015625 7.640625 -2.890625 C 7.890625 -3.328125 7.890625 -3.828125 7.609375 -4.359375 C 7.390625 -4.796875 7.015625 -5.171875 6.546875 -5.453125 C 6.0625 -5.71875 5.59375 -5.828125 5.109375 -5.796875 C 4.546875 -5.765625 4.125 -5.53125 3.875 -5.09375 C 3.671875 -4.734375 3.765625 -4.375 4.09375 -4.171875 C 4.421875 -3.984375 4.796875 -4.09375 4.984375 -4.4375 C 5.1875 -4.765625 5.109375 -5.078125 4.703125 -5.3125 C 5.1875 -5.53125 5.734375 -5.46875 6.3125 -5.125 C 6.9375 -4.765625 7.03125 -4.234375 6.609375 -3.5 C 6.359375 -3.046875 6.078125 -2.75 5.71875 -2.53125 C 5.171875 -2.1875 4.734375 -2.3125 4.09375 -2.6875 C 3.9375 -2.75 3.859375 -2.71875 3.796875 -2.625 C 3.71875 -2.484375 3.78125 -2.4375 3.984375 -2.328125 L 4.4375 -2.0625 C 5.21875 -1.609375 5.28125 -0.828125 4.640625 0.28125 C 4.140625 1.15625 3.359375 1.734375 2.578125 1.28125 C 1.90625 0.890625 1.546875 0.390625 1.5 -0.234375 C 1.859375 -0.03125 2.296875 -0.140625 2.5 -0.5 C 2.703125 -0.84375 2.59375 -1.25 2.25 -1.453125 C 1.84375 -1.6875 1.5 -1.609375 1.25 -1.171875 C 0.96875 -0.671875 0.953125 -0.140625 1.234375 0.453125 C 1.484375 0.96875 1.875 1.390625 2.40625 1.6875 C 3 2.03125 3.625 2.125 4.296875 2 C 4.953125 1.859375 5.453125 1.515625 5.78125 0.9375 C 6.34375 -0.046875 5.96875 -1.15625 5.265625 -1.859375 Z M 5.265625 -1.859375 "/>
</g>
<g id="glyph-4-0">
<path d="M 7.984375 3.234375 C 7.484375 2.734375 7.234375 2.015625 7.234375 1.0625 L 6.765625 1.0625 C 6.765625 1.6875 6.859375 2.203125 7.0625 2.609375 L 0.984375 2.609375 C 0.765625 2.609375 0.625 2.5625 0.5625 2.453125 C 0.5 2.34375 0.46875 2.046875 0.46875 1.5625 L 0.46875 1.140625 L 0 1.140625 C 0.03125 1.4375 0.03125 2.09375 0.03125 3.078125 C 0.03125 4.078125 0.03125 4.734375 0 5.03125 L 0.46875 5.03125 L 0.46875 4.609375 C 0.46875 4.109375 0.5 3.8125 0.5625 3.71875 C 0.625 3.625 0.765625 3.5625 0.984375 3.5625 L 7.625 3.5625 C 7.921875 3.5625 7.984375 3.546875 7.984375 3.234375 Z M 7.984375 3.234375 "/>
</g>
<g id="glyph-4-1">
<path d="M -0.265625 2.984375 C -0.265625 4.6875 1.109375 5.515625 3.84375 5.515625 C 5.671875 5.515625 6.90625 5.140625 7.5 4.375 C 7.828125 3.953125 7.984375 3.484375 7.984375 3 C 7.984375 1.3125 6.609375 0.46875 3.84375 0.46875 C 1.625 0.46875 -0.265625 1.0625 -0.265625 2.984375 Z M 6.28125 4.328125 C 5.875 4.421875 5.09375 4.453125 3.984375 4.453125 C 2.875 4.453125 2.0625 4.40625 1.53125 4.3125 C 0.578125 4.15625 0.09375 3.71875 0.09375 2.984375 C 0.09375 2.71875 0.203125 2.4375 0.40625 2.1875 C 0.6875 1.859375 1.25 1.671875 2.109375 1.578125 C 2.40625 1.546875 3.03125 1.53125 3.984375 1.53125 C 5.03125 1.53125 5.765625 1.578125 6.15625 1.625 C 6.8125 1.734375 7.234375 1.953125 7.421875 2.296875 C 7.5625 2.5625 7.625 2.78125 7.625 2.984375 C 7.625 3.765625 7 4.203125 6.28125 4.328125 Z M 6.28125 4.328125 "/>
</g>
<g id="glyph-5-0">
<path d="M -8.125 -4.234375 C -8.125 -4.125 -8.0625 -4.03125 -7.953125 -3.953125 L -2.390625 -0.34375 L -1.953125 -0.34375 L -1.953125 -3.46875 L -0.96875 -3.46875 C -0.75 -3.46875 -0.609375 -3.421875 -0.546875 -3.34375 C -0.484375 -3.25 -0.46875 -3.03125 -0.46875 -2.625 L -0.46875 -2.328125 L 0 -2.328125 C -0.03125 -2.671875 -0.03125 -3.234375 -0.03125 -3.96875 C -0.03125 -4.71875 -0.03125 -5.265625 0 -5.609375 L -0.46875 -5.609375 L -0.46875 -5.3125 C -0.46875 -4.921875 -0.484375 -4.6875 -0.546875 -4.609375 C -0.609375 -4.53125 -0.75 -4.46875 -0.96875 -4.46875 L -1.953125 -4.46875 L -1.953125 -5.65625 L -2.421875 -5.65625 L -2.421875 -4.46875 L -7.921875 -4.46875 C -8.046875 -4.46875 -8.125 -4.390625 -8.125 -4.234375 Z M -6.640625 -3.546875 L -2.421875 -3.546875 L -2.421875 -0.796875 Z M -6.640625 -3.546875 "/>
</g>
<g id="glyph-5-1">
<path d="M -7.25 -5.703125 C -7.359375 -5.78125 -7.515625 -5.8125 -7.734375 -5.8125 L -7.734375 -2.921875 C -7.734375 -2.09375 -7.78125 -1.625 -7.890625 -1.53125 C -7.921875 -1.5 -8 -1.46875 -8.109375 -1.4375 L -8.109375 -1.0625 L -5.5625 -0.65625 L -5.5625 -1.0625 C -6.234375 -1.171875 -6.59375 -1.265625 -6.65625 -1.34375 C -6.703125 -1.375 -6.71875 -1.75 -6.71875 -2.453125 L -6.71875 -4.8125 L -4.921875 -3.546875 C -3.546875 -2.5625 -2.046875 -2.09375 -0.4375 -2.09375 C 0.03125 -2.09375 0.265625 -2.28125 0.265625 -2.671875 C 0.265625 -3.078125 0.03125 -3.265625 -0.4375 -3.265625 L -1.046875 -3.265625 C -2.875 -3.265625 -4.1875 -3.546875 -4.984375 -4.109375 Z M -7.25 -5.703125 "/>
</g>
<g id="glyph-6-0">
<path d="M -0.203125 -2.171875 C -0.484375 -1.890625 -0.46875 -1.59375 -0.1875 -1.3125 C 0.4375 -0.6875 1.265625 -0.890625 1.9375 -1.5625 C 2.625 -2.25 2.828125 -3.140625 2.53125 -4.21875 C 2.3125 -5.125 1.8125 -5.9375 1.078125 -6.671875 C 0.015625 -7.734375 -0.953125 -8.296875 -1.78125 -8.375 C -2.5 -8.4375 -3.0625 -8.21875 -3.5 -7.78125 C -4 -7.28125 -4.25 -6.6875 -4.21875 -6 C -4.203125 -5.265625 -3.90625 -4.625 -3.375 -4.09375 C -2.859375 -3.578125 -2.25 -3.28125 -1.59375 -3.21875 C -0.875 -3.15625 -0.265625 -3.390625 0.234375 -3.890625 C 0.671875 -4.328125 0.78125 -4.90625 0.515625 -5.609375 L 0.625 -5.5 C 1.5625 -4.5625 2.03125 -3.78125 2.046875 -3.109375 C 2.0625 -2.5625 1.90625 -2.15625 1.625 -1.875 C 1.28125 -1.53125 0.953125 -1.359375 0.640625 -1.359375 C 0.90625 -1.625 0.890625 -1.921875 0.640625 -2.171875 C 0.40625 -2.40625 0.03125 -2.40625 -0.203125 -2.171875 Z M -0.03125 -4.15625 C -0.359375 -3.828125 -0.765625 -3.734375 -1.28125 -3.90625 C -1.578125 -4.015625 -2 -4.34375 -2.546875 -4.890625 C -3.109375 -5.453125 -3.4375 -5.875 -3.515625 -6.203125 C -3.671875 -6.734375 -3.578125 -7.171875 -3.234375 -7.515625 C -2.875 -7.875 -2.40625 -7.90625 -1.828125 -7.640625 C -1.5 -7.5 -1.046875 -7.171875 -0.5 -6.625 C 0.234375 -5.890625 0.640625 -4.828125 -0.03125 -4.15625 Z M -0.03125 -4.15625 "/>
</g>
<g id="glyph-7-0">
<path d="M 6.46875 -5.5 C 5.9375 -5.796875 5.375 -5.875 4.765625 -5.71875 C 4.171875 -5.5625 3.71875 -5.25 3.421875 -4.71875 C 3.21875 -4.375 3.328125 -3.953125 3.640625 -3.765625 C 3.953125 -3.59375 4.375 -3.71875 4.5625 -4.03125 C 4.75 -4.359375 4.640625 -4.75 4.3125 -4.9375 C 4.28125 -4.96875 4.265625 -4.96875 4.234375 -4.96875 C 4.734375 -5.375 5.4375 -5.546875 6.09375 -5.171875 C 6.953125 -4.671875 7 -3.671875 6.484375 -2.78125 C 6.078125 -2.078125 5.28125 -1.53125 4.125 -1.15625 L 0.921875 -0.078125 C 0.6875 0 0.6875 0 0.515625 0.296875 L 4.375 2.53125 L 5.765625 0.828125 L 5.40625 0.625 C 5.03125 1.109375 4.796875 1.375 4.65625 1.421875 C 4.578125 1.453125 4.265625 1.296875 3.703125 0.96875 L 1.96875 -0.03125 L 3.53125 -0.4375 C 4.625 -0.703125 5.9375 -0.90625 6.546875 -1.265625 C 6.96875 -1.515625 7.28125 -1.8125 7.5 -2.1875 C 8.203125 -3.40625 7.703125 -4.78125 6.46875 -5.5 Z M 6.46875 -5.5 "/>
</g>
<g id="glyph-7-1">
<path d="M 2.4375 1.734375 C 3.921875 2.578125 5.34375 1.8125 6.703125 -0.5625 C 7.625 -2.140625 7.90625 -3.40625 7.53125 -4.3125 C 7.34375 -4.796875 7.015625 -5.171875 6.59375 -5.421875 C 5.140625 -6.265625 3.71875 -5.484375 2.328125 -3.09375 C 1.21875 -1.171875 0.78125 0.765625 2.4375 1.734375 Z M 6.890625 -3.265625 C 6.765625 -2.875 6.40625 -2.171875 5.859375 -1.21875 C 5.296875 -0.25 4.84375 0.421875 4.5 0.828125 C 3.890625 1.578125 3.265625 1.78125 2.625 1.421875 C 2.40625 1.28125 2.21875 1.046875 2.09375 0.734375 C 1.953125 0.34375 2.078125 -0.234375 2.421875 -1.03125 C 2.546875 -1.296875 2.84375 -1.859375 3.328125 -2.6875 C 3.84375 -3.59375 4.25 -4.203125 4.484375 -4.515625 C 4.90625 -5.03125 5.3125 -5.28125 5.703125 -5.265625 C 6 -5.265625 6.21875 -5.21875 6.390625 -5.109375 C 7.078125 -4.71875 7.140625 -3.953125 6.890625 -3.265625 Z M 6.890625 -3.265625 "/>
</g>
<g id="glyph-8-0">
<path d="M 25 -4.1875 C 25.140625 -4.265625 25.21875 -4.375 25.21875 -4.5 C 25.21875 -4.625 25.140625 -4.734375 25 -4.8125 C 23.890625 -5.09375 22.765625 -5.71875 21.671875 -6.671875 C 20.859375 -7.375 20.234375 -8.1875 19.75 -9.125 C 19.671875 -9.28125 19.546875 -9.359375 19.375 -9.359375 C 19.078125 -9.359375 18.9375 -9.21875 18.9375 -8.921875 C 18.9375 -8.890625 18.953125 -8.84375 18.96875 -8.75 C 19.390625 -7.953125 19.890625 -7.25 20.46875 -6.640625 L 1.4375 -6.640625 C 1.15625 -6.640625 1.015625 -6.5 1.015625 -6.234375 C 1.015625 -5.9375 1.15625 -5.796875 1.4375 -5.796875 L 21.40625 -5.796875 C 22.078125 -5.25 22.828125 -4.828125 23.59375 -4.5 C 22.828125 -4.171875 22.078125 -3.75 21.40625 -3.203125 L 1.4375 -3.203125 C 1.15625 -3.203125 1.015625 -3.0625 1.015625 -2.765625 C 1.015625 -2.5 1.15625 -2.359375 1.4375 -2.359375 L 20.46875 -2.359375 C 19.890625 -1.75 19.390625 -1.046875 18.96875 -0.25 C 18.953125 -0.15625 18.9375 -0.109375 18.9375 -0.078125 C 18.9375 0.21875 19.078125 0.359375 19.375 0.359375 C 19.546875 0.359375 19.671875 0.28125 19.75 0.125 C 20.234375 -0.8125 20.859375 -1.625 21.671875 -2.328125 C 22.765625 -3.28125 23.890625 -3.90625 25 -4.1875 Z M 25 -4.1875 "/>
</g>
<g id="glyph-9-0">
<path d="M -4.53125 -7.328125 C -4.421875 -6.625 -4.65625 -5.890625 -5.21875 -5.125 L -4.828125 -4.859375 C -4.453125 -5.359375 -4.234375 -5.828125 -4.15625 -6.28125 L 0.75 -2.6875 C 0.921875 -2.5625 1.015625 -2.4375 1 -2.3125 C 0.984375 -2.1875 0.828125 -1.9375 0.546875 -1.546875 L 0.296875 -1.203125 L 0.671875 -0.921875 C 0.8125 -1.171875 1.203125 -1.703125 1.78125 -2.5 C 2.375 -3.3125 2.765625 -3.828125 2.96875 -4.0625 L 2.59375 -4.34375 L 2.34375 -4 C 2.046875 -3.59375 1.84375 -3.375 1.75 -3.328125 C 1.640625 -3.296875 1.484375 -3.328125 1.3125 -3.453125 L -4.046875 -7.375 C -4.28125 -7.546875 -4.34375 -7.578125 -4.53125 -7.328125 Z M -4.53125 -7.328125 "/>
</g>
<g id="glyph-9-1">
<path d="M 1.984375 -2.25 C 2.984375 -3.625 2.375 -5.109375 0.171875 -6.71875 C -1.3125 -7.796875 -2.546875 -8.21875 -3.46875 -7.96875 C -3.984375 -7.8125 -4.375 -7.53125 -4.671875 -7.140625 C -5.65625 -5.78125 -5.046875 -4.28125 -2.8125 -2.640625 C -1.03125 -1.328125 0.84375 -0.703125 1.984375 -2.25 Z M -2.5 -7.203125 C -2.125 -7.03125 -1.484375 -6.609375 -0.59375 -5.953125 C 0.3125 -5.296875 0.9375 -4.78125 1.3125 -4.390625 C 1.984375 -3.703125 2.125 -3.0625 1.6875 -2.46875 C 1.53125 -2.25 1.28125 -2.09375 0.96875 -2 C 0.53125 -1.90625 -0.03125 -2.078125 -0.765625 -2.515625 C -1.03125 -2.671875 -1.546875 -3.03125 -2.3125 -3.59375 C -3.15625 -4.203125 -3.71875 -4.671875 -4.015625 -4.953125 C -4.46875 -5.4375 -4.6875 -5.84375 -4.625 -6.25 C -4.59375 -6.53125 -4.515625 -6.75 -4.390625 -6.90625 C -3.9375 -7.53125 -3.15625 -7.53125 -2.5 -7.203125 Z M -2.5 -7.203125 "/>
</g>
<g id="glyph-10-0">
<path d="M 8.34375 -2.109375 C 7.640625 -2.21875 7.03125 -2.640625 6.46875 -3.40625 L 6.078125 -3.140625 C 6.453125 -2.640625 6.828125 -2.265625 7.25 -2.0625 L 2.34375 1.53125 C 2.171875 1.65625 2.015625 1.6875 1.90625 1.65625 C 1.796875 1.59375 1.578125 1.375 1.296875 0.984375 L 1.046875 0.640625 L 0.671875 0.921875 C 0.875 1.140625 1.265625 1.671875 1.84375 2.46875 C 2.4375 3.28125 2.828125 3.796875 2.96875 4.0625 L 3.34375 3.78125 L 3.09375 3.4375 C 2.796875 3.03125 2.65625 2.78125 2.65625 2.671875 C 2.640625 2.546875 2.734375 2.421875 2.90625 2.296875 L 8.265625 -1.625 C 8.5 -1.796875 8.53125 -1.859375 8.34375 -2.109375 Z M 8.34375 -2.109375 "/>
</g>
<g id="glyph-10-1">
<path d="M 1.546875 2.5625 C 2.546875 3.9375 4.15625 3.796875 6.359375 2.1875 C 7.84375 1.109375 8.609375 0.0625 8.625 -0.90625 C 8.640625 -1.4375 8.5 -1.90625 8.203125 -2.296875 C 7.21875 -3.65625 5.609375 -3.53125 3.375 -1.890625 C 1.59375 -0.578125 0.40625 1.015625 1.546875 2.5625 Z M 7.625 -0.203125 C 7.34375 0.09375 6.734375 0.578125 5.84375 1.234375 C 4.9375 1.890625 4.28125 2.34375 3.78125 2.578125 C 2.921875 3.015625 2.28125 2.9375 1.84375 2.34375 C 1.6875 2.125 1.59375 1.84375 1.625 1.53125 C 1.65625 1.09375 2 0.609375 2.640625 0.015625 C 2.84375 -0.171875 3.359375 -0.5625 4.125 -1.125 C 4.96875 -1.734375 5.59375 -2.140625 5.921875 -2.328125 C 6.53125 -2.625 7 -2.6875 7.34375 -2.53125 C 7.625 -2.40625 7.796875 -2.25 7.921875 -2.09375 C 8.375 -1.46875 8.125 -0.75 7.625 -0.203125 Z M 7.625 -0.203125 "/>
</g>
</g>
<clipPath id="clip-0">
<path clip-rule="nonzero" d="M 69 86 L 127 86 L 127 130.519531 L 69 130.519531 Z M 69 86 "/>
</clipPath>
<clipPath id="clip-1">
<path clip-rule="nonzero" d="M 168 86 L 226 86 L 226 130.519531 L 168 130.519531 Z M 168 86 "/>
</clipPath>
<clipPath id="clip-2">
<path clip-rule="nonzero" d="M 163 97 L 200 97 L 200 130.519531 L 163 130.519531 Z M 163 97 "/>
</clipPath>
<clipPath id="clip-3">
<path clip-rule="nonzero" d="M 409 86 L 467 86 L 467 130.519531 L 409 130.519531 Z M 409 86 "/>
</clipPath>
<clipPath id="clip-4">
<path clip-rule="nonzero" d="M 508 86 L 566 86 L 566 130.519531 L 508 130.519531 Z M 508 86 "/>
</clipPath>
<clipPath id="clip-5">
<path clip-rule="nonzero" d="M 594 36 L 635.078125 36 L 635.078125 94 L 594 94 Z M 594 36 "/>
</clipPath>
<clipPath id="clip-6">
<path clip-rule="nonzero" d="M 504 97 L 540 97 L 540 130.519531 L 504 130.519531 Z M 504 97 "/>
</clipPath>
</defs>
<path fill-rule="nonzero" fill="rgb(93.331909%, 90.979004%, 83.529663%)" fill-opacity="1" stroke-width="1.19553" stroke-linecap="butt" stroke-linejoin="miter" stroke="rgb(34.510803%, 43.136597%, 45.881653%)" stroke-opacity="1" stroke-miterlimit="10" d="M 11.337438 0.00059375 C 11.337438 6.262313 6.263219 11.340438 0.0015 11.340438 C -6.264125 11.340438 -11.338344 6.262313 -11.338344 0.00059375 C -11.338344 -6.261125 -6.264125 -11.33925 0.0015 -11.33925 C 6.263219 -11.33925 11.337438 -6.261125 11.337438 0.00059375 Z M 11.337438 0.00059375 " transform="matrix(1, 0, 0, -1, 11.936, 65.192)"/>
<g fill="rgb(82.699585%, 21.199036%, 50.999451%)" fill-opacity="1">
<use xlink:href="#glyph-0-0" x="9.122" y="67.778"/>
</g>
<path fill-rule="nonzero" fill="rgb(93.331909%, 90.979004%, 83.529663%)" fill-opacity="1" stroke-width="1.19553" stroke-linecap="butt" stroke-linejoin="miter" stroke="rgb(34.510803%, 43.136597%, 45.881653%)" stroke-opacity="1" stroke-miterlimit="10" d="M 97.642125 49.606063 C 97.642125 56.078719 92.392125 61.324813 85.923375 61.324813 C 79.450719 61.324813 74.204625 56.078719 74.204625 49.606063 C 74.204625 43.133406 79.450719 37.887313 85.923375 37.887313 C 92.392125 37.887313 97.642125 43.133406 97.642125 49.606063 Z M 97.642125 49.606063 " transform="matrix(1, 0, 0, -1, 11.936, 65.192)"/>
<g fill="rgb(82.699585%, 21.199036%, 50.999451%)" fill-opacity="1">
<use xlink:href="#glyph-0-1" x="92.431" y="16.755"/>
</g>
<g fill="rgb(82.699585%, 21.199036%, 50.999451%)" fill-opacity="1">
<use xlink:href="#glyph-1-0" x="98.251" y="19.72"/>
</g>
<path fill-rule="nonzero" fill="rgb(93.331909%, 90.979004%, 83.529663%)" fill-opacity="1" d="M 109.578125 114.800781 C 109.578125 108.328125 104.328125 103.082031 97.859375 103.082031 C 91.386719 103.082031 86.140625 108.328125 86.140625 114.800781 C 86.140625 121.269531 91.386719 126.515625 97.859375 126.515625 C 104.328125 126.515625 109.578125 121.269531 109.578125 114.800781 Z M 109.578125 114.800781 "/>
<g clip-path="url(#clip-0)">
<path fill="none" stroke-width="1.19553" stroke-linecap="butt" stroke-linejoin="miter" stroke="rgb(34.510803%, 43.136597%, 45.881653%)" stroke-opacity="1" stroke-miterlimit="10" d="M 97.642125 -49.608781 C 97.642125 -43.136125 92.392125 -37.890031 85.923375 -37.890031 C 79.450719 -37.890031 74.204625 -43.136125 74.204625 -49.608781 C 74.204625 -56.077531 79.450719 -61.323625 85.923375 -61.323625 C 92.392125 -61.323625 97.642125 -56.077531 97.642125 -49.608781 Z M 97.642125 -49.608781 " transform="matrix(1, 0, 0, -1, 11.936, 65.192)"/>
</g>
<g fill="rgb(82.699585%, 21.199036%, 50.999451%)" fill-opacity="1">
<use xlink:href="#glyph-0-1" x="92.431" y="115.969"/>
</g>
<g fill="rgb(82.699585%, 21.199036%, 50.999451%)" fill-opacity="1">
<use xlink:href="#glyph-1-1" x="98.251" y="118.934"/>
</g>
<path fill-rule="nonzero" fill="rgb(93.331909%, 90.979004%, 83.529663%)" fill-opacity="1" stroke-width="1.19553" stroke-linecap="butt" stroke-linejoin="miter" stroke="rgb(34.510803%, 43.136597%, 45.881653%)" stroke-opacity="1" stroke-miterlimit="10" d="M 196.915562 49.606063 C 196.915562 56.113875 191.642125 61.387313 185.134312 61.387313 C 178.630406 61.387313 173.356969 56.113875 173.356969 49.606063 C 173.356969 43.102156 178.630406 37.828719 185.134312 37.828719 C 191.642125 37.828719 196.915562 43.102156 196.915562 49.606063 Z M 196.915562 49.606063 " transform="matrix(1, 0, 0, -1, 11.936, 65.192)"/>
<g fill="rgb(82.699585%, 21.199036%, 50.999451%)" fill-opacity="1">
<use xlink:href="#glyph-0-1" x="191.645" y="16.675"/>
</g>
<g fill="rgb(82.699585%, 21.199036%, 50.999451%)" fill-opacity="1">
<use xlink:href="#glyph-1-2" x="197.465" y="19.64"/>
</g>
<path fill-rule="nonzero" fill="rgb(93.331909%, 90.979004%, 83.529663%)" fill-opacity="1" d="M 208.789062 114.800781 C 208.789062 108.328125 203.542969 103.082031 197.070312 103.082031 C 190.601562 103.082031 185.351562 108.328125 185.351562 114.800781 C 185.351562 121.269531 190.601562 126.515625 197.070312 126.515625 C 203.542969 126.515625 208.789062 121.269531 208.789062 114.800781 Z M 208.789062 114.800781 "/>
<g clip-path="url(#clip-1)">
<path fill="none" stroke-width="1.19553" stroke-linecap="butt" stroke-linejoin="miter" stroke="rgb(34.510803%, 43.136597%, 45.881653%)" stroke-opacity="1" stroke-miterlimit="10" d="M 196.853062 -49.608781 C 196.853062 -43.136125 191.606969 -37.890031 185.134312 -37.890031 C 178.665562 -37.890031 173.415562 -43.136125 173.415562 -49.608781 C 173.415562 -56.077531 178.665562 -61.323625 185.134312 -61.323625 C 191.606969 -61.323625 196.853062 -56.077531 196.853062 -49.608781 Z M 196.853062 -49.608781 " transform="matrix(1, 0, 0, -1, 11.936, 65.192)"/>
</g>
<g fill="rgb(82.699585%, 21.199036%, 50.999451%)" fill-opacity="1">
<use xlink:href="#glyph-0-1" x="191.645" y="115.969"/>
</g>
<g fill="rgb(82.699585%, 21.199036%, 50.999451%)" fill-opacity="1">
<use xlink:href="#glyph-1-3" x="197.465" y="118.934"/>
</g>
<path fill-rule="nonzero" fill="rgb(93.331909%, 90.979004%, 83.529663%)" fill-opacity="1" stroke-width="1.19553" stroke-linecap="butt" stroke-linejoin="miter" stroke="rgb(34.510803%, 43.136597%, 45.881653%)" stroke-opacity="1" stroke-miterlimit="10" d="M 282.396031 0.00059375 C 282.396031 6.262313 277.321813 11.340438 271.056188 11.340438 C 264.794469 11.340438 259.72025 6.262313 259.72025 0.00059375 C 259.72025 -6.261125 264.794469 -11.33925 271.056188 -11.33925 C 277.321813 -11.33925 282.396031 -6.261125 282.396031 0.00059375 Z M 282.396031 0.00059375 " transform="matrix(1, 0, 0, -1, 11.936, 65.192)"/>
<g fill="rgb(82.699585%, 21.199036%, 50.999451%)" fill-opacity="1">
<use xlink:href="#glyph-0-2" x="280.828" y="68.882"/>
</g>
<path fill="none" stroke-width="1.19553" stroke-linecap="butt" stroke-linejoin="miter" stroke="rgb(34.498596%, 43.099976%, 45.899963%)" stroke-opacity="1" stroke-miterlimit="10" d="M 10.337438 5.969344 L 71.743687 41.422469 " transform="matrix(1, 0, 0, -1, 11.936, 65.192)"/>
<path fill-rule="nonzero" fill="rgb(34.498596%, 43.099976%, 45.899963%)" fill-opacity="1" stroke-width="1.12978" stroke-linecap="butt" stroke-linejoin="miter" stroke="rgb(34.498596%, 43.099976%, 45.899963%)" stroke-opacity="1" stroke-miterlimit="10" d="M 5.084838 0.00137139 L 1.823678 1.243652 L 2.923357 -0.000169116 L 1.823296 -1.241484 Z M 5.084838 0.00137139 " transform="matrix(0.86601, -0.49998, -0.49998, -0.86601, 81.39404, 25.09038)"/>
<g fill="rgb(82.699585%, 21.199036%, 50.999451%)" fill-opacity="1">
<use xlink:href="#glyph-2-0" x="47.355611" y="39.706601"/>
<use xlink:href="#glyph-2-1" x="52.551671" y="36.706721"/>
</g>
<path fill="none" stroke-width="1.19553" stroke-linecap="butt" stroke-linejoin="miter" stroke="rgb(34.498596%, 43.099976%, 45.899963%)" stroke-opacity="1" stroke-miterlimit="10" d="M 10.337438 -5.968156 L 71.743687 -41.421281 " transform="matrix(1, 0, 0, -1, 11.936, 65.192)"/>
<path fill-rule="nonzero" fill="rgb(34.498596%, 43.099976%, 45.899963%)" fill-opacity="1" stroke-width="1.12978" stroke-linecap="butt" stroke-linejoin="miter" stroke="rgb(34.498596%, 43.099976%, 45.899963%)" stroke-opacity="1" stroke-miterlimit="10" d="M 5.084244 -0.000342951 L 1.822702 1.242513 L 2.922764 0.00119755 L 1.823084 -1.242623 Z M 5.084244 -0.000342951 " transform="matrix(0.86601, 0.49998, 0.49998, -0.86601, 81.39404, 105.29362)"/>
<g fill="rgb(82.699585%, 21.199036%, 50.999451%)" fill-opacity="1">
<use xlink:href="#glyph-3-0" x="43.492339" y="97.370003"/>
<use xlink:href="#glyph-3-1" x="48.688399" y="100.369883"/>
</g>
<path fill="none" stroke-width="1.19553" stroke-linecap="butt" stroke-linejoin="miter" stroke="rgb(34.498596%, 43.099976%, 45.899963%)" stroke-opacity="1" stroke-miterlimit="10" d="M 85.921789 37.289656 L 85.921789 -33.237687 " transform="matrix(1, 0, 0, -1, 13.74618, 65.192)"/>
<path fill-rule="nonzero" fill="rgb(34.498596%, 43.099976%, 45.899963%)" fill-opacity="1" stroke-width="1.12978" stroke-linecap="butt" stroke-linejoin="miter" stroke="rgb(34.498596%, 43.099976%, 45.899963%)" stroke-opacity="1" stroke-miterlimit="10" d="M 5.08725 -0.00013125 L 1.825531 1.242056 L 2.923187 -0.00013125 L 1.825531 -1.242319 Z M 5.08725 -0.00013125 " transform="matrix(0, 1, 1, 0, 99.6681, 95.78775)"/>
<g fill="rgb(82.699585%, 21.199036%, 50.999451%)" fill-opacity="1">
<use xlink:href="#glyph-4-0" x="104.03018" y="59.192"/>
<use xlink:href="#glyph-4-1" x="104.03018" y="65.192"/>
</g>
<path fill="none" stroke-width="1.19553" stroke-linecap="butt" stroke-linejoin="miter" stroke="rgb(34.498596%, 43.099976%, 45.899963%)" stroke-opacity="1" stroke-miterlimit="10" d="M 85.921055 -37.292375 L 85.921055 33.234969 " transform="matrix(1, 0, 0, -1, 10.12582, 65.192)"/>
<path fill-rule="nonzero" fill="rgb(34.498596%, 43.099976%, 45.899963%)" fill-opacity="1" stroke-width="1.12978" stroke-linecap="butt" stroke-linejoin="miter" stroke="rgb(34.498596%, 43.099976%, 45.899963%)" stroke-opacity="1" stroke-miterlimit="10" d="M 5.084531 0.000865 L 1.822813 1.243053 L 2.924375 0.000865 L 1.822813 -1.241322 Z M 5.084531 0.000865 " transform="matrix(0, -1, -1, 0, 96.04774, 34.59625)"/>
<g fill="rgb(82.699585%, 21.199036%, 50.999451%)" fill-opacity="1">
<use xlink:href="#glyph-5-0" x="91.95082" y="68.193"/>
</g>
<path fill="none" stroke-width="1.19553" stroke-linecap="butt" stroke-linejoin="miter" stroke="rgb(34.498596%, 43.099976%, 45.899963%)" stroke-opacity="1" stroke-miterlimit="10" d="M 98.239781 49.606063 L 168.704625 49.606063 " transform="matrix(1, 0, 0, -1, 11.936, 65.192)"/>
<path fill-rule="nonzero" fill="rgb(34.498596%, 43.099976%, 45.899963%)" fill-opacity="1" stroke-width="1.12978" stroke-linecap="butt" stroke-linejoin="miter" stroke="rgb(34.498596%, 43.099976%, 45.899963%)" stroke-opacity="1" stroke-miterlimit="10" d="M 5.085907 -0.0008375 L 1.824189 1.24135 L 2.921845 -0.0008375 L 1.824189 -1.243025 Z M 5.085907 -0.0008375 " transform="matrix(1, 0, 0, -1, 178.00003, 15.5851)"/>
<g fill="rgb(82.699585%, 21.199036%, 50.999451%)" fill-opacity="1">
<use xlink:href="#glyph-0-3" x="141.434" y="11.488"/>
<use xlink:href="#glyph-0-4" x="147.434" y="11.488"/>
</g>
<path fill="none" stroke-width="1.19553" stroke-linecap="butt" stroke-linejoin="miter" stroke="rgb(34.498596%, 43.099976%, 45.899963%)" stroke-opacity="1" stroke-miterlimit="10" d="M 98.239781 -49.608781 L 168.767125 -49.608781 " transform="matrix(1, 0, 0, -1, 11.936, 65.192)"/>
<path fill-rule="nonzero" fill="rgb(34.498596%, 43.099976%, 45.899963%)" fill-opacity="1" d="M 183.148438 114.800781 L 179.886719 113.558594 L 180.984375 114.800781 L 179.886719 116.039062 Z M 183.148438 114.800781 "/>
<g clip-path="url(#clip-2)">
<path fill="none" stroke-width="1.12978" stroke-linecap="butt" stroke-linejoin="miter" stroke="rgb(34.498596%, 43.099976%, 45.899963%)" stroke-opacity="1" stroke-miterlimit="10" d="M 5.087838 -0.00188125 L 1.826119 1.240306 L 2.923775 -0.00188125 L 1.826119 -1.240162 Z M 5.087838 -0.00188125 " transform="matrix(1, 0, 0, -1, 178.0606, 114.7989)"/>
</g>
<g fill="rgb(82.699585%, 21.199036%, 50.999451%)" fill-opacity="1">
<use xlink:href="#glyph-0-3" x="141.465" y="127.02"/>
<use xlink:href="#glyph-0-5" x="147.465" y="127.02"/>
</g>
<path fill="none" stroke-width="1.19553" stroke-linecap="butt" stroke-linejoin="miter" stroke="rgb(34.498596%, 43.099976%, 45.899963%)" stroke-opacity="1" stroke-miterlimit="10" d="M 185.134312 -37.292375 L 185.134312 33.176375 " transform="matrix(1, 0, 0, -1, 11.936, 65.192)"/>
<path fill-rule="nonzero" fill="rgb(34.498596%, 43.099976%, 45.899963%)" fill-opacity="1" stroke-width="1.12978" stroke-linecap="butt" stroke-linejoin="miter" stroke="rgb(34.498596%, 43.099976%, 45.899963%)" stroke-opacity="1" stroke-miterlimit="10" d="M 5.086498 0.0014475 L 1.824779 1.243635 L 2.922435 0.0014475 L 1.824779 -1.24074 Z M 5.086498 0.0014475 " transform="matrix(0, -1, -1, 0, 197.07176, 34.65681)"/>
<g fill="rgb(82.699585%, 21.199036%, 50.999451%)" fill-opacity="1">
<use xlink:href="#glyph-5-1" x="192.71" y="68.301"/>
</g>
<path fill="none" stroke-width="1.19553" stroke-linecap="butt" stroke-linejoin="miter" stroke="rgb(34.498596%, 43.099976%, 45.899963%)" stroke-opacity="1" stroke-miterlimit="10" d="M 176.384312 40.856063 L 97.497594 -38.030656 " transform="matrix(1, 0, 0, -1, 11.936, 65.192)"/>
<path fill-rule="nonzero" fill="rgb(34.498596%, 43.099976%, 45.899963%)" fill-opacity="1" stroke-width="1.12978" stroke-linecap="butt" stroke-linejoin="miter" stroke="rgb(34.498596%, 43.099976%, 45.899963%)" stroke-opacity="1" stroke-miterlimit="10" d="M 5.087569 -0.000417197 L 1.822693 1.242556 L 2.922034 -0.000417197 L 1.825455 -1.240628 Z M 5.087569 -0.000417197 " transform="matrix(-0.7071, 0.7071, 0.7071, 0.7071, 111.30084, 101.356)"/>
<g fill="rgb(82.699585%, 21.199036%, 50.999451%)" fill-opacity="1">
<use xlink:href="#glyph-6-0" x="142.23793" y="64.251439"/>
</g>
<path fill="none" stroke-width="1.19553" stroke-linecap="butt" stroke-linejoin="miter" stroke="rgb(34.498596%, 43.099976%, 45.899963%)" stroke-opacity="1" stroke-miterlimit="10" d="M 195.853062 43.418563 L 257.208531 7.996688 " transform="matrix(1, 0, 0, -1, 11.936, 65.192)"/>
<path fill-rule="nonzero" fill="rgb(34.498596%, 43.099976%, 45.899963%)" fill-opacity="1" stroke-width="1.12978" stroke-linecap="butt" stroke-linejoin="miter" stroke="rgb(34.498596%, 43.099976%, 45.899963%)" stroke-opacity="1" stroke-miterlimit="10" d="M 5.084049 0.000583738 L 1.824471 1.239988 L 2.924543 -0.00129616 L 1.822943 -1.241741 Z M 5.084049 0.000583738 " transform="matrix(0.86601, 0.5, 0.5, -0.86601, 266.85859, 55.87645)"/>
<g fill="rgb(82.699585%, 21.199036%, 50.999451%)" fill-opacity="1">
<use xlink:href="#glyph-7-0" x="237.208475" y="33.721802"/>
<use xlink:href="#glyph-7-1" x="242.404535" y="36.721802"/>
</g>
<path fill="none" stroke-width="1.19553" stroke-linecap="butt" stroke-linejoin="miter" stroke="rgb(34.498596%, 43.099976%, 45.899963%)" stroke-opacity="1" stroke-miterlimit="10" d="M 195.802281 -43.448625 L 257.208531 -7.9955 " transform="matrix(1, 0, 0, -1, 11.936, 65.192)"/>
<path fill-rule="nonzero" fill="rgb(34.498596%, 43.099976%, 45.899963%)" fill-opacity="1" stroke-width="1.12978" stroke-linecap="butt" stroke-linejoin="miter" stroke="rgb(34.498596%, 43.099976%, 45.899963%)" stroke-opacity="1" stroke-miterlimit="10" d="M 5.084638 0.000437486 L 1.823478 1.242718 L 2.923157 -0.00110302 L 1.823096 -1.242418 Z M 5.084638 0.000437486 " transform="matrix(0.86601, -0.49998, -0.49998, -0.86601, 266.85859, 74.50744)"/>
<g fill="rgb(82.699585%, 21.199036%, 50.999451%)" fill-opacity="1">
<use xlink:href="#glyph-2-2" x="243.709611" y="101.984601"/>
</g>
<path fill-rule="nonzero" fill="rgb(93.331909%, 90.979004%, 83.529663%)" fill-opacity="1" stroke-width="1.19553" stroke-linecap="butt" stroke-linejoin="miter" stroke="rgb(34.510803%, 43.136597%, 45.881653%)" stroke-opacity="1" stroke-miterlimit="10" d="M 351.5015 0.00059375 C 351.5015 6.262313 346.423375 11.340438 340.161656 11.340438 C 333.899938 11.340438 328.821813 6.262313 328.821813 0.00059375 C 328.821813 -6.261125 333.899938 -11.33925 340.161656 -11.33925 C 346.423375 -11.33925 351.5015 -6.261125 351.5015 0.00059375 Z M 351.5015 0.00059375 " transform="matrix(1, 0, 0, -1, 11.936, 65.192)"/>
<g fill="rgb(82.699585%, 21.199036%, 50.999451%)" fill-opacity="1">
<use xlink:href="#glyph-0-0" x="349.284" y="67.778"/>
</g>
<path fill-rule="nonzero" fill="rgb(93.331909%, 90.979004%, 83.529663%)" fill-opacity="1" stroke-width="1.19553" stroke-linecap="butt" stroke-linejoin="miter" stroke="rgb(34.510803%, 43.136597%, 45.881653%)" stroke-opacity="1" stroke-miterlimit="10" d="M 437.802281 49.606063 C 437.802281 56.078719 432.556188 61.324813 426.083531 61.324813 C 419.610875 61.324813 414.364781 56.078719 414.364781 49.606063 C 414.364781 43.133406 419.610875 37.887313 426.083531 37.887313 C 432.556188 37.887313 437.802281 43.133406 437.802281 49.606063 Z M 437.802281 49.606063 " transform="matrix(1, 0, 0, -1, 11.936, 65.192)"/>
<g fill="rgb(82.699585%, 21.199036%, 50.999451%)" fill-opacity="1">
<use xlink:href="#glyph-0-1" x="432.593" y="16.755"/>
</g>
<g fill="rgb(82.699585%, 21.199036%, 50.999451%)" fill-opacity="1">
<use xlink:href="#glyph-1-0" x="438.413" y="19.72"/>
</g>
<path fill-rule="nonzero" fill="rgb(93.331909%, 90.979004%, 83.529663%)" fill-opacity="1" d="M 449.738281 114.800781 C 449.738281 108.328125 444.492188 103.082031 438.019531 103.082031 C 431.546875 103.082031 426.300781 108.328125 426.300781 114.800781 C 426.300781 121.269531 431.546875 126.515625 438.019531 126.515625 C 444.492188 126.515625 449.738281 121.269531 449.738281 114.800781 Z M 449.738281 114.800781 "/>
<g clip-path="url(#clip-3)">
<path fill="none" stroke-width="1.19553" stroke-linecap="butt" stroke-linejoin="miter" stroke="rgb(34.510803%, 43.136597%, 45.881653%)" stroke-opacity="1" stroke-miterlimit="10" d="M 437.802281 -49.608781 C 437.802281 -43.136125 432.556188 -37.890031 426.083531 -37.890031 C 419.610875 -37.890031 414.364781 -43.136125 414.364781 -49.608781 C 414.364781 -56.077531 419.610875 -61.323625 426.083531 -61.323625 C 432.556188 -61.323625 437.802281 -56.077531 437.802281 -49.608781 Z M 437.802281 -49.608781 " transform="matrix(1, 0, 0, -1, 11.936, 65.192)"/>
</g>
<g fill="rgb(82.699585%, 21.199036%, 50.999451%)" fill-opacity="1">
<use xlink:href="#glyph-0-1" x="432.593" y="115.969"/>
</g>
<g fill="rgb(82.699585%, 21.199036%, 50.999451%)" fill-opacity="1">
<use xlink:href="#glyph-1-1" x="438.413" y="118.934"/>
</g>
<path fill-rule="nonzero" fill="rgb(93.331909%, 90.979004%, 83.529663%)" fill-opacity="1" stroke-width="1.19553" stroke-linecap="butt" stroke-linejoin="miter" stroke="rgb(34.510803%, 43.136597%, 45.881653%)" stroke-opacity="1" stroke-miterlimit="10" d="M 537.075719 49.606063 C 537.075719 56.113875 531.802281 61.387313 525.298375 61.387313 C 518.790562 61.387313 513.517125 56.113875 513.517125 49.606063 C 513.517125 43.102156 518.790562 37.828719 525.298375 37.828719 C 531.802281 37.828719 537.075719 43.102156 537.075719 49.606063 Z M 537.075719 49.606063 " transform="matrix(1, 0, 0, -1, 11.936, 65.192)"/>
<g fill="rgb(82.699585%, 21.199036%, 50.999451%)" fill-opacity="1">
<use xlink:href="#glyph-0-1" x="531.807" y="16.675"/>
</g>
<g fill="rgb(82.699585%, 21.199036%, 50.999451%)" fill-opacity="1">
<use xlink:href="#glyph-1-2" x="537.627" y="19.64"/>
</g>
<path fill-rule="nonzero" fill="rgb(93.331909%, 90.979004%, 83.529663%)" fill-opacity="1" d="M 548.953125 114.800781 C 548.953125 108.328125 543.707031 103.082031 537.234375 103.082031 C 530.761719 103.082031 525.515625 108.328125 525.515625 114.800781 C 525.515625 121.269531 530.761719 126.515625 537.234375 126.515625 C 543.707031 126.515625 548.953125 121.269531 548.953125 114.800781 Z M 548.953125 114.800781 "/>
<g clip-path="url(#clip-4)">
<path fill="none" stroke-width="1.19553" stroke-linecap="butt" stroke-linejoin="miter" stroke="rgb(34.510803%, 43.136597%, 45.881653%)" stroke-opacity="1" stroke-miterlimit="10" d="M 537.017125 -49.608781 C 537.017125 -43.136125 531.771031 -37.890031 525.298375 -37.890031 C 518.825719 -37.890031 513.579625 -43.136125 513.579625 -49.608781 C 513.579625 -56.077531 518.825719 -61.323625 525.298375 -61.323625 C 531.771031 -61.323625 537.017125 -56.077531 537.017125 -49.608781 Z M 537.017125 -49.608781 " transform="matrix(1, 0, 0, -1, 11.936, 65.192)"/>
</g>
<g fill="rgb(82.699585%, 21.199036%, 50.999451%)" fill-opacity="1">
<use xlink:href="#glyph-0-1" x="531.807" y="115.969"/>
</g>
<g fill="rgb(82.699585%, 21.199036%, 50.999451%)" fill-opacity="1">
<use xlink:href="#glyph-1-3" x="537.627" y="118.934"/>
</g>
<path fill-rule="nonzero" fill="rgb(93.331909%, 90.979004%, 83.529663%)" fill-opacity="1" d="M 634.496094 65.191406 C 634.496094 58.929688 629.417969 53.851562 623.15625 53.851562 C 616.894531 53.851562 611.816406 58.929688 611.816406 65.191406 C 611.816406 71.453125 616.894531 76.53125 623.15625 76.53125 C 629.417969 76.53125 634.496094 71.453125 634.496094 65.191406 Z M 634.496094 65.191406 "/>
<g clip-path="url(#clip-5)">
<path fill="none" stroke-width="1.19553" stroke-linecap="butt" stroke-linejoin="miter" stroke="rgb(34.510803%, 43.136597%, 45.881653%)" stroke-opacity="1" stroke-miterlimit="10" d="M 622.560094 0.00059375 C 622.560094 6.262313 617.481969 11.340438 611.22025 11.340438 C 604.958531 11.340438 599.880406 6.262313 599.880406 0.00059375 C 599.880406 -6.261125 604.958531 -11.33925 611.22025 -11.33925 C 617.481969 -11.33925 622.560094 -6.261125 622.560094 0.00059375 Z M 622.560094 0.00059375 " transform="matrix(1, 0, 0, -1, 11.936, 65.192)"/>
</g>
<g fill="rgb(82.699585%, 21.199036%, 50.999451%)" fill-opacity="1">
<use xlink:href="#glyph-0-2" x="620.989" y="68.882"/>
</g>
<path fill-rule="nonzero" fill="rgb(93.331909%, 90.979004%, 83.529663%)" fill-opacity="1" stroke-width="1.19553" stroke-linecap="butt" stroke-linejoin="miter" stroke="rgb(34.510803%, 43.136597%, 45.881653%)" stroke-opacity="1" stroke-miterlimit="10" d="M 401.106969 0.00059375 C 401.106969 6.262313 396.03275 11.340438 389.767125 11.340438 C 383.505406 11.340438 378.431188 6.262313 378.431188 0.00059375 C 378.431188 -6.261125 383.505406 -11.33925 389.767125 -11.33925 C 396.03275 -11.33925 401.106969 -6.261125 401.106969 0.00059375 Z M 401.106969 0.00059375 " transform="matrix(1, 0, 0, -1, 11.936, 65.192)"/>
<g fill="rgb(82.699585%, 21.199036%, 50.999451%)" fill-opacity="1">
<use xlink:href="#glyph-0-1" x="398.729" y="67.778"/>
</g>
<g fill="rgb(82.699585%, 21.199036%, 50.999451%)" fill-opacity="1">
<use xlink:href="#glyph-8-0" x="306.244" y="69.692"/>
</g>
<path fill="none" stroke-width="1.19553" stroke-linecap="butt" stroke-linejoin="miter" stroke="rgb(34.498596%, 43.099976%, 45.899963%)" stroke-opacity="1" stroke-miterlimit="10" d="M 350.497594 5.969344 L 411.90775 41.422469 " transform="matrix(1, 0, 0, -1, 11.936, 65.192)"/>
<path fill-rule="nonzero" fill="rgb(34.498596%, 43.099976%, 45.899963%)" fill-opacity="1" stroke-width="1.12978" stroke-linecap="butt" stroke-linejoin="miter" stroke="rgb(34.498596%, 43.099976%, 45.899963%)" stroke-opacity="1" stroke-miterlimit="10" d="M 5.086858 0.000205128 L 1.825698 1.242486 L 2.921994 0.000617764 L 1.825316 -1.242651 Z M 5.086858 0.000205128 " transform="matrix(0.86601, -0.49998, -0.49998, -0.86601, 421.55577, 25.09038)"/>
<g fill="rgb(82.699585%, 21.199036%, 50.999451%)" fill-opacity="1">
<use xlink:href="#glyph-2-0" x="387.517611" y="39.706601"/>
<use xlink:href="#glyph-2-1" x="392.713671" y="36.706721"/>
</g>
<path fill="none" stroke-width="1.19553" stroke-linecap="butt" stroke-linejoin="miter" stroke="rgb(34.498596%, 43.099976%, 45.899963%)" stroke-opacity="1" stroke-miterlimit="10" d="M 350.497594 -5.968156 L 411.90775 -41.421281 " transform="matrix(1, 0, 0, -1, 11.936, 65.192)"/>
<path fill-rule="nonzero" fill="rgb(34.498596%, 43.099976%, 45.899963%)" fill-opacity="1" stroke-width="1.12978" stroke-linecap="butt" stroke-linejoin="miter" stroke="rgb(34.498596%, 43.099976%, 45.899963%)" stroke-opacity="1" stroke-miterlimit="10" d="M 5.086264 0.000823307 L 1.824722 1.243679 L 2.921401 0.00041067 L 1.825104 -1.241457 Z M 5.086264 0.000823307 " transform="matrix(0.86601, 0.49998, 0.49998, -0.86601, 421.55577, 105.29362)"/>
<g fill="rgb(82.699585%, 21.199036%, 50.999451%)" fill-opacity="1">
<use xlink:href="#glyph-3-0" x="383.653339" y="97.370003"/>
<use xlink:href="#glyph-3-1" x="388.849399" y="100.369883"/>
</g>
<path fill="none" stroke-width="1.19553" stroke-linecap="butt" stroke-linejoin="miter" stroke="rgb(34.498596%, 43.099976%, 45.899963%)" stroke-opacity="1" stroke-miterlimit="10" d="M 426.083531 -37.292375 L 426.083531 33.234969 " transform="matrix(1, 0, 0, -1, 11.936, 65.192)"/>
<path fill-rule="nonzero" fill="rgb(34.498596%, 43.099976%, 45.899963%)" fill-opacity="1" stroke-width="1.12978" stroke-linecap="butt" stroke-linejoin="miter" stroke="rgb(34.498596%, 43.099976%, 45.899963%)" stroke-opacity="1" stroke-miterlimit="10" d="M 5.084531 0.00011875 L 1.822813 1.242306 L 2.924375 0.00011875 L 1.822813 -1.242069 Z M 5.084531 0.00011875 " transform="matrix(0, -1, -1, 0, 438.01965, 34.59625)"/>
<g fill="rgb(82.699585%, 21.199036%, 50.999451%)" fill-opacity="1">
<use xlink:href="#glyph-5-0" x="450.241" y="68.193"/>
</g>
<path fill="none" stroke-width="1.19553" stroke-linecap="butt" stroke-linejoin="miter" stroke="rgb(34.498596%, 43.099976%, 45.899963%)" stroke-opacity="1" stroke-miterlimit="10" d="M 418.810094 39.668563 L 399.212438 12.902938 " transform="matrix(1, 0, 0, -1, 11.936, 65.192)"/>
<path fill-rule="nonzero" fill="rgb(34.498596%, 43.099976%, 45.899963%)" fill-opacity="1" stroke-width="1.12978" stroke-linecap="butt" stroke-linejoin="miter" stroke="rgb(34.498596%, 43.099976%, 45.899963%)" stroke-opacity="1" stroke-miterlimit="10" d="M 5.084395 0.00073252 L 1.824204 1.240194 L 2.924037 0.00232509 L 1.825913 -1.24211 Z M 5.084395 0.00073252 " transform="matrix(-0.59067, 0.80687, 0.80687, 0.59067, 412.70964, 50.15884)"/>
<g fill="rgb(82.699585%, 21.199036%, 50.999451%)" fill-opacity="1">
<use xlink:href="#glyph-9-0" x="425.960247" y="52.52433"/>
<use xlink:href="#glyph-9-1" x="429.504267" y="47.68311"/>
</g>
<path fill="none" stroke-width="1.19553" stroke-linecap="butt" stroke-linejoin="miter" stroke="rgb(34.498596%, 43.099976%, 45.899963%)" stroke-opacity="1" stroke-miterlimit="10" d="M 396.817906 -9.632219 L 416.415563 -36.397844 " transform="matrix(1, 0, 0, -1, 11.936, 65.192)"/>
<path fill-rule="nonzero" fill="rgb(34.498596%, 43.099976%, 45.899963%)" fill-opacity="1" stroke-width="1.12978" stroke-linecap="butt" stroke-linejoin="miter" stroke="rgb(34.498596%, 43.099976%, 45.899963%)" stroke-opacity="1" stroke-miterlimit="10" d="M 5.084548 -0.000881516 L 1.826066 1.241961 L 2.921038 -0.000166622 L 1.824357 -1.240343 Z M 5.084548 -0.000881516 " transform="matrix(0.59067, 0.80687, 0.80687, -0.59067, 426.79039, 99.45941)"/>
<g fill="rgb(82.699585%, 21.199036%, 50.999451%)" fill-opacity="1">
<use xlink:href="#glyph-10-0" x="419.725747" y="82.424651"/>
<use xlink:href="#glyph-10-1" x="423.269767" y="87.265871"/>
</g>
<path fill="none" stroke-width="1.19553" stroke-linecap="butt" stroke-linejoin="miter" stroke="rgb(34.498596%, 43.099976%, 45.899963%)" stroke-opacity="1" stroke-miterlimit="10" d="M 438.399938 49.606063 L 508.864781 49.606063 " transform="matrix(1, 0, 0, -1, 11.936, 65.192)"/>
<path fill-rule="nonzero" fill="rgb(34.498596%, 43.099976%, 45.899963%)" fill-opacity="1" stroke-width="1.12978" stroke-linecap="butt" stroke-linejoin="miter" stroke="rgb(34.498596%, 43.099976%, 45.899963%)" stroke-opacity="1" stroke-miterlimit="10" d="M 5.084344 -0.0008375 L 1.822625 1.24135 L 2.924188 -0.0008375 L 1.822625 -1.243025 Z M 5.084344 -0.0008375 " transform="matrix(1, 0, 0, -1, 518.16175, 15.5851)"/>
<g fill="rgb(82.699585%, 21.199036%, 50.999451%)" fill-opacity="1">
<use xlink:href="#glyph-0-3" x="481.596" y="11.488"/>
<use xlink:href="#glyph-0-4" x="487.596" y="11.488"/>
</g>
<path fill="none" stroke-width="1.19553" stroke-linecap="butt" stroke-linejoin="miter" stroke="rgb(34.498596%, 43.099976%, 45.899963%)" stroke-opacity="1" stroke-miterlimit="10" d="M 438.399938 -49.608781 L 508.927281 -49.608781 " transform="matrix(1, 0, 0, -1, 11.936, 65.192)"/>
<path fill-rule="nonzero" fill="rgb(34.498596%, 43.099976%, 45.899963%)" fill-opacity="1" d="M 523.308594 114.800781 L 520.046875 113.558594 L 521.144531 114.800781 L 520.046875 116.039062 Z M 523.308594 114.800781 "/>
<g clip-path="url(#clip-6)">
<path fill="none" stroke-width="1.12978" stroke-linecap="butt" stroke-linejoin="miter" stroke="rgb(34.498596%, 43.099976%, 45.899963%)" stroke-opacity="1" stroke-miterlimit="10" d="M 5.086274 -0.00188125 L 1.824555 1.240306 L 2.922211 -0.00188125 L 1.824555 -1.240162 Z M 5.086274 -0.00188125 " transform="matrix(1, 0, 0, -1, 518.22232, 114.7989)"/>
</g>
<g fill="rgb(82.699585%, 21.199036%, 50.999451%)" fill-opacity="1">
<use xlink:href="#glyph-0-3" x="481.626" y="127.02"/>
<use xlink:href="#glyph-0-5" x="487.626" y="127.02"/>
</g>
<path fill="none" stroke-width="1.19553" stroke-linecap="butt" stroke-linejoin="miter" stroke="rgb(34.498596%, 43.099976%, 45.899963%)" stroke-opacity="1" stroke-miterlimit="10" d="M 525.298375 -37.292375 L 525.298375 33.176375 " transform="matrix(1, 0, 0, -1, 11.936, 65.192)"/>
<path fill-rule="nonzero" fill="rgb(34.498596%, 43.099976%, 45.899963%)" fill-opacity="1" stroke-width="1.12978" stroke-linecap="butt" stroke-linejoin="miter" stroke="rgb(34.498596%, 43.099976%, 45.899963%)" stroke-opacity="1" stroke-miterlimit="10" d="M 5.086498 -0.000905 L 1.824779 1.241283 L 2.922435 -0.000905 L 1.824779 -1.243092 Z M 5.086498 -0.000905 " transform="matrix(0, -1, -1, 0, 537.23347, 34.65681)"/>
<g fill="rgb(82.699585%, 21.199036%, 50.999451%)" fill-opacity="1">
<use xlink:href="#glyph-5-1" x="532.872" y="68.301"/>
</g>
<path fill="none" stroke-width="1.19553" stroke-linecap="butt" stroke-linejoin="miter" stroke="rgb(34.498596%, 43.099976%, 45.899963%)" stroke-opacity="1" stroke-miterlimit="10" d="M 516.544469 40.856063 L 437.65775 -38.030656 " transform="matrix(1, 0, 0, -1, 11.936, 65.192)"/>
<path fill-rule="nonzero" fill="rgb(34.498596%, 43.099976%, 45.899963%)" fill-opacity="1" stroke-width="1.12978" stroke-linecap="butt" stroke-linejoin="miter" stroke="rgb(34.498596%, 43.099976%, 45.899963%)" stroke-opacity="1" stroke-miterlimit="10" d="M 5.085905 0.00124629 L 1.823792 1.241457 L 2.923132 -0.00151587 L 1.826554 -1.241727 Z M 5.085905 0.00124629 " transform="matrix(-0.7071, 0.7071, 0.7071, 0.7071, 451.46255, 101.356)"/>
<g fill="rgb(82.699585%, 21.199036%, 50.999451%)" fill-opacity="1">
<use xlink:href="#glyph-6-0" x="482.39993" y="64.251439"/>
</g>
<path fill="none" stroke-width="1.19553" stroke-linecap="butt" stroke-linejoin="miter" stroke="rgb(34.498596%, 43.099976%, 45.899963%)" stroke-opacity="1" stroke-miterlimit="10" d="M 536.017125 43.418563 L 597.372594 7.996688 " transform="matrix(1, 0, 0, -1, 11.936, 65.192)"/>
<path fill-rule="nonzero" fill="rgb(34.498596%, 43.099976%, 45.899963%)" fill-opacity="1" stroke-width="1.12978" stroke-linecap="butt" stroke-linejoin="miter" stroke="rgb(34.498596%, 43.099976%, 45.899963%)" stroke-opacity="1" stroke-miterlimit="10" d="M 5.086086 0.00176002 L 1.826508 1.241164 L 2.923197 -0.00207305 L 1.82498 -1.240564 Z M 5.086086 0.00176002 " transform="matrix(0.86601, 0.5, 0.5, -0.86601, 607.0203, 55.87645)"/>
<g fill="rgb(82.699585%, 21.199036%, 50.999451%)" fill-opacity="1">
<use xlink:href="#glyph-7-0" x="577.369475" y="33.721802"/>
<use xlink:href="#glyph-7-1" x="582.565535" y="36.721802"/>
</g>
<path fill="none" stroke-width="1.19553" stroke-linecap="butt" stroke-linejoin="miter" stroke="rgb(34.498596%, 43.099976%, 45.899963%)" stroke-opacity="1" stroke-miterlimit="10" d="M 535.962437 -43.448625 L 597.372594 -7.9955 " transform="matrix(1, 0, 0, -1, 11.936, 65.192)"/>
<path fill-rule="nonzero" fill="rgb(34.498596%, 43.099976%, 45.899963%)" fill-opacity="1" stroke-width="1.12978" stroke-linecap="butt" stroke-linejoin="miter" stroke="rgb(34.498596%, 43.099976%, 45.899963%)" stroke-opacity="1" stroke-miterlimit="10" d="M 5.086676 -0.000738771 L 1.825516 1.241542 L 2.921812 -0.000326135 L 1.825134 -1.243594 Z M 5.086676 -0.000738771 " transform="matrix(0.86601, -0.49998, -0.49998, -0.86601, 607.0203, 74.50744)"/>
<g fill="rgb(82.699585%, 21.199036%, 50.999451%)" fill-opacity="1">
<use xlink:href="#glyph-2-2" x="583.871611" y="101.984601"/>
</g>
</svg>
