<?xml version="1.0" encoding="UTF-8" standalone="no"?>
<!-- Created with Inkscape (http://www.inkscape.org/) -->

<svg
   version="1.1"
   id="svg1"
   width="315.29883"
   height="195.49153"
   viewBox="0 0 315.29882 195.49153"
   sodipodi:docname="max-flow-edge-disjoint2.svg"
   inkscape:version="1.4 (e7c3feb100, 2024-10-09)"
   xmlns:inkscape="http://www.inkscape.org/namespaces/inkscape"
   xmlns:sodipodi="http://sodipodi.sourceforge.net/DTD/sodipodi-0.dtd"
   xmlns="http://www.w3.org/2000/svg"
   xmlns:svg="http://www.w3.org/2000/svg">
  <defs
     id="defs1" />
  <sodipodi:namedview
     id="namedview1"
     pagecolor="#ffffff"
     bordercolor="#666666"
     borderopacity="1.0"
     inkscape:showpageshadow="2"
     inkscape:pageopacity="0.0"
     inkscape:pagecheckerboard="0"
     inkscape:deskcolor="#d1d1d1"
     inkscape:zoom="0.90509668"
     inkscape:cx="111.59029"
     inkscape:cy="253.56407"
     inkscape:window-width="3840"
     inkscape:window-height="2346"
     inkscape:window-x="0"
     inkscape:window-y="54"
     inkscape:window-maximized="1"
     inkscape:current-layer="g1">
    <inkscape:page
       x="0"
       y="0"
       inkscape:label="1"
       id="page1"
       width="315.29883"
       height="195.49153"
       margin="0"
       bleed="0" />
  </sodipodi:namedview>
  <g
     id="g1"
     inkscape:groupmode="layer"
     inkscape:label="1"
     transform="translate(-687.07966,-269.40622)">
    <g
       id="g70">
      <path
         id="path32"
         d="m 266.46004,0 c 0,6.2623 -5.07645,11.33876 -11.33876,11.33876 -6.2623,0 -11.33876,-5.07646 -11.33876,-11.33876 0,-6.2623 5.07646,-11.33876 11.33876,-11.33876 6.26231,0 11.33876,5.07646 11.33876,11.33876 z"
         style="fill:#eee8d5;fill-opacity:1;fill-rule:nonzero;stroke:#586e75;stroke-width:1.19553;stroke-linecap:butt;stroke-linejoin:miter;stroke-miterlimit:10;stroke-dasharray:none;stroke-opacity:1"
         transform="matrix(1.3333333,0,0,-1.3333333,362.83333,367.152)" />
      <path
         id="path33"
         d="m 3.6094844,-1.4284453 c -0.058594,0.2109375 -0.058594,0.234375 -0.2226563,0.45703124 -0.2695312,0.33984375 -0.796875,0.85546875 -1.359375,0.85546875 -0.4921875,0 -0.7617187,-0.4453125 -0.7617187,-1.16015629 0,-0.65625 0.3632812,-2.0039062 0.5976562,-2.5078125 0.4101563,-0.8320312 0.9726563,-1.265625 1.4414063,-1.265625 0.7851562,0 0.9375,0.984375 0.9375,1.078125 0,0.011719 -0.035156,0.1640625 -0.046875,0.1875 z m 0.7734375,-3.0703125 c -0.140625,-0.3164063 -0.4570313,-0.796875 -1.078125,-0.796875 -1.359375,0 -2.82421878,1.7578125 -2.82421878,3.5273437 0,1.19531254 0.69140628,1.88671879 1.51171878,1.88671879 0.65625,0 1.21875,-0.515625 1.5585937,-0.9140625 0.1171875,0.71484375 0.6796875,0.9140625 1.0429688,0.9140625 0.3632812,0 0.6445312,-0.2109375 0.8671875,-0.64453125 0.1875,-0.41015625 0.3632812,-1.13671874 0.3632812,-1.18359374 0,-0.070312 -0.046875,-0.1171875 -0.1289062,-0.1171875 -0.1054688,0 -0.1171875,0.058594 -0.1640625,0.2460937 -0.1757813,0.70312504 -0.4101563,1.46484379 -0.9023438,1.46484379 -0.3398437,0 -0.3632812,-0.31640625 -0.3632812,-0.55078125 0,-0.28125 0.035156,-0.41015624 0.140625,-0.87890624 0.082031,-0.3046875 0.140625,-0.5625 0.234375,-0.9140625 0.4453125,-1.8046875 0.5507812,-2.2265625 0.5507812,-2.3085938 0,-0.1640625 -0.1289062,-0.2929687 -0.3046875,-0.2929687 -0.3867187,0 -0.4804687,0.421875 -0.5039062,0.5625 z m 0,0"
         style="fill:#d33682;fill-opacity:1;fill-rule:nonzero;stroke:none"
         aria-label="a"
         transform="matrix(1.3333333,0,0,1.3333333,698.88267,370.596)" />
      <path
         id="path34"
         d="m 337.32706,0 c 0,6.2623 -5.07646,11.33876 -11.33876,11.33876 -6.2623,0 -11.33876,-5.07646 -11.33876,-11.33876 0,-6.2623 5.07646,-11.33876 11.33876,-11.33876 6.2623,0 11.33876,5.07646 11.33876,11.33876 z"
         style="fill:#eee8d5;fill-opacity:1;fill-rule:nonzero;stroke:#586e75;stroke-width:1.19553;stroke-linecap:butt;stroke-linejoin:miter;stroke-miterlimit:10;stroke-dasharray:none;stroke-opacity:1"
         transform="matrix(1.3333333,0,0,-1.3333333,362.83333,367.152)" />
      <path
         id="path35"
         d="m 2.7766016,-8.0280703 c 0.011719,-0.046875 0.035156,-0.1171875 0.035156,-0.1757813 0,-0.1289062 -0.1289062,-0.1289062 -0.1523437,-0.1289062 -0.011719,0 -0.4453125,0.035156 -0.65625,0.058594 -0.1992188,0.011719 -0.3867188,0.046875 -0.5976563,0.058594 -0.2929687,0.023437 -0.375,0.035156 -0.375,0.2460937 0,0.1171875 0.1171875,0.1171875 0.2460938,0.1171875 0.609375,0 0.609375,0.1171875 0.609375,0.234375 0,0.082031 -0.09375,0.4335938 -0.1523438,0.6445313 l -0.28125,1.1484375 c -0.1171875,0.4804687 -0.80859374,3.2109375 -0.85546874,3.421875 -0.0585938,0.3046875 -0.0585938,0.5039062 -0.0585938,0.6679687 0,1.21875004 0.67968744,1.85156254 1.46484384,1.85156254 1.3945312,0 2.8359374,-1.78125004 2.8359374,-3.52734374 0,-1.1015625 -0.6328125,-1.8867188 -1.5234374,-1.8867188 -0.6328125,0 -1.1953125,0.515625 -1.4179689,0.7617188 z m -0.7617188,7.91015624 c -0.3867187,0 -0.8085937,-0.29296875 -0.8085937,-1.23046874 0,-0.3867188 0.035156,-0.6210938 0.2578125,-1.4648438 0.035156,-0.1523437 0.2226562,-0.9140625 0.2695312,-1.078125 0.035156,-0.09375 0.7382813,-1.1601562 1.5585938,-1.1601562 0.5273437,0 0.7617187,0.5273437 0.7617187,1.1484375 0,0.5742187 -0.3398437,1.9335937 -0.6328125,2.5546875 -0.3046875,0.65624999 -0.8554687,1.23046874 -1.40625,1.23046874 z m 0,0"
         style="fill:#d33682;fill-opacity:1;fill-rule:nonzero;stroke:none"
         aria-label="b"
         transform="matrix(1.3333333,0,0,1.3333333,794.15333,372.708)" />
      <path
         id="path36"
         d="m 408.19409,0 c 0,6.2623 -5.07646,11.33876 -11.33876,11.33876 -6.2623,0 -11.33876,-5.07646 -11.33876,-11.33876 0,-6.2623 5.07646,-11.33876 11.33876,-11.33876 6.2623,0 11.33876,5.07646 11.33876,11.33876 z"
         style="fill:#eee8d5;fill-opacity:1;fill-rule:nonzero;stroke:#586e75;stroke-width:1.19553;stroke-linecap:butt;stroke-linejoin:miter;stroke-miterlimit:10;stroke-dasharray:none;stroke-opacity:1"
         transform="matrix(1.3333333,0,0,-1.3333333,362.83333,367.152)" />
      <path
         id="path37"
         d="m 4.6866719,-4.5104766 c -0.2226563,0 -0.328125,0 -0.5039063,0.140625 -0.070312,0.058594 -0.1992187,0.2460938 -0.1992187,0.4335938 0,0.2460937 0.1757812,0.3867187 0.4101562,0.3867187 0.28125,0 0.609375,-0.2460937 0.609375,-0.7265625 0,-0.5742187 -0.5507812,-1.0195312 -1.3828125,-1.0195312 -1.5703125,0 -3.14062497,1.7226562 -3.14062497,3.421875 0,1.04296874 0.64453127,1.99218749 1.87499997,1.99218749 1.6289063,0 2.6601563,-1.26562499 2.6601563,-1.42968749 0,-0.070312 -0.070312,-0.1289063 -0.1171875,-0.1289063 -0.035156,0 -0.046875,0.011719 -0.1640625,0.1171875 -0.7617188,1.01953129 -1.8984375,1.20703129 -2.3554688,1.20703129 -0.8320312,0 -1.0898437,-0.7265625 -1.0898437,-1.32421879 0,-0.421875 0.1992187,-1.5820312 0.6328125,-2.4023437 0.3046875,-0.5625 0.9609375,-1.2070313 1.7109375,-1.2070313 0.1640625,0 0.8203125,0.023437 1.0546875,0.5390625 z m 0,0"
         style="fill:#d33682;fill-opacity:1;fill-rule:nonzero;stroke:none"
         aria-label="c"
         transform="matrix(1.3333333,0,0,1.3333333,888.60267,370.596)" />
      <path
         id="path38"
         d="m 479.06111,0 c 0,6.2623 -5.07646,11.33876 -11.33876,11.33876 -6.26231,0 -11.33876,-5.07646 -11.33876,-11.33876 0,-6.2623 5.07645,-11.33876 11.33876,-11.33876 6.2623,0 11.33876,5.07646 11.33876,11.33876 z"
         style="fill:#eee8d5;fill-opacity:1;fill-rule:nonzero;stroke:#586e75;stroke-width:1.19553;stroke-linecap:butt;stroke-linejoin:miter;stroke-miterlimit:10;stroke-dasharray:none;stroke-opacity:1"
         transform="matrix(1.3333333,0,0,-1.3333333,362.83333,367.152)" />
      <path
         id="path39"
         d="m 6.0360547,-8.0280703 c 0.011719,-0.046875 0.035156,-0.1171875 0.035156,-0.1757813 0,-0.1289062 -0.1171875,-0.1289062 -0.140625,-0.1289062 -0.011719,0 -0.5976562,0.046875 -0.65625,0.058594 -0.2109375,0.011719 -0.3867187,0.046875 -0.609375,0.058594 -0.2929687,0.023437 -0.375,0.035156 -0.375,0.2460937 0,0.1171875 0.09375,0.1171875 0.2578125,0.1171875 0.5859375,0 0.5976563,0.1171875 0.5976563,0.234375 0,0.070312 -0.023437,0.1640625 -0.035156,0.1992188 L 4.383711,-4.5007261 c -0.140625,-0.3164062 -0.4570312,-0.796875 -1.078125,-0.796875 -1.359375,0 -2.82421871,1.7578125 -2.82421871,3.5273438 0,1.19531249 0.69140621,1.88671874 1.51171871,1.88671874 0.65625,0 1.21875,-0.515625 1.5585938,-0.9140625 0.1171875,0.71484375 0.6796875,0.9140625 1.0429687,0.9140625 0.3632813,0 0.6445313,-0.2109375 0.8671875,-0.64453125 0.1875,-0.41015625 0.3632813,-1.13671879 0.3632813,-1.18359379 0,-0.070312 -0.046875,-0.1171875 -0.1289063,-0.1171875 -0.1054687,0 -0.1171875,0.058594 -0.1640625,0.2460938 -0.1757812,0.70312499 -0.4101562,1.46484374 -0.9023437,1.46484374 -0.3398438,0 -0.3632813,-0.31640625 -0.3632813,-0.55078125 0,-0.046875 0,-0.3046875 0.082031,-0.64453129 z m -2.4257813,6.5976562 c -0.058594,0.2109375 -0.058594,0.234375 -0.2226562,0.45703129 -0.2695313,0.33984375 -0.796875,0.85546875 -1.359375,0.85546875 -0.4921875,0 -0.7617188,-0.4453125 -0.7617188,-1.16015624 0,-0.65625 0.3632813,-2.0039063 0.5976563,-2.5078125 0.4101562,-0.8320313 0.9726562,-1.265625 1.4414062,-1.265625 0.7851563,0 0.9375,0.984375 0.9375,1.078125 0,0.011719 -0.035156,0.1640625 -0.046875,0.1875 z m 0,0"
         style="fill:#d33682;fill-opacity:1;fill-rule:nonzero;stroke:none"
         aria-label="d"
         transform="matrix(1.3333333,0,0,1.3333333,982.39333,372.708)" />
      <path
         id="path40"
         d="m 372.76056,61.3728 c 0,6.2623 -5.07646,11.33876 -11.33876,11.33876 -6.2623,0 -11.33876,-5.07646 -11.33876,-11.33876 0,-6.26231 5.07646,-11.33876 11.33876,-11.33876 6.2623,0 11.33876,5.07645 11.33876,11.33876 z"
         style="fill:#eee8d5;fill-opacity:1;fill-rule:nonzero;stroke:#586e75;stroke-width:1.19553;stroke-linecap:butt;stroke-linejoin:miter;stroke-miterlimit:10;stroke-dasharray:none;stroke-opacity:1"
         transform="matrix(1.3333333,0,0,-1.3333333,362.83333,367.152)" />
      <path
         id="path41"
         d="m 2.7307656,-2.403125 c 0.2109375,0.035156 0.5390625,0.1054688 0.609375,0.1171875 0.1523438,0.058594 0.6914063,0.2460938 0.6914063,0.8203125 0,0.375 -0.3398438,1.34765625 -1.7226563,1.34765625 -0.2578125,0 -1.1601562,-0.0351563 -1.39453122,-0.703125 C 1.3948281,-0.7625 1.6292031,-1.1257812 1.6292031,-1.3953125 c 0,-0.2460937 -0.1640625,-0.3867187 -0.4101562,-0.3867187 -0.25781252,0 -0.60937502,0.2109375 -0.60937502,0.75 0,0.70312495 0.72656252,1.14843745 1.68750002,1.14843745 1.8164062,0 2.3554687,-1.33593745 2.3554687,-1.96874995 0,-0.1757813 0,-0.515625 -0.375,-0.890625 -0.3046875,-0.2929688 -0.5976562,-0.3515625 -1.2421875,-0.4804688 -0.328125,-0.082031 -0.84375,-0.1875 -0.84375,-0.7265625 0,-0.234375 0.2226563,-1.1015625 1.359375,-1.1015625 0.5039063,0 0.9960938,0.1875 1.1132813,0.6210938 -0.5273438,0 -0.5507813,0.4570312 -0.5507813,0.46875 0,0.2578125 0.234375,0.328125 0.3398438,0.328125 0.1640625,0 0.5039062,-0.140625 0.5039062,-0.6445313 0,-0.5039062 -0.4570312,-1.0195312 -1.3945312,-1.0195312 -1.5703125,0 -1.9921875,1.2421875 -1.9921875,1.734375 0,0.9140625 0.890625,1.1015625 1.1601562,1.1601562 z m 0,0"
         style="fill:#d33682;fill-opacity:1;fill-rule:nonzero;stroke:none"
         aria-label="s"
         transform="matrix(1.3333333,0,0,1.3333333,841.03867,288.76667)" />
      <path
         id="path42"
         d="m 372.76059,-61.3728 c 0,6.26231 -5.07646,11.33876 -11.33876,11.33876 -6.2623,0 -11.33876,-5.07645 -11.33876,-11.33876 0,-6.2623 5.07646,-11.33876 11.33876,-11.33876 6.2623,0 11.33876,5.07646 11.33876,11.33876 z"
         style="fill:#eee8d5;fill-opacity:1;fill-rule:nonzero;stroke:#586e75;stroke-width:1.19553;stroke-linecap:butt;stroke-linejoin:miter;stroke-miterlimit:10;stroke-dasharray:none;stroke-opacity:1"
         transform="matrix(1.3333333,0,0,-1.3333333,362.83333,367.152)" />
      <path
         id="path43"
         d="m 2.4128906,-4.8283672 h 1.1015625 c 0.2226563,0 0.3515625,0 0.3515625,-0.2109375 0,-0.1289062 -0.070312,-0.1289062 -0.3164062,-0.1289062 H 2.4949219 l 0.4453125,-1.7578125 c 0.046875,-0.1640625 0.046875,-0.1875 0.046875,-0.2695313 0,-0.1992187 -0.1523438,-0.3046875 -0.3164063,-0.3046875 -0.09375,0 -0.3632812,0.035156 -0.46875,0.421875 l -0.46875,1.9101563 H 0.60820313 c -0.234375,0 -0.33984375,0 -0.33984375,0.2226562 0,0.1171875 0.0820313,0.1171875 0.3046875,0.1171875 H 1.6394531 l -0.78515622,3.1757813 c -0.09375,0.421875 -0.140625,0.5390625 -0.140625,0.69140621 0,0.5625 0.39843752,1.078125 1.07812502,1.078125 1.2070312,0 1.8515625,-1.74609371 1.8515625,-1.82812501 0,-0.082031 -0.046875,-0.1171875 -0.1171875,-0.1171875 -0.023437,0 -0.070312,0 -0.09375,0.046875 -0.011719,0.011719 -0.023437,0.023437 -0.1054688,0.2226563 -0.2578125,0.59765621 -0.8085937,1.44140621 -1.5,1.44140621 -0.3632812,0 -0.3867187,-0.3046875 -0.3867187,-0.5625 0,-0.0117188 0,-0.24609375 0.035156,-0.38671871 z m 0,0"
         style="fill:#d33682;fill-opacity:1;fill-rule:nonzero;stroke:none"
         aria-label="t"
         transform="matrix(1.3333333,0,0,1.3333333,841.9,453.90267)" />
      <path
         id="path44"
         d="M 351.08464,55.40472 268.96931,7.99501"
         style="fill:none;stroke:#586e75;stroke-width:1.19553;stroke-linecap:butt;stroke-linejoin:miter;stroke-miterlimit:10;stroke-dasharray:none;stroke-opacity:1"
         transform="matrix(1.3333333,0,0,-1.3333333,362.83333,367.152)" />
      <path
         id="path45"
         d="M 5.08617,0 1.82423,1.24171 2.92336,0 1.82423,-1.24171 Z"
         style="fill:#586e75;fill-opacity:1;fill-rule:nonzero;stroke:#586e75;stroke-width:1.12978;stroke-linecap:butt;stroke-linejoin:miter;stroke-miterlimit:10;stroke-dasharray:none;stroke-opacity:1"
         transform="matrix(-1.15468,0.66664,0.66664,1.15468,724.50851,354.73141)" />
      <path
         id="path46"
         d="m 3.447756,-7.6837733 c 0.00126,-0.2834426 0.00712,-0.2935916 -0.2341579,-0.2975708 -0.271833,0.3302086 -0.8814132,0.7766565 -2.1155237,0.7813483 l -0.010258,0.3459065 c 0.2732935,-0.0046 0.8721955,-0.010661 1.5363907,-0.3173221 l 0.00274,6.25331473 c -0.00482,0.43023837 -0.044685,0.56960495 -1.0999824,0.56927693 l -0.3677744,0.00418 -1.094e-4,0.35176595 C 1.48626,-0.02049145 2.6520472,-0.02403325 3.045979,-0.02664373 c 0.4040809,0.0032489 1.5437106,-0.0018627 1.8778983,0.02869377 l 1.094e-4,-0.35176596 -0.3779235,-0.001679 C 3.4907654,-0.35172308 3.4462994,-0.48565004 3.4511182,-0.9158884 Z m 0,0"
         style="fill:#d33682;fill-opacity:1;fill-rule:nonzero;stroke:none"
         aria-label="1"
         transform="matrix(1.15468,-0.66664,0.66664,1.15468,767.73891,323.46368)" />
      <path
         id="path47"
         d="M 355.45355,51.03563 333.98332,13.84802"
         style="fill:none;stroke:#586e75;stroke-width:1.19553;stroke-linecap:butt;stroke-linejoin:miter;stroke-miterlimit:10;stroke-dasharray:none;stroke-opacity:1"
         transform="matrix(1.3333333,0,0,-1.3333333,362.83333,367.152)" />
      <path
         id="path48"
         d="M 5.08617,0 1.82423,1.24171 2.92336,0 1.82423,-1.24171 Z"
         style="fill:#586e75;fill-opacity:1;fill-rule:nonzero;stroke:#586e75;stroke-width:1.12978;stroke-linecap:butt;stroke-linejoin:miter;stroke-miterlimit:10;stroke-dasharray:none;stroke-opacity:1"
         transform="matrix(-0.66664,1.15468,1.15468,0.66664,809.90501,345.63855)" />
      <path
         id="path49"
         d="m 3.449883,-7.6890291 c -0.00126,-0.2834426 -0.00712,-0.2935916 -0.2483954,-0.2896124 -0.274754,0.3210084 -0.8832759,0.7670541 -2.1173865,0.7623623 l 0.010258,0.3459065 c 0.2732936,0.0046 0.8721956,0.010661 1.5307324,-0.3018779 l -0.00274,6.25331467 c 0.00482,0.43023837 -0.039647,0.56416532 -1.094945,0.56449334 l -0.3677744,-0.00418 1.093e-4,0.35176595 c 0.3240387,-0.02469701 1.4898259,-0.0211552 1.8837577,-0.01854473 0.4040809,-0.0032489 1.5437106,0.0018627 1.8810379,0.02362118 l -1.093e-4,-0.35176595 -0.3779234,0.001679 C 3.4912055,-0.35153925 3.4513396,-0.49090583 3.4465209,-0.9211442 Z m 0,0"
         style="fill:#d33682;fill-opacity:1;fill-rule:nonzero;stroke:none"
         aria-label="1"
         transform="matrix(0.66664,-1.15468,1.15468,0.66664,832.80901,337.51558)" />
      <path
         id="path50"
         d="M 371.75896,55.40472 453.87431,7.99501"
         style="fill:none;stroke:#586e75;stroke-width:1.19553;stroke-linecap:butt;stroke-linejoin:miter;stroke-miterlimit:10;stroke-dasharray:none;stroke-opacity:1"
         transform="matrix(1.3333333,0,0,-1.3333333,362.83333,367.152)" />
      <path
         id="path51"
         d="M 5.08617,0 1.82423,1.24171 2.92336,0 1.82423,-1.24171 Z"
         style="fill:#586e75;fill-opacity:1;fill-rule:nonzero;stroke:#586e75;stroke-width:1.12978;stroke-linecap:butt;stroke-linejoin:miter;stroke-miterlimit:10;stroke-dasharray:none;stroke-opacity:1"
         transform="matrix(1.15468,0.66664,0.66664,-1.15468,964.94967,354.73141)" />
      <path
         id="path52"
         d="M 3.448798,-7.6887365 C 3.447538,-7.972179 3.441678,-7.9823281 3.2004026,-7.9783489 2.9256486,-7.6573405 2.3171267,-7.2112948 1.0830161,-7.2159866 l 0.010258,0.3459065 c 0.2732935,0.0046 0.8721956,0.010661 1.5307324,-0.3018779 l -0.00274,6.2533147 c 0.00482,0.43023836 -0.039647,0.56416532 -1.094945,0.56449334 l -0.3677744,-0.00418 1.093e-4,0.35176595 c 0.3240387,-0.02469701 1.4898259,-0.02115521 1.8837577,-0.01854473 0.4040809,-0.0032489 1.5437106,0.0018627 1.8810379,0.02362118 l -1.093e-4,-0.35176595 -0.3779235,0.001679 C 3.4901205,-0.35124662 3.4502546,-0.4906132 3.4454359,-0.92085157 Z m 0,0"
         style="fill:#d33682;fill-opacity:1;fill-rule:nonzero;stroke:none"
         aria-label="1"
         transform="matrix(1.15468,0.66664,-0.66664,1.15468,914.93509,319.54767)" />
      <path
         id="path53"
         d="M 265.45845,-5.96806 347.5738,-53.37778"
         style="fill:none;stroke:#586e75;stroke-width:1.19553;stroke-linecap:butt;stroke-linejoin:miter;stroke-miterlimit:10;stroke-dasharray:none;stroke-opacity:1"
         transform="matrix(1.3333333,0,0,-1.3333333,362.83333,367.152)" />
      <path
         id="path54"
         d="M 5.08617,0 1.82423,1.24171 2.92336,0 1.82423,-1.24171 Z"
         style="fill:#586e75;fill-opacity:1;fill-rule:nonzero;stroke:#586e75;stroke-width:1.12978;stroke-linecap:butt;stroke-linejoin:miter;stroke-miterlimit:10;stroke-dasharray:none;stroke-opacity:1"
         transform="matrix(1.15468,0.66664,0.66664,-1.15468,823.21565,436.56179)" />
      <path
         id="path55"
         d="M 3.4516704,-7.6880583 C 3.450411,-7.9715009 3.4445516,-7.9816499 3.203275,-7.9776707 2.928521,-7.6566623 2.3199991,-7.2106166 1.0858885,-7.2153084 l 0.010258,0.3459065 c 0.2732935,0.0046 0.8721955,0.010661 1.5307324,-0.3018779 l -0.00274,6.25331467 c 0.00482,0.43023837 -0.039647,0.56416532 -1.094945,0.56449335 l -0.3677744,-0.00418 1.093e-4,0.35176595 c 0.3240387,-0.02469701 1.4898258,-0.0211552 1.8837577,-0.01854473 0.4040809,-0.0032489 1.5437106,0.0018627 1.8810379,0.023621182 l -1.102e-4,-0.351766232 -0.3779235,0.001679 C 3.4929929,-0.35056845 3.453127,-0.48993503 3.4483082,-0.92017339 Z m 0,0"
         style="fill:#d33682;fill-opacity:1;fill-rule:nonzero;stroke:none"
         aria-label="1"
         transform="matrix(1.15468,0.66664,-0.66664,1.15468,773.20176,401.37701)" />
      <path
         id="path56"
         d="M 390.88708,-10.33716 369.41685,-47.52477"
         style="fill:none;stroke:#586e75;stroke-width:1.19553;stroke-linecap:butt;stroke-linejoin:miter;stroke-miterlimit:10;stroke-dasharray:none;stroke-opacity:1"
         transform="matrix(1.3333333,0,0,-1.3333333,362.83333,367.152)" />
      <path
         id="path57"
         d="M 5.08617,0 1.82423,1.24171 2.92336,0 1.82423,-1.24171 Z"
         style="fill:#586e75;fill-opacity:1;fill-rule:nonzero;stroke:#586e75;stroke-width:1.12978;stroke-linecap:butt;stroke-linejoin:miter;stroke-miterlimit:10;stroke-dasharray:none;stroke-opacity:1"
         transform="matrix(-0.66664,1.15468,1.15468,0.66664,857.14972,427.46893)" />
      <path
         id="path58"
         d="m 3.4513739,-7.6880405 c -0.00126,-0.2834426 -0.00712,-0.2935916 -0.2483954,-0.2896124 -0.274754,0.3210084 -0.8832759,0.7670541 -2.1173864,0.7623623 l 0.010258,0.3459065 c 0.2732936,0.0046 0.8721956,0.010661 1.5307324,-0.3018779 l -0.00274,6.25331466 c 0.00482,0.43023837 -0.039647,0.56416532 -1.0949451,0.56449335 l -0.3677744,-0.00418 1.094e-4,0.35176596 c 0.3240386,-0.02469702 1.4898258,-0.02115521 1.8837577,-0.01854474 0.4040809,-0.0032489 1.5437105,0.0018627 1.8810378,0.023621183 l -1.102e-4,-0.351766233 -0.3779234,0.001679 C 3.4926964,-0.35055065 3.4528305,-0.48991724 3.4480118,-0.9201556 Z m 0,0"
         style="fill:#d33682;fill-opacity:1;fill-rule:nonzero;stroke:none"
         aria-label="1"
         transform="matrix(0.66664,-1.15468,1.15468,0.66664,861.66234,408.72758)" />
      <path
         id="path59"
         d="M 457.38518,-5.96806 375.26985,-53.37778"
         style="fill:none;stroke:#586e75;stroke-width:1.19553;stroke-linecap:butt;stroke-linejoin:miter;stroke-miterlimit:10;stroke-dasharray:none;stroke-opacity:1"
         transform="matrix(1.3333333,0,0,-1.3333333,362.83333,367.152)" />
      <path
         id="path60"
         d="M 5.08617,0 1.82423,1.24171 2.92336,0 1.82423,-1.24171 Z"
         style="fill:#586e75;fill-opacity:1;fill-rule:nonzero;stroke:#586e75;stroke-width:1.12978;stroke-linecap:butt;stroke-linejoin:miter;stroke-miterlimit:10;stroke-dasharray:none;stroke-opacity:1"
         transform="matrix(-1.15468,0.66664,0.66664,1.15468,866.24256,436.56179)" />
      <path
         id="path61"
         d="m 3.4493858,-7.6850336 c 0.00126,-0.2834426 0.00712,-0.2935916 -0.2341579,-0.2975708 -0.2718331,0.3302086 -0.8814133,0.7766565 -2.1155238,0.7813483 l -0.010258,0.3459066 c 0.2732936,-0.0046 0.8721956,-0.010661 1.5363907,-0.3173222 l 0.00274,6.25331475 c -0.00482,0.43023837 -0.044685,0.56960495 -1.0999825,0.56927693 l -0.3677744,0.00418 -1.093e-4,0.35176595 C 1.4878888,-0.021752 2.653676,-0.0252938 3.0476079,-0.02790428 3.4516888,-0.02465538 4.5913184,-0.02976698 4.9255061,7.894841e-4 L 4.9256164,-0.3509762 4.547693,-0.35265534 C 3.4923951,-0.35298336 3.4479292,-0.48691032 3.4527479,-0.91714868 Z m 0,0"
         style="fill:#d33682;fill-opacity:1;fill-rule:nonzero;stroke:none"
         aria-label="1"
         transform="matrix(1.15468,-0.66664,0.66664,1.15468,909.47225,405.29435)" />
      <path
         id="path62"
         d="M 314.05177,0 H 271.11186"
         style="fill:none;stroke:#586e75;stroke-width:1.19553;stroke-linecap:butt;stroke-linejoin:miter;stroke-miterlimit:10;stroke-dasharray:none;stroke-opacity:1"
         transform="matrix(1.3333333,0,0,-1.3333333,362.83333,367.152)" />
      <path
         id="path63"
         d="M 5.08617,0 1.82423,1.24171 2.92336,0 1.82423,-1.24171 Z"
         style="fill:#586e75;fill-opacity:1;fill-rule:nonzero;stroke:#586e75;stroke-width:1.12978;stroke-linecap:butt;stroke-linejoin:miter;stroke-miterlimit:10;stroke-dasharray:none;stroke-opacity:1"
         transform="matrix(-1.3333333,0,0,1.3333333,727.83704,367.152)" />
      <path
         id="path64"
         d="m 3.4581953,-7.688875 c 0,-0.28125 0,-0.2929687 -0.2460937,-0.2929687 -0.28125,0.328125 -0.8789063,0.7734375 -2.1210938,0.7734375 v 0.3398437 c 0.28125,0 0.8789063,0 1.5351563,-0.3046875 v 6.24609375 c 0,0.43359375 -0.035156,0.57421875 -1.0898438,0.57421875 h -0.375 v 0.3515625 c 0.328125,-0.0234375 1.4882813,-0.0234375 1.8867188,-0.0234375 0.3984375,0 1.546875,0 1.875,0.0234375 v -0.3515625 h -0.375 c -1.0546875,0 -1.0898438,-0.140625 -1.0898438,-0.57421875 z m 0,0"
         style="fill:#d33682;fill-opacity:1;fill-rule:nonzero;stroke:none"
         aria-label="1"
         transform="matrix(1.3333333,0,0,1.3333333,746.32267,361.68933)" />
      <path
         id="path65"
         d="m 337.92482,0 h 42.93993"
         style="fill:none;stroke:#586e75;stroke-width:1.19553;stroke-linecap:butt;stroke-linejoin:miter;stroke-miterlimit:10;stroke-dasharray:none;stroke-opacity:1"
         transform="matrix(1.3333333,0,0,-1.3333333,362.83333,367.152)" />
      <path
         id="path66"
         d="M 5.08617,0 1.82423,1.24171 2.92336,0 1.82423,-1.24171 Z"
         style="fill:#586e75;fill-opacity:1;fill-rule:nonzero;stroke:#586e75;stroke-width:1.12978;stroke-linecap:butt;stroke-linejoin:miter;stroke-miterlimit:10;stroke-dasharray:none;stroke-opacity:1"
         transform="matrix(1.3333333,0,0,-1.3333333,867.13177,367.152)" />
      <path
         id="path67"
         d="m 3.4574063,-7.688875 c 0,-0.28125 0,-0.2929687 -0.2460938,-0.2929687 -0.28125,0.328125 -0.8789062,0.7734375 -2.1210937,0.7734375 v 0.3398437 c 0.28125,0 0.8789062,0 1.5351562,-0.3046875 v 6.24609375 c 0,0.43359375 -0.035156,0.57421875 -1.0898437,0.57421875 h -0.375 v 0.3515625 c 0.328125,-0.0234375 1.4882812,-0.0234375 1.8867187,-0.0234375 0.3984375,0 1.546875,0 1.875,0.0234375 v -0.3515625 h -0.375 c -1.0546875,0 -1.0898437,-0.140625 -1.0898437,-0.57421875 z m 0,0"
         style="fill:#d33682;fill-opacity:1;fill-rule:nonzero;stroke:none"
         aria-label="1"
         transform="matrix(1.3333333,0,0,1.3333333,840.812,361.68933)" />
      <path
         id="path68"
         d="M 455.78583,0 H 412.84592"
         style="fill:none;stroke:#586e75;stroke-width:1.19553;stroke-linecap:butt;stroke-linejoin:miter;stroke-miterlimit:10;stroke-dasharray:none;stroke-opacity:1"
         transform="matrix(1.3333333,0,0,-1.3333333,362.83333,367.152)" />
      <path
         id="path69"
         d="M 5.08617,0 1.82423,1.24171 2.92336,0 1.82423,-1.24171 Z"
         style="fill:#586e75;fill-opacity:1;fill-rule:nonzero;stroke:#586e75;stroke-width:1.12978;stroke-linecap:butt;stroke-linejoin:miter;stroke-miterlimit:10;stroke-dasharray:none;stroke-opacity:1"
         transform="matrix(-1.3333333,0,0,1.3333333,916.81577,367.152)" />
      <path
         id="path70"
         d="m 3.4566172,-7.688875 c 0,-0.28125 0,-0.2929687 -0.2460938,-0.2929687 -0.28125,0.328125 -0.8789062,0.7734375 -2.1210937,0.7734375 v 0.3398437 c 0.28125,0 0.8789062,0 1.5351562,-0.3046875 v 6.24609375 c 0,0.43359375 -0.035156,0.57421875 -1.0898437,0.57421875 h -0.375 v 0.3515625 c 0.328125,-0.0234375 1.4882812,-0.0234375 1.8867187,-0.0234375 0.3984375,0 1.546875,0 1.875,0.0234375 v -0.3515625 h -0.375 c -1.0546875,0 -1.0898437,-0.140625 -1.0898437,-0.57421875 z m 0,0"
         style="fill:#d33682;fill-opacity:1;fill-rule:nonzero;stroke:none"
         aria-label="1"
         transform="matrix(1.3333333,0,0,1.3333333,935.30133,361.68933)" />
    </g>
  </g>
</svg>
