<?xml version="1.0" encoding="UTF-8" standalone="no"?>
<!-- Created with Inkscape (http://www.inkscape.org/) -->

<svg
   version="1.1"
   id="svg1"
   width="631.88214"
   height="190.59071"
   viewBox="0 0 631.88213 190.59071"
   xmlns="http://www.w3.org/2000/svg"
   xmlns:svg="http://www.w3.org/2000/svg">
  <defs
     id="defs1" />
  <g
     id="g1"
     transform="translate(-245.16893,-38.970447)">
    <g
       id="g92">
      <path
         id="path1"
         d="M 5.97766,0 C 5.97766,3.3014 3.3014,5.97766 0,5.97766 -3.3014,5.97766 -5.97766,3.3014 -5.97766,0 c 0,-3.3014 2.67626,-5.97766 5.97766,-5.97766 3.3014,0 5.97766,2.67626 5.97766,5.97766 z"
         style="fill:none;stroke:#586e75;stroke-width:0.79701;stroke-linecap:butt;stroke-linejoin:miter;stroke-miterlimit:10;stroke-dasharray:none;stroke-opacity:1"
         transform="matrix(1.3333333,0,0,-1.3333333,318.39867,48.354667)" />
      <path
         id="path2"
         d="m -28.03844,-42.52022 c 0,3.30142 -2.67624,5.97766 -5.97766,5.97766 -3.3014,0 -5.97766,-2.67624 -5.97766,-5.97766 0,-3.3014 2.67626,-5.97766 5.97766,-5.97766 3.30142,0 5.97766,2.67626 5.97766,5.97766 z"
         style="fill:none;stroke:#586e75;stroke-width:0.79701;stroke-linecap:butt;stroke-linejoin:miter;stroke-miterlimit:10;stroke-dasharray:none;stroke-opacity:1"
         transform="matrix(1.3333333,0,0,-1.3333333,318.39867,48.354667)" />
      <path
         id="path3"
         d="M 0,-6.37616 -34.0161,-36.14404"
         style="fill:none;stroke:#586e75;stroke-width:0.79701;stroke-linecap:butt;stroke-linejoin:miter;stroke-miterlimit:10;stroke-dasharray:none;stroke-opacity:1"
         transform="matrix(1.3333333,0,0,-1.3333333,318.39867,48.354667)" />
      <path
         id="path4"
         d="m -54.5238,-88.5401 h 6.99931 v 6.99931 h -6.99931 z"
         style="fill:none;stroke:#586e75;stroke-width:0.79701;stroke-linecap:butt;stroke-linejoin:miter;stroke-miterlimit:10;stroke-dasharray:none;stroke-opacity:1"
         transform="matrix(1.3333333,0,0,-1.3333333,318.39867,48.354667)" />
      <path
         id="path5"
         d="M -34.0161,-48.89638 -51.02414,-81.14227"
         style="fill:none;stroke:#586e75;stroke-width:0.79701;stroke-linecap:butt;stroke-linejoin:miter;stroke-miterlimit:10;stroke-dasharray:none;stroke-opacity:1"
         transform="matrix(1.3333333,0,0,-1.3333333,318.39867,48.354667)" />
      <path
         id="path6"
         d="m 2.2381406,0.19883594 c 1.2773438,0 1.8984375,-1.03125 1.8984375,-3.08203124 0,-1.3710938 -0.28125,-2.296875 -0.8554687,-2.7421875 -0.3164063,-0.2460938 -0.6679688,-0.3632813 -1.03125,-0.3632813 -1.26562502,0 -1.89843752,1.03125 -1.89843752,3.1054688 0,1.6640625 0.4453125,3.08203124 1.88671872,3.08203124 z M 3.2459531,-4.7113203 c 0.070312,0.3046875 0.09375,0.890625 0.09375,1.7226562 0,0.8320313 -0.035156,1.4414063 -0.1054687,1.8398438 -0.1171875,0.71484374 -0.4453125,1.07812499 -0.9960938,1.07812499 -0.1992187,0 -0.4101562,-0.08203125 -0.5976562,-0.234375 -0.2460938,-0.2109375 -0.3867188,-0.6328125 -0.4570313,-1.27734379 -0.023437,-0.2226562 -0.035156,-0.6914062 -0.035156,-1.40625 0,-0.7851562 0.035156,-1.3359375 0.070312,-1.6289062 0.082031,-0.4921875 0.2460937,-0.8085938 0.5039062,-0.9492188 0.1992188,-0.1054687 0.3632813,-0.1523437 0.515625,-0.1523437 0.5859375,0 0.9140625,0.46875 1.0078128,1.0078125 z m 0,0"
         style="fill:#d33682;fill-opacity:1;fill-rule:nonzero;stroke:none"
         aria-label="0"
         transform="matrix(1.3333333,0,0,1.3333333,250.508,138.91067)" />
      <path
         id="path7"
         d="m -11.03038,-85.04044 c 0,3.30141 -2.67625,5.97767 -5.97766,5.97767 -3.30141,0 -5.97766,-2.67626 -5.97766,-5.97767 0,-3.30142 2.67625,-5.97766 5.97766,-5.97766 3.30141,0 5.97766,2.67624 5.97766,5.97766 z"
         style="fill:none;stroke:#586e75;stroke-width:0.79701;stroke-linecap:butt;stroke-linejoin:miter;stroke-miterlimit:10;stroke-dasharray:none;stroke-opacity:1"
         transform="matrix(1.3333333,0,0,-1.3333333,318.39867,48.354667)" />
      <path
         id="path8"
         d="m -34.0161,-48.89638 17.00806,-29.7679"
         style="fill:none;stroke:#586e75;stroke-width:0.79701;stroke-linecap:butt;stroke-linejoin:miter;stroke-miterlimit:10;stroke-dasharray:none;stroke-opacity:1"
         transform="matrix(1.3333333,0,0,-1.3333333,318.39867,48.354667)" />
      <path
         id="path9"
         d="m -40.68979,-133.77835 h 13.3474 v 12.43536 h -13.3474 z"
         style="fill:none;stroke:#586e75;stroke-width:0.79701;stroke-linecap:butt;stroke-linejoin:miter;stroke-miterlimit:10;stroke-dasharray:none;stroke-opacity:1"
         transform="matrix(1.3333333,0,0,-1.3333333,318.39867,48.354667)" />
      <path
         id="path10"
         d="m 5.9769375,-1.7235469 c 0,-0.1171875 -0.058594,-0.1757812 -0.1875,-0.1757812 -0.1054687,0 -0.1757812,0.082031 -0.2109375,0.2578125 -0.234375,0.94921873 -0.5273437,1.42968748 -0.8554687,1.42968748 -0.1992188,0 -0.3046875,-0.17578125 -0.3046875,-0.50390625 0,-0.1640625 0.046875,-0.44531253 0.1523437,-0.86718753 l 0.6914063,-2.7070312 c 0.058594,-0.2226563 0.082031,-0.3515625 0.082031,-0.4101563 0,-0.2460937 -0.140625,-0.3632812 -0.3984375,-0.3632812 -0.2578125,0 -0.421875,0.140625 -0.5039062,0.421875 -0.2578125,-0.4453125 -0.609375,-0.6679688 -1.0664063,-0.6679688 -0.7851562,0 -1.4648437,0.3984375 -2.0625,1.1953125 -0.55078125,0.7382813 -0.83203125,1.5117188 -0.83203125,2.3085938 0,1.04296873 0.60937505,1.93359373 1.61718755,1.93359373 0.515625,0 1.0195312,-0.26953125 1.5,-0.8203125 0.1289062,0.45703125 0.5390625,0.8203125 1.1015625,0.8203125 0.8320312,0 1.0898437,-0.97265625 1.2773439,-1.85156253 z M 4.0902188,-4.4891719 C 4.1956875,-4.2313594 4.266,-4.0672969 4.266,-3.9618281 c 0,0.046875 -0.023437,0.1054687 -0.035156,0.1875 l -0.5859375,2.3085937 c -0.035156,0.1289063 -0.1171875,0.28125 -0.2226563,0.421875 -0.4453125,0.55078128 -0.8789062,0.83203128 -1.3007812,0.83203128 -0.46875,0 -0.703125,-0.36328125 -0.703125,-1.07812498 0,-0.28125 0.070312,-0.7148438 0.2109375,-1.2890625 0.2578125,-1.0195313 0.609375,-1.7109375 1.0546875,-2.0742188 0.2460937,-0.2109375 0.46875,-0.3046875 0.703125,-0.3046875 0.3164062,0 0.5625,0.1523438 0.7031248,0.46875 z m 0,0"
         style="fill:#d33682;fill-opacity:1;fill-rule:nonzero;stroke:none"
         aria-label="𝑎"
         transform="matrix(1.3333333,0,0,1.3333333,268.812,221.884)" />
      <path
         id="path11"
         d="M -17.00804,-91.4166 -34.0161,-120.94447"
         style="fill:none;stroke:#586e75;stroke-width:0.79701;stroke-linecap:butt;stroke-linejoin:miter;stroke-miterlimit:10;stroke-dasharray:none;stroke-opacity:1"
         transform="matrix(1.3333333,0,0,-1.3333333,318.39867,48.354667)" />
      <path
         id="path12"
         d="m 2.2369766,0.19894531 c 1.2773437,0 1.8984375,-1.03125 1.8984375,-3.08203121 0,-1.3710938 -0.28125,-2.296875 -0.8554688,-2.7421875 -0.3164062,-0.2460938 -0.6679687,-0.3632813 -1.03125,-0.3632813 -1.26562499,0 -1.89843749,1.03125 -1.89843749,3.1054688 0,1.6640625 0.4453125,3.08203121 1.88671879,3.08203121 z M 3.2447891,-4.7112109 c 0.070312,0.3046875 0.09375,0.890625 0.09375,1.7226562 0,0.8320313 -0.035156,1.4414063 -0.1054688,1.8398438 -0.1171875,0.71484371 -0.4453125,1.07812496 -0.9960937,1.07812496 -0.1992188,0 -0.4101563,-0.08203125 -0.5976563,-0.234375 -0.2460937,-0.2109375 -0.3867187,-0.6328125 -0.4570312,-1.27734376 -0.023437,-0.2226562 -0.035156,-0.6914062 -0.035156,-1.40625 0,-0.7851562 0.035156,-1.3359375 0.070312,-1.6289062 0.082031,-0.4921875 0.2460938,-0.8085938 0.5039063,-0.9492188 0.1992187,-0.1054687 0.3632812,-0.1523437 0.515625,-0.1523437 0.5859375,0 0.9140625,0.46875 1.0078127,1.0078125 z m 0,0"
         style="fill:#d33682;fill-opacity:1;fill-rule:nonzero;stroke:none"
         aria-label="0"
         transform="matrix(1.3333333,0,0,1.3333333,273.18533,193.79333)" />
      <path
         id="path13"
         d="M -6.15767,-135.29036 H 6.15768 v 15.4594 H -6.15767 Z"
         style="fill:none;stroke:#586e75;stroke-width:0.79701;stroke-linecap:butt;stroke-linejoin:miter;stroke-miterlimit:10;stroke-dasharray:none;stroke-opacity:1"
         transform="matrix(1.3333333,0,0,-1.3333333,318.39867,48.354667)" />
      <path
         id="path14"
         d="m 3.3756016,-5.3449219 c -0.4335938,0 -0.8671875,0.2109375 -1.2890625,0.6210938 l 0.8320312,-3.421875 c -0.023437,-0.1171875 -0.058594,-0.1875 -0.2109375,-0.1875 -0.3867187,0 -1.265625,0.1171875 -1.4179687,0.1289062 -0.1875,0.023437 -0.28125,0.1054688 -0.28125,0.28125 0,0.1171875 0.1054687,0.1875 0.3398437,0.1875 0.2226563,0 0.5390625,-0.023437 0.5390625,0.1523438 0,0.046875 -0.058594,0.28125 -0.1757812,0.7265625 l -0.94921879,3.8671875 c -0.140625,0.5039062 -0.19921875,0.9140625 -0.19921875,1.2070312 0,1.04296878 0.55078124,1.91015628 1.53515624,1.91015628 0.7851563,0 1.4648438,-0.3984375 2.0625,-1.19531248 0.5390625,-0.75 0.8203125,-1.5234375 0.8203125,-2.3320313 0,-1.0429687 -0.609375,-1.9453125 -1.6054687,-1.9453125 z m -0.023437,0.3632813 c 0.46875,0 0.6914062,0.3632812 0.6914062,1.0664062 0,0.328125 -0.070312,0.7617188 -0.2109375,1.3007813 -0.2695312,1.0195312 -0.6210937,1.71093748 -1.03125,2.08593748 -0.2460937,0.19921875 -0.46875,0.3046875 -0.703125,0.3046875 -0.4921875,0 -0.7265625,-0.38671875 -0.7265625,-1.16015628 0,-0.2578125 0.058594,-0.65625 0.1757813,-1.1835937 l 0.2695312,-1.078125 c 0.035156,-0.1875 0.09375,-0.3164063 0.1640625,-0.4101563 0.46875,-0.609375 0.9257813,-0.9257812 1.3710938,-0.9257812 z m 0,0"
         style="fill:#d33682;fill-opacity:1;fill-rule:nonzero;stroke:none"
         aria-label="𝑏"
         transform="matrix(1.3333333,0,0,1.3333333,314.85467,223.9)" />
      <path
         id="path15"
         d="M -17.00804,-91.4166 0,-119.43245"
         style="fill:none;stroke:#586e75;stroke-width:0.79701;stroke-linecap:butt;stroke-linejoin:miter;stroke-miterlimit:10;stroke-dasharray:none;stroke-opacity:1"
         transform="matrix(1.3333333,0,0,-1.3333333,318.39867,48.354667)" />
      <path
         id="path16"
         d="m 2.4261406,-5.9878047 c -0.375,0.375 -0.9140625,0.5625 -1.62890622,0.5625 v 0.3515625 c 0.46875002,0 0.85546872,-0.070312 1.16015622,-0.2226562 v 4.55859371 c 0,0.1640625 -0.035156,0.26953125 -0.1171875,0.31640625 -0.082031,0.046875 -0.3046875,0.0703125 -0.6679687,0.0703125 H 0.85582813 V 4.765625e-4 C 1.0784844,-0.02296094 1.5706719,-0.02296094 2.3089531,-0.02296094 c 0.75,0 1.2421875,0 1.4648438,0.0234375025 V -0.35108594 H 3.4573906 c -0.375,0 -0.5976562,-0.0234375 -0.6679687,-0.0703125 -0.070312,-0.046875 -0.1171875,-0.15234375 -0.1171875,-0.31640625 V -5.7182734 c 0,-0.2226563 -0.011719,-0.2695313 -0.2460938,-0.2695313 z m 0,0"
         style="fill:#d33682;fill-opacity:1;fill-rule:nonzero;stroke:none"
         aria-label="1"
         transform="matrix(1.3333333,0,0,1.3333333,312.25733,192.91733)" />
      <path
         id="path17"
         d="m 2.424375,-5.9883125 c -0.375,0.375 -0.9140625,0.5625 -1.62890625,0.5625 V -5.07425 c 0.46875005,0 0.85546875,-0.070312 1.16015625,-0.2226562 v 4.5585937 c 0,0.1640625 -0.035156,0.26953125 -0.1171875,0.31640625 -0.082031,0.046875 -0.3046875,0.0703125 -0.6679687,0.0703125 H 0.8540625 v 0.3515625 c 0.2226563,-0.0234375 0.7148438,-0.0234375 1.453125,-0.0234375 0.75,0 1.2421875,0 1.4648438,0.0234375 v -0.3515625 H 3.455625 c -0.375,0 -0.5976562,-0.0234375 -0.6679687,-0.0703125 C 2.7173438,-0.46878125 2.6704688,-0.57425 2.6704688,-0.7383125 v -4.9804687 c 0,-0.2226563 -0.011719,-0.2695313 -0.2460938,-0.2695313 z m 0,0"
         style="fill:#d33682;fill-opacity:1;fill-rule:nonzero;stroke:none"
         aria-label="1"
         transform="matrix(1.3333333,0,0,1.3333333,289.58,137.39067)" />
      <path
         id="path18"
         d="m 2.2378594,0.20002344 c 1.2773437,0 1.8984375,-1.03125 1.8984375,-3.08203124 0,-1.3710938 -0.28125,-2.296875 -0.8554688,-2.7421875 -0.3164062,-0.2460938 -0.6679687,-0.3632813 -1.03125,-0.3632813 -1.26562497,0 -1.89843747,1.03125 -1.89843747,3.1054688 0,1.6640625 0.4453125,3.08203124 1.88671877,3.08203124 z M 3.2456719,-4.7101328 c 0.070312,0.3046875 0.09375,0.890625 0.09375,1.7226562 0,0.8320313 -0.035156,1.4414063 -0.1054688,1.8398438 -0.1171875,0.71484374 -0.4453125,1.07812499 -0.9960937,1.07812499 -0.1992188,0 -0.4101563,-0.08203125 -0.5976563,-0.234375 -0.2460937,-0.2109375 -0.3867187,-0.6328125 -0.4570312,-1.27734379 -0.023437,-0.2226562 -0.035156,-0.6914062 -0.035156,-1.40625 0,-0.7851562 0.035156,-1.3359375 0.070312,-1.6289062 0.082031,-0.4921875 0.2460938,-0.8085938 0.5039063,-0.9492188 0.1992187,-0.1054687 0.3632812,-0.1523437 0.515625,-0.1523437 0.5859375,0 0.9140625,0.46875 1.0078127,1.0078125 z m 0,0"
         style="fill:#d33682;fill-opacity:1;fill-rule:nonzero;stroke:none"
         aria-label="0"
         transform="matrix(1.3333333,0,0,1.3333333,284.524,80.565333)" />
      <path
         id="path19"
         d="m 39.99376,-42.52022 c 0,3.30142 -2.67626,5.97766 -5.97766,5.97766 -3.30142,0 -5.97766,-2.67624 -5.97766,-5.97766 0,-3.3014 2.67624,-5.97766 5.97766,-5.97766 3.3014,0 5.97766,2.67626 5.97766,5.97766 z"
         style="fill:none;stroke:#586e75;stroke-width:0.79701;stroke-linecap:butt;stroke-linejoin:miter;stroke-miterlimit:10;stroke-dasharray:none;stroke-opacity:1"
         transform="matrix(1.3333333,0,0,-1.3333333,318.39867,48.354667)" />
      <path
         id="path20"
         d="M 0,-6.37616 34.0161,-36.14404"
         style="fill:none;stroke:#586e75;stroke-width:0.79701;stroke-linecap:butt;stroke-linejoin:miter;stroke-miterlimit:10;stroke-dasharray:none;stroke-opacity:1"
         transform="matrix(1.3333333,0,0,-1.3333333,318.39867,48.354667)" />
      <path
         id="path21"
         d="m 10.07634,-91.25812 h 13.8634 v 12.43536 h -13.8634 z"
         style="fill:none;stroke:#586e75;stroke-width:0.79701;stroke-linecap:butt;stroke-linejoin:miter;stroke-miterlimit:10;stroke-dasharray:none;stroke-opacity:1"
         transform="matrix(1.3333333,0,0,-1.3333333,318.39867,48.354667)" />
      <path
         id="path22"
         d="m 6.328125,-4.4779375 c 0,-0.5507812 -0.5390625,-0.8320312 -1.1484375,-0.8320312 -0.515625,0 -0.9140625,0.28125 -1.2304687,0.8320312 C 3.6914063,-5.0287187 3.28125,-5.3099687 2.6601563,-5.3099687 c -0.5859375,0 -1.0664063,0.28125 -1.453125,0.8203125 -0.3164063,0.46875 -0.49218755,0.8203125 -0.49218755,1.0429687 0,0.1054688 0.0703125,0.1640625 0.1875,0.1640625 0.10546875,0 0.17578125,-0.058594 0.19921875,-0.1640625 0.234375,-0.6914062 0.7382813,-1.5117187 1.5351563,-1.5117187 0.3984375,0 0.5859375,0.2578125 0.5859375,0.75 0,0.2460937 -0.2109375,1.1835937 -0.6328125,2.7890625 -0.1992188,0.8085937 -0.5625,1.2070312 -1.078125,1.2070312 -0.1640625,0 -0.328125,-0.046875 -0.4570313,-0.10546875 0.3164063,-0.1171875 0.46875,-0.328125 0.46875,-0.64453125 0,-0.3164062 -0.1523437,-0.46875 -0.4804687,-0.46875 -0.39843755,0 -0.6914063,0.3398438 -0.6914063,0.73828125 0,0.55078125 0.5625,0.8203125 1.1484375,0.8203125 0.5039063,0 0.9140625,-0.26953125 1.2304688,-0.8203125 0.234375,0.55078125 0.6679687,0.8203125 1.2890625,0.8203125 0.5742187,0 1.0546875,-0.26953125 1.4414062,-0.80859375 0.328125,-0.46875 0.4921875,-0.8203125 0.4921875,-1.0429687 0,-0.1171875 -0.058594,-0.1757813 -0.1757812,-0.1757813 -0.1171875,0 -0.1757813,0.058594 -0.2109375,0.1757813 -0.1992188,0.6796875 -0.7382813,1.5117187 -1.5234375,1.5117187 -0.3984375,0 -0.5976563,-0.24609375 -0.5976563,-0.73828125 0,-0.15234375 0.058594,-0.49218745 0.1875,-1.03124995 l 0.4101563,-1.6171875 c 0.234375,-0.9023438 0.5976562,-1.359375 1.125,-1.359375 0.1757812,0 0.328125,0.035156 0.4570312,0.09375 -0.3164062,0.1054687 -0.4804687,0.328125 -0.4804687,0.65625 0,0.3046875 0.1757812,0.46875 0.4921875,0.46875 0.3867187,0 0.6914062,-0.3515625 0.6914062,-0.7382813 z m 0,0"
         style="fill:#d33682;fill-opacity:1;fill-rule:nonzero;stroke:none"
         aria-label="𝑥"
         transform="matrix(1.3333333,0,0,1.3333333,336.5,165.18933)" />
      <path
         id="path23"
         d="M 34.0161,-48.89638 17.00804,-78.42424"
         style="fill:none;stroke:#586e75;stroke-width:0.79701;stroke-linecap:butt;stroke-linejoin:miter;stroke-miterlimit:10;stroke-dasharray:none;stroke-opacity:1"
         transform="matrix(1.3333333,0,0,-1.3333333,318.39867,48.354667)" />
      <path
         id="path24"
         d="m 2.2393438,0.19846094 c 1.2773437,0 1.8984375,-1.03125 1.8984375,-3.08203124 0,-1.3710938 -0.28125,-2.296875 -0.8554688,-2.7421875 -0.3164062,-0.2460938 -0.6679687,-0.3632813 -1.03125,-0.3632813 -1.265625,0 -1.8984375,1.03125 -1.8984375,3.1054688 0,1.6640625 0.4453125,3.08203124 1.8867188,3.08203124 z M 3.2471563,-4.7116953 c 0.070312,0.3046875 0.09375,0.890625 0.09375,1.7226562 0,0.8320313 -0.035156,1.4414063 -0.1054688,1.8398438 -0.1171875,0.71484374 -0.4453125,1.07812499 -0.9960937,1.07812499 -0.1992188,0 -0.4101563,-0.08203125 -0.5976563,-0.234375 C 1.3955938,-0.51638281 1.2549688,-0.93825781 1.1846563,-1.5827891 1.1612188,-1.8054453 1.1495,-2.2741953 1.1495,-2.9890391 c 0,-0.7851562 0.035156,-1.3359375 0.070312,-1.6289062 0.082031,-0.4921875 0.2460938,-0.8085938 0.5039063,-0.9492188 0.1992187,-0.1054687 0.3632812,-0.1523437 0.515625,-0.1523437 0.5859375,0 0.9140625,0.46875 1.007813,1.0078125 z m 0,0"
         style="fill:#d33682;fill-opacity:1;fill-rule:nonzero;stroke:none"
         aria-label="0"
         transform="matrix(1.3333333,0,0,1.3333333,341.21733,137.09867)" />
      <path
         id="path25"
         d="m 44.41643,-92.42213 h 13.21541 v 14.7634 H 44.41643 Z"
         style="fill:none;stroke:#586e75;stroke-width:0.79701;stroke-linecap:butt;stroke-linejoin:miter;stroke-miterlimit:10;stroke-dasharray:none;stroke-opacity:1"
         transform="matrix(1.3333333,0,0,-1.3333333,318.39867,48.354667)" />
      <path
         id="path26"
         d="m 1.9558984,-5.3090547 c -0.5390625,0 -0.96093746,0.3046875 -1.26562496,0.9023438 -0.22265625,0.46875 -0.33984375,0.796875 -0.33984375,0.9726562 0,0.1054688 0.0585938,0.1640625 0.1875,0.1640625 0.1640625,0 0.17578125,-0.070312 0.234375,-0.2460937 0.26953121,-0.9492188 0.65625001,-1.4296875 1.14843751,-1.4296875 0.1523437,0 0.234375,0.1054687 0.234375,0.328125 0,0.1875 -0.058594,0.46875 -0.1875,0.8085937 -0.4570313,1.2421875 -0.6796875,2.0742188 -0.6796875,2.5078125 0,0.91406251 0.5625,1.45312501 1.4882812,1.45312501 0.3867188,0 0.7617188,-0.140625 1.1015625,-0.43359375 -0.421875,1.59375004 -1.078125,2.37890624 -1.9804687,2.37890624 -0.4101563,0 -0.6914063,-0.1289062 -0.8320313,-0.3984375 0.4804688,-0.023437 0.7265625,-0.2460937 0.7265625,-0.6796875 0,-0.30468749 -0.1640625,-0.45703124 -0.4804687,-0.45703124 -0.44531251,0 -0.71484376,0.375 -0.71484376,0.82031254 0,0.65625 0.59765626,1.078125 1.30078126,1.078125 1.3828125,0 2.5078125,-1.2773438 2.8007812,-2.44921879 L 5.8348047,-4.5238984 c 0.035156,-0.1289063 0.046875,-0.234375 0.046875,-0.2929688 0,-0.234375 -0.140625,-0.3515625 -0.3867188,-0.3515625 -0.1875,0 -0.3515625,0.09375 -0.4570312,0.2695313 -0.070312,0.2578125 -0.1289063,0.46875 -0.1640625,0.65625 l -0.7734375,3.0820312 c -0.1171875,0.43359376 -0.75,0.97265626 -1.2890625,0.97265626 -0.4570313,0 -0.6914063,-0.3046875 -0.6914063,-0.91406246 0,-0.5039063 0.2109375,-1.2773438 0.5976563,-2.3085938 0.1640625,-0.421875 0.2460937,-0.703125 0.2460937,-0.8789062 0,-0.5859375 -0.421875,-1.0195313 -1.0078125,-1.0195313 z m 0,0"
         style="fill:#d33682;fill-opacity:1;fill-rule:nonzero;stroke:none"
         aria-label="𝑦"
         transform="matrix(1.3333333,0,0,1.3333333,382.28667,163.63733)" />
      <path
         id="path27"
         d="M 34.0161,-48.89638 51.02414,-77.26024"
         style="fill:none;stroke:#586e75;stroke-width:0.79701;stroke-linecap:butt;stroke-linejoin:miter;stroke-miterlimit:10;stroke-dasharray:none;stroke-opacity:1"
         transform="matrix(1.3333333,0,0,-1.3333333,318.39867,48.354667)" />
      <path
         id="path28"
         d="m 2.4255781,-5.9894375 c -0.375,0.375 -0.9140625,0.5625 -1.62890622,0.5625 v 0.3515625 c 0.46875002,0 0.85546872,-0.070312 1.16015622,-0.2226562 v 4.5585937 c 0,0.1640625 -0.035156,0.26953125 -0.1171875,0.31640625 -0.082031,0.046875 -0.3046875,0.0703125 -0.6679687,0.0703125 H 0.85526563 v 0.3515625 c 0.22265627,-0.0234375 0.71484377,-0.0234375 1.45312497,-0.0234375 0.75,0 1.2421875,0 1.4648438,0.0234375 v -0.3515625 H 3.4568281 c -0.375,0 -0.5976562,-0.0234375 -0.6679687,-0.0703125 C 2.7185469,-0.46990625 2.6716719,-0.575375 2.6716719,-0.7394375 v -4.9804687 c 0,-0.2226563 -0.011719,-0.2695313 -0.2460938,-0.2695313 z m 0,0"
         style="fill:#d33682;fill-opacity:1;fill-rule:nonzero;stroke:none"
         aria-label="1"
         transform="matrix(1.3333333,0,0,1.3333333,380.28933,136.45467)" />
      <path
         id="path29"
         d="m 2.4258594,-5.9868672 c -0.375,0.375 -0.9140625,0.5625 -1.62890627,0.5625 v 0.3515625 c 0.46874997,0 0.85546877,-0.070312 1.16015627,-0.2226562 v 4.55859371 c 0,0.1640625 -0.035156,0.26953125 -0.1171875,0.31640625 -0.082031,0.046875 -0.3046875,0.0703125 -0.6679688,0.0703125 H 0.85554688 v 0.3515625 c 0.22265622,-0.0234375 0.71484372,-0.0234375 1.45312502,-0.0234375 0.75,0 1.2421875,0 1.4648437,0.0234375 v -0.3515625 H 3.4571094 c -0.375,0 -0.5976563,-0.0234375 -0.6679688,-0.0703125 -0.070312,-0.046875 -0.1171875,-0.15234375 -0.1171875,-0.31640625 V -5.7173359 c 0,-0.2226563 -0.011719,-0.2695313 -0.2460937,-0.2695313 z m 0,0"
         style="fill:#d33682;fill-opacity:1;fill-rule:nonzero;stroke:none"
         aria-label="1"
         transform="matrix(1.3333333,0,0,1.3333333,346.27333,80.697333)" />
      <path
         id="path30"
         d="m 1.6409531,-1.3354062 c 0,-0.1875 -0.1992187,-0.328125 -0.4101562,-0.328125 -0.29296877,0 -0.62109377,0.3398437 -0.69140627,0.5859375 -0.22265625,0.82031245 0.22265625,1.14843745 0.97265627,1.14843745 0.5742187,0 1.1132812,-0.1875 1.6054687,-0.5859375 C 4.0784531,-1.30025 4.4534531,-2.2729062 4.8518906,-3.7963437 l 0.7851563,-3.1523438 c 0.6796875,0.140625 1.1015625,0.2226563 1.3007812,0.2226563 0.375,0 0.6914063,-0.140625 0.984375,-0.3867188 0.3398438,-0.3164062 0.6445313,-0.6679687 0.9375,-1.03125 L 8.5550156,-8.3315 c -0.3984375,0.4921875 -0.7734375,0.75 -1.125,0.75 -0.421875,0 -1.0429687,-0.1054687 -1.8867187,-0.328125 -0.75,-0.1992187 -1.3359375,-0.2929687 -1.7226563,-0.2929687 -0.65625,0 -1.2890625,0.1992187 -1.9101562,0.609375 -0.6679688,0.4453125 -1.06640627,0.9609375 -1.23046877,1.5585937 -0.0820313,0.3164063 -0.046875,0.5625 0.1171875,0.7617188 0.10546875,0.1640625 0.22265627,0.2460937 0.35156247,0.2460937 0.28125,0 0.65625,-0.3515625 0.7148438,-0.5742187 0.070312,-0.3515625 -0.328125,-0.5742188 -0.2578125,-0.890625 0.1289062,-0.5507813 0.75,-1.03125 1.4296875,-1.03125 0.3046875,0 0.8789062,0.1289062 1.734375,0.4101562 l -0.984375,4.0195313 c -0.1523438,0.5859375 -0.328125,1.1132812 -0.5273438,1.5585937 -0.3515625,0.73828125 -0.8085937,1.11328125 -1.3476562,1.11328125 -0.28125,0 -0.4101563,-0.0820313 -0.4101563,-0.24609375 0,-0.10546875 0.140625,-0.5625 0.140625,-0.6679687 z m 0,0"
         style="fill:#d33682;fill-opacity:1;fill-rule:nonzero;stroke:none"
         aria-label="𝒯"
         transform="matrix(1.3333333,0,0,1.3333333,338.648,53.858667)" />
      <path
         id="path31"
         d="m 20.834664,-3.4924219 c 0.117188,-0.058594 0.175781,-0.1523437 0.175781,-0.2578125 0,-0.1054687 -0.05859,-0.1992187 -0.175781,-0.2578125 -0.925781,-0.234375 -1.863281,-0.7617187 -2.777344,-1.5585937 -0.667968,-0.5859375 -1.195312,-1.2539063 -1.605468,-2.0390625 -0.05859,-0.1289063 -0.164063,-0.1992188 -0.316407,-0.1992188 -0.234375,0 -0.351562,0.1289063 -0.351562,0.3632813 0,0.035156 0.01172,0.082031 0.02344,0.1523437 0.351563,0.65625 0.761719,1.2421875 1.242188,1.7578125 H 1.1940391 c -0.23437504,0 -0.35156254,0.1171875 -0.35156254,0.3398438 0,0.2460937 0.1171875,0.3632812 0.35156254,0.3632812 H 17.834664 c 0.574219,0.4453125 1.183594,0.8085938 1.828125,1.078125 -0.644531,0.2695313 -1.253906,0.6328125 -1.828125,1.078125 H 1.1940391 c -0.23437504,0 -0.35156254,0.1171875 -0.35156254,0.3632813 0,0.2226562 0.1171875,0.3398437 0.35156254,0.3398437 H 17.049508 c -0.480469,0.515625 -0.890625,1.10156253 -1.242188,1.75781253 -0.01172,0.0703125 -0.02344,0.1171875 -0.02344,0.15234375 0,0.234375 0.117187,0.36328125 0.351562,0.36328125 0.152344,0 0.257813,-0.0703125 0.316407,-0.19921875 0.410156,-0.78515625 0.9375,-1.45312498 1.605468,-2.03906248 0.914063,-0.796875 1.851563,-1.3242188 2.777344,-1.5585938 z m 0,0"
         style="fill:#d33682;fill-opacity:1;fill-rule:nonzero;stroke:none"
         aria-label="⟹"
         transform="matrix(1.3333333,0,0,1.3333333,426.29467,138.68)" />
      <path
         id="path32"
         d="M 5.97766,0 C 5.97766,3.3014 3.3014,5.97766 0,5.97766 -3.3014,5.97766 -5.97766,3.3014 -5.97766,0 c 0,-3.3014 2.67626,-5.97766 5.97766,-5.97766 3.3014,0 5.97766,2.67626 5.97766,5.97766 z"
         style="fill:none;stroke:#586e75;stroke-width:0.79701;stroke-linecap:butt;stroke-linejoin:miter;stroke-miterlimit:10;stroke-dasharray:none;stroke-opacity:1"
         transform="matrix(1.3333333,0,0,-1.3333333,559.188,47.472)" />
      <path
         id="path33"
         d="m -28.03844,-42.52022 c 0,3.30142 -2.67624,5.97766 -5.97766,5.97766 -3.3014,0 -5.97766,-2.67624 -5.97766,-5.97766 0,-3.3014 2.67626,-5.97766 5.97766,-5.97766 3.30142,0 5.97766,2.67626 5.97766,5.97766 z"
         style="fill:none;stroke:#586e75;stroke-width:0.79701;stroke-linecap:butt;stroke-linejoin:miter;stroke-miterlimit:10;stroke-dasharray:none;stroke-opacity:1"
         transform="matrix(1.3333333,0,0,-1.3333333,559.188,47.472)" />
      <path
         id="path34"
         d="M 0,-6.37616 -34.0161,-36.14404"
         style="fill:none;stroke:#586e75;stroke-width:0.79701;stroke-linecap:butt;stroke-linejoin:miter;stroke-miterlimit:10;stroke-dasharray:none;stroke-opacity:1"
         transform="matrix(1.3333333,0,0,-1.3333333,559.188,47.472)" />
      <path
         id="path35"
         d="m -54.5238,-88.5401 h 6.99931 v 6.99931 h -6.99931 z"
         style="fill:none;stroke:#586e75;stroke-width:0.79701;stroke-linecap:butt;stroke-linejoin:miter;stroke-miterlimit:10;stroke-dasharray:none;stroke-opacity:1"
         transform="matrix(1.3333333,0,0,-1.3333333,559.188,47.472)" />
      <path
         id="path36"
         d="M -34.0161,-48.89638 -51.02414,-81.14227"
         style="fill:none;stroke:#586e75;stroke-width:0.79701;stroke-linecap:butt;stroke-linejoin:miter;stroke-miterlimit:10;stroke-dasharray:none;stroke-opacity:1"
         transform="matrix(1.3333333,0,0,-1.3333333,559.188,47.472)" />
      <path
         id="path37"
         d="m 2.2379375,0.19872656 c 1.2773438,0 1.8984375,-1.03125 1.8984375,-3.08203126 0,-1.3710937 -0.28125,-2.296875 -0.8554687,-2.7421875 -0.3164063,-0.2460937 -0.6679688,-0.3632812 -1.03125,-0.3632812 -1.26562505,0 -1.89843755,1.03125 -1.89843755,3.1054687 0,1.6640625 0.4453125,3.08203126 1.88671875,3.08203126 z M 3.24575,-4.7114297 c 0.070312,0.3046875 0.09375,0.890625 0.09375,1.7226563 0,0.8320312 -0.035156,1.4414062 -0.1054687,1.8398437 -0.1171875,0.71484376 -0.4453125,1.07812501 -0.9960938,1.07812501 -0.1992187,0 -0.4101562,-0.08203125 -0.5976562,-0.234375 C 1.3941875,-0.51611719 1.2535625,-0.93799219 1.18325,-1.5825234 1.159813,-1.8051797 1.148094,-2.2739297 1.148094,-2.9887734 c 0,-0.7851563 0.035156,-1.3359375 0.070312,-1.6289063 0.082031,-0.4921875 0.2460937,-0.8085937 0.5039062,-0.9492187 0.1992188,-0.1054688 0.3632813,-0.1523438 0.515625,-0.1523438 0.5859375,0 0.9140625,0.46875 1.0078128,1.0078125 z m 0,0"
         style="fill:#d33682;fill-opacity:1;fill-rule:nonzero;stroke:none"
         aria-label="0"
         transform="matrix(1.3333333,0,0,1.3333333,491.29733,138.028)" />
      <path
         id="path38"
         d="m -11.03038,-85.04044 c 0,3.30141 -2.67625,5.97767 -5.97766,5.97767 -3.30141,0 -5.97766,-2.67626 -5.97766,-5.97767 0,-3.30142 2.67625,-5.97766 5.97766,-5.97766 3.30141,0 5.97766,2.67624 5.97766,5.97766 z"
         style="fill:none;stroke:#586e75;stroke-width:0.79701;stroke-linecap:butt;stroke-linejoin:miter;stroke-miterlimit:10;stroke-dasharray:none;stroke-opacity:1"
         transform="matrix(1.3333333,0,0,-1.3333333,559.188,47.472)" />
      <path
         id="path39"
         d="m -34.0161,-48.89638 17.00806,-29.7679"
         style="fill:none;stroke:#586e75;stroke-width:0.79701;stroke-linecap:butt;stroke-linejoin:miter;stroke-miterlimit:10;stroke-dasharray:none;stroke-opacity:1"
         transform="matrix(1.3333333,0,0,-1.3333333,559.188,47.472)" />
      <path
         id="path40"
         d="m -40.9478,-133.77835 h 13.8634 v 12.43536 h -13.8634 z"
         style="fill:none;stroke:#586e75;stroke-width:0.79701;stroke-linecap:butt;stroke-linejoin:miter;stroke-miterlimit:10;stroke-dasharray:none;stroke-opacity:1"
         transform="matrix(1.3333333,0,0,-1.3333333,559.188,47.472)" />
      <path
         id="path41"
         d="m 6.3284844,-4.4775625 c 0,-0.5507812 -0.5390625,-0.8320312 -1.1484375,-0.8320312 -0.515625,0 -0.9140625,0.28125 -1.2304688,0.8320312 -0.2578125,-0.5507812 -0.6679687,-0.8320312 -1.2890625,-0.8320312 -0.5859375,0 -1.0664062,0.28125 -1.453125,0.8203125 -0.31640622,0.46875 -0.49218747,0.8203125 -0.49218747,1.0429687 0,0.1054688 0.0703125,0.1640625 0.1875,0.1640625 0.10546877,0 0.17578127,-0.058594 0.19921877,-0.1640625 0.234375,-0.6914062 0.7382812,-1.5117187 1.5351562,-1.5117187 0.3984375,0 0.5859375,0.2578125 0.5859375,0.75 0,0.2460937 -0.2109375,1.1835937 -0.6328125,2.7890625 -0.1992187,0.8085937 -0.5625,1.2070312 -1.078125,1.2070312 -0.1640625,0 -0.328125,-0.046875 -0.4570312,-0.10546875 0.3164062,-0.1171875 0.46875,-0.328125 0.46875,-0.64453125 0,-0.3164062 -0.1523438,-0.46875 -0.4804688,-0.46875 -0.39843747,0 -0.69140622,0.3398438 -0.69140622,0.73828125 0,0.55078125 0.5625,0.8203125 1.14843752,0.8203125 0.5039062,0 0.9140625,-0.26953125 1.2304687,-0.8203125 0.234375,0.55078125 0.6679688,0.8203125 1.2890625,0.8203125 0.5742188,0 1.0546875,-0.26953125 1.4414063,-0.80859375 0.328125,-0.46875 0.4921875,-0.8203125 0.4921875,-1.0429687 0,-0.1171875 -0.058594,-0.1757813 -0.1757813,-0.1757813 -0.1171875,0 -0.1757812,0.058594 -0.2109375,0.1757813 -0.1992187,0.6796875 -0.7382812,1.5117187 -1.5234375,1.5117187 -0.3984375,0 -0.5976562,-0.24609375 -0.5976562,-0.73828125 0,-0.15234375 0.058594,-0.49218745 0.1875,-1.03124995 l 0.4101562,-1.6171875 c 0.234375,-0.9023438 0.5976563,-1.359375 1.125,-1.359375 0.1757813,0 0.328125,0.035156 0.4570313,0.09375 -0.3164063,0.1054687 -0.4804688,0.328125 -0.4804688,0.65625 0,0.3046875 0.1757813,0.46875 0.4921875,0.46875 0.3867188,0 0.6914063,-0.3515625 0.6914063,-0.7382813 z m 0,0"
         style="fill:#d33682;fill-opacity:1;fill-rule:nonzero;stroke:none"
         aria-label="𝑥"
         transform="matrix(1.3333333,0,0,1.3333333,509.25733,221.00133)" />
      <path
         id="path42"
         d="M -17.00804,-91.4166 -34.0161,-120.94447"
         style="fill:none;stroke:#586e75;stroke-width:0.79701;stroke-linecap:butt;stroke-linejoin:miter;stroke-miterlimit:10;stroke-dasharray:none;stroke-opacity:1"
         transform="matrix(1.3333333,0,0,-1.3333333,559.188,47.472)" />
      <path
         id="path43"
         d="m 2.2397031,0.19883594 c 1.2773438,0 1.8984375,-1.03125 1.8984375,-3.08203124 0,-1.3710938 -0.28125,-2.296875 -0.8554687,-2.7421875 -0.3164063,-0.2460938 -0.6679688,-0.3632813 -1.03125,-0.3632813 -1.26562502,0 -1.89843752,1.03125 -1.89843752,3.1054688 0,1.6640625 0.4453125,3.08203124 1.88671872,3.08203124 z M 3.2475156,-4.7113203 c 0.070312,0.3046875 0.09375,0.890625 0.09375,1.7226562 0,0.8320313 -0.035156,1.4414063 -0.1054687,1.8398438 -0.1171875,0.71484374 -0.4453125,1.07812499 -0.9960938,1.07812499 -0.1992187,0 -0.4101562,-0.08203125 -0.5976562,-0.234375 -0.2460938,-0.2109375 -0.3867188,-0.6328125 -0.4570313,-1.27734379 -0.023437,-0.2226562 -0.035156,-0.6914062 -0.035156,-1.40625 0,-0.7851562 0.035156,-1.3359375 0.070312,-1.6289062 0.082031,-0.4921875 0.2460937,-0.8085938 0.5039062,-0.9492188 0.1992188,-0.1054687 0.3632813,-0.1523437 0.515625,-0.1523437 0.5859375,0 0.9140625,0.46875 1.0078128,1.0078125 z m 0,0"
         style="fill:#d33682;fill-opacity:1;fill-rule:nonzero;stroke:none"
         aria-label="0"
         transform="matrix(1.3333333,0,0,1.3333333,513.97467,192.91067)" />
      <path
         id="path44"
         d="M -6.15767,-135.29036 H 6.15768 v 15.4594 H -6.15767 Z"
         style="fill:none;stroke:#586e75;stroke-width:0.79701;stroke-linecap:butt;stroke-linejoin:miter;stroke-miterlimit:10;stroke-dasharray:none;stroke-opacity:1"
         transform="matrix(1.3333333,0,0,-1.3333333,559.188,47.472)" />
      <path
         id="path45"
         d="m 3.3753984,-5.3450312 c -0.4335937,0 -0.8671875,0.2109375 -1.2890625,0.6210937 l 0.8320313,-3.421875 c -0.023437,-0.1171875 -0.058594,-0.1875 -0.2109375,-0.1875 -0.3867188,0 -1.265625,0.1171875 -1.4179688,0.1289063 -0.1875,0.023437 -0.28125,0.1054687 -0.28125,0.28125 0,0.1171875 0.1054688,0.1875 0.3398438,0.1875 0.2226562,0 0.5390625,-0.023437 0.5390625,0.1523437 0,0.046875 -0.058594,0.28125 -0.1757813,0.7265625 l -0.94921871,3.8671875 c -0.140625,0.5039063 -0.19921875,0.9140625 -0.19921875,1.2070313 0,1.0429687 0.55078126,1.9101562 1.53515626,1.9101562 0.7851562,0 1.4648437,-0.3984375 2.0625,-1.1953125 0.5390625,-0.75 0.8203125,-1.5234375 0.8203125,-2.3320312 0,-1.0429688 -0.609375,-1.9453125 -1.6054688,-1.9453125 z M 3.3519609,-4.98175 c 0.46875,0 0.6914063,0.3632813 0.6914063,1.0664063 0,0.328125 -0.070312,0.7617187 -0.2109375,1.3007812 -0.2695313,1.0195313 -0.6210938,1.7109375 -1.03125,2.0859375 -0.2460938,0.19921875 -0.46875,0.3046875 -0.703125,0.3046875 -0.4921875,0 -0.7265625,-0.38671875 -0.7265625,-1.1601562 0,-0.2578125 0.058594,-0.65625 0.1757812,-1.1835938 l 0.2695313,-1.078125 c 0.035156,-0.1875 0.09375,-0.3164062 0.1640625,-0.4101562 0.46875,-0.609375 0.9257812,-0.9257813 1.3710937,-0.9257813 z m 0,0"
         style="fill:#d33682;fill-opacity:1;fill-rule:nonzero;stroke:none"
         aria-label="𝑏"
         transform="matrix(1.3333333,0,0,1.3333333,555.644,223.01733)" />
      <path
         id="path46"
         d="M -17.00804,-91.4166 0,-119.43245"
         style="fill:none;stroke:#586e75;stroke-width:0.79701;stroke-linecap:butt;stroke-linejoin:miter;stroke-miterlimit:10;stroke-dasharray:none;stroke-opacity:1"
         transform="matrix(1.3333333,0,0,-1.3333333,559.188,47.472)" />
      <path
         id="path47"
         d="m 2.4259375,-5.9879141 c -0.375,0.375 -0.9140625,0.5625 -1.62890625,0.5625 v 0.3515625 c 0.46875005,0 0.85546875,-0.070312 1.16015625,-0.2226562 v 4.55859374 c 0,0.1640625 -0.035156,0.26953125 -0.1171875,0.31640625 -0.082031,0.046875 -0.3046875,0.0703125 -0.6679687,0.0703125 H 0.855625 V 3.671875e-4 C 1.0782813,-0.02307031 1.5704688,-0.02307031 2.30875,-0.02307031 c 0.75,0 1.2421875,0 1.4648438,0.0234374975 V -0.35119531 H 3.4571875 c -0.375,0 -0.5976562,-0.0234375 -0.6679687,-0.0703125 -0.070312,-0.046875 -0.1171875,-0.15234375 -0.1171875,-0.31640625 V -5.7183828 c 0,-0.2226563 -0.011719,-0.2695313 -0.2460938,-0.2695313 z m 0,0"
         style="fill:#d33682;fill-opacity:1;fill-rule:nonzero;stroke:none"
         aria-label="1"
         transform="matrix(1.3333333,0,0,1.3333333,553.04667,192.03467)" />
      <path
         id="path48"
         d="m 2.4271016,-5.9884219 c -0.375,0.375 -0.9140625,0.5625 -1.62890629,0.5625 v 0.3515625 c 0.46874999,0 0.85546879,-0.070312 1.16015629,-0.2226562 v 4.55859373 c 0,0.1640625 -0.035156,0.26953125 -0.1171875,0.31640625 -0.082031,0.046875 -0.3046875,0.0703125 -0.6679688,0.0703125 H 0.85678906 V -1.40625e-4 C 1.0794453,-0.02357812 1.5716328,-0.02357812 2.3099141,-0.02357812 c 0.75,0 1.2421875,0 1.4648437,0.023437495 V -0.35170312 H 3.4583516 c -0.375,0 -0.5976563,-0.0234375 -0.6679688,-0.0703125 -0.070312,-0.046875 -0.1171875,-0.15234375 -0.1171875,-0.31640625 V -5.7188906 c 0,-0.2226563 -0.011719,-0.2695313 -0.2460937,-0.2695313 z m 0,0"
         style="fill:#d33682;fill-opacity:1;fill-rule:nonzero;stroke:none"
         aria-label="1"
         transform="matrix(1.3333333,0,0,1.3333333,530.36933,136.508)" />
      <path
         id="path49"
         d="m 2.2376563,0.19991406 c 1.2773437,0 1.8984375,-1.03125 1.8984375,-3.08203126 0,-1.3710937 -0.28125,-2.296875 -0.8554688,-2.7421875 -0.3164062,-0.2460937 -0.6679687,-0.3632812 -1.03125,-0.3632812 -1.265625,0 -1.8984375,1.03125 -1.8984375,3.1054687 0,1.6640625 0.4453125,3.08203126 1.8867188,3.08203126 z M 3.2454688,-4.7102422 c 0.070312,0.3046875 0.09375,0.890625 0.09375,1.7226563 0,0.8320312 -0.035156,1.4414062 -0.1054688,1.8398437 -0.1171875,0.71484376 -0.4453125,1.07812501 -0.9960937,1.07812501 -0.1992188,0 -0.4101563,-0.08203125 -0.5976563,-0.234375 -0.2460937,-0.2109375 -0.3867187,-0.6328125 -0.4570312,-1.27734371 -0.023437,-0.2226563 -0.035156,-0.6914063 -0.035156,-1.40625 0,-0.7851563 0.035156,-1.3359375 0.070312,-1.6289063 0.082031,-0.4921875 0.2460938,-0.8085937 0.5039063,-0.9492187 0.1992187,-0.1054688 0.3632812,-0.1523438 0.515625,-0.1523438 0.5859375,0 0.9140625,0.46875 1.0078127,1.0078125 z m 0,0"
         style="fill:#d33682;fill-opacity:1;fill-rule:nonzero;stroke:none"
         aria-label="0"
         transform="matrix(1.3333333,0,0,1.3333333,525.31333,79.682667)" />
      <path
         id="path50"
         d="m 39.99376,-42.52022 c 0,3.30142 -2.67626,5.97766 -5.97766,5.97766 -3.30142,0 -5.97766,-2.67624 -5.97766,-5.97766 0,-3.3014 2.67624,-5.97766 5.97766,-5.97766 3.3014,0 5.97766,2.67626 5.97766,5.97766 z"
         style="fill:none;stroke:#586e75;stroke-width:0.79701;stroke-linecap:butt;stroke-linejoin:miter;stroke-miterlimit:10;stroke-dasharray:none;stroke-opacity:1"
         transform="matrix(1.3333333,0,0,-1.3333333,559.188,47.472)" />
      <path
         id="path51"
         d="M 0,-6.37616 34.0161,-36.14404"
         style="fill:none;stroke:#586e75;stroke-width:0.79701;stroke-linecap:butt;stroke-linejoin:miter;stroke-miterlimit:10;stroke-dasharray:none;stroke-opacity:1"
         transform="matrix(1.3333333,0,0,-1.3333333,559.188,47.472)" />
      <path
         id="path52"
         d="m 10.33434,-91.25812 h 13.3474 v 12.43536 h -13.3474 z"
         style="fill:none;stroke:#586e75;stroke-width:0.79701;stroke-linecap:butt;stroke-linejoin:miter;stroke-miterlimit:10;stroke-dasharray:none;stroke-opacity:1"
         transform="matrix(1.3333333,0,0,-1.3333333,559.188,47.472)" />
      <path
         id="path53"
         d="m 5.9761719,-1.7212109 c 0,-0.1171875 -0.058594,-0.1757813 -0.1875,-0.1757813 -0.1054688,0 -0.1757813,0.082031 -0.2109375,0.2578125 -0.234375,0.94921876 -0.5273438,1.42968751 -0.8554688,1.42968751 -0.1992187,0 -0.3046875,-0.17578125 -0.3046875,-0.50390625 0,-0.1640625 0.046875,-0.44531246 0.1523438,-0.86718746 l 0.6914062,-2.7070313 c 0.058594,-0.2226562 0.082031,-0.3515625 0.082031,-0.4101562 0,-0.2460938 -0.140625,-0.3632813 -0.3984375,-0.3632813 -0.2578125,0 -0.421875,0.140625 -0.5039063,0.421875 -0.2578125,-0.4453125 -0.609375,-0.6679687 -1.0664062,-0.6679687 -0.7851563,0 -1.4648438,0.3984375 -2.0625,1.1953125 -0.55078127,0.7382812 -0.83203127,1.5117187 -0.83203127,2.3085937 0,1.04296876 0.60937497,1.93359376 1.61718747,1.93359376 0.515625,0 1.0195313,-0.26953125 1.5,-0.8203125 0.1289063,0.45703125 0.5390625,0.8203125 1.1015625,0.8203125 0.8320313,0 1.0898438,-0.97265625 1.2773441,-1.85156246 z m -1.8867188,-2.765625 c 0.1054688,0.2578125 0.1757813,0.421875 0.1757813,0.5273437 0,0.046875 -0.023437,0.1054688 -0.035156,0.1875 l -0.5859375,2.3085938 c -0.035156,0.1289062 -0.1171875,0.28125 -0.2226562,0.421875 -0.4453125,0.55078121 -0.8789063,0.83203121 -1.3007813,0.83203121 -0.46875,0 -0.703125,-0.36328125 -0.703125,-1.07812501 0,-0.28125 0.070312,-0.7148437 0.2109375,-1.2890625 0.2578125,-1.0195312 0.609375,-1.7109375 1.0546875,-2.0742187 0.2460938,-0.2109375 0.46875,-0.3046875 0.703125,-0.3046875 0.3164063,0 0.5625,0.1523437 0.7031247,0.46875 z m 0,0"
         style="fill:#d33682;fill-opacity:1;fill-rule:nonzero;stroke:none"
         aria-label="𝑎"
         transform="matrix(1.3333333,0,0,1.3333333,577.63333,164.30667)" />
      <path
         id="path54"
         d="M 34.0161,-48.89638 17.00804,-78.42424"
         style="fill:none;stroke:#586e75;stroke-width:0.79701;stroke-linecap:butt;stroke-linejoin:miter;stroke-miterlimit:10;stroke-dasharray:none;stroke-opacity:1"
         transform="matrix(1.3333333,0,0,-1.3333333,559.188,47.472)" />
      <path
         id="path55"
         d="m 2.2391406,0.19835156 c 1.2773438,0 1.8984375,-1.03125 1.8984375,-3.08203126 0,-1.3710937 -0.28125,-2.296875 -0.8554687,-2.7421875 -0.3164063,-0.2460937 -0.6679688,-0.3632812 -1.03125,-0.3632812 -1.26562502,0 -1.89843752,1.03125 -1.89843752,3.1054687 0,1.6640625 0.4453125,3.08203126 1.88671872,3.08203126 z M 3.2469531,-4.7118047 c 0.070312,0.3046875 0.09375,0.890625 0.09375,1.7226563 0,0.8320312 -0.035156,1.4414062 -0.1054687,1.8398437 -0.1171875,0.71484376 -0.4453125,1.07812501 -0.9960938,1.07812501 -0.1992187,0 -0.4101562,-0.08203125 -0.5976562,-0.234375 -0.2460938,-0.2109375 -0.3867188,-0.6328125 -0.4570313,-1.27734371 -0.023437,-0.2226563 -0.035156,-0.6914063 -0.035156,-1.40625 0,-0.7851563 0.035156,-1.3359375 0.070312,-1.6289063 0.082031,-0.4921875 0.2460937,-0.8085937 0.5039062,-0.9492187 0.1992188,-0.1054688 0.3632813,-0.1523438 0.515625,-0.1523438 0.5859375,0 0.9140625,0.46875 1.0078128,1.0078125 z m 0,0"
         style="fill:#d33682;fill-opacity:1;fill-rule:nonzero;stroke:none"
         aria-label="0"
         transform="matrix(1.3333333,0,0,1.3333333,582.00667,136.216)" />
      <path
         id="path56"
         d="m 44.41643,-92.42213 h 13.21541 v 14.7634 H 44.41643 Z"
         style="fill:none;stroke:#586e75;stroke-width:0.79701;stroke-linecap:butt;stroke-linejoin:miter;stroke-miterlimit:10;stroke-dasharray:none;stroke-opacity:1"
         transform="matrix(1.3333333,0,0,-1.3333333,559.188,47.472)" />
      <path
         id="path57"
         d="m 1.9556953,-5.3091641 c -0.5390625,0 -0.96093749,0.3046875 -1.26562499,0.9023438 -0.22265625,0.46875 -0.33984375,0.796875 -0.33984375,0.9726562 0,0.1054688 0.0585938,0.1640625 0.1875,0.1640625 0.1640625,0 0.17578125,-0.070312 0.234375,-0.2460937 0.26953124,-0.9492188 0.65625004,-1.4296875 1.14843754,-1.4296875 0.1523437,0 0.234375,0.1054687 0.234375,0.328125 0,0.1875 -0.058594,0.46875 -0.1875,0.8085937 -0.4570313,1.2421875 -0.6796875,2.0742188 -0.6796875,2.5078125 0,0.91406254 0.5625,1.45312504 1.4882812,1.45312504 0.3867188,0 0.7617188,-0.140625 1.1015625,-0.43359375 -0.421875,1.59375001 -1.078125,2.37890621 -1.9804687,2.37890621 -0.4101563,0 -0.6914063,-0.1289062 -0.8320313,-0.3984375 0.4804688,-0.023437 0.7265625,-0.2460937 0.7265625,-0.6796875 0,-0.30468746 -0.1640625,-0.45703121 -0.4804687,-0.45703121 -0.44531254,0 -0.71484379,0.375 -0.71484379,0.82031251 0,0.65625 0.59765629,1.078125 1.30078129,1.078125 1.3828125,0 2.5078125,-1.2773438 2.8007812,-2.44921876 L 5.8346016,-4.5240078 c 0.035156,-0.1289063 0.046875,-0.234375 0.046875,-0.2929688 0,-0.234375 -0.140625,-0.3515625 -0.3867188,-0.3515625 -0.1875,0 -0.3515625,0.09375 -0.4570312,0.2695313 -0.070312,0.2578125 -0.1289063,0.46875 -0.1640625,0.65625 l -0.7734375,3.0820312 c -0.1171875,0.43359379 -0.75,0.97265629 -1.2890625,0.97265629 -0.4570313,0 -0.6914063,-0.3046875 -0.6914063,-0.91406249 0,-0.5039063 0.2109375,-1.2773438 0.5976563,-2.3085938 0.1640625,-0.421875 0.2460937,-0.703125 0.2460937,-0.8789062 0,-0.5859375 -0.421875,-1.0195313 -1.0078125,-1.0195313 z m 0,0"
         style="fill:#d33682;fill-opacity:1;fill-rule:nonzero;stroke:none"
         aria-label="𝑦"
         transform="matrix(1.3333333,0,0,1.3333333,623.076,162.75467)" />
      <path
         id="path58"
         d="M 34.0161,-48.89638 51.02414,-77.26024"
         style="fill:none;stroke:#586e75;stroke-width:0.79701;stroke-linecap:butt;stroke-linejoin:miter;stroke-miterlimit:10;stroke-dasharray:none;stroke-opacity:1"
         transform="matrix(1.3333333,0,0,-1.3333333,559.188,47.472)" />
      <path
         id="path59"
         d="m 2.425375,-5.9895469 c -0.375,0.375 -0.9140625,0.5625 -1.62890625,0.5625 v 0.3515625 c 0.46875005,0 0.85546875,-0.070312 1.16015625,-0.2226562 v 4.55859373 c 0,0.1640625 -0.035156,0.26953125 -0.1171875,0.31640625 -0.082031,0.046875 -0.3046875,0.0703125 -0.6679687,0.0703125 H 0.8550625 v 0.3515625 c 0.2226563,-0.0234375 0.7148438,-0.0234375 1.453125,-0.0234375 0.75,0 1.2421875,0 1.4648438,0.0234375 v -0.3515625 H 3.456625 c -0.375,0 -0.5976562,-0.0234375 -0.6679687,-0.0703125 -0.070312,-0.046875 -0.1171875,-0.15234375 -0.1171875,-0.31640625 V -5.7200156 c 0,-0.2226563 -0.011719,-0.2695313 -0.2460938,-0.2695313 z m 0,0"
         style="fill:#d33682;fill-opacity:1;fill-rule:nonzero;stroke:none"
         aria-label="1"
         transform="matrix(1.3333333,0,0,1.3333333,621.07867,135.572)" />
      <path
         id="path60"
         d="m 2.4256563,-5.9869766 c -0.375,0.375 -0.9140625,0.5625 -1.6289063,0.5625 v 0.3515625 c 0.46875,0 0.8554688,-0.070312 1.1601563,-0.2226562 v 4.55859374 c 0,0.1640625 -0.035156,0.26953125 -0.1171875,0.31640625 -0.082031,0.046875 -0.3046875,0.0703125 -0.6679688,0.0703125 H 0.85534375 v 0.3515625 C 1.078,-0.02213281 1.5701875,-0.02213281 2.3084688,-0.02213281 c 0.75,0 1.2421875,0 1.4648437,0.0234375 v -0.3515625 H 3.4569063 c -0.375,0 -0.5976563,-0.0234375 -0.6679688,-0.0703125 C 2.718625,-0.46744531 2.67175,-0.57291406 2.67175,-0.73697656 V -5.7174453 c 0,-0.2226563 -0.011719,-0.2695313 -0.2460937,-0.2695313 z m 0,0"
         style="fill:#d33682;fill-opacity:1;fill-rule:nonzero;stroke:none"
         aria-label="1"
         transform="matrix(1.3333333,0,0,1.3333333,587.06267,79.814667)" />
      <path
         id="path61"
         d="m 20.837391,-3.4924219 c 0.117187,-0.058594 0.175781,-0.1523437 0.175781,-0.2578125 0,-0.1054687 -0.05859,-0.1992187 -0.175781,-0.2578125 -0.925782,-0.234375 -1.863282,-0.7617187 -2.777344,-1.5585937 -0.667969,-0.5859375 -1.195313,-1.2539063 -1.605469,-2.0390625 -0.05859,-0.1289063 -0.164062,-0.1992188 -0.316406,-0.1992188 -0.234375,0 -0.351563,0.1289063 -0.351563,0.3632813 0,0.035156 0.01172,0.082031 0.02344,0.1523437 0.351562,0.65625 0.761719,1.2421875 1.242187,1.7578125 H 1.1967656 c -0.23437497,0 -0.35156247,0.1171875 -0.35156247,0.3398438 0,0.2460937 0.1171875,0.3632812 0.35156247,0.3632812 H 17.837391 c 0.574218,0.4453125 1.183593,0.8085938 1.828125,1.078125 -0.644532,0.2695313 -1.253907,0.6328125 -1.828125,1.078125 H 1.1967656 c -0.23437497,0 -0.35156247,0.1171875 -0.35156247,0.3632813 0,0.2226562 0.1171875,0.3398437 0.35156247,0.3398437 H 17.052234 c -0.480468,0.515625 -0.890625,1.10156253 -1.242187,1.75781253 -0.01172,0.0703125 -0.02344,0.1171875 -0.02344,0.15234375 0,0.234375 0.117188,0.36328125 0.351563,0.36328125 0.152344,0 0.257812,-0.0703125 0.316406,-0.19921875 0.410156,-0.78515625 0.9375,-1.45312498 1.605469,-2.03906248 0.914062,-0.796875 1.851562,-1.3242188 2.777344,-1.5585938 z m 0,0"
         style="fill:#d33682;fill-opacity:1;fill-rule:nonzero;stroke:none"
         aria-label="⟹"
         transform="matrix(1.3333333,0,0,1.3333333,667.084,138.68)" />
      <path
         id="path62"
         d="M 5.97766,0 C 5.97766,3.3014 3.3014,5.97766 0,5.97766 -3.3014,5.97766 -5.97766,3.3014 -5.97766,0 c 0,-3.3014 2.67626,-5.97766 5.97766,-5.97766 3.3014,0 5.97766,2.67626 5.97766,5.97766 z"
         style="fill:none;stroke:#586e75;stroke-width:0.79701;stroke-linecap:butt;stroke-linejoin:miter;stroke-miterlimit:10;stroke-dasharray:none;stroke-opacity:1"
         transform="matrix(1.3333333,0,0,-1.3333333,800.27733,49.106667)" />
      <path
         id="path63"
         d="m -28.03844,-42.52022 c 0,3.30142 -2.67624,5.97766 -5.97766,5.97766 -3.3014,0 -5.97766,-2.67624 -5.97766,-5.97766 0,-3.3014 2.67626,-5.97766 5.97766,-5.97766 3.30142,0 5.97766,2.67626 5.97766,5.97766 z"
         style="fill:none;stroke:#586e75;stroke-width:0.79701;stroke-linecap:butt;stroke-linejoin:miter;stroke-miterlimit:10;stroke-dasharray:none;stroke-opacity:1"
         transform="matrix(1.3333333,0,0,-1.3333333,800.27733,49.106667)" />
      <path
         id="path64"
         d="M 0,-6.37616 -34.0161,-36.14404"
         style="fill:none;stroke:#586e75;stroke-width:0.79701;stroke-linecap:butt;stroke-linejoin:miter;stroke-miterlimit:10;stroke-dasharray:none;stroke-opacity:1"
         transform="matrix(1.3333333,0,0,-1.3333333,800.27733,49.106667)" />
      <path
         id="path65"
         d="m -54.5238,-88.5401 h 6.99931 v 6.99931 h -6.99931 z"
         style="fill:none;stroke:#586e75;stroke-width:0.79701;stroke-linecap:butt;stroke-linejoin:miter;stroke-miterlimit:10;stroke-dasharray:none;stroke-opacity:1"
         transform="matrix(1.3333333,0,0,-1.3333333,800.27733,49.106667)" />
      <path
         id="path66"
         d="M -34.0161,-48.89638 -51.02414,-81.14227"
         style="fill:none;stroke:#586e75;stroke-width:0.79701;stroke-linecap:butt;stroke-linejoin:miter;stroke-miterlimit:10;stroke-dasharray:none;stroke-opacity:1"
         transform="matrix(1.3333333,0,0,-1.3333333,800.27733,49.106667)" />
      <path
         id="path67"
         d="m 2.2383203,0.20026563 c 1.2773438,0 1.8984375,-1.03125 1.8984375,-3.08203123 0,-1.3710938 -0.28125,-2.296875 -0.8554687,-2.7421875 -0.3164063,-0.2460938 -0.6679688,-0.3632813 -1.03125,-0.3632813 -1.26562504,0 -1.89843754,1.03125 -1.89843754,3.1054688 0,1.6640625 0.4453125,3.08203123 1.88671874,3.08203123 z M 3.2461328,-4.7098906 c 0.070312,0.3046875 0.09375,0.890625 0.09375,1.7226562 0,0.8320313 -0.035156,1.4414063 -0.1054687,1.8398438 -0.1171875,0.71484373 -0.4453125,1.07812498 -0.9960938,1.07812498 -0.1992187,0 -0.4101562,-0.08203125 -0.5976562,-0.234375 -0.2460938,-0.2109375 -0.3867188,-0.6328125 -0.4570313,-1.27734378 -0.023437,-0.2226562 -0.035156,-0.6914062 -0.035156,-1.40625 0,-0.7851562 0.035156,-1.3359375 0.070312,-1.6289062 0.082031,-0.4921875 0.2460937,-0.8085938 0.5039062,-0.9492188 0.1992188,-0.1054687 0.3632813,-0.1523437 0.515625,-0.1523437 0.5859375,0 0.9140625,0.46875 1.0078128,1.0078125 z m 0,0"
         style="fill:#d33682;fill-opacity:1;fill-rule:nonzero;stroke:none"
         aria-label="0"
         transform="matrix(1.3333333,0,0,1.3333333,732.38667,139.66267)" />
      <path
         id="path68"
         d="m -11.03038,-85.04044 c 0,3.30141 -2.67625,5.97767 -5.97766,5.97767 -3.30141,0 -5.97766,-2.67626 -5.97766,-5.97767 0,-3.30142 2.67625,-5.97766 5.97766,-5.97766 3.30141,0 5.97766,2.67624 5.97766,5.97766 z"
         style="fill:none;stroke:#586e75;stroke-width:0.79701;stroke-linecap:butt;stroke-linejoin:miter;stroke-miterlimit:10;stroke-dasharray:none;stroke-opacity:1"
         transform="matrix(1.3333333,0,0,-1.3333333,800.27733,49.106667)" />
      <path
         id="path69"
         d="m -34.0161,-48.89638 17.00806,-29.7679"
         style="fill:none;stroke:#586e75;stroke-width:0.79701;stroke-linecap:butt;stroke-linejoin:miter;stroke-miterlimit:10;stroke-dasharray:none;stroke-opacity:1"
         transform="matrix(1.3333333,0,0,-1.3333333,800.27733,49.106667)" />
      <path
         id="path70"
         d="m -40.9478,-133.77835 h 13.8634 v 12.43536 h -13.8634 z"
         style="fill:none;stroke:#586e75;stroke-width:0.79701;stroke-linecap:butt;stroke-linejoin:miter;stroke-miterlimit:10;stroke-dasharray:none;stroke-opacity:1"
         transform="matrix(1.3333333,0,0,-1.3333333,800.27733,49.106667)" />
      <path
         id="path71"
         d="m 6.3288672,-4.4760234 c 0,-0.5507813 -0.5390625,-0.8320313 -1.1484375,-0.8320313 -0.515625,0 -0.9140625,0.28125 -1.2304688,0.8320313 -0.2578125,-0.5507813 -0.6679687,-0.8320313 -1.2890625,-0.8320313 -0.5859375,0 -1.0664062,0.28125 -1.453125,0.8203125 -0.31640621,0.46875 -0.49218746,0.8203125 -0.49218746,1.0429688 0,0.1054687 0.0703125,0.1640625 0.1875,0.1640625 0.10546876,0 0.17578126,-0.058594 0.19921876,-0.1640625 0.234375,-0.6914063 0.7382812,-1.5117188 1.5351562,-1.5117188 0.3984375,0 0.5859375,0.2578125 0.5859375,0.75 0,0.2460938 -0.2109375,1.1835938 -0.6328125,2.7890625 -0.1992187,0.80859376 -0.5625,1.20703126 -1.078125,1.20703126 -0.1640625,0 -0.328125,-0.046875 -0.4570312,-0.10546875 0.3164062,-0.1171875 0.46875,-0.328125 0.46875,-0.64453125 0,-0.31640626 -0.1523438,-0.46874996 -0.4804688,-0.46874996 -0.39843746,0 -0.69140621,0.3398437 -0.69140621,0.73828121 0,0.55078125 0.5625,0.8203125 1.14843751,0.8203125 0.5039062,0 0.9140625,-0.26953125 1.2304687,-0.8203125 0.234375,0.55078125 0.6679688,0.8203125 1.2890625,0.8203125 0.5742188,0 1.0546875,-0.26953125 1.4414063,-0.80859375 0.328125,-0.46874996 0.4921875,-0.82031246 0.4921875,-1.04296876 0,-0.1171875 -0.058594,-0.1757812 -0.1757813,-0.1757812 -0.1171875,0 -0.1757812,0.058594 -0.2109375,0.1757812 -0.1992187,0.6796875 -0.7382812,1.51171876 -1.5234375,1.51171876 -0.3984375,0 -0.5976562,-0.24609375 -0.5976562,-0.73828125 0,-0.15234371 0.058594,-0.49218751 0.1875,-1.03125001 l 0.4101562,-1.6171875 c 0.234375,-0.9023437 0.5976563,-1.359375 1.125,-1.359375 0.1757813,0 0.328125,0.035156 0.4570313,0.09375 -0.3164063,0.1054688 -0.4804688,0.328125 -0.4804688,0.65625 0,0.3046875 0.1757813,0.46875 0.4921875,0.46875 0.3867188,0 0.6914063,-0.3515625 0.6914063,-0.7382812 z m 0,0"
         style="fill:#d33682;fill-opacity:1;fill-rule:nonzero;stroke:none"
         aria-label="𝑥"
         transform="matrix(1.3333333,0,0,1.3333333,750.34667,222.636)" />
      <path
         id="path72"
         d="M -17.00804,-91.4166 -34.0161,-120.94447"
         style="fill:none;stroke:#586e75;stroke-width:0.79701;stroke-linecap:butt;stroke-linejoin:miter;stroke-miterlimit:10;stroke-dasharray:none;stroke-opacity:1"
         transform="matrix(1.3333333,0,0,-1.3333333,800.27733,49.106667)" />
      <path
         id="path73"
         d="m 2.2371562,0.200375 c 1.2773438,0 1.8984375,-1.03125 1.8984375,-3.0820312 0,-1.3710938 -0.28125,-2.296875 -0.8554687,-2.7421875 -0.3164063,-0.2460938 -0.6679688,-0.3632813 -1.03125,-0.3632813 -1.265625,0 -1.8984375,1.03125 -1.8984375,3.1054688 0,1.6640625 0.4453125,3.0820312 1.8867187,3.0820312 z m 1.0078125,-4.9101562 c 0.070312,0.3046875 0.09375,0.890625 0.09375,1.7226562 0,0.8320313 -0.035156,1.4414063 -0.1054687,1.8398438 -0.1171875,0.7148437 -0.4453125,1.07812495 -0.9960938,1.07812495 -0.1992187,0 -0.4101562,-0.08203125 -0.5976562,-0.234375 -0.2460938,-0.2109375 -0.3867188,-0.6328125 -0.4570313,-1.27734375 -0.023437,-0.2226562 -0.035156,-0.6914062 -0.035156,-1.40625 0,-0.7851562 0.035156,-1.3359375 0.070312,-1.6289062 0.082031,-0.4921875 0.2460937,-0.8085938 0.5039062,-0.9492188 0.1992188,-0.1054687 0.3632813,-0.1523437 0.515625,-0.1523437 0.5859375,0 0.9140625,0.46875 1.0078128,1.0078125 z m 0,0"
         style="fill:#d33682;fill-opacity:1;fill-rule:nonzero;stroke:none"
         aria-label="0"
         transform="matrix(1.3333333,0,0,1.3333333,755.064,194.54533)" />
      <path
         id="path74"
         d="M -6.6077,-134.94237 H 6.60771 v 14.7634 H -6.6077 Z"
         style="fill:none;stroke:#586e75;stroke-width:0.79701;stroke-linecap:butt;stroke-linejoin:miter;stroke-miterlimit:10;stroke-dasharray:none;stroke-opacity:1"
         transform="matrix(1.3333333,0,0,-1.3333333,800.27733,49.106667)" />
      <path
         id="path75"
         d="m 1.9566406,-5.3071406 c -0.5390625,0 -0.96093748,0.3046875 -1.26562498,0.9023437 -0.22265625,0.46875 -0.33984375,0.796875 -0.33984375,0.9726563 0,0.1054687 0.0585938,0.1640625 0.1875,0.1640625 0.1640625,0 0.17578125,-0.070312 0.234375,-0.2460938 0.26953123,-0.9492187 0.65625003,-1.4296875 1.14843753,-1.4296875 0.1523437,0 0.234375,0.1054688 0.234375,0.328125 0,0.1875 -0.058594,0.46875 -0.1875,0.8085938 -0.4570313,1.2421875 -0.6796875,2.0742187 -0.6796875,2.5078125 0,0.91406248 0.5625,1.45312498 1.4882812,1.45312498 0.3867188,0 0.7617188,-0.140625 1.1015625,-0.43359375 -0.421875,1.59374997 -1.078125,2.37890627 -1.9804687,2.37890627 -0.4101563,0 -0.6914063,-0.1289063 -0.8320313,-0.3984375 0.4804688,-0.023437 0.7265625,-0.2460938 0.7265625,-0.6796875 0,-0.30468752 -0.1640625,-0.45703127 -0.4804687,-0.45703127 -0.44531253,0 -0.71484378,0.375 -0.71484378,0.82031247 0,0.65625 0.59765628,1.078125 1.30078128,1.078125 1.3828125,0 2.5078125,-1.2773437 2.8007812,-2.44921872 L 5.8355469,-4.5219844 c 0.035156,-0.1289062 0.046875,-0.234375 0.046875,-0.2929687 0,-0.234375 -0.140625,-0.3515625 -0.3867188,-0.3515625 -0.1875,0 -0.3515625,0.09375 -0.4570312,0.2695312 -0.070312,0.2578125 -0.1289063,0.46875 -0.1640625,0.65625 l -0.7734375,3.0820313 c -0.1171875,0.43359373 -0.75,0.97265623 -1.2890625,0.97265623 -0.4570313,0 -0.6914063,-0.3046875 -0.6914063,-0.91406253 0,-0.5039062 0.2109375,-1.2773437 0.5976563,-2.3085937 0.1640625,-0.421875 0.2460937,-0.703125 0.2460937,-0.8789063 0,-0.5859375 -0.421875,-1.0195312 -1.0078125,-1.0195312 z m 0,0"
         style="fill:#d33682;fill-opacity:1;fill-rule:nonzero;stroke:none"
         aria-label="𝑦"
         transform="matrix(1.3333333,0,0,1.3333333,796.13333,221.084)" />
      <path
         id="path76"
         d="M -17.00804,-91.4166 0,-119.78046"
         style="fill:none;stroke:#586e75;stroke-width:0.79701;stroke-linecap:butt;stroke-linejoin:miter;stroke-miterlimit:10;stroke-dasharray:none;stroke-opacity:1"
         transform="matrix(1.3333333,0,0,-1.3333333,800.27733,49.106667)" />
      <path
         id="path77"
         d="m 2.4263203,-5.9875234 c -0.375,0.375 -0.9140625,0.5625 -1.62890624,0.5625 v 0.3515625 c 0.46875004,0 0.85546874,-0.070312 1.16015624,-0.2226563 v 4.55859376 c 0,0.1640625 -0.035156,0.26953125 -0.1171875,0.31640625 -0.082031,0.046875 -0.3046875,0.0703125 -0.6679687,0.0703125 H 0.85600781 V 7.578125e-4 C 1.0786641,-0.02267969 1.5708516,-0.02267969 2.3091328,-0.02267969 c 0.75,0 1.2421875,0 1.4648438,0.0234375025 V -0.35080469 H 3.4575703 c -0.375,0 -0.5976562,-0.0234375 -0.6679687,-0.0703125 -0.070312,-0.046875 -0.1171875,-0.15234375 -0.1171875,-0.31640625 V -5.7179922 c 0,-0.2226562 -0.011719,-0.2695312 -0.2460938,-0.2695312 z m 0,0"
         style="fill:#d33682;fill-opacity:1;fill-rule:nonzero;stroke:none"
         aria-label="1"
         transform="matrix(1.3333333,0,0,1.3333333,794.136,193.90133)" />
      <path
         id="path78"
         d="m 2.4245547,-5.9868828 c -0.375,0.375 -0.9140625,0.5625 -1.62890626,0.5625 v 0.3515625 c 0.46874996,0 0.85546876,-0.070312 1.16015626,-0.2226563 v 4.55859379 c 0,0.1640625 -0.035156,0.26953125 -0.1171875,0.31640625 -0.082031,0.046875 -0.3046875,0.0703125 -0.6679688,0.0703125 H 0.85424219 v 0.3515625 c 0.22265621,-0.0234375 0.71484371,-0.0234375 1.45312501,-0.0234375 0.75,0 1.2421875,0 1.4648437,0.0234375 v -0.3515625 H 3.4558047 c -0.375,0 -0.5976563,-0.0234375 -0.6679688,-0.0703125 -0.070312,-0.046875 -0.1171875,-0.15234375 -0.1171875,-0.31640625 V -5.7173516 c 0,-0.2226562 -0.011719,-0.2695312 -0.2460937,-0.2695312 z m 0,0"
         style="fill:#d33682;fill-opacity:1;fill-rule:nonzero;stroke:none"
         aria-label="1"
         transform="matrix(1.3333333,0,0,1.3333333,771.45867,138.14267)" />
      <path
         id="path79"
         d="m 2.2380391,0.19852344 c 1.2773437,0 1.8984375,-1.03125 1.8984375,-3.08203124 0,-1.3710938 -0.28125,-2.296875 -0.8554688,-2.7421875 -0.3164062,-0.2460938 -0.6679687,-0.3632813 -1.03125,-0.3632813 -1.26562499,0 -1.89843749,1.03125 -1.89843749,3.1054688 0,1.6640625 0.4453125,3.08203124 1.88671879,3.08203124 z M 3.2458516,-4.7116328 c 0.070312,0.3046875 0.09375,0.890625 0.09375,1.7226562 0,0.8320313 -0.035156,1.4414063 -0.1054688,1.8398438 -0.1171875,0.71484374 -0.4453125,1.07812499 -0.9960937,1.07812499 -0.1992188,0 -0.4101563,-0.08203125 -0.5976563,-0.234375 -0.2460937,-0.2109375 -0.3867187,-0.6328125 -0.4570312,-1.27734379 -0.023437,-0.2226562 -0.035156,-0.6914062 -0.035156,-1.40625 0,-0.7851562 0.035156,-1.3359375 0.070312,-1.6289062 0.082031,-0.4921875 0.2460938,-0.8085938 0.5039063,-0.9492188 0.1992187,-0.1054687 0.3632812,-0.1523437 0.515625,-0.1523437 0.5859375,0 0.9140625,0.46875 1.0078127,1.0078125 z m 0,0"
         style="fill:#d33682;fill-opacity:1;fill-rule:nonzero;stroke:none"
         aria-label="0"
         transform="matrix(1.3333333,0,0,1.3333333,766.40267,81.317333)" />
      <path
         id="path80"
         d="m 39.99376,-42.52022 c 0,3.30142 -2.67626,5.97766 -5.97766,5.97766 -3.30142,0 -5.97766,-2.67624 -5.97766,-5.97766 0,-3.3014 2.67624,-5.97766 5.97766,-5.97766 3.3014,0 5.97766,2.67626 5.97766,5.97766 z"
         style="fill:none;stroke:#586e75;stroke-width:0.79701;stroke-linecap:butt;stroke-linejoin:miter;stroke-miterlimit:10;stroke-dasharray:none;stroke-opacity:1"
         transform="matrix(1.3333333,0,0,-1.3333333,800.27733,49.106667)" />
      <path
         id="path81"
         d="M 0,-6.37616 34.0161,-36.14404"
         style="fill:none;stroke:#586e75;stroke-width:0.79701;stroke-linecap:butt;stroke-linejoin:miter;stroke-miterlimit:10;stroke-dasharray:none;stroke-opacity:1"
         transform="matrix(1.3333333,0,0,-1.3333333,800.27733,49.106667)" />
      <path
         id="path82"
         d="m 10.33434,-91.25812 h 13.3474 v 12.43536 h -13.3474 z"
         style="fill:none;stroke:#586e75;stroke-width:0.79701;stroke-linecap:butt;stroke-linejoin:miter;stroke-miterlimit:10;stroke-dasharray:none;stroke-opacity:1"
         transform="matrix(1.3333333,0,0,-1.3333333,800.27733,49.106667)" />
      <path
         id="path83"
         d="m 5.9765547,-1.7226016 c 0,-0.1171875 -0.058594,-0.1757812 -0.1875,-0.1757812 -0.1054688,0 -0.1757813,0.082031 -0.2109375,0.2578125 -0.234375,0.94921874 -0.5273438,1.42968749 -0.8554688,1.42968749 -0.1992187,0 -0.3046875,-0.17578125 -0.3046875,-0.50390625 0,-0.1640625 0.046875,-0.44531254 0.1523438,-0.86718754 l 0.6914062,-2.7070312 c 0.058594,-0.2226563 0.082031,-0.3515625 0.082031,-0.4101563 0,-0.2460937 -0.140625,-0.3632812 -0.3984375,-0.3632812 -0.2578125,0 -0.421875,0.140625 -0.5039063,0.421875 -0.2578125,-0.4453125 -0.609375,-0.6679688 -1.0664062,-0.6679688 -0.7851563,0 -1.4648438,0.3984375 -2.0625,1.1953125 -0.55078126,0.7382813 -0.83203126,1.5117188 -0.83203126,2.3085938 0,1.04296874 0.60937496,1.93359374 1.61718746,1.93359374 0.515625,0 1.0195313,-0.26953125 1.5,-0.8203125 0.1289063,0.45703125 0.5390625,0.8203125 1.1015625,0.8203125 0.8320313,0 1.0898438,-0.97265625 1.2773441,-1.85156254 z m -1.8867188,-2.765625 c 0.1054688,0.2578125 0.1757813,0.421875 0.1757813,0.5273438 0,0.046875 -0.023437,0.1054687 -0.035156,0.1875 l -0.5859375,2.3085937 c -0.035156,0.1289063 -0.1171875,0.28125 -0.2226562,0.421875 -0.4453125,0.55078129 -0.8789063,0.83203129 -1.3007813,0.83203129 -0.46875,0 -0.703125,-0.36328125 -0.703125,-1.07812499 0,-0.28125 0.070312,-0.7148438 0.2109375,-1.2890625 0.2578125,-1.0195313 0.609375,-1.7109375 1.0546875,-2.0742188 0.2460938,-0.2109375 0.46875,-0.3046875 0.703125,-0.3046875 0.3164063,0 0.5625,0.1523438 0.7031247,0.46875 z m 0,0"
         style="fill:#d33682;fill-opacity:1;fill-rule:nonzero;stroke:none"
         aria-label="𝑎"
         transform="matrix(1.3333333,0,0,1.3333333,818.72267,165.94133)" />
      <path
         id="path84"
         d="M 34.0161,-48.89638 17.00804,-78.42424"
         style="fill:none;stroke:#586e75;stroke-width:0.79701;stroke-linecap:butt;stroke-linejoin:miter;stroke-miterlimit:10;stroke-dasharray:none;stroke-opacity:1"
         transform="matrix(1.3333333,0,0,-1.3333333,800.27733,49.106667)" />
      <path
         id="path85"
         d="m 2.2395234,0.19989063 c 1.2773438,0 1.8984375,-1.03125 1.8984375,-3.08203123 0,-1.3710938 -0.28125,-2.296875 -0.8554687,-2.7421875 -0.3164063,-0.2460938 -0.6679688,-0.3632813 -1.03125,-0.3632813 -1.26562501,0 -1.89843751,1.03125 -1.89843751,3.1054688 0,1.6640625 0.4453125,3.08203123 1.88671871,3.08203123 z M 3.2473359,-4.7102656 c 0.070312,0.3046875 0.09375,0.890625 0.09375,1.7226562 0,0.8320313 -0.035156,1.4414063 -0.1054687,1.8398438 -0.1171875,0.71484373 -0.4453125,1.07812498 -0.9960938,1.07812498 -0.1992187,0 -0.4101562,-0.08203125 -0.5976562,-0.234375 -0.2460938,-0.2109375 -0.3867188,-0.6328125 -0.4570313,-1.27734378 -0.023437,-0.2226562 -0.035156,-0.6914062 -0.035156,-1.40625 0,-0.7851562 0.035156,-1.3359375 0.070312,-1.6289062 0.082031,-0.4921875 0.2460937,-0.8085938 0.5039062,-0.9492188 0.1992188,-0.1054687 0.3632813,-0.1523437 0.515625,-0.1523437 0.5859375,0 0.9140625,0.46875 1.0078128,1.0078125 z m 0,0"
         style="fill:#d33682;fill-opacity:1;fill-rule:nonzero;stroke:none"
         aria-label="0"
         transform="matrix(1.3333333,0,0,1.3333333,823.096,137.85067)" />
      <path
         id="path86"
         d="m 44.86646,-92.77014 h 12.31535 v 15.4594 H 44.86646 Z"
         style="fill:none;stroke:#586e75;stroke-width:0.79701;stroke-linecap:butt;stroke-linejoin:miter;stroke-miterlimit:10;stroke-dasharray:none;stroke-opacity:1"
         transform="matrix(1.3333333,0,0,-1.3333333,800.27733,49.106667)" />
      <path
         id="path87"
         d="m 3.3752187,-5.3439766 c -0.4335937,0 -0.8671875,0.2109375 -1.2890625,0.6210938 l 0.8320313,-3.421875 c -0.023437,-0.1171875 -0.058594,-0.1875 -0.2109375,-0.1875 -0.3867188,0 -1.265625,0.1171875 -1.4179688,0.1289062 -0.1875,0.023437 -0.28125,0.1054688 -0.28125,0.28125 0,0.1171875 0.1054688,0.1875 0.3398438,0.1875 0.2226562,0 0.5390625,-0.023437 0.5390625,0.1523438 0,0.046875 -0.058594,0.28125 -0.1757813,0.7265625 l -0.9492187,3.8671875 c -0.140625,0.5039062 -0.19921875,0.9140625 -0.19921875,1.2070312 0,1.04296879 0.55078125,1.91015629 1.53515625,1.91015629 0.7851562,0 1.4648437,-0.3984375 2.0625,-1.19531249 0.5390625,-0.75 0.8203125,-1.5234375 0.8203125,-2.3320313 0,-1.0429687 -0.609375,-1.9453125 -1.6054688,-1.9453125 z m -0.023437,0.3632813 c 0.46875,0 0.6914063,0.3632812 0.6914063,1.0664062 0,0.328125 -0.070312,0.7617188 -0.2109375,1.3007813 -0.2695313,1.0195312 -0.6210938,1.71093749 -1.03125,2.08593749 -0.2460938,0.19921875 -0.46875,0.3046875 -0.703125,0.3046875 -0.4921875,0 -0.7265625,-0.38671875 -0.7265625,-1.16015629 0,-0.2578125 0.058594,-0.65625 0.1757812,-1.1835937 l 0.2695313,-1.078125 c 0.035156,-0.1875 0.09375,-0.3164063 0.1640625,-0.4101563 0.46875,-0.609375 0.9257812,-0.9257812 1.3710937,-0.9257812 z m 0,0"
         style="fill:#d33682;fill-opacity:1;fill-rule:nonzero;stroke:none"
         aria-label="𝑏"
         transform="matrix(1.3333333,0,0,1.3333333,864.76533,167.95733)" />
      <path
         id="path88"
         d="M 34.0161,-48.89638 51.02414,-76.91223"
         style="fill:none;stroke:#586e75;stroke-width:0.79701;stroke-linecap:butt;stroke-linejoin:miter;stroke-miterlimit:10;stroke-dasharray:none;stroke-opacity:1"
         transform="matrix(1.3333333,0,0,-1.3333333,800.27733,49.106667)" />
      <path
         id="path89"
         d="m 2.4257578,-5.9868594 c -0.375,0.375 -0.9140625,0.5625 -1.62890624,0.5625 v 0.3515625 c 0.46875004,0 0.85546874,-0.070312 1.16015624,-0.2226562 v 4.55859373 c 0,0.1640625 -0.035156,0.26953125 -0.1171875,0.31640625 -0.082031,0.046875 -0.3046875,0.0703125 -0.6679687,0.0703125 H 0.85544531 v 0.3515625 c 0.22265629,-0.0234375 0.71484379,-0.0234375 1.45312499,-0.0234375 0.75,0 1.2421875,0 1.4648438,0.0234375 v -0.3515625 H 3.4570078 c -0.375,0 -0.5976562,-0.0234375 -0.6679687,-0.0703125 -0.070312,-0.046875 -0.1171875,-0.15234375 -0.1171875,-0.31640625 V -5.7173281 c 0,-0.2226563 -0.011719,-0.2695313 -0.2460938,-0.2695313 z m 0,0"
         style="fill:#d33682;fill-opacity:1;fill-rule:nonzero;stroke:none"
         aria-label="1"
         transform="matrix(1.3333333,0,0,1.3333333,862.168,136.97467)" />
      <path
         id="path90"
         d="m 2.4260391,-5.9883672 c -0.375,0.375 -0.9140625,0.5625 -1.62890629,0.5625 v 0.3515625 c 0.46874999,0 0.85546879,-0.070312 1.16015629,-0.2226562 v 4.55859371 c 0,0.1640625 -0.035156,0.26953125 -0.1171875,0.31640625 -0.082031,0.046875 -0.3046875,0.0703125 -0.6679688,0.0703125 H 0.85572656 V -8.59375e-5 C 1.0783828,-0.02352344 1.5705703,-0.02352344 2.3088516,-0.02352344 c 0.75,0 1.2421875,0 1.4648437,0.0234375025 V -0.35164844 H 3.4572891 c -0.375,0 -0.5976563,-0.0234375 -0.6679688,-0.0703125 -0.070312,-0.046875 -0.1171875,-0.15234375 -0.1171875,-0.31640625 V -5.7188359 c 0,-0.2226563 -0.011719,-0.2695313 -0.2460937,-0.2695313 z m 0,0"
         style="fill:#d33682;fill-opacity:1;fill-rule:nonzero;stroke:none"
         aria-label="1"
         transform="matrix(1.3333333,0,0,1.3333333,828.152,81.449333)" />
      <g
         id="g90"
         aria-label="𝒯&#10;greedy"
         transform="matrix(1.3333333,0,0,1.3333333,822.93867,55.650667)">
        <path
           id="path91"
           d="m 1.63975,-1.3346797 c 0,-0.1875 -0.1992188,-0.328125 -0.4101563,-0.328125 -0.2929687,0 -0.6210937,0.3398438 -0.6914062,0.5859375 -0.22265625,0.82031251 0.22265625,1.14843751 0.9726562,1.14843751 0.5742188,0 1.1132813,-0.1875 1.6054688,-0.5859375 C 4.07725,-1.2995234 4.45225,-2.2721797 4.8506875,-3.7956172 l 0.7851562,-3.1523437 c 0.6796875,0.140625 1.1015625,0.2226562 1.3007813,0.2226562 0.375,0 0.6914062,-0.140625 0.984375,-0.3867187 0.3398437,-0.3164063 0.6445312,-0.6679688 0.9375,-1.03125 l -0.3046875,-0.1875 c -0.3984375,0.4921875 -0.7734375,0.75 -1.125,0.75 -0.421875,0 -1.0429688,-0.1054688 -1.8867188,-0.328125 -0.75,-0.1992188 -1.3359375,-0.2929688 -1.7226562,-0.2929688 -0.65625,0 -1.2890625,0.1992188 -1.9101563,0.609375 -0.6679687,0.4453125 -1.0664062,0.9609375 -1.2304687,1.5585938 -0.0820313,0.3164062 -0.046875,0.5625 0.1171875,0.7617187 0.10546875,0.1640625 0.2226562,0.2460938 0.3515625,0.2460938 0.28125,0 0.65625,-0.3515625 0.7148437,-0.5742188 0.070312,-0.3515625 -0.328125,-0.5742187 -0.2578125,-0.890625 0.1289063,-0.5507812 0.75,-1.03125 1.4296875,-1.03125 0.3046875,0 0.8789063,0.1289063 1.734375,0.4101563 l -0.984375,4.0195312 c -0.1523437,0.5859375 -0.328125,1.1132813 -0.5273437,1.5585938 -0.3515625,0.73828121 -0.8085938,1.11328121 -1.3476563,1.11328121 -0.28125,0 -0.4101562,-0.0820313 -0.4101562,-0.24609375 0,-0.10546875 0.140625,-0.56249996 0.140625,-0.66796876 z m 0,0"
           style="fill:#d33682;fill-opacity:1;fill-rule:nonzero;stroke:none" />
        <path
           id="path92"
           d="m 13.414164,-7.5573359 c 0,-0.1289063 -0.105469,-0.3984375 -0.457031,-0.3984375 -0.128906,0 -0.515625,0.023437 -0.878906,0.3632812 -0.199219,-0.140625 -0.515625,-0.28125 -0.890625,-0.28125 -0.785157,0 -1.3593754,0.5507813 -1.3593754,1.171875 0,0.375 0.1992184,0.65625 0.3632814,0.8085938 -0.164063,0.1992187 -0.2343752,0.4570312 -0.2343752,0.65625 0,0.3164062 0.1640622,0.5625 0.3398442,0.703125 -0.4218754,0.1171875 -0.7500004,0.421875 -0.7500004,0.7851562 0,0.5742188 0.8203124,1.0195313 1.8750004,1.0195313 0.996093,0 1.875,-0.3984375 1.875,-1.03125 0,-0.4335938 -0.257813,-0.7617188 -0.515625,-0.9023438 -0.46875,-0.2460937 -0.867188,-0.2460937 -1.640625,-0.2460937 h -0.445313 c -0.246094,-0.023437 -0.445312,-0.234375 -0.445312,-0.5273438 0,-0.1875 0.04687,-0.2578125 0.09375,-0.328125 0.339843,0.1992188 0.644531,0.234375 0.84375,0.234375 0.785156,0 1.371093,-0.5507812 1.371093,-1.171875 0,-0.3046875 -0.140625,-0.5625 -0.328125,-0.7617187 0.105469,-0.09375 0.375,-0.2695313 0.761719,-0.2695313 -0.03516,0.023437 -0.07031,0.058594 -0.07031,0.1875 0,0.140625 0.105468,0.2460938 0.246093,0.2460938 0.117188,0 0.246094,-0.070312 0.246094,-0.2578125 z m -1.488281,0.8554687 c 0,0.2929688 -0.03516,0.5039063 -0.164063,0.6679688 -0.175781,0.2226562 -0.421875,0.2695312 -0.574218,0.2695312 -0.738282,0 -0.738282,-0.7617187 -0.738282,-0.9375 0,-0.2929687 0.04687,-0.5039062 0.164063,-0.65625 0.128906,-0.1875 0.351562,-0.28125 0.574219,-0.28125 0.738281,0 0.738281,0.7617188 0.738281,0.9375 z m 0.902344,2.953125 c 0,0.421875 -0.609375,0.796875 -1.40625,0.796875 -0.796875,0 -1.394532,-0.375 -1.394532,-0.796875 0,-0.1757812 0.117188,-0.6445312 0.773438,-0.6445312 h 0.761719 c 0.222656,0 1.265625,0 1.265625,0.6445312 z m 3.773437,-3.6210937 c 0,-0.28125 -0.257812,-0.5039063 -0.609375,-0.5039063 -0.515625,0 -0.867187,0.3867188 -1.03125,0.84375 h -0.01172 v -0.84375 l -1.125,0.09375 v 0.2578125 c 0.539063,0 0.597657,0.058594 0.597657,0.4453125 v 2.0976563 c 0,0.3632812 -0.09375,0.3632812 -0.597657,0.3632812 v 0.2578125 c 0.304688,-0.023437 0.75,-0.023437 0.9375,-0.023437 0.46875,0 0.492188,0 1.007813,0.023437 V -4.6159297 H 15.60557 c -0.585937,0 -0.597656,-0.09375 -0.597656,-0.375 v -1.1835937 c 0,-0.5976563 0.246094,-1.453125 1.007813,-1.4765625 -0.04687,0.035156 -0.117188,0.09375 -0.117188,0.28125 0,0.2460937 0.1875,0.3632812 0.351563,0.3632812 0.1875,0 0.351562,-0.1289062 0.351562,-0.3632812 z m 3.758789,2.0507812 c 0,-0.023437 -0.02344,-0.1054687 -0.128906,-0.1054687 -0.08203,0 -0.105469,0.058594 -0.117188,0.1054687 -0.292968,0.7734375 -0.972656,0.796875 -1.113281,0.796875 -0.363281,0 -0.726562,-0.1757812 -0.972656,-0.5390625 -0.234375,-0.3632812 -0.234375,-0.8789062 -0.234375,-1.1132812 h 2.34375 c 0.175781,0 0.222656,0 0.222656,-0.1875 0,-0.703125 -0.386719,-1.546875 -1.511719,-1.546875 -0.996093,0 -1.769531,0.8203125 -1.769531,1.8046875 0,1.03125 0.867188,1.828125 1.875,1.828125 1.007813,0 1.40625,-0.8554688 1.40625,-1.0429688 z m -0.539062,-1.0664062 h -2.015625 c 0.07031,-1.1132813 0.75,-1.3007813 1.042968,-1.3007813 0.925782,0 0.960938,1.125 0.972657,1.3007813 z m 4.300781,1.0664062 c 0,-0.023437 -0.02344,-0.1054687 -0.128906,-0.1054687 -0.08203,0 -0.105469,0.058594 -0.117188,0.1054687 -0.292969,0.7734375 -0.972656,0.796875 -1.113281,0.796875 -0.363281,0 -0.726563,-0.1757812 -0.972656,-0.5390625 -0.234375,-0.3632812 -0.234375,-0.8789062 -0.234375,-1.1132812 h 2.34375 c 0.175781,0 0.222656,0 0.222656,-0.1875 0,-0.703125 -0.386719,-1.546875 -1.511719,-1.546875 -0.996094,0 -1.769531,0.8203125 -1.769531,1.8046875 0,1.03125 0.867187,1.828125 1.875,1.828125 1.007812,0 1.40625,-0.8554688 1.40625,-1.0429688 z m -0.539063,-1.0664062 h -2.015625 c 0.07031,-1.1132813 0.75,-1.3007813 1.042969,-1.3007813 0.925781,0 0.960938,1.125 0.972656,1.3007813 z m 5.203125,2.0273437 v -0.2578125 c -0.550781,0 -0.609375,-0.058594 -0.609375,-0.4570312 v -4.8164063 l -1.183593,0.09375 v 0.2578125 c 0.539062,0 0.597656,0.058594 0.597656,0.4453125 v 1.6875 c -0.269531,-0.3046875 -0.644531,-0.46875 -1.066406,-0.46875 -0.996094,0 -1.875,0.7734375 -1.875,1.8046875 0,0.9726563 0.796875,1.7929688 1.792968,1.7929688 0.480469,0 0.867188,-0.2226563 1.125,-0.5039063 v 0.5039063 z m -1.21875,-0.984375 c 0,0.140625 0,0.1757813 -0.117187,0.328125 -0.222656,0.3164063 -0.585938,0.515625 -0.960938,0.515625 -0.363281,0 -0.691406,-0.1992187 -0.878906,-0.4921875 -0.210937,-0.3046875 -0.257812,-0.703125 -0.257812,-1.078125 0,-0.4570312 0.07031,-0.7851562 0.257812,-1.0664062 0.1875,-0.2929688 0.550781,-0.515625 0.960938,-0.515625 0.375,0 0.761718,0.1875 0.996093,0.609375 z m 5.791993,-2.1914062 v -0.2578125 c -0.28125,0.023437 -0.292969,0.023437 -0.632813,0.023437 -0.03516,0 -0.457031,0 -0.679687,-0.023437 v 0.2578125 c 0.222656,0.023437 0.339843,0.1523437 0.339843,0.328125 0,0.046875 -0.01172,0.1054687 -0.04687,0.1992187 L 31.484482,-5.0729609 30.5587,-7.1588984 c -0.05859,-0.1289063 -0.05859,-0.140625 -0.05859,-0.1757813 0,-0.1875 0.246093,-0.1992187 0.421875,-0.1992187 v -0.2578125 c -0.351563,0.023437 -0.691407,0.023437 -0.867188,0.023437 -0.175781,0 -0.550781,0 -0.808594,-0.023437 v 0.2578125 c 0.410157,0 0.527344,0.023437 0.65625,0.328125 l 1.265625,2.8476562 c -0.363281,0.84375 -0.597656,1.40625 -1.160156,1.40625 -0.199219,0 -0.328125,-0.09375 -0.328125,-0.09375 0.05859,-0.023437 0.246094,-0.1054687 0.246094,-0.3398437 0,-0.2226563 -0.175781,-0.3398438 -0.339844,-0.3398438 -0.164062,0 -0.351562,0.1054688 -0.351562,0.3515625 0,0.3515625 0.351562,0.6445313 0.773437,0.6445313 0.714844,0 1.089844,-0.8554688 1.125,-0.9375 l 1.464844,-3.3164063 c 0.199219,-0.4570312 0.492187,-0.5390625 0.761719,-0.5507812 z m 0,0"
           style="fill:#d33682;fill-opacity:1;fill-rule:nonzero;stroke:none" />
      </g>
    </g>
  </g>
</svg>
