<?xml version="1.0" encoding="UTF-8" standalone="no"?>
<!-- Created with Inkscape (http://www.inkscape.org/) -->

<svg
   version="1.1"
   id="svg1"
   width="528.26447"
   height="188.01003"
   viewBox="0 0 528.26446 188.01003"
   xmlns="http://www.w3.org/2000/svg"
   xmlns:svg="http://www.w3.org/2000/svg">
  <defs
     id="defs1" />
  <g
     id="g1"
     transform="translate(-307.48829,-37.801113)">
    <path
       id="path1"
       d="M 5.97766,0 C 5.97766,3.3014 3.3014,5.97766 0,5.97766 -3.3014,5.97766 -5.97766,3.3014 -5.97766,0 c 0,-3.3014 2.67626,-5.97766 5.97766,-5.97766 3.3014,0 5.97766,2.67626 5.97766,5.97766 z"
       style="fill:none;stroke:#586e75;stroke-width:0.79701;stroke-linecap:butt;stroke-linejoin:miter;stroke-miterlimit:10;stroke-dasharray:none;stroke-opacity:1"
       transform="matrix(1.3333333,0,0,-1.3333333,351.87733,46.302667)" />
    <path
       id="path2"
       d="m -31.39233,-48.05838 h 11.76036 v 11.07634 h -11.76036 z"
       style="fill:none;stroke:#586e75;stroke-width:0.79701;stroke-linecap:butt;stroke-linejoin:miter;stroke-miterlimit:10;stroke-dasharray:none;stroke-opacity:1"
       transform="matrix(1.3333333,0,0,-1.3333333,351.87733,46.302667)" />
    <path
       id="path3"
       d="m 4.4771875,-1.3012578 c 0,-0.082031 -0.035156,-0.1171875 -0.140625,-0.1171875 -0.070312,0 -0.1289062,0.058594 -0.1523437,0.1875 -0.1757813,0.70312499 -0.3984375,1.06640624 -0.6328125,1.06640624 -0.1523438,0 -0.234375,-0.12890625 -0.234375,-0.375 0,-0.1171875 0.035156,-0.328125 0.1171875,-0.64453124 L 3.938125,-3.2114141 C 3.985,-3.3871953 4.008438,-3.4809453 4.008438,-3.5278203 c 0,-0.1757813 -0.1054687,-0.2695313 -0.3046875,-0.2695313 -0.1875,0 -0.3046875,0.1054688 -0.375,0.3164063 -0.1875,-0.3398438 -0.4570312,-0.4921875 -0.796875,-0.4921875 -0.5859375,0 -1.1015625,0.2929687 -1.546875,0.890625 -0.421875,0.5507812 -0.62109375,1.125 -0.62109375,1.734375 0,0.78515624 0.45703125,1.44140624 1.20703125,1.44140624 0.3867188,0 0.7734375,-0.19921875 1.125,-0.62109375 0.1054688,0.3515625 0.4101563,0.62109375 0.8320313,0.62109375 0.6210937,0 0.8085937,-0.7265625 0.9492182,-1.39453124 z m -1.40625,-2.0625 c 0.082031,0.1875 0.1289063,0.3164062 0.1289063,0.3984375 0,0.035156 -0.011719,0.070312 -0.023437,0.140625 l -0.4453125,1.7226562 c -0.023437,0.10546879 -0.082031,0.21093754 -0.1640625,0.31640629 -0.3398438,0.421875 -0.65625,0.62109375 -0.9726563,0.62109375 -0.3515625,0 -0.5273437,-0.26953125 -0.5273437,-0.796875 0,-0.22265624 0.046875,-0.53906254 0.1523437,-0.97265624 0.1992188,-0.7617188 0.46875,-1.2773438 0.796875,-1.5585938 0.1757813,-0.1523437 0.3515625,-0.2226562 0.5273438,-0.2226562 0.234375,0 0.421875,0.1171875 0.5273432,0.3515625 z m 0,0"
       style="fill:#d33682;fill-opacity:1;fill-rule:nonzero;stroke:none"
       aria-label="𝑎"
       transform="matrix(1.3333333,0,0,1.3333333,314.68667,105.58267)" />
    <path
       id="path4"
       d="M 0,-6.37616 -25.51215,-36.58354"
       style="fill:none;stroke:#586e75;stroke-width:0.79701;stroke-linecap:butt;stroke-linejoin:miter;stroke-miterlimit:10;stroke-dasharray:none;stroke-opacity:1"
       transform="matrix(1.3333333,0,0,-1.3333333,351.87733,46.302667)" />
    <path
       id="path5"
       d="m -31.00531,-91.71263 h 10.98634 v 13.34438 h -10.98634 z"
       style="fill:none;stroke:#586e75;stroke-width:0.79701;stroke-linecap:butt;stroke-linejoin:miter;stroke-miterlimit:10;stroke-dasharray:none;stroke-opacity:1"
       transform="matrix(1.3333333,0,0,-1.3333333,351.87733,46.302667)" />
    <path
       id="path6"
       d="m 2.5315937,-4.0070156 c -0.328125,0 -0.6445312,0.1523437 -0.9609375,0.4570312 L 2.19175,-6.1046719 c -0.023437,-0.082031 -0.046875,-0.140625 -0.1523438,-0.140625 -0.3046875,0 -0.9609375,0.082031 -1.07812495,0.09375 -0.12890625,0.011719 -0.19921875,0.082031 -0.19921875,0.2109375 0,0.09375 0.0703125,0.140625 0.2460937,0.140625 0.1757813,0 0.4101563,-0.011719 0.4101563,0.1171875 0,0.035156 -0.046875,0.2109375 -0.1289063,0.5390625 l -0.72656245,2.90625 c -0.09375,0.375 -0.140625,0.6796875 -0.140625,0.9023438 0,0.77343748 0.41015625,1.42968748 1.14843745,1.42968748 0.5859375,0 1.1015625,-0.29296875 1.546875,-0.890625 C 3.5276875,-1.3585781 3.738625,-1.9445156 3.738625,-2.5421719 c 0,-0.7851562 -0.4570313,-1.4648437 -1.2070313,-1.4648437 z m -0.023437,0.2695312 c 0.3515625,0 0.5273438,0.2695313 0.5273438,0.8085938 0,0.234375 -0.058594,0.5625 -0.1640625,0.9726562 -0.1992188,0.7617188 -0.4570313,1.27734378 -0.7734375,1.55859378 -0.1757813,0.15234375 -0.3515625,0.22265625 -0.5273438,0.22265625 -0.3632812,0 -0.5390625,-0.28125 -0.5390625,-0.85546873 0,-0.1992188 0.035156,-0.5039063 0.1289063,-0.890625 l 0.1992187,-0.8085938 c 0.023437,-0.140625 0.070312,-0.234375 0.1289063,-0.3164062 0.3515625,-0.4570313 0.6914062,-0.6914063 1.0195312,-0.6914063 z m 0,0"
       style="fill:#d33682;fill-opacity:1;fill-rule:nonzero;stroke:none"
       aria-label="𝑏"
       transform="matrix(1.3333333,0,0,1.3333333,315.20267,163.788)" />
    <path
       id="path7"
       d="m -25.51215,-48.4569 2e-5,-29.51284"
       style="fill:none;stroke:#586e75;stroke-width:0.79701;stroke-linecap:butt;stroke-linejoin:miter;stroke-miterlimit:10;stroke-dasharray:none;stroke-opacity:1"
       transform="matrix(1.3333333,0,0,-1.3333333,351.87733,46.302667)" />
    <path
       id="path8"
       d="m 3.8666797,-2.3891797 c 0,-0.84375 -0.1523438,-1.5 -0.4453125,-1.9335937 -0.234375,-0.375 -0.7148438,-0.65625 -1.2890625,-0.65625 -0.2460938,0 -0.4570313,0.035156 -0.6445313,0.1171875 -0.83203121,0.3515625 -1.10156246,1.3125 -1.10156246,2.4726562 0,0.2578125 0.0234375,0.4921875 0.0351563,0.7265625 0.12890625,0.98437501 0.58593756,1.81640626 1.71093756,1.81640626 0.234375,0 0.4570311,-0.0351563 0.6445311,-0.1171875 C 3.5971484,-0.30324219 3.8666797,-1.2407422 3.8666797,-2.3891797 Z M 3.0112109,-4.0532422 c 0.082031,0.2695313 0.1289063,0.796875 0.1289063,1.5703125 0,0.7265625 -0.023437,1.2421875 -0.09375,1.55859376 -0.09375,0.43359375 -0.4101563,0.80859375 -0.9140625,0.80859375 -0.1875,0 -0.375,-0.0585938 -0.5507813,-0.1875 -0.234375,-0.17578125 -0.375,-0.515625 -0.4335937,-1.03125001 -0.023437,-0.1757812 -0.035156,-0.5507812 -0.035156,-1.1484375 0,-0.7382812 0.046875,-1.2304687 0.1171875,-1.5 0.1289063,-0.4804687 0.421875,-0.7265625 0.9023438,-0.7265625 0.4453125,0 0.7734375,0.2929688 0.8789059,0.65625 z m 0,0"
       style="fill:#d33682;fill-opacity:1;fill-rule:nonzero;stroke:none"
       aria-label="0"
       transform="matrix(1.3333333,0,0,1.3333333,306.97333,133.80667)" />
    <path
       id="path9"
       d="m 3.8665391,-2.3895781 c 0,-0.84375 -0.1523438,-1.5 -0.4453125,-1.9335938 -0.234375,-0.375 -0.7148438,-0.65625 -1.2890625,-0.65625 -0.2460938,0 -0.4570313,0.035156 -0.6445313,0.1171875 -0.83203124,0.3515625 -1.10156249,1.3125 -1.10156249,2.4726563 0,0.2578125 0.0234375,0.4921875 0.0351563,0.7265625 0.12890625,0.98437498 0.58593749,1.81640623 1.71093749,1.81640623 0.234375,0 0.4570312,-0.0351563 0.6445312,-0.1171875 C 3.5970078,-0.30364062 3.8665391,-1.2411406 3.8665391,-2.3895781 Z M 3.0110703,-4.0536406 c 0.082031,0.2695312 0.1289063,0.796875 0.1289063,1.5703125 0,0.7265625 -0.023437,1.2421875 -0.09375,1.55859373 -0.09375,0.43359375 -0.4101563,0.80859375 -0.9140625,0.80859375 -0.1875,0 -0.375,-0.0585938 -0.5507813,-0.1875 -0.234375,-0.17578125 -0.375,-0.515625 -0.4335937,-1.03124998 -0.023437,-0.1757813 -0.035156,-0.5507813 -0.035156,-1.1484375 0,-0.7382813 0.046875,-1.2304688 0.1171875,-1.5 0.1289063,-0.4804688 0.421875,-0.7265625 0.9023438,-0.7265625 0.4453125,0 0.7734375,0.2929687 0.8789059,0.65625 z m 0,0"
       style="fill:#d33682;fill-opacity:1;fill-rule:nonzero;stroke:none"
       aria-label="0"
       transform="matrix(1.3333333,0,0,1.3333333,323.98133,78.162667)" />
    <path
       id="path10"
       d="m 19.9515,-48.05838 h 11.12137 v 11.07634 H 19.9515 Z"
       style="fill:none;stroke:#586e75;stroke-width:0.79701;stroke-linecap:butt;stroke-linejoin:miter;stroke-miterlimit:10;stroke-dasharray:none;stroke-opacity:1"
       transform="matrix(1.3333333,0,0,-1.3333333,351.87733,46.302667)" />
    <path
       id="path11"
       d="m 2.9525234,-2.9301641 c 0,0.234375 0.1171875,0.3515625 0.3632813,0.3515625 0.3164062,0 0.5273437,-0.28125 0.5273437,-0.609375 0,-0.5039062 -0.5273437,-0.7851562 -1.0664062,-0.7851562 -0.6210938,0 -1.1953125,0.2695312 -1.6757813,0.796875 -0.49218746,0.5273437 -0.73828121,1.1132812 -0.73828121,1.7460937 0,0.87890629 0.5859375,1.52343754 1.47656251,1.52343754 0.46875,0 0.890625,-0.1171875 1.265625,-0.33984375 0.3046875,-0.1875 0.5273437,-0.375 0.6796875,-0.5625 0.058594,-0.0820313 0.082031,-0.140625 0.082031,-0.17578125 0,-0.09375 -0.046875,-0.15234374 -0.140625,-0.15234374 -0.046875,0 -0.09375,0.035156 -0.140625,0.1054687 -0.3046875,0.39843754 -0.6679687,0.65625004 -1.0898437,0.76171879 -0.28125,0.0703125 -0.4921875,0.10546875 -0.6445313,0.10546875 -0.515625,0 -0.7617187,-0.31640625 -0.7617187,-0.93750004 0,-0.5507812 0.2578125,-1.359375 0.4804687,-1.7460937 0.2109375,-0.3984375 0.6679688,-0.8671875 1.2070313,-0.8671875 0.3398437,0 0.5742187,0.09375 0.6914062,0.28125 -0.2695312,0.035156 -0.515625,0.2109375 -0.5156248,0.5039062 z m 0,0"
       style="fill:#d33682;fill-opacity:1;fill-rule:nonzero;stroke:none"
       aria-label="𝑐"
       transform="matrix(1.3333333,0,0,1.3333333,383.14533,105.58267)" />
    <path
       id="path12"
       d="M 0,-6.37616 25.51219,-36.58354"
       style="fill:none;stroke:#586e75;stroke-width:0.79701;stroke-linecap:butt;stroke-linejoin:miter;stroke-miterlimit:10;stroke-dasharray:none;stroke-opacity:1"
       transform="matrix(1.3333333,0,0,-1.3333333,351.87733,46.302667)" />
    <path
       id="path13"
       d="m 19.56453,-91.71263 h 11.89536 v 13.34438 H 19.56453 Z"
       style="fill:none;stroke:#586e75;stroke-width:0.79701;stroke-linecap:butt;stroke-linejoin:miter;stroke-miterlimit:10;stroke-dasharray:none;stroke-opacity:1"
       transform="matrix(1.3333333,0,0,-1.3333333,351.87733,46.302667)" />
    <path
       id="path14"
       d="m 3.8551484,-5.6827969 -0.5273437,2.1796875 c -0.1875,-0.328125 -0.4453125,-0.5039062 -0.796875,-0.5039062 -0.5859375,0 -1.1015625,0.3046875 -1.54687501,0.9023437 -0.421875,0.5625 -0.62109375,1.1484375 -0.62109375,1.7460938 0,0.79687498 0.45703125,1.45312498 1.20703126,1.45312498 0.3867187,0 0.7734375,-0.19921875 1.125,-0.62109375 0.1054687,0.33984375 0.4101562,0.62109375 0.8320312,0.62109375 0.6210938,0 0.8203125,-0.73828125 0.9492188,-1.39453128 0,-0.082031 -0.035156,-0.1289062 -0.1289063,-0.1289062 -0.082031,0 -0.140625,0.058594 -0.1640625,0.1875 -0.1757812,0.71484373 -0.3984375,1.06640623 -0.6328125,1.06640623 -0.1523437,0 -0.234375,-0.1171875 -0.234375,-0.36328125 0,-0.140625 0.011719,-0.28125 0.046875,-0.421875 L 4.6403047,-6.1046719 v -0.046875 c -0.023437,-0.058594 -0.082031,-0.09375 -0.1523438,-0.09375 -0.1992187,0 -0.5859375,0.035156 -1.125,0.09375 -0.09375,0.011719 -0.1523437,0.082031 -0.1523437,0.2109375 0,0.09375 0.082031,0.140625 0.2460937,0.140625 0.1757813,0 0.3984375,-0.011719 0.3984375,0.1171875 z m -0.7851562,2.296875 c 0.09375,0.1875 0.1289062,0.3164063 0.1289062,0.3984375 0,0.035156 -0.011719,0.082031 -0.023437,0.140625 l -0.4453125,1.7460938 c -0.023437,0.10546873 -0.082031,0.21093748 -0.1640625,0.31640623 -0.3398437,0.41015625 -0.65625,0.609375 -0.9726562,0.609375 -0.3515625,0 -0.5273438,-0.26953125 -0.5273438,-0.796875 0,-0.21093753 0.046875,-0.53906253 0.1523438,-0.97265623 0.1992187,-0.7617188 0.46875,-1.2890625 0.796875,-1.5703125 0.1757812,-0.1523438 0.3515625,-0.2226563 0.5273437,-0.2226563 0.234375,0 0.421875,0.1171875 0.5273433,0.3515625 z m 0,0"
       style="fill:#d33682;fill-opacity:1;fill-rule:nonzero;stroke:none"
       aria-label="𝑑"
       transform="matrix(1.3333333,0,0,1.3333333,382.62933,163.788)" />
    <path
       id="path15"
       d="m 25.51219,-48.4569 10e-6,-29.51284"
       style="fill:none;stroke:#586e75;stroke-width:0.79701;stroke-linecap:butt;stroke-linejoin:miter;stroke-miterlimit:10;stroke-dasharray:none;stroke-opacity:1"
       transform="matrix(1.3333333,0,0,-1.3333333,351.87733,46.302667)" />
    <path
       id="path16"
       d="m 2.2728203,-4.9807812 c -0.328125,0.3164062 -0.8085937,0.46875 -1.45312499,0.46875 v 0.3398437 c 0.44531249,0 0.79687499,-0.070312 1.06640629,-0.1992187 v 3.7382812 c 0,0.09375 -0.011719,0.15234375 -0.035156,0.1875 -0.035156,0.0820313 -0.2578125,0.1171875 -0.6796875,0.1171875 H 0.86657031 v 0.328125 L 2.2025078,-0.03546875 3.5501641,-3.125e-4 v -0.328125 H 3.2337578 c -0.4101562,0 -0.6328125,-0.0351563 -0.6796875,-0.1171875 -0.011719,-0.0351563 -0.023437,-0.09375 -0.023437,-0.1875 v -4.1015625 c 0,-0.2109375 -0.023437,-0.2460937 -0.257813,-0.2460937 z m 0,0"
       style="fill:#d33682;fill-opacity:1;fill-rule:nonzero;stroke:none"
       aria-label="1"
       transform="matrix(1.3333333,0,0,1.3333333,391.09067,133.90667)" />
    <path
       id="path17"
       d="m 2.2729609,-4.9811797 c -0.328125,0.3164063 -0.8085937,0.46875 -1.45312496,0.46875 v 0.3398438 c 0.44531246,0 0.79687496,-0.070312 1.06640626,-0.1992188 v 3.73828126 c 0,0.09375 -0.011719,0.15234375 -0.035156,0.1875 -0.035156,0.0820313 -0.2578125,0.1171875 -0.6796875,0.1171875 H 0.86671094 V -7.109375e-4 L 2.2026484,-0.03586719 3.5503047,-7.109375e-4 V -0.32883594 H 3.2338984 c -0.4101562,0 -0.6328125,-0.0351563 -0.6796875,-0.1171875 -0.011719,-0.0351563 -0.023437,-0.09375 -0.023437,-0.1875 V -4.7350859 c 0,-0.2109375 -0.023437,-0.2460938 -0.257813,-0.2460938 z m 0,0"
       style="fill:#d33682;fill-opacity:1;fill-rule:nonzero;stroke:none"
       aria-label="1"
       transform="matrix(1.3333333,0,0,1.3333333,374.08267,78.262667)" />
    <path
       id="path18"
       d="M 5.97766,0 C 5.97766,3.3014 3.3014,5.97766 0,5.97766 -3.3014,5.97766 -5.97766,3.3014 -5.97766,0 c 0,-3.3014 2.67626,-5.97766 5.97766,-5.97766 3.3014,0 5.97766,2.67626 5.97766,5.97766 z"
       style="fill:none;stroke:#586e75;stroke-width:0.79701;stroke-linecap:butt;stroke-linejoin:miter;stroke-miterlimit:10;stroke-dasharray:none;stroke-opacity:1"
       transform="matrix(1.3333333,0,0,-1.3333333,561.21467,46.302667)" />
    <path
       id="path19"
       d="m -28.03844,-42.52022 c 0,3.30142 -2.67624,5.97766 -5.97766,5.97766 -3.3014,0 -5.97766,-2.67624 -5.97766,-5.97766 0,-3.3014 2.67626,-5.97766 5.97766,-5.97766 3.30142,0 5.97766,2.67626 5.97766,5.97766 z"
       style="fill:none;stroke:#586e75;stroke-width:0.79701;stroke-linecap:butt;stroke-linejoin:miter;stroke-miterlimit:10;stroke-dasharray:none;stroke-opacity:1"
       transform="matrix(1.3333333,0,0,-1.3333333,561.21467,46.302667)" />
    <path
       id="path20"
       d="M 0,-6.37616 -34.0161,-36.14404"
       style="fill:none;stroke:#586e75;stroke-width:0.79701;stroke-linecap:butt;stroke-linejoin:miter;stroke-miterlimit:10;stroke-dasharray:none;stroke-opacity:1"
       transform="matrix(1.3333333,0,0,-1.3333333,561.21467,46.302667)" />
    <path
       id="path21"
       d="m -56.90433,-90.57861 h 11.76036 v 11.07634 h -11.76036 z"
       style="fill:none;stroke:#586e75;stroke-width:0.79701;stroke-linecap:butt;stroke-linejoin:miter;stroke-miterlimit:10;stroke-dasharray:none;stroke-opacity:1"
       transform="matrix(1.3333333,0,0,-1.3333333,561.21467,46.302667)" />
    <path
       id="path22"
       d="m 4.4764219,-1.2997734 c 0,-0.082031 -0.035156,-0.1171875 -0.140625,-0.1171875 -0.070312,0 -0.1289063,0.058594 -0.1523438,0.1875 -0.1757812,0.70312496 -0.3984375,1.06640621 -0.6328125,1.06640621 -0.1523437,0 -0.234375,-0.12890625 -0.234375,-0.375 0,-0.1171875 0.035156,-0.328125 0.1171875,-0.64453121 l 0.5039063,-2.0273438 c 0.046875,-0.1757812 0.070312,-0.2695312 0.070312,-0.3164062 0,-0.1757813 -0.1054688,-0.2695313 -0.3046875,-0.2695313 -0.1875,0 -0.3046875,0.1054688 -0.375,0.3164063 -0.1875,-0.3398438 -0.4570313,-0.4921875 -0.796875,-0.4921875 -0.5859375,0 -1.1015625,0.2929687 -1.54687502,0.890625 -0.421875,0.5507812 -0.62109375,1.125 -0.62109375,1.734375 0,0.78515621 0.45703125,1.44140621 1.20703127,1.44140621 0.3867187,0 0.7734375,-0.19921875 1.125,-0.62109375 0.1054687,0.3515625 0.4101562,0.62109375 0.8320312,0.62109375 0.6210938,0 0.8085938,-0.7265625 0.9492193,-1.39453121 z m -1.40625,-2.0625 c 0.082031,0.1875 0.1289062,0.3164062 0.1289062,0.3984375 0,0.035156 -0.011719,0.070312 -0.023437,0.140625 l -0.4453125,1.7226562 c -0.023437,0.10546876 -0.082031,0.21093751 -0.1640625,0.31640626 -0.3398437,0.421875 -0.65625,0.62109375 -0.9726562,0.62109375 -0.3515625,0 -0.5273438,-0.26953125 -0.5273438,-0.796875 0,-0.22265621 0.046875,-0.53906251 0.1523438,-0.97265621 0.1992187,-0.7617188 0.46875,-1.2773438 0.796875,-1.5585938 0.1757812,-0.1523437 0.3515625,-0.2226562 0.5273437,-0.2226562 0.234375,0 0.421875,0.1171875 0.5273433,0.3515625 z m 0,0"
       style="fill:#d33682;fill-opacity:1;fill-rule:nonzero;stroke:none"
       aria-label="𝑎"
       transform="matrix(1.3333333,0,0,1.3333333,490.008,162.276)" />
    <path
       id="path23"
       d="M -34.0161,-48.89638 -51.02414,-79.10376"
       style="fill:none;stroke:#586e75;stroke-width:0.79701;stroke-linecap:butt;stroke-linejoin:miter;stroke-miterlimit:10;stroke-dasharray:none;stroke-opacity:1"
       transform="matrix(1.3333333,0,0,-1.3333333,561.21467,46.302667)" />
    <path
       id="path24"
       d="m 3.8667969,-2.3910234 c 0,-0.84375 -0.1523438,-1.5 -0.4453125,-1.9335938 -0.234375,-0.375 -0.7148438,-0.65625 -1.2890625,-0.65625 -0.2460938,0 -0.4570313,0.035156 -0.6445313,0.1171875 -0.83203122,0.3515625 -1.10156247,1.3125 -1.10156247,2.4726563 0,0.2578125 0.0234375,0.4921875 0.0351563,0.7265625 0.12890625,0.98437496 0.58593757,1.81640621 1.71093757,1.81640621 0.234375,0 0.4570312,-0.0351563 0.6445312,-0.1171875 C 3.5972656,-0.30508594 3.8667969,-1.2425859 3.8667969,-2.3910234 Z M 3.0113281,-4.0550859 c 0.082031,0.2695312 0.1289063,0.796875 0.1289063,1.5703125 0,0.7265625 -0.023437,1.2421875 -0.09375,1.55859371 -0.09375,0.43359375 -0.4101563,0.80859375 -0.9140625,0.80859375 -0.1875,0 -0.375,-0.0585938 -0.5507813,-0.1875 -0.234375,-0.17578125 -0.375,-0.515625 -0.4335937,-1.03124996 -0.023437,-0.1757813 -0.035156,-0.5507813 -0.035156,-1.1484375 0,-0.7382813 0.046875,-1.2304688 0.1171875,-1.5 0.1289063,-0.4804688 0.421875,-0.7265625 0.9023438,-0.7265625 0.4453125,0 0.7734375,0.2929687 0.8789059,0.65625 z m 0,0"
       style="fill:#d33682;fill-opacity:1;fill-rule:nonzero;stroke:none"
       aria-label="0"
       transform="matrix(1.3333333,0,0,1.3333333,493.63333,134.856)" />
    <path
       id="path25"
       d="m -22.50122,-91.71263 h 10.98634 v 13.34438 h -10.98634 z"
       style="fill:none;stroke:#586e75;stroke-width:0.79701;stroke-linecap:butt;stroke-linejoin:miter;stroke-miterlimit:10;stroke-dasharray:none;stroke-opacity:1"
       transform="matrix(1.3333333,0,0,-1.3333333,561.21467,46.302667)" />
    <path
       id="path26"
       d="m 2.5314297,-4.0070156 c -0.328125,0 -0.6445313,0.1523437 -0.9609375,0.4570312 l 0.6210937,-2.5546875 c -0.023437,-0.082031 -0.046875,-0.140625 -0.1523437,-0.140625 -0.3046875,0 -0.9609375,0.082031 -1.07812501,0.09375 -0.12890625,0.011719 -0.19921875,0.082031 -0.19921875,0.2109375 0,0.09375 0.0703125,0.140625 0.24609376,0.140625 0.1757812,0 0.4101562,-0.011719 0.4101562,0.1171875 0,0.035156 -0.046875,0.2109375 -0.1289062,0.5390625 l -0.72656251,2.90625 c -0.09375,0.375 -0.140625,0.6796875 -0.140625,0.9023438 0,0.77343748 0.41015625,1.42968748 1.14843751,1.42968748 0.5859375,0 1.1015625,-0.29296875 1.546875,-0.890625 0.4101562,-0.56249998 0.6210937,-1.14843748 0.6210937,-1.74609378 0,-0.7851562 -0.4570312,-1.4648437 -1.2070312,-1.4648437 z m -0.023437,0.2695312 c 0.3515625,0 0.5273437,0.2695313 0.5273437,0.8085938 0,0.234375 -0.058594,0.5625 -0.1640625,0.9726562 -0.1992187,0.7617188 -0.4570312,1.27734378 -0.7734375,1.55859378 -0.1757812,0.15234375 -0.3515625,0.22265625 -0.5273437,0.22265625 -0.3632813,0 -0.5390625,-0.28125 -0.5390625,-0.85546873 0,-0.1992188 0.035156,-0.5039063 0.1289062,-0.890625 l 0.1992188,-0.8085938 c 0.023437,-0.140625 0.070312,-0.234375 0.1289062,-0.3164062 0.3515625,-0.4570313 0.6914063,-0.6914063 1.0195313,-0.6914063 z m 0,0"
       style="fill:#d33682;fill-opacity:1;fill-rule:nonzero;stroke:none"
       aria-label="𝑏"
       transform="matrix(1.3333333,0,0,1.3333333,535.87867,163.788)" />
    <path
       id="path27"
       d="m -34.0161,-48.89638 17.00806,-29.07336"
       style="fill:none;stroke:#586e75;stroke-width:0.79701;stroke-linecap:butt;stroke-linejoin:miter;stroke-miterlimit:10;stroke-dasharray:none;stroke-opacity:1"
       transform="matrix(1.3333333,0,0,-1.3333333,561.21467,46.302667)" />
    <path
       id="path28"
       d="m 2.2723359,-4.9810547 c -0.328125,0.3164063 -0.8085937,0.46875 -1.45312496,0.46875 v 0.3398438 c 0.44531246,0 0.79687496,-0.070312 1.06640626,-0.1992188 v 3.73828126 c 0,0.09375 -0.011719,0.15234375 -0.035156,0.1875 -0.035156,0.0820313 -0.2578125,0.1171875 -0.6796875,0.1171875 H 0.86608594 V -5.859375e-4 L 2.2020234,-0.03574219 3.5496797,-5.859375e-4 V -0.32871094 H 3.2332734 c -0.4101562,0 -0.6328125,-0.0351563 -0.6796875,-0.1171875 -0.011719,-0.0351563 -0.023437,-0.09375 -0.023437,-0.1875 V -4.7349609 c 0,-0.2109375 -0.023437,-0.2460938 -0.257813,-0.2460938 z m 0,0"
       style="fill:#d33682;fill-opacity:1;fill-rule:nonzero;stroke:none"
       aria-label="1"
       transform="matrix(1.3333333,0,0,1.3333333,532.396,134.2)" />
    <path
       id="path29"
       d="m 3.8665156,-2.3893047 c 0,-0.84375 -0.1523437,-1.5 -0.4453125,-1.9335937 -0.234375,-0.375 -0.7148437,-0.65625 -1.2890625,-0.65625 -0.2460937,0 -0.4570312,0.035156 -0.6445312,0.1171875 -0.83203127,0.3515625 -1.10156252,1.3125 -1.10156252,2.4726562 0,0.2578125 0.0234375,0.4921875 0.0351563,0.7265625 0.12890625,0.98437501 0.58593752,1.81640626 1.71093752,1.81640626 0.234375,0 0.4570313,-0.0351562 0.6445313,-0.1171875 C 3.5969844,-0.30336719 3.8665156,-1.2408672 3.8665156,-2.3893047 Z M 3.0110469,-4.0533672 c 0.082031,0.2695313 0.1289062,0.796875 0.1289062,1.5703125 0,0.7265625 -0.023437,1.2421875 -0.09375,1.55859376 -0.09375,0.43359375 -0.4101562,0.80859375 -0.9140625,0.80859375 -0.1875,0 -0.375,-0.0585938 -0.5507812,-0.1875 -0.234375,-0.17578125 -0.375,-0.515625 -0.4335938,-1.03125001 -0.023437,-0.1757812 -0.035156,-0.5507812 -0.035156,-1.1484375 0,-0.7382812 0.046875,-1.2304687 0.1171875,-1.5 0.1289062,-0.4804687 0.421875,-0.7265625 0.9023437,-0.7265625 0.4453125,0 0.7734375,0.2929688 0.8789061,0.65625 z m 0,0"
       style="fill:#d33682;fill-opacity:1;fill-rule:nonzero;stroke:none"
       aria-label="0"
       transform="matrix(1.3333333,0,0,1.3333333,527.64933,77.869333)" />
    <path
       id="path30"
       d="m 39.99376,-42.52022 c 0,3.30142 -2.67626,5.97766 -5.97766,5.97766 -3.30142,0 -5.97766,-2.67624 -5.97766,-5.97766 0,-3.3014 2.67624,-5.97766 5.97766,-5.97766 3.3014,0 5.97766,2.67626 5.97766,5.97766 z"
       style="fill:none;stroke:#586e75;stroke-width:0.79701;stroke-linecap:butt;stroke-linejoin:miter;stroke-miterlimit:10;stroke-dasharray:none;stroke-opacity:1"
       transform="matrix(1.3333333,0,0,-1.3333333,561.21467,46.302667)" />
    <path
       id="path31"
       d="M 0,-6.37616 34.0161,-36.14404"
       style="fill:none;stroke:#586e75;stroke-width:0.79701;stroke-linecap:butt;stroke-linejoin:miter;stroke-miterlimit:10;stroke-dasharray:none;stroke-opacity:1"
       transform="matrix(1.3333333,0,0,-1.3333333,561.21467,46.302667)" />
    <path
       id="path32"
       d="m 11.44736,-90.57861 h 11.12137 v 11.07634 H 11.44736 Z"
       style="fill:none;stroke:#586e75;stroke-width:0.79701;stroke-linecap:butt;stroke-linejoin:miter;stroke-miterlimit:10;stroke-dasharray:none;stroke-opacity:1"
       transform="matrix(1.3333333,0,0,-1.3333333,561.21467,46.302667)" />
    <path
       id="path33"
       d="m 2.9535234,-2.9286797 c 0,0.234375 0.1171875,0.3515625 0.3632813,0.3515625 0.3164062,0 0.5273437,-0.28125 0.5273437,-0.609375 0,-0.5039062 -0.5273437,-0.7851562 -1.0664062,-0.7851562 -0.6210938,0 -1.1953125,0.2695312 -1.6757813,0.796875 -0.49218746,0.5273437 -0.73828121,1.1132812 -0.73828121,1.7460937 0,0.87890626 0.5859375,1.52343751 1.47656251,1.52343751 0.46875,0 0.890625,-0.1171875 1.265625,-0.33984375 0.3046875,-0.1875 0.5273437,-0.375 0.6796875,-0.5625 0.058594,-0.0820313 0.082031,-0.140625 0.082031,-0.17578125 0,-0.09375 -0.046875,-0.15234371 -0.140625,-0.15234371 -0.046875,0 -0.09375,0.035156 -0.140625,0.1054687 -0.3046875,0.39843751 -0.6679687,0.65625001 -1.0898437,0.76171876 -0.28125,0.0703125 -0.4921875,0.10546875 -0.6445313,0.10546875 -0.515625,0 -0.7617187,-0.31640625 -0.7617187,-0.93750001 0,-0.5507812 0.2578125,-1.359375 0.4804687,-1.7460937 0.2109375,-0.3984375 0.6679688,-0.8671875 1.2070313,-0.8671875 0.3398437,0 0.5742187,0.09375 0.6914062,0.28125 -0.2695312,0.035156 -0.515625,0.2109375 -0.5156248,0.5039062 z m 0,0"
       style="fill:#d33682;fill-opacity:1;fill-rule:nonzero;stroke:none"
       aria-label="𝑐"
       transform="matrix(1.3333333,0,0,1.3333333,581.144,162.276)" />
    <path
       id="path34"
       d="M 34.0161,-48.89638 17.00804,-79.10376"
       style="fill:none;stroke:#586e75;stroke-width:0.79701;stroke-linecap:butt;stroke-linejoin:miter;stroke-miterlimit:10;stroke-dasharray:none;stroke-opacity:1"
       transform="matrix(1.3333333,0,0,-1.3333333,561.21467,46.302667)" />
    <path
       id="path35"
       d="m 3.868,-2.3910234 c 0,-0.84375 -0.1523437,-1.5 -0.4453125,-1.9335938 -0.234375,-0.375 -0.7148437,-0.65625 -1.2890625,-0.65625 -0.2460937,0 -0.4570312,0.035156 -0.6445312,0.1171875 -0.8320313,0.3515625 -1.10156255,1.3125 -1.10156255,2.4726563 0,0.2578125 0.0234375,0.4921875 0.0351563,0.7265625 0.12890625,0.98437496 0.58593745,1.81640621 1.71093755,1.81640621 0.234375,0 0.4570313,-0.0351563 0.6445313,-0.1171875 C 3.5984688,-0.30508594 3.868,-1.2425859 3.868,-2.3910234 Z M 3.0125313,-4.0550859 c 0.082031,0.2695312 0.1289062,0.796875 0.1289062,1.5703125 0,0.7265625 -0.023437,1.2421875 -0.09375,1.55859371 -0.09375,0.43359375 -0.4101562,0.80859375 -0.9140625,0.80859375 -0.1875,0 -0.375,-0.0585938 -0.5507812,-0.1875 -0.234375,-0.17578125 -0.375,-0.515625 -0.4335938,-1.03124996 -0.023437,-0.1757813 -0.035156,-0.5507813 -0.035156,-1.1484375 0,-0.7382813 0.046875,-1.2304688 0.1171875,-1.5 0.1289062,-0.4804688 0.421875,-0.7265625 0.9023437,-0.7265625 0.4453125,0 0.7734375,0.2929687 0.8789061,0.65625 z m 0,0"
       style="fill:#d33682;fill-opacity:1;fill-rule:nonzero;stroke:none"
       aria-label="0"
       transform="matrix(1.3333333,0,0,1.3333333,584.34267,134.856)" />
    <path
       id="path36"
       d="m 45.07646,-91.71263 h 11.89536 v 13.34438 H 45.07646 Z"
       style="fill:none;stroke:#586e75;stroke-width:0.79701;stroke-linecap:butt;stroke-linejoin:miter;stroke-miterlimit:10;stroke-dasharray:none;stroke-opacity:1"
       transform="matrix(1.3333333,0,0,-1.3333333,561.21467,46.302667)" />
    <path
       id="path37"
       d="m 3.85675,-5.6827969 -0.5273437,2.1796875 c -0.1875,-0.328125 -0.4453125,-0.5039062 -0.796875,-0.5039062 -0.5859375,0 -1.1015625,0.3046875 -1.54687505,0.9023437 -0.421875,0.5625 -0.62109375,1.1484375 -0.62109375,1.7460938 0,0.79687498 0.45703125,1.45312498 1.2070313,1.45312498 0.3867187,0 0.7734375,-0.19921875 1.125,-0.62109375 0.1054687,0.33984375 0.4101562,0.62109375 0.8320312,0.62109375 0.6210938,0 0.8203125,-0.73828125 0.9492188,-1.39453128 0,-0.082031 -0.035156,-0.1289062 -0.1289063,-0.1289062 -0.082031,0 -0.140625,0.058594 -0.1640625,0.1875 -0.1757812,0.71484373 -0.3984375,1.06640623 -0.6328125,1.06640623 -0.1523437,0 -0.234375,-0.1171875 -0.234375,-0.36328125 0,-0.140625 0.011719,-0.28125 0.046875,-0.421875 L 4.6419063,-6.1046719 v -0.046875 c -0.023437,-0.058594 -0.082031,-0.09375 -0.1523438,-0.09375 -0.1992187,0 -0.5859375,0.035156 -1.125,0.09375 -0.09375,0.011719 -0.1523437,0.082031 -0.1523437,0.2109375 0,0.09375 0.082031,0.140625 0.2460937,0.140625 0.1757813,0 0.3984375,-0.011719 0.3984375,0.1171875 z m -0.7851562,2.296875 c 0.09375,0.1875 0.1289062,0.3164063 0.1289062,0.3984375 0,0.035156 -0.011719,0.082031 -0.023437,0.140625 L 2.73175,-1.1007656 c -0.023437,0.10546873 -0.082031,0.21093748 -0.1640625,0.31640623 -0.3398437,0.41015625 -0.65625,0.609375 -0.9726562,0.609375 -0.3515625,0 -0.5273438,-0.26953125 -0.5273438,-0.796875 0,-0.21093753 0.046875,-0.53906253 0.1523438,-0.97265623 0.1992187,-0.7617188 0.46875,-1.2890625 0.796875,-1.5703125 0.1757812,-0.1523438 0.3515625,-0.2226563 0.5273437,-0.2226563 0.234375,0 0.421875,0.1171875 0.5273438,0.3515625 z m 0,0"
       style="fill:#d33682;fill-opacity:1;fill-rule:nonzero;stroke:none"
       aria-label="𝑑"
       transform="matrix(1.3333333,0,0,1.3333333,625.98267,163.788)" />
    <path
       id="path38"
       d="M 34.0161,-48.89638 51.02414,-77.96974"
       style="fill:none;stroke:#586e75;stroke-width:0.79701;stroke-linecap:butt;stroke-linejoin:miter;stroke-miterlimit:10;stroke-dasharray:none;stroke-opacity:1"
       transform="matrix(1.3333333,0,0,-1.3333333,561.21467,46.302667)" />
    <path
       id="path39"
       d="m 2.2735391,-4.9810547 c -0.328125,0.3164063 -0.8085938,0.46875 -1.45312504,0.46875 v 0.3398438 c 0.44531254,0 0.79687504,-0.070312 1.06640624,-0.1992188 v 3.73828126 c 0,0.09375 -0.011719,0.15234375 -0.035156,0.1875 -0.035156,0.0820313 -0.2578125,0.1171875 -0.6796875,0.1171875 H 0.86728906 V -5.859375e-4 L 2.2032266,-0.03574219 3.5508828,-5.859375e-4 V -0.32871094 H 3.2344766 c -0.4101563,0 -0.6328125,-0.0351563 -0.6796875,-0.1171875 -0.011719,-0.0351563 -0.023437,-0.09375 -0.023437,-0.1875 V -4.7349609 c 0,-0.2109375 -0.023437,-0.2460938 -0.257813,-0.2460938 z m 0,0"
       style="fill:#d33682;fill-opacity:1;fill-rule:nonzero;stroke:none"
       aria-label="1"
       transform="matrix(1.3333333,0,0,1.3333333,623.10533,134.2)" />
    <path
       id="path40"
       d="m 2.2738203,-4.9809062 c -0.328125,0.3164062 -0.8085937,0.46875 -1.45312499,0.46875 v 0.3398437 c 0.44531249,0 0.79687499,-0.070312 1.06640629,-0.1992187 V -0.63325 c 0,0.09375 -0.011719,0.15234375 -0.035156,0.1875 -0.035156,0.0820313 -0.2578125,0.1171875 -0.6796875,0.1171875 H 0.86757031 v 0.328125 L 2.2035078,-0.03559375 3.5511641,-4.375e-4 v -0.328125 H 3.2347578 c -0.4101562,0 -0.6328125,-0.0351563 -0.6796875,-0.1171875 -0.011719,-0.0351563 -0.023437,-0.09375 -0.023437,-0.1875 v -4.1015625 c 0,-0.2109375 -0.023437,-0.2460937 -0.257813,-0.2460937 z m 0,0"
       style="fill:#d33682;fill-opacity:1;fill-rule:nonzero;stroke:none"
       aria-label="1"
       transform="matrix(1.3333333,0,0,1.3333333,589.08933,77.969333)" />
    <path
       id="path41"
       d="M 5.97766,0 C 5.97766,3.3014 3.3014,5.97766 0,5.97766 -3.3014,5.97766 -5.97766,3.3014 -5.97766,0 c 0,-3.3014 2.67626,-5.97766 5.97766,-5.97766 3.3014,0 5.97766,2.67626 5.97766,5.97766 z"
       style="fill:none;stroke:#586e75;stroke-width:0.79701;stroke-linecap:butt;stroke-linejoin:miter;stroke-miterlimit:10;stroke-dasharray:none;stroke-opacity:1"
       transform="matrix(1.3333333,0,0,-1.3333333,742.25067,46.302667)" />
    <path
       id="path42"
       d="m -27.14027,-48.05838 h 11.76036 v 11.07634 h -11.76036 z"
       style="fill:none;stroke:#586e75;stroke-width:0.79701;stroke-linecap:butt;stroke-linejoin:miter;stroke-miterlimit:10;stroke-dasharray:none;stroke-opacity:1"
       transform="matrix(1.3333333,0,0,-1.3333333,742.25067,46.302667)" />
    <path
       id="path43"
       d="m 4.4774141,-1.3012578 c 0,-0.082031 -0.035156,-0.1171875 -0.140625,-0.1171875 -0.070312,0 -0.1289063,0.058594 -0.1523438,0.1875 -0.1757812,0.70312499 -0.3984375,1.06640624 -0.6328125,1.06640624 -0.1523437,0 -0.234375,-0.12890625 -0.234375,-0.375 0,-0.1171875 0.035156,-0.328125 0.1171875,-0.64453124 l 0.5039063,-2.0273438 c 0.046875,-0.1757812 0.070312,-0.2695312 0.070312,-0.3164062 0,-0.1757813 -0.1054688,-0.2695313 -0.3046875,-0.2695313 -0.1875,0 -0.3046875,0.1054688 -0.375,0.3164063 -0.1875,-0.3398438 -0.4570313,-0.4921875 -0.796875,-0.4921875 -0.5859375,0 -1.1015625,0.2929687 -1.54687504,0.890625 -0.421875,0.5507812 -0.62109375,1.125 -0.62109375,1.734375 0,0.78515624 0.45703125,1.44140624 1.20703129,1.44140624 0.3867187,0 0.7734375,-0.19921875 1.125,-0.62109375 0.1054687,0.3515625 0.4101562,0.62109375 0.8320312,0.62109375 0.6210938,0 0.8085938,-0.7265625 0.9492193,-1.39453124 z m -1.40625,-2.0625 c 0.082031,0.1875 0.1289062,0.3164062 0.1289062,0.3984375 0,0.035156 -0.011719,0.070312 -0.023437,0.140625 l -0.4453125,1.7226562 c -0.023437,0.10546879 -0.082031,0.21093754 -0.1640625,0.31640629 -0.3398437,0.421875 -0.65625,0.62109375 -0.9726562,0.62109375 -0.3515625,0 -0.5273438,-0.26953125 -0.5273438,-0.796875 0,-0.22265624 0.046875,-0.53906254 0.1523438,-0.97265624 0.1992187,-0.7617188 0.46875,-1.2773438 0.796875,-1.5585938 0.1757812,-0.1523437 0.3515625,-0.2226562 0.5273437,-0.2226562 0.234375,0 0.421875,0.1171875 0.5273433,0.3515625 z m 0,0"
       style="fill:#d33682;fill-opacity:1;fill-rule:nonzero;stroke:none"
       aria-label="𝑎"
       transform="matrix(1.3333333,0,0,1.3333333,710.72933,105.58267)" />
    <path
       id="path44"
       d="M 0,-6.37616 -21.26009,-36.58354"
       style="fill:none;stroke:#586e75;stroke-width:0.79701;stroke-linecap:butt;stroke-linejoin:miter;stroke-miterlimit:10;stroke-dasharray:none;stroke-opacity:1"
       transform="matrix(1.3333333,0,0,-1.3333333,742.25067,46.302667)" />
    <path
       id="path45"
       d="m 3.8658125,-2.3895781 c 0,-0.84375 -0.1523437,-1.5 -0.4453125,-1.9335938 -0.234375,-0.375 -0.7148437,-0.65625 -1.2890625,-0.65625 -0.2460937,0 -0.4570312,0.035156 -0.6445312,0.1171875 -0.8320313,0.3515625 -1.10156255,1.3125 -1.10156255,2.4726563 0,0.2578125 0.0234375,0.4921875 0.0351563,0.7265625 0.12890625,0.98437498 0.58593755,1.81640623 1.71093755,1.81640623 0.234375,0 0.4570313,-0.0351563 0.6445313,-0.1171875 C 3.5962813,-0.30364062 3.8658125,-1.2411406 3.8658125,-2.3895781 Z M 3.0103438,-4.0536406 c 0.082031,0.2695312 0.1289062,0.796875 0.1289062,1.5703125 0,0.7265625 -0.023437,1.2421875 -0.09375,1.55859373 -0.09375,0.43359375 -0.4101562,0.80859375 -0.9140625,0.80859375 -0.1875,0 -0.375,-0.0585938 -0.5507812,-0.1875 -0.234375,-0.17578125 -0.375,-0.515625 -0.4335938,-1.03124998 -0.023437,-0.1757813 -0.035156,-0.5507813 -0.035156,-1.1484375 0,-0.7382813 0.046875,-1.2304688 0.1171875,-1.5 0.1289062,-0.4804688 0.421875,-0.7265625 0.9023437,-0.7265625 0.4453125,0 0.7734375,0.2929687 0.8789061,0.65625 z m 0,0"
       style="fill:#d33682;fill-opacity:1;fill-rule:nonzero;stroke:none"
       aria-label="0"
       transform="matrix(1.3333333,0,0,1.3333333,717.18933,78.162667)" />
    <path
       id="path46"
       d="m 27.2378,-42.52022 c 0,3.30142 -2.67626,5.97766 -5.97767,5.97766 -3.30142,0 -5.97766,-2.67624 -5.97766,-5.97766 0,-3.3014 2.67624,-5.97766 5.97766,-5.97766 3.30141,0 5.97767,2.67626 5.97767,5.97766 z"
       style="fill:none;stroke:#586e75;stroke-width:0.79701;stroke-linecap:butt;stroke-linejoin:miter;stroke-miterlimit:10;stroke-dasharray:none;stroke-opacity:1"
       transform="matrix(1.3333333,0,0,-1.3333333,742.25067,46.302667)" />
    <path
       id="path47"
       d="M 0,-6.37616 21.26013,-36.14404"
       style="fill:none;stroke:#586e75;stroke-width:0.79701;stroke-linecap:butt;stroke-linejoin:miter;stroke-miterlimit:10;stroke-dasharray:none;stroke-opacity:1"
       transform="matrix(1.3333333,0,0,-1.3333333,742.25067,46.302667)" />
    <path
       id="path48"
       d="M -5.49312,-91.71263 H 5.49322 v 13.34438 H -5.49312 Z"
       style="fill:none;stroke:#586e75;stroke-width:0.79701;stroke-linecap:butt;stroke-linejoin:miter;stroke-miterlimit:10;stroke-dasharray:none;stroke-opacity:1"
       transform="matrix(1.3333333,0,0,-1.3333333,742.25067,46.302667)" />
    <path
       id="path49"
       d="m 2.5315625,-4.0070156 c -0.328125,0 -0.6445312,0.1523437 -0.9609375,0.4570312 l 0.6210938,-2.5546875 c -0.023437,-0.082031 -0.046875,-0.140625 -0.1523438,-0.140625 -0.3046875,0 -0.9609375,0.082031 -1.078125,0.09375 -0.12890625,0.011719 -0.19921875,0.082031 -0.19921875,0.2109375 0,0.09375 0.0703125,0.140625 0.24609375,0.140625 0.1757813,0 0.4101563,-0.011719 0.4101563,0.1171875 0,0.035156 -0.046875,0.2109375 -0.1289063,0.5390625 l -0.7265625,2.90625 c -0.09375,0.375 -0.140625,0.6796875 -0.140625,0.9023438 0,0.77343748 0.41015625,1.42968748 1.1484375,1.42968748 0.5859375,0 1.1015625,-0.29296875 1.546875,-0.890625 0.4101563,-0.56249998 0.6210938,-1.14843748 0.6210938,-1.74609378 0,-0.7851562 -0.4570313,-1.4648437 -1.2070313,-1.4648437 z m -0.023437,0.2695312 c 0.3515625,0 0.5273438,0.2695313 0.5273438,0.8085938 0,0.234375 -0.058594,0.5625 -0.1640625,0.9726562 -0.1992188,0.7617188 -0.4570313,1.27734378 -0.7734375,1.55859378 -0.1757813,0.15234375 -0.3515625,0.22265625 -0.5273438,0.22265625 -0.3632812,0 -0.5390625,-0.28125 -0.5390625,-0.85546873 0,-0.1992188 0.035156,-0.5039063 0.1289063,-0.890625 L 1.3596875,-2.7296719 C 1.383125,-2.8702969 1.43,-2.9640469 1.4885938,-3.0460781 1.8401563,-3.5031094 2.18,-3.7374844 2.5081255,-3.7374844 Z m 0,0"
       style="fill:#d33682;fill-opacity:1;fill-rule:nonzero;stroke:none"
       aria-label="𝑏"
       transform="matrix(1.3333333,0,0,1.3333333,739.59333,163.788)" />
    <path
       id="path50"
       d="M 21.26013,-48.89638 3e-5,-77.96974"
       style="fill:none;stroke:#586e75;stroke-width:0.79701;stroke-linecap:butt;stroke-linejoin:miter;stroke-miterlimit:10;stroke-dasharray:none;stroke-opacity:1"
       transform="matrix(1.3333333,0,0,-1.3333333,742.25067,46.302667)" />
    <path
       id="path51"
       d="m 3.8665547,-2.3894531 c 0,-0.84375 -0.1523438,-1.5 -0.4453125,-1.9335938 -0.234375,-0.375 -0.7148438,-0.65625 -1.2890625,-0.65625 -0.2460938,0 -0.4570313,0.035156 -0.6445313,0.1171875 -0.83203121,0.3515625 -1.10156246,1.3125 -1.10156246,2.4726563 0,0.2578125 0.0234375,0.4921875 0.0351563,0.7265625 0.12890625,0.98437498 0.58593746,1.81640623 1.71093746,1.81640623 0.234375,0 0.4570312,-0.0351562 0.6445312,-0.1171875 C 3.5970234,-0.30351562 3.8665547,-1.2410156 3.8665547,-2.3894531 Z M 3.0110859,-4.0535156 c 0.082031,0.2695312 0.1289063,0.796875 0.1289063,1.5703125 0,0.7265625 -0.023437,1.2421875 -0.09375,1.55859373 -0.09375,0.43359375 -0.4101563,0.80859375 -0.9140625,0.80859375 -0.1875,0 -0.375,-0.0585938 -0.5507813,-0.1875 -0.234375,-0.17578125 -0.375,-0.515625 -0.4335937,-1.03124998 -0.023437,-0.1757813 -0.035156,-0.5507813 -0.035156,-1.1484375 0,-0.7382813 0.046875,-1.2304688 0.1171875,-1.5 0.1289063,-0.4804688 0.421875,-0.7265625 0.9023438,-0.7265625 0.4453125,0 0.7734375,0.2929687 0.8789059,0.65625 z m 0,0"
       style="fill:#d33682;fill-opacity:1;fill-rule:nonzero;stroke:none"
       aria-label="0"
       transform="matrix(1.3333333,0,0,1.3333333,745.536,134.1)" />
    <path
       id="path52"
       d="m 48.49792,-85.04044 c 0,3.30141 -2.67625,5.97767 -5.97766,5.97767 -3.30142,0 -5.97766,-2.67626 -5.97766,-5.97767 0,-3.30142 2.67624,-5.97766 5.97766,-5.97766 3.30141,0 5.97766,2.67624 5.97766,5.97766 z"
       style="fill:none;stroke:#586e75;stroke-width:0.79701;stroke-linecap:butt;stroke-linejoin:miter;stroke-miterlimit:10;stroke-dasharray:none;stroke-opacity:1"
       transform="matrix(1.3333333,0,0,-1.3333333,742.25067,46.302667)" />
    <path
       id="path53"
       d="m 21.26013,-48.89638 21.26013,-29.7679"
       style="fill:none;stroke:#586e75;stroke-width:0.79701;stroke-linecap:butt;stroke-linejoin:miter;stroke-miterlimit:10;stroke-dasharray:none;stroke-opacity:1"
       transform="matrix(1.3333333,0,0,-1.3333333,742.25067,46.302667)" />
    <path
       id="path54"
       d="m 15.6995,-133.09883 h 11.12137 v 11.07634 H 15.6995 Z"
       style="fill:none;stroke:#586e75;stroke-width:0.79701;stroke-linecap:butt;stroke-linejoin:miter;stroke-miterlimit:10;stroke-dasharray:none;stroke-opacity:1"
       transform="matrix(1.3333333,0,0,-1.3333333,742.25067,46.302667)" />
    <path
       id="path55"
       d="m 2.9518672,-2.930125 c 0,0.234375 0.1171875,0.3515625 0.3632812,0.3515625 0.3164063,0 0.5273438,-0.28125 0.5273438,-0.609375 0,-0.5039062 -0.5273438,-0.7851562 -1.0664063,-0.7851562 -0.6210937,0 -1.1953125,0.2695312 -1.6757812,0.796875 -0.49218751,0.5273437 -0.73828126,1.1132812 -0.73828126,1.7460937 0,0.87890625 0.5859375,1.5234375 1.47656246,1.5234375 0.46875,0 0.890625,-0.1171875 1.265625,-0.33984375 0.3046875,-0.1875 0.5273438,-0.375 0.6796875,-0.5625 0.058594,-0.0820313 0.082031,-0.140625 0.082031,-0.17578125 0,-0.09375 -0.046875,-0.1523437 -0.140625,-0.1523437 -0.046875,0 -0.09375,0.035156 -0.140625,0.1054687 C 3.2799922,-0.63325 2.9167109,-0.3754375 2.4948359,-0.26996875 2.2135859,-0.19965625 2.0026484,-0.1645 1.8503047,-0.1645 c -0.515625,0 -0.7617188,-0.31640625 -0.7617188,-0.9375 0,-0.5507812 0.2578125,-1.359375 0.4804688,-1.7460937 0.2109375,-0.3984375 0.6679687,-0.8671875 1.2070312,-0.8671875 0.3398438,0 0.5742188,0.09375 0.6914063,0.28125 -0.2695313,0.035156 -0.515625,0.2109375 -0.515625,0.5039062 z m 0,0"
       style="fill:#d33682;fill-opacity:1;fill-rule:nonzero;stroke:none"
       aria-label="𝑐"
       transform="matrix(1.3333333,0,0,1.3333333,767.84933,218.96933)" />
    <path
       id="path56"
       d="M 42.52026,-91.4166 21.26018,-121.62398"
       style="fill:none;stroke:#586e75;stroke-width:0.79701;stroke-linecap:butt;stroke-linejoin:miter;stroke-miterlimit:10;stroke-dasharray:none;stroke-opacity:1"
       transform="matrix(1.3333333,0,0,-1.3333333,742.25067,46.302667)" />
    <path
       id="path57"
       d="m 3.8672969,-2.3895391 c 0,-0.84375 -0.1523438,-1.5 -0.4453125,-1.9335937 -0.234375,-0.375 -0.7148438,-0.65625 -1.2890625,-0.65625 -0.2460938,0 -0.4570313,0.035156 -0.6445313,0.1171875 -0.83203123,0.3515625 -1.10156248,1.3125 -1.10156248,2.4726562 0,0.2578125 0.0234375,0.4921875 0.0351563,0.7265625 0.12890625,0.98437504 0.58593748,1.81640629 1.71093758,1.81640629 0.234375,0 0.4570312,-0.0351563 0.6445312,-0.1171875 C 3.5977656,-0.30360156 3.8672969,-1.2411016 3.8672969,-2.3895391 Z M 3.0118281,-4.0536016 c 0.082031,0.2695313 0.1289063,0.796875 0.1289063,1.5703125 0,0.7265625 -0.023437,1.2421875 -0.09375,1.55859379 -0.09375,0.43359375 -0.4101563,0.80859375 -0.9140625,0.80859375 -0.1875,0 -0.375,-0.0585937 -0.5507813,-0.1875 -0.234375,-0.17578125 -0.375,-0.515625 -0.4335937,-1.03125004 -0.023437,-0.1757812 -0.035156,-0.5507812 -0.035156,-1.1484375 0,-0.7382812 0.046875,-1.2304687 0.1171875,-1.5 0.1289063,-0.4804687 0.421875,-0.7265625 0.9023438,-0.7265625 0.4453125,0 0.7734375,0.2929688 0.8789059,0.65625 z m 0,0"
       style="fill:#d33682;fill-opacity:1;fill-rule:nonzero;stroke:none"
       aria-label="0"
       transform="matrix(1.3333333,0,0,1.3333333,773.88267,191.54933)" />
    <path
       id="path58"
       d="m 57.83272,-134.23285 h 11.89536 v 13.34438 H 57.83272 Z"
       style="fill:none;stroke:#586e75;stroke-width:0.79701;stroke-linecap:butt;stroke-linejoin:miter;stroke-miterlimit:10;stroke-dasharray:none;stroke-opacity:1"
       transform="matrix(1.3333333,0,0,-1.3333333,742.25067,46.302667)" />
    <path
       id="path59"
       d="m 3.8559766,-5.6842422 -0.5273438,2.1796875 c -0.1875,-0.328125 -0.4453125,-0.5039062 -0.796875,-0.5039062 -0.5859375,0 -1.1015625,0.3046875 -1.54687499,0.9023437 -0.421875,0.5625 -0.62109375,1.1484375 -0.62109375,1.7460938 0,0.79687496 0.45703125,1.45312496 1.20703124,1.45312496 0.3867188,0 0.7734375,-0.19921875 1.125,-0.62109375 0.1054688,0.33984375 0.4101563,0.62109375 0.8320313,0.62109375 0.6210937,0 0.8203125,-0.73828125 0.9492187,-1.39453126 0,-0.082031 -0.035156,-0.1289062 -0.1289062,-0.1289062 -0.082031,0 -0.140625,0.058594 -0.1640625,0.1875 -0.1757813,0.71484371 -0.3984375,1.06640621 -0.6328125,1.06640621 -0.1523438,0 -0.234375,-0.1171875 -0.234375,-0.36328125 0,-0.140625 0.011719,-0.28125 0.046875,-0.421875 L 4.6411328,-6.1061172 v -0.046875 c -0.023437,-0.058594 -0.082031,-0.09375 -0.1523437,-0.09375 -0.1992188,0 -0.5859375,0.035156 -1.125,0.09375 -0.09375,0.011719 -0.1523438,0.082031 -0.1523438,0.2109375 0,0.09375 0.082031,0.140625 0.2460938,0.140625 0.1757812,0 0.3984375,-0.011719 0.3984375,0.1171875 z m -0.7851563,2.296875 c 0.09375,0.1875 0.1289063,0.3164063 0.1289063,0.3984375 0,0.035156 -0.011719,0.082031 -0.023437,0.140625 l -0.4453125,1.7460938 c -0.023437,0.10546871 -0.082031,0.21093746 -0.1640625,0.31640621 -0.3398438,0.41015625 -0.65625,0.609375 -0.9726563,0.609375 -0.3515625,0 -0.5273437,-0.26953125 -0.5273437,-0.796875 0,-0.21093751 0.046875,-0.53906251 0.1523437,-0.97265621 0.1992188,-0.7617188 0.46875,-1.2890625 0.796875,-1.5703125 0.1757813,-0.1523438 0.3515625,-0.2226563 0.5273438,-0.2226563 0.234375,0 0.421875,0.1171875 0.5273432,0.3515625 z m 0,0"
       style="fill:#d33682;fill-opacity:1;fill-rule:nonzero;stroke:none"
       aria-label="𝑑"
       transform="matrix(1.3333333,0,0,1.3333333,824.02667,220.48133)" />
    <path
       id="path60"
       d="M 42.52026,-91.4166 63.7804,-120.48996"
       style="fill:none;stroke:#586e75;stroke-width:0.79701;stroke-linecap:butt;stroke-linejoin:miter;stroke-miterlimit:10;stroke-dasharray:none;stroke-opacity:1"
       transform="matrix(1.3333333,0,0,-1.3333333,742.25067,46.302667)" />
    <path
       id="path61"
       d="m 2.2747422,-4.9795703 c -0.328125,0.3164062 -0.8085938,0.46875 -1.45312501,0.46875 v 0.3398437 c 0.44531251,0 0.79687501,-0.070312 1.06640621,-0.1992187 v 3.73828124 c 0,0.09375 -0.011719,0.15234375 -0.035156,0.1875 -0.035156,0.0820313 -0.2578125,0.1171875 -0.6796875,0.1171875 H 0.86849219 V 8.984375e-4 L 2.2044297,-0.03425781 3.5520859,8.984375e-4 V -0.32722656 H 3.2356797 c -0.4101563,0 -0.6328125,-0.0351563 -0.6796875,-0.1171875 -0.011719,-0.0351563 -0.023437,-0.09375 -0.023437,-0.1875 V -4.7334766 c 0,-0.2109375 -0.023437,-0.2460937 -0.257813,-0.2460937 z m 0,0"
       style="fill:#d33682;fill-opacity:1;fill-rule:nonzero;stroke:none"
       aria-label="1"
       transform="matrix(1.3333333,0,0,1.3333333,818.31467,190.89333)" />
    <path
       id="path62"
       d="m 2.274,-4.9794219 c -0.328125,0.3164063 -0.8085937,0.46875 -1.453125,0.46875 v 0.3398438 c 0.4453125,0 0.796875,-0.070312 1.0664063,-0.1992188 v 3.73828128 c 0,0.09375 -0.011719,0.15234375 -0.035156,0.1875 -0.035156,0.0820313 -0.2578125,0.1171875 -0.6796875,0.1171875 H 0.86775 v 0.328125 l 1.3359375,-0.03515625 1.3476563,0.03515625 v -0.328125 H 3.2349375 c -0.4101562,0 -0.6328125,-0.0351563 -0.6796875,-0.1171875 -0.011719,-0.0351563 -0.023437,-0.09375 -0.023437,-0.1875 V -4.7333281 c 0,-0.2109375 -0.023437,-0.2460938 -0.257813,-0.2460938 z m 0,0"
       style="fill:#d33682;fill-opacity:1;fill-rule:nonzero;stroke:none"
       aria-label="1"
       transform="matrix(1.3333333,0,0,1.3333333,789.968,134.66267)" />
    <path
       id="path63"
       d="m 2.2732578,-4.9809062 c -0.328125,0.3164062 -0.8085937,0.46875 -1.45312499,0.46875 v 0.3398437 c 0.44531249,0 0.79687499,-0.070312 1.06640629,-0.1992187 V -0.63325 c 0,0.09375 -0.011719,0.15234375 -0.035156,0.1875 -0.035156,0.0820313 -0.2578125,0.1171875 -0.6796875,0.1171875 H 0.86700781 v 0.328125 L 2.2029453,-0.03559375 3.5506016,-4.375e-4 v -0.328125 H 3.2341953 c -0.4101562,0 -0.6328125,-0.0351563 -0.6796875,-0.1171875 -0.011719,-0.0351563 -0.023437,-0.09375 -0.023437,-0.1875 v -4.1015625 c 0,-0.2109375 -0.023437,-0.2460937 -0.257813,-0.2460937 z m 0,0"
       style="fill:#d33682;fill-opacity:1;fill-rule:nonzero;stroke:none"
       aria-label="1"
       transform="matrix(1.3333333,0,0,1.3333333,761.62133,77.969333)" />
  </g>
</svg>
