<?xml version="1.0" encoding="UTF-8" standalone="no"?>
<!-- Created with Inkscape (http://www.inkscape.org/) -->

<svg
   version="1.1"
   id="svg1"
   width="276.51437"
   height="132.72641"
   viewBox="0 0 276.51437 132.72641"
   xmlns="http://www.w3.org/2000/svg"
   xmlns:svg="http://www.w3.org/2000/svg">
  <defs
     id="defs1" />
  <g
     id="g1"
     transform="translate(-425.15281,-37.801113)">
    <path
       id="path1"
       d="M 5.97766,0 C 5.97766,3.3014 3.3014,5.97766 0,5.97766 -3.3014,5.97766 -5.97766,3.3014 -5.97766,0 c 0,-3.3014 2.67626,-5.97766 5.97766,-5.97766 3.3014,0 5.97766,2.67626 5.97766,5.97766 z"
       style="fill:none;stroke:#586e75;stroke-width:0.79701;stroke-linecap:butt;stroke-linejoin:miter;stroke-miterlimit:10;stroke-dasharray:none;stroke-opacity:1"
       transform="matrix(1.3333333,0,0,-1.3333333,491.276,46.302667)" />
    <path
       id="path2"
       d="m -19.53448,-42.52022 c 0,3.30142 -2.67626,5.97766 -5.97767,5.97766 -3.30142,0 -5.97765,-2.67624 -5.97765,-5.97766 0,-3.3014 2.67623,-5.97766 5.97765,-5.97766 3.30141,0 5.97767,2.67626 5.97767,5.97766 z"
       style="fill:none;stroke:#586e75;stroke-width:0.79701;stroke-linecap:butt;stroke-linejoin:miter;stroke-miterlimit:10;stroke-dasharray:none;stroke-opacity:1"
       transform="matrix(1.3333333,0,0,-1.3333333,491.276,46.302667)" />
    <path
       id="path3"
       d="M 0,-6.37616 -25.51215,-36.14404"
       style="fill:none;stroke:#586e75;stroke-width:0.79701;stroke-linecap:butt;stroke-linejoin:miter;stroke-miterlimit:10;stroke-dasharray:none;stroke-opacity:1"
       transform="matrix(1.3333333,0,0,-1.3333333,491.276,46.302667)" />
    <path
       id="path4"
       d="m -49.1939,-91.25812 h 13.3474 v 12.43536 h -13.3474 z"
       style="fill:none;stroke:#586e75;stroke-width:0.79701;stroke-linecap:butt;stroke-linejoin:miter;stroke-miterlimit:10;stroke-dasharray:none;stroke-opacity:1"
       transform="matrix(1.3333333,0,0,-1.3333333,491.276,46.302667)" />
    <path
       id="path5"
       d="m 5.9772344,-1.7231172 c 0,-0.1171875 -0.058594,-0.1757812 -0.1875,-0.1757812 -0.1054688,0 -0.1757813,0.082031 -0.2109375,0.2578125 -0.234375,0.94921871 -0.5273438,1.42968746 -0.8554688,1.42968746 -0.1992187,0 -0.3046875,-0.17578125 -0.3046875,-0.50390625 0,-0.1640625 0.046875,-0.44531251 0.1523438,-0.86718751 l 0.6914062,-2.7070312 c 0.058594,-0.2226563 0.082031,-0.3515625 0.082031,-0.4101563 0,-0.2460937 -0.140625,-0.3632812 -0.3984375,-0.3632812 -0.2578125,0 -0.421875,0.140625 -0.5039063,0.421875 -0.2578125,-0.4453125 -0.609375,-0.6679688 -1.0664062,-0.6679688 -0.7851563,0 -1.4648438,0.3984375 -2.0625,1.1953125 -0.55078127,0.7382813 -0.83203127,1.5117188 -0.83203127,2.3085938 0,1.04296871 0.60937497,1.93359371 1.61718747,1.93359371 0.515625,0 1.0195313,-0.26953125 1.5,-0.8203125 0.1289063,0.45703125 0.5390625,0.8203125 1.1015625,0.8203125 0.8320313,0 1.0898438,-0.97265625 1.2773441,-1.85156251 z m -1.8867188,-2.765625 c 0.1054688,0.2578125 0.1757813,0.421875 0.1757813,0.5273438 0,0.046875 -0.023437,0.1054687 -0.035156,0.1875 l -0.5859375,2.3085937 c -0.035156,0.1289063 -0.1171875,0.28125 -0.2226562,0.421875 -0.4453125,0.55078126 -0.8789063,0.83203126 -1.3007813,0.83203126 -0.46875,0 -0.703125,-0.36328125 -0.703125,-1.07812496 0,-0.28125 0.070312,-0.7148438 0.2109375,-1.2890625 0.2578125,-1.0195313 0.609375,-1.7109375 1.0546875,-2.0742188 0.2460938,-0.2109375 0.46875,-0.3046875 0.703125,-0.3046875 0.3164063,0 0.5625,0.1523438 0.7031247,0.46875 z m 0,0"
       style="fill:#d33682;fill-opacity:1;fill-rule:nonzero;stroke:none"
       aria-label="𝑎"
       transform="matrix(1.3333333,0,0,1.3333333,430.35067,163.13733)" />
    <path
       id="path6"
       d="M -25.51215,-48.89638 -42.5202,-78.42424"
       style="fill:none;stroke:#586e75;stroke-width:0.79701;stroke-linecap:butt;stroke-linejoin:miter;stroke-miterlimit:10;stroke-dasharray:none;stroke-opacity:1"
       transform="matrix(1.3333333,0,0,-1.3333333,491.276,46.302667)" />
    <path
       id="path7"
       d="m 2.2372734,0.199375 c 1.2773438,0 1.8984375,-1.03125 1.8984375,-3.0820312 0,-1.3710938 -0.28125,-2.296875 -0.8554687,-2.7421875 -0.3164063,-0.2460938 -0.6679688,-0.3632813 -1.03125,-0.3632813 -1.26562501,0 -1.89843751,1.03125 -1.89843751,3.1054688 0,1.6640625 0.4453125,3.0820312 1.88671871,3.0820312 z m 1.0078125,-4.9101562 c 0.070312,0.3046875 0.09375,0.890625 0.09375,1.7226562 0,0.8320313 -0.035156,1.4414063 -0.1054687,1.8398438 -0.1171875,0.7148437 -0.4453125,1.07812495 -0.9960938,1.07812495 -0.1992187,0 -0.4101562,-0.08203125 -0.5976562,-0.234375 -0.2460938,-0.2109375 -0.3867188,-0.6328125 -0.4570313,-1.27734375 -0.023437,-0.2226562 -0.035156,-0.6914062 -0.035156,-1.40625 0,-0.7851562 0.035156,-1.3359375 0.070312,-1.6289062 0.082031,-0.4921875 0.2460937,-0.8085938 0.5039062,-0.9492188 0.1992188,-0.1054687 0.3632813,-0.1523437 0.515625,-0.1523437 0.5859375,0 0.9140625,0.46875 1.0078128,1.0078125 z m 0,0"
       style="fill:#d33682;fill-opacity:1;fill-rule:nonzero;stroke:none"
       aria-label="0"
       transform="matrix(1.3333333,0,0,1.3333333,434.724,135.04667)" />
    <path
       id="path8"
       d="m -14.66179,-92.77014 h 12.31535 v 15.4594 h -12.31535 z"
       style="fill:none;stroke:#586e75;stroke-width:0.79701;stroke-linecap:butt;stroke-linejoin:miter;stroke-miterlimit:10;stroke-dasharray:none;stroke-opacity:1"
       transform="matrix(1.3333333,0,0,-1.3333333,491.276,46.302667)" />
    <path
       id="path9"
       d="m 3.3758984,-5.3444922 c -0.4335937,0 -0.8671875,0.2109375 -1.2890625,0.6210938 l 0.8320313,-3.421875 c -0.023437,-0.1171875 -0.058594,-0.1875 -0.2109375,-0.1875 -0.3867188,0 -1.265625,0.1171875 -1.4179688,0.1289062 -0.1875,0.023437 -0.28125,0.1054688 -0.28125,0.28125 0,0.1171875 0.1054688,0.1875 0.3398438,0.1875 0.2226562,0 0.5390625,-0.023437 0.5390625,0.1523438 0,0.046875 -0.058594,0.28125 -0.1757813,0.7265625 l -0.94921871,3.8671875 c -0.140625,0.5039062 -0.19921875,0.9140625 -0.19921875,1.2070312 0,1.04296876 0.55078126,1.91015626 1.53515626,1.91015626 0.7851562,0 1.4648437,-0.3984375 2.0625,-1.19531246 0.5390625,-0.75 0.8203125,-1.5234375 0.8203125,-2.3320313 0,-1.0429687 -0.609375,-1.9453125 -1.6054688,-1.9453125 z m -0.023437,0.3632813 c 0.46875,0 0.6914063,0.3632812 0.6914063,1.0664062 0,0.328125 -0.070312,0.7617188 -0.2109375,1.3007813 -0.2695313,1.0195312 -0.6210938,1.71093746 -1.03125,2.08593746 -0.2460938,0.19921875 -0.46875,0.3046875 -0.703125,0.3046875 -0.4921875,0 -0.7265625,-0.38671875 -0.7265625,-1.16015626 0,-0.2578125 0.058594,-0.65625 0.1757812,-1.1835937 l 0.2695313,-1.078125 c 0.035156,-0.1875 0.09375,-0.3164063 0.1640625,-0.4101563 0.46875,-0.609375 0.9257812,-0.9257812 1.3710937,-0.9257812 z m 0,0"
       style="fill:#d33682;fill-opacity:1;fill-rule:nonzero;stroke:none"
       aria-label="𝑏"
       transform="matrix(1.3333333,0,0,1.3333333,476.39333,165.15333)" />
    <path
       id="path10"
       d="M -25.51215,-48.89638 -8.5041,-76.91223"
       style="fill:none;stroke:#586e75;stroke-width:0.79701;stroke-linecap:butt;stroke-linejoin:miter;stroke-miterlimit:10;stroke-dasharray:none;stroke-opacity:1"
       transform="matrix(1.3333333,0,0,-1.3333333,491.276,46.302667)" />
    <path
       id="path11"
       d="m 2.4264375,-5.987375 c -0.375,0.375 -0.9140625,0.5625 -1.62890625,0.5625 v 0.3515625 c 0.46875005,0 0.85546875,-0.070312 1.16015625,-0.2226562 v 4.5585937 c 0,0.1640625 -0.035156,0.26953125 -0.1171875,0.31640625 -0.082031,0.046875 -0.3046875,0.0703125 -0.6679687,0.0703125 H 0.856125 v 0.3515625 c 0.2226563,-0.0234375 0.7148438,-0.0234375 1.453125,-0.0234375 0.75,0 1.2421875,0 1.4648438,0.0234375 v -0.3515625 H 3.4576875 c -0.375,0 -0.5976562,-0.0234375 -0.6679687,-0.0703125 C 2.7194063,-0.46784375 2.6725313,-0.5733125 2.6725313,-0.737375 v -4.9804687 c 0,-0.2226563 -0.011719,-0.2695313 -0.2460938,-0.2695313 z m 0,0"
       style="fill:#d33682;fill-opacity:1;fill-rule:nonzero;stroke:none"
       aria-label="1"
       transform="matrix(1.3333333,0,0,1.3333333,473.796,134.17067)" />
    <path
       id="path12"
       d="m 2.2380156,0.19800781 c 1.2773438,0 1.8984375,-1.03125 1.8984375,-3.08203121 0,-1.3710938 -0.28125,-2.296875 -0.8554687,-2.7421875 -0.3164063,-0.2460938 -0.6679688,-0.3632813 -1.03125,-0.3632813 -1.26562502,0 -1.89843752,1.03125 -1.89843752,3.1054688 0,1.6640625 0.4453125,3.08203121 1.88671872,3.08203121 z M 3.2458281,-4.7121484 c 0.070312,0.3046875 0.09375,0.890625 0.09375,1.7226562 0,0.8320313 -0.035156,1.4414063 -0.1054687,1.8398438 -0.1171875,0.71484371 -0.4453125,1.07812496 -0.9960938,1.07812496 -0.1992187,0 -0.4101562,-0.08203125 -0.5976562,-0.234375 -0.2460938,-0.2109375 -0.3867188,-0.6328125 -0.4570313,-1.27734376 -0.023437,-0.2226562 -0.035156,-0.6914062 -0.035156,-1.40625 0,-0.7851562 0.035156,-1.3359375 0.070312,-1.6289062 0.082031,-0.4921875 0.2460937,-0.8085938 0.5039062,-0.9492188 0.1992188,-0.1054687 0.3632813,-0.1523437 0.515625,-0.1523437 0.5859375,0 0.9140625,0.46875 1.0078128,1.0078125 z m 0,0"
       style="fill:#d33682;fill-opacity:1;fill-rule:nonzero;stroke:none"
       aria-label="0"
       transform="matrix(1.3333333,0,0,1.3333333,463.07067,78.513333)" />
    <path
       id="path13"
       d="m 31.48985,-42.52022 c 0,3.30142 -2.67624,5.97766 -5.97766,5.97766 -3.30141,0 -5.97766,-2.67624 -5.97766,-5.97766 0,-3.3014 2.67625,-5.97766 5.97766,-5.97766 3.30142,0 5.97766,2.67626 5.97766,5.97766 z"
       style="fill:none;stroke:#586e75;stroke-width:0.79701;stroke-linecap:butt;stroke-linejoin:miter;stroke-miterlimit:10;stroke-dasharray:none;stroke-opacity:1"
       transform="matrix(1.3333333,0,0,-1.3333333,491.276,46.302667)" />
    <path
       id="path14"
       d="M 0,-6.37616 25.51219,-36.14404"
       style="fill:none;stroke:#586e75;stroke-width:0.79701;stroke-linecap:butt;stroke-linejoin:miter;stroke-miterlimit:10;stroke-dasharray:none;stroke-opacity:1"
       transform="matrix(1.3333333,0,0,-1.3333333,491.276,46.302667)" />
    <path
       id="path15"
       d="m 19.2645,-91.25812 h 12.49538 v 12.43536 H 19.2645 Z"
       style="fill:none;stroke:#586e75;stroke-width:0.79701;stroke-linecap:butt;stroke-linejoin:miter;stroke-miterlimit:10;stroke-dasharray:none;stroke-opacity:1"
       transform="matrix(1.3333333,0,0,-1.3333333,491.276,46.302667)" />
    <path
       id="path16"
       d="m 3.9381797,-3.9028047 c 0,0.3046875 0.1523437,0.4570313 0.4804687,0.4570313 0.4335938,0 0.703125,-0.375 0.703125,-0.796875 0,-0.6796875 -0.703125,-1.0664063 -1.4296875,-1.0664063 -0.8203125,0 -1.5820312,0.3632813 -2.2265625,1.078125 -0.64453121,0.703125 -0.97265621,1.4882813 -0.97265621,2.3203125 0,1.18359376 0.78515621,2.03906251 1.95703121,2.03906251 0.6328125,0 1.1953125,-0.15234375 1.6875,-0.45703125 0.4101563,-0.24609375 0.7148438,-0.50390625 0.9023438,-0.74999996 0.082031,-0.1054688 0.1171875,-0.1992188 0.1171875,-0.234375 0,-0.1289063 -0.058594,-0.1992188 -0.1875,-0.1992188 -0.058594,0 -0.1171875,0.046875 -0.1875,0.140625 -0.3984375,0.52734376 -0.890625,0.86718751 -1.453125,1.00781251 -0.375,0.09375 -0.65625,0.15234375 -0.8554688,0.15234375 -0.6796875,0 -1.0195312,-0.421875 -1.0195312,-1.25390626 0,-0.7382812 0.3515625,-1.828125 0.6328125,-2.34375 0.2929687,-0.5273437 0.9023437,-1.1484375 1.6054687,-1.1484375 0.4570313,0 0.7734375,0.1289063 0.9375,0.3867188 -0.3632812,0.035156 -0.6914062,0.2695312 -0.6914062,0.6679687 z m 0,0"
       style="fill:#d33682;fill-opacity:1;fill-rule:nonzero;stroke:none"
       aria-label="𝑐"
       transform="matrix(1.3333333,0,0,1.3333333,521.628,163.13733)" />
    <path
       id="path17"
       d="M 25.51219,-48.89638 V -78.42424"
       style="fill:none;stroke:#586e75;stroke-width:0.79701;stroke-linecap:butt;stroke-linejoin:miter;stroke-miterlimit:10;stroke-dasharray:none;stroke-opacity:1"
       transform="matrix(1.3333333,0,0,-1.3333333,491.276,46.302667)" />
    <path
       id="path18"
       d="m 2.2375938,0.199375 c 1.2773437,0 1.8984375,-1.03125 1.8984375,-3.0820312 0,-1.3710938 -0.28125,-2.296875 -0.8554688,-2.7421875 -0.3164062,-0.2460938 -0.6679687,-0.3632813 -1.03125,-0.3632813 -1.265625,0 -1.8984375,1.03125 -1.8984375,3.1054688 0,1.6640625 0.4453125,3.0820312 1.8867188,3.0820312 z m 1.0078125,-4.9101562 c 0.070312,0.3046875 0.09375,0.890625 0.09375,1.7226562 0,0.8320313 -0.035156,1.4414063 -0.1054688,1.8398438 -0.1171875,0.7148437 -0.4453125,1.07812495 -0.9960937,1.07812495 -0.1992188,0 -0.4101563,-0.08203125 -0.5976563,-0.234375 C 1.3938438,-0.51546875 1.2532188,-0.93734375 1.1829063,-1.581875 1.1594688,-1.8045312 1.14775,-2.2732812 1.14775,-2.988125 c 0,-0.7851562 0.035156,-1.3359375 0.070312,-1.6289062 0.082031,-0.4921875 0.2460938,-0.8085938 0.5039063,-0.9492188 0.1992187,-0.1054687 0.3632812,-0.1523437 0.515625,-0.1523437 0.5859375,0 0.9140625,0.46875 1.007813,1.0078125 z m 0,0"
       style="fill:#d33682;fill-opacity:1;fill-rule:nonzero;stroke:none"
       aria-label="0"
       transform="matrix(1.3333333,0,0,1.3333333,514.09467,135.04667)" />
    <path
       id="path19"
       d="m 2.4251328,-5.9888828 c -0.375,0.375 -0.9140625,0.5625 -1.62890624,0.5625 v 0.3515625 c 0.46875004,0 0.85546874,-0.070312 1.16015624,-0.2226563 v 4.55859379 c 0,0.1640625 -0.035156,0.26953125 -0.1171875,0.31640625 -0.082031,0.046875 -0.3046875,0.0703125 -0.6679687,0.0703125 H 0.85482031 V -6.015625e-4 C 1.0774766,-0.02403906 1.5696641,-0.02403906 2.3079453,-0.02403906 c 0.75,0 1.2421875,0 1.4648438,0.0234374975 V -0.35216406 H 3.4563828 c -0.375,0 -0.5976562,-0.0234375 -0.6679687,-0.0703125 -0.070312,-0.046875 -0.1171875,-0.15234375 -0.1171875,-0.31640625 V -5.7193516 c 0,-0.2226562 -0.011719,-0.2695312 -0.2460938,-0.2695312 z m 0,0"
       style="fill:#d33682;fill-opacity:1;fill-rule:nonzero;stroke:none"
       aria-label="1"
       transform="matrix(1.3333333,0,0,1.3333333,513.48133,78.645333)" />
    <path
       id="path20"
       d="m 20.834562,-3.4911406 c 0.117188,-0.058594 0.175782,-0.1523438 0.175782,-0.2578125 0,-0.1054688 -0.05859,-0.1992188 -0.175782,-0.2578125 -0.925781,-0.234375 -1.863281,-0.7617188 -2.777343,-1.5585938 -0.667969,-0.5859375 -1.195313,-1.2539062 -1.605469,-2.0390625 -0.05859,-0.1289062 -0.164063,-0.1992187 -0.316406,-0.1992187 -0.234375,0 -0.351563,0.1289062 -0.351563,0.3632812 0,0.035156 0.01172,0.082031 0.02344,0.1523438 0.351562,0.65625 0.761718,1.2421875 1.242187,1.7578125 H 1.1939375 c -0.234375,0 -0.3515625,0.1171875 -0.3515625,0.3398437 0,0.2460938 0.1171875,0.3632813 0.3515625,0.3632813 H 17.834562 c 0.574219,0.4453125 1.183594,0.8085937 1.828125,1.078125 -0.644531,0.2695312 -1.253906,0.6328125 -1.828125,1.078125 H 1.1939375 c -0.234375,0 -0.3515625,0.1171875 -0.3515625,0.3632812 0,0.2226563 0.1171875,0.3398438 0.3515625,0.3398438 H 17.049406 c -0.480469,0.515625 -0.890625,1.10156248 -1.242187,1.75781248 -0.01172,0.0703125 -0.02344,0.1171875 -0.02344,0.15234375 0,0.234375 0.117188,0.36328125 0.351563,0.36328125 0.152343,0 0.257812,-0.0703125 0.316406,-0.19921875 0.410156,-0.78515625 0.9375,-1.45312503 1.605469,-2.03906253 0.914062,-0.796875 1.851562,-1.3242187 2.777343,-1.5585937 z m 0,0"
       style="fill:#d33682;fill-opacity:1;fill-rule:nonzero;stroke:none"
       aria-label="⟹"
       transform="matrix(1.3333333,0,0,1.3333333,546.68933,109.16267)" />
    <path
       id="path21"
       d="M 5.97766,0 C 5.97766,3.3014 3.3014,5.97766 0,5.97766 -3.3014,5.97766 -5.97766,3.3014 -5.97766,0 c 0,-3.3014 2.67626,-5.97766 5.97766,-5.97766 3.3014,0 5.97766,2.67626 5.97766,5.97766 z"
       style="fill:none;stroke:#586e75;stroke-width:0.79701;stroke-linecap:butt;stroke-linejoin:miter;stroke-miterlimit:10;stroke-dasharray:none;stroke-opacity:1"
       transform="matrix(1.3333333,0,0,-1.3333333,658.78933,46.302667)" />
    <path
       id="path22"
       d="m -19.53448,-42.52022 c 0,3.30142 -2.67626,5.97766 -5.97767,5.97766 -3.30142,0 -5.97765,-2.67624 -5.97765,-5.97766 0,-3.3014 2.67623,-5.97766 5.97765,-5.97766 3.30141,0 5.97767,2.67626 5.97767,5.97766 z"
       style="fill:none;stroke:#586e75;stroke-width:0.79701;stroke-linecap:butt;stroke-linejoin:miter;stroke-miterlimit:10;stroke-dasharray:none;stroke-opacity:1"
       transform="matrix(1.3333333,0,0,-1.3333333,658.78933,46.302667)" />
    <path
       id="path23"
       d="M 0,-6.37616 -25.51215,-36.14404"
       style="fill:none;stroke:#586e75;stroke-width:0.79701;stroke-linecap:butt;stroke-linejoin:miter;stroke-miterlimit:10;stroke-dasharray:none;stroke-opacity:1"
       transform="matrix(1.3333333,0,0,-1.3333333,658.78933,46.302667)" />
    <path
       id="path24"
       d="m -49.1939,-91.25812 h 13.3474 v 12.43536 h -13.3474 z"
       style="fill:none;stroke:#586e75;stroke-width:0.79701;stroke-linecap:butt;stroke-linejoin:miter;stroke-miterlimit:10;stroke-dasharray:none;stroke-opacity:1"
       transform="matrix(1.3333333,0,0,-1.3333333,658.78933,46.302667)" />
    <path
       id="path25"
       d="m 5.9760234,-1.7231172 c 0,-0.1171875 -0.058594,-0.1757812 -0.1875,-0.1757812 -0.1054687,0 -0.1757812,0.082031 -0.2109375,0.2578125 -0.234375,0.94921871 -0.5273437,1.42968746 -0.8554687,1.42968746 -0.1992188,0 -0.3046875,-0.17578125 -0.3046875,-0.50390625 0,-0.1640625 0.046875,-0.44531251 0.1523437,-0.86718751 l 0.6914063,-2.7070312 c 0.058594,-0.2226563 0.082031,-0.3515625 0.082031,-0.4101563 0,-0.2460937 -0.140625,-0.3632812 -0.3984375,-0.3632812 -0.2578125,0 -0.421875,0.140625 -0.5039062,0.421875 -0.2578125,-0.4453125 -0.609375,-0.6679688 -1.0664063,-0.6679688 -0.7851562,0 -1.4648437,0.3984375 -2.0625,1.1953125 -0.55078121,0.7382813 -0.83203121,1.5117188 -0.83203121,2.3085938 0,1.04296871 0.60937501,1.93359371 1.61718751,1.93359371 0.515625,0 1.0195312,-0.26953125 1.5,-0.8203125 0.1289062,0.45703125 0.5390625,0.8203125 1.1015625,0.8203125 0.8320312,0 1.0898437,-0.97265625 1.2773439,-1.85156251 z m -1.8867187,-2.765625 c 0.1054687,0.2578125 0.1757812,0.421875 0.1757812,0.5273438 0,0.046875 -0.023437,0.1054687 -0.035156,0.1875 l -0.5859375,2.3085937 c -0.035156,0.1289063 -0.1171875,0.28125 -0.2226563,0.421875 -0.4453125,0.55078126 -0.8789062,0.83203126 -1.3007812,0.83203126 -0.46875,0 -0.703125,-0.36328125 -0.703125,-1.07812496 0,-0.28125 0.070312,-0.7148438 0.2109375,-1.2890625 0.2578125,-1.0195313 0.609375,-1.7109375 1.0546875,-2.0742188 0.2460937,-0.2109375 0.46875,-0.3046875 0.703125,-0.3046875 0.3164062,0 0.5625,0.1523438 0.7031248,0.46875 z m 0,0"
       style="fill:#d33682;fill-opacity:1;fill-rule:nonzero;stroke:none"
       aria-label="𝑎"
       transform="matrix(1.3333333,0,0,1.3333333,597.864,163.13733)" />
    <path
       id="path26"
       d="M -25.51215,-48.89638 -42.5202,-78.42424"
       style="fill:none;stroke:#586e75;stroke-width:0.79701;stroke-linecap:butt;stroke-linejoin:miter;stroke-miterlimit:10;stroke-dasharray:none;stroke-opacity:1"
       transform="matrix(1.3333333,0,0,-1.3333333,658.78933,46.302667)" />
    <path
       id="path27"
       d="m 2.2389922,0.199375 c 1.2773437,0 1.8984375,-1.03125 1.8984375,-3.0820312 0,-1.3710938 -0.28125,-2.296875 -0.8554688,-2.7421875 -0.3164062,-0.2460938 -0.6679687,-0.3632813 -1.03125,-0.3632813 -1.26562496,0 -1.89843746,1.03125 -1.89843746,3.1054688 0,1.6640625 0.4453125,3.0820312 1.88671876,3.0820312 z m 1.0078125,-4.9101562 c 0.070312,0.3046875 0.09375,0.890625 0.09375,1.7226562 0,0.8320313 -0.035156,1.4414063 -0.1054688,1.8398438 -0.1171875,0.7148437 -0.4453125,1.07812495 -0.9960937,1.07812495 -0.1992188,0 -0.4101563,-0.08203125 -0.5976563,-0.234375 -0.2460937,-0.2109375 -0.3867187,-0.6328125 -0.4570312,-1.27734375 -0.023437,-0.2226562 -0.035156,-0.6914062 -0.035156,-1.40625 0,-0.7851562 0.035156,-1.3359375 0.070312,-1.6289062 0.082031,-0.4921875 0.2460938,-0.8085938 0.5039063,-0.9492188 0.1992187,-0.1054687 0.3632812,-0.1523437 0.515625,-0.1523437 0.5859375,0 0.9140625,0.46875 1.0078127,1.0078125 z m 0,0"
       style="fill:#d33682;fill-opacity:1;fill-rule:nonzero;stroke:none"
       aria-label="0"
       transform="matrix(1.3333333,0,0,1.3333333,602.23733,135.04667)" />
    <path
       id="path28"
       d="m -14.66179,-92.77014 h 12.31535 v 15.4594 h -12.31535 z"
       style="fill:none;stroke:#586e75;stroke-width:0.79701;stroke-linecap:butt;stroke-linejoin:miter;stroke-miterlimit:10;stroke-dasharray:none;stroke-opacity:1"
       transform="matrix(1.3333333,0,0,-1.3333333,658.78933,46.302667)" />
    <path
       id="path29"
       d="m 3.3746875,-5.3444922 c -0.4335937,0 -0.8671875,0.2109375 -1.2890625,0.6210938 l 0.8320313,-3.421875 c -0.023437,-0.1171875 -0.058594,-0.1875 -0.2109375,-0.1875 -0.3867188,0 -1.265625,0.1171875 -1.4179688,0.1289062 -0.1875,0.023437 -0.28125,0.1054688 -0.28125,0.28125 0,0.1171875 0.1054688,0.1875 0.3398438,0.1875 0.2226562,0 0.5390625,-0.023437 0.5390625,0.1523438 0,0.046875 -0.058594,0.28125 -0.1757813,0.7265625 l -0.94921875,3.8671875 c -0.140625,0.5039062 -0.19921875,0.9140625 -0.19921875,1.2070312 0,1.04296876 0.5507813,1.91015626 1.5351563,1.91015626 0.7851562,0 1.4648437,-0.3984375 2.0625,-1.19531246 0.5390625,-0.75 0.8203125,-1.5234375 0.8203125,-2.3320313 0,-1.0429687 -0.609375,-1.9453125 -1.6054688,-1.9453125 z M 3.35125,-4.9812109 c 0.46875,0 0.6914063,0.3632812 0.6914063,1.0664062 0,0.328125 -0.070312,0.7617188 -0.2109375,1.3007813 -0.2695313,1.0195312 -0.6210938,1.71093746 -1.03125,2.08593746 -0.2460938,0.19921875 -0.46875,0.3046875 -0.703125,0.3046875 -0.4921875,0 -0.7265625,-0.38671875 -0.7265625,-1.16015626 0,-0.2578125 0.058594,-0.65625 0.1757812,-1.1835937 l 0.2695313,-1.078125 c 0.035156,-0.1875 0.09375,-0.3164063 0.1640625,-0.4101563 0.46875,-0.609375 0.9257812,-0.9257812 1.3710937,-0.9257812 z m 0,0"
       style="fill:#d33682;fill-opacity:1;fill-rule:nonzero;stroke:none"
       aria-label="𝑏"
       transform="matrix(1.3333333,0,0,1.3333333,643.90667,165.15333)" />
    <path
       id="path30"
       d="M -25.51215,-48.89638 -8.5041,-76.91223"
       style="fill:none;stroke:#586e75;stroke-width:0.79701;stroke-linecap:butt;stroke-linejoin:miter;stroke-miterlimit:10;stroke-dasharray:none;stroke-opacity:1"
       transform="matrix(1.3333333,0,0,-1.3333333,658.78933,46.302667)" />
    <path
       id="path31"
       d="m 2.4252266,-5.987375 c -0.375,0.375 -0.9140625,0.5625 -1.62890629,0.5625 v 0.3515625 c 0.46874999,0 0.85546879,-0.070312 1.16015629,-0.2226562 v 4.5585937 c 0,0.1640625 -0.035156,0.26953125 -0.1171875,0.31640625 -0.082031,0.046875 -0.3046875,0.0703125 -0.6679688,0.0703125 H 0.85491406 v 0.3515625 c 0.22265624,-0.0234375 0.71484374,-0.0234375 1.45312504,-0.0234375 0.75,0 1.2421875,0 1.4648437,0.0234375 v -0.3515625 H 3.4564766 c -0.375,0 -0.5976563,-0.0234375 -0.6679688,-0.0703125 C 2.7181953,-0.46784375 2.6713203,-0.5733125 2.6713203,-0.737375 v -4.9804687 c 0,-0.2226563 -0.011719,-0.2695313 -0.2460937,-0.2695313 z m 0,0"
       style="fill:#d33682;fill-opacity:1;fill-rule:nonzero;stroke:none"
       aria-label="1"
       transform="matrix(1.3333333,0,0,1.3333333,641.30933,134.17067)" />
    <path
       id="path32"
       d="m 2.2397344,0.19800781 c 1.2773437,0 1.8984375,-1.03125 1.8984375,-3.08203121 0,-1.3710938 -0.28125,-2.296875 -0.8554688,-2.7421875 -0.3164062,-0.2460938 -0.6679687,-0.3632813 -1.03125,-0.3632813 -1.26562497,0 -1.89843747,1.03125 -1.89843747,3.1054688 0,1.6640625 0.4453125,3.08203121 1.88671877,3.08203121 z M 3.2475469,-4.7121484 c 0.070312,0.3046875 0.09375,0.890625 0.09375,1.7226562 0,0.8320313 -0.035156,1.4414063 -0.1054688,1.8398438 -0.1171875,0.71484371 -0.4453125,1.07812496 -0.9960937,1.07812496 -0.1992188,0 -0.4101563,-0.08203125 -0.5976563,-0.234375 -0.2460937,-0.2109375 -0.3867187,-0.6328125 -0.4570312,-1.27734376 -0.023437,-0.2226562 -0.035156,-0.6914062 -0.035156,-1.40625 0,-0.7851562 0.035156,-1.3359375 0.070312,-1.6289062 0.082031,-0.4921875 0.2460938,-0.8085938 0.5039063,-0.9492188 0.1992187,-0.1054687 0.3632812,-0.1523437 0.515625,-0.1523437 0.5859375,0 0.9140625,0.46875 1.0078127,1.0078125 z m 0,0"
       style="fill:#d33682;fill-opacity:1;fill-rule:nonzero;stroke:none"
       aria-label="0"
       transform="matrix(1.3333333,0,0,1.3333333,630.584,78.513333)" />
    <path
       id="path33"
       d="m 19.2645,-48.7379 h 12.49538 v 12.43536 H 19.2645 Z"
       style="fill:none;stroke:#586e75;stroke-width:0.79701;stroke-linecap:butt;stroke-linejoin:miter;stroke-miterlimit:10;stroke-dasharray:none;stroke-opacity:1"
       transform="matrix(1.3333333,0,0,-1.3333333,658.78933,46.302667)" />
    <path
       id="path34"
       d="m 3.9369688,-3.9013594 c 0,0.3046875 0.1523437,0.4570313 0.4804687,0.4570313 0.4335938,0 0.703125,-0.375 0.703125,-0.796875 0,-0.6796875 -0.703125,-1.0664063 -1.4296875,-1.0664063 -0.8203125,0 -1.5820312,0.3632813 -2.2265625,1.078125 -0.64453125,0.703125 -0.97265625,1.4882813 -0.97265625,2.3203125 0,1.18359378 0.78515625,2.03906253 1.95703125,2.03906253 0.6328125,0 1.1953125,-0.15234375 1.6875,-0.45703125 0.4101563,-0.24609375 0.7148438,-0.50390625 0.9023438,-0.74999998 0.082031,-0.1054688 0.1171875,-0.1992188 0.1171875,-0.234375 0,-0.1289063 -0.058594,-0.1992188 -0.1875,-0.1992188 -0.058594,0 -0.1171875,0.046875 -0.1875,0.140625 -0.3984375,0.52734378 -0.890625,0.86718753 -1.453125,1.00781253 -0.375,0.09375 -0.65625,0.15234375 -0.8554688,0.15234375 -0.6796875,0 -1.0195312,-0.421875 -1.0195312,-1.25390628 0,-0.7382812 0.3515625,-1.828125 0.6328125,-2.34375 0.2929687,-0.5273437 0.9023437,-1.1484375 1.6054687,-1.1484375 0.4570313,0 0.7734375,0.1289063 0.9375,0.3867188 -0.3632812,0.035156 -0.6914062,0.2695312 -0.6914062,0.6679687 z m 0,0"
       style="fill:#d33682;fill-opacity:1;fill-rule:nonzero;stroke:none"
       aria-label="𝑐"
       transform="matrix(1.3333333,0,0,1.3333333,689.14133,106.444)" />
    <path
       id="path35"
       d="M 0,-6.37616 25.51219,-35.90402"
       style="fill:none;stroke:#586e75;stroke-width:0.79701;stroke-linecap:butt;stroke-linejoin:miter;stroke-miterlimit:10;stroke-dasharray:none;stroke-opacity:1"
       transform="matrix(1.3333333,0,0,-1.3333333,658.78933,46.302667)" />
    <path
       id="path36"
       d="m 2.4268516,-5.989 c -0.375,0.375 -0.9140625,0.5625 -1.62890629,0.5625 v 0.3515625 c 0.46874999,0 0.85546879,-0.070312 1.16015629,-0.2226562 V -0.739 c 0,0.1640625 -0.035156,0.26953125 -0.1171875,0.31640625 -0.082031,0.046875 -0.3046875,0.0703125 -0.6679688,0.0703125 H 0.85653906 v 0.3515625 c 0.22265624,-0.0234375 0.71484374,-0.0234375 1.45312504,-0.0234375 0.75,0 1.2421875,0 1.4648437,0.0234375 v -0.3515625 H 3.4581016 c -0.375,0 -0.5976563,-0.0234375 -0.6679688,-0.0703125 C 2.7198203,-0.46946875 2.6729453,-0.5749375 2.6729453,-0.739 V -5.7194687 C 2.6729453,-5.942125 2.6612266,-5.989 2.4268516,-5.989 Z m 0,0"
       style="fill:#d33682;fill-opacity:1;fill-rule:nonzero;stroke:none"
       aria-label="1"
       transform="matrix(1.3333333,0,0,1.3333333,680.99467,78.485333)" />
  </g>
</svg>
