<?xml version="1.0" encoding="UTF-8" standalone="no"?>
<!-- Created with Inkscape (http://www.inkscape.org/) -->

<svg
   version="1.1"
   id="svg1"
   width="108.20618"
   height="131.25307"
   viewBox="0 0 108.20618 131.25307"
   sodipodi:docname="coding-tree-exam-not-full.svg"
   inkscape:version="1.4.2 (ebf0e940d0, 2025-05-08)"
   xmlns:inkscape="http://www.inkscape.org/namespaces/inkscape"
   xmlns:sodipodi="http://sodipodi.sourceforge.net/DTD/sodipodi-0.dtd"
   xmlns="http://www.w3.org/2000/svg"
   xmlns:svg="http://www.w3.org/2000/svg">
  <defs
     id="defs1" />
  <sodipodi:namedview
     id="namedview1"
     pagecolor="#ffffff"
     bordercolor="#666666"
     borderopacity="1.0"
     inkscape:showpageshadow="2"
     inkscape:pageopacity="0.0"
     inkscape:pagecheckerboard="0"
     inkscape:deskcolor="#d1d1d1"
     inkscape:zoom="2.56"
     inkscape:cx="-130.27344"
     inkscape:cy="62.695313"
     inkscape:window-width="3840"
     inkscape:window-height="2346"
     inkscape:window-x="0"
     inkscape:window-y="54"
     inkscape:window-maximized="1"
     inkscape:current-layer="g1">
    <inkscape:page
       x="0"
       y="0"
       inkscape:label="1"
       id="page1"
       width="108.20618"
       height="131.25307"
       margin="0"
       bleed="0" />
  </sodipodi:namedview>
  <g
     id="g1"
     inkscape:groupmode="layer"
     inkscape:label="1"
     transform="translate(-353.89694,-315.8251)">
    <g
       id="g145">
      <path
         id="path2"
         d="M 5.97766,0 C 5.97766,3.3014 3.3014,5.97766 0,5.97766 -3.3014,5.97766 -5.97766,3.3014 -5.97766,0 c 0,-3.3014 2.67626,-5.97766 5.97766,-5.97766 3.3014,0 5.97766,2.67626 5.97766,5.97766 z"
         style="fill:none;stroke:#586e75;stroke-width:0.79701;stroke-linecap:butt;stroke-linejoin:miter;stroke-miterlimit:10;stroke-dasharray:none;stroke-opacity:1"
         transform="matrix(1.3333333,0,0,-1.3333333,233.28133,104.50133)" />
      <path
         id="path3"
         d="m -31.85974,-48.0199 h 12.69516 v 10.99936 h -12.69516 z"
         style="fill:none;stroke:#586e75;stroke-width:0.79701;stroke-linecap:butt;stroke-linejoin:miter;stroke-miterlimit:10;stroke-dasharray:none;stroke-opacity:1"
         transform="matrix(1.3333333,0,0,-1.3333333,233.28133,104.50133)" />
      <path
         id="path4"
         d="m 4.6411875,-2.8461953 c 0.046875,-0.234375 0.140625,-0.5859375 0.140625,-0.6679688 0,-0.2929687 -0.234375,-0.3984375 -0.421875,-0.3984375 -0.1757812,0 -0.3515625,0.09375 -0.4570312,0.2226563 -0.140625,-0.140625 -0.4335938,-0.375 -0.9609375,-0.375 -1.5585938,0 -2.53125005,1.4179687 -2.53125005,2.6484375 0,1.11328124 0.82031255,1.48828124 1.57031255,1.48828124 0.6328125,0 1.1015625,-0.3515625 1.2539062,-0.48046875 0.3398438,0.48046875 0.9375,0.48046875 1.03125,0.48046875 0.328125,0 0.5976563,-0.1875 0.7851563,-0.515625 C 5.274,-0.79541406 5.3911875,-1.2876016 5.3911875,-1.3344766 c 0,-0.1171875 -0.1289062,-0.1171875 -0.2109375,-0.1171875 -0.1054687,0 -0.140625,0 -0.1875,0.035156 -0.011719,0.023437 -0.011719,0.035156 -0.070312,0.2695312 -0.1757812,0.71484379 -0.3867187,0.89062504 -0.609375,0.89062504 -0.1054687,0 -0.2109375,-0.0351563 -0.2109375,-0.328125 0,-0.15234375 0.035156,-0.29296875 0.1289063,-0.65625004 0.058594,-0.2460937 0.1523437,-0.609375 0.1992187,-0.8085937 z m -1.5,2.01562499 C 2.883375,-0.52588281 2.4615,-0.25635156 2.0279063,-0.25635156 c -0.5625,0 -0.609375,-0.48046875 -0.609375,-0.6796875 0,-0.46875004 0.3046875,-1.57031254 0.4570312,-1.92187504 0.28125,-0.65625 0.7148438,-0.8789062 1.0898438,-0.8789062 0.5273437,0 0.7382812,0.421875 0.7382812,0.515625 l -0.011719,0.1289062 z m 0,0"
         style="fill:#d33682;fill-opacity:1;fill-rule:nonzero;stroke:none"
         aria-label="a"
         transform="matrix(1.3333333,0,0,1.3333333,195.468,163.86133)" />
      <path
         id="path5"
         d="M 0,-6.37616 -25.51215,-36.62202"
         style="fill:none;stroke:#586e75;stroke-width:0.79701;stroke-linecap:butt;stroke-linejoin:miter;stroke-miterlimit:10;stroke-dasharray:none;stroke-opacity:1"
         transform="matrix(1.3333333,0,0,-1.3333333,233.28133,104.50133)" />
      <path
         id="path6"
         d="m -31.35555,-91.66513 h 11.68681 v 13.24937 h -11.68681 z"
         style="fill:none;stroke:#586e75;stroke-width:0.79701;stroke-linecap:butt;stroke-linejoin:miter;stroke-miterlimit:10;stroke-dasharray:none;stroke-opacity:1"
         transform="matrix(1.3333333,0,0,-1.3333333,233.28133,104.50133)" />
      <path
         id="path7"
         d="m 2.5317187,-5.9296719 c 0.035156,-0.1289062 0.035156,-0.140625 0.035156,-0.1523437 0,-0.1171875 -0.1054688,-0.1640625 -0.1992188,-0.1640625 -0.035156,0 -0.046875,0 -0.058594,0.011719 l -1.1601563,0.046875 c -0.1289056,0.011718 -0.2929681,0.023437 -0.2929681,0.269531 0,0.1640625 0.1757812,0.1640625 0.234375,0.1640625 0.09375,0 0.2578125,0 0.375,0.023437 C 1.395,-5.4257656 1.30125,-5.0390469 1.2192187,-4.6992031 l -0.6210937,2.484375 c -0.12890625,0.5039062 -0.12890625,0.609375 -0.12890625,0.8203125 0,1.14843748 0.85546875,1.46484373 1.52343745,1.46484373 1.640625,0 2.5664063,-1.46484373 2.5664063,-2.64843753 0,-1.1132812 -0.8320313,-1.4882812 -1.5820313,-1.4882812 -0.4335937,0 -0.7851562,0.1640625 -0.984375,0.28125 z m -0.515625,5.67187503 c -0.3515625,0 -0.6445312,-0.1875 -0.6445312,-0.73828125 0,-0.29296878 0.082031,-0.62109378 0.1523437,-0.90234378 0.082031,-0.3398437 0.2460938,-0.9609375 0.3046875,-1.2304687 0.046875,-0.1523438 0.5625,-0.609375 1.1015625,-0.609375 0.5625,0 0.609375,0.4804687 0.609375,0.6796875 0,0.46875 -0.3046875,1.5703125 -0.4570312,1.921875 -0.3046875,0.72656248 -0.8085938,0.87890623 -1.0664063,0.87890623 z m 0,0"
         style="fill:#d33682;fill-opacity:1;fill-rule:nonzero;stroke:none"
         aria-label="b"
         transform="matrix(1.3333333,0,0,1.3333333,196.14,222.05467)" />
      <path
         id="path8"
         d="m -25.51215,-48.4184 2e-5,-29.59884"
         style="fill:none;stroke:#586e75;stroke-width:0.79701;stroke-linecap:butt;stroke-linejoin:miter;stroke-miterlimit:10;stroke-dasharray:none;stroke-opacity:1"
         transform="matrix(1.3333333,0,0,-1.3333333,233.28133,104.50133)" />
      <path
         id="path9"
         d="m 4.4407187,-2.3899062 c 0,-0.9140625 -0.09375,-2.53125 -2.015625,-2.53125 -1.92187495,0 -2.01562495,1.6171875 -2.01562495,2.53125 0,0.9492187 0.1171875,2.48437495 2.01562495,2.48437495 1.8984375,0 2.015625,-1.52343745 2.015625,-2.48437495 z m -2.015625,2.13281245 c -0.2460937,0 -0.46875,-0.0820313 -0.6445312,-0.234375 C 1.569625,-0.66725 1.4524375,-0.7844375 1.4524375,-2.4836562 c 0,-0.515625 0,-1.1132813 0.082031,-1.4648438 0.1171875,-0.4921875 0.5742188,-0.6210937 0.890625,-0.6210937 0.28125,0 0.7734375,0.1171875 0.890625,0.6328125 0.082031,0.3515625 0.082031,0.9726562 0.082031,1.453125 0,0.5273437 0,1.078125 -0.070312,1.49999995 C 3.2219687,-0.386 2.694625,-0.25709375 2.4250937,-0.25709375 Z m 0,0"
         style="fill:#d33682;fill-opacity:1;fill-rule:nonzero;stroke:none"
         aria-label="0"
         transform="matrix(1.3333333,0,0,1.3333333,187.59467,192.01467)" />
      <path
         id="path10"
         d="m 4.4425078,-2.3896563 c 0,-0.9140625 -0.09375,-2.53125 -2.015625,-2.53125 -1.92187499,0 -2.01562499,1.6171875 -2.01562499,2.53125 0,0.9492188 0.1171875,2.48437505 2.01562499,2.48437505 1.8984375,0 2.015625,-1.52343755 2.015625,-2.48437505 z m -2.015625,2.13281255 c -0.2460937,0 -0.46875,-0.0820313 -0.6445312,-0.234375 C 1.5714141,-0.667 1.4542266,-0.7841875 1.4542266,-2.4834063 c 0,-0.515625 0,-1.1132812 0.082031,-1.4648437 0.1171875,-0.4921875 0.5742188,-0.6210938 0.890625,-0.6210938 0.28125,0 0.7734375,0.1171875 0.890625,0.6328125 0.082031,0.3515625 0.082031,0.9726563 0.082031,1.453125 0,0.5273438 0,1.078125 -0.070312,1.50000005 -0.1054688,0.59765625 -0.6328125,0.7265625 -0.9023438,0.7265625 z m 0,0"
         style="fill:#d33682;fill-opacity:1;fill-rule:nonzero;stroke:none"
         aria-label="0"
         transform="matrix(1.3333333,0,0,1.3333333,204.604,136.38933)" />
      <path
         id="path11"
         d="m 19.7021,-48.0199 h 11.62018 v 10.99936 H 19.7021 Z"
         style="fill:none;stroke:#586e75;stroke-width:0.79701;stroke-linecap:butt;stroke-linejoin:miter;stroke-miterlimit:10;stroke-dasharray:none;stroke-opacity:1"
         transform="matrix(1.3333333,0,0,-1.3333333,233.28133,104.50133)" />
      <path
         id="path12"
         d="M 3.8799687,-3.5610391 C 3.3995,-3.4204141 3.3995,-2.9633828 3.3995,-2.9516641 c 0,0.140625 0.070312,0.4101563 0.4453125,0.4101563 0.375,0 0.6445312,-0.3164063 0.6445312,-0.6914063 0,-0.46875 -0.46875,-0.8320312 -1.2539062,-0.8320312 -1.8164063,0 -2.82421875,1.40625 -2.82421875,2.578125 0,0.80859374 0.50390625,1.55859374 1.91015625,1.55859374 0.234375,0 0.8554687,-0.01171875 1.3945312,-0.2109375 0.5273438,-0.2109375 0.8789063,-0.57421875 0.8789063,-0.69140625 0,-0.0703125 -0.140625,-0.23437499 -0.2226563,-0.23437499 -0.046875,0 -0.070312,0.035156 -0.1289062,0.10546874 -0.4921875,0.515625 -1.1953125,0.703125 -1.8984375,0.703125 -0.5976563,0 -0.890625,-0.29296875 -0.890625,-0.83203124 0,-0.3164063 0.234375,-1.4179688 0.5039062,-1.875 0.3515625,-0.6210938 0.9023438,-0.7734375 1.2773438,-0.7734375 0.1171875,0 0.4101562,0 0.6445312,0.1757812 z m 0,0"
         style="fill:#d33682;fill-opacity:1;fill-rule:nonzero;stroke:none"
         aria-label="c"
         transform="matrix(1.3333333,0,0,1.3333333,264.21733,163.86133)" />
      <path
         id="path13"
         d="M 0,-6.37616 25.51219,-36.62202"
         style="fill:none;stroke:#586e75;stroke-width:0.79701;stroke-linecap:butt;stroke-linejoin:miter;stroke-miterlimit:10;stroke-dasharray:none;stroke-opacity:1"
         transform="matrix(1.3333333,0,0,-1.3333333,233.28133,104.50133)" />
      <path
         id="path14"
         d="m 19.26878,-91.66513 h 12.48683 v 13.24937 H 19.26878 Z"
         style="fill:none;stroke:#586e75;stroke-width:0.79701;stroke-linecap:butt;stroke-linejoin:miter;stroke-miterlimit:10;stroke-dasharray:none;stroke-opacity:1"
         transform="matrix(1.3333333,0,0,-1.3333333,233.28133,104.50133)" />
      <path
         id="path15"
         d="m 5.4008828,-5.9296719 c 0.035156,-0.1289062 0.035156,-0.140625 0.035156,-0.1523437 0,-0.1171875 -0.1054688,-0.1640625 -0.1992188,-0.1640625 -0.035156,0 -0.046875,0 -0.058594,0.011719 l -1.1601563,0.046875 c -0.1289062,0.011719 -0.2929687,0.023437 -0.2929687,0.2695313 0,0.1640625 0.1640625,0.1640625 0.234375,0.1640625 0.09375,0 0.2578125,0 0.375,0.023437 l -0.4804688,1.9921875 c -0.140625,-0.1289063 -0.4335937,-0.328125 -0.9140625,-0.328125 -1.5585937,0 -2.53124999,1.4179687 -2.53124999,2.6484375 0,1.11328123 0.82031249,1.48828123 1.57031249,1.48828123 0.6328125,0 1.1015625,-0.3515625 1.2539063,-0.48046875 0.3398437,0.48046875 0.9375,0.48046875 1.03125,0.48046875 0.328125,0 0.5976562,-0.1875 0.7851562,-0.515625 0.2226563,-0.3515625 0.3398438,-0.84375003 0.3398438,-0.89062503 0,-0.1171875 -0.1289063,-0.1171875 -0.2109375,-0.1171875 -0.1054688,0 -0.140625,0 -0.1875,0.035156 -0.011719,0.023437 -0.011719,0.035156 -0.070312,0.2695312 -0.1757813,0.71484378 -0.3867188,0.89062503 -0.609375,0.89062503 -0.1054688,0 -0.2109375,-0.0351563 -0.2109375,-0.328125 0,-0.12890625 0.023437,-0.2578125 0.058594,-0.38671875 z m -2.2617187,5.09765628 c -0.2578125,0.3046875 -0.6796875,0.57421875 -1.1132813,0.57421875 -0.5625,0 -0.609375,-0.48046875 -0.609375,-0.6796875 0,-0.46875003 0.3046875,-1.57031253 0.4570313,-1.92187503 0.28125,-0.65625 0.7148437,-0.8789062 1.0898437,-0.8789062 0.5273438,0 0.7382813,0.421875 0.7382813,0.515625 l -0.011719,0.1289062 z m 0,0"
         style="fill:#d33682;fill-opacity:1;fill-rule:nonzero;stroke:none"
         aria-label="d"
         transform="matrix(1.3333333,0,0,1.3333333,263.63867,222.05467)" />
      <path
         id="path16"
         d="m 25.51219,-48.4184 10e-6,-29.59884"
         style="fill:none;stroke:#586e75;stroke-width:0.79701;stroke-linecap:butt;stroke-linejoin:miter;stroke-miterlimit:10;stroke-dasharray:none;stroke-opacity:1"
         transform="matrix(1.3333333,0,0,-1.3333333,233.28133,104.50133)" />
      <path
         id="path17"
         d="m 2.9893516,-4.651625 c 0,-0.2695312 -0.046875,-0.2695312 -0.3632813,-0.2695312 -0.46875,0.375 -1.078125,0.4804687 -1.67578124,0.4804687 h -0.1875 v 0.421875 h 0.1875 c 0.29296874,0 0.75000004,-0.058594 1.06640624,-0.1523437 v 3.74999995 H 0.83310156 v 0.421875 C 1.1963828,-0.0344375 2.0987266,-0.0344375 2.5088828,-0.0344375 c 0.2695313,0 0.5390625,0.01171875 0.8085938,0.01171875 0.2226562,0 0.609375,0.01171875 0.8320312,0.0234375 v -0.421875 H 2.9893516 Z m 0,0"
         style="fill:#d33682;fill-opacity:1;fill-rule:nonzero;stroke:none"
         aria-label="1"
         transform="matrix(1.3333333,0,0,1.3333333,272.49467,192.01467)" />
      <path
         id="path18"
         d="m 2.9894922,-4.651375 c 0,-0.2695313 -0.046875,-0.2695313 -0.3632813,-0.2695313 -0.46875,0.375 -1.078125,0.4804688 -1.67578121,0.4804688 h -0.1875 v 0.421875 h 0.1875 c 0.29296871,0 0.75000001,-0.058594 1.06640621,-0.1523438 v 3.75000005 H 0.83324219 v 0.421875 C 1.1965234,-0.0341875 2.0988672,-0.0341875 2.5090234,-0.0341875 c 0.2695313,0 0.5390625,0.01171875 0.8085938,0.01171875 0.2226562,0 0.609375,0.01171875 0.8320312,0.0234375 v -0.421875 H 2.9894922 Z m 0,0"
         style="fill:#d33682;fill-opacity:1;fill-rule:nonzero;stroke:none"
         aria-label="1"
         transform="matrix(1.3333333,0,0,1.3333333,255.48667,136.38933)" />
      <path
         id="path19"
         d="M 5.97766,0 C 5.97766,3.3014 3.3014,5.97766 0,5.97766 -3.3014,5.97766 -5.97766,3.3014 -5.97766,0 c 0,-3.3014 2.67626,-5.97766 5.97766,-5.97766 3.3014,0 5.97766,2.67626 5.97766,5.97766 z"
         style="fill:none;stroke:#586e75;stroke-width:0.79701;stroke-linecap:butt;stroke-linejoin:miter;stroke-miterlimit:10;stroke-dasharray:none;stroke-opacity:1"
         transform="matrix(1.3333333,0,0,-1.3333333,408.06933,104.50133)" />
      <path
         id="path20"
         d="m -28.03844,-42.52022 c 0,3.30142 -2.67624,5.97766 -5.97766,5.97766 -3.3014,0 -5.97766,-2.67624 -5.97766,-5.97766 0,-3.3014 2.67626,-5.97766 5.97766,-5.97766 3.30142,0 5.97766,2.67626 5.97766,5.97766 z"
         style="fill:none;stroke:#586e75;stroke-width:0.79701;stroke-linecap:butt;stroke-linejoin:miter;stroke-miterlimit:10;stroke-dasharray:none;stroke-opacity:1"
         transform="matrix(1.3333333,0,0,-1.3333333,408.06933,104.50133)" />
      <path
         id="path21"
         d="M 0,-6.37616 -34.0161,-36.14404"
         style="fill:none;stroke:#586e75;stroke-width:0.79701;stroke-linecap:butt;stroke-linejoin:miter;stroke-miterlimit:10;stroke-dasharray:none;stroke-opacity:1"
         transform="matrix(1.3333333,0,0,-1.3333333,408.06933,104.50133)" />
      <path
         id="path22"
         d="m -57.37172,-90.54012 h 12.69516 v 10.99936 h -12.69516 z"
         style="fill:none;stroke:#586e75;stroke-width:0.79701;stroke-linecap:butt;stroke-linejoin:miter;stroke-miterlimit:10;stroke-dasharray:none;stroke-opacity:1"
         transform="matrix(1.3333333,0,0,-1.3333333,408.06933,104.50133)" />
      <path
         id="path23"
         d="m 4.6393359,-2.8476406 c 0.046875,-0.234375 0.140625,-0.5859375 0.140625,-0.6679688 0,-0.2929687 -0.234375,-0.3984375 -0.421875,-0.3984375 -0.1757812,0 -0.3515625,0.09375 -0.4570312,0.2226563 -0.140625,-0.140625 -0.4335938,-0.375 -0.9609375,-0.375 -1.5585938,0 -2.53125001,1.4179687 -2.53125001,2.6484375 0,1.11328123 0.82031251,1.48828123 1.57031251,1.48828123 0.6328125,0 1.1015625,-0.3515625 1.2539062,-0.48046875 0.3398438,0.48046875 0.9375,0.48046875 1.03125,0.48046875 0.328125,0 0.5976563,-0.1875 0.7851563,-0.515625 0.2226562,-0.3515625 0.3398437,-0.84375003 0.3398437,-0.89062503 0,-0.1171875 -0.1289062,-0.1171875 -0.2109375,-0.1171875 -0.1054687,0 -0.140625,0 -0.1875,0.035156 -0.011719,0.023437 -0.011719,0.035156 -0.070312,0.2695312 -0.1757812,0.71484378 -0.3867187,0.89062503 -0.609375,0.89062503 -0.1054687,0 -0.2109375,-0.0351563 -0.2109375,-0.328125 0,-0.15234375 0.035156,-0.29296875 0.1289063,-0.65625003 0.058594,-0.2460937 0.1523437,-0.609375 0.1992187,-0.8085937 z m -1.5,2.01562498 c -0.2578125,0.3046875 -0.6796875,0.57421875 -1.1132812,0.57421875 -0.5625,0 -0.609375,-0.48046875 -0.609375,-0.6796875 0,-0.46875003 0.3046875,-1.57031253 0.4570312,-1.92187503 0.28125,-0.65625 0.7148438,-0.8789062 1.0898438,-0.8789062 0.5273437,0 0.7382812,0.421875 0.7382812,0.515625 l -0.011719,0.1289062 z m 0,0"
         style="fill:#d33682;fill-opacity:1;fill-rule:nonzero;stroke:none"
         aria-label="a"
         transform="matrix(1.3333333,0,0,1.3333333,336.24,220.55467)" />
      <path
         id="path24"
         d="M -34.0161,-48.89638 -51.02414,-79.14226"
         style="fill:none;stroke:#586e75;stroke-width:0.79701;stroke-linecap:butt;stroke-linejoin:miter;stroke-miterlimit:10;stroke-dasharray:none;stroke-opacity:1"
         transform="matrix(1.3333333,0,0,-1.3333333,408.06933,104.50133)" />
      <path
         id="path25"
         d="m 4.4416797,-2.3911016 c 0,-0.9140625 -0.09375,-2.53125 -2.015625,-2.53125 -1.92187501,0 -2.01562501,1.6171875 -2.01562501,2.53125 0,0.9492188 0.1171875,2.48437504 2.01562501,2.48437504 1.8984375,0 2.015625,-1.52343754 2.015625,-2.48437504 z m -2.015625,2.13281254 c -0.2460938,0 -0.46875,-0.0820313 -0.6445313,-0.234375 -0.2109375,-0.17578125 -0.328125,-0.29296875 -0.328125,-1.99218754 0,-0.515625 0,-1.1132812 0.082031,-1.4648437 0.1171875,-0.4921875 0.5742187,-0.6210938 0.890625,-0.6210938 0.28125,0 0.7734375,0.1171875 0.890625,0.6328125 0.082031,0.3515625 0.082031,0.9726563 0.082031,1.453125 0,0.5273438 0,1.078125 -0.070312,1.50000004 -0.1054687,0.59765625 -0.6328125,0.7265625 -0.9023437,0.7265625 z m 0,0"
         style="fill:#d33682;fill-opacity:1;fill-rule:nonzero;stroke:none"
         aria-label="0"
         transform="matrix(1.3333333,0,0,1.3333333,339.70667,193.08267)" />
      <path
         id="path26"
         d="m -22.85146,-91.66513 h 11.68681 v 13.24937 h -11.68681 z"
         style="fill:none;stroke:#586e75;stroke-width:0.79701;stroke-linecap:butt;stroke-linejoin:miter;stroke-miterlimit:10;stroke-dasharray:none;stroke-opacity:1"
         transform="matrix(1.3333333,0,0,-1.3333333,408.06933,104.50133)" />
      <path
         id="path27"
         d="m 2.5304687,-5.9296719 c 0.035156,-0.1289062 0.035156,-0.140625 0.035156,-0.1523437 0,-0.1171875 -0.1054688,-0.1640625 -0.1992188,-0.1640625 -0.035156,0 -0.046875,0 -0.058594,0.011719 l -1.1601563,0.046875 c -0.1289062,0.011719 -0.2929687,0.023437 -0.2929687,0.2695313 0,0.1640625 0.1757812,0.1640625 0.234375,0.1640625 0.09375,0 0.2578125,0 0.375,0.023437 C 1.39375,-5.4257656 1.3,-5.0390469 1.2179687,-4.6992031 l -0.6210937,2.484375 c -0.12890625,0.5039062 -0.12890625,0.609375 -0.12890625,0.8203125 0,1.14843748 0.85546875,1.46484373 1.52343745,1.46484373 1.640625,0 2.5664063,-1.46484373 2.5664063,-2.64843753 0,-1.1132812 -0.8320313,-1.4882812 -1.5820313,-1.4882812 -0.4335937,0 -0.7851562,0.1640625 -0.984375,0.28125 z m -0.515625,5.67187503 c -0.3515625,0 -0.6445312,-0.1875 -0.6445312,-0.73828125 0,-0.29296878 0.082031,-0.62109378 0.1523437,-0.90234378 0.082031,-0.3398437 0.2460938,-0.9609375 0.3046875,-1.2304687 0.046875,-0.1523438 0.5625,-0.609375 1.1015625,-0.609375 0.5625,0 0.609375,0.4804687 0.609375,0.6796875 0,0.46875 -0.3046875,1.5703125 -0.4570312,1.921875 -0.3046875,0.72656248 -0.8085938,0.87890623 -1.0664063,0.87890623 z m 0,0"
         style="fill:#d33682;fill-opacity:1;fill-rule:nonzero;stroke:none"
         aria-label="b"
         transform="matrix(1.3333333,0,0,1.3333333,382.26667,222.05467)" />
      <path
         id="path28"
         d="m -34.0161,-48.89638 17.00806,-29.12086"
         style="fill:none;stroke:#586e75;stroke-width:0.79701;stroke-linecap:butt;stroke-linejoin:miter;stroke-miterlimit:10;stroke-dasharray:none;stroke-opacity:1"
         transform="matrix(1.3333333,0,0,-1.3333333,408.06933,104.50133)" />
      <path
         id="path29"
         d="m 2.9877813,-4.6523203 c 0,-0.2695313 -0.046875,-0.2695313 -0.3632813,-0.2695313 -0.46875,0.375 -1.078125,0.4804688 -1.67578125,0.4804688 h -0.1875 v 0.421875 h 0.1875 c 0.29296875,0 0.75000005,-0.058594 1.06640625,-0.1523438 v 3.75000004 H 0.83153125 V 2.34375e-5 C 1.1948125,-0.03513281 2.0971563,-0.03513281 2.5073125,-0.03513281 c 0.2695313,0 0.5390625,0.01171875 0.8085938,0.01171875 0.2226562,0 0.609375,0.01171875 0.8320312,0.0234374975 V -0.42185156 H 2.9877813 Z m 0,0"
         style="fill:#d33682;fill-opacity:1;fill-rule:nonzero;stroke:none"
         aria-label="1"
         transform="matrix(1.3333333,0,0,1.3333333,379.25067,192.332)" />
      <path
         id="path30"
         d="m 4.4413984,-2.3908906 c 0,-0.9140625 -0.09375,-2.53125 -2.015625,-2.53125 -1.92187496,0 -2.01562496,1.6171875 -2.01562496,2.53125 0,0.9492187 0.1171875,2.48437498 2.01562496,2.48437498 1.8984375,0 2.015625,-1.52343748 2.015625,-2.48437498 z m -2.015625,2.13281248 c -0.2460937,0 -0.46875,-0.0820313 -0.6445312,-0.234375 -0.2109375,-0.17578125 -0.328125,-0.29296875 -0.328125,-1.99218748 0,-0.515625 0,-1.1132813 0.082031,-1.4648438 0.1171875,-0.4921875 0.5742188,-0.6210937 0.890625,-0.6210937 0.28125,0 0.7734375,0.1171875 0.890625,0.6328125 0.082031,0.3515625 0.082031,0.9726562 0.082031,1.453125 0,0.5273437 0,1.078125 -0.070312,1.49999998 -0.1054688,0.59765625 -0.6328125,0.7265625 -0.9023438,0.7265625 z m 0,0"
         style="fill:#d33682;fill-opacity:1;fill-rule:nonzero;stroke:none"
         aria-label="0"
         transform="matrix(1.3333333,0,0,1.3333333,373.72267,136.07067)" />
      <path
         id="path31"
         d="m 39.99376,-42.52022 c 0,3.30142 -2.67626,5.97766 -5.97766,5.97766 -3.30142,0 -5.97766,-2.67624 -5.97766,-5.97766 0,-3.3014 2.67624,-5.97766 5.97766,-5.97766 3.3014,0 5.97766,2.67626 5.97766,5.97766 z"
         style="fill:none;stroke:#586e75;stroke-width:0.79701;stroke-linecap:butt;stroke-linejoin:miter;stroke-miterlimit:10;stroke-dasharray:none;stroke-opacity:1"
         transform="matrix(1.3333333,0,0,-1.3333333,408.06933,104.50133)" />
      <path
         id="path32"
         d="M 0,-6.37616 34.0161,-36.14404"
         style="fill:none;stroke:#586e75;stroke-width:0.79701;stroke-linecap:butt;stroke-linejoin:miter;stroke-miterlimit:10;stroke-dasharray:none;stroke-opacity:1"
         transform="matrix(1.3333333,0,0,-1.3333333,408.06933,104.50133)" />
      <path
         id="path33"
         d="m 11.19795,-90.54012 h 11.62018 v 10.99936 H 11.19795 Z"
         style="fill:none;stroke:#586e75;stroke-width:0.79701;stroke-linecap:butt;stroke-linejoin:miter;stroke-miterlimit:10;stroke-dasharray:none;stroke-opacity:1"
         transform="matrix(1.3333333,0,0,-1.3333333,408.06933,104.50133)" />
      <path
         id="path34"
         d="m 3.8798828,-3.5624844 c -0.4804687,0.140625 -0.4804687,0.5976563 -0.4804687,0.609375 0,0.140625 0.070312,0.4101563 0.4453125,0.4101563 0.375,0 0.6445312,-0.3164063 0.6445312,-0.6914063 0,-0.46875 -0.46875,-0.8320312 -1.2539062,-0.8320312 -1.8164063,0 -2.82421879,1.40625 -2.82421879,2.578125 0,0.80859373 0.50390625,1.55859373 1.91015629,1.55859373 0.234375,0 0.8554687,-0.01171875 1.3945312,-0.2109375 0.5273438,-0.2109375 0.8789063,-0.57421875 0.8789063,-0.69140625 0,-0.0703125 -0.140625,-0.23437498 -0.2226563,-0.23437498 -0.046875,0 -0.070312,0.035156 -0.1289062,0.10546873 -0.4921875,0.515625 -1.1953125,0.703125 -1.8984375,0.703125 -0.5976563,0 -0.890625,-0.29296875 -0.890625,-0.83203123 0,-0.3164063 0.234375,-1.4179688 0.5039062,-1.875 0.3515625,-0.6210938 0.9023438,-0.7734375 1.2773438,-0.7734375 0.1171875,0 0.4101562,0 0.6445312,0.1757812 z m 0,0"
         style="fill:#d33682;fill-opacity:1;fill-rule:nonzero;stroke:none"
         aria-label="c"
         transform="matrix(1.3333333,0,0,1.3333333,427.66667,220.55467)" />
      <path
         id="path35"
         d="M 34.0161,-48.89638 17.00804,-79.14226"
         style="fill:none;stroke:#586e75;stroke-width:0.79701;stroke-linecap:butt;stroke-linejoin:miter;stroke-miterlimit:10;stroke-dasharray:none;stroke-opacity:1"
         transform="matrix(1.3333333,0,0,-1.3333333,408.06933,104.50133)" />
      <path
         id="path36"
         d="m 4.4399531,-2.3911016 c 0,-0.9140625 -0.09375,-2.53125 -2.015625,-2.53125 -1.92187498,0 -2.01562498,1.6171875 -2.01562498,2.53125 0,0.9492188 0.1171875,2.48437504 2.01562498,2.48437504 1.8984375,0 2.015625,-1.52343754 2.015625,-2.48437504 z m -2.015625,2.13281254 c -0.2460937,0 -0.46875,-0.0820313 -0.6445312,-0.234375 -0.2109375,-0.17578125 -0.328125,-0.29296875 -0.328125,-1.99218754 0,-0.515625 0,-1.1132812 0.082031,-1.4648437 0.1171875,-0.4921875 0.5742188,-0.6210938 0.890625,-0.6210938 0.28125,0 0.7734375,0.1171875 0.890625,0.6328125 0.082031,0.3515625 0.082031,0.9726563 0.082031,1.453125 0,0.5273438 0,1.078125 -0.070312,1.50000004 -0.1054688,0.59765625 -0.6328125,0.7265625 -0.9023438,0.7265625 z m 0,0"
         style="fill:#d33682;fill-opacity:1;fill-rule:nonzero;stroke:none"
         aria-label="0"
         transform="matrix(1.3333333,0,0,1.3333333,430.416,193.08267)" />
      <path
         id="path37"
         d="m 44.78072,-91.66513 h 12.48683 v 13.24937 H 44.78072 Z"
         style="fill:none;stroke:#586e75;stroke-width:0.79701;stroke-linecap:butt;stroke-linejoin:miter;stroke-miterlimit:10;stroke-dasharray:none;stroke-opacity:1"
         transform="matrix(1.3333333,0,0,-1.3333333,408.06933,104.50133)" />
      <path
         id="path38"
         d="m 5.4013984,-5.9296719 c 0.035156,-0.1289062 0.035156,-0.140625 0.035156,-0.1523437 0,-0.1171875 -0.1054688,-0.1640625 -0.1992188,-0.1640625 -0.035156,0 -0.046875,0 -0.058594,0.011719 l -1.1601563,0.046875 c -0.1289062,0.011719 -0.2929687,0.023437 -0.2929687,0.2695313 0,0.1640625 0.1640625,0.1640625 0.234375,0.1640625 0.09375,0 0.2578125,0 0.375,0.023437 l -0.4804688,1.9921875 c -0.140625,-0.1289063 -0.4335937,-0.328125 -0.9140625,-0.328125 -1.5585937,0 -2.53124996,1.4179687 -2.53124996,2.6484375 0,1.11328123 0.82031246,1.48828123 1.57031246,1.48828123 0.6328125,0 1.1015625,-0.3515625 1.2539063,-0.48046875 0.3398437,0.48046875 0.9375,0.48046875 1.03125,0.48046875 0.328125,0 0.5976562,-0.1875 0.7851562,-0.515625 0.2226563,-0.3515625 0.3398438,-0.84375003 0.3398438,-0.89062503 0,-0.1171875 -0.1289063,-0.1171875 -0.2109375,-0.1171875 -0.1054688,0 -0.140625,0 -0.1875,0.035156 -0.011719,0.023437 -0.011719,0.035156 -0.070312,0.2695312 -0.1757813,0.71484378 -0.3867188,0.89062503 -0.609375,0.89062503 -0.1054688,0 -0.2109375,-0.0351563 -0.2109375,-0.328125 0,-0.12890625 0.023437,-0.2578125 0.058594,-0.38671875 z m -2.2617187,5.09765628 c -0.2578125,0.3046875 -0.6796875,0.57421875 -1.1132813,0.57421875 -0.5625,0 -0.609375,-0.48046875 -0.609375,-0.6796875 0,-0.46875003 0.3046875,-1.57031253 0.4570313,-1.92187503 0.28125,-0.65625 0.7148437,-0.8789062 1.0898437,-0.8789062 0.5273438,0 0.7382813,0.421875 0.7382813,0.515625 l -0.011719,0.1289062 z m 0,0"
         style="fill:#d33682;fill-opacity:1;fill-rule:nonzero;stroke:none"
         aria-label="d"
         transform="matrix(1.3333333,0,0,1.3333333,472.44267,222.05467)" />
      <path
         id="path39"
         d="M 34.0161,-48.89638 51.02414,-78.01724"
         style="fill:none;stroke:#586e75;stroke-width:0.79701;stroke-linecap:butt;stroke-linejoin:miter;stroke-miterlimit:10;stroke-dasharray:none;stroke-opacity:1"
         transform="matrix(1.3333333,0,0,-1.3333333,408.06933,104.50133)" />
      <path
         id="path40"
         d="m 2.9889844,-4.6523203 c 0,-0.2695313 -0.046875,-0.2695313 -0.3632813,-0.2695313 -0.46875,0.375 -1.078125,0.4804688 -1.67578123,0.4804688 h -0.1875 v 0.421875 h 0.1875 c 0.29296873,0 0.75000003,-0.058594 1.06640623,-0.1523438 v 3.75000004 H 0.83273437 V 2.34375e-5 C 1.1960156,-0.03513281 2.0983594,-0.03513281 2.5085156,-0.03513281 c 0.2695313,0 0.5390625,0.01171875 0.8085938,0.01171875 0.2226562,0 0.609375,0.01171875 0.8320312,0.0234374975 V -0.42185156 H 2.9889844 Z m 0,0"
         style="fill:#d33682;fill-opacity:1;fill-rule:nonzero;stroke:none"
         aria-label="1"
         transform="matrix(1.3333333,0,0,1.3333333,469.96,192.332)" />
      <path
         id="path41"
         d="m 2.9892656,-4.6526094 c 0,-0.2695312 -0.046875,-0.2695312 -0.3632812,-0.2695312 -0.46875,0.375 -1.078125,0.4804687 -1.67578128,0.4804687 h -0.1875 v 0.421875 h 0.1875 c 0.29296878,0 0.74999998,-0.058594 1.06640628,-0.1523437 v 3.74999998 H 0.83301562 V -2.65625e-4 C 1.1962969,-0.03542187 2.0986406,-0.03542187 2.5087969,-0.03542187 c 0.2695312,0 0.5390625,0.01171875 0.8085937,0.01171875 0.2226563,0 0.609375,0.01171875 0.8320313,0.023437495 V -0.42214062 H 2.9892656 Z m 0,0"
         style="fill:#d33682;fill-opacity:1;fill-rule:nonzero;stroke:none"
         aria-label="1"
         transform="matrix(1.3333333,0,0,1.3333333,435.944,136.07067)" />
      <path
         id="path42"
         d="M 5.97766,0 C 5.97766,3.3014 3.3014,5.97766 0,5.97766 -3.3014,5.97766 -5.97766,3.3014 -5.97766,0 c 0,-3.3014 2.67626,-5.97766 5.97766,-5.97766 3.3014,0 5.97766,2.67626 5.97766,5.97766 z"
         style="fill:none;stroke:#586e75;stroke-width:0.79701;stroke-linecap:butt;stroke-linejoin:miter;stroke-miterlimit:10;stroke-dasharray:none;stroke-opacity:1"
         transform="matrix(1.3333333,0,0,-1.3333333,557.66133,104.50133)" />
      <path
         id="path43"
         d="m -27.60767,-48.0199 h 12.69516 v 10.99936 h -12.69516 z"
         style="fill:none;stroke:#586e75;stroke-width:0.79701;stroke-linecap:butt;stroke-linejoin:miter;stroke-miterlimit:10;stroke-dasharray:none;stroke-opacity:1"
         transform="matrix(1.3333333,0,0,-1.3333333,557.66133,104.50133)" />
      <path
         id="path44"
         d="m 4.6393438,-2.8461953 c 0.046875,-0.234375 0.140625,-0.5859375 0.140625,-0.6679688 0,-0.2929687 -0.234375,-0.3984375 -0.421875,-0.3984375 -0.1757813,0 -0.3515625,0.09375 -0.4570313,0.2226563 -0.140625,-0.140625 -0.4335937,-0.375 -0.9609375,-0.375 -1.5585937,0 -2.53125,1.4179687 -2.53125,2.6484375 0,1.11328124 0.8203125,1.48828124 1.5703125,1.48828124 0.6328125,0 1.1015625,-0.3515625 1.2539063,-0.48046875 0.3398437,0.48046875 0.9375,0.48046875 1.03125,0.48046875 0.328125,0 0.5976562,-0.1875 0.7851562,-0.515625 0.2226563,-0.3515625 0.3398438,-0.84375004 0.3398438,-0.89062504 0,-0.1171875 -0.1289063,-0.1171875 -0.2109375,-0.1171875 -0.1054688,0 -0.140625,0 -0.1875,0.035156 -0.011719,0.023437 -0.011719,0.035156 -0.070312,0.2695312 -0.1757813,0.71484379 -0.3867188,0.89062504 -0.609375,0.89062504 -0.1054688,0 -0.2109375,-0.0351563 -0.2109375,-0.328125 0,-0.15234375 0.035156,-0.29296875 0.1289062,-0.65625004 0.058594,-0.2460937 0.1523438,-0.609375 0.1992188,-0.8085937 z m -1.5,2.01562499 c -0.2578125,0.3046875 -0.6796875,0.57421875 -1.1132813,0.57421875 -0.5625,0 -0.609375,-0.48046875 -0.609375,-0.6796875 0,-0.46875004 0.3046875,-1.57031254 0.4570313,-1.92187504 0.28125,-0.65625 0.7148437,-0.8789062 1.0898437,-0.8789062 0.5273438,0 0.7382813,0.421875 0.7382813,0.515625 l -0.011719,0.1289062 z m 0,0"
         style="fill:#d33682;fill-opacity:1;fill-rule:nonzero;stroke:none"
         aria-label="a"
         transform="matrix(1.3333333,0,0,1.3333333,525.51733,163.86133)" />
      <path
         id="path45"
         d="M 0,-6.37616 -21.26009,-36.62202"
         style="fill:none;stroke:#586e75;stroke-width:0.79701;stroke-linecap:butt;stroke-linejoin:miter;stroke-miterlimit:10;stroke-dasharray:none;stroke-opacity:1"
         transform="matrix(1.3333333,0,0,-1.3333333,557.66133,104.50133)" />
      <path
         id="path46"
         d="m 4.4426406,-2.3896563 c 0,-0.9140625 -0.09375,-2.53125 -2.015625,-2.53125 -1.92187497,0 -2.01562497,1.6171875 -2.01562497,2.53125 0,0.9492188 0.1171875,2.48437505 2.01562497,2.48437505 1.8984375,0 2.015625,-1.52343755 2.015625,-2.48437505 z m -2.015625,2.13281255 c -0.2460937,0 -0.46875,-0.0820313 -0.6445312,-0.234375 C 1.5715469,-0.667 1.4543594,-0.7841875 1.4543594,-2.4834063 c 0,-0.515625 0,-1.1132812 0.082031,-1.4648437 0.1171875,-0.4921875 0.5742188,-0.6210938 0.890625,-0.6210938 0.28125,0 0.7734375,0.1171875 0.890625,0.6328125 0.082031,0.3515625 0.082031,0.9726563 0.082031,1.453125 0,0.5273438 0,1.078125 -0.070312,1.50000005 -0.1054688,0.59765625 -0.6328125,0.7265625 -0.9023438,0.7265625 z m 0,0"
         style="fill:#d33682;fill-opacity:1;fill-rule:nonzero;stroke:none"
         aria-label="0"
         transform="matrix(1.3333333,0,0,1.3333333,531.81867,136.38933)" />
      <path
         id="path47"
         d="m 27.2378,-42.52022 c 0,3.30142 -2.67626,5.97766 -5.97767,5.97766 -3.30142,0 -5.97766,-2.67624 -5.97766,-5.97766 0,-3.3014 2.67624,-5.97766 5.97766,-5.97766 3.30141,0 5.97767,2.67626 5.97767,5.97766 z"
         style="fill:none;stroke:#586e75;stroke-width:0.79701;stroke-linecap:butt;stroke-linejoin:miter;stroke-miterlimit:10;stroke-dasharray:none;stroke-opacity:1"
         transform="matrix(1.3333333,0,0,-1.3333333,557.66133,104.50133)" />
      <path
         id="path48"
         d="M 0,-6.37616 21.26013,-36.14404"
         style="fill:none;stroke:#586e75;stroke-width:0.79701;stroke-linecap:butt;stroke-linejoin:miter;stroke-miterlimit:10;stroke-dasharray:none;stroke-opacity:1"
         transform="matrix(1.3333333,0,0,-1.3333333,557.66133,104.50133)" />
      <path
         id="path49"
         d="M -5.84335,-91.66513 H 5.84346 v 13.24937 H -5.84335 Z"
         style="fill:none;stroke:#586e75;stroke-width:0.79701;stroke-linecap:butt;stroke-linejoin:miter;stroke-miterlimit:10;stroke-dasharray:none;stroke-opacity:1"
         transform="matrix(1.3333333,0,0,-1.3333333,557.66133,104.50133)" />
      <path
         id="path50"
         d="m 2.5306172,-5.9296719 c 0.035156,-0.1289062 0.035156,-0.140625 0.035156,-0.1523437 0,-0.1171875 -0.1054687,-0.1640625 -0.1992187,-0.1640625 -0.035156,0 -0.046875,0 -0.058594,0.011719 l -1.1601562,0.046875 c -0.1289063,0.011719 -0.29296876,0.023437 -0.29296876,0.2695313 0,0.1640625 0.17578126,0.1640625 0.23437496,0.1640625 0.09375,0 0.2578125,0 0.375,0.023437 -0.070312,0.3046875 -0.1640625,0.6914062 -0.2460937,1.03125 l -0.62109376,2.484375 c -0.12890625,0.5039062 -0.12890625,0.609375 -0.12890625,0.8203125 0,1.14843748 0.85546871,1.46484373 1.52343751,1.46484373 1.640625,0 2.5664062,-1.46484373 2.5664062,-2.64843753 0,-1.1132812 -0.8320312,-1.4882812 -1.5820312,-1.4882812 -0.4335938,0 -0.7851563,0.1640625 -0.984375,0.28125 z m -0.515625,5.67187503 c -0.3515625,0 -0.6445313,-0.1875 -0.6445313,-0.73828125 0,-0.29296878 0.082031,-0.62109378 0.1523438,-0.90234378 0.082031,-0.3398437 0.2460937,-0.9609375 0.3046875,-1.2304687 0.046875,-0.1523438 0.5625,-0.609375 1.1015625,-0.609375 0.5625,0 0.609375,0.4804687 0.609375,0.6796875 0,0.46875 -0.3046875,1.5703125 -0.4570313,1.921875 -0.3046875,0.72656248 -0.8085937,0.87890623 -1.0664062,0.87890623 z m 0,0"
         style="fill:#d33682;fill-opacity:1;fill-rule:nonzero;stroke:none"
         aria-label="b"
         transform="matrix(1.3333333,0,0,1.3333333,554.536,222.05467)" />
      <path
         id="path51"
         d="M 21.26013,-48.89638 3e-5,-78.01724"
         style="fill:none;stroke:#586e75;stroke-width:0.79701;stroke-linecap:butt;stroke-linejoin:miter;stroke-miterlimit:10;stroke-dasharray:none;stroke-opacity:1"
         transform="matrix(1.3333333,0,0,-1.3333333,557.66133,104.50133)" />
      <path
         id="path52"
         d="m 4.4404531,-2.3906016 c 0,-0.9140625 -0.09375,-2.53125 -2.015625,-2.53125 -1.92187497,0 -2.01562497,1.6171875 -2.01562497,2.53125 0,0.9492188 0.1171875,2.48437504 2.01562497,2.48437504 1.8984375,0 2.015625,-1.52343754 2.015625,-2.48437504 z m -2.015625,2.13281254 c -0.2460937,0 -0.46875,-0.0820313 -0.6445312,-0.234375 -0.2109375,-0.17578125 -0.328125,-0.29296875 -0.328125,-1.99218754 0,-0.515625 0,-1.1132812 0.082031,-1.4648437 0.1171875,-0.4921875 0.5742188,-0.6210938 0.890625,-0.6210938 0.28125,0 0.7734375,0.1171875 0.890625,0.6328125 0.082031,0.3515625 0.082031,0.9726563 0.082031,1.453125 0,0.5273438 0,1.078125 -0.070312,1.50000004 -0.1054688,0.59765625 -0.6328125,0.7265625 -0.9023438,0.7265625 z m 0,0"
         style="fill:#d33682;fill-opacity:1;fill-rule:nonzero;stroke:none"
         aria-label="0"
         transform="matrix(1.3333333,0,0,1.3333333,560.16533,192.332)" />
      <path
         id="path53"
         d="m 48.49792,-85.04044 c 0,3.30141 -2.67625,5.97767 -5.97766,5.97767 -3.30142,0 -5.97766,-2.67626 -5.97766,-5.97767 0,-3.30142 2.67624,-5.97766 5.97766,-5.97766 3.30141,0 5.97766,2.67624 5.97766,5.97766 z"
         style="fill:none;stroke:#586e75;stroke-width:0.79701;stroke-linecap:butt;stroke-linejoin:miter;stroke-miterlimit:10;stroke-dasharray:none;stroke-opacity:1"
         transform="matrix(1.3333333,0,0,-1.3333333,557.66133,104.50133)" />
      <path
         id="path54"
         d="m 21.26013,-48.89638 21.26013,-29.7679"
         style="fill:none;stroke:#586e75;stroke-width:0.79701;stroke-linecap:butt;stroke-linejoin:miter;stroke-miterlimit:10;stroke-dasharray:none;stroke-opacity:1"
         transform="matrix(1.3333333,0,0,-1.3333333,557.66133,104.50133)" />
      <path
         id="path55"
         d="m 15.45009,-133.06033 h 11.62018 v 10.99936 H 15.45009 Z"
         style="fill:none;stroke:#586e75;stroke-width:0.79701;stroke-linecap:butt;stroke-linejoin:miter;stroke-miterlimit:10;stroke-dasharray:none;stroke-opacity:1"
         transform="matrix(1.3333333,0,0,-1.3333333,557.66133,104.50133)" />
      <path
         id="path56"
         d="m 3.8801719,-3.562 c -0.4804688,0.140625 -0.4804688,0.5976563 -0.4804688,0.609375 0,0.140625 0.070312,0.4101563 0.4453125,0.4101563 0.375,0 0.6445313,-0.3164063 0.6445313,-0.6914063 0,-0.46875 -0.46875,-0.8320312 -1.2539063,-0.8320312 -1.8164062,0 -2.82421872,1.40625 -2.82421872,2.578125 0,0.8085937 0.50390625,1.5585937 1.91015622,1.5585937 0.234375,0 0.8554688,-0.01171875 1.3945313,-0.2109375 0.5273437,-0.2109375 0.8789062,-0.57421875 0.8789062,-0.69140625 0,-0.0703125 -0.140625,-0.23437495 -0.2226562,-0.23437495 -0.046875,0 -0.070312,0.035156 -0.1289063,0.1054687 -0.4921875,0.515625 -1.1953125,0.703125 -1.8984375,0.703125 -0.5976562,0 -0.890625,-0.29296875 -0.890625,-0.8320312 0,-0.3164063 0.234375,-1.4179688 0.5039063,-1.875 0.3515625,-0.6210938 0.9023437,-0.7734375 1.2773437,-0.7734375 0.1171875,0 0.4101563,0 0.6445313,0.1757812 z m 0,0"
         style="fill:#d33682;fill-opacity:1;fill-rule:nonzero;stroke:none"
         aria-label="c"
         transform="matrix(1.3333333,0,0,1.3333333,582.928,277.24933)" />
      <path
         id="path57"
         d="M 42.52026,-91.4166 21.26018,-121.66248"
         style="fill:none;stroke:#586e75;stroke-width:0.79701;stroke-linecap:butt;stroke-linejoin:miter;stroke-miterlimit:10;stroke-dasharray:none;stroke-opacity:1"
         transform="matrix(1.3333333,0,0,-1.3333333,557.66133,104.50133)" />
      <path
         id="path58"
         d="m 4.4411953,-2.3896172 c 0,-0.9140625 -0.09375,-2.53125 -2.015625,-2.53125 -1.92187499,0 -2.01562499,1.6171875 -2.01562499,2.53125 0,0.9492188 0.1171875,2.48437501 2.01562499,2.48437501 1.8984375,0 2.015625,-1.52343751 2.015625,-2.48437501 z m -2.015625,2.13281251 c -0.2460937,0 -0.46875,-0.0820313 -0.6445312,-0.234375 -0.2109375,-0.17578125 -0.328125,-0.29296875 -0.328125,-1.99218751 0,-0.515625 0,-1.1132812 0.082031,-1.4648437 0.1171875,-0.4921875 0.5742188,-0.6210938 0.890625,-0.6210938 0.28125,0 0.7734375,0.1171875 0.890625,0.6328125 0.082031,0.3515625 0.082031,0.9726563 0.082031,1.453125 0,0.5273438 0,1.078125 -0.070312,1.50000001 -0.1054688,0.59765625 -0.6328125,0.7265625 -0.9023438,0.7265625 z m 0,0"
         style="fill:#d33682;fill-opacity:1;fill-rule:nonzero;stroke:none"
         aria-label="0"
         transform="matrix(1.3333333,0,0,1.3333333,588.512,249.776)" />
      <path
         id="path59"
         d="M 57.53697,-134.18535 H 70.0238 v 13.24937 H 57.53697 Z"
         style="fill:none;stroke:#586e75;stroke-width:0.79701;stroke-linecap:butt;stroke-linejoin:miter;stroke-miterlimit:10;stroke-dasharray:none;stroke-opacity:1"
         transform="matrix(1.3333333,0,0,-1.3333333,557.66133,104.50133)" />
      <path
         id="path60"
         d="m 5.4015703,-5.9291875 c 0.035156,-0.1289062 0.035156,-0.140625 0.035156,-0.1523437 0,-0.1171875 -0.1054688,-0.1640625 -0.1992188,-0.1640625 -0.035156,0 -0.046875,0 -0.058594,0.011719 L 4.0187578,-6.187 c -0.1289062,0.011719 -0.2929687,0.023437 -0.2929687,0.2695313 0,0.1640625 0.1640625,0.1640625 0.234375,0.1640625 0.09375,0 0.2578125,0 0.375,0.023437 l -0.4804688,1.9921875 c -0.140625,-0.1289063 -0.4335937,-0.328125 -0.9140625,-0.328125 -1.5585937,0 -2.53124999,1.4179687 -2.53124999,2.6484375 0,1.1132812 0.82031249,1.4882812 1.57031249,1.4882812 0.6328125,0 1.1015625,-0.3515625 1.2539063,-0.48046875 0.3398437,0.48046875 0.9375,0.48046875 1.03125,0.48046875 0.328125,0 0.5976562,-0.1875 0.7851562,-0.515625 0.2226563,-0.3515625 0.3398438,-0.84375 0.3398438,-0.890625 0,-0.1171875 -0.1289063,-0.1171875 -0.2109375,-0.1171875 -0.1054688,0 -0.140625,0 -0.1875,0.035156 -0.011719,0.023437 -0.011719,0.035156 -0.070312,0.2695312 -0.1757813,0.71484375 -0.3867188,0.890625 -0.609375,0.890625 -0.1054688,0 -0.2109375,-0.0351563 -0.2109375,-0.328125 0,-0.12890625 0.023437,-0.2578125 0.058594,-0.38671875 z m -2.2617187,5.09765625 c -0.2578125,0.3046875 -0.6796875,0.57421875 -1.1132813,0.57421875 -0.5625,0 -0.609375,-0.48046875 -0.609375,-0.6796875 0,-0.46875 0.3046875,-1.5703125 0.4570313,-1.921875 0.28125,-0.65625 0.7148437,-0.8789062 1.0898437,-0.8789062 0.5273438,0 0.7382813,0.421875 0.7382813,0.515625 L 3.6906328,-3.09325 Z m 0,0"
         style="fill:#d33682;fill-opacity:1;fill-rule:nonzero;stroke:none"
         aria-label="d"
         transform="matrix(1.3333333,0,0,1.3333333,639.044,278.74933)" />
      <path
         id="path61"
         d="M 42.52026,-91.4166 63.7804,-120.53746"
         style="fill:none;stroke:#586e75;stroke-width:0.79701;stroke-linecap:butt;stroke-linejoin:miter;stroke-miterlimit:10;stroke-dasharray:none;stroke-opacity:1"
         transform="matrix(1.3333333,0,0,-1.3333333,557.66133,104.50133)" />
      <path
         id="path62"
         d="m 2.9892031,-4.6518359 c 0,-0.2695313 -0.046875,-0.2695313 -0.3632812,-0.2695313 -0.46875,0.375 -1.078125,0.4804688 -1.67578127,0.4804688 h -0.1875 v 0.421875 h 0.1875 c 0.29296877,0 0.74999997,-0.058594 1.06640627,-0.1523438 v 3.75000001 H 0.83295313 V 5.078125e-4 C 1.1962344,-0.03464844 2.0985781,-0.03464844 2.5087344,-0.03464844 c 0.2695312,0 0.5390625,0.01171875 0.8085937,0.01171875 0.2226563,0 0.609375,0.01171875 0.8320313,0.0234375025 V -0.42136719 H 2.9892031 Z m 0,0"
         style="fill:#d33682;fill-opacity:1;fill-rule:nonzero;stroke:none"
         aria-label="1"
         transform="matrix(1.3333333,0,0,1.3333333,633.72533,249.02667)" />
      <path
         id="path63"
         d="m 2.9884609,-4.651125 c 0,-0.2695312 -0.046875,-0.2695312 -0.3632812,-0.2695312 -0.46875,0.375 -1.078125,0.4804687 -1.67578126,0.4804687 h -0.1875 v 0.421875 h 0.1875 c 0.29296876,0 0.74999996,-0.058594 1.06640626,-0.1523437 v 3.74999995 H 0.83221094 v 0.421875 C 1.1954922,-0.0339375 2.0978359,-0.0339375 2.5079922,-0.0339375 c 0.2695312,0 0.5390625,0.01171875 0.8085937,0.01171875 0.2226563,0 0.609375,0.01171875 0.8320313,0.0234375 v -0.421875 H 2.9884609 Z m 0,0"
         style="fill:#d33682;fill-opacity:1;fill-rule:nonzero;stroke:none"
         aria-label="1"
         transform="matrix(1.3333333,0,0,1.3333333,605.37867,192.764)" />
      <path
         id="path64"
         d="m 2.9877188,-4.6526094 c 0,-0.2695312 -0.046875,-0.2695312 -0.3632813,-0.2695312 -0.46875,0.375 -1.078125,0.4804687 -1.67578125,0.4804687 h -0.1875 v 0.421875 h 0.1875 c 0.29296875,0 0.75000005,-0.058594 1.06640625,-0.1523437 v 3.74999998 H 0.83146875 V -2.65625e-4 C 1.19475,-0.03542187 2.0970938,-0.03542187 2.50725,-0.03542187 c 0.2695313,0 0.5390625,0.01171875 0.8085938,0.01171875 0.2226562,0 0.609375,0.01171875 0.8320312,0.023437495 V -0.42214062 H 2.9877188 Z m 0,0"
         style="fill:#d33682;fill-opacity:1;fill-rule:nonzero;stroke:none"
         aria-label="1"
         transform="matrix(1.3333333,0,0,1.3333333,577.032,136.07067)" />
    </g>
    <g
       id="g146">
      <path
         id="path65"
         d="M 5.97766,0 C 5.97766,3.3014 3.3014,5.97766 0,5.97766 -3.3014,5.97766 -5.97766,3.3014 -5.97766,0 c 0,-3.3014 2.67626,-5.97766 5.97766,-5.97766 3.3014,0 5.97766,2.67626 5.97766,5.97766 z"
         style="fill:none;stroke:#586e75;stroke-width:0.79701;stroke-linecap:butt;stroke-linejoin:miter;stroke-miterlimit:10;stroke-dasharray:none;stroke-opacity:1"
         transform="matrix(1.3333333,0,0,-1.3333333,419.58533,324.32667)" />
      <path
         id="path66"
         d="m -19.53448,-42.52022 c 0,3.30142 -2.67626,5.97766 -5.97767,5.97766 -3.30142,0 -5.97765,-2.67624 -5.97765,-5.97766 0,-3.3014 2.67623,-5.97766 5.97765,-5.97766 3.30141,0 5.97767,2.67626 5.97767,5.97766 z"
         style="fill:none;stroke:#586e75;stroke-width:0.79701;stroke-linecap:butt;stroke-linejoin:miter;stroke-miterlimit:10;stroke-dasharray:none;stroke-opacity:1"
         transform="matrix(1.3333333,0,0,-1.3333333,419.58533,324.32667)" />
      <path
         id="path67"
         d="M 0,-6.37616 -25.51215,-36.14404"
         style="fill:none;stroke:#586e75;stroke-width:0.79701;stroke-linecap:butt;stroke-linejoin:miter;stroke-miterlimit:10;stroke-dasharray:none;stroke-opacity:1"
         transform="matrix(1.3333333,0,0,-1.3333333,419.58533,324.32667)" />
      <path
         id="path68"
         d="m -48.86778,-90.54012 h 12.69516 v 10.99936 h -12.69516 z"
         style="fill:none;stroke:#586e75;stroke-width:0.79701;stroke-linecap:butt;stroke-linejoin:miter;stroke-miterlimit:10;stroke-dasharray:none;stroke-opacity:1"
         transform="matrix(1.3333333,0,0,-1.3333333,419.58533,324.32667)" />
      <path
         id="path69"
         d="m 4.6399375,-2.8484766 c 0.046875,-0.234375 0.140625,-0.5859375 0.140625,-0.6679687 0,-0.2929688 -0.234375,-0.3984375 -0.421875,-0.3984375 -0.1757812,0 -0.3515625,0.09375 -0.4570312,0.2226562 -0.140625,-0.140625 -0.4335938,-0.375 -0.9609375,-0.375 -1.5585938,0 -2.53125005,1.4179688 -2.53125005,2.6484375 0,1.11328129 0.82031255,1.48828129 1.57031255,1.48828129 0.6328125,0 1.1015625,-0.3515625 1.2539062,-0.48046875 0.3398438,0.48046875 0.9375,0.48046875 1.03125,0.48046875 0.328125,0 0.5976563,-0.1875 0.7851563,-0.515625 0.2226562,-0.3515625 0.3398437,-0.84374999 0.3398437,-0.89062499 0,-0.1171875 -0.1289062,-0.1171875 -0.2109375,-0.1171875 -0.1054687,0 -0.140625,0 -0.1875,0.035156 -0.011719,0.023437 -0.011719,0.035156 -0.070312,0.2695313 -0.1757812,0.71484374 -0.3867187,0.89062499 -0.609375,0.89062499 -0.1054687,0 -0.2109375,-0.0351563 -0.2109375,-0.328125 0,-0.15234375 0.035156,-0.29296875 0.1289063,-0.65624999 C 4.288375,-1.4891016 4.382125,-1.8523828 4.429,-2.0516016 Z m -1.5,2.01562504 c -0.2578125,0.3046875 -0.6796875,0.57421875 -1.1132812,0.57421875 -0.5625,0 -0.609375,-0.48046875 -0.609375,-0.6796875 0,-0.46874999 0.3046875,-1.57031249 0.4570312,-1.92187499 0.28125,-0.65625 0.7148438,-0.8789063 1.0898438,-0.8789063 0.5273437,0 0.7382812,0.421875 0.7382812,0.515625 l -0.011719,0.1289063 z m 0,0"
         style="fill:#d33682;fill-opacity:1;fill-rule:nonzero;stroke:none"
         aria-label="a"
         transform="matrix(1.3333333,0,0,1.3333333,359.09467,440.38)" />
      <path
         id="path70"
         d="M -25.51215,-48.89638 -42.5202,-79.14226"
         style="fill:none;stroke:#586e75;stroke-width:0.79701;stroke-linecap:butt;stroke-linejoin:miter;stroke-miterlimit:10;stroke-dasharray:none;stroke-opacity:1"
         transform="matrix(1.3333333,0,0,-1.3333333,419.58533,324.32667)" />
      <path
         id="path71"
         d="m 4.4403516,-2.3919375 c 0,-0.9140625 -0.09375,-2.53125 -2.015625,-2.53125 -1.92187504,0 -2.01562504,1.6171875 -2.01562504,2.53125 0,0.9492188 0.1171875,2.484375 2.01562504,2.484375 1.8984375,0 2.015625,-1.5234375 2.015625,-2.484375 z m -2.015625,2.1328125 c -0.2460938,0 -0.46875,-0.0820313 -0.6445313,-0.234375 -0.2109375,-0.17578125 -0.328125,-0.29296875 -0.328125,-1.9921875 0,-0.515625 0,-1.1132812 0.082031,-1.4648437 0.1171875,-0.4921875 0.5742187,-0.6210938 0.890625,-0.6210938 0.28125,0 0.7734375,0.1171875 0.890625,0.6328125 0.082031,0.3515625 0.082031,0.9726563 0.082031,1.453125 0,0.5273438 0,1.078125 -0.070312,1.5 -0.1054687,0.59765625 -0.6328125,0.7265625 -0.9023437,0.7265625 z m 0,0"
         style="fill:#d33682;fill-opacity:1;fill-rule:nonzero;stroke:none"
         aria-label="0"
         transform="matrix(1.3333333,0,0,1.3333333,362.56,412.908)" />
      <path
         id="path72"
         d="m -14.34752,-91.66513 h 11.68681 v 13.24937 h -11.68681 z"
         style="fill:none;stroke:#586e75;stroke-width:0.79701;stroke-linecap:butt;stroke-linejoin:miter;stroke-miterlimit:10;stroke-dasharray:none;stroke-opacity:1"
         transform="matrix(1.3333333,0,0,-1.3333333,419.58533,324.32667)" />
      <path
         id="path73"
         d="m 2.5310703,-5.9305078 c 0.035156,-0.1289063 0.035156,-0.140625 0.035156,-0.1523438 0,-0.1171875 -0.1054688,-0.1640625 -0.1992188,-0.1640625 -0.035156,0 -0.046875,0 -0.058594,0.011719 l -1.1601563,0.046875 c -0.1289062,0.011719 -0.29296874,0.023437 -0.29296874,0.2695312 0,0.1640625 0.17578124,0.1640625 0.23437504,0.1640625 0.09375,0 0.2578125,0 0.375,0.023437 -0.070312,0.3046875 -0.1640625,0.6914063 -0.2460938,1.03125 l -0.62109374,2.484375 c -0.12890625,0.5039063 -0.12890625,0.609375 -0.12890625,0.8203125 0,1.14843754 0.85546879,1.46484379 1.52343749,1.46484379 1.640625,0 2.5664063,-1.46484379 2.5664063,-2.64843749 0,-1.1132813 -0.8320313,-1.4882813 -1.5820313,-1.4882813 -0.4335937,0 -0.7851562,0.1640625 -0.984375,0.28125 z m -0.515625,5.67187499 c -0.3515625,0 -0.6445312,-0.1875 -0.6445312,-0.73828125 0,-0.29296874 0.082031,-0.62109374 0.1523437,-0.90234374 0.082031,-0.3398438 0.2460938,-0.9609375 0.3046875,-1.2304688 0.046875,-0.1523437 0.5625,-0.609375 1.1015625,-0.609375 0.5625,0 0.609375,0.4804688 0.609375,0.6796875 0,0.46875 -0.3046875,1.5703125 -0.4570312,1.921875 -0.3046875,0.72656254 -0.8085938,0.87890629 -1.0664063,0.87890629 z m 0,0"
         style="fill:#d33682;fill-opacity:1;fill-rule:nonzero;stroke:none"
         aria-label="b"
         transform="matrix(1.3333333,0,0,1.3333333,405.12133,441.88)" />
      <path
         id="path74"
         d="M -25.51215,-48.89638 -8.5041,-78.01724"
         style="fill:none;stroke:#586e75;stroke-width:0.79701;stroke-linecap:butt;stroke-linejoin:miter;stroke-miterlimit:10;stroke-dasharray:none;stroke-opacity:1"
         transform="matrix(1.3333333,0,0,-1.3333333,419.58533,324.32667)" />
      <path
         id="path75"
         d="m 2.9883828,-4.6531562 c 0,-0.2695313 -0.046875,-0.2695313 -0.3632812,-0.2695313 -0.46875,0.375 -1.078125,0.4804688 -1.67578129,0.4804688 h -0.1875 v 0.421875 h 0.1875 c 0.29296879,0 0.74999999,-0.058594 1.06640629,-0.1523438 v 3.75 H 0.83213281 v 0.421875 C 1.1954141,-0.03596875 2.0977578,-0.03596875 2.5079141,-0.03596875 c 0.2695312,0 0.5390625,0.01171875 0.8085937,0.01171875 0.2226563,0 0.609375,0.01171875 0.8320313,0.0234375 v -0.421875 H 2.9883828 Z m 0,0"
         style="fill:#d33682;fill-opacity:1;fill-rule:nonzero;stroke:none"
         aria-label="1"
         transform="matrix(1.3333333,0,0,1.3333333,402.10533,412.15733)" />
      <path
         id="path76"
         d="m 4.4400937,-2.3917266 c 0,-0.9140625 -0.09375,-2.53125 -2.015625,-2.53125 -1.92187495,0 -2.01562495,1.6171875 -2.01562495,2.53125 0,0.9492188 0.1171875,2.48437504 2.01562495,2.48437504 1.8984375,0 2.015625,-1.52343754 2.015625,-2.48437504 z m -2.015625,2.13281254 c -0.2460937,0 -0.46875,-0.0820313 -0.6445312,-0.234375 C 1.569,-0.66907031 1.4518125,-0.78625781 1.4518125,-2.4854766 c 0,-0.515625 0,-1.1132812 0.082031,-1.4648437 0.1171875,-0.4921875 0.5742188,-0.6210938 0.890625,-0.6210938 0.28125,0 0.7734375,0.1171875 0.890625,0.6328125 0.082031,0.3515625 0.082031,0.9726563 0.082031,1.453125 0,0.5273438 0,1.078125 -0.070312,1.50000004 -0.1054688,0.59765625 -0.6328125,0.7265625 -0.9023438,0.7265625 z m 0,0"
         style="fill:#d33682;fill-opacity:1;fill-rule:nonzero;stroke:none"
         aria-label="0"
         transform="matrix(1.3333333,0,0,1.3333333,390.908,355.896)" />
      <path
         id="path77"
         d="m 31.48985,-42.52022 c 0,3.30142 -2.67624,5.97766 -5.97766,5.97766 -3.30141,0 -5.97766,-2.67624 -5.97766,-5.97766 0,-3.3014 2.67625,-5.97766 5.97766,-5.97766 3.30142,0 5.97766,2.67626 5.97766,5.97766 z"
         style="fill:none;stroke:#586e75;stroke-width:0.79701;stroke-linecap:butt;stroke-linejoin:miter;stroke-miterlimit:10;stroke-dasharray:none;stroke-opacity:1"
         transform="matrix(1.3333333,0,0,-1.3333333,419.58533,324.32667)" />
      <path
         id="path78"
         d="M 0,-6.37616 25.51219,-36.14404"
         style="fill:none;stroke:#586e75;stroke-width:0.79701;stroke-linecap:butt;stroke-linejoin:miter;stroke-miterlimit:10;stroke-dasharray:none;stroke-opacity:1"
         transform="matrix(1.3333333,0,0,-1.3333333,419.58533,324.32667)" />
      <path
         id="path79"
         d="m 19.7021,-90.54012 h 11.62018 v 10.99936 H 19.7021 Z"
         style="fill:none;stroke:#586e75;stroke-width:0.79701;stroke-linecap:butt;stroke-linejoin:miter;stroke-miterlimit:10;stroke-dasharray:none;stroke-opacity:1"
         transform="matrix(1.3333333,0,0,-1.3333333,419.58533,324.32667)" />
      <path
         id="path80"
         d="m 3.8775547,-3.5633203 c -0.4804688,0.140625 -0.4804688,0.5976562 -0.4804688,0.609375 0,0.140625 0.070312,0.4101562 0.4453125,0.4101562 0.375,0 0.6445313,-0.3164062 0.6445313,-0.6914062 0,-0.46875 -0.46875,-0.8320313 -1.2539063,-0.8320313 -1.8164062,0 -2.82421871,1.40625 -2.82421871,2.578125 0,0.80859379 0.50390625,1.55859379 1.91015621,1.55859379 0.234375,0 0.8554688,-0.01171875 1.3945313,-0.2109375 0.5273437,-0.2109375 0.8789062,-0.57421875 0.8789062,-0.69140625 0,-0.0703125 -0.140625,-0.23437504 -0.2226562,-0.23437504 -0.046875,0 -0.070312,0.035156 -0.1289063,0.10546879 -0.4921875,0.515625 -1.1953125,0.703125 -1.8984375,0.703125 -0.5976562,0 -0.890625,-0.29296875 -0.890625,-0.83203129 0,-0.3164062 0.234375,-1.4179687 0.5039063,-1.875 0.3515625,-0.6210937 0.9023437,-0.7734375 1.2773437,-0.7734375 0.1171875,0 0.4101563,0 0.6445313,0.1757813 z m 0,0"
         style="fill:#d33682;fill-opacity:1;fill-rule:nonzero;stroke:none"
         aria-label="c"
         transform="matrix(1.3333333,0,0,1.3333333,450.52133,440.38)" />
      <path
         id="path81"
         d="M 25.51219,-48.89638 V -79.14226"
         style="fill:none;stroke:#586e75;stroke-width:0.79701;stroke-linecap:butt;stroke-linejoin:miter;stroke-miterlimit:10;stroke-dasharray:none;stroke-opacity:1"
         transform="matrix(1.3333333,0,0,-1.3333333,419.58533,324.32667)" />
      <path
         id="path82"
         d="m 4.4426016,-2.3919375 c 0,-0.9140625 -0.09375,-2.53125 -2.015625,-2.53125 -1.92187504,0 -2.01562504,1.6171875 -2.01562504,2.53125 0,0.9492188 0.1171875,2.484375 2.01562504,2.484375 1.8984375,0 2.015625,-1.5234375 2.015625,-2.484375 z m -2.015625,2.1328125 c -0.2460938,0 -0.46875,-0.0820313 -0.6445313,-0.234375 -0.2109375,-0.17578125 -0.328125,-0.29296875 -0.328125,-1.9921875 0,-0.515625 0,-1.1132812 0.082031,-1.4648437 0.1171875,-0.4921875 0.5742187,-0.6210938 0.890625,-0.6210938 0.28125,0 0.7734375,0.1171875 0.890625,0.6328125 0.082031,0.3515625 0.082031,0.9726563 0.082031,1.453125 0,0.5273438 0,1.078125 -0.070312,1.5 -0.1054687,0.59765625 -0.6328125,0.7265625 -0.9023437,0.7265625 z m 0,0"
         style="fill:#d33682;fill-opacity:1;fill-rule:nonzero;stroke:none"
         aria-label="0"
         transform="matrix(1.3333333,0,0,1.3333333,441.932,412.908)" />
      <path
         id="path83"
         d="m 4.4402031,-2.3917266 c 0,-0.9140625 -0.09375,-2.53125 -2.015625,-2.53125 -1.92187497,0 -2.01562497,1.6171875 -2.01562497,2.53125 0,0.9492188 0.1171875,2.48437504 2.01562497,2.48437504 1.8984375,0 2.015625,-1.52343754 2.015625,-2.48437504 z m -2.015625,2.13281254 c -0.2460937,0 -0.46875,-0.0820313 -0.6445312,-0.234375 -0.2109375,-0.17578125 -0.328125,-0.29296875 -0.328125,-1.99218754 0,-0.515625 0,-1.1132812 0.082031,-1.4648437 0.1171875,-0.4921875 0.5742188,-0.6210938 0.890625,-0.6210938 0.28125,0 0.7734375,0.1171875 0.890625,0.6328125 0.082031,0.3515625 0.082031,0.9726563 0.082031,1.453125 0,0.5273438 0,1.078125 -0.070312,1.50000004 -0.1054688,0.59765625 -0.6328125,0.7265625 -0.9023438,0.7265625 z m 0,0"
         style="fill:#d33682;fill-opacity:1;fill-rule:nonzero;stroke:none"
         aria-label="0"
         transform="matrix(1.3333333,0,0,1.3333333,441.79067,355.896)" />
    </g>
    <path
       id="path84"
       d="m -15.28242,-42.52022 c 0,3.30142 -2.67624,5.97766 -5.97767,5.97766 -3.30141,0 -5.97766,-2.67624 -5.97766,-5.97766 0,-3.3014 2.67625,-5.97766 5.97766,-5.97766 3.30143,0 5.97767,2.67626 5.97767,5.97766 z"
       style="fill:none;stroke:#586e75;stroke-width:0.79701;stroke-linecap:butt;stroke-linejoin:miter;stroke-miterlimit:10;stroke-dasharray:none;stroke-opacity:1"
       transform="matrix(1.3333333,0,0,-1.3333333,297.504,483.62267)" />
    <path
       id="path85"
       d="M 0,-3.69891 -21.26009,-36.14404"
       style="fill:none;stroke:#586e75;stroke-width:0.3985;stroke-linecap:butt;stroke-linejoin:miter;stroke-miterlimit:10;stroke-dasharray:none;stroke-opacity:1"
       transform="matrix(1.3333333,0,0,-1.3333333,297.504,483.62267)" />
    <path
       id="path86"
       d="m -36.54251,-85.04044 c 0,3.30141 -2.67624,5.97767 -5.97766,5.97767 -3.30141,0 -5.97766,-2.67626 -5.97766,-5.97767 0,-3.30142 2.67625,-5.97766 5.97766,-5.97766 3.30142,0 5.97766,2.67624 5.97766,5.97766 z"
       style="fill:none;stroke:#586e75;stroke-width:0.79701;stroke-linecap:butt;stroke-linejoin:miter;stroke-miterlimit:10;stroke-dasharray:none;stroke-opacity:1"
       transform="matrix(1.3333333,0,0,-1.3333333,297.504,483.62267)" />
    <path
       id="path87"
       d="m -21.26009,-48.89638 -21.26008,-29.7679"
       style="fill:none;stroke:#586e75;stroke-width:0.3985;stroke-linecap:butt;stroke-linejoin:miter;stroke-miterlimit:10;stroke-dasharray:none;stroke-opacity:1"
       transform="matrix(1.3333333,0,0,-1.3333333,297.504,483.62267)" />
    <path
       id="path88"
       d="m -70.12784,-133.06033 h 12.69516 v 10.99936 h -12.69516 z"
       style="fill:none;stroke:#586e75;stroke-width:0.79701;stroke-linecap:butt;stroke-linejoin:miter;stroke-miterlimit:10;stroke-dasharray:none;stroke-opacity:1"
       transform="matrix(1.3333333,0,0,-1.3333333,297.504,483.62267)" />
    <path
       id="path89"
       d="m 4.6416016,-2.8473359 c 0.046875,-0.234375 0.140625,-0.5859375 0.140625,-0.6679688 0,-0.2929687 -0.234375,-0.3984375 -0.421875,-0.3984375 -0.1757813,0 -0.3515625,0.09375 -0.4570313,0.2226563 -0.140625,-0.140625 -0.4335937,-0.375 -0.9609375,-0.375 -1.5585937,0 -2.53124999,1.4179687 -2.53124999,2.6484375 0,1.11328121 0.82031249,1.48828121 1.57031249,1.48828121 0.6328125,0 1.1015625,-0.3515625 1.2539063,-0.48046875 0.3398437,0.48046875 0.9375,0.48046875 1.03125,0.48046875 0.328125,0 0.5976562,-0.1875 0.7851562,-0.515625 0.2226563,-0.3515625 0.3398438,-0.84375001 0.3398438,-0.89062501 0,-0.1171875 -0.1289063,-0.1171875 -0.2109375,-0.1171875 -0.1054688,0 -0.140625,0 -0.1875,0.035156 -0.011719,0.023437 -0.011719,0.035156 -0.070312,0.2695312 -0.1757813,0.71484376 -0.3867188,0.89062501 -0.609375,0.89062501 -0.1054688,0 -0.2109375,-0.0351563 -0.2109375,-0.328125 0,-0.15234375 0.035156,-0.29296875 0.1289062,-0.65625001 0.058594,-0.2460937 0.1523438,-0.609375 0.1992188,-0.8085937 z m -1.5,2.01562496 c -0.2578125,0.3046875 -0.6796875,0.57421875 -1.1132813,0.57421875 -0.5625,0 -0.609375,-0.48046875 -0.609375,-0.6796875 0,-0.46875001 0.3046875,-1.57031251 0.4570313,-1.92187501 0.28125,-0.65625 0.7148437,-0.8789062 1.0898437,-0.8789062 0.5273438,0 0.7382813,0.421875 0.7382813,0.515625 l -0.011719,0.1289062 z m 0,0"
       style="fill:#d33682;fill-opacity:1;fill-rule:nonzero;stroke:none"
       aria-label="a"
       transform="matrix(1.3333333,0,0,1.3333333,208.66667,656.37067)" />
    <path
       id="path90"
       d="m -42.52017,-91.4166 -21.26009,-30.24588"
       style="fill:none;stroke:#586e75;stroke-width:0.3985;stroke-linecap:butt;stroke-linejoin:miter;stroke-miterlimit:10;stroke-dasharray:none;stroke-opacity:1"
       transform="matrix(1.3333333,0,0,-1.3333333,297.504,483.62267)" />
    <path
       id="path91"
       d="m 4.4421875,-2.3897969 c 0,-0.9140625 -0.09375,-2.53125 -2.015625,-2.53125 -1.921875,0 -2.015625,1.6171875 -2.015625,2.53125 0,0.9492188 0.1171875,2.48437502 2.015625,2.48437502 1.8984375,0 2.015625,-1.52343752 2.015625,-2.48437502 z m -2.015625,2.13281252 c -0.2460938,0 -0.46875,-0.0820313 -0.6445313,-0.234375 -0.2109375,-0.17578125 -0.328125,-0.29296875 -0.328125,-1.99218752 0,-0.515625 0,-1.1132812 0.082031,-1.4648437 0.1171875,-0.4921875 0.5742187,-0.6210938 0.890625,-0.6210938 0.28125,0 0.7734375,0.1171875 0.890625,0.6328125 0.082031,0.3515625 0.082031,0.9726563 0.082031,1.453125 0,0.5273438 0,1.078125 -0.070312,1.50000002 -0.1054687,0.59765625 -0.6328125,0.7265625 -0.9023437,0.7265625 z m 0,0"
       style="fill:#d33682;fill-opacity:1;fill-rule:nonzero;stroke:none"
       aria-label="0"
       transform="matrix(1.3333333,0,0,1.3333333,215.23333,628.89733)" />
    <path
       id="path92"
       d="m -27.10345,-134.18535 h 11.68681 v 13.24937 h -11.68681 z"
       style="fill:none;stroke:#586e75;stroke-width:0.79701;stroke-linecap:butt;stroke-linejoin:miter;stroke-miterlimit:10;stroke-dasharray:none;stroke-opacity:1"
       transform="matrix(1.3333333,0,0,-1.3333333,297.504,483.62267)" />
    <path
       id="path93"
       d="m 2.5306875,-5.9293672 c 0.035156,-0.1289062 0.035156,-0.140625 0.035156,-0.1523437 0,-0.1171875 -0.1054687,-0.1640625 -0.1992187,-0.1640625 -0.035156,0 -0.046875,0 -0.058594,0.011719 l -1.1601562,0.046875 c -0.1289063,0.011719 -0.29296875,0.023437 -0.29296875,0.2695313 0,0.1640625 0.17578125,0.1640625 0.23437495,0.1640625 0.09375,0 0.2578125,0 0.375,0.023437 -0.070312,0.3046875 -0.1640625,0.6914062 -0.2460937,1.03125 l -0.62109375,2.484375 c -0.12890625,0.5039062 -0.12890625,0.609375 -0.12890625,0.8203125 0,1.14843746 0.8554687,1.46484371 1.5234375,1.46484371 1.640625,0 2.5664062,-1.46484371 2.5664062,-2.64843751 0,-1.1132812 -0.8320312,-1.4882812 -1.5820312,-1.4882812 -0.4335938,0 -0.7851563,0.1640625 -0.984375,0.28125 z m -0.515625,5.67187501 c -0.3515625,0 -0.6445313,-0.1875 -0.6445313,-0.73828125 0,-0.29296876 0.082031,-0.62109376 0.1523438,-0.90234376 0.082031,-0.3398437 0.2460937,-0.9609375 0.3046875,-1.2304687 0.046875,-0.1523438 0.5625,-0.609375 1.1015625,-0.609375 0.5625,0 0.609375,0.4804687 0.609375,0.6796875 0,0.46875 -0.3046875,1.5703125 -0.4570313,1.921875 -0.3046875,0.72656246 -0.8085937,0.87890621 -1.0664062,0.87890621 z m 0,0"
       style="fill:#d33682;fill-opacity:1;fill-rule:nonzero;stroke:none"
       aria-label="b"
       transform="matrix(1.3333333,0,0,1.3333333,266.032,657.87067)" />
    <path
       id="path94"
       d="m -42.52017,-91.4166 21.26013,-29.12086"
       style="fill:none;stroke:#586e75;stroke-width:0.3985;stroke-linecap:butt;stroke-linejoin:miter;stroke-miterlimit:10;stroke-dasharray:none;stroke-opacity:1"
       transform="matrix(1.3333333,0,0,-1.3333333,297.504,483.62267)" />
    <path
       id="path95"
       d="m 2.9868281,-4.6520156 c 0,-0.2695313 -0.046875,-0.2695313 -0.3632812,-0.2695313 -0.46875,0.375 -1.078125,0.4804688 -1.67578128,0.4804688 h -0.1875 v 0.421875 h 0.1875 c 0.29296878,0 0.74999998,-0.058594 1.06640628,-0.1523438 v 3.75000003 H 0.83057812 V 3.28125e-4 C 1.1938594,-0.03482812 2.0962031,-0.03482812 2.5063594,-0.03482812 c 0.2695312,0 0.5390625,0.01171875 0.8085937,0.01171875 0.2226563,0 0.609375,0.01171875 0.8320313,0.023437495 V -0.42154687 H 2.9868281 Z m 0,0"
       style="fill:#d33682;fill-opacity:1;fill-rule:nonzero;stroke:none"
       aria-label="1"
       transform="matrix(1.3333333,0,0,1.3333333,259.916,628.148)" />
    <path
       id="path96"
       d="m 4.44,-2.3895859 c 0,-0.9140625 -0.09375,-2.53125 -2.015625,-2.53125 -1.921875,0 -2.015625,1.6171875 -2.015625,2.53125 0,0.9492187 0.1171875,2.48437496 2.015625,2.48437496 1.8984375,0 2.015625,-1.52343746 2.015625,-2.48437496 z m -2.015625,2.13281246 c -0.2460938,0 -0.46875,-0.0820313 -0.6445313,-0.234375 -0.2109375,-0.17578125 -0.328125,-0.29296875 -0.328125,-1.99218746 0,-0.515625 0,-1.1132813 0.082031,-1.4648438 0.1171875,-0.4921875 0.5742187,-0.6210937 0.890625,-0.6210937 0.28125,0 0.7734375,0.1171875 0.890625,0.6328125 0.082031,0.3515625 0.082031,0.9726562 0.082031,1.453125 0,0.5273437 0,1.078125 -0.070312,1.49999996 -0.1054687,0.59765625 -0.6328125,0.7265625 -0.9023437,0.7265625 z m 0,0"
       style="fill:#d33682;fill-opacity:1;fill-rule:nonzero;stroke:none"
       aria-label="0"
       transform="matrix(1.3333333,0,0,1.3333333,243.58,571.88533)" />
    <path
       id="path97"
       d="m 5.97769,-85.04044 c 0,3.30141 -2.67624,5.97767 -5.97766,5.97767 -3.30139,0 -5.97765,-2.67626 -5.97765,-5.97767 0,-3.30142 2.67626,-5.97766 5.97765,-5.97766 3.30142,0 5.97766,2.67624 5.97766,5.97766 z"
       style="fill:none;stroke:#586e75;stroke-width:0.79701;stroke-linecap:butt;stroke-linejoin:miter;stroke-miterlimit:10;stroke-dasharray:none;stroke-opacity:1"
       transform="matrix(1.3333333,0,0,-1.3333333,297.504,483.62267)" />
    <path
       id="path98"
       d="M -21.26009,-48.89638 3e-5,-78.66428"
       style="fill:none;stroke:#586e75;stroke-width:0.3985;stroke-linecap:butt;stroke-linejoin:miter;stroke-miterlimit:10;stroke-dasharray:none;stroke-opacity:1"
       transform="matrix(1.3333333,0,0,-1.3333333,297.504,483.62267)" />
    <path
       id="path99"
       d="m -27.07013,-133.06033 h 11.62018 v 10.99936 h -11.62018 z"
       style="fill:none;stroke:#586e75;stroke-width:0.79701;stroke-linecap:butt;stroke-linejoin:miter;stroke-miterlimit:10;stroke-dasharray:none;stroke-opacity:1"
       transform="matrix(1.3333333,0,0,-1.3333333,297.504,483.62267)" />
    <path
       id="path100"
       d="m 3.8795,-3.5621797 c -0.4804687,0.140625 -0.4804687,0.5976563 -0.4804687,0.609375 0,0.140625 0.070312,0.4101563 0.4453125,0.4101563 0.375,0 0.6445312,-0.3164063 0.6445312,-0.6914063 0,-0.46875 -0.46875,-0.8320312 -1.2539062,-0.8320312 -1.8164063,0 -2.8242188,1.40625 -2.8242188,2.578125 0,0.80859371 0.50390625,1.55859371 1.9101563,1.55859371 0.234375,0 0.8554687,-0.01171875 1.3945312,-0.2109375 0.5273438,-0.2109375 0.8789063,-0.57421875 0.8789063,-0.69140625 0,-0.0703125 -0.140625,-0.23437496 -0.2226563,-0.23437496 -0.046875,0 -0.070312,0.035156 -0.1289062,0.10546871 -0.4921875,0.515625 -1.1953125,0.703125 -1.8984375,0.703125 -0.5976563,0 -0.890625,-0.29296875 -0.890625,-0.83203121 0,-0.3164063 0.234375,-1.4179688 0.5039062,-1.875 0.3515625,-0.6210938 0.9023438,-0.7734375 1.2773438,-0.7734375 0.1171875,0 0.4101562,0 0.6445312,0.1757812 z m 0,0"
       style="fill:#d33682;fill-opacity:1;fill-rule:nonzero;stroke:none"
       aria-label="c"
       transform="matrix(1.3333333,0,0,1.3333333,266.07733,656.37067)" />
    <path
       id="path101"
       d="m 3e-5,-91.4166 -21.26007,-30.24588"
       style="fill:none;stroke:#586e75;stroke-width:0.3985;stroke-linecap:butt;stroke-linejoin:miter;stroke-miterlimit:10;stroke-dasharray:none;stroke-opacity:1"
       transform="matrix(1.3333333,0,0,-1.3333333,297.504,483.62267)" />
    <path
       id="path102"
       d="m 4.4407422,-2.3897969 c 0,-0.9140625 -0.09375,-2.53125 -2.015625,-2.53125 -1.92187501,0 -2.01562501,1.6171875 -2.01562501,2.53125 0,0.9492188 0.1171875,2.48437502 2.01562501,2.48437502 1.8984375,0 2.015625,-1.52343752 2.015625,-2.48437502 z m -2.015625,2.13281252 c -0.2460938,0 -0.46875,-0.0820313 -0.6445313,-0.234375 -0.2109375,-0.17578125 -0.328125,-0.29296875 -0.328125,-1.99218752 0,-0.515625 0,-1.1132812 0.082031,-1.4648437 0.1171875,-0.4921875 0.5742187,-0.6210938 0.890625,-0.6210938 0.28125,0 0.7734375,0.1171875 0.890625,0.6328125 0.082031,0.3515625 0.082031,0.9726563 0.082031,1.453125 0,0.5273438 0,1.078125 -0.070312,1.50000002 -0.1054687,0.59765625 -0.6328125,0.7265625 -0.9023437,0.7265625 z m 0,0"
       style="fill:#d33682;fill-opacity:1;fill-rule:nonzero;stroke:none"
       aria-label="0"
       transform="matrix(1.3333333,0,0,1.3333333,271.92667,628.89733)" />
    <path
       id="path103"
       d="m 15.01675,-134.18535 h 12.48683 v 13.24937 H 15.01675 Z"
       style="fill:none;stroke:#586e75;stroke-width:0.79701;stroke-linecap:butt;stroke-linejoin:miter;stroke-miterlimit:10;stroke-dasharray:none;stroke-opacity:1"
       transform="matrix(1.3333333,0,0,-1.3333333,297.504,483.62267)" />
    <path
       id="path104"
       d="m 5.4018984,-5.9293672 c 0.035156,-0.1289062 0.035156,-0.140625 0.035156,-0.1523437 0,-0.1171875 -0.1054688,-0.1640625 -0.1992188,-0.1640625 -0.035156,0 -0.046875,0 -0.058594,0.011719 l -1.1601563,0.046875 c -0.1289062,0.011719 -0.2929687,0.023437 -0.2929687,0.2695313 0,0.1640625 0.1640625,0.1640625 0.234375,0.1640625 0.09375,0 0.2578125,0 0.375,0.023437 l -0.4804688,1.9921875 c -0.140625,-0.1289063 -0.4335937,-0.328125 -0.9140625,-0.328125 -1.5585937,0 -2.53124996,1.4179687 -2.53124996,2.6484375 0,1.11328121 0.82031246,1.48828121 1.57031246,1.48828121 0.6328125,0 1.1015625,-0.3515625 1.2539063,-0.48046875 0.3398437,0.48046875 0.9375,0.48046875 1.03125,0.48046875 0.328125,0 0.5976562,-0.1875 0.7851562,-0.515625 0.2226563,-0.3515625 0.3398438,-0.84375001 0.3398438,-0.89062501 0,-0.1171875 -0.1289063,-0.1171875 -0.2109375,-0.1171875 -0.1054688,0 -0.140625,0 -0.1875,0.035156 -0.011719,0.023437 -0.011719,0.035156 -0.070312,0.2695312 -0.1757813,0.71484376 -0.3867188,0.89062501 -0.609375,0.89062501 -0.1054688,0 -0.2109375,-0.0351563 -0.2109375,-0.328125 0,-0.12890625 0.023437,-0.2578125 0.058594,-0.38671875 z m -2.2617187,5.09765626 c -0.2578125,0.3046875 -0.6796875,0.57421875 -1.1132813,0.57421875 -0.5625,0 -0.609375,-0.48046875 -0.609375,-0.6796875 0,-0.46875001 0.3046875,-1.57031251 0.4570313,-1.92187501 0.28125,-0.65625 0.7148437,-0.8789062 1.0898437,-0.8789062 0.5273438,0 0.7382813,0.421875 0.7382813,0.515625 l -0.011719,0.1289062 z m 0,0"
       style="fill:#d33682;fill-opacity:1;fill-rule:nonzero;stroke:none"
       aria-label="d"
       transform="matrix(1.3333333,0,0,1.3333333,322.192,657.87067)" />
    <path
       id="path105"
       d="m 3e-5,-91.4166 21.26015,-29.12086"
       style="fill:none;stroke:#586e75;stroke-width:0.3985;stroke-linecap:butt;stroke-linejoin:miter;stroke-miterlimit:10;stroke-dasharray:none;stroke-opacity:1"
       transform="matrix(1.3333333,0,0,-1.3333333,297.504,483.62267)" />
    <path
       id="path106"
       d="m 2.9883125,-4.6520156 c 0,-0.2695313 -0.046875,-0.2695313 -0.3632812,-0.2695313 -0.46875,0.375 -1.078125,0.4804688 -1.6757813,0.4804688 h -0.1875 v 0.421875 h 0.1875 c 0.2929688,0 0.75,-0.058594 1.0664063,-0.1523438 v 3.75000003 H 0.8320625 V 3.28125e-4 c 0.3632813,-0.035156245 1.265625,-0.035156245 1.6757813,-0.035156245 0.2695312,0 0.5390625,0.01171875 0.8085937,0.01171875 0.2226563,0 0.609375,0.01171875 0.8320313,0.023437495 V -0.42154687 H 2.9883125 Z m 0,0"
       style="fill:#d33682;fill-opacity:1;fill-rule:nonzero;stroke:none"
       aria-label="1"
       transform="matrix(1.3333333,0,0,1.3333333,316.60933,628.148)" />
    <path
       id="path107"
       d="m 2.9875703,-4.6513047 c 0,-0.2695312 -0.046875,-0.2695312 -0.3632812,-0.2695312 -0.46875,0.375 -1.078125,0.4804687 -1.67578129,0.4804687 h -0.1875 v 0.421875 h 0.1875 c 0.29296879,0 0.74999999,-0.058594 1.06640629,-0.1523437 v 3.74999996 H 0.83132031 v 0.421875 C 1.1946016,-0.03411719 2.0969453,-0.03411719 2.5071016,-0.03411719 c 0.2695312,0 0.5390625,0.01171875 0.8085937,0.01171875 0.2226563,0 0.609375,0.01171875 0.8320313,0.0234375 v -0.421875 H 2.9875703 Z m 0,0"
       style="fill:#d33682;fill-opacity:1;fill-rule:nonzero;stroke:none"
       aria-label="1"
       transform="matrix(1.3333333,0,0,1.3333333,288.26267,571.88533)" />
    <path
       id="path108"
       d="m 4.4407422,-2.3909375 c 0,-0.9140625 -0.09375,-2.53125 -2.015625,-2.53125 -1.92187501,0 -2.01562501,1.6171875 -2.01562501,2.53125 0,0.9492188 0.1171875,2.484375 2.01562501,2.484375 1.8984375,0 2.015625,-1.5234375 2.015625,-2.484375 z m -2.015625,2.1328125 c -0.2460938,0 -0.46875,-0.0820313 -0.6445313,-0.234375 -0.2109375,-0.17578125 -0.328125,-0.29296875 -0.328125,-1.9921875 0,-0.515625 0,-1.1132812 0.082031,-1.4648437 0.1171875,-0.4921875 0.5742187,-0.6210938 0.890625,-0.6210938 0.28125,0 0.7734375,0.1171875 0.890625,0.6328125 0.082031,0.3515625 0.082031,0.9726563 0.082031,1.453125 0,0.5273438 0,1.078125 -0.070312,1.5 -0.1054687,0.59765625 -0.6328125,0.7265625 -0.9023437,0.7265625 z m 0,0"
       style="fill:#d33682;fill-opacity:1;fill-rule:nonzero;stroke:none"
       aria-label="0"
       transform="matrix(1.3333333,0,0,1.3333333,271.92667,513.40667)" />
    <path
       id="path109"
       d="m 27.2378,-42.52022 c 0,3.30142 -2.67626,5.97766 -5.97767,5.97766 -3.30142,0 -5.97766,-2.67624 -5.97766,-5.97766 0,-3.3014 2.67624,-5.97766 5.97766,-5.97766 3.30141,0 5.97767,2.67626 5.97767,5.97766 z"
       style="fill:none;stroke:#586e75;stroke-width:0.79701;stroke-linecap:butt;stroke-linejoin:miter;stroke-miterlimit:10;stroke-dasharray:none;stroke-opacity:1"
       transform="matrix(1.3333333,0,0,-1.3333333,297.504,483.62267)" />
    <path
       id="path110"
       d="M 0,-3.69891 21.26013,-36.14404"
       style="fill:none;stroke:#586e75;stroke-width:0.3985;stroke-linecap:butt;stroke-linejoin:miter;stroke-miterlimit:10;stroke-dasharray:none;stroke-opacity:1"
       transform="matrix(1.3333333,0,0,-1.3333333,297.504,483.62267)" />
    <path
       id="path111"
       d="m 27.23781,-85.04044 c 0,3.30141 -2.67626,5.97767 -5.97766,5.97767 -3.30143,0 -5.97766,-2.67626 -5.97766,-5.97767 0,-3.30142 2.67623,-5.97766 5.97766,-5.97766 3.3014,0 5.97766,2.67624 5.97766,5.97766 z"
       style="fill:none;stroke:#586e75;stroke-width:0.79701;stroke-linecap:butt;stroke-linejoin:miter;stroke-miterlimit:10;stroke-dasharray:none;stroke-opacity:1"
       transform="matrix(1.3333333,0,0,-1.3333333,297.504,483.62267)" />
    <path
       id="path112"
       d="m 21.26013,-48.89638 2e-5,-29.7679"
       style="fill:none;stroke:#586e75;stroke-width:0.3985;stroke-linecap:butt;stroke-linejoin:miter;stroke-miterlimit:10;stroke-dasharray:none;stroke-opacity:1"
       transform="matrix(1.3333333,0,0,-1.3333333,297.504,483.62267)" />
    <path
       id="path113"
       d="m 1.9928828,-1.9567109 c 0.609375,0 1.1953125,-0.058594 1.5703125,-0.1875 0.7617188,-0.2578125 0.890625,-0.7734375 0.890625,-1.0546875 0,-0.5273438 -0.4921875,-0.8671875 -1.2304687,-0.8671875 -1.6289063,0 -2.77734379,1.125 -2.77734379,2.5195312 0,1.03125001 0.69140629,1.61718751 1.87499999,1.61718751 0.234375,0 0.8554688,-0.01171875 1.3945313,-0.2109375 0.5273437,-0.2109375 0.8789062,-0.57421875 0.8789062,-0.69140625 0,-0.0703125 -0.140625,-0.23437496 -0.2226562,-0.23437496 -0.046875,0 -0.070312,0.035156 -0.1289063,0.10546871 -0.4921875,0.515625 -1.1953125,0.703125 -1.8984375,0.703125 -0.6445312,0 -0.8789062,-0.3515625 -0.8789062,-0.86718751 0,-0.1757812 0.035156,-0.46875 0.140625,-0.8320312 z m -0.3046875,-0.328125 c 0.1523438,-0.65625 0.375,-0.9023438 0.5273438,-1.0429688 0.3164062,-0.3164062 0.7265625,-0.4101562 1.0078125,-0.4101562 0.328125,0 0.6914062,0.140625 0.6914062,0.5390625 0,0.9140625 -1.359375,0.9140625 -2.2265625,0.9140625 z m 0,0"
       style="fill:#d33682;fill-opacity:1;fill-rule:nonzero;stroke:none"
       aria-label="e"
       transform="matrix(1.3333333,0,0,1.3333333,294.18267,656.37067)" />
    <path
       id="path114"
       d="M 21.26015,-91.4166 5e-5,-121.86172"
       style="fill:none;stroke:#586e75;stroke-width:0.3985;stroke-linecap:butt;stroke-linejoin:miter;stroke-miterlimit:10;stroke-dasharray:none;stroke-opacity:1"
       transform="matrix(1.3333333,0,0,-1.3333333,297.504,483.62267)" />
    <path
       id="path115"
       d="m 4.4414844,-2.3901875 c 0,-0.9140625 -0.09375,-2.53125 -2.015625,-2.53125 -1.92187503,0 -2.01562503,1.6171875 -2.01562503,2.53125 0,0.9492187 0.1171875,2.484375 2.01562503,2.484375 1.8984375,0 2.015625,-1.5234375 2.015625,-2.484375 z m -2.015625,2.1328125 c -0.2460938,0 -0.46875,-0.0820313 -0.6445313,-0.234375 -0.2109375,-0.17578125 -0.328125,-0.29296875 -0.328125,-1.9921875 0,-0.515625 0,-1.1132813 0.082031,-1.4648438 0.1171875,-0.4921875 0.5742187,-0.6210937 0.890625,-0.6210937 0.28125,0 0.7734375,0.1171875 0.890625,0.6328125 0.082031,0.3515625 0.082031,0.9726562 0.082031,1.453125 0,0.5273437 0,1.078125 -0.070312,1.5 -0.1054687,0.59765625 -0.6328125,0.7265625 -0.9023437,0.7265625 z m 0,0"
       style="fill:#d33682;fill-opacity:1;fill-rule:nonzero;stroke:none"
       aria-label="0"
       transform="matrix(1.3333333,0,0,1.3333333,300.27333,629.03067)" />
    <path
       id="path116"
       d="m 3.8542187,-3.574875 h 1.0546875 c 0.1757813,0 0.3398438,0 0.3398438,-0.2578125 C 5.24875,-3.99675 5.0964062,-3.99675 4.9440625,-3.99675 H 3.93625 l 0.2929687,-1.6289062 c 0.023437,-0.1640625 0.023437,-0.1757813 0.1171875,-0.2578125 0.1171875,-0.1054688 0.2109375,-0.1054688 0.2578125,-0.1054688 0.1289063,0 0.2109375,0.011719 0.3164063,0.058594 -0.2109375,0.1054687 -0.375,0.3398437 -0.375,0.5859375 0,0.2695312 0.2109375,0.4101562 0.4335937,0.4101562 0.375,0 0.65625,-0.328125 0.65625,-0.6679687 0,-0.4570313 -0.46875,-0.7148438 -1.03125,-0.7148438 -0.421875,0 -0.9257812,0.1640625 -1.2421875,0.6679688 C 3.1628125,-5.30925 3.1042187,-4.9576875 2.9284375,-3.99675 H 2.0495312 c -0.1640625,0 -0.328125,0 -0.328125,0.2578125 0,0.1640625 0.1640625,0.1640625 0.3046875,0.1640625 H 2.8464062 L 2.1667187,0.25715625 C 2.155,0.3391875 2.0495312,0.91340625 2.0026562,1.0305938 1.9909375,1.0774688 1.8385937,1.487625 1.5573437,1.487625 1.3815625,1.487625 1.31125,1.4641875 1.2526562,1.44075 1.4753125,1.3352813 1.6510937,1.1009063 1.6510937,0.84309375 c 0,-0.26953125 -0.2226562,-0.41015625 -0.4453125,-0.41015625 -0.37499995,0 -0.6445312,0.328125 -0.6445312,0.6679688 0,0.4804687 0.5039062,0.7148437 0.9726562,0.7148437 0.6796875,0 1.1484375,-0.6679687 1.21875,-0.7851562 C 3.139375,0.44465625 3.3503125,-0.70378125 3.37375,-0.856125 Z m 0,0"
       style="fill:#d33682;fill-opacity:1;fill-rule:nonzero;stroke:none"
       aria-label="f"
       transform="matrix(1.3333333,0,0,1.3333333,350.12667,656.704)" />
    <path
       id="path117"
       d="m 21.26015,-91.4166 21.26013,-28.44511"
       style="fill:none;stroke:#586e75;stroke-width:0.3985;stroke-linecap:butt;stroke-linejoin:miter;stroke-miterlimit:10;stroke-dasharray:none;stroke-opacity:1"
       transform="matrix(1.3333333,0,0,-1.3333333,297.504,483.62267)" />
    <path
       id="path118"
       d="m 2.9890547,-4.6509297 c 0,-0.2695312 -0.046875,-0.2695312 -0.3632813,-0.2695312 -0.46875,0.375 -1.078125,0.4804687 -1.67578121,0.4804687 h -0.1875 v 0.421875 h 0.1875 c 0.29296871,0 0.75000001,-0.058594 1.06640621,-0.1523437 v 3.74999996 H 0.83280469 v 0.421875 C 1.1960859,-0.03374219 2.0984297,-0.03374219 2.5085859,-0.03374219 c 0.2695313,0 0.5390625,0.01171875 0.8085938,0.01171875 0.2226562,0 0.609375,0.01171875 0.8320312,0.0234375 v -0.421875 H 2.9890547 Z m 0,0"
       style="fill:#d33682;fill-opacity:1;fill-rule:nonzero;stroke:none"
       aria-label="1"
       transform="matrix(1.3333333,0,0,1.3333333,344.956,627.69733)" />
    <path
       id="path119"
       d="m 2.9872656,-4.6513047 c 0,-0.2695312 -0.046875,-0.2695312 -0.3632812,-0.2695312 -0.46875,0.375 -1.078125,0.4804687 -1.67578128,0.4804687 h -0.1875 v 0.421875 h 0.1875 c 0.29296878,0 0.74999998,-0.058594 1.06640628,-0.1523437 v 3.74999996 H 0.83101562 v 0.421875 C 1.1942969,-0.03411719 2.0966406,-0.03411719 2.5067969,-0.03411719 c 0.2695312,0 0.5390625,0.01171875 0.8085937,0.01171875 0.2226563,0 0.609375,0.01171875 0.8320313,0.0234375 v -0.421875 H 2.9872656 Z m 0,0"
       style="fill:#d33682;fill-opacity:1;fill-rule:nonzero;stroke:none"
       aria-label="1"
       transform="matrix(1.3333333,0,0,1.3333333,314.44667,571.88533)" />
    <path
       id="path120"
       d="m 2.9883594,-4.6526562 c 0,-0.2695313 -0.046875,-0.2695313 -0.3632813,-0.2695313 -0.46875,0.375 -1.078125,0.4804688 -1.67578123,0.4804688 h -0.1875 v 0.421875 h 0.1875 c 0.29296873,0 0.75000003,-0.058594 1.06640623,-0.1523438 v 3.75 H 0.83210937 v 0.421875 C 1.1953906,-0.03546875 2.0977344,-0.03546875 2.5078906,-0.03546875 c 0.2695313,0 0.5390625,0.01171875 0.8085938,0.01171875 0.2226562,0 0.609375,0.01171875 0.8320312,0.0234375 v -0.421875 H 2.9883594 Z m 0,0"
       style="fill:#d33682;fill-opacity:1;fill-rule:nonzero;stroke:none"
       aria-label="1"
       transform="matrix(1.3333333,0,0,1.3333333,300.27333,513.40667)" />
    <path
       id="path121"
       d="m -27.60767,-48.0199 h 12.69516 v 10.99936 h -12.69516 z"
       style="fill:none;stroke:#586e75;stroke-width:0.79701;stroke-linecap:butt;stroke-linejoin:miter;stroke-miterlimit:10;stroke-dasharray:none;stroke-opacity:1"
       transform="matrix(1.3333333,0,0,-1.3333333,504.58,483.62267)" />
    <path
       id="path122"
       d="m 4.64175,-2.846375 c 0.046875,-0.234375 0.140625,-0.5859375 0.140625,-0.6679687 0,-0.2929688 -0.234375,-0.3984375 -0.421875,-0.3984375 -0.1757812,0 -0.3515625,0.09375 -0.4570312,0.2226562 -0.140625,-0.140625 -0.4335938,-0.375 -0.9609375,-0.375 -1.5585938,0 -2.53125005,1.4179688 -2.53125005,2.6484375 0,1.11328125 0.82031255,1.48828125 1.57031255,1.48828125 0.6328125,0 1.1015625,-0.3515625 1.2539062,-0.48046875 0.3398438,0.48046875 0.9375,0.48046875 1.03125,0.48046875 0.328125,0 0.5976563,-0.1875 0.7851563,-0.515625 C 5.2745625,-0.79559375 5.39175,-1.2877812 5.39175,-1.3346562 c 0,-0.1171875 -0.1289062,-0.1171875 -0.2109375,-0.1171875 -0.1054687,0 -0.140625,0 -0.1875,0.035156 -0.011719,0.023437 -0.011719,0.035156 -0.070312,0.2695313 -0.1757812,0.7148437 -0.3867187,0.89062495 -0.609375,0.89062495 -0.1054687,0 -0.2109375,-0.0351563 -0.2109375,-0.328125 0,-0.15234375 0.035156,-0.29296875 0.1289063,-0.65624995 C 4.2901875,-1.487 4.3839375,-1.8502812 4.4308125,-2.0495 Z m -1.5,2.015625 c -0.2578125,0.3046875 -0.6796875,0.57421875 -1.1132812,0.57421875 -0.5625,0 -0.609375,-0.48046875 -0.609375,-0.6796875 0,-0.46874995 0.3046875,-1.57031245 0.4570312,-1.92187495 C 2.157375,-3.5143437 2.5909688,-3.737 2.9659688,-3.737 c 0.5273437,0 0.7382812,0.421875 0.7382812,0.515625 l -0.011719,0.1289063 z m 0,0"
       style="fill:#d33682;fill-opacity:1;fill-rule:nonzero;stroke:none"
       aria-label="a"
       transform="matrix(1.3333333,0,0,1.3333333,472.436,542.98267)" />
    <path
       id="path123"
       d="M 0,-3.69891 -21.26009,-36.62202"
       style="fill:none;stroke:#586e75;stroke-width:0.3985;stroke-linecap:butt;stroke-linejoin:miter;stroke-miterlimit:10;stroke-dasharray:none;stroke-opacity:1"
       transform="matrix(1.3333333,0,0,-1.3333333,504.58,483.62267)" />
    <path
       id="path124"
       d="m 4.4423359,-2.3897031 c 0,-0.9140625 -0.09375,-2.53125 -2.015625,-2.53125 -1.92187496,0 -2.01562496,1.6171875 -2.01562496,2.53125 0,0.9492187 0.1171875,2.48437498 2.01562496,2.48437498 1.8984375,0 2.015625,-1.52343748 2.015625,-2.48437498 z m -2.015625,2.13281248 c -0.2460937,0 -0.46875,-0.0820313 -0.6445312,-0.234375 -0.2109375,-0.17578125 -0.328125,-0.29296875 -0.328125,-1.99218748 0,-0.515625 0,-1.1132813 0.082031,-1.4648438 0.1171875,-0.4921875 0.5742188,-0.6210937 0.890625,-0.6210937 0.28125,0 0.7734375,0.1171875 0.890625,0.6328125 0.082031,0.3515625 0.082031,0.9726562 0.082031,1.453125 0,0.5273437 0,1.078125 -0.070312,1.49999998 -0.1054688,0.59765625 -0.6328125,0.7265625 -0.9023438,0.7265625 z m 0,0"
       style="fill:#d33682;fill-opacity:1;fill-rule:nonzero;stroke:none"
       aria-label="0"
       transform="matrix(1.3333333,0,0,1.3333333,479.00267,513.72533)" />
    <path
       id="path125"
       d="m 27.2378,-42.52022 c 0,3.30142 -2.67626,5.97766 -5.97767,5.97766 -3.30142,0 -5.97766,-2.67624 -5.97766,-5.97766 0,-3.3014 2.67624,-5.97766 5.97766,-5.97766 3.30141,0 5.97767,2.67626 5.97767,5.97766 z"
       style="fill:none;stroke:#586e75;stroke-width:0.79701;stroke-linecap:butt;stroke-linejoin:miter;stroke-miterlimit:10;stroke-dasharray:none;stroke-opacity:1"
       transform="matrix(1.3333333,0,0,-1.3333333,504.58,483.62267)" />
    <path
       id="path126"
       d="M 0,-3.69891 21.26013,-36.14404"
       style="fill:none;stroke:#586e75;stroke-width:0.3985;stroke-linecap:butt;stroke-linejoin:miter;stroke-miterlimit:10;stroke-dasharray:none;stroke-opacity:1"
       transform="matrix(1.3333333,0,0,-1.3333333,504.58,483.62267)" />
    <path
       id="path127"
       d="m 5.97769,-85.04044 c 0,3.30141 -2.67624,5.97767 -5.97766,5.97767 -3.30139,0 -5.97765,-2.67626 -5.97765,-5.97767 0,-3.30142 2.67626,-5.97766 5.97765,-5.97766 3.30142,0 5.97766,2.67624 5.97766,5.97766 z"
       style="fill:none;stroke:#586e75;stroke-width:0.79701;stroke-linecap:butt;stroke-linejoin:miter;stroke-miterlimit:10;stroke-dasharray:none;stroke-opacity:1"
       transform="matrix(1.3333333,0,0,-1.3333333,504.58,483.62267)" />
    <path
       id="path128"
       d="M 21.26013,-48.89638 3e-5,-78.66428"
       style="fill:none;stroke:#586e75;stroke-width:0.3985;stroke-linecap:butt;stroke-linejoin:miter;stroke-miterlimit:10;stroke-dasharray:none;stroke-opacity:1"
       transform="matrix(1.3333333,0,0,-1.3333333,504.58,483.62267)" />
    <path
       id="path129"
       d="m 1.9908047,-1.9567109 c 0.609375,0 1.1953125,-0.058594 1.5703125,-0.1875 0.7617187,-0.2578125 0.890625,-0.7734375 0.890625,-1.0546875 0,-0.5273438 -0.4921875,-0.8671875 -1.2304688,-0.8671875 -1.6289062,0 -2.77734371,1.125 -2.77734371,2.5195312 0,1.03125001 0.69140621,1.61718751 1.87500001,1.61718751 0.234375,0 0.8554687,-0.01171875 1.3945312,-0.2109375 0.5273438,-0.2109375 0.8789063,-0.57421875 0.8789063,-0.69140625 0,-0.0703125 -0.140625,-0.23437496 -0.2226563,-0.23437496 -0.046875,0 -0.070312,0.035156 -0.1289062,0.10546871 -0.4921875,0.515625 -1.1953125,0.703125 -1.8984375,0.703125 -0.6445313,0 -0.8789063,-0.3515625 -0.8789063,-0.86718751 0,-0.1757812 0.035156,-0.46875 0.140625,-0.8320312 z m -0.3046875,-0.328125 c 0.1523437,-0.65625 0.375,-0.9023438 0.5273437,-1.0429688 0.3164063,-0.3164062 0.7265625,-0.4101562 1.0078125,-0.4101562 0.328125,0 0.6914063,0.140625 0.6914063,0.5390625 0,0.9140625 -1.359375,0.9140625 -2.2265625,0.9140625 z m 0,0"
       style="fill:#d33682;fill-opacity:1;fill-rule:nonzero;stroke:none"
       aria-label="e"
       transform="matrix(1.3333333,0,0,1.3333333,472.912,656.37067)" />
    <path
       id="path130"
       d="m 3e-5,-91.4166 -21.26007,-30.44512"
       style="fill:none;stroke:#586e75;stroke-width:0.3985;stroke-linecap:butt;stroke-linejoin:miter;stroke-miterlimit:10;stroke-dasharray:none;stroke-opacity:1"
       transform="matrix(1.3333333,0,0,-1.3333333,504.58,483.62267)" />
    <path
       id="path131"
       d="m 4.4423359,-2.3901875 c 0,-0.9140625 -0.09375,-2.53125 -2.015625,-2.53125 -1.92187496,0 -2.01562496,1.6171875 -2.01562496,2.53125 0,0.9492187 0.1171875,2.484375 2.01562496,2.484375 1.8984375,0 2.015625,-1.5234375 2.015625,-2.484375 z m -2.015625,2.1328125 c -0.2460937,0 -0.46875,-0.0820313 -0.6445312,-0.234375 -0.2109375,-0.17578125 -0.328125,-0.29296875 -0.328125,-1.9921875 0,-0.515625 0,-1.1132813 0.082031,-1.4648438 0.1171875,-0.4921875 0.5742188,-0.6210937 0.890625,-0.6210937 0.28125,0 0.7734375,0.1171875 0.890625,0.6328125 0.082031,0.3515625 0.082031,0.9726562 0.082031,1.453125 0,0.5273437 0,1.078125 -0.070312,1.5 -0.1054688,0.59765625 -0.6328125,0.7265625 -0.9023438,0.7265625 z m 0,0"
       style="fill:#d33682;fill-opacity:1;fill-rule:nonzero;stroke:none"
       aria-label="0"
       transform="matrix(1.3333333,0,0,1.3333333,479.00267,629.03067)" />
    <path
       id="path132"
       d="m 3.8550703,-3.574875 h 1.0546875 c 0.1757813,0 0.3398438,0 0.3398438,-0.2578125 0,-0.1640625 -0.1523438,-0.1640625 -0.3046875,-0.1640625 H 3.9371016 l 0.2929687,-1.6289062 c 0.023437,-0.1640625 0.023437,-0.1757813 0.1171875,-0.2578125 0.1171875,-0.1054688 0.2109375,-0.1054688 0.2578125,-0.1054688 0.1289063,0 0.2109375,0.011719 0.3164063,0.058594 -0.2109375,0.1054687 -0.375,0.3398437 -0.375,0.5859375 0,0.2695312 0.2109375,0.4101562 0.4335937,0.4101562 0.375,0 0.65625,-0.328125 0.65625,-0.6679687 0,-0.4570313 -0.46875,-0.7148438 -1.03125,-0.7148438 -0.421875,0 -0.9257812,0.1640625 -1.2421875,0.6679688 C 3.1636641,-5.30925 3.1050703,-4.9576875 2.9292891,-3.99675 H 2.0503828 c -0.1640625,0 -0.328125,0 -0.328125,0.2578125 0,0.1640625 0.1640625,0.1640625 0.3046875,0.1640625 H 2.8472578 L 2.1675703,0.25715625 C 2.1558516,0.3391875 2.0503828,0.91340625 2.0035078,1.0305938 1.9917891,1.0774688 1.8394453,1.487625 1.5581953,1.487625 1.3824141,1.487625 1.3121016,1.4641875 1.2535078,1.44075 1.4761641,1.3352813 1.6519453,1.1009063 1.6519453,0.84309375 c 0,-0.26953125 -0.2226562,-0.41015625 -0.4453125,-0.41015625 -0.37499999,0 -0.64453124,0.328125 -0.64453124,0.6679688 0,0.4804687 0.50390624,0.7148437 0.97265624,0.7148437 0.6796875,0 1.1484375,-0.6679687 1.21875,-0.7851562 0.3867188,-0.58593755 0.5976563,-1.73437505 0.6210938,-1.8867188 z m 0,0"
       style="fill:#d33682;fill-opacity:1;fill-rule:nonzero;stroke:none"
       aria-label="f"
       transform="matrix(1.3333333,0,0,1.3333333,528.856,656.704)" />
    <path
       id="path133"
       d="m 3e-5,-91.4166 21.26015,-28.44511"
       style="fill:none;stroke:#586e75;stroke-width:0.3985;stroke-linecap:butt;stroke-linejoin:miter;stroke-miterlimit:10;stroke-dasharray:none;stroke-opacity:1"
       transform="matrix(1.3333333,0,0,-1.3333333,504.58,483.62267)" />
    <path
       id="path134"
       d="m 2.9869766,-4.6509297 c 0,-0.2695312 -0.046875,-0.2695312 -0.3632813,-0.2695312 -0.46875,0.375 -1.078125,0.4804687 -1.67578124,0.4804687 h -0.1875 v 0.421875 h 0.1875 c 0.29296874,0 0.75000004,-0.058594 1.06640624,-0.1523437 v 3.74999996 H 0.83072656 v 0.421875 C 1.1940078,-0.03374219 2.0963516,-0.03374219 2.5065078,-0.03374219 c 0.2695313,0 0.5390625,0.01171875 0.8085938,0.01171875 0.2226562,0 0.609375,0.01171875 0.8320312,0.0234375 v -0.421875 H 2.9869766 Z m 0,0"
       style="fill:#d33682;fill-opacity:1;fill-rule:nonzero;stroke:none"
       aria-label="1"
       transform="matrix(1.3333333,0,0,1.3333333,523.68533,627.69733)" />
    <path
       id="path135"
       d="m 2.9870234,-4.6513047 c 0,-0.2695312 -0.046875,-0.2695312 -0.3632812,-0.2695312 -0.46875,0.375 -1.078125,0.4804687 -1.67578126,0.4804687 h -0.1875 v 0.421875 h 0.1875 c 0.29296876,0 0.74999996,-0.058594 1.06640626,-0.1523437 v 3.74999996 H 0.83077344 v 0.421875 C 1.1940547,-0.03411719 2.0963984,-0.03411719 2.5065547,-0.03411719 c 0.2695312,0 0.5390625,0.01171875 0.8085937,0.01171875 0.2226563,0 0.609375,0.01171875 0.8320313,0.0234375 v -0.421875 H 2.9870234 Z m 0,0"
       style="fill:#d33682;fill-opacity:1;fill-rule:nonzero;stroke:none"
       aria-label="1"
       transform="matrix(1.3333333,0,0,1.3333333,507.34933,571.88533)" />
    <path
       id="path136"
       d="m 48.49792,-85.04044 c 0,3.30141 -2.67625,5.97767 -5.97766,5.97767 -3.30142,0 -5.97766,-2.67626 -5.97766,-5.97767 0,-3.30142 2.67624,-5.97766 5.97766,-5.97766 3.30141,0 5.97766,2.67624 5.97766,5.97766 z"
       style="fill:none;stroke:#586e75;stroke-width:0.79701;stroke-linecap:butt;stroke-linejoin:miter;stroke-miterlimit:10;stroke-dasharray:none;stroke-opacity:1"
       transform="matrix(1.3333333,0,0,-1.3333333,504.58,483.62267)" />
    <path
       id="path137"
       d="m 21.26013,-48.89638 21.26013,-29.7679"
       style="fill:none;stroke:#586e75;stroke-width:0.3985;stroke-linecap:butt;stroke-linejoin:miter;stroke-miterlimit:10;stroke-dasharray:none;stroke-opacity:1"
       transform="matrix(1.3333333,0,0,-1.3333333,504.58,483.62267)" />
    <path
       id="path138"
       d="m 1.9922891,-1.9567109 c 0.609375,0 1.1953125,-0.058594 1.5703125,-0.1875 0.7617187,-0.2578125 0.890625,-0.7734375 0.890625,-1.0546875 0,-0.5273438 -0.4921875,-0.8671875 -1.2304688,-0.8671875 -1.6289062,0 -2.77734374,1.125 -2.77734374,2.5195312 0,1.03125001 0.69140624,1.61718751 1.87500004,1.61718751 0.234375,0 0.8554687,-0.01171875 1.3945312,-0.2109375 0.5273438,-0.2109375 0.8789063,-0.57421875 0.8789063,-0.69140625 0,-0.0703125 -0.140625,-0.23437496 -0.2226563,-0.23437496 -0.046875,0 -0.070312,0.035156 -0.1289062,0.10546871 -0.4921875,0.515625 -1.1953125,0.703125 -1.8984375,0.703125 -0.6445313,0 -0.8789063,-0.3515625 -0.8789063,-0.86718751 0,-0.1757812 0.035156,-0.46875 0.140625,-0.8320312 z m -0.3046875,-0.328125 c 0.1523437,-0.65625 0.375,-0.9023438 0.5273437,-1.0429688 0.3164063,-0.3164062 0.7265625,-0.4101562 1.0078125,-0.4101562 0.328125,0 0.6914063,0.140625 0.6914063,0.5390625 0,0.9140625 -1.359375,0.9140625 -2.2265625,0.9140625 z m 0,0"
       style="fill:#d33682;fill-opacity:1;fill-rule:nonzero;stroke:none"
       aria-label="e"
       transform="matrix(1.3333333,0,0,1.3333333,529.60533,656.37067)" />
    <path
       id="path139"
       d="M 42.52026,-91.4166 21.26018,-121.86172"
       style="fill:none;stroke:#586e75;stroke-width:0.3985;stroke-linecap:butt;stroke-linejoin:miter;stroke-miterlimit:10;stroke-dasharray:none;stroke-opacity:1"
       transform="matrix(1.3333333,0,0,-1.3333333,504.58,483.62267)" />
    <path
       id="path140"
       d="m 4.4408906,-2.3901875 c 0,-0.9140625 -0.09375,-2.53125 -2.015625,-2.53125 -1.92187497,0 -2.01562497,1.6171875 -2.01562497,2.53125 0,0.9492187 0.1171875,2.484375 2.01562497,2.484375 1.8984375,0 2.015625,-1.5234375 2.015625,-2.484375 z m -2.015625,2.1328125 c -0.2460937,0 -0.46875,-0.0820313 -0.6445312,-0.234375 -0.2109375,-0.17578125 -0.328125,-0.29296875 -0.328125,-1.9921875 0,-0.515625 0,-1.1132813 0.082031,-1.4648438 0.1171875,-0.4921875 0.5742188,-0.6210937 0.890625,-0.6210937 0.28125,0 0.7734375,0.1171875 0.890625,0.6328125 0.082031,0.3515625 0.082031,0.9726562 0.082031,1.453125 0,0.5273437 0,1.078125 -0.070312,1.5 -0.1054688,0.59765625 -0.6328125,0.7265625 -0.9023438,0.7265625 z m 0,0"
       style="fill:#d33682;fill-opacity:1;fill-rule:nonzero;stroke:none"
       aria-label="0"
       transform="matrix(1.3333333,0,0,1.3333333,535.696,629.03067)" />
    <path
       id="path141"
       d="m 3.8565547,-3.574875 h 1.0546875 c 0.1757812,0 0.3398437,0 0.3398437,-0.2578125 0,-0.1640625 -0.1523437,-0.1640625 -0.3046875,-0.1640625 H 3.9385859 l 0.2929688,-1.6289062 c 0.023437,-0.1640625 0.023437,-0.1757813 0.1171875,-0.2578125 0.1171875,-0.1054688 0.2109375,-0.1054688 0.2578125,-0.1054688 0.1289062,0 0.2109375,0.011719 0.3164062,0.058594 -0.2109375,0.1054687 -0.375,0.3398437 -0.375,0.5859375 0,0.2695312 0.2109375,0.4101562 0.4335938,0.4101562 0.375,0 0.65625,-0.328125 0.65625,-0.6679687 0,-0.4570313 -0.46875,-0.7148438 -1.03125,-0.7148438 -0.421875,0 -0.9257813,0.1640625 -1.2421875,0.6679688 C 3.1651484,-5.30925 3.1065547,-4.9576875 2.9307734,-3.99675 H 2.0518672 c -0.1640625,0 -0.328125,0 -0.328125,0.2578125 0,0.1640625 0.1640625,0.1640625 0.3046875,0.1640625 H 2.8487422 L 2.1690547,0.25715625 C 2.1573359,0.3391875 2.0518672,0.91340625 2.0049922,1.0305938 1.9932734,1.0774688 1.8409297,1.487625 1.5596797,1.487625 1.3838984,1.487625 1.3135859,1.4641875 1.2549922,1.44075 1.4776484,1.3352813 1.6534297,1.1009063 1.6534297,0.84309375 c 0,-0.26953125 -0.2226563,-0.41015625 -0.4453125,-0.41015625 -0.37500001,0 -0.64453126,0.328125 -0.64453126,0.6679688 0,0.4804687 0.50390626,0.7148437 0.97265626,0.7148437 0.6796875,0 1.1484375,-0.6679687 1.21875,-0.7851562 0.3867187,-0.58593755 0.5976562,-1.73437505 0.6210937,-1.8867188 z m 0,0"
       style="fill:#d33682;fill-opacity:1;fill-rule:nonzero;stroke:none"
       aria-label="f"
       transform="matrix(1.3333333,0,0,1.3333333,585.54933,656.704)" />
    <path
       id="path142"
       d="M 42.52026,-91.4166 63.7804,-119.86171"
       style="fill:none;stroke:#586e75;stroke-width:0.3985;stroke-linecap:butt;stroke-linejoin:miter;stroke-miterlimit:10;stroke-dasharray:none;stroke-opacity:1"
       transform="matrix(1.3333333,0,0,-1.3333333,504.58,483.62267)" />
    <path
       id="path143"
       d="m 2.9884609,-4.6509297 c 0,-0.2695312 -0.046875,-0.2695312 -0.3632812,-0.2695312 -0.46875,0.375 -1.078125,0.4804687 -1.67578126,0.4804687 h -0.1875 v 0.421875 h 0.1875 c 0.29296876,0 0.74999996,-0.058594 1.06640626,-0.1523437 v 3.74999996 H 0.83221094 v 0.421875 C 1.1954922,-0.03374219 2.0978359,-0.03374219 2.5079922,-0.03374219 c 0.2695312,0 0.5390625,0.01171875 0.8085937,0.01171875 0.2226563,0 0.609375,0.01171875 0.8320313,0.0234375 v -0.421875 H 2.9884609 Z m 0,0"
       style="fill:#d33682;fill-opacity:1;fill-rule:nonzero;stroke:none"
       aria-label="1"
       transform="matrix(1.3333333,0,0,1.3333333,580.37867,627.69733)" />
    <path
       id="path144"
       d="m 2.9877656,-4.6513047 c 0,-0.2695312 -0.046875,-0.2695312 -0.3632812,-0.2695312 -0.46875,0.375 -1.078125,0.4804687 -1.67578127,0.4804687 h -0.1875 v 0.421875 h 0.1875 c 0.29296877,0 0.74999997,-0.058594 1.06640627,-0.1523437 v 3.74999996 H 0.83151563 v 0.421875 C 1.1947969,-0.03411719 2.0971406,-0.03411719 2.5072969,-0.03411719 c 0.2695312,0 0.5390625,0.01171875 0.8085937,0.01171875 0.2226563,0 0.609375,0.01171875 0.8320313,0.0234375 v -0.421875 H 2.9877656 Z m 0,0"
       style="fill:#d33682;fill-opacity:1;fill-rule:nonzero;stroke:none"
       aria-label="1"
       transform="matrix(1.3333333,0,0,1.3333333,535.696,571.88533)" />
    <path
       id="path145"
       d="m 2.9870234,-4.6526562 c 0,-0.2695313 -0.046875,-0.2695313 -0.3632812,-0.2695313 -0.46875,0.375 -1.078125,0.4804688 -1.67578126,0.4804688 h -0.1875 v 0.421875 h 0.1875 c 0.29296876,0 0.74999996,-0.058594 1.06640626,-0.1523438 v 3.75 H 0.83077344 v 0.421875 C 1.1940547,-0.03546875 2.0963984,-0.03546875 2.5065547,-0.03546875 c 0.2695312,0 0.5390625,0.01171875 0.8085937,0.01171875 0.2226563,0 0.609375,0.01171875 0.8320313,0.0234375 v -0.421875 H 2.9870234 Z m 0,0"
       style="fill:#d33682;fill-opacity:1;fill-rule:nonzero;stroke:none"
       aria-label="1"
       transform="matrix(1.3333333,0,0,1.3333333,507.34933,513.40667)" />
  </g>
</svg>
