<?xml version="1.0" encoding="UTF-8" standalone="no"?>
<!-- Created with Inkscape (http://www.inkscape.org/) -->

<svg
   version="1.1"
   id="svg1"
   width="391.88281"
   height="213.50391"
   viewBox="0 0 391.88281 213.50391"
   sodipodi:docname="obst-got.svg"
   inkscape:version="1.4.2 (ebf0e940d0, 2025-05-08)"
   xmlns:inkscape="http://www.inkscape.org/namespaces/inkscape"
   xmlns:sodipodi="http://sodipodi.sourceforge.net/DTD/sodipodi-0.dtd"
   xmlns="http://www.w3.org/2000/svg"
   xmlns:svg="http://www.w3.org/2000/svg">
  <defs
     id="defs1" />
  <sodipodi:namedview
     id="namedview1"
     pagecolor="#ffffff"
     bordercolor="#666666"
     borderopacity="1.0"
     inkscape:showpageshadow="2"
     inkscape:pageopacity="0.0"
     inkscape:pagecheckerboard="0"
     inkscape:deskcolor="#d1d1d1"
     inkscape:zoom="2.56"
     inkscape:cx="364.25781"
     inkscape:cy="287.30469"
     inkscape:window-width="3840"
     inkscape:window-height="2346"
     inkscape:window-x="0"
     inkscape:window-y="54"
     inkscape:window-maximized="1"
     inkscape:current-layer="g1">
    <inkscape:page
       x="0"
       y="0"
       inkscape:label="1"
       id="page1"
       width="391.88281"
       height="213.50391"
       margin="0"
       bleed="0" />
  </sodipodi:namedview>
  <g
     id="g1"
     inkscape:groupmode="layer"
     inkscape:label="1"
     transform="translate(-71.312501,-42.476562)">
    <g
       id="g45">
      <path
         id="path2"
         d="m 3.7956094,0.11745313 c 1.9453125,0 3.375,-1.38281253 3.375,-3.31640623 0,-1.8164063 -1.3476563,-3.140625 -3.1640625,-3.140625 -1.9335938,0 -3.37500003,1.3945312 -3.37500003,3.3046875 0,1.8398437 1.33593753,3.15234373 3.16406253,3.15234373 z m 0.1289062,-0.71484375 c -1.2421875,0 -2.203125,-0.99609378 -2.203125,-2.55468748 0,-1.3828125 0.8085938,-2.4609375 2.1445313,-2.4609375 1.265625,0 2.203125,0.9726562 2.203125,2.5195312 0,1.3710938 -0.7851563,2.49609378 -2.1445313,2.49609378 z M 8.9577187,2.65625e-4 H 9.97725 V -4.1716094 c 0.539062,-0.7734375 1.113281,-1.21875 1.816406,-1.21875 0.351563,0 0.726563,0.1054688 0.960938,0.2929688 l 0.433593,-0.8554688 c -0.269531,-0.2226562 -0.679687,-0.328125 -1.101562,-0.328125 -0.855469,0 -1.558594,0.4921875 -2.1445313,1.3359375 l -0.140625,-1.359375 -0.84375,0.1640625 z m 0,0"
         style="fill:#586e75;fill-opacity:1;fill-rule:nonzero;stroke:none"
         aria-label="or"
         transform="matrix(1.3333333,0,0,1.3333333,262.072,50.929333)" />
      <path
         id="path3"
         d="m 3.5159063,0.10414063 c 0.6210937,0 1.2890625,-0.22265625 1.875,-0.76171875 L 5.0862188,-1.1614844 c -0.421875,0.33984378 -0.890625,0.50390628 -1.3007813,0.50390628 -0.7148437,0 -1.125,-0.45703128 -1.125,-1.31249998 v -3.3984375 l 2.390625,0.011719 0.046875,-0.75 -2.4375,0.035156 v -1.59375 l -0.6914062,0.1289062 -0.3164063,1.4765625 -1.21875,0.011719 -0.0703125,0.6796875 h 1.2539063 v 3.5625 c 0,1.21874998 0.8085937,1.91015623 1.8984375,1.91015603 z M 11.490516,-3.5989844 v 3.59765628 h 1.019531 V -3.9505469 c 0,-1.4765625 -0.867188,-2.3554687 -2.15625,-2.3554687 -0.7968751,0 -1.6992189,0.3398437 -2.3906251,1.0195312 v -5.4726566 l -0.9960938,0.199219 V -0.00132812 H 7.9631719 V -4.5013281 c 0.5390625,-0.703125 1.3125,-1.0195313 1.96875,-1.0195313 1.0078121,0 1.5585941,0.703125 1.5585941,1.921875 z m 3.407226,3.59765628 h 1.019531 V -4.1732031 c 0.539063,-0.7734375 1.113282,-1.21875 1.816407,-1.21875 0.351562,0 0.726562,0.1054687 0.960937,0.2929687 l 0.433594,-0.8554687 c -0.269531,-0.2226563 -0.679688,-0.328125 -1.101563,-0.328125 -0.855468,0 -1.558593,0.4921875 -2.144531,1.3359375 l -0.140625,-1.359375 -0.84375,0.1640625 z m 8.100586,0.1171875 c 1.945313,0 3.375,-1.38281248 3.375,-3.31640628 0,-1.8164062 -1.347656,-3.140625 -3.164062,-3.140625 -1.933594,0 -3.375,1.3945313 -3.375,3.3046875 0,1.8398438 1.335937,3.15234378 3.164062,3.15234378 z m 0.128906,-0.71484375 c -1.242187,0 -2.203125,-0.99609373 -2.203125,-2.55468753 0,-1.3828125 0.808594,-2.4609375 2.144532,-2.4609375 1.265625,0 2.203125,0.9726563 2.203125,2.5195313 0,1.3710937 -0.785157,2.49609373 -2.144532,2.49609373 z m 9.624024,-3.00000003 v 3.59765628 h 1.019531 V -3.9505469 c 0,-1.4765625 -0.890625,-2.3554687 -2.179687,-2.3554687 -0.808594,0 -1.757813,0.3398437 -2.460938,1.1132812 l -0.128906,-1.1132812 -0.84375,0.1875 v 6.11718748 h 1.019531 V -4.4544531 c 0.550781,-0.75 1.335938,-1.0664063 2.003906,-1.0664063 1.007813,0 1.570313,0.703125 1.570313,1.921875 z M 38.637,0.13929688 c 0.808594,0 1.640625,-0.2578125 2.449219,-1.03125 l -0.375,-0.55078128 c -0.585938,0.52734378 -1.207031,0.76171878 -1.875,0.76171878 -1.3125,0 -2.226563,-0.91406248 -2.226563,-2.35546878 0,-0.140625 0,-0.2695312 0.02344,-0.4101562 h 4.417969 c 0.02344,-0.1523438 0.03516,-0.3632813 0.03516,-0.5273438 0,-1.4765625 -0.738281,-2.3554687 -2.226563,-2.3554687 -1.828125,0 -3.222656,1.3828125 -3.222656,3.4335937 0,1.875 1.230469,3.03515628 3,3.03515628 z M 36.773719,-4.0911719 c 0.316406,-0.9609375 1.054687,-1.5234375 2.027344,-1.5234375 0.902343,0 1.335937,0.515625 1.371093,1.5234375 z m 7.731445,4.23046878 c 1.453125,0 2.320313,-0.890625 2.320313,-1.94531248 0,-2.0976563 -3.246094,-1.5703125 -3.246094,-2.9765625 0,-0.5039063 0.433594,-0.890625 1.160156,-0.890625 0.457031,0 1.125,0.1992187 1.5,0.5742187 l 0.304688,-0.796875 c -0.46875,-0.3046875 -1.125,-0.4453125 -1.734375,-0.4453125 -1.195313,0 -2.167969,0.609375 -2.167969,1.7460938 0,2.0742187 3.222656,1.4882812 3.222656,2.9882812 0,0.5507813 -0.492187,1.03125003 -1.3125,1.03125003 -0.667969,0 -1.453125,-0.28125 -1.921875,-0.72656253 l -0.304687,0.83203128 c 0.46875,0.328125 1.277343,0.609375 2.179687,0.609375 z m 0,0"
         style="fill:#586e75;fill-opacity:1;fill-rule:nonzero;stroke:none"
         aria-label="thrones"
         transform="matrix(1.3333333,0,0,1.3333333,339.984,117.35333)" />
      <path
         id="path4"
         d="M 2.5888359,0.00100781 H 3.5146172 L 5.4013359,-5.0380547 7.3935234,0.00100781 H 8.3193047 L 10.534148,-6.2099297 H 9.4443047 l -1.5,5.1328125 -1.9921875,-5.1328125 H 5.0263359 l -1.875,5.0976563 -1.6523437,-5.0976563 H 0.38571094 Z m 9.7587891,0 h 1.019531 V -6.3036797 l -1.019531,0.1640625 z m 0.503906,-8.03906251 c 0.421875,0 0.726563,-0.28125 0.726563,-0.703125 0,-0.421875 -0.304688,-0.703125 -0.726563,-0.703125 -0.433593,0 -0.714843,0.28125 -0.714843,0.703125 0,0.421875 0.28125,0.703125 0.714843,0.703125 z m 7.719727,4.4414063 v 3.59765621 h 1.019531 V -3.9482109 c 0,-1.4765625 -0.890625,-2.3554688 -2.179687,-2.3554688 -0.808594,0 -1.757813,0.3398438 -2.460938,1.1132813 l -0.128906,-1.1132813 -0.84375,0.1875 v 6.11718751 h 1.019531 V -4.4521172 c 0.550781,-0.75 1.335938,-1.0664062 2.003906,-1.0664062 1.007813,0 1.570313,0.703125 1.570313,1.921875 z m 0,0"
         style="fill:#586e75;fill-opacity:1;fill-rule:nonzero;stroke:none"
         aria-label="win"
         transform="matrix(1.3333333,0,0,1.3333333,409.724,183.776)" />
      <path
         id="path5"
         d="M 5.6138047,-6.2095234 3.7505234,-1.0649922 1.5122422,-6.2095234 H 0.38724219 L 3.2700547,0.10688281 1.2778672,4.3373516 H 2.3677109 L 6.6450547,-6.2095234 Z M 10.81693,0.11860156 c 1.945312,0 3.375,-1.38281246 3.375,-3.31640626 0,-1.8164062 -1.347657,-3.140625 -3.164063,-3.140625 -1.9335936,0 -3.3749998,1.3945313 -3.3749998,3.3046875 0,1.8398438 1.3359375,3.15234376 3.1640628,3.15234376 z m 0.128906,-0.71484375 c -1.2421876,0 -2.2031251,-0.99609371 -2.2031251,-2.55468751 0,-1.3828125 0.8085938,-2.4609375 2.1445311,-2.4609375 1.265625,0 2.203125,0.9726563 2.203125,2.5195313 0,1.3710937 -0.785156,2.49609371 -2.144531,2.49609371 z m 7.139648,0.66796875 c 0.832032,0 1.734375,-0.3515625 2.390625,-1.07812496 l 0.128907,1.10156246 0.855468,-0.1875 V -6.3032734 l -1.03125,0.1875 v 4.3476562 c -0.527343,0.75 -1.277343,1.07812501 -1.921875,1.07812501 -0.960937,0 -1.511718,-0.70312501 -1.511718,-1.89843751 v -3.7148437 l -1.019532,0.1875 v 3.8554687 c 0,1.46484376 0.867188,2.33203126 2.109375,2.33203126 z m 0,0"
         style="fill:#586e75;fill-opacity:1;fill-rule:nonzero;stroke:none"
         aria-label="you"
         transform="matrix(1.3333333,0,0,1.3333333,434.58133,250.19733)" />
      <path
         id="path6"
         d="M 2.5903131,-5.625e-6 H 3.5160944 L 5.4028131,-5.0390681 7.3950006,-5.625e-6 H 8.3207819 L 10.535626,-6.2109431 H 9.4457819 l -1.5,5.1328125 -1.9921875,-5.1328125 H 5.0278131 l -1.875,5.0976562 -1.6523437,-5.0976562 H 0.38718813 Z M 16.693829,-3.5976619 V -5.625e-6 H 17.71336 V -3.9492244 c 0,-1.4765625 -0.867187,-2.3554687 -2.15625,-2.3554687 -0.796875,0 -1.699219,0.3398437 -2.390625,1.0195312 v -5.4726561 l -0.996094,0.199219 V -5.625e-6 h 0.996094 V -4.5000056 c 0.539063,-0.703125 1.3125,-1.0195313 1.96875,-1.0195313 1.007813,0 1.558594,0.703125 1.558594,1.921875 z m 5.938476,3.73828127 c 0.808594,0 1.640625,-0.2578125 2.449219,-1.03125 l -0.375,-0.55078127 c -0.585937,0.52734377 -1.207031,0.76171877 -1.875,0.76171877 -1.3125,0 -2.226562,-0.91406247 -2.226562,-2.35546877 0,-0.140625 0,-0.2695312 0.02344,-0.4101562 h 4.417969 c 0.02344,-0.1523438 0.03516,-0.3632813 0.03516,-0.5273438 0,-1.4765625 -0.738281,-2.3554687 -2.226562,-2.3554687 -1.828125,0 -3.222657,1.3828125 -3.222657,3.4335937 0,1.875 1.230469,3.03515627 3,3.03515627 z M 20.769024,-4.0898494 c 0.316406,-0.9609375 1.054688,-1.5234375 2.027344,-1.5234375 0.902344,0 1.335937,0.515625 1.371094,1.5234375 z m 10.766602,0.4921875 V -5.625e-6 h 1.019531 V -3.9492244 c 0,-1.4765625 -0.890625,-2.3554687 -2.179688,-2.3554687 -0.808593,0 -1.757812,0.3398437 -2.460937,1.1132812 l -0.128906,-1.1132812 -0.84375,0.1875 V -5.625e-6 h 1.019531 V -4.4531306 c 0.550781,-0.75 1.335937,-1.0664063 2.003906,-1.0664063 1.007813,0 1.570313,0.703125 1.570313,1.921875 z m 0,0"
         style="fill:#586e75;fill-opacity:1;fill-rule:nonzero;stroke:none"
         aria-label="when"
         transform="matrix(1.3333333,0,0,1.3333333,377.63219,250.19532)" />
      <path
         id="path7"
         d="M 0,-3.69891 -18.58485,-35.35979"
         style="fill:none;stroke:#586e75;stroke-width:0.3985;stroke-linecap:butt;stroke-linejoin:miter;stroke-miterlimit:10;stroke-dasharray:none;stroke-opacity:1"
         transform="matrix(1.3333333,0,0,-1.3333333,424.89467,183.776)" />
      <path
         id="path8"
         d="M 0,-3.69891 18.58487,-39.76984"
         style="fill:none;stroke:#586e75;stroke-width:0.3985;stroke-linecap:butt;stroke-linejoin:miter;stroke-miterlimit:10;stroke-dasharray:none;stroke-opacity:1"
         transform="matrix(1.3333333,0,0,-1.3333333,424.89467,183.776)" />
      <path
         id="path9"
         d="m 3.5154769,0.10610656 c 0.6210937,0 1.2890625,-0.22265625 1.875,-0.76171875 L 5.0857894,-1.1595184 c -0.421875,0.33984371 -0.890625,0.50390621 -1.3007813,0.50390621 -0.7148437,0 -1.125,-0.45703121 -1.125,-1.31250001 v -3.3984375 l 2.390625,0.011719 0.046875,-0.75 -2.4375,0.035156 v -1.59375 l -0.6914062,0.1289063 -0.3164063,1.4765625 -1.21874997,0.011719 -0.0703125,0.6796875 H 1.6170394 v 3.5625 c 0,1.21875001 0.8085937,1.91015626 1.8984375,1.91015596 z M 11.490086,-3.5970184 V 6.378125e-4 h 1.019532 V -3.9485809 c 0,-1.4765625 -0.867188,-2.3554688 -2.15625,-2.3554688 -0.7968755,0 -1.6992192,0.3398438 -2.3906255,1.0195313 v -5.4726566 l -0.9960937,0.199219 V 6.378125e-4 H 7.9627425 V -4.4993622 c 0.5390625,-0.703125 1.3125,-1.0195312 1.96875,-1.0195312 1.0078125,0 1.5585935,0.703125 1.5585935,1.921875 z m 5.938477,3.73828121 c 0.808594,0 1.640625,-0.2578125 2.449219,-1.03125 l -0.375,-0.55078121 c -0.585938,0.52734371 -1.207032,0.76171871 -1.875,0.76171871 -1.3125,0 -2.226563,-0.91406251 -2.226563,-2.35546871 0,-0.140625 0,-0.2695313 0.02344,-0.4101563 h 4.417968 c 0.02344,-0.1523437 0.03516,-0.3632812 0.03516,-0.5273437 0,-1.4765625 -0.738282,-2.3554688 -2.226563,-2.3554688 -1.828125,0 -3.222656,1.3828125 -3.222656,3.4335938 0,1.875 1.230469,3.03515621 3,3.03515621 z M 15.565282,-4.0892059 c 0.316406,-0.9609375 1.054687,-1.5234375 2.027343,-1.5234375 0.902344,0 1.335938,0.515625 1.371094,1.5234375 z m 0,0"
         style="fill:#586e75;fill-opacity:1;fill-rule:nonzero;stroke:none"
         aria-label="the"
         transform="matrix(1.3333333,0,0,1.3333333,304.60176,183.77649)" />
      <path
         id="path10"
         d="m 3.5155394,0.10558313 c 0.6210937,0 1.2890625,-0.22265625 1.875,-0.76171875 L 5.0858519,-1.1600419 c -0.421875,0.33984378 -0.890625,0.50390628 -1.3007813,0.50390628 -0.7148437,0 -1.125,-0.45703128 -1.125,-1.31249998 v -3.3984375 l 2.390625,0.011719 0.046875,-0.75 -2.4375,0.035156 v -1.59375 l -0.6914062,0.1289062 -0.3164063,1.4765625 -1.21874997,0.011719 -0.0703125,0.6796875 H 1.6171019 v 3.5625 c 0,1.21874998 0.8085937,1.91015623 1.8984375,1.91015603 z M 11.490149,-3.5975419 V 1.14375e-4 H 12.50968 V -3.9491044 c 0,-1.4765625 -0.867187,-2.3554687 -2.15625,-2.3554687 -0.796875,0 -1.6992187,0.3398437 -2.390625,1.0195312 v -5.4726561 l -0.9960937,0.199219 V 1.14375e-4 H 7.962805 V -4.4998856 c 0.5390625,-0.703125 1.3125,-1.0195313 1.96875,-1.0195313 1.007813,0 1.558594,0.703125 1.558594,1.921875 z m 5.938476,3.73828128 c 0.808594,0 1.640625,-0.2578125 2.449219,-1.03125 l -0.375,-0.55078128 c -0.585937,0.52734378 -1.207031,0.76171878 -1.875,0.76171878 -1.3125,0 -2.226562,-0.91406248 -2.226562,-2.35546878 0,-0.140625 0,-0.2695312 0.02344,-0.4101562 h 4.417969 c 0.02344,-0.1523438 0.03516,-0.3632813 0.03516,-0.5273438 0,-1.4765625 -0.738281,-2.3554687 -2.226562,-2.3554687 -1.828125,0 -3.222657,1.3828125 -3.222657,3.4335937 0,1.875 1.230469,3.03515628 3,3.03515628 z M 15.565344,-4.0897294 c 0.316406,-0.9609375 1.054688,-1.5234375 2.027344,-1.5234375 0.902344,0 1.335937,0.515625 1.371094,1.5234375 z m 6.172852,4.089843775 h 1.019531 V -4.1717606 c 0.539062,-0.7734375 1.113281,-1.21875 1.816406,-1.21875 0.351563,0 0.726563,0.1054687 0.960938,0.2929687 l 0.433593,-0.8554687 c -0.269531,-0.2226563 -0.679687,-0.328125 -1.101562,-0.328125 -0.855469,0 -1.558594,0.4921875 -2.144531,1.3359375 l -0.140625,-1.359375 -0.84375,0.1640625 z m 7.989257,0.140625005 c 0.808594,0 1.640625,-0.2578125 2.449219,-1.03125 l -0.375,-0.55078128 c -0.585937,0.52734378 -1.207031,0.76171878 -1.875,0.76171878 -1.3125,0 -2.226562,-0.91406248 -2.226562,-2.35546878 0,-0.140625 0,-0.2695312 0.02344,-0.4101562 h 4.417969 c 0.02344,-0.1523438 0.03516,-0.3632813 0.03516,-0.5273438 0,-1.4765625 -0.738281,-2.3554687 -2.226562,-2.3554687 -1.828125,0 -3.222657,1.3828125 -3.222657,3.4335937 0,1.875 1.230469,3.03515628 3,3.03515628 z M 27.864172,-4.0897294 c 0.316406,-0.9609375 1.054688,-1.5234375 2.027344,-1.5234375 0.902344,0 1.335937,0.515625 1.371094,1.5234375 z m 0,0"
         style="fill:#586e75;fill-opacity:1;fill-rule:nonzero;stroke:none"
         aria-label="there"
         transform="matrix(1.3333333,0,0,1.3333333,321.82043,250.19516)" />
      <path
         id="path11"
         d="m 4.0794688,0.09426406 c 1.828125,0 3.2109375,-1.42968746 3.2109375,-3.35156246 0,-1.7578125 -1.125,-3.0234375 -2.859375,-3.0234375 -0.9375,0 -1.6992188,0.3515625 -2.296875,1.0664062 l -0.140625,-1.0898437 -0.8203125,0.1875 V 4.3364516 L 2.1810313,4.1723891 v -4.87500004 c 0.4453125,0.50390625 1.125,0.796875 1.8984375,0.796875 z M 2.1810313,-1.5463609 v -2.8359375 c 0.5507812,-0.8671875 1.3007812,-1.1484375 1.9921875,-1.1484375 1.2539062,0 2.0273437,1.0429687 2.0273437,2.3789062 0,1.5117188 -0.9140625,2.50781251 -2.2382812,2.50781251 -0.7382813,0 -1.3710938,-0.3046875 -1.78125,-0.90234371 z M 9.2562266,5.140625e-4 H 10.264039 V -10.733861 l -1.0078124,0.164063 z M 17.145875,0.09426406 c 0.480469,0 0.914063,-0.2109375 1.183594,-0.5390625 l -0.339844,-0.48046875 c -0.175781,0.1875 -0.410156,0.29296875 -0.621094,0.29296875 -0.28125,0 -0.433593,-0.234375 -0.433593,-0.69140626 l 0.03516,-3.140625 c 0.01172,-1.1484375 -0.550781,-1.8632812 -1.746094,-1.8632812 -1.289062,0 -2.578125,0.8085937 -2.777344,1.96875 l 0.996094,0.09375 c 0.105469,-0.984375 0.972656,-1.4179688 1.617188,-1.4179688 0.597656,0 0.949218,0.3984375 0.925781,1.3359375 l -0.01172,0.8671875 -1.96875,0.5273438 c -1.3125,0.3632812 -1.6875,0.9375 -1.6875,1.6640625 0,0.82031246 0.609375,1.38281246 1.511719,1.38281246 0.75,0 1.464844,-0.41015625 2.15625,-0.984375 0.152344,0.65625 0.574219,0.984375 1.160156,0.984375 z M 13.313844,-1.4408922 c 0,-0.3632812 0.1875,-0.6914062 0.949219,-0.9257812 l 1.699218,-0.5273438 -0.03516,1.3828125 c 0,0.011719 0,0.070312 0,0.082031 -0.667969,0.45703121 -1.242187,0.73828121 -1.734375,0.73828121 -0.480469,0 -0.878906,-0.2578125 -0.878906,-0.75000001 z m 10.690429,-4.7695312 -1.863281,5.1445312 -2.238281,-5.1445312 h -1.125 l 2.882812,6.31640621 -1.992187,4.23046879 h 1.089844 l 4.277343,-10.546875 z m 0,0"
         style="fill:#586e75;fill-opacity:1;fill-rule:nonzero;stroke:none"
         aria-label="play"
         transform="matrix(1.3333333,0,0,1.3333333,275.95133,250.19853)" />
      <path
         id="path12"
         d="M 0,-3.83391 -19.06485,-35.37479"
         style="fill:none;stroke:#586e75;stroke-width:0.3985;stroke-linecap:butt;stroke-linejoin:miter;stroke-miterlimit:10;stroke-dasharray:none;stroke-opacity:1"
         transform="matrix(1.3333333,0,0,-1.3333333,318.31243,183.77649)" />
      <path
         id="path13"
         d="M 0,-3.83391 19.06487,-35.35979"
         style="fill:none;stroke:#586e75;stroke-width:0.3985;stroke-linecap:butt;stroke-linejoin:miter;stroke-miterlimit:10;stroke-dasharray:none;stroke-opacity:1"
         transform="matrix(1.3333333,0,0,-1.3333333,318.31243,183.77649)" />
      <path
         id="path14"
         d="M 0,-3.83391 -39.96725,-35.35979"
         style="fill:none;stroke:#586e75;stroke-width:0.3985;stroke-linecap:butt;stroke-linejoin:miter;stroke-miterlimit:10;stroke-dasharray:none;stroke-opacity:1"
         transform="matrix(1.3333333,0,0,-1.3333333,371.604,117.35333)" />
      <path
         id="path15"
         d="M 0,-3.83391 39.96725,-36.66483"
         style="fill:none;stroke:#586e75;stroke-width:0.3985;stroke-linecap:butt;stroke-linejoin:miter;stroke-miterlimit:10;stroke-dasharray:none;stroke-opacity:1"
         transform="matrix(1.3333333,0,0,-1.3333333,371.604,117.35333)" />
      <path
         id="path16"
         d="M 1.4418266,0.00137156 H 2.4613578 V -6.3033159 L 1.4418266,-6.1392534 Z M 1.9457328,-8.0376909 c 0.421875,0 0.7265625,-0.28125 0.7265625,-0.703125 0,-0.421875 -0.3046875,-0.703125 -0.7265625,-0.703125 -0.4335937,0 -0.7148437,0.28125 -0.7148437,0.703125 0,0.421875 0.28125,0.703125 0.7148437,0.703125 z m 4.6845703,8.17968746 c 1.453125,0 2.3203125,-0.890625 2.3203125,-1.94531246 0,-2.0976563 -3.2460937,-1.5703125 -3.2460937,-2.9765625 0,-0.5039063 0.4335937,-0.890625 1.1601562,-0.890625 0.4570313,0 1.125,0.1992187 1.5,0.5742187 l 0.3046875,-0.796875 c -0.46875,-0.3046875 -1.125,-0.4453125 -1.734375,-0.4453125 -1.1953125,0 -2.1679687,0.609375 -2.1679687,1.7460938 0,2.0742187 3.2226562,1.4882812 3.2226562,2.9882812 0,0.5507813 -0.4921875,1.03125001 -1.3125,1.03125001 -0.6679687,0 -1.453125,-0.28125 -1.921875,-0.72656251 l -0.3046875,0.83203126 c 0.46875,0.328125 1.2773438,0.609375 2.1796875,0.609375 z m 0,0"
         style="fill:#586e75;fill-opacity:1;fill-rule:nonzero;stroke:none"
         aria-label="is"
         transform="matrix(1.3333333,0,0,1.3333333,163.99553,117.35364)" />
      <path
         id="path17"
         d="M 5.7670844,-3.5968784 V 7.778125e-4 H 6.7866156 V -3.9484409 c 0,-1.4765625 -0.890625,-2.3554688 -2.1796875,-2.3554688 -0.8085937,0 -1.7578125,0.3398438 -2.4609375,1.1132813 l -0.1289062,-1.1132813 -0.84375,0.1875 V 7.778125e-4 H 2.1928656 V -4.4523472 c 0.5507813,-0.75 1.3359375,-1.0664062 2.0039063,-1.0664062 1.0078125,0 1.5703125,0.703125 1.5703125,1.921875 z m 5.9794926,3.71484371 c 1.945312,0 3.375,-1.38281251 3.375,-3.31640621 0,-1.8164063 -1.347657,-3.140625 -3.164063,-3.140625 -1.933594,0 -3.3749999,1.3945312 -3.3749999,3.3046875 0,1.8398437 1.3359375,3.15234371 3.1640629,3.15234371 z m 0.128906,-0.71484375 c -1.242188,0 -2.2031252,-0.99609376 -2.2031252,-2.55468746 0,-1.3828125 0.8085942,-2.4609375 2.1445312,-2.4609375 1.265625,0 2.203125,0.9726562 2.203125,2.5195312 0,1.3710938 -0.785156,2.49609376 -2.144531,2.49609376 z m 0,0"
         style="fill:#586e75;fill-opacity:1;fill-rule:nonzero;stroke:none"
         aria-label="no"
         transform="matrix(1.3333333,0,0,1.3333333,220.38087,183.77631)" />
      <path
         id="path18"
         d="m 3.7963969,0.11844188 c 1.9453125,0 3.375,-1.38281248 3.375,-3.31640628 0,-1.8164062 -1.3476563,-3.140625 -3.1640625,-3.140625 -1.9335938,0 -3.37500002,1.3945313 -3.37500002,3.3046875 0,1.8398438 1.33593752,3.15234378 3.16406252,3.15234378 z m 0.1289062,-0.71484375 c -1.2421875,0 -2.203125,-0.99609373 -2.203125,-2.55468753 0,-1.3828125 0.8085938,-2.4609375 2.1445313,-2.4609375 1.265625,0 2.203125,0.9726563 2.203125,2.5195313 0,1.3710937 -0.7851563,2.49609373 -2.1445313,2.49609373 z m 5.569336,-5.82421873 v 0.3632812 l -1.1953125,0.011719 -0.082031,0.6796875 H 9.4946391 V 0.00125438 H 10.51417 V -5.3659331 l 2.402344,0.011719 0.07031,-0.75 -2.472657,0.035156 v -0.6210938 c 0,-1.3242187 0.304688,-3.234375 2.132813,-3.234375 0.597656,0 1.125,0.2109375 1.546875,0.5039063 l 0.433594,-0.7617184 c -0.457032,-0.328125 -1.054688,-0.480469 -1.664063,-0.480469 -2.039062,0 -3.4687499,1.4531249 -3.4687499,4.2421874 z m 0,0"
         style="fill:#586e75;fill-opacity:1;fill-rule:nonzero;stroke:none"
         aria-label="of"
         transform="matrix(1.3333333,0,0,1.3333333,246.6022,250.19364)" />
      <path
         id="path19"
         d="M 9.7394363,-3.6906419 V 7.64375e-4 H 10.770686 V -3.9484544 c 0,-1.4765625 -0.8085935,-2.3554687 -2.003906,-2.3554687 -0.84375,0 -1.78125,0.375 -2.4492187,1.2304687 -0.3046875,-0.7734375 -0.9609375,-1.2304687 -1.828125,-1.2304687 -0.796875,0 -1.6875,0.3515625 -2.34375,1.0898437 L 2.01678,-6.3039231 l -0.84375,0.1875 V 7.64375e-4 H 2.1925613 V -4.4640794 c 0.5273437,-0.7382812 1.2539062,-1.0546875 1.875,-1.0546875 0.9140625,0 1.40625,0.6914063 1.40625,1.828125 V 7.64375e-4 H 6.51678 V -3.9484544 c 0,-0.1640625 -0.023437,-0.3398437 -0.035156,-0.4921875 0.5039062,-0.75 1.2421875,-1.078125 1.8632812,-1.078125 0.9140625,0 1.3945313,0.6914063 1.3945311,1.828125 z M 13.366389,7.64375e-4 h 1.019532 V -6.3039231 l -1.019532,0.1640625 z M 13.870296,-8.0382981 c 0.421875,0 0.726562,-0.28125 0.726562,-0.703125 0,-0.421875 -0.304687,-0.703125 -0.726562,-0.703125 -0.433594,0 -0.714844,0.28125 -0.714844,0.703125 0,0.421875 0.28125,0.703125 0.714844,0.703125 z m 5.469726,8.13281248 c 0.925781,0 1.6875,-0.3984375 2.285156,-1.12499998 l 0.140625,1.12499998 0.84375,-0.1875 V -10.757048 l -1.007812,0.199219 v 5.0859371 c -0.480469,-0.5625 -1.171875,-0.84375 -1.957031,-0.84375 -1.78125,0 -3.175782,1.4414063 -3.175782,3.3632813 0,1.7578125 1.125,3.04687498 2.871094,3.04687498 z m -1.78125,-3.15234378 c 0,-1.4882812 0.925781,-2.5078125 2.238281,-2.5078125 0.75,0 1.382813,0.328125 1.804688,0.9726563 v 2.7539062 c -0.5625,0.89062503 -1.324219,1.19531253 -2.027344,1.19531253 -1.230469,0 -2.015625,-1.01953123 -2.015625,-2.41406253 z m 9.732422,3.15234378 c 0.925781,0 1.6875,-0.3984375 2.285156,-1.12499998 l 0.140625,1.12499998 0.84375,-0.1875 V -10.757048 l -1.007812,0.199219 v 5.0859371 c -0.480469,-0.5625 -1.171875,-0.84375 -1.957031,-0.84375 -1.78125,0 -3.175782,1.4414063 -3.175782,3.3632813 0,1.7578125 1.125,3.04687498 2.871094,3.04687498 z m -1.78125,-3.15234378 c 0,-1.4882812 0.925781,-2.5078125 2.238281,-2.5078125 0.75,0 1.382813,0.328125 1.804688,0.9726563 v 2.7539062 c -0.5625,0.89062503 -1.324219,1.19531253 -2.027344,1.19531253 -1.230469,0 -2.015625,-1.01953123 -2.015625,-2.41406253 z m 7.549805,3.058593775 h 1.007812 V -10.733611 l -1.007812,0.164063 z m 6.029297,0.140625005 c 0.808593,0 1.640625,-0.2578125 2.449218,-1.03125 l -0.375,-0.55078128 c -0.585937,0.52734378 -1.207031,0.76171878 -1.875,0.76171878 -1.3125,0 -2.226562,-0.91406248 -2.226562,-2.35546878 0,-0.140625 0,-0.2695312 0.02344,-0.4101562 h 4.417969 c 0.02344,-0.1523438 0.03516,-0.3632813 0.03516,-0.5273438 0,-1.4765625 -0.738281,-2.3554687 -2.226562,-2.3554687 -1.828125,0 -3.222656,1.3828125 -3.222656,3.4335937 0,1.875 1.230468,3.03515628 3,3.03515628 z M 37.225764,-4.0890794 c 0.316407,-0.9609375 1.054688,-1.5234375 2.027344,-1.5234375 0.902344,0 1.335938,0.515625 1.371094,1.5234375 z m 0,0"
         style="fill:#586e75;fill-opacity:1;fill-rule:nonzero;stroke:none"
         aria-label="middle"
         transform="matrix(1.3333333,0,0,1.3333333,178.31096,250.19429)" />
      <path
         id="path20"
         d="M 0,-3.8189 -18.30736,-35.35979"
         style="fill:none;stroke:#586e75;stroke-width:0.3985;stroke-linecap:butt;stroke-linejoin:miter;stroke-miterlimit:10;stroke-dasharray:none;stroke-opacity:1"
         transform="matrix(1.3333333,0,0,-1.3333333,230.87153,183.77631)" />
      <path
         id="path21"
         d="M 0,-3.8189 18.30736,-35.44978"
         style="fill:none;stroke:#586e75;stroke-width:0.3985;stroke-linecap:butt;stroke-linejoin:miter;stroke-miterlimit:10;stroke-dasharray:none;stroke-opacity:1"
         transform="matrix(1.3333333,0,0,-1.3333333,230.87153,183.77631)" />
      <path
         id="path22"
         d="m 3.1628828,4.3363253 c 1.9921875,0 3.65625,-1.265625 3.65625,-2.90625 0,-1.32421874 -1.125,-1.52343749 -2.7890625,-1.69921874 -1.453125,-0.15234375 -2.1445312,-0.28125 -2.1445312,-0.84374996 0,-0.328125 0.2460937,-0.5859375 0.5976562,-0.8085938 0.2929688,0.09375 0.5742188,0.140625 0.9023438,0.140625 1.5351562,0 2.6484375,-1.0078125 2.6484375,-2.3789062 0,-0.4921875 -0.1523438,-0.9375 -0.421875,-1.2890625 h 1.3476562 v -0.65625 L 4.9792891,-5.9878934 C 4.5925703,-6.2105497 4.1238203,-6.3277372 3.5847578,-6.3277372 c -1.5,0 -2.66015624,0.984375 -2.66015624,2.34375 0,0.7734375 0.37500004,1.4296875 1.00781254,1.828125 -0.5859375,0.3867188 -0.9257813,0.8085938 -0.9257813,1.37109376 0,0.609375 0.4570313,0.90234375 1.1484375,1.08984375 -1.078125,0.64453125 -1.60546874,1.45312499 -1.60546874,2.20312499 0,1.125 1.11328124,1.828125 2.61328124,1.828125 z m 0.375,-6.8085937 c -0.9609375,0 -1.6289062,-0.6796875 -1.6289062,-1.6171875 0,-0.9375 0.609375,-1.546875 1.5117187,-1.546875 0.984375,0 1.6640625,0.6679687 1.6640625,1.6289062 0,0.9023438 -0.6210937,1.5351563 -1.546875,1.5351563 z M 1.6042891,2.2972628 c 0,-0.6445312 0.3867187,-1.2890625 1.3007812,-1.85156249 0.2109375,0.0351563 0.4101563,0.046875 0.5859375,0.0703125 1.640625,0.17578125 2.34375,0.29296875 2.34375,1.21874999 0,1.0898438 -1.0664062,1.921875 -2.4140625,1.921875 -1.078125,0 -1.8164062,-0.5039062 -1.8164062,-1.359375 z M 12.810344,0.09413781 c 0.480469,0 0.914062,-0.2109375 1.183594,-0.5390625 l -0.339844,-0.48046875 c -0.175781,0.1875 -0.410156,0.29296875 -0.621094,0.29296875 -0.28125,0 -0.433594,-0.234375 -0.433594,-0.69140621 l 0.03516,-3.140625 c 0.01172,-1.1484375 -0.550782,-1.8632813 -1.746094,-1.8632813 -1.2890627,0 -2.5781252,0.8085938 -2.777344,1.96875 l 0.9960938,0.09375 c 0.1054687,-0.984375 0.9726562,-1.4179687 1.6171872,-1.4179687 0.597657,0 0.949219,0.3984375 0.925782,1.3359375 l -0.01172,0.8671875 -1.9687502,0.5273437 c -1.3125,0.3632813 -1.6875,0.9375 -1.6875,1.6640625 0,0.82031251 0.609375,1.38281251 1.5117187,1.38281251 0.7500005,0 1.4648435,-0.41015625 2.1562505,-0.984375 0.152343,0.65625 0.574218,0.984375 1.160156,0.984375 z M 8.9783125,-1.4410184 c 0,-0.3632813 0.1875,-0.6914063 0.9492188,-0.9257813 l 1.6992187,-0.5273437 -0.03516,1.3828125 c 0,0.011719 0,0.070312 0,0.082031 -0.667969,0.45703126 -1.242188,0.73828126 -1.7343752,0.73828126 -0.4804688,0 -0.8789063,-0.2578125 -0.8789063,-0.74999996 z m 14.8154295,-2.25 V 3.878125e-4 h 1.03125 V -3.9488309 c 0,-1.4765625 -0.808594,-2.3554688 -2.003906,-2.3554688 -0.84375,0 -1.78125,0.375 -2.449219,1.2304688 -0.304687,-0.7734375 -0.960937,-1.2304688 -1.828125,-1.2304688 -0.796875,0 -1.6875,0.3515625 -2.34375,1.0898438 l -0.128906,-1.0898438 -0.84375,0.1875 V 3.878125e-4 h 1.019531 V -4.4644559 c 0.527344,-0.7382813 1.253906,-1.0546875 1.875,-1.0546875 0.914063,0 1.40625,0.6914062 1.40625,1.828125 V 3.878125e-4 h 1.042969 V -3.9488309 c 0,-0.1640625 -0.02344,-0.3398438 -0.03516,-0.4921875 0.503906,-0.75 1.242187,-1.078125 1.863281,-1.078125 0.914062,0 1.394531,0.6914062 1.394531,1.828125 z m 5.888672,3.83203121 c 0.808594,0 1.640625,-0.2578125 2.449219,-1.03125 l -0.375,-0.55078121 c -0.585938,0.52734371 -1.207031,0.76171871 -1.875,0.76171871 -1.3125,0 -2.226563,-0.91406251 -2.226563,-2.35546871 0,-0.140625 0,-0.2695313 0.02344,-0.4101563 h 4.417969 c 0.02344,-0.1523437 0.03516,-0.3632812 0.03516,-0.5273437 0,-1.4765625 -0.738281,-2.3554688 -2.226563,-2.3554688 -1.828125,0 -3.222656,1.3828125 -3.222656,3.4335938 0,1.875 1.230469,3.03515621 3,3.03515621 z M 27.819133,-4.0894559 c 0.316406,-0.9609375 1.054687,-1.5234375 2.027344,-1.5234375 0.902343,0 1.335937,0.515625 1.371093,1.5234375 z m 0,0"
         style="fill:#586e75;fill-opacity:1;fill-rule:nonzero;stroke:none"
         aria-label="game"
         transform="matrix(1.3333333,0,0,1.3333333,87.997667,183.77683)" />
      <path
         id="path23"
         d="m 3.1652734,4.3367316 c 1.9921875,0 3.65625,-1.265625 3.65625,-2.90625 0,-1.32421879 -1.125,-1.52343754 -2.7890625,-1.69921879 -1.453125,-0.15234375 -2.1445312,-0.28125 -2.1445312,-0.84375001 0,-0.328125 0.2460937,-0.5859375 0.5976562,-0.8085937 0.2929688,0.09375 0.5742188,0.140625 0.9023438,0.140625 1.5351562,0 2.6484375,-1.0078125 2.6484375,-2.3789063 0,-0.4921875 -0.1523438,-0.9375 -0.421875,-1.2890625 h 1.3476562 v -0.65625 L 4.9816797,-5.9874872 C 4.5949609,-6.2101434 4.1262109,-6.3273309 3.5871484,-6.3273309 c -1.5,0 -2.66015621,0.984375 -2.66015621,2.34375 0,0.7734375 0.37500001,1.4296875 1.00781251,1.828125 -0.5859375,0.3867187 -0.9257813,0.8085937 -0.9257813,1.37109371 0,0.609375 0.4570313,0.90234375 1.1484375,1.08984375 -1.078125,0.64453125 -1.60546871,1.45312504 -1.60546871,2.20312504 0,1.125 1.11328121,1.828125 2.61328121,1.828125 z m 0.375,-6.8085938 c -0.9609375,0 -1.6289062,-0.6796875 -1.6289062,-1.6171875 0,-0.9375 0.609375,-1.546875 1.5117187,-1.546875 0.984375,0 1.6640625,0.6679688 1.6640625,1.6289063 0,0.9023437 -0.6210937,1.5351562 -1.546875,1.5351562 z M 1.6066797,2.2976691 c 0,-0.6445313 0.3867187,-1.2890625 1.3007812,-1.85156254 0.2109375,0.0351563 0.4101563,0.046875 0.5859375,0.0703125 1.640625,0.17578125 2.34375,0.29296875 2.34375,1.21875004 0,1.0898437 -1.0664062,1.921875 -2.4140625,1.921875 -1.078125,0 -1.8164062,-0.5039063 -1.8164062,-1.359375 z M 8.4182031,7.940625e-4 H 9.4377344 V -4.1710809 c 0.5390625,-0.7734375 1.1132816,-1.21875 1.8164066,-1.21875 0.351562,0 0.726562,0.1054687 0.960937,0.2929687 l 0.433594,-0.8554687 c -0.269531,-0.2226563 -0.679688,-0.328125 -1.101563,-0.328125 -0.855468,0 -1.5585934,0.4921875 -2.1445309,1.3359375 l -0.140625,-1.359375 -0.84375,0.1640625 z M 16.501211,0.11798156 c 1.945312,0 3.375,-1.38281246 3.375,-3.31640626 0,-1.8164062 -1.347656,-3.140625 -3.164063,-3.140625 -1.933593,0 -3.375,1.3945313 -3.375,3.3046875 0,1.8398438 1.335938,3.15234376 3.164063,3.15234376 z m 0.128906,-0.71484375 c -1.242187,0 -2.203125,-0.99609371 -2.203125,-2.55468751 0,-1.3828125 0.808594,-2.4609375 2.144531,-2.4609375 1.265625,0 2.203125,0.9726563 2.203125,2.5195313 0,1.3710937 -0.785156,2.49609371 -2.144531,2.49609371 z m 7.142578,0.66796875 c 0.832032,0 1.734375,-0.3515625 2.390625,-1.07812496 l 0.128907,1.10156246 0.855468,-0.1875 V -6.3038934 l -1.03125,0.1875 v 4.3476562 c -0.527343,0.75 -1.277343,1.07812501 -1.921875,1.07812501 -0.960937,0 -1.511718,-0.70312501 -1.511718,-1.89843751 v -3.7148437 l -1.019532,0.1875 v 3.8554687 c 0,1.46484376 0.867188,2.33203126 2.109375,2.33203126 z m 10.3125,-3.66796876 V 7.940625e-4 h 1.019532 V -3.9484247 c 0,-1.4765625 -0.890625,-2.3554687 -2.179688,-2.3554687 -0.808594,0 -1.757812,0.3398437 -2.460937,1.1132812 l -0.128907,-1.1132812 -0.84375,0.1875 V 7.940625e-4 h 1.019532 V -4.4523309 c 0.550781,-0.75 1.335937,-1.0664063 2.003906,-1.0664063 1.007812,0 1.570312,0.703125 1.570312,1.921875 z m 5.701172,3.69140626 c 0.925781,0 1.6875,-0.3984375 2.285156,-1.12499996 l 0.140625,1.12499996 0.84375,-0.1875 V -10.757018 l -1.007812,0.199218 v 5.0859378 c -0.480469,-0.5625 -1.171875,-0.84375 -1.957031,-0.84375 -1.78125,0 -3.175782,1.4414063 -3.175782,3.3632813 0,1.7578125 1.125,3.04687496 2.871094,3.04687496 z m -1.78125,-3.15234376 c 0,-1.4882812 0.925781,-2.5078125 2.238281,-2.5078125 0.75,0 1.382813,0.328125 1.804688,0.9726563 v 2.7539062 c -0.5625,0.89062501 -1.324219,1.19531251 -2.027344,1.19531251 -1.230469,0 -2.015625,-1.01953121 -2.015625,-2.41406251 z m 0,0"
         style="fill:#586e75;fill-opacity:1;fill-rule:nonzero;stroke:none"
         aria-label="ground"
         transform="matrix(1.3333333,0,0,1.3333333,107.36167,250.19816)" />
      <path
         id="path24"
         d="m 3.5159888,0.09312438 c 0.9257812,0 1.6875,-0.3984375 2.2851562,-1.12499998 l 0.140625,1.12499998 0.84375,-0.1875 V -10.758438 l -1.0078125,0.199219 v 5.0859371 c -0.4804687,-0.5625 -1.171875,-0.84375 -1.9570312,-0.84375 -1.78125,0 -3.1757813,1.4414063 -3.1757813,3.3632813 0,1.7578125 1.125,3.04687498 2.8710938,3.04687498 z m -1.78125,-3.15234378 c 0,-1.4882812 0.9257812,-2.5078125 2.2382812,-2.5078125 0.75,0 1.3828125,0.328125 1.8046875,0.9726563 v 2.7539062 c -0.5625,0.89062503 -1.3242187,1.19531253 -2.0273437,1.19531253 -1.2304688,0 -2.015625,-1.01953123 -2.015625,-2.41406253 z M 9.3900122,-6.25625e-4 H 10.409543 V -6.3053131 L 9.3900122,-6.1412506 Z M 9.8939184,-8.0396881 c 0.4218746,0 0.7265626,-0.28125 0.7265626,-0.703125 0,-0.421875 -0.304688,-0.703125 -0.7265626,-0.703125 -0.4335937,0 -0.7148437,0.28125 -0.7148437,0.703125 0,0.421875 0.28125,0.703125 0.7148437,0.703125 z m 5.6601566,8.17968748 c 0.808593,0 1.640625,-0.2578125 2.449218,-1.03125 l -0.375,-0.55078128 c -0.585937,0.52734378 -1.207031,0.76171878 -1.875,0.76171878 -1.3125,0 -2.226562,-0.91406248 -2.226562,-2.35546878 0,-0.140625 0,-0.2695312 0.02344,-0.4101562 h 4.417969 c 0.02344,-0.1523438 0.03516,-0.3632813 0.03516,-0.5273438 0,-1.4765625 -0.738281,-2.3554687 -2.226562,-2.3554687 -1.828125,0 -3.222656,1.3828125 -3.222656,3.4335937 0,1.875 1.230468,3.03515628 3,3.03515628 z M 13.690793,-4.0904694 c 0.316407,-0.9609375 1.054688,-1.5234375 2.027344,-1.5234375 0.902344,0 1.335938,0.515625 1.371094,1.5234375 z m 0,0"
         style="fill:#586e75;fill-opacity:1;fill-rule:nonzero;stroke:none"
         aria-label="die"
         transform="matrix(1.3333333,0,0,1.3333333,70.45264,250.19615)" />
      <path
         id="path25"
         d="M 0,-8.03394 -20.22362,-35.35979"
         style="fill:none;stroke:#586e75;stroke-width:0.3985;stroke-linecap:butt;stroke-linejoin:miter;stroke-miterlimit:10;stroke-dasharray:none;stroke-opacity:1"
         transform="matrix(1.3333333,0,0,-1.3333333,109.87767,183.77683)" />
      <path
         id="path26"
         d="M 0,-8.03394 20.22362,-35.35977"
         style="fill:none;stroke:#586e75;stroke-width:0.3985;stroke-linecap:butt;stroke-linejoin:miter;stroke-miterlimit:10;stroke-dasharray:none;stroke-opacity:1"
         transform="matrix(1.3333333,0,0,-1.3333333,109.87767,183.77683)" />
      <path
         id="path27"
         d="M 0,-3.83391 -45.37294,-39.78485"
         style="fill:none;stroke:#586e75;stroke-width:0.3985;stroke-linecap:butt;stroke-linejoin:miter;stroke-miterlimit:10;stroke-dasharray:none;stroke-opacity:1"
         transform="matrix(1.3333333,0,0,-1.3333333,170.37553,117.35364)" />
      <path
         id="path28"
         d="M 0,-3.83391 45.37296,-39.76984"
         style="fill:none;stroke:#586e75;stroke-width:0.3985;stroke-linecap:butt;stroke-linejoin:miter;stroke-miterlimit:10;stroke-dasharray:none;stroke-opacity:1"
         transform="matrix(1.3333333,0,0,-1.3333333,170.37553,117.35364)" />
      <path
         id="path29"
         d="M 0,-3.8189 -75.45978,-36.66483"
         style="fill:none;stroke:#586e75;stroke-width:0.3985;stroke-linecap:butt;stroke-linejoin:miter;stroke-miterlimit:10;stroke-dasharray:none;stroke-opacity:1"
         transform="matrix(1.3333333,0,0,-1.3333333,270.992,50.929333)" />
      <path
         id="path30"
         d="M 0,-3.8189 75.4598,-35.35979"
         style="fill:none;stroke:#586e75;stroke-width:0.3985;stroke-linecap:butt;stroke-linejoin:miter;stroke-miterlimit:10;stroke-dasharray:none;stroke-opacity:1"
         transform="matrix(1.3333333,0,0,-1.3333333,270.992,50.929333)" />
    </g>
    <path
       id="path31"
       d="m 3.7972969,-7.9112969 c 0.046875,-0.1640625 0.046875,-0.1875 0.046875,-0.1992187 0,-0.1640625 -0.140625,-0.2226563 -0.2695313,-0.2226563 -0.046875,0 -0.058594,0 -0.082031,0.011719 l -1.546875,0.082031 c -0.1640625,0.011719 -0.3867188,0.023437 -0.3867188,0.3515625 0,0.2226563 0.234375,0.2226563 0.3164063,0.2226563 0.1289062,0 0.3398437,0 0.5039062,0.023437 l -1.73437497,6.92578123 c -0.0117188,0.046875 -0.046875,0.22265625 -0.046875,0.26953125 0,0.29296875 0.234375,0.5390625 0.57421877,0.5390625 0.2226562,0 0.5625,-0.10546875 0.7382812,-0.48046875 0.035156,-0.10546875 0.1992188,-0.79687503 0.5507813,-2.19140623 0.2226562,0.023437 1.265625,0.1640625 1.265625,0.9023437 0,0.082031 0,0.1171875 -0.035156,0.2460938 -0.035156,0.1523437 -0.035156,0.1640625 -0.035156,0.2929687 0,0.77343753 0.75,1.23046878 1.5351562,1.23046878 1.2070313,0 1.6523438,-1.76953128 1.6523438,-1.87499998 0,-0.1640625 -0.1875,-0.1640625 -0.2929688,-0.1640625 -0.2109375,0 -0.234375,0.023437 -0.2929687,0.2460937 -0.1054688,0.3398438 -0.3867188,1.35937503 -0.9960938,1.35937503 -0.1992187,0 -0.3164062,-0.10546875 -0.3164062,-0.46875 0,-0.1171875 0.023437,-0.33984373 0.09375,-0.62109373 0.035156,-0.1289063 0.035156,-0.2109375 0.035156,-0.2929688 0,-1.0195312 -1.2070312,-1.21875 -2.0742187,-1.3007812 0.1171875,-0.082031 0.4101562,-0.28125 1.0664062,-0.9140625 0.9257813,-0.9140625 1.4296875,-1.0546875 1.7929688,-1.0546875 0.2226562,0 0.3046875,0.1289062 0.3046875,0.140625 -0.5976563,0.082031 -0.8203125,0.5625 -0.8203125,0.8671875 0,0.2695312 0.1992187,0.5507812 0.5976562,0.5507812 0.2226563,0 0.8671875,-0.1523437 0.8671875,-1.0078125 0,-0.6210937 -0.3984375,-0.984375 -0.9140625,-0.984375 -0.7382812,0 -1.3945312,0.5273438 -2.0976562,1.21875 -0.1289063,0.1289063 -0.703125,0.6796875 -1.1601563,0.9257813 z m 10.5908201,5.3320313 c -0.667969,0.140625 -0.738281,0.7265625 -0.738281,0.84375 0,0.2695312 0.210937,0.5507812 0.597656,0.5507812 0.410156,0 0.867188,-0.3398437 0.867188,-0.9492187 0,-0.5507813 -0.433594,-1.0429688 -1.171875,-1.0429688 -0.679688,0 -1.242188,0.3398438 -1.59375,0.7265625 -0.292969,-0.5625 -0.972657,-0.7265625 -1.40625,-0.7265625 -0.445313,0 -0.785157,0.2578125 -1.0429691,0.6914063 -0.2929687,0.4570312 -0.4570312,1.1132812 -0.4570312,1.1835937 0,0.1640625 0.1757812,0.1640625 0.28125,0.1640625 0.140625,0 0.1875,0 0.2460937,-0.058594 0.023437,-0.023437 0.023437,-0.046875 0.09375,-0.3515625 0.222657,-0.9023438 0.492188,-1.1953125 0.820313,-1.1953125 0.175781,0 0.269531,0.1171875 0.269531,0.4335937 0,0.2109375 -0.03516,0.3515625 -0.164062,0.9140625 -0.05859,0.1992188 -0.257813,0.99609378 -0.339844,1.28906253 -0.04687,0.234375 -0.175781,0.7734375 -0.234375,0.984375 -0.07031,0.31640627 -0.222656,0.85546877 -0.222656,0.93749997 0,0.2578125 0.199218,0.5273438 0.5625,0.5273438 0.246093,0 0.667968,-0.140625 0.796875,-0.6328125 0.01172,-0.035156 0.832031,-3.3046875 0.84375,-3.375 0.04687,-0.1757813 0.04687,-0.1992188 0.199218,-0.3867188 0.28125,-0.3398437 0.726563,-0.6914062 1.324219,-0.6914062 0.292969,0 0.433594,0.1289062 0.46875,0.1640628 z m 0,0"
       style="fill:#d33682;fill-opacity:1;fill-rule:nonzero;stroke:none"
       aria-label="k&#10;r"
       transform="matrix(1.3333333,0,0,1.3333333,198.476,280.50933)" />
    <path
       id="path32"
       d="m 4.7355859,-9.8903594 c 0.070312,-0.1992186 0.070312,-0.2343746 0.070312,-0.2460936 0,-0.199219 -0.1640625,-0.269531 -0.3398437,-0.269531 -0.058594,0 -0.070312,0 -0.1054688,0.01172 l -1.9335937,0.09375 c -0.2109375,0.01172 -0.4804688,0.02344 -0.4804688,0.4453129 0,0.2695312 0.2929688,0.2695312 0.3984375,0.2695312 0.1640625,0 0.4335938,0 0.6210938,0.035156 l -2.15625001,8.64843748 c -0.0117188,0.0585938 -0.0585938,0.29296875 -0.0585938,0.3515625 0,0.3515625 0.28125001,0.66796875 0.71484381,0.66796875 0.2695312,0 0.7148437,-0.12890625 0.9257812,-0.59765625 0.035156,-0.12890625 0.2460938,-1.00781248 0.6796875,-2.74218748 0.2929688,0.023437 1.59375,0.2109375 1.59375,1.125 0,0.1054687 0,0.1523437 -0.046875,0.3164062 -0.046875,0.1875 -0.046875,0.2109375 -0.046875,0.3515625 0,0.98437503 0.9375,1.54687503 1.921875,1.54687503 1.5,0 2.0625,-2.21484373 2.0625,-2.33203123 0,-0.2109375 -0.234375,-0.2109375 -0.3632812,-0.2109375 -0.2695313,0 -0.3046875,0.023437 -0.375,0.2929687 -0.1171875,0.4335938 -0.4804688,1.71093753 -1.2421875,1.71093753 -0.2460938,0 -0.3984375,-0.12890625 -0.3984375,-0.58593753 0,-0.1523437 0.035156,-0.4335937 0.1289062,-0.7734375 0.035156,-0.1640625 0.035156,-0.2695312 0.035156,-0.375 0,-1.2773437 -1.5117188,-1.5234375 -2.5898438,-1.6289062 0.1523438,-0.1054688 0.515625,-0.3398438 1.3359375,-1.1367188 1.1484375,-1.1367187 1.78125,-1.3125 2.2382813,-1.3125 0.28125,0 0.3867187,0.1640625 0.3867187,0.1757813 -0.75,0.1054687 -1.03125,0.703125 -1.03125,1.078125 0,0.328125 0.2460938,0.6914062 0.75,0.6914062 0.28125,0 1.078125,-0.1992187 1.078125,-1.265625 0,-0.7734375 -0.4921875,-1.2304687 -1.1484375,-1.2304687 -0.9140625,0 -1.734375,0.6679687 -2.625,1.5234375 -0.140625,0.1640625 -0.8671875,0.8554687 -1.4296875,1.171875 z m 0,0"
       style="fill:#d33682;fill-opacity:1;fill-rule:nonzero;stroke:none"
       aria-label="k"
       transform="matrix(1.3333333,0,0,1.3333333,233.48667,346.92933)" />
    <g
       id="g32"
       aria-label="r+1"
       transform="matrix(1.3333333,0,0,1.3333333,245.56,350.352)">
      <path
         id="path33"
         d="m 5.3309766,-4.8284531 c -0.6679688,0.140625 -0.7382813,0.7265625 -0.7382813,0.84375 0,0.2695312 0.2109375,0.5507812 0.5976563,0.5507812 0.4101562,0 0.8671875,-0.3398437 0.8671875,-0.9492187 0,-0.5507813 -0.4335938,-1.0429688 -1.171875,-1.0429688 -0.6796875,0 -1.2421875,0.3398438 -1.59375,0.7265625 -0.2929688,-0.5625 -0.9726563,-0.7265625 -1.40625,-0.7265625 -0.4453125,0 -0.7851563,0.2578125 -1.04296879,0.6914063 -0.29296875,0.4570312 -0.45703125,1.1132812 -0.45703125,1.1835937 0,0.1640625 0.17578125,0.1640625 0.28125,0.1640625 0.140625,0 0.1875,0 0.24609375,-0.058594 0.0234375,-0.023437 0.0234375,-0.046875 0.09375,-0.3515625 0.2226563,-0.9023438 0.4921875,-1.1953125 0.8203125,-1.1953125 0.1757813,0 0.2695313,0.1171875 0.2695313,0.4335937 0,0.2109375 -0.035156,0.3515625 -0.1640625,0.9140625 -0.058594,0.1992188 -0.2578125,0.9960938 -0.3398438,1.2890625 -0.046875,0.234375 -0.1757812,0.7734375 -0.234375,0.984375 -0.070312,0.3164063 -0.2226562,0.85546878 -0.2226562,0.93750003 0,0.2578125 0.1992187,0.52734375 0.5625,0.52734375 0.2460937,0 0.6679687,-0.140625 0.796875,-0.6328125 0.011719,-0.0351563 0.8320312,-3.30468748 0.84375,-3.37499998 0.046875,-0.1757813 0.046875,-0.1992188 0.1992187,-0.3867188 0.28125,-0.3398437 0.7265625,-0.6914062 1.3242188,-0.6914062 0.2929687,0 0.4335937,0.1289062 0.46875,0.1640628 z m 0,0"
         style="fill:#d33682;fill-opacity:1;fill-rule:nonzero;stroke:none" />
      <path
         id="path34"
         d="m 12.306562,-2.6604844 h 3.691407 c 0.152343,0 0.46875,0 0.46875,-0.328125 0,-0.3398437 -0.304688,-0.3398437 -0.46875,-0.3398437 h -3.691407 v -3.6914063 c 0,-0.1523437 0,-0.4804687 -0.316406,-0.4804687 -0.339844,0 -0.339844,0.3164062 -0.339844,0.4804687 v 3.6914063 H 7.9471875 c -0.1640625,0 -0.4804688,0 -0.4804688,0.3398437 0,0.328125 0.328125,0.328125 0.4804688,0.328125 h 3.7031245 v 3.6914063 c 0,0.1523437 0,0.4804687 0.316407,0.4804687 0.339843,0 0.339843,-0.3164062 0.339843,-0.4804687 z m 9.070313,-4.8632812 c 0,-0.3515625 -0.02344,-0.3515625 -0.410156,-0.3515625 -0.878907,0.7734375 -2.214844,0.7734375 -2.472657,0.7734375 h -0.234375 v 0.515625 h 0.234375 c 0.410157,0 1.054688,-0.070312 1.535157,-0.234375 v 6.30468748 h -1.675782 v 0.515624995 c 0.503907,-0.023437495 1.769532,-0.023437495 2.332032,-0.023437495 0.5625,0 1.839843,0 2.34375,0.023437495 V -0.51595312 h -1.652344 z m 0,0"
         style="fill:#d33682;fill-opacity:1;fill-rule:nonzero;stroke:none" />
    </g>
    <path
       id="path35"
       d="M 3.2114219,-0.31614062 C 3.1645469,0.63307813 2.7192344,1.6526094 1.8872031,2.3440156 c -0.2109375,0.1757813 -0.2226562,0.1875 -0.2226562,0.28125 0,0.1054688 0.1640625,0.28125 0.28125,0.28125 0.2109375,0 1.8046875,-1.3007812 1.8046875,-3.37499997 0,-1.04296873 -0.5390625,-1.87500003 -1.3828125,-1.87500003 -0.6914063,0 -1.1484375,0.5273438 -1.1484375,1.171875 0,0.59765628 0.421875,1.171875025 1.171875,1.171875025 0.3515625,0 0.6445312,-0.152343745 0.8203125,-0.316406245 z m 0,0"
       style="fill:#d33682;fill-opacity:1;fill-rule:nonzero;stroke:none"
       aria-label=","
       transform="matrix(1.3333333,0,0,1.3333333,278.19467,346.92933)" />
    <path
       id="path36"
       d="m 3.5512578,-1.1716094 c 0,-0.6445312 -0.515625,-1.171875 -1.1601562,-1.171875 -0.65625,0 -1.171875,0.5273438 -1.171875,1.171875 0,0.64453128 0.515625,1.171875025 1.171875,1.171875025 0.6445312,0 1.1601562,-0.527343745 1.1601562,-1.171875025 z m 7.6494142,0 c 0,-0.6445312 -0.515625,-1.171875 -1.160156,-1.171875 -0.6562504,0 -1.1718754,0.5273438 -1.1718754,1.171875 0,0.64453128 0.515625,1.171875025 1.1718754,1.171875025 0.644531,0 1.160156,-0.527343745 1.160156,-1.171875025 z m 7.664062,0 c 0,-0.6445312 -0.515625,-1.171875 -1.160156,-1.171875 -0.65625,0 -1.171875,0.5273438 -1.171875,1.171875 0,0.64453128 0.515625,1.171875025 1.171875,1.171875025 0.644531,0 1.160156,-0.527343745 1.160156,-1.171875025 z m 0,0"
       style="fill:#d33682;fill-opacity:1;fill-rule:nonzero;stroke:none"
       aria-label="..."
       transform="matrix(1.3333333,0,0,1.3333333,287.91733,346.92933)" />
    <path
       id="path37"
       d="M 2.5678594,-0.25754687 C 2.5327031,0.50417188 2.1694219,1.3244844 1.5131719,1.8752656 1.3491094,2.0158906 1.3373906,2.0276094 1.3373906,2.0979219 c 0,0.082031 0.1289063,0.234375 0.2226563,0.234375 0.1640625,0 1.4414062,-1.0429688 1.4414062,-2.70703127 0,-0.83203123 -0.4335937,-1.50000003 -1.1015625,-1.50000003 -0.5507812,0 -0.92578122,0.421875 -0.92578122,0.93750003 0,0.48046875 0.33984372,0.937499995 0.93750002,0.937499995 0.28125,0 0.515625,-0.117187495 0.65625,-0.257812495 z M 11.072742,-7.9098906 c 0.04687,-0.1640625 0.04687,-0.1875 0.04687,-0.1992188 0,-0.1640625 -0.140625,-0.2226562 -0.269531,-0.2226562 -0.04687,0 -0.05859,0 -0.08203,0.011719 l -1.5468753,0.082031 c -0.1640625,0.011719 -0.3867188,0.023437 -0.3867188,0.3515625 0,0.2226562 0.234375,0.2226562 0.3164063,0.2226562 0.1289062,0 0.3398437,0 0.5039062,0.023437 l -1.734375,6.92578128 c -0.011719,0.046875 -0.046875,0.22265625 -0.046875,0.26953125 0,0.29296875 0.234375,0.5390625 0.5742188,0.5390625 0.2226562,0 0.5625,-0.10546875 0.7382812,-0.48046875 0.035156,-0.10546875 0.1992188,-0.79687498 0.5507813,-2.19140628 0.2226562,0.023437 1.2656253,0.1640625 1.2656253,0.9023438 0,0.082031 0,0.1171875 -0.03516,0.2460937 -0.03516,0.1523438 -0.03516,0.1640625 -0.03516,0.2929688 0,0.77343748 0.75,1.23046873 1.535156,1.23046873 1.207032,0 1.652344,-1.76953123 1.652344,-1.87500003 0,-0.1640625 -0.1875,-0.1640625 -0.292969,-0.1640625 -0.210937,0 -0.234375,0.023437 -0.292968,0.2460938 -0.105469,0.3398437 -0.386719,1.35937498 -0.996094,1.35937498 -0.199219,0 -0.316406,-0.10546875 -0.316406,-0.46875 0,-0.1171875 0.02344,-0.33984378 0.09375,-0.62109378 0.03516,-0.1289062 0.03516,-0.2109375 0.03516,-0.2929687 0,-1.0195313 -1.207031,-1.21875 -2.074219,-1.3007813 0.117188,-0.082031 0.410156,-0.28125 1.066406,-0.9140625 0.925782,-0.9140625 1.429688,-1.0546875 1.792969,-1.0546875 0.222656,0 0.304688,0.1289063 0.304688,0.140625 -0.597657,0.082031 -0.820313,0.5625 -0.820313,0.8671875 0,0.2695313 0.199219,0.5507813 0.597656,0.5507813 0.222657,0 0.867188,-0.1523438 0.867188,-1.0078125 0,-0.6210938 -0.398438,-0.984375 -0.914063,-0.984375 -0.738281,0 -1.394531,0.5273437 -2.097656,1.21875 -0.128906,0.1289062 -0.703125,0.6796875 -1.1601561,0.9257812 z m 10.675781,3.3046875 c 0,-0.3164063 -0.246093,-0.5742188 -0.585937,-0.5742188 -0.445313,0 -0.855469,0.421875 -0.855469,0.8320313 0,0.328125 0.246094,0.5742187 0.585938,0.5742187 0.457031,0 0.855468,-0.421875 0.855468,-0.8320312 z m -2.953125,8.3085937 c -0.1875,0.7851563 -0.761718,1.4414063 -1.394531,1.4414063 -0.05859,0 -0.117187,0 -0.1875,-0.023437 0.421875,-0.2695313 0.421875,-0.6796875 0.421875,-0.7265625 0,-0.2578125 -0.210937,-0.5507813 -0.609375,-0.5507813 -0.410156,0 -0.84375,0.3632813 -0.84375,0.8789063 0,0.4921875 0.480469,0.8554687 1.21875,0.8554687 0.761719,0 2.367188,-0.375 2.742188,-1.875 l 1.101562,-4.39453122 c 0.03516,-0.12890625 0.05859,-0.234375 0.05859,-0.39843748 0,-0.7734375 -0.773438,-1.1835938 -1.511719,-1.1835938 -1.429687,0 -2.25,1.66406253 -2.25,1.87500003 0,0.1640625 0.1875,0.1640625 0.292969,0.1640625 0.199219,0 0.210937,-0.0117188 0.304687,-0.1875 0.445313,-1.03125003 1.125,-1.41796873 1.59375,-1.41796873 0.117188,0 0.28125,0.023437 0.28125,0.4453125 0,0.2226562 -0.03516,0.3632812 -0.07031,0.51562498 z m 0,0"
       style="fill:#d33682;fill-opacity:1;fill-rule:nonzero;stroke:none"
       aria-label=",k&#10;j"
       transform="matrix(1.3333333,0,0,1.3333333,318.084,346.92933)" />
    <path
       id="path38"
       d="m 4.7333688,-9.8905394 c 0.070312,-0.1992186 0.070312,-0.2343746 0.070312,-0.2460936 0,-0.199219 -0.1640625,-0.269531 -0.3398438,-0.269531 -0.058594,0 -0.070312,0 -0.1054687,0.01172 l -1.9335938,0.09375 c -0.2109375,0.01172 -0.4804687,0.02344 -0.4804687,0.4453129 0,0.2695312 0.2929687,0.2695312 0.3984375,0.2695312 0.1640625,0 0.4335937,0 0.6210937,0.035156 l -2.15625,8.64843748 c -0.0117188,0.0585938 -0.0585938,0.29296875 -0.0585938,0.3515625 0,0.3515625 0.2812501,0.66796875 0.7148438,0.66796875 0.2695312,0 0.7148438,-0.12890625 0.9257813,-0.59765625 0.035156,-0.12890625 0.2460937,-1.00781248 0.6796875,-2.74218748 0.2929687,0.023437 1.5937499,0.2109375 1.5937499,1.125 0,0.1054687 0,0.1523437 -0.046875,0.3164062 -0.046875,0.1875 -0.046875,0.2109375 -0.046875,0.3515625 0,0.98437503 0.9375,1.54687503 1.921875,1.54687503 1.5,0 2.0625001,-2.21484373 2.0625001,-2.33203123 0,-0.2109375 -0.234375,-0.2109375 -0.3632814,-0.2109375 -0.2695312,0 -0.3046875,0.023437 -0.375,0.2929687 -0.1171875,0.4335938 -0.4804687,1.71093753 -1.2421875,1.71093753 -0.2460937,0 -0.3984375,-0.12890625 -0.3984375,-0.58593753 0,-0.1523437 0.035156,-0.4335937 0.1289063,-0.7734375 0.035156,-0.1640625 0.035156,-0.2695312 0.035156,-0.375 0,-1.2773437 -1.5117187,-1.5234375 -2.5898437,-1.6289062 0.1523437,-0.1054688 0.515625,-0.3398438 1.3359375,-1.1367188 1.1484375,-1.1367187 1.78125,-1.3125 2.2382812,-1.3125 0.28125,0 0.3867188,0.1640625 0.3867188,0.1757813 -0.75,0.1054687 -1.03125,0.703125 -1.03125,1.078125 0,0.328125 0.2460937,0.6914062 0.75,0.6914062 0.28125,0 1.078125,-0.1992187 1.078125,-1.265625 0,-0.7734375 -0.4921875,-1.2304687 -1.1484375,-1.2304687 -0.9140625,0 -1.734375,0.6679687 -2.625,1.5234375 -0.140625,0.1640625 -0.8671875,0.8554687 -1.4296875,1.171875 z m 9.3369142,3.3515625 c 0,-0.3984375 -0.316406,-0.7148437 -0.738281,-0.7148437 -0.574219,0 -1.066407,0.515625 -1.066407,1.03125 0,0.4101562 0.304688,0.7148437 0.738282,0.7148437 0.550781,0 1.066406,-0.515625 1.066406,-1.03125 z m 0.375,7.47656253 c 0,-0.2109375 -0.234375,-0.2109375 -0.363281,-0.2109375 -0.1875,0 -0.292969,0 -0.351563,0.1875 -0.457031,1.58203127 -1.230469,1.81640627 -1.535156,1.81640627 -0.152344,0 -0.246094,-0.046875 -0.246094,-0.328125 0,-0.3398438 0.140625,-0.6796875 0.492188,-1.57031252 l 1.007812,-2.60156248 c 0.07031,-0.1875 0.117188,-0.375 0.117188,-0.5039063 0,-0.796875 -0.773438,-1.359375 -1.710938,-1.359375 -1.558594,0 -2.3203124,2.015625 -2.3203124,2.34375 0,0.2109375 0.2226562,0.2109375 0.3632812,0.2109375 0.1757812,0 0.2812502,0 0.3398442,-0.1992187 0.46875,-1.5703125 1.230468,-1.8046875 1.546875,-1.8046875 0.152343,0 0.234375,0.035156 0.234375,0.328125 0,0.3398437 -0.128907,0.6679687 -0.492188,1.5703125 l -1.007812,2.6015625 c -0.07031,0.1875 -0.117188,0.375 -0.117188,0.5039062 0,0.796875 0.785156,1.3476563 1.710938,1.3476563 1.558593,0 2.332031,-2.0039063 2.332031,-2.33203127 z m 3.175781,-1.25390625 c -0.04687,0.94921875 -0.492187,1.96875002 -1.324219,2.66015622 -0.210937,0.1757813 -0.222656,0.1875 -0.222656,0.28125 0,0.1054688 0.164063,0.28125 0.28125,0.28125 0.210938,0 1.804688,-1.3007812 1.804688,-3.37499997 0,-1.04296873 -0.539063,-1.87500003 -1.382813,-1.87500003 -0.691406,0 -1.148437,0.5273438 -1.148437,1.171875 0,0.59765628 0.421875,1.171875025 1.171875,1.171875025 0.351562,0 0.644531,-0.152343745 0.820312,-0.316406245 z m 0,0"
       style="fill:#d33682;fill-opacity:1;fill-rule:nonzero;stroke:none"
       aria-label="k&#10;i&#10;,"
       transform="matrix(1.3333333,0,0,1.3333333,70.454467,346.92957)" />
    <path
       id="path39"
       d="m 3.5499,-1.1717894 c 0,-0.6445312 -0.515625,-1.171875 -1.1601562,-1.171875 -0.65625,0 -1.171875,0.5273438 -1.171875,1.171875 0,0.64453128 0.515625,1.171875025 1.171875,1.171875025 0.6445312,0 1.1601562,-0.527343745 1.1601562,-1.171875025 z m 7.652344,0 c 0,-0.6445312 -0.515625,-1.171875 -1.160156,-1.171875 -0.6562505,0 -1.1718755,0.5273438 -1.1718755,1.171875 0,0.64453128 0.515625,1.171875025 1.1718755,1.171875025 0.644531,0 1.160156,-0.527343745 1.160156,-1.171875025 z m 7.664062,0 c 0,-0.6445312 -0.515625,-1.171875 -1.160156,-1.171875 -0.65625,0 -1.171875,0.5273438 -1.171875,1.171875 0,0.64453128 0.515625,1.171875025 1.171875,1.171875025 0.644531,0 1.160156,-0.527343745 1.160156,-1.171875025 z m 0,0"
       style="fill:#d33682;fill-opacity:1;fill-rule:nonzero;stroke:none"
       aria-label="..."
       transform="matrix(1.3333333,0,0,1.3333333,99.3918,346.92957)" />
    <path
       id="path40"
       d="M 3.2110328,-0.31632062 C 3.1641578,0.63289813 2.7188453,1.6524294 1.8868141,2.3438356 c -0.2109375,0.1757813 -0.2226563,0.1875 -0.2226563,0.28125 0,0.1054688 0.1640625,0.28125 0.28125,0.28125 0.2109375,0 1.8046875,-1.3007812 1.8046875,-3.37499997 0,-1.04296873 -0.5390625,-1.87500003 -1.3828125,-1.87500003 -0.6914062,0 -1.1484375,0.5273438 -1.1484375,1.171875 0,0.59765628 0.421875,1.171875025 1.171875,1.171875025 0.3515625,0 0.6445313,-0.152343745 0.8203125,-0.316406245 z M 12.008884,-9.8905394 c 0.07031,-0.1992186 0.07031,-0.2343746 0.07031,-0.2460936 0,-0.199219 -0.164063,-0.269531 -0.339844,-0.269531 -0.05859,0 -0.07031,0 -0.105469,0.01172 l -1.9335934,0.09375 c -0.2109375,0.01172 -0.4804687,0.02344 -0.4804687,0.4453129 0,0.2695312 0.2929687,0.2695312 0.3984375,0.2695312 0.1640625,0 0.4335936,0 0.6210936,0.035156 l -2.1562499,8.64843748 c -0.011719,0.0585938 -0.058594,0.29296875 -0.058594,0.3515625 0,0.3515625 0.28125,0.66796875 0.7148437,0.66796875 0.2695313,0 0.7148438,-0.12890625 0.9257813,-0.59765625 0.035156,-0.12890625 0.2460937,-1.00781248 0.6796879,-2.74218748 0.292969,0.023437 1.59375,0.2109375 1.59375,1.125 0,0.1054687 0,0.1523437 -0.04687,0.3164062 -0.04687,0.1875 -0.04687,0.2109375 -0.04687,0.3515625 0,0.98437503 0.9375,1.54687503 1.921875,1.54687503 1.5,0 2.0625,-2.21484373 2.0625,-2.33203123 0,-0.2109375 -0.234375,-0.2109375 -0.363281,-0.2109375 -0.269532,0 -0.304688,0.023437 -0.375,0.2929687 -0.117188,0.4335938 -0.480469,1.71093753 -1.242188,1.71093753 -0.246094,0 -0.398437,-0.12890625 -0.398437,-0.58593753 0,-0.1523437 0.03516,-0.4335937 0.128906,-0.7734375 0.03516,-0.1640625 0.03516,-0.2695312 0.03516,-0.375 0,-1.2773437 -1.511719,-1.5234375 -2.589844,-1.6289062 0.152344,-0.1054688 0.515625,-0.3398438 1.335938,-1.1367188 1.148437,-1.1367187 1.78125,-1.3125 2.238281,-1.3125 0.28125,0 0.386719,0.1640625 0.386719,0.1757813 -0.75,0.1054687 -1.03125,0.703125 -1.03125,1.078125 0,0.328125 0.246094,0.6914062 0.75,0.6914062 0.28125,0 1.078125,-0.1992187 1.078125,-1.265625 0,-0.7734375 -0.492188,-1.2304687 -1.148438,-1.2304687 -0.914062,0 -1.734375,0.6679687 -2.625,1.5234375 -0.140625,0.1640625 -0.867187,0.8554687 -1.429687,1.171875 z m 0,0"
       style="fill:#d33682;fill-opacity:1;fill-rule:nonzero;stroke:none"
       aria-label=",k"
       transform="matrix(1.3333333,0,0,1.3333333,129.55847,346.92957)" />
    <g
       id="g40"
       aria-label="r1"
       transform="matrix(1.3333333,0,0,1.3333333,151.35447,350.35224)">
      <path
         id="path41"
         d="m 5.3327828,-4.8286331 c -0.6679687,0.140625 -0.7382812,0.7265625 -0.7382812,0.84375 0,0.2695312 0.2109375,0.5507812 0.5976562,0.5507812 0.4101563,0 0.8671875,-0.3398437 0.8671875,-0.9492187 0,-0.5507813 -0.4335937,-1.0429688 -1.171875,-1.0429688 -0.6796875,0 -1.2421875,0.3398438 -1.59375,0.7265625 -0.2929687,-0.5625 -0.9726562,-0.7265625 -1.40625,-0.7265625 -0.4453125,0 -0.7851562,0.2578125 -1.04296874,0.6914063 -0.29296875,0.4570312 -0.45703125,1.1132812 -0.45703125,1.1835937 0,0.1640625 0.17578125,0.1640625 0.28125,0.1640625 0.140625,0 0.1875,0 0.24609375,-0.058594 0.0234375,-0.023437 0.0234375,-0.046875 0.09375,-0.3515625 0.2226562,-0.9023438 0.4921875,-1.1953125 0.8203125,-1.1953125 0.1757812,0 0.2695312,0.1171875 0.2695312,0.4335937 0,0.2109375 -0.035156,0.3515625 -0.1640625,0.9140625 -0.058594,0.1992188 -0.2578125,0.9960938 -0.3398437,1.2890625 -0.046875,0.234375 -0.1757813,0.7734375 -0.234375,0.984375 -0.070312,0.3164063 -0.2226563,0.85546878 -0.2226563,0.93750003 0,0.2578125 0.1992188,0.52734375 0.5625,0.52734375 0.2460938,0 0.6679688,-0.140625 0.796875,-0.6328125 0.011719,-0.0351563 0.8320313,-3.30468748 0.84375,-3.37499998 0.046875,-0.1757813 0.046875,-0.1992188 0.1992188,-0.3867188 0.28125,-0.3398437 0.7265625,-0.6914062 1.3242187,-0.6914062 0.2929688,0 0.4335938,0.1289062 0.46875,0.1640628 z m 0,0"
         style="fill:#d33682;fill-opacity:1;fill-rule:nonzero;stroke:none" />
      <path
         id="path42"
         d="m 15.750752,-2.6372269 c 0.175781,0 0.539062,0 0.539062,-0.3632812 0,-0.375 -0.351562,-0.375 -0.539062,-0.375 H 8.4148141 c -0.1757813,0 -0.5390625,0 -0.5390625,0.3632812 0,0.375 0.3515625,0.375 0.5390625,0.375 z m 0,0"
         style="fill:#d33682;fill-opacity:1;fill-rule:nonzero;stroke:none" />
      <path
         id="path43"
         d="m 21.610127,-7.5239456 c 0,-0.3515625 -0.02344,-0.3515625 -0.410157,-0.3515625 -0.878906,0.7734375 -2.214843,0.7734375 -2.472656,0.7734375 h -0.234375 v 0.515625 h 0.234375 c 0.410156,0 1.054688,-0.070312 1.535156,-0.234375 v 6.30468748 h -1.675781 v 0.515624995 c 0.503906,-0.023437495 1.769531,-0.023437495 2.332031,-0.023437495 0.5625,0 1.839844,0 2.34375,0.023437495 V -0.51613312 h -1.652343 z m 0,0"
         style="fill:#d33682;fill-opacity:1;fill-rule:nonzero;stroke:none" />
    </g>
    <path
       id="path44"
       d="M 0,-5.94893 -61.46272,-35.69814"
       style="fill:none;stroke:#586e75;stroke-width:0.3985;stroke-linecap:butt;stroke-linejoin:miter;stroke-miterlimit:10;stroke-dasharray:none;stroke-opacity:1"
       transform="matrix(1.3333333,0,0,-1.3333333,209.33067,280.50933)" />
    <path
       id="path45"
       d="M 0,-5.94893 61.46272,-35.69814"
       style="fill:none;stroke:#586e75;stroke-width:0.3985;stroke-linecap:butt;stroke-linejoin:miter;stroke-miterlimit:10;stroke-dasharray:none;stroke-opacity:1"
       transform="matrix(1.3333333,0,0,-1.3333333,209.33067,280.50933)" />
  </g>
</svg>
