<?xml version="1.0" encoding="UTF-8" standalone="no"?>
<!-- Created with Inkscape (http://www.inkscape.org/) -->

<svg
   version="1.1"
   id="svg1"
   width="674.58984"
   height="282.96094"
   viewBox="0 0 674.58983 282.96094"
   sodipodi:docname="obst-example.svg"
   inkscape:version="1.4.2 (ebf0e940d0, 2025-05-08)"
   xmlns:inkscape="http://www.inkscape.org/namespaces/inkscape"
   xmlns:sodipodi="http://sodipodi.sourceforge.net/DTD/sodipodi-0.dtd"
   xmlns="http://www.w3.org/2000/svg"
   xmlns:svg="http://www.w3.org/2000/svg">
  <defs
     id="defs1" />
  <sodipodi:namedview
     id="namedview1"
     pagecolor="#ffffff"
     bordercolor="#666666"
     borderopacity="1.0"
     inkscape:showpageshadow="2"
     inkscape:pageopacity="0.0"
     inkscape:pagecheckerboard="0"
     inkscape:deskcolor="#d1d1d1"
     inkscape:zoom="0.90509668"
     inkscape:cx="370.67863"
     inkscape:cy="504.36601"
     inkscape:window-width="3840"
     inkscape:window-height="2346"
     inkscape:window-x="0"
     inkscape:window-y="54"
     inkscape:window-maximized="1"
     inkscape:current-layer="g1">
    <inkscape:page
       x="0"
       y="0"
       inkscape:label="1"
       id="page1"
       width="674.58984"
       height="282.96094"
       margin="0"
       bleed="0" />
  </sodipodi:namedview>
  <g
     id="g1"
     inkscape:groupmode="layer"
     inkscape:label="1"
     transform="translate(-223.6211,-42.484375)">
    <g
       id="g65">
      <path
         id="path2"
         d="m 4.7341016,-9.8900937 c 0.070312,-0.1992183 0.070312,-0.2343753 0.070312,-0.2460933 0,-0.199219 -0.1640625,-0.269532 -0.3398438,-0.269532 -0.058594,0 -0.070312,0 -0.1054687,0.01172 l -1.9335938,0.09375 c -0.2109375,0.01172 -0.4804687,0.02344 -0.4804687,0.4453125 0,0.2695313 0.2929687,0.2695313 0.3984375,0.2695313 0.1640625,0 0.4335937,0 0.6210937,0.035156 l -2.15624999,8.6484375 c -0.0117188,0.0585938 -0.0585938,0.29296875 -0.0585938,0.3515625 0,0.3515625 0.28124999,0.66796875 0.71484369,0.66796875 0.2695313,0 0.7148439,-0.12890625 0.9257814,-0.59765625 0.035156,-0.12890625 0.2460937,-1.0078125 0.6796875,-2.7421875 0.2929687,0.023437 1.5937499,0.2109375 1.5937499,1.125 0,0.1054688 0,0.1523438 -0.046875,0.3164063 -0.046875,0.1875 -0.046875,0.2109375 -0.046875,0.3515625 0,0.98437495 0.9375,1.54687495 1.921875,1.54687495 1.5,0 2.0625001,-2.21484375 2.0625001,-2.33203125 0,-0.2109375 -0.234375,-0.2109375 -0.3632814,-0.2109375 -0.2695312,0 -0.3046875,0.023437 -0.375,0.2929688 -0.1171875,0.4335937 -0.4804687,1.71093745 -1.2421875,1.71093745 -0.2460937,0 -0.3984375,-0.12890625 -0.3984375,-0.58593745 0,-0.1523438 0.035156,-0.4335938 0.1289063,-0.7734375 0.035156,-0.1640625 0.035156,-0.2695313 0.035156,-0.375 0,-1.2773438 -1.5117187,-1.5234375 -2.5898437,-1.6289063 0.1523437,-0.1054687 0.515625,-0.3398437 1.3359375,-1.1367187 1.1484375,-1.1367188 1.78125,-1.3125 2.2382812,-1.3125 0.28125,0 0.3867188,0.1640625 0.3867188,0.1757812 -0.75,0.1054688 -1.03125,0.703125 -1.03125,1.078125 0,0.328125 0.2460937,0.6914063 0.75,0.6914063 0.28125,0 1.078125,-0.1992188 1.078125,-1.265625 0,-0.7734375 -0.4921875,-1.2304688 -1.1484375,-1.2304688 -0.9140625,0 -1.734375,0.6679688 -2.625,1.5234375 -0.140625,0.1640625 -0.8671875,0.8554688 -1.4296875,1.171875 z m 0,0"
         style="fill:#d33682;fill-opacity:1;fill-rule:nonzero;stroke:none"
         aria-label="k"
         transform="matrix(1.3333333,0,0,1.3333333,338.29333,56.358667)" />
      <path
         id="path3"
         d="M 6.0579844,-2.5771875 H 5.5540781 c -0.035156,0.2460938 -0.1171875,0.9609375 -0.2929687,1.078125 -0.1054688,0.082031 -1.0429688,0.082031 -1.21875,0.082031 H 2.1790781 c 0.4570313,-0.3867188 1.546875,-1.2890625 1.734375,-1.4296875 1.3242188,-0.9960938 2.1445313,-1.6054688 2.1445313,-2.7539063 0,-1.4179687 -1.2773438,-2.2734375 -2.8710938,-2.2734375 -1.3476562,0 -2.51953122,0.7734375 -2.51953122,1.9101563 0,0.6328125 0.51562502,0.8203125 0.79687502,0.8203125 0.375,0 0.8085937,-0.2578125 0.8085937,-0.8085938 0,-0.5039062 -0.375,-0.75 -0.75,-0.8085937 0.4804688,-0.5507813 1.1132813,-0.5976563 1.3710938,-0.5976563 1.1015625,0 1.6289062,0.9023438 1.6289062,1.7695313 0,0.9375 -0.6328125,1.7929687 -1.125,2.3085937 L 0.79626563,-0.54984375 C 0.66735938,-0.444375 0.66735938,-0.4209375 0.66735938,-0.19828125 V 9.375e-4 H 5.7064219 Z m 0,0"
         style="fill:#d33682;fill-opacity:1;fill-rule:nonzero;stroke:none"
         aria-label="2"
         transform="matrix(1.3333333,0,0,1.3333333,350.368,59.78)" />
      <path
         id="path4"
         d="m 4.7336406,-9.8916875 c 0.070312,-0.1992185 0.070312,-0.2343745 0.070312,-0.2460935 0,-0.199219 -0.1640625,-0.269531 -0.3398437,-0.269531 -0.058594,0 -0.070312,0 -0.1054688,0.01172 l -1.9335937,0.09375 c -0.2109375,0.01172 -0.4804688,0.02344 -0.4804688,0.4453128 0,0.2695312 0.2929688,0.2695312 0.3984375,0.2695312 0.1640625,0 0.4335938,0 0.6210938,0.035156 l -2.15625002,8.64843745 c -0.0117188,0.0585938 -0.0585938,0.29296875 -0.0585938,0.3515625 0,0.3515625 0.28125002,0.66796875 0.71484382,0.66796875 0.2695312,0 0.7148437,-0.12890625 0.9257812,-0.59765625 0.035156,-0.12890625 0.2460938,-1.00781245 0.6796875,-2.74218745 0.2929688,0.023437 1.59375,0.2109375 1.59375,1.125 0,0.1054687 0,0.1523437 -0.046875,0.3164062 -0.046875,0.1875 -0.046875,0.2109375 -0.046875,0.3515625 0,0.984375 0.9375,1.546875 1.921875,1.546875 1.5,0 2.0625,-2.2148437 2.0625,-2.3320312 0,-0.2109375 -0.234375,-0.2109375 -0.3632812,-0.2109375 -0.2695313,0 -0.3046875,0.023437 -0.375,0.2929687 -0.1171875,0.4335938 -0.4804688,1.7109375 -1.2421875,1.7109375 -0.2460938,0 -0.3984375,-0.12890625 -0.3984375,-0.5859375 0,-0.1523437 0.035156,-0.4335937 0.1289062,-0.7734375 0.035156,-0.1640625 0.035156,-0.2695312 0.035156,-0.375 0,-1.2773437 -1.5117188,-1.5234375 -2.5898438,-1.6289062 0.1523438,-0.1054688 0.515625,-0.3398438 1.3359375,-1.1367188 1.1484375,-1.1367187 1.78125,-1.3125 2.2382813,-1.3125 0.28125,0 0.3867187,0.1640625 0.3867187,0.1757813 -0.75,0.1054687 -1.03125,0.703125 -1.03125,1.078125 0,0.328125 0.2460938,0.6914062 0.75,0.6914062 0.28125,0 1.078125,-0.1992187 1.078125,-1.265625 0,-0.7734375 -0.4921875,-1.2304687 -1.1484375,-1.2304687 -0.9140625,0 -1.734375,0.6679687 -2.625,1.5234375 -0.140625,0.1640625 -0.8671875,0.8554687 -1.4296875,1.171875 z m 0,0"
         style="fill:#d33682;fill-opacity:1;fill-rule:nonzero;stroke:none"
         aria-label="k"
         transform="matrix(1.3333333,0,0,1.3333333,424.93067,122.78267)" />
      <path
         id="path5"
         d="m 5.1903359,-1.8854453 h 1.171875 v -0.515625 h -1.171875 v -5.1445313 c 0,-0.3046875 -0.011719,-0.3515625 -0.3046875,-0.3515625 -0.2226562,0 -0.2460937,0 -0.3867187,0.1875 l -4.12500001,5.3085938 v 0.515625 H 3.7840859 v 1.37109374 h -1.3125 v 0.515625 c 0.3515625,-0.0234375 1.5351563,-0.0234375 1.96875,-0.0234375 0.4101563,0 1.59375,0 1.921875,0.0234375 v -0.515625 H 5.1903359 Z M 3.8895547,-6.2096641 v 3.8085938 H 0.92471094 Z m 0,0"
         style="fill:#d33682;fill-opacity:1;fill-rule:nonzero;stroke:none"
         aria-label="4"
         transform="matrix(1.3333333,0,0,1.3333333,437.00533,126.20533)" />
      <path
         id="path6"
         d="m 4.7349297,-9.8912812 c 0.070312,-0.1992188 0.070312,-0.2343748 0.070312,-0.2460938 0,-0.199219 -0.1640625,-0.269531 -0.3398438,-0.269531 -0.058594,0 -0.070312,0 -0.1054687,0.01172 l -1.9335938,0.09375 c -0.2109375,0.01172 -0.4804687,0.02344 -0.4804687,0.445312 0,0.2695313 0.2929687,0.2695313 0.3984375,0.2695313 0.1640625,0 0.4335937,0 0.6210937,0.035156 L 0.80914844,-0.903 c -0.0117188,0.0585938 -0.0585938,0.29296875 -0.0585938,0.3515625 0,0.3515625 0.28124996,0.66796875 0.71484366,0.66796875 0.2695313,0 0.7148439,-0.12890625 0.9257814,-0.59765625 0.035156,-0.12890625 0.2460937,-1.0078125 0.6796875,-2.7421875 0.2929687,0.023437 1.5937499,0.2109375 1.5937499,1.125 0,0.1054688 0,0.1523438 -0.046875,0.3164063 -0.046875,0.1875 -0.046875,0.2109375 -0.046875,0.3515625 0,0.98437495 0.9375,1.54687495 1.921875,1.54687495 1.5,0 2.0625001,-2.21484375 2.0625001,-2.33203125 0,-0.2109375 -0.234375,-0.2109375 -0.3632814,-0.2109375 -0.2695312,0 -0.3046875,0.023437 -0.375,0.2929688 -0.1171875,0.4335937 -0.4804687,1.71093745 -1.2421875,1.71093745 -0.2460937,0 -0.3984375,-0.12890625 -0.3984375,-0.58593745 0,-0.1523438 0.035156,-0.4335938 0.1289063,-0.7734375 0.035156,-0.1640625 0.035156,-0.2695313 0.035156,-0.375 0,-1.2773438 -1.5117187,-1.5234375 -2.5898437,-1.6289063 0.1523437,-0.1054687 0.515625,-0.3398437 1.3359375,-1.1367187 1.1484375,-1.1367188 1.78125,-1.3125 2.2382812,-1.3125 0.28125,0 0.3867188,0.1640625 0.3867188,0.1757812 -0.75,0.1054688 -1.03125,0.703125 -1.03125,1.078125 0,0.328125 0.2460937,0.6914063 0.75,0.6914063 0.28125,0 1.078125,-0.1992188 1.078125,-1.265625 0,-0.7734375 -0.4921875,-1.2304688 -1.1484375,-1.2304688 -0.9140625,0 -1.734375,0.6679688 -2.625,1.5234375 -0.140625,0.1640625 -0.8671875,0.8554688 -1.4296875,1.171875 z m 0,0"
         style="fill:#d33682;fill-opacity:1;fill-rule:nonzero;stroke:none"
         aria-label="k"
         transform="matrix(1.3333333,0,0,1.3333333,482.69067,189.204)" />
      <path
         id="path7"
         d="m 1.8527812,-6.2239062 c 0.4101563,0.09375 0.7265625,0.09375 0.9140625,0.09375 0.28125,0 0.9609375,0 1.7695313,-0.4921875 0.375,-0.234375 0.9960937,-0.7734375 0.9960937,-1.0429688 0,-0.058594 0,-0.2109375 -0.140625,-0.2109375 -0.011719,0 -0.035156,0 -0.1640625,0.058594 -0.5507812,0.1992187 -1.1367187,0.328125 -1.8046875,0.328125 -0.6914062,0 -1.265625,-0.1289063 -1.828125,-0.3398438 C 1.5129375,-7.8528125 1.4777812,-7.87625 1.442625,-7.87625 1.302,-7.87625 1.302,-7.7590625 1.302,-7.548125 v 3.4921875 c 0,0.2226563 0,0.3632813 0.234375,0.3632813 0.1171875,0 0.140625,-0.011719 0.2460937,-0.140625 0.140625,-0.1640625 0.5742188,-0.6914063 1.59375,-0.6914063 1.1015625,0 1.1015625,1.125 1.1015625,2.0742188 0,0.8671875 0,2.10937495 -1.4765625,2.10937495 -0.4453125,0 -1.1953125,-0.1640625 -1.6054687,-0.84374995 0.6328125,0 0.7851562,-0.4804688 0.7851562,-0.75 0,-0.4335938 -0.3046875,-0.75 -0.75,-0.75 -0.3632812,0 -0.7617187,0.2109375 -0.7617187,0.7734375 0,1.0429687 0.9492187,2.0507812 2.3789062,2.0507812 1.8515625,0 3.0117188,-1.06640625 3.0117188,-2.5546875 0,-1.4648437 -0.9960938,-2.5078125 -2.6367188,-2.5078125 -0.4804687,0 -1.0546875,0.09375 -1.5703125,0.4804688 z m 0,0"
         style="fill:#d33682;fill-opacity:1;fill-rule:nonzero;stroke:none"
         aria-label="5"
         transform="matrix(1.3333333,0,0,1.3333333,494.764,192.62667)" />
      <g
         id="g7"
         aria-label="d&#10;5"
         transform="matrix(1.3333333,0,0,1.3333333,511.50933,255.62667)">
        <path
           id="path8"
           d="m 8.9988594,-9.891875 c 0.058594,-0.199219 0.058594,-0.234375 0.058594,-0.246094 0,-0.199218 -0.1640625,-0.269531 -0.328125,-0.269531 -0.058594,0 -0.070312,0 -0.1054687,0.01172 l -1.9335938,0.09375 c -0.2109375,0.01172 -0.4804687,0.02344 -0.4804687,0.4453123 0,0.2695312 0.2695312,0.2695312 0.3867187,0.2695312 0.1640625,0 0.4335938,0 0.6328125,0.035156 L 6.4207344,-6.235625 C 6.1980781,-6.4465625 5.6941719,-6.7864062 4.9090156,-6.7864062 c -2.6132812,0 -4.23046873,2.3789062 -4.23046873,4.4296875 0,1.8398437 1.37109373,2.4726562 2.62500003,2.4726562 1.0546875,0 1.8398437,-0.5859375 2.0859375,-0.80859375 0.5625,0.80859375 1.5585937,0.80859375 1.7226562,0.80859375 0.5507813,0 0.984375,-0.31640625 1.3007813,-0.85546875 0.375,-0.59765625 0.5742187,-1.40624995 0.5742187,-1.47656245 0,-0.2109375 -0.2226562,-0.2109375 -0.3632812,-0.2109375 -0.1640625,0 -0.2226563,0 -0.3046875,0.070312 -0.023437,0.035156 -0.023437,0.058594 -0.1171875,0.4335937 -0.2929688,1.20703125 -0.6445313,1.5 -1.0195313,1.5 -0.1640625,0 -0.3398437,-0.0585938 -0.3398437,-0.55078125 0,-0.22265625 0.023437,-0.43359375 0.082031,-0.64453125 z M 5.2371406,-1.3957812 C 4.8035469,-0.891875 4.0887031,-0.423125 3.3738594,-0.423125 c -0.9257813,0 -1.0078125,-0.8085937 -1.0078125,-1.1367187 0,-0.7851563 0.515625,-2.625 0.75,-3.2109375 0.46875,-1.0898438 1.2070312,-1.4648438 1.8164062,-1.4648438 0.890625,0 1.2421875,0.703125 1.2421875,0.8671875 L 6.1512031,-5.1575 Z m 0,0"
           style="fill:#268bd2;fill-opacity:1;fill-rule:nonzero;stroke:none" />
        <path
           id="path9"
           d="m 10.996906,-3.8215625 c 0.410156,0.09375 0.726563,0.09375 0.914063,0.09375 0.28125,0 0.960937,0 1.769531,-0.4921875 0.375,-0.234375 0.996094,-0.7734375 0.996094,-1.0429687 0,-0.058594 0,-0.2109375 -0.140625,-0.2109375 -0.01172,0 -0.03516,0 -0.164063,0.058594 -0.550781,0.1992188 -1.136719,0.328125 -1.804687,0.328125 -0.691407,0 -1.265625,-0.1289062 -1.828125,-0.3398437 -0.08203,-0.023437 -0.117188,-0.046875 -0.152344,-0.046875 -0.140625,0 -0.140625,0.1171875 -0.140625,0.328125 v 3.4921875 c 0,0.2226562 0,0.3632812 0.234375,0.3632812 0.117187,0 0.140625,-0.011719 0.246094,-0.140625 0.140625,-0.1640625 0.574218,-0.6914062 1.59375,-0.6914062 1.101562,0 1.101562,1.12499995 1.101562,2.0742187 0,0.8671875 0,2.109375 -1.476562,2.109375 -0.445313,0 -1.195313,-0.1640625 -1.605469,-0.84375 0.632812,0 0.785156,-0.48046875 0.785156,-0.75 0,-0.43359375 -0.304687,-0.75 -0.75,-0.75 -0.363281,0 -0.7617185,0.2109375 -0.7617185,0.7734375 0,1.0429688 0.9492185,2.0507813 2.3789065,2.0507813 1.851562,0 3.011718,-1.0664063 3.011718,-2.55468755 0,-1.46484375 -0.996093,-2.50781245 -2.636718,-2.50781245 -0.480469,0 -1.054688,0.09375 -1.570313,0.4804687 z m 0,0"
           style="fill:#268bd2;fill-opacity:1;fill-rule:nonzero;stroke:none" />
      </g>
      <g
         id="g9"
         aria-label="d&#10;4"
         transform="matrix(1.3333333,0,0,1.3333333,453.74971,255.62604)">
        <path
           id="path10"
           d="m 9.00022,-9.891405 c 0.058594,-0.199219 0.058594,-0.234375 0.058594,-0.246094 0,-0.199218 -0.1640625,-0.269531 -0.328125,-0.269531 -0.058594,0 -0.070312,0 -0.1054688,0.01172 l -1.9335937,0.09375 c -0.2109375,0.01172 -0.4804688,0.02344 -0.4804688,0.4453123 0,0.2695312 0.2695313,0.2695312 0.3867188,0.2695312 0.1640625,0 0.4335937,0 0.6328125,0.035156 L 6.422095,-6.235155 C 6.1994388,-6.4460925 5.6955325,-6.7859362 4.9103763,-6.7859362 c -2.6132813,0 -4.2304688,2.3789062 -4.2304688,4.4296875 0,1.8398437 1.3710938,2.4726562 2.625,2.4726562 1.0546875,0 1.8398438,-0.5859375 2.0859375,-0.80859375 0.5625,0.80859375 1.5585938,0.80859375 1.7226563,0.80859375 0.5507812,0 0.984375,-0.31640625 1.3007812,-0.85546875 0.375,-0.59765625 0.5742188,-1.40624995 0.5742188,-1.47656245 0,-0.2109375 -0.2226563,-0.2109375 -0.3632813,-0.2109375 -0.1640625,0 -0.2226562,0 -0.3046875,0.070312 -0.023437,0.035156 -0.023437,0.058594 -0.1171875,0.4335937 -0.2929687,1.20703125 -0.6445312,1.5 -1.0195312,1.5 -0.1640625,0 -0.3398438,-0.0585938 -0.3398438,-0.55078125 0,-0.22265625 0.023437,-0.43359375 0.082031,-0.64453125 z M 5.2385013,-1.3953112 C 4.8049075,-0.891405 4.0900638,-0.422655 3.37522,-0.422655 c -0.9257812,0 -1.0078125,-0.8085937 -1.0078125,-1.1367187 0,-0.7851563 0.515625,-2.625 0.75,-3.2109375 0.46875,-1.0898438 1.2070313,-1.4648438 1.8164063,-1.4648438 0.890625,0 1.2421875,0.703125 1.2421875,0.8671875 L 6.1525638,-5.15703 Z m 0,0"
           style="fill:#268bd2;fill-opacity:1;fill-rule:nonzero;stroke:none" />
        <path
           id="path11"
           d="m 14.338111,0.51191531 h 1.171875 v -0.515625 H 14.338111 V -5.1482409 c 0,-0.3046875 -0.01172,-0.3515625 -0.304688,-0.3515625 -0.222656,0 -0.246094,0 -0.386719,0.1875 l -4.1249996,5.30859371 v 0.515625 H 12.931861 V 1.8830091 h -1.3125 v 0.515625 c 0.351562,-0.023437 1.535156,-0.023437 1.96875,-0.023437 0.410156,0 1.59375,0 1.921875,0.023437 V 1.8830091 H 14.338111 Z M 13.037329,-3.8123034 v 3.80859371 h -2.964843 z m 0,0"
           style="fill:#268bd2;fill-opacity:1;fill-rule:nonzero;stroke:none" />
      </g>
      <path
         id="path12"
         d="M 0,-6.26561 -21.65948,-35.69814"
         style="fill:none;stroke:#586e75;stroke-width:0.3985;stroke-linecap:butt;stroke-linejoin:miter;stroke-miterlimit:10;stroke-dasharray:none;stroke-opacity:1"
         transform="matrix(1.3333333,0,0,-1.3333333,493.56,189.204)" />
      <path
         id="path13"
         d="M 0,-6.26561 21.65948,-35.69814"
         style="fill:none;stroke:#586e75;stroke-width:0.3985;stroke-linecap:butt;stroke-linejoin:miter;stroke-miterlimit:10;stroke-dasharray:none;stroke-opacity:1"
         transform="matrix(1.3333333,0,0,-1.3333333,493.56,189.204)" />
      <path
         id="path14"
         d="m 4.7344812,-9.8916512 c 0.070312,-0.1992188 0.070312,-0.2343748 0.070312,-0.2460938 0,-0.199219 -0.1640625,-0.269531 -0.3398437,-0.269531 -0.058594,0 -0.070312,0 -0.1054688,0.01172 l -1.9335937,0.09375 c -0.2109375,0.01172 -0.4804688,0.02344 -0.4804688,0.445312 0,0.2695313 0.2929688,0.2695313 0.3984375,0.2695313 0.1640625,0 0.4335938,0 0.6210938,0.035156 L 0.8087,-0.90337 c -0.0117188,0.0585938 -0.0585938,0.29296875 -0.0585938,0.3515625 0,0.3515625 0.2812499,0.66796875 0.7148437,0.66796875 0.2695312,0 0.7148437,-0.12890625 0.9257812,-0.59765625 0.035156,-0.12890625 0.2460938,-1.0078125 0.6796875,-2.7421875 0.2929688,0.023437 1.59375,0.2109375 1.59375,1.125 0,0.1054688 0,0.1523438 -0.046875,0.3164063 -0.046875,0.1875 -0.046875,0.2109375 -0.046875,0.3515625 0,0.98437495 0.9375,1.54687495 1.921875,1.54687495 1.5,0 2.0625001,-2.21484375 2.0625001,-2.33203125 0,-0.2109375 -0.234375,-0.2109375 -0.3632812,-0.2109375 -0.2695313,0 -0.3046875,0.023437 -0.375,0.2929688 -0.1171875,0.4335937 -0.4804688,1.71093745 -1.2421875,1.71093745 -0.2460938,0 -0.3984375,-0.12890625 -0.3984375,-0.58593745 0,-0.1523438 0.035156,-0.4335938 0.1289062,-0.7734375 0.035156,-0.1640625 0.035156,-0.2695313 0.035156,-0.375 0,-1.2773438 -1.5117188,-1.5234375 -2.5898438,-1.6289063 0.1523438,-0.1054687 0.515625,-0.3398437 1.3359375,-1.1367187 1.1484375,-1.1367188 1.78125,-1.3125 2.2382813,-1.3125 0.28125,0 0.3867187,0.1640625 0.3867187,0.1757812 -0.75,0.1054688 -1.03125,0.703125 -1.03125,1.078125 0,0.328125 0.2460938,0.6914063 0.75,0.6914063 0.28125,0 1.078125,-0.1992188 1.078125,-1.265625 0,-0.7734375 -0.4921875,-1.2304688 -1.1484375,-1.2304688 -0.9140625,0 -1.734375,0.6679688 -2.625,1.5234375 -0.140625,0.1640625 -0.8671875,0.8554688 -1.4296875,1.171875 z m 0,0"
         style="fill:#d33682;fill-opacity:1;fill-rule:nonzero;stroke:none"
         aria-label="k"
         transform="matrix(1.3333333,0,0,1.3333333,367.17173,189.20449)" />
      <path
         id="path15"
         d="m 3.1296766,-3.9713466 c 1.3476562,0 1.3476562,1.2539063 1.3476562,1.828125 0,0.5390625 0,1.80468754 -1.3007812,1.80468754 -0.2460938,0 -1.0429688,-0.0351563 -1.6171875,-0.4453125 0.515625,-0.10546875 0.703125,-0.48046874 0.703125,-0.83203124 0,-0.4921875 -0.3515625,-0.84375 -0.84375,-0.84375 -0.50390629,0 -0.85546879,0.3515625 -0.85546879,0.8554687 0,1.10156254 1.20703129,1.74609379 2.67187499,1.74609379 1.9804688,0 2.9296875,-1.08984375 2.9296875,-2.28515629 0,-0.5859375 -0.2929687,-1.734375 -2.15625,-2.0507812 1.0546875,-0.328125 1.7929688,-1.078125 1.7929688,-2.015625 0,-0.9023438 -0.8671875,-1.6640625 -2.53125,-1.6640625 -1.3476563,0 -2.33203129,0.7148437 -2.33203129,1.6875 0,0.5976562 0.46874999,0.7851562 0.77343749,0.7851562 0.3515625,0 0.7734375,-0.2226562 0.7734375,-0.7734375 0,-0.28125 -0.1171875,-0.6914062 -0.6796875,-0.7734375 0.5039063,-0.4921875 1.3125,-0.4921875 1.3828125,-0.4921875 1.078125,0 1.078125,0.8320313 1.078125,1.1835938 0,0.3632812 -0.058594,0.9140625 -0.4335937,1.40625 -0.3164063,0.4101562 -0.6328125,0.4335937 -1.0898438,0.4570312 -0.140625,0.011719 -0.375,0.023437 -0.421875,0.046875 -0.082031,0.035156 -0.082031,0.1289063 -0.082031,0.1757813 0,0.1992187 0.082031,0.1992187 0.3164062,0.1992187 z m 0,0"
         style="fill:#d33682;fill-opacity:1;fill-rule:nonzero;stroke:none"
         aria-label="3"
         transform="matrix(1.3333333,0,0,1.3333333,379.24507,192.62716)" />
      <g
         id="g15"
         aria-label="d&#10;3"
         transform="matrix(1.3333333,0,0,1.3333333,395.9904,255.62716)">
        <path
           id="path16"
           d="m 9.0013406,-9.8893153 c 0.058594,-0.1992187 0.058594,-0.2343747 0.058594,-0.2460937 0,-0.199219 -0.1640625,-0.269531 -0.328125,-0.269531 -0.058594,0 -0.070312,0 -0.1054688,0.01172 l -1.9335937,0.09375 c -0.2109375,0.01172 -0.4804688,0.02344 -0.4804688,0.4453129 0,0.2695313 0.2695313,0.2695313 0.3867188,0.2695313 0.1640625,0 0.4335937,0 0.6328125,0.035156 l -0.808594,3.3164045 C 6.2005594,-6.4440028 5.6966531,-6.7838466 4.9114969,-6.7838466 c -2.6132813,0 -4.23046877,2.3789063 -4.23046877,4.4296875 0,1.83984379 1.37109377,2.47265629 2.62499997,2.47265629 1.0546875,0 1.8398438,-0.5859375 2.0859375,-0.80859375 0.5625,0.80859375 1.5585938,0.80859375 1.7226563,0.80859375 0.5507812,0 0.984375,-0.31640625 1.3007812,-0.85546875 0.375,-0.59765624 0.5742188,-1.40625004 0.5742188,-1.47656254 0,-0.2109375 -0.2226563,-0.2109375 -0.3632813,-0.2109375 -0.1640625,0 -0.2226562,0 -0.3046875,0.070312 -0.023437,0.035156 -0.023437,0.058594 -0.1171875,0.4335938 -0.2929687,1.20703124 -0.6445312,1.49999999 -1.0195312,1.49999999 -0.1640625,0 -0.3398438,-0.0585938 -0.3398438,-0.55078125 0,-0.22265624 0.023437,-0.43359374 0.082031,-0.64453124 z m -3.7617187,8.4960937 c -0.4335938,0.50390629 -1.1484375,0.97265629 -1.8632813,0.97265629 -0.9257812,0 -1.0078125,-0.80859379 -1.0078125,-1.13671879 0,-0.7851562 0.515625,-2.625 0.75,-3.2109375 0.46875,-1.0898437 1.2070313,-1.4648437 1.8164063,-1.4648437 0.890625,0 1.2421875,0.703125 1.2421875,0.8671875 l -0.023437,0.2109375 z m 0,0"
           style="fill:#268bd2;fill-opacity:1;fill-rule:nonzero;stroke:none" />
        <path
           id="path17"
           d="m 12.273802,-1.5719325 c 1.347656,0 1.347656,1.25390625 1.347656,1.828125 0,0.5390625 0,1.8046875 -1.300781,1.8046875 -0.246094,0 -1.042969,-0.035156 -1.617188,-0.4453125 0.515625,-0.1054687 0.703125,-0.4804687 0.703125,-0.83203125 0,-0.4921875 -0.351562,-0.84375 -0.84375,-0.84375 -0.503906,0 -0.8554687,0.3515625 -0.8554687,0.85546875 0,1.1015625 1.2070317,1.7460938 2.6718747,1.7460938 1.980469,0 2.929688,-1.0898438 2.929688,-2.2851563 0,-0.5859375 -0.292969,-1.734375 -2.15625,-2.0507812 1.054687,-0.328125 1.792969,-1.078125 1.792969,-2.015625 0,-0.9023438 -0.867188,-1.6640625 -2.53125,-1.6640625 -1.347657,0 -2.332032,0.7148437 -2.332032,1.6875 0,0.5976562 0.46875,0.7851562 0.773438,0.7851562 0.351562,0 0.773437,-0.2226562 0.773437,-0.7734375 0,-0.28125 -0.117187,-0.6914062 -0.679687,-0.7734375 0.503906,-0.4921875 1.3125,-0.4921875 1.382812,-0.4921875 1.078125,0 1.078125,0.8320313 1.078125,1.1835938 0,0.3632812 -0.05859,0.9140625 -0.433593,1.40625 -0.316407,0.4101562 -0.632813,0.4335937 -1.089844,0.4570312 -0.140625,0.011719 -0.375,0.023437 -0.421875,0.046875 -0.08203,0.035156 -0.08203,0.1289063 -0.08203,0.1757813 0,0.1992187 0.08203,0.1992187 0.316406,0.1992187 z m 0,0"
           style="fill:#268bd2;fill-opacity:1;fill-rule:nonzero;stroke:none" />
      </g>
      <g
         id="g17"
         aria-label="d&#10;2"
         transform="matrix(1.3333333,0,0,1.3333333,338.23077,255.62653)">
        <path
           id="path18"
           d="m 8.9997716,-9.891775 c 0.058594,-0.199219 0.058594,-0.234375 0.058594,-0.246094 0,-0.199218 -0.1640625,-0.269531 -0.328125,-0.269531 -0.058594,0 -0.070312,0 -0.1054687,0.01172 l -1.9335938,0.09375 c -0.2109375,0.01172 -0.4804687,0.02344 -0.4804687,0.4453123 0,0.2695312 0.2695312,0.2695312 0.3867187,0.2695312 0.1640625,0 0.4335938,0 0.6328125,0.035156 L 6.4216466,-6.235525 C 6.1989903,-6.4464625 5.6950841,-6.7863062 4.9099278,-6.7863062 c -2.6132812,0 -4.23046874,2.3789062 -4.23046874,4.4296875 0,1.8398437 1.37109374,2.4726562 2.62500004,2.4726562 1.0546875,0 1.8398437,-0.5859375 2.0859375,-0.80859375 0.5625,0.80859375 1.5585937,0.80859375 1.7226562,0.80859375 0.5507813,0 0.984375,-0.31640625 1.3007813,-0.85546875 0.375,-0.59765625 0.5742187,-1.40624995 0.5742187,-1.47656245 0,-0.2109375 -0.2226562,-0.2109375 -0.3632812,-0.2109375 -0.1640625,0 -0.2226563,0 -0.3046875,0.070312 -0.023437,0.035156 -0.023437,0.058594 -0.1171875,0.4335937 -0.2929688,1.20703125 -0.6445313,1.5 -1.0195313,1.5 -0.1640625,0 -0.3398437,-0.0585938 -0.3398437,-0.55078125 0,-0.22265625 0.023437,-0.43359375 0.082031,-0.64453125 z M 5.2380528,-1.3956812 C 4.8044591,-0.891775 4.0896153,-0.423025 3.3747716,-0.423025 c -0.9257813,0 -1.0078125,-0.8085937 -1.0078125,-1.1367187 0,-0.7851563 0.515625,-2.625 0.75,-3.2109375 0.46875,-1.0898438 1.2070312,-1.4648438 1.8164062,-1.4648438 0.890625,0 1.2421875,0.703125 1.2421875,0.8671875 L 6.1521153,-5.1574 Z m 0,0"
           style="fill:#268bd2;fill-opacity:1;fill-rule:nonzero;stroke:none" />
        <path
           id="path19"
           d="m 15.20485,-0.17693125 h -0.503907 c -0.03516,0.24609375 -0.117187,0.9609375 -0.292968,1.078125 -0.105469,0.0820313 -1.042969,0.0820313 -1.21875,0.0820313 h -1.863282 c 0.457032,-0.38671875 1.546875,-1.2890625 1.734375,-1.4296875 1.324219,-0.99609365 2.144532,-1.60546875 2.144532,-2.75390615 0,-1.4179688 -1.277344,-2.2734375 -2.871094,-2.2734375 -1.347656,0 -2.5195313,0.7734375 -2.5195313,1.9101562 0,0.6328125 0.5156253,0.8203125 0.7968753,0.8203125 0.375,0 0.808593,-0.2578125 0.808593,-0.8085937 0,-0.5039063 -0.375,-0.75 -0.75,-0.8085938 0.480469,-0.5507812 1.113282,-0.5976562 1.371094,-0.5976562 1.101563,0 1.628906,0.9023437 1.628906,1.7695312 0,0.9375 -0.632812,1.7929688 -1.125,2.3085937 L 9.9431309,1.8504125 C 9.8142247,1.9558813 9.8142247,1.9793188 9.8142247,2.201975 v 0.1992188 h 5.0390623 z m 0,0"
           style="fill:#268bd2;fill-opacity:1;fill-rule:nonzero;stroke:none" />
      </g>
      <path
         id="path20"
         d="M 0,-6.26561 -21.65948,-35.69814"
         style="fill:none;stroke:#586e75;stroke-width:0.3985;stroke-linecap:butt;stroke-linejoin:miter;stroke-miterlimit:10;stroke-dasharray:none;stroke-opacity:1"
         transform="matrix(1.3333333,0,0,-1.3333333,378.04107,189.20449)" />
      <path
         id="path21"
         d="M 0,-6.26561 21.65948,-35.69814"
         style="fill:none;stroke:#586e75;stroke-width:0.3985;stroke-linecap:butt;stroke-linejoin:miter;stroke-miterlimit:10;stroke-dasharray:none;stroke-opacity:1"
         transform="matrix(1.3333333,0,0,-1.3333333,378.04107,189.20449)" />
      <path
         id="path22"
         d="M 0,-6.26561 -43.31897,-35.69814"
         style="fill:none;stroke:#586e75;stroke-width:0.3985;stroke-linecap:butt;stroke-linejoin:miter;stroke-miterlimit:10;stroke-dasharray:none;stroke-opacity:1"
         transform="matrix(1.3333333,0,0,-1.3333333,435.8,122.78267)" />
      <path
         id="path23"
         d="M 0,-6.26561 43.31897,-35.69814"
         style="fill:none;stroke:#586e75;stroke-width:0.3985;stroke-linecap:butt;stroke-linejoin:miter;stroke-miterlimit:10;stroke-dasharray:none;stroke-opacity:1"
         transform="matrix(1.3333333,0,0,-1.3333333,435.8,122.78267)" />
      <path
         id="path24"
         d="m 4.7357625,-9.8900575 c 0.070312,-0.1992185 0.070312,-0.2343745 0.070312,-0.2460935 0,-0.199219 -0.1640625,-0.269531 -0.3398438,-0.269531 -0.058594,0 -0.070312,0 -0.1054687,0.01172 l -1.9335938,0.09375 c -0.2109375,0.01172 -0.4804687,0.02344 -0.4804687,0.4453128 0,0.2695312 0.2929687,0.2695312 0.3984375,0.2695312 0.1640625,0 0.4335937,0 0.6210937,0.035156 l -2.15624995,8.64843745 c -0.0117188,0.0585938 -0.0585938,0.29296875 -0.0585938,0.3515625 0,0.3515625 0.28125005,0.66796875 0.71484375,0.66796875 0.2695313,0 0.7148438,-0.12890625 0.9257813,-0.59765625 C 2.427169,-0.6088075 2.6381062,-1.4877137 3.0717,-3.2220887 c 0.2929687,0.023437 1.59375,0.2109375 1.59375,1.125 0,0.1054687 0,0.1523437 -0.046875,0.3164062 C 4.5717,-1.5931825 4.5717,-1.569745 4.5717,-1.42912 c 0,0.984375 0.9375,1.546875 1.921875,1.546875 1.5,0 2.0625,-2.2148437 2.0625,-2.3320312 0,-0.2109375 -0.234375,-0.2109375 -0.3632813,-0.2109375 -0.2695312,0 -0.3046875,0.023437 -0.375,0.2929687 -0.1171875,0.4335938 -0.4804687,1.7109375 -1.2421875,1.7109375 -0.2460937,0 -0.3984375,-0.12890625 -0.3984375,-0.5859375 0,-0.1523437 0.035156,-0.4335937 0.1289063,-0.7734375 0.035156,-0.1640625 0.035156,-0.2695312 0.035156,-0.375 0,-1.2773437 -1.5117187,-1.5234375 -2.5898437,-1.6289062 0.1523437,-0.1054688 0.515625,-0.3398438 1.3359375,-1.1367188 1.1484375,-1.1367187 1.78125,-1.3125 2.2382812,-1.3125 0.28125,0 0.3867188,0.1640625 0.3867188,0.1757813 -0.75,0.1054687 -1.03125,0.703125 -1.03125,1.078125 0,0.328125 0.2460937,0.6914062 0.75,0.6914062 0.28125,0 1.078125,-0.1992187 1.078125,-1.265625 0,-0.7734375 -0.4921875,-1.2304687 -1.1484375,-1.2304687 -0.9140625,0 -1.734375,0.6679687 -2.625,1.5234375 -0.140625,0.1640625 -0.8671875,0.8554687 -1.4296875,1.171875 z m 0,0"
         style="fill:#d33682;fill-opacity:1;fill-rule:nonzero;stroke:none"
         aria-label="k"
         transform="matrix(1.3333333,0,0,1.3333333,251.6544,122.78049)" />
      <path
         id="path25"
         d="m 4.1475594,-7.5234637 c 0,-0.3515625 -0.023437,-0.3515625 -0.4101563,-0.3515625 -0.8789062,0.7734375 -2.2148437,0.7734375 -2.4726562,0.7734375 h -0.234375 v 0.515625 h 0.234375 c 0.4101562,0 1.0546875,-0.070312 1.5351562,-0.234375 v 6.30468745 H 1.1241219 v 0.515625 c 0.5039062,-0.0234375 1.7695312,-0.0234375 2.3320312,-0.0234375 0.5625,0 1.8398438,0 2.34375,0.0234375 v -0.515625 H 4.1475594 Z m 0,0"
         style="fill:#d33682;fill-opacity:1;fill-rule:nonzero;stroke:none"
         aria-label="1"
         transform="matrix(1.3333333,0,0,1.3333333,263.72773,126.20316)" />
      <g
         id="g25"
         aria-label="d&#10;1"
         transform="matrix(1.3333333,0,0,1.3333333,280.47307,189.20316)">
        <path
           id="path26"
           d="m 8.9996922,-9.8906513 c 0.058594,-0.1992187 0.058594,-0.2343747 0.058594,-0.2460937 0,-0.199219 -0.1640625,-0.269531 -0.328125,-0.269531 -0.058594,0 -0.070312,0 -0.1054687,0.01172 l -1.9335938,0.09375 c -0.2109375,0.01172 -0.4804687,0.02344 -0.4804687,0.445313 0,0.2695312 0.2695312,0.2695312 0.3867187,0.2695312 0.1640625,0 0.4335938,0 0.6328125,0.035156 l -0.808594,3.3164045 C 6.1989109,-6.4453388 5.6950047,-6.7851825 4.9098484,-6.7851825 c -2.6132812,0 -4.23046871,2.3789062 -4.23046871,4.4296875 0,1.83984375 1.37109371,2.47265625 2.62500001,2.47265625 1.0546875,0 1.8398437,-0.5859375 2.0859375,-0.80859375 0.5625,0.80859375 1.5585937,0.80859375 1.7226562,0.80859375 0.5507813,0 0.984375,-0.31640625 1.3007813,-0.85546875 0.375,-0.5976563 0.5742187,-1.40625 0.5742187,-1.4765625 0,-0.2109375 -0.2226562,-0.2109375 -0.3632812,-0.2109375 -0.1640625,0 -0.2226563,0 -0.3046875,0.070312 -0.023437,0.035156 -0.023437,0.058594 -0.1171875,0.4335937 -0.2929688,1.2070313 -0.6445313,1.50000005 -1.0195313,1.50000005 -0.1640625,0 -0.3398437,-0.0585938 -0.3398437,-0.55078125 0,-0.2226563 0.023437,-0.4335938 0.082031,-0.6445313 z m -3.7617188,8.4960938 c -0.4335937,0.50390625 -1.1484375,0.97265625 -1.8632812,0.97265625 -0.9257813,0 -1.0078125,-0.80859375 -1.0078125,-1.13671875 0,-0.7851563 0.515625,-2.625 0.75,-3.2109375 0.46875,-1.0898438 1.2070312,-1.4648438 1.8164062,-1.4648438 0.890625,0 1.2421875,0.703125 1.2421875,0.8671875 l -0.023437,0.2109375 z m 0,0"
           style="fill:#268bd2;fill-opacity:1;fill-rule:nonzero;stroke:none" />
        <path
           id="path27"
           d="m 13.294614,-5.1240497 c 0,-0.3515625 -0.02344,-0.3515625 -0.410156,-0.3515625 -0.878906,0.7734375 -2.214844,0.7734375 -2.472656,0.7734375 h -0.234375 v 0.515625 h 0.234375 c 0.410156,0 1.054687,-0.070312 1.535156,-0.234375 v 6.3046875 h -1.675781 v 0.515625 c 0.503906,-0.023437 1.769531,-0.023437 2.332031,-0.023437 0.5625,0 1.839844,0 2.34375,0.023437 v -0.515625 h -1.652344 z m 0,0"
           style="fill:#268bd2;fill-opacity:1;fill-rule:nonzero;stroke:none" />
      </g>
      <g
         id="g27"
         aria-label="d&#10;0"
         transform="matrix(1.3333333,0,0,1.3333333,222.71344,189.20253)">
        <path
           id="path28"
           d="m 9.0010528,-9.8901813 c 0.058594,-0.1992187 0.058594,-0.2343747 0.058594,-0.2460937 0,-0.199219 -0.1640625,-0.269531 -0.328125,-0.269531 -0.058594,0 -0.070312,0 -0.1054688,0.01172 l -1.9335937,0.09375 c -0.2109375,0.01172 -0.4804688,0.02344 -0.4804688,0.445313 0,0.2695312 0.2695313,0.2695312 0.3867188,0.2695312 0.1640625,0 0.4335937,0 0.6328125,0.035156 l -0.808594,3.3164045 C 6.2002716,-6.4448688 5.6963653,-6.7847125 4.9112091,-6.7847125 c -2.6132813,0 -4.23046879,2.3789062 -4.23046879,4.4296875 0,1.83984375 1.37109379,2.47265625 2.62499999,2.47265625 1.0546875,0 1.8398438,-0.5859375 2.0859375,-0.80859375 0.5625,0.80859375 1.5585938,0.80859375 1.7226563,0.80859375 0.5507812,0 0.984375,-0.31640625 1.3007812,-0.85546875 0.375,-0.5976563 0.5742188,-1.40625 0.5742188,-1.4765625 0,-0.2109375 -0.2226563,-0.2109375 -0.3632813,-0.2109375 -0.1640625,0 -0.2226562,0 -0.3046875,0.070312 -0.023437,0.035156 -0.023437,0.058594 -0.1171875,0.4335937 -0.2929687,1.2070313 -0.6445312,1.50000005 -1.0195312,1.50000005 -0.1640625,0 -0.3398438,-0.0585938 -0.3398438,-0.55078125 0,-0.2226563 0.023437,-0.4335938 0.082031,-0.6445313 z m -3.7617187,8.4960938 c -0.4335938,0.50390625 -1.1484375,0.97265625 -1.8632813,0.97265625 -0.9257812,0 -1.0078125,-0.80859375 -1.0078125,-1.13671875 0,-0.7851563 0.515625,-2.625 0.75,-3.2109375 0.46875,-1.0898438 1.2070313,-1.4648438 1.8164063,-1.4648438 0.890625,0 1.2421875,0.703125 1.2421875,0.8671875 l -0.023437,0.2109375 z m 0,0"
           style="fill:#268bd2;fill-opacity:1;fill-rule:nonzero;stroke:none" />
        <path
           id="path29"
           d="m 15.343826,-1.4321734 c 0,-1.1484375 0,-4.0429688 -2.824219,-4.0429688 -2.8476558,0 -2.8476558,2.8828125 -2.8476558,4.0429688 0,1.16015621 0,3.9726562 2.8359378,3.9726562 2.824218,0 2.835937,-2.77734374 2.835937,-3.9726562 z m -2.824219,3.5742187 c -0.386718,0 -0.679687,-0.1523437 -0.914062,-0.3984375 -0.304688,-0.3046875 -0.492188,-0.4921875 -0.492188,-3.3164062 0,-0.84375 0,-1.6054688 0.09375,-2.2265625 0.164063,-1.1953125 1.03125,-1.2773438 1.300782,-1.2773438 0.375,0 1.125,0.1757813 1.289062,1.1835938 0.117188,0.6210937 0.117188,1.59375 0.117188,2.3203125 0,2.8359375 -0.1875,3 -0.550782,3.3632812 -0.234375,0.234375 -0.5625,0.3515625 -0.84375,0.3515625 z m 0,0"
           style="fill:#268bd2;fill-opacity:1;fill-rule:nonzero;stroke:none" />
      </g>
      <path
         id="path30"
         d="M 0,-6.26561 -21.65948,-35.69814"
         style="fill:none;stroke:#586e75;stroke-width:0.3985;stroke-linecap:butt;stroke-linejoin:miter;stroke-miterlimit:10;stroke-dasharray:none;stroke-opacity:1"
         transform="matrix(1.3333333,0,0,-1.3333333,262.52373,122.78049)" />
      <path
         id="path31"
         d="M 0,-6.26561 21.65948,-35.69814"
         style="fill:none;stroke:#586e75;stroke-width:0.3985;stroke-linecap:butt;stroke-linejoin:miter;stroke-miterlimit:10;stroke-dasharray:none;stroke-opacity:1"
         transform="matrix(1.3333333,0,0,-1.3333333,262.52373,122.78049)" />
      <path
         id="path32"
         d="M 0,-6.26561 -64.97847,-35.69814"
         style="fill:none;stroke:#586e75;stroke-width:0.3985;stroke-linecap:butt;stroke-linejoin:miter;stroke-miterlimit:10;stroke-dasharray:none;stroke-opacity:1"
         transform="matrix(1.3333333,0,0,-1.3333333,349.16267,56.358667)" />
      <path
         id="path33"
         d="M 0,-6.26561 64.97847,-35.69814"
         style="fill:none;stroke:#586e75;stroke-width:0.3985;stroke-linecap:butt;stroke-linejoin:miter;stroke-miterlimit:10;stroke-dasharray:none;stroke-opacity:1"
         transform="matrix(1.3333333,0,0,-1.3333333,349.16267,56.358667)" />
      <path
         id="path34"
         d="m 4.7334531,-9.8900937 c 0.070312,-0.1992183 0.070312,-0.2343753 0.070312,-0.2460933 0,-0.199219 -0.1640625,-0.269532 -0.3398437,-0.269532 -0.058594,0 -0.070312,0 -0.1054688,0.01172 l -1.9335937,0.09375 c -0.2109375,0.01172 -0.4804688,0.02344 -0.4804688,0.4453125 0,0.2695313 0.2929688,0.2695313 0.3984375,0.2695313 0.1640625,0 0.4335938,0 0.6210938,0.035156 l -2.15625003,8.6484375 c -0.0117188,0.0585938 -0.0585938,0.29296875 -0.0585938,0.3515625 0,0.3515625 0.28125003,0.66796875 0.71484383,0.66796875 0.2695312,0 0.7148437,-0.12890625 0.9257812,-0.59765625 0.035156,-0.12890625 0.2460938,-1.0078125 0.6796875,-2.7421875 0.2929688,0.023437 1.59375,0.2109375 1.59375,1.125 0,0.1054688 0,0.1523438 -0.046875,0.3164063 -0.046875,0.1875 -0.046875,0.2109375 -0.046875,0.3515625 0,0.98437495 0.9375,1.54687495 1.921875,1.54687495 1.5,0 2.0625,-2.21484375 2.0625,-2.33203125 0,-0.2109375 -0.234375,-0.2109375 -0.3632812,-0.2109375 -0.2695313,0 -0.3046875,0.023437 -0.375,0.2929688 -0.1171875,0.4335937 -0.4804688,1.71093745 -1.2421875,1.71093745 -0.2460938,0 -0.3984375,-0.12890625 -0.3984375,-0.58593745 0,-0.1523438 0.035156,-0.4335938 0.1289062,-0.7734375 0.035156,-0.1640625 0.035156,-0.2695313 0.035156,-0.375 0,-1.2773438 -1.5117188,-1.5234375 -2.5898438,-1.6289063 0.1523438,-0.1054687 0.515625,-0.3398437 1.3359375,-1.1367187 1.1484375,-1.1367188 1.78125,-1.3125 2.2382813,-1.3125 0.28125,0 0.3867187,0.1640625 0.3867187,0.1757812 -0.75,0.1054688 -1.03125,0.703125 -1.03125,1.078125 0,0.328125 0.2460938,0.6914063 0.75,0.6914063 0.28125,0 1.078125,-0.1992188 1.078125,-1.265625 0,-0.7734375 -0.4921875,-1.2304688 -1.1484375,-1.2304688 -0.9140625,0 -1.734375,0.6679688 -2.625,1.5234375 -0.140625,0.1640625 -0.8671875,0.8554688 -1.4296875,1.171875 z m 0,0"
         style="fill:#d33682;fill-opacity:1;fill-rule:nonzero;stroke:none"
         aria-label="k"
         transform="matrix(1.3333333,0,0,1.3333333,722.77467,56.358667)" />
      <path
         id="path35"
         d="M 6.0583359,-2.5781875 H 5.5544297 c -0.035156,0.2460938 -0.1171875,0.9609375 -0.2929688,1.078125 -0.1054687,0.082031 -1.0429687,0.082031 -1.21875,0.082031 H 2.1794297 c 0.4570312,-0.3867188 1.546875,-1.2890625 1.734375,-1.4296875 1.3242187,-0.9960938 2.1445312,-1.6054688 2.1445312,-2.7539063 0,-1.4179687 -1.2773437,-2.2734375 -2.8710937,-2.2734375 -1.3476563,0 -2.51953126,0.7734375 -2.51953126,1.9101563 0,0.6328125 0.51562496,0.8203125 0.79687496,0.8203125 0.375,0 0.8085938,-0.2578125 0.8085938,-0.8085938 0,-0.5039062 -0.375,-0.75 -0.75,-0.8085937 0.4804687,-0.5507813 1.1132812,-0.5976563 1.3710937,-0.5976563 1.1015625,0 1.6289063,0.9023438 1.6289063,1.7695313 0,0.9375 -0.6328125,1.7929687 -1.125,2.3085937 L 0.79661719,-0.55084375 C 0.66771094,-0.445375 0.66771094,-0.4219375 0.66771094,-0.19928125 V -6.25e-5 H 5.7067734 Z m 0,0"
         style="fill:#d33682;fill-opacity:1;fill-rule:nonzero;stroke:none"
         aria-label="2"
         transform="matrix(1.3333333,0,0,1.3333333,734.848,59.781333)" />
      <path
         id="path36"
         d="m 4.7340781,-9.8917578 c 0.070312,-0.1992192 0.070312,-0.2343752 0.070312,-0.2460942 0,-0.199218 -0.1640625,-0.269531 -0.3398437,-0.269531 -0.058594,0 -0.070312,0 -0.1054688,0.01172 l -1.9335937,0.09375 c -0.2109375,0.01172 -0.4804688,0.02344 -0.4804688,0.4453124 0,0.2695313 0.2929688,0.2695313 0.3984375,0.2695313 0.1640625,0 0.4335938,0 0.6210938,0.035156 l -2.15625003,8.64843754 c -0.0117188,0.0585938 -0.0585938,0.29296875 -0.0585938,0.3515625 0,0.3515625 0.28125003,0.66796875 0.71484383,0.66796875 0.2695312,0 0.7148437,-0.12890625 0.9257812,-0.59765625 0.035156,-0.12890625 0.2460938,-1.00781254 0.6796875,-2.74218754 0.2929688,0.023437 1.5937499,0.2109375 1.5937499,1.125 0,0.1054688 0,0.1523438 -0.046875,0.3164063 -0.046875,0.1875 -0.046875,0.2109375 -0.046875,0.3515625 0,0.98437499 0.9375,1.54687499 1.921875,1.54687499 1.5,0 2.0625001,-2.21484379 2.0625001,-2.33203129 0,-0.2109375 -0.234375,-0.2109375 -0.3632812,-0.2109375 -0.2695313,0 -0.3046875,0.023437 -0.375,0.2929688 -0.1171875,0.4335937 -0.4804688,1.71093749 -1.2421875,1.71093749 -0.2460938,0 -0.3984375,-0.12890625 -0.3984375,-0.58593749 0,-0.1523438 0.035156,-0.4335938 0.1289062,-0.7734375 0.035156,-0.1640625 0.035156,-0.2695313 0.035156,-0.375 0,-1.2773438 -1.5117188,-1.5234375 -2.5898438,-1.6289063 0.1523438,-0.1054687 0.515625,-0.3398437 1.3359375,-1.1367187 1.1484375,-1.1367188 1.78125,-1.3125 2.2382813,-1.3125 0.28125,0 0.3867187,0.1640625 0.3867187,0.1757812 -0.75,0.1054688 -1.03125,0.703125 -1.03125,1.078125 0,0.328125 0.2460938,0.6914063 0.75,0.6914063 0.28125,0 1.078125,-0.1992188 1.078125,-1.265625 0,-0.7734375 -0.4921875,-1.2304688 -1.1484375,-1.2304688 -0.9140625,0 -1.734375,0.6679688 -2.625,1.5234375 -0.140625,0.1640625 -0.8671875,0.8554688 -1.4296875,1.171875 z m 0,0"
         style="fill:#d33682;fill-opacity:1;fill-rule:nonzero;stroke:none"
         aria-label="k"
         transform="matrix(1.3333333,0,0,1.3333333,827.46133,122.78667)" />
      <path
         id="path37"
         d="m 1.8519297,-6.2214531 c 0.4101562,0.09375 0.7265625,0.09375 0.9140625,0.09375 0.28125,0 0.9609375,0 1.7695312,-0.4921875 0.375,-0.234375 0.9960938,-0.7734375 0.9960938,-1.0429688 0,-0.058594 0,-0.2109375 -0.140625,-0.2109375 -0.011719,0 -0.035156,0 -0.1640625,0.058594 -0.5507813,0.1992187 -1.1367188,0.328125 -1.8046875,0.328125 -0.6914063,0 -1.265625,-0.1289063 -1.828125,-0.3398438 -0.082031,-0.023437 -0.1171875,-0.046875 -0.1523438,-0.046875 -0.140625,0 -0.140625,0.1171875 -0.140625,0.328125 v 3.4921875 c 0,0.2226563 0,0.3632813 0.234375,0.3632813 0.1171875,0 0.140625,-0.011719 0.2460938,-0.140625 0.140625,-0.1640625 0.5742187,-0.6914063 1.59375,-0.6914063 1.1015625,0 1.1015625,1.125 1.1015625,2.0742188 0,0.8671875 0,2.10937497 -1.4765625,2.10937497 -0.4453125,0 -1.1953125,-0.1640625 -1.6054688,-0.84374997 0.6328125,0 0.7851563,-0.4804688 0.7851563,-0.75 0,-0.4335938 -0.3046875,-0.75 -0.75,-0.75 -0.3632813,0 -0.76171876,0.2109375 -0.76171876,0.7734375 0,1.04296872 0.94921876,2.05078122 2.37890626,2.05078122 1.8515625,0 3.0117187,-1.06640625 3.0117187,-2.55468752 0,-1.4648437 -0.9960937,-2.5078125 -2.6367187,-2.5078125 -0.4804688,0 -1.0546875,0.09375 -1.5703125,0.4804688 z m 0,0"
         style="fill:#d33682;fill-opacity:1;fill-rule:nonzero;stroke:none"
         aria-label="5"
         transform="matrix(1.3333333,0,0,1.3333333,839.53467,126.20933)" />
      <g
         id="g37"
         aria-label="d&#10;5"
         transform="matrix(1.3333333,0,0,1.3333333,877.94,189.21067)">
        <path
           id="path38"
           d="m 9.0010547,-9.8904219 c 0.058594,-0.1992191 0.058594,-0.2343751 0.058594,-0.2460941 0,-0.199218 -0.1640625,-0.269531 -0.328125,-0.269531 -0.058594,0 -0.070312,0 -0.1054687,0.01172 l -1.9335938,0.09375 c -0.2109375,0.01172 -0.4804687,0.02344 -0.4804687,0.4453124 0,0.2695312 0.2695312,0.2695312 0.3867187,0.2695312 0.1640625,0 0.4335938,0 0.6328125,0.035156 l -0.808594,3.3164055 C 6.2002734,-6.4451094 5.6963672,-6.7849531 4.9112109,-6.7849531 c -2.6132812,0 -4.23046871,2.3789062 -4.23046871,4.4296875 0,1.83984373 1.37109371,2.47265623 2.62500001,2.47265623 1.0546875,0 1.8398437,-0.5859375 2.0859375,-0.80859375 0.5625,0.80859375 1.5585937,0.80859375 1.7226562,0.80859375 0.5507813,0 0.984375,-0.31640625 1.3007813,-0.85546875 0.375,-0.59765628 0.5742187,-1.40624998 0.5742187,-1.47656248 0,-0.2109375 -0.2226562,-0.2109375 -0.3632812,-0.2109375 -0.1640625,0 -0.2226563,0 -0.3046875,0.070312 -0.023437,0.035156 -0.023437,0.058594 -0.1171875,0.4335937 -0.2929688,1.20703128 -0.6445313,1.50000003 -1.0195313,1.50000003 -0.1640625,0 -0.3398437,-0.0585938 -0.3398437,-0.55078125 0,-0.22265628 0.023437,-0.43359378 0.082031,-0.64453128 z m -3.7617188,8.4960938 c -0.4335937,0.50390623 -1.1484375,0.97265623 -1.8632812,0.97265623 -0.9257813,0 -1.0078125,-0.80859373 -1.0078125,-1.13671873 0,-0.7851563 0.515625,-2.625 0.75,-3.2109375 0.46875,-1.0898438 1.2070312,-1.4648438 1.8164062,-1.4648438 0.890625,0 1.2421875,0.703125 1.2421875,0.8671875 l -0.023437,0.2109375 z m 0,0"
           style="fill:#268bd2;fill-opacity:1;fill-rule:nonzero;stroke:none" />
        <path
           id="path39"
           d="m 10.996172,-3.8230391 c 0.410156,0.09375 0.726562,0.09375 0.914062,0.09375 0.28125,0 0.960938,0 1.769532,-0.4921875 0.375,-0.234375 0.996093,-0.7734375 0.996093,-1.0429687 0,-0.058594 0,-0.2109375 -0.140625,-0.2109375 -0.01172,0 -0.03516,0 -0.164062,0.058594 -0.550781,0.1992188 -1.136719,0.328125 -1.804688,0.328125 -0.691406,0 -1.265625,-0.1289062 -1.828125,-0.3398437 -0.08203,-0.023437 -0.117187,-0.046875 -0.152343,-0.046875 -0.140625,0 -0.140625,0.1171875 -0.140625,0.328125 V -1.65507 c 0,0.2226562 0,0.3632812 0.234375,0.3632812 0.117187,0 0.140625,-0.011719 0.246093,-0.140625 0.140625,-0.1640625 0.574219,-0.6914062 1.59375,-0.6914062 1.101563,0 1.101563,1.12499999 1.101563,2.07421874 0,0.8671875 0,2.10937496 -1.476563,2.10937496 -0.445312,0 -1.195312,-0.1640625 -1.605468,-0.84375 0.632812,0 0.785156,-0.48046871 0.785156,-0.74999996 0,-0.43359375 -0.304688,-0.75 -0.75,-0.75 -0.363281,0 -0.7617189,0.2109375 -0.7617189,0.7734375 0,1.04296876 0.9492189,2.05078126 2.3789059,2.05078126 1.851563,0 3.011719,-1.0664063 3.011719,-2.55468751 0,-1.46484379 -0.996094,-2.50781249 -2.636719,-2.50781249 -0.480468,0 -1.054687,0.09375 -1.570312,0.4804687 z m 0,0"
           style="fill:#268bd2;fill-opacity:1;fill-rule:nonzero;stroke:none" />
      </g>
      <path
         id="path40"
         d="m 4.7332816,-9.8916419 c 0.070312,-0.1992191 0.070312,-0.2343751 0.070312,-0.2460941 0,-0.199218 -0.1640625,-0.269531 -0.3398438,-0.269531 -0.058594,0 -0.070312,0 -0.1054687,0.01172 l -1.9335938,0.09375 c -0.2109375,0.01172 -0.4804687,0.02344 -0.4804687,0.4453124 0,0.2695312 0.2929687,0.2695312 0.3984375,0.2695312 0.1640625,0 0.4335937,0 0.6210937,0.035156 l -2.15624999,8.64843748 c -0.0117188,0.0585938 -0.0585938,0.29296875 -0.0585938,0.3515625 0,0.3515625 0.28124999,0.66796875 0.71484369,0.66796875 0.2695313,0 0.7148439,-0.12890625 0.9257814,-0.59765625 0.035156,-0.12890625 0.2460936,-1.00781248 0.6796875,-2.74218748 0.2929686,0.023437 1.59375,0.2109375 1.59375,1.125 0,0.1054687 0,0.1523437 -0.046875,0.3164062 -0.046875,0.1875 -0.046875,0.2109375 -0.046875,0.3515625 0,0.98437503 0.9375,1.54687503 1.921875,1.54687503 1.5,0 2.0625,-2.21484373 2.0625,-2.33203123 0,-0.2109375 -0.234375,-0.2109375 -0.3632813,-0.2109375 -0.2695313,0 -0.3046876,0.023437 -0.3750001,0.2929687 -0.1171875,0.4335938 -0.4804687,1.71093753 -1.2421875,1.71093753 -0.2460937,0 -0.3984375,-0.12890625 -0.3984375,-0.58593753 0,-0.1523437 0.035156,-0.4335937 0.1289063,-0.7734375 0.035156,-0.1640625 0.035156,-0.2695312 0.035156,-0.375 0,-1.2773437 -1.5117187,-1.5234375 -2.5898437,-1.6289062 0.1523437,-0.1054688 0.515625,-0.3398438 1.3359375,-1.1367188 1.1484375,-1.1367187 1.78125,-1.3125 2.2382812,-1.3125 0.28125,0 0.3867188,0.1640625 0.3867188,0.1757813 -0.75,0.1054687 -1.03125,0.703125 -1.03125,1.078125 0,0.328125 0.2460937,0.6914062 0.75,0.6914062 0.28125,0 1.0781251,-0.1992187 1.0781251,-1.265625 0,-0.7734375 -0.4921875,-1.2304687 -1.1484376,-1.2304687 -0.9140625,0 -1.734375,0.6679687 -2.625,1.5234375 -0.140625,0.1640625 -0.8671874,0.8554687 -1.4296874,1.171875 z m 0,0"
         style="fill:#d33682;fill-opacity:1;fill-rule:nonzero;stroke:none"
         aria-label="k"
         transform="matrix(1.3333333,0,0,1.3333333,776.91943,189.21229)" />
      <path
         id="path41"
         d="m 5.1909769,-1.8873294 h 1.171875 v -0.515625 h -1.171875 v -5.1445312 c 0,-0.3046875 -0.011719,-0.3515625 -0.3046875,-0.3515625 -0.2226563,0 -0.2460938,0 -0.3867188,0.1875 l -4.12499997,5.3085937 v 0.515625 H 3.7847269 v 1.37109378 h -1.3125 v 0.515624995 c 0.3515625,-0.023437495 1.5351562,-0.023437495 1.96875,-0.023437495 0.4101562,0 1.59375,0 1.921875,0.023437495 V -0.51623562 H 5.1909769 Z M 3.8901956,-6.2115481 v 3.8085937 H 0.92535188 Z m 0,0"
         style="fill:#d33682;fill-opacity:1;fill-rule:nonzero;stroke:none"
         aria-label="4"
         transform="matrix(1.3333333,0,0,1.3333333,788.99276,192.63363)" />
      <g
         id="g41"
         aria-label="d&#10;4"
         transform="matrix(1.3333333,0,0,1.3333333,820.17943,255.63363)">
        <path
           id="path42"
           d="m 9.0001956,-9.8912356 c 0.058594,-0.1992184 0.058594,-0.2343754 0.058594,-0.2460934 0,-0.199219 -0.1640625,-0.269532 -0.328125,-0.269532 -0.058594,0 -0.070312,0 -0.1054688,0.01172 l -1.9335937,0.09375 c -0.2109375,0.01172 -0.4804688,0.02344 -0.4804688,0.4453126 0,0.2695313 0.2695313,0.2695313 0.3867188,0.2695313 0.1640625,0 0.4335937,0 0.6328125,0.035156 l -0.808594,3.3164055 C 6.1994144,-6.4459231 5.6955081,-6.7857669 4.9103519,-6.7857669 c -2.6132813,0 -4.23046878,2.3789063 -4.23046878,4.4296875 0,1.83984378 1.37109378,2.47265628 2.62499998,2.47265628 1.0546875,0 1.8398438,-0.5859375 2.0859375,-0.80859375 0.5625,0.80859375 1.5585938,0.80859375 1.7226563,0.80859375 0.5507812,0 0.984375,-0.31640625 1.3007812,-0.85546875 0.375,-0.59765623 0.5742188,-1.40625003 0.5742188,-1.47656253 0,-0.2109375 -0.2226563,-0.2109375 -0.3632813,-0.2109375 -0.1640625,0 -0.2226562,0 -0.3046875,0.070312 -0.023437,0.035156 -0.023437,0.058594 -0.1171875,0.4335938 -0.2929687,1.20703123 -0.6445312,1.49999998 -1.0195312,1.49999998 -0.1640625,0 -0.3398438,-0.0585938 -0.3398438,-0.55078125 0,-0.22265623 0.023437,-0.43359373 0.082031,-0.64453123 z m -3.7617187,8.4960937 c -0.4335938,0.50390628 -1.1484375,0.97265628 -1.8632813,0.97265628 -0.9257812,0 -1.0078125,-0.80859378 -1.0078125,-1.13671878 0,-0.7851562 0.515625,-2.625 0.75,-3.2109375 0.46875,-1.0898437 1.2070313,-1.4648437 1.8164063,-1.4648437 0.890625,0 1.2421875,0.703125 1.2421875,0.8671875 l -0.023437,0.2109375 z m 0,0"
           style="fill:#268bd2;fill-opacity:1;fill-rule:nonzero;stroke:none" />
        <path
           id="path43"
           d="m 14.338086,0.51208469 h 1.171875 v -0.515625 H 14.338086 V -5.1480716 c 0,-0.3046875 -0.01172,-0.3515625 -0.304687,-0.3515625 -0.222657,0 -0.246094,0 -0.386719,0.1875 l -4.125,5.30859379 v 0.515625 h 3.410156 V 1.8831784 h -1.3125 v 0.515625 c 0.351563,-0.023437 1.535156,-0.023437 1.96875,-0.023437 0.410156,0 1.59375,0 1.921875,0.023437 V 1.8831784 H 14.338086 Z M 13.037305,-3.8121341 v 3.80859379 h -2.964844 z m 0,0"
           style="fill:#268bd2;fill-opacity:1;fill-rule:nonzero;stroke:none" />
      </g>
      <path
         id="path44"
         d="m 4.7332472,-9.8916056 c 0.070312,-0.1992184 0.070312,-0.2343754 0.070312,-0.2460934 0,-0.199219 -0.1640625,-0.269532 -0.3398438,-0.269532 -0.058594,0 -0.070312,0 -0.1054687,0.01172 l -1.9335938,0.09375 c -0.2109375,0.01172 -0.4804687,0.02344 -0.4804687,0.4453126 0,0.2695313 0.2929687,0.2695313 0.3984375,0.2695313 0.1640625,0 0.4335937,0 0.6210937,0.035156 l -2.15624996,8.64843753 c -0.0117188,0.0585938 -0.0585938,0.29296875 -0.0585938,0.3515625 0,0.3515625 0.28125006,0.66796875 0.71484376,0.66796875 0.2695313,0 0.7148438,-0.12890625 0.9257813,-0.59765625 0.035156,-0.12890625 0.2460937,-1.00781253 0.6796875,-2.74218753 0.2929687,0.023437 1.59375,0.2109375 1.59375,1.125 0,0.1054688 0,0.1523438 -0.046875,0.3164063 -0.046875,0.1875 -0.046875,0.2109375 -0.046875,0.3515625 0,0.98437498 0.9375,1.54687498 1.921875,1.54687498 1.5,0 2.0625,-2.21484378 2.0625,-2.33203128 0,-0.2109375 -0.234375,-0.2109375 -0.3632813,-0.2109375 -0.2695312,0 -0.3046875,0.023437 -0.375,0.2929688 -0.1171875,0.4335937 -0.4804687,1.71093748 -1.2421875,1.71093748 -0.2460937,0 -0.3984375,-0.12890625 -0.3984375,-0.58593748 0,-0.1523438 0.035156,-0.4335938 0.1289063,-0.7734375 0.035156,-0.1640625 0.035156,-0.2695313 0.035156,-0.375 0,-1.2773438 -1.5117188,-1.5234375 -2.5898437,-1.6289063 0.1523437,-0.1054687 0.515625,-0.3398437 1.3359375,-1.1367187 1.1484375,-1.1367188 1.78125,-1.3125 2.2382812,-1.3125 0.28125,0 0.3867187,0.1640625 0.3867187,0.1757812 -0.75,0.1054688 -1.03125,0.703125 -1.03125,1.078125 0,0.328125 0.2460938,0.6914063 0.75,0.6914063 0.28125,0 1.078125,-0.1992188 1.078125,-1.265625 0,-0.7734375 -0.4921875,-1.2304688 -1.1484375,-1.2304688 -0.9140625,0 -1.734375,0.6679688 -2.625,1.5234375 -0.140625,0.1640625 -0.8671875,0.8554688 -1.4296875,1.171875 z m 0,0"
         style="fill:#d33682;fill-opacity:1;fill-rule:nonzero;stroke:none"
         aria-label="k"
         transform="matrix(1.3333333,0,0,1.3333333,733.59916,255.63412)" />
      <path
         id="path45"
         d="m 3.1274425,-3.9713009 c 1.3476562,0 1.3476562,1.2539062 1.3476562,1.828125 0,0.5390625 0,1.80468746 -1.3007812,1.80468746 -0.2460938,0 -1.0429688,-0.0351563 -1.6171875,-0.4453125 0.515625,-0.10546875 0.703125,-0.48046876 0.703125,-0.83203126 0,-0.4921875 -0.3515625,-0.84375 -0.84375,-0.84375 -0.50390625,0 -0.85546875,0.3515625 -0.85546875,0.8554688 0,1.10156246 1.20703125,1.74609371 2.67187495,1.74609371 1.9804688,0 2.9296875,-1.08984375 2.9296875,-2.28515621 0,-0.5859375 -0.2929687,-1.734375 -2.15625,-2.0507813 1.0546875,-0.328125 1.7929688,-1.078125 1.7929688,-2.015625 0,-0.9023437 -0.8671875,-1.6640625 -2.53125,-1.6640625 -1.3476563,0 -2.33203125,0.7148438 -2.33203125,1.6875 0,0.5976563 0.46874995,0.7851563 0.77343745,0.7851563 0.3515625,0 0.7734375,-0.2226563 0.7734375,-0.7734375 0,-0.28125 -0.1171875,-0.6914063 -0.6796875,-0.7734375 0.5039063,-0.4921875 1.3125,-0.4921875 1.3828125,-0.4921875 1.078125,0 1.078125,0.8320312 1.078125,1.1835937 0,0.3632813 -0.058594,0.9140625 -0.4335937,1.40625 -0.3164063,0.4101563 -0.6328125,0.4335938 -1.0898438,0.4570313 -0.140625,0.011719 -0.375,0.023437 -0.421875,0.046875 -0.082031,0.035156 -0.082031,0.1289062 -0.082031,0.1757812 0,0.1992188 0.082031,0.1992188 0.3164062,0.1992188 z m 0,0"
         style="fill:#d33682;fill-opacity:1;fill-rule:nonzero;stroke:none"
         aria-label="3"
         transform="matrix(1.3333333,0,0,1.3333333,745.67383,259.05679)" />
      <g
         id="g45"
         aria-label="d&#10;3"
         transform="matrix(1.3333333,0,0,1.3333333,762.41783,322.05679)">
        <path
           id="path46"
           d="m 9.0001066,-9.8892697 c 0.058594,-0.1992183 0.058594,-0.2343753 0.058594,-0.2460933 0,-0.199219 -0.1640625,-0.269532 -0.328125,-0.269532 -0.058594,0 -0.070312,0 -0.1054687,0.01172 l -1.9335938,0.09375 c -0.2109375,0.01172 -0.4804687,0.02344 -0.4804687,0.4453126 0,0.2695312 0.2695312,0.2695312 0.3867187,0.2695312 0.1640625,0 0.4335938,0 0.6328125,0.035156 l -0.808594,3.3164055 C 6.1993253,-6.4439572 5.6954191,-6.7838009 4.9102628,-6.7838009 c -2.6132812,0 -4.23046874,2.3789062 -4.23046874,4.4296875 0,1.83984371 1.37109374,2.47265621 2.62500004,2.47265621 1.0546875,0 1.8398437,-0.5859375 2.0859375,-0.80859375 0.5625,0.80859375 1.5585937,0.80859375 1.7226562,0.80859375 0.5507813,0 0.984375,-0.31640625 1.3007813,-0.85546875 0.375,-0.59765626 0.5742187,-1.40624996 0.5742187,-1.47656246 0,-0.2109375 -0.2226562,-0.2109375 -0.3632812,-0.2109375 -0.1640625,0 -0.2226563,0 -0.3046875,0.070312 -0.023437,0.035156 -0.023437,0.058594 -0.1171875,0.4335937 -0.2929688,1.20703126 -0.6445313,1.50000001 -1.0195313,1.50000001 -0.1640625,0 -0.3398437,-0.0585938 -0.3398437,-0.55078125 0,-0.22265626 0.023437,-0.43359376 0.082031,-0.64453126 z m -3.7617188,8.4960938 c -0.4335937,0.50390621 -1.1484375,0.97265621 -1.8632812,0.97265621 -0.9257813,0 -1.0078125,-0.80859371 -1.0078125,-1.13671871 0,-0.7851563 0.515625,-2.625 0.75,-3.2109375 0.46875,-1.0898438 1.2070312,-1.4648438 1.8164062,-1.4648438 0.890625,0 1.2421875,0.703125 1.2421875,0.8671875 l -0.023437,0.2109375 z m 0,0"
           style="fill:#268bd2;fill-opacity:1;fill-rule:nonzero;stroke:none" />
        <path
           id="path47"
           d="m 12.275497,-1.5718869 c 1.347656,0 1.347656,1.25390628 1.347656,1.82812503 0,0.5390625 0,1.80468747 -1.300781,1.80468747 -0.246094,0 -1.042969,-0.035156 -1.617187,-0.4453125 0.515625,-0.1054687 0.703125,-0.4804687 0.703125,-0.83203122 0,-0.4921875 -0.351563,-0.84375 -0.84375,-0.84375 -0.503907,0 -0.8554691,0.3515625 -0.8554691,0.85546875 0,1.10156247 1.2070311,1.74609377 2.6718751,1.74609377 1.980469,0 2.929687,-1.0898438 2.929687,-2.28515627 0,-0.5859375 -0.292968,-1.73437503 -2.15625,-2.05078123 1.054688,-0.328125 1.792969,-1.078125 1.792969,-2.015625 0,-0.9023438 -0.867187,-1.6640625 -2.53125,-1.6640625 -1.347656,0 -2.332031,0.7148437 -2.332031,1.6875 0,0.5976562 0.46875,0.7851562 0.773437,0.7851562 0.351563,0 0.773438,-0.2226562 0.773438,-0.7734375 0,-0.28125 -0.117188,-0.6914062 -0.679688,-0.7734375 0.503907,-0.4921875 1.3125,-0.4921875 1.382813,-0.4921875 1.078125,0 1.078125,0.8320313 1.078125,1.1835938 0,0.3632812 -0.05859,0.9140625 -0.433594,1.40625 -0.316406,0.4101562 -0.632812,0.4335937 -1.089844,0.4570312 -0.140625,0.011719 -0.375,0.023437 -0.421875,0.046875 -0.08203,0.035156 -0.08203,0.1289063 -0.08203,0.1757813 0,0.1992187 0.08203,0.1992187 0.316406,0.1992187 z m 0,0"
           style="fill:#268bd2;fill-opacity:1;fill-rule:nonzero;stroke:none" />
      </g>
      <g
         id="g47"
         aria-label="d&#10;2"
         transform="matrix(1.3333333,0,0,1.3333333,704.65953,322.05616)">
        <path
           id="path48"
           d="m 9.0004672,-9.8917294 c 0.058594,-0.1992186 0.058594,-0.2343746 0.058594,-0.2460936 0,-0.199219 -0.1640625,-0.269531 -0.328125,-0.269531 -0.058594,0 -0.070312,0 -0.1054687,0.01172 l -1.9335938,0.09375 c -0.2109375,0.01172 -0.4804687,0.02344 -0.4804687,0.4453129 0,0.2695312 0.2695312,0.2695312 0.3867187,0.2695312 0.1640625,0 0.4335938,0 0.6328125,0.035156 l -0.808594,3.3164045 C 6.1996859,-6.4464169 5.6957797,-6.7862606 4.9106234,-6.7862606 c -2.6132812,0 -4.23046871,2.3789062 -4.23046871,4.4296875 0,1.83984373 1.37109371,2.47265623 2.62500001,2.47265623 1.0546875,0 1.8398437,-0.5859375 2.0859375,-0.80859375 0.5625,0.80859375 1.5585937,0.80859375 1.7226562,0.80859375 0.5507813,0 0.984375,-0.31640625 1.3007813,-0.85546875 0.375,-0.59765628 0.5742187,-1.40624998 0.5742187,-1.47656248 0,-0.2109375 -0.2226562,-0.2109375 -0.3632812,-0.2109375 -0.1640625,0 -0.2226563,0 -0.3046875,0.070312 -0.023437,0.035156 -0.023437,0.058594 -0.1171875,0.4335937 -0.2929688,1.20703128 -0.6445313,1.50000003 -1.0195313,1.50000003 -0.1640625,0 -0.3398437,-0.0585938 -0.3398437,-0.55078125 0,-0.22265628 0.023437,-0.43359378 0.082031,-0.64453128 z m -3.7617188,8.4960938 c -0.4335937,0.50390623 -1.1484375,0.97265623 -1.8632812,0.97265623 -0.9257813,0 -1.0078125,-0.80859373 -1.0078125,-1.13671873 0,-0.7851563 0.515625,-2.625 0.75,-3.2109375 0.46875,-1.0898438 1.2070312,-1.4648438 1.8164062,-1.4648438 0.890625,0 1.2421875,0.703125 1.2421875,0.8671875 l -0.023437,0.2109375 z m 0,0"
           style="fill:#268bd2;fill-opacity:1;fill-rule:nonzero;stroke:none" />
        <path
           id="path49"
           d="m 15.205545,-0.17688562 h -0.503906 c -0.03516,0.24609375 -0.117187,0.9609375 -0.292969,1.078125 -0.105468,0.0820313 -1.042968,0.0820313 -1.21875,0.0820313 h -1.863281 c 0.457031,-0.38671875 1.546875,-1.2890625 1.734375,-1.4296875 1.324219,-0.99609368 2.144531,-1.60546868 2.144531,-2.75390628 0,-1.4179688 -1.277343,-2.2734374 -2.871093,-2.2734374 -1.347657,0 -2.5195317,0.7734375 -2.5195317,1.9101562 0,0.6328125 0.5156247,0.8203125 0.7968747,0.8203125 0.375,0 0.808594,-0.2578125 0.808594,-0.8085937 0,-0.5039063 -0.375,-0.75 -0.75,-0.8085938 0.480469,-0.5507812 1.113281,-0.5976562 1.371094,-0.5976562 1.101562,0 1.628906,0.9023437 1.628906,1.7695312 0,0.9375 -0.632812,1.7929688 -1.125,2.30859373 L 9.9438266,1.8504581 C 9.8149203,1.9559269 9.8149203,1.9793644 9.8149203,2.2020206 v 0.1992188 h 5.0390627 z m 0,0"
           style="fill:#268bd2;fill-opacity:1;fill-rule:nonzero;stroke:none" />
      </g>
      <path
         id="path50"
         d="M 0,-6.26561 -21.65948,-35.69814"
         style="fill:none;stroke:#586e75;stroke-width:0.3985;stroke-linecap:butt;stroke-linejoin:miter;stroke-miterlimit:10;stroke-dasharray:none;stroke-opacity:1"
         transform="matrix(1.3333333,0,0,-1.3333333,744.46849,255.63412)" />
      <path
         id="path51"
         d="M 0,-6.26561 21.65948,-35.69814"
         style="fill:none;stroke:#586e75;stroke-width:0.3985;stroke-linecap:butt;stroke-linejoin:miter;stroke-miterlimit:10;stroke-dasharray:none;stroke-opacity:1"
         transform="matrix(1.3333333,0,0,-1.3333333,744.46849,255.63412)" />
      <path
         id="path52"
         d="M 0,-6.26561 -32.48923,-35.69814"
         style="fill:none;stroke:#586e75;stroke-width:0.3985;stroke-linecap:butt;stroke-linejoin:miter;stroke-miterlimit:10;stroke-dasharray:none;stroke-opacity:1"
         transform="matrix(1.3333333,0,0,-1.3333333,787.78876,189.21229)" />
      <path
         id="path53"
         d="M 0,-6.26561 32.48923,-35.69814"
         style="fill:none;stroke:#586e75;stroke-width:0.3985;stroke-linecap:butt;stroke-linejoin:miter;stroke-miterlimit:10;stroke-dasharray:none;stroke-opacity:1"
         transform="matrix(1.3333333,0,0,-1.3333333,787.78876,189.21229)" />
      <path
         id="path54"
         d="M 0,-6.26561 -37.9041,-35.69814"
         style="fill:none;stroke:#586e75;stroke-width:0.3985;stroke-linecap:butt;stroke-linejoin:miter;stroke-miterlimit:10;stroke-dasharray:none;stroke-opacity:1"
         transform="matrix(1.3333333,0,0,-1.3333333,838.33067,122.78667)" />
      <path
         id="path55"
         d="M 0,-6.26561 37.9041,-35.69814"
         style="fill:none;stroke:#586e75;stroke-width:0.3985;stroke-linecap:butt;stroke-linejoin:miter;stroke-miterlimit:10;stroke-dasharray:none;stroke-opacity:1"
         transform="matrix(1.3333333,0,0,-1.3333333,838.33067,122.78667)" />
      <path
         id="path56"
         d="m 4.7350281,-9.8920575 c 0.070312,-0.1992185 0.070312,-0.2343745 0.070312,-0.2460935 0,-0.199219 -0.1640625,-0.269531 -0.3398437,-0.269531 -0.058594,0 -0.070312,0 -0.1054688,0.01172 l -1.9335937,0.09375 c -0.2109375,0.01172 -0.4804688,0.02344 -0.4804688,0.4453128 0,0.2695312 0.2929688,0.2695312 0.3984375,0.2695312 0.1640625,0 0.4335938,0 0.6210938,0.035156 l -2.15625003,8.64843745 c -0.0117188,0.0585938 -0.0585938,0.29296875 -0.0585938,0.3515625 0,0.3515625 0.28125003,0.66796875 0.71484383,0.66796875 0.2695312,0 0.7148437,-0.12890625 0.9257812,-0.59765625 0.035156,-0.12890625 0.2460938,-1.00781245 0.6796875,-2.74218745 0.2929688,0.023437 1.59375,0.2109375 1.59375,1.125 0,0.1054687 0,0.1523437 -0.046875,0.3164062 -0.046875,0.1875 -0.046875,0.2109375 -0.046875,0.3515625 0,0.984375 0.9375,1.546875 1.921875,1.546875 1.5,0 2.0625,-2.2148437 2.0625,-2.3320312 0,-0.2109375 -0.234375,-0.2109375 -0.3632812,-0.2109375 -0.2695313,0 -0.3046875,0.023437 -0.375,0.2929687 -0.1171875,0.4335938 -0.4804688,1.7109375 -1.2421875,1.7109375 -0.2460938,0 -0.3984375,-0.12890625 -0.3984375,-0.5859375 0,-0.1523437 0.035156,-0.4335937 0.1289062,-0.7734375 0.035156,-0.1640625 0.035156,-0.2695312 0.035156,-0.375 0,-1.2773437 -1.5117188,-1.5234375 -2.5898438,-1.6289062 0.1523438,-0.1054688 0.515625,-0.3398438 1.3359375,-1.1367188 1.1484375,-1.1367187 1.78125,-1.3125 2.2382813,-1.3125 0.28125,0 0.3867187,0.1640625 0.3867187,0.1757813 -0.75,0.1054687 -1.03125,0.703125 -1.03125,1.078125 0,0.328125 0.2460938,0.6914062 0.75,0.6914062 0.28125,0 1.078125,-0.1992187 1.078125,-1.265625 0,-0.7734375 -0.4921875,-1.2304687 -1.1484375,-1.2304687 -0.9140625,0 -1.734375,0.6679687 -2.625,1.5234375 -0.140625,0.1640625 -0.8671875,0.8554687 -1.4296875,1.171875 z m 0,0"
         style="fill:#d33682;fill-opacity:1;fill-rule:nonzero;stroke:none"
         aria-label="k"
         transform="matrix(1.3333333,0,0,1.3333333,618.08507,122.78316)" />
      <path
         id="path57"
         d="m 4.1487547,-7.5225341 c 0,-0.3515625 -0.023437,-0.3515625 -0.4101563,-0.3515625 -0.8789062,0.7734375 -2.2148437,0.7734375 -2.4726562,0.7734375 h -0.234375 v 0.515625 h 0.234375 c 0.4101562,0 1.0546875,-0.070312 1.5351562,-0.234375 v 6.30468754 H 1.1253172 V 9.034375e-4 C 1.6292234,-0.02253406 2.8948484,-0.02253406 3.4573484,-0.02253406 c 0.5625,0 1.8398438,0 2.34375,0.0234374975 V -0.51472156 H 4.1487547 Z m 0,0"
         style="fill:#d33682;fill-opacity:1;fill-rule:nonzero;stroke:none"
         aria-label="1"
         transform="matrix(1.3333333,0,0,1.3333333,630.15973,126.20583)" />
      <g
         id="g57"
         aria-label="d&#10;1"
         transform="matrix(1.3333333,0,0,1.3333333,646.90507,189.20583)">
        <path
           id="path58"
           d="m 9.0008875,-9.8897216 c 0.058594,-0.1992184 0.058594,-0.2343754 0.058594,-0.2460934 0,-0.199219 -0.1640625,-0.269532 -0.328125,-0.269532 -0.058594,0 -0.070312,0 -0.1054687,0.01172 l -1.9335938,0.09375 c -0.2109375,0.01172 -0.4804687,0.02344 -0.4804687,0.4453127 0,0.2695312 0.2695312,0.2695312 0.3867187,0.2695312 0.1640625,0 0.4335938,0 0.6328125,0.035156 l -0.808594,3.3164055 C 6.2001062,-6.4444091 5.6962,-6.7842528 4.9110437,-6.7842528 c -2.6132812,0 -4.2304687,2.3789062 -4.2304687,4.4296875 0,1.83984374 1.3710937,2.47265624 2.625,2.47265624 1.0546875,0 1.8398437,-0.5859375 2.0859375,-0.80859375 0.5625,0.80859375 1.5585937,0.80859375 1.7226562,0.80859375 0.5507813,0 0.984375,-0.31640625 1.3007813,-0.85546875 0.375,-0.59765629 0.5742187,-1.40624999 0.5742187,-1.47656249 0,-0.2109375 -0.2226562,-0.2109375 -0.3632812,-0.2109375 -0.1640625,0 -0.2226563,0 -0.3046875,0.070312 -0.023437,0.035156 -0.023437,0.058594 -0.1171875,0.4335937 -0.2929688,1.20703129 -0.6445313,1.50000004 -1.0195313,1.50000004 -0.1640625,0 -0.3398437,-0.0585938 -0.3398437,-0.55078125 0,-0.22265629 0.023437,-0.43359379 0.082031,-0.64453129 z m -3.7617188,8.4960938 c -0.4335937,0.50390624 -1.1484375,0.97265624 -1.8632812,0.97265624 -0.9257813,0 -1.0078125,-0.80859374 -1.0078125,-1.13671874 0,-0.7851563 0.515625,-2.625 0.75,-3.2109375 0.46875,-1.0898438 1.2070312,-1.4648438 1.8164062,-1.4648438 0.890625,0 1.2421875,0.703125 1.2421875,0.8671875 l -0.023437,0.2109375 z m 0,0"
           style="fill:#268bd2;fill-opacity:1;fill-rule:nonzero;stroke:none" />
        <path
           id="path59"
           d="m 13.29288,-5.12312 c 0,-0.3515625 -0.02344,-0.3515625 -0.410157,-0.3515625 -0.878906,0.7734375 -2.214843,0.7734375 -2.472656,0.7734375 h -0.234375 v 0.515625 h 0.234375 c 0.410156,0 1.054688,-0.070312 1.535156,-0.234375 v 6.3046875 h -1.675781 v 0.515625 C 10.773348,2.37688 12.038973,2.37688 12.601473,2.37688 c 0.5625,0 1.839844,0 2.34375,0.023437 V 1.8846925 H 13.29288 Z m 0,0"
           style="fill:#268bd2;fill-opacity:1;fill-rule:nonzero;stroke:none" />
      </g>
      <g
         id="g59"
         aria-label="d&#10;0"
         transform="matrix(1.3333333,0,0,1.3333333,589.14544,189.2052)">
        <path
           id="path60"
           d="m 8.9993184,-9.8892516 c 0.058594,-0.1992184 0.058594,-0.2343754 0.058594,-0.2460934 0,-0.199219 -0.1640625,-0.269532 -0.328125,-0.269532 -0.058594,0 -0.070312,0 -0.1054688,0.01172 l -1.9335937,0.09375 c -0.2109375,0.01172 -0.4804688,0.02344 -0.4804688,0.4453127 0,0.2695312 0.2695313,0.2695312 0.3867188,0.2695312 0.1640625,0 0.4335937,0 0.6328125,0.035156 l -0.808594,3.3164055 C 6.1985372,-6.4439391 5.6946309,-6.7837828 4.9094747,-6.7837828 c -2.6132813,0 -4.23046876,2.3789062 -4.23046876,4.4296875 0,1.83984374 1.37109376,2.47265624 2.62499996,2.47265624 1.0546875,0 1.8398438,-0.5859375 2.0859375,-0.80859375 0.5625,0.80859375 1.5585938,0.80859375 1.7226563,0.80859375 0.5507812,0 0.984375,-0.31640625 1.3007812,-0.85546875 0.375,-0.59765629 0.5742188,-1.40624999 0.5742188,-1.47656249 0,-0.2109375 -0.2226563,-0.2109375 -0.3632813,-0.2109375 -0.1640625,0 -0.2226562,0 -0.3046875,0.070312 -0.023437,0.035156 -0.023437,0.058594 -0.1171875,0.4335937 -0.2929687,1.20703129 -0.6445312,1.50000004 -1.0195312,1.50000004 -0.1640625,0 -0.3398438,-0.0585938 -0.3398438,-0.55078125 0,-0.22265629 0.023437,-0.43359379 0.082031,-0.64453129 z m -3.7617187,8.4960938 c -0.4335938,0.50390624 -1.1484375,0.97265624 -1.8632813,0.97265624 -0.9257812,0 -1.0078125,-0.80859374 -1.0078125,-1.13671874 0,-0.7851563 0.515625,-2.625 0.75,-3.2109375 0.46875,-1.0898438 1.2070313,-1.4648438 1.8164063,-1.4648438 0.890625,0 1.2421875,0.703125 1.2421875,0.8671875 l -0.023437,0.2109375 z m 0,0"
           style="fill:#268bd2;fill-opacity:1;fill-rule:nonzero;stroke:none" />
        <path
           id="path61"
           d="m 15.345022,-1.4312437 c 0,-1.1484375 0,-4.0429688 -2.824219,-4.0429688 -2.8476564,0 -2.8476564,2.8828125 -2.8476564,4.0429688 0,1.1601562 0,3.9726562 2.8359374,3.9726562 2.824219,0 2.835938,-2.77734375 2.835938,-3.9726562 z M 12.520803,2.142975 c -0.386719,0 -0.679688,-0.1523437 -0.914063,-0.3984375 C 11.302053,1.43985 11.114553,1.25235 11.114553,-1.5718687 c 0,-0.84375 0,-1.6054688 0.09375,-2.2265625 0.164062,-1.1953125 1.03125,-1.2773438 1.300781,-1.2773438 0.375,0 1.125,0.1757813 1.289063,1.1835938 0.117187,0.6210937 0.117187,1.59375 0.117187,2.3203125 0,2.8359375 -0.1875,3 -0.550781,3.3632812 -0.234375,0.234375 -0.5625,0.3515625 -0.84375,0.3515625 z m 0,0"
           style="fill:#268bd2;fill-opacity:1;fill-rule:nonzero;stroke:none" />
      </g>
      <path
         id="path62"
         d="M 0,-6.26561 -21.65948,-35.69814"
         style="fill:none;stroke:#586e75;stroke-width:0.3985;stroke-linecap:butt;stroke-linejoin:miter;stroke-miterlimit:10;stroke-dasharray:none;stroke-opacity:1"
         transform="matrix(1.3333333,0,0,-1.3333333,628.9544,122.78316)" />
      <path
         id="path63"
         d="M 0,-6.26561 21.65948,-35.69814"
         style="fill:none;stroke:#586e75;stroke-width:0.3985;stroke-linecap:butt;stroke-linejoin:miter;stroke-miterlimit:10;stroke-dasharray:none;stroke-opacity:1"
         transform="matrix(1.3333333,0,0,-1.3333333,628.9544,122.78316)" />
      <path
         id="path64"
         d="M 0,-6.26561 -78.51564,-35.69814"
         style="fill:none;stroke:#586e75;stroke-width:0.3985;stroke-linecap:butt;stroke-linejoin:miter;stroke-miterlimit:10;stroke-dasharray:none;stroke-opacity:1"
         transform="matrix(1.3333333,0,0,-1.3333333,733.644,56.358667)" />
      <path
         id="path65"
         d="M 0,-6.26561 78.51564,-35.69814"
         style="fill:none;stroke:#586e75;stroke-width:0.3985;stroke-linecap:butt;stroke-linejoin:miter;stroke-miterlimit:10;stroke-dasharray:none;stroke-opacity:1"
         transform="matrix(1.3333333,0,0,-1.3333333,733.644,56.358667)" />
    </g>
  </g>
</svg>
