<?xml version="1.0" encoding="UTF-8" standalone="no"?>
<!-- Created with Inkscape (http://www.inkscape.org/) -->

<svg
   version="1.1"
   id="svg1"
   width="516.81232"
   height="213.27734"
   viewBox="0 0 516.81232 213.27734"
   sodipodi:docname="fibo.svg"
   inkscape:version="1.4.2 (ebf0e940d0, 2025-05-08)"
   xmlns:inkscape="http://www.inkscape.org/namespaces/inkscape"
   xmlns:sodipodi="http://sodipodi.sourceforge.net/DTD/sodipodi-0.dtd"
   xmlns="http://www.w3.org/2000/svg"
   xmlns:svg="http://www.w3.org/2000/svg">
  <defs
     id="defs1" />
  <sodipodi:namedview
     id="namedview1"
     pagecolor="#ffffff"
     bordercolor="#666666"
     borderopacity="1.0"
     inkscape:showpageshadow="2"
     inkscape:pageopacity="0.0"
     inkscape:pagecheckerboard="0"
     inkscape:deskcolor="#d1d1d1"
     inkscape:zoom="1.28"
     inkscape:cx="314.45313"
     inkscape:cy="548.04688"
     inkscape:window-width="3840"
     inkscape:window-height="2346"
     inkscape:window-x="0"
     inkscape:window-y="54"
     inkscape:window-maximized="1"
     inkscape:current-layer="g1">
    <inkscape:page
       x="0"
       y="0"
       inkscape:label="1"
       id="page1"
       width="516.81232"
       height="213.27734"
       margin="0"
       bleed="0" />
  </sodipodi:namedview>
  <g
     id="g1"
     inkscape:groupmode="layer"
     inkscape:label="1"
     transform="translate(-129.17595,-100.66797)">
    <g
       id="g107">
      <path
         id="path2"
         d="m 432.70703,106.62109 h 1.35938 c 1.0625,0 1.17187,0.21875 1.17187,0.625 0,0.0937 0,0.26563 -0.10937,0.6875 -0.0156,0.0781 -0.0312,0.125 -0.0312,0.15625 0,0.10938 0.0781,0.17188 0.17187,0.17188 0.14063,0 0.14063,-0.0469 0.20313,-0.29688 l 0.76562,-3.04687 c 0.0469,-0.14063 0.0469,-0.17188 0.0469,-0.21875 0,-0.0312 -0.0312,-0.15625 -0.17188,-0.15625 -0.14062,0 -0.15625,0.0781 -0.20312,0.29687 -0.29688,1.09375 -0.625,1.34375 -1.8125,1.34375 h -1.26563 l 0.89063,-3.5625 c 0.125,-0.48437 0.14062,-0.54687 0.75,-0.54687 h 1.85937 c 1.71875,0 2.03125,0.46875 2.03125,1.54687 0,0.32813 0,0.375 -0.0312,0.75 -0.0312,0.1875 -0.0312,0.21875 -0.0312,0.26563 0,0.0625 0.0469,0.15625 0.17188,0.15625 0.15625,0 0.15625,-0.0781 0.1875,-0.34375 l 0.28125,-2.42188 c 0.0469,-0.375 -0.0312,-0.375 -0.375,-0.375 h -6.85938 c -0.28125,0 -0.42187,0 -0.42187,0.28125 0,0.14063 0.125,0.14063 0.39062,0.14063 0.51563,0 0.90625,0 0.90625,0.26562 0,0.0469 0,0.0781 -0.0625,0.32813 l -1.84375,7.40625 c -0.14062,0.54687 -0.17187,0.65625 -1.28125,0.65625 -0.23437,0 -0.39062,0 -0.39062,0.26562 0,0.17188 0.17187,0.17188 0.20312,0.17188 0.40625,0 1.45313,-0.0469 1.85938,-0.0469 0.45312,0 1.625,0.0469 2.07812,0.0469 0.125,0 0.29688,0 0.29688,-0.26563 0,-0.10937 -0.0781,-0.14062 -0.0781,-0.15625 -0.0469,-0.0156 -0.0781,-0.0156 -0.39062,-0.0156 -0.3125,0 -0.39063,0 -0.73438,-0.0312 -0.40625,-0.0312 -0.45312,-0.0937 -0.45312,-0.26563 0,-0.0312 0,-0.125 0.0625,-0.32812 z m 0,0"
         style="fill:#d33682;fill-opacity:1;fill-rule:nonzero;stroke:none;stroke-width:1.33333" />
      <path
         id="path3"
         d="m 444.05859,114.52734 c 0,-0.0469 0,-0.0625 -0.25,-0.3125 -1.75,-1.76562 -2.1875,-4.40625 -2.1875,-6.54687 0,-2.4375 0.53125,-4.875 2.25,-6.625 0.1875,-0.17188 0.1875,-0.1875 0.1875,-0.23438 0,-0.0937 -0.0625,-0.14062 -0.14062,-0.14062 -0.14063,0 -1.40625,0.95312 -2.23438,2.73437 -0.71875,1.53125 -0.875,3.09375 -0.875,4.26563 0,1.09375 0.15625,2.78125 0.92188,4.375 0.84375,1.71875 2.04687,2.625 2.1875,2.625 0.0781,0 0.14062,-0.0469 0.14062,-0.14063 z m 2.63672,-7.95312 v -0.32813 c 0,-3.54687 1.73438,-4.04687 2.45313,-4.04687 0.34375,0 0.92187,0.0781 1.23437,0.5625 -0.21875,0 -0.76562,0 -0.76562,0.625 0,0.4375 0.32812,0.64062 0.64062,0.64062 0.21875,0 0.64063,-0.125 0.64063,-0.67187 0,-0.84375 -0.60938,-1.51563 -1.78125,-1.51563 -1.78125,0 -3.67188,1.8125 -3.67188,4.90625 0,3.73438 1.625,4.73438 2.92188,4.73438 1.54687,0 2.875,-1.32813 2.875,-3.17188 0,-1.78125 -1.23438,-3.125 -2.79688,-3.125 -0.95312,0 -1.46875,0.71875 -1.75,1.39063 z m 1.67188,4.51562 c -0.89063,0 -1.29688,-0.84375 -1.39063,-1.0625 -0.25,-0.65625 -0.25,-1.76562 -0.25,-2.01562 0,-1.09375 0.45313,-2.5 1.70313,-2.5 0.23437,0 0.875,0 1.3125,0.875 0.25,0.51562 0.25,1.21875 0.25,1.90625 0,0.67187 0,1.375 -0.23438,1.875 -0.42187,0.84375 -1.0625,0.92187 -1.39062,0.92187 z m 7.53125,-3.42187 c 0,-1.09375 -0.15625,-2.78125 -0.92188,-4.375 -0.84375,-1.71875 -2.04687,-2.625 -2.1875,-2.625 -0.0781,0 -0.14062,0.0625 -0.14062,0.14062 0,0.0469 0,0.0625 0.26562,0.32813 1.375,1.375 2.17188,3.60937 2.17188,6.53125 0,2.39062 -0.51563,4.85937 -2.25,6.625 -0.1875,0.17187 -0.1875,0.1875 -0.1875,0.23437 0,0.0781 0.0625,0.14063 0.14062,0.14063 0.14063,0 1.40625,-0.95313 2.21875,-2.73438 0.71875,-1.53125 0.89063,-3.09375 0.89063,-4.26562 z m 0,0"
         style="fill:#d33682;fill-opacity:1;fill-rule:nonzero;stroke:none;stroke-width:1.33333" />
      <path
         id="path4"
         d="m 556.45703,146.48047 h 1.35938 c 1.0625,0 1.17187,0.21875 1.17187,0.625 0,0.0937 0,0.26563 -0.10937,0.6875 -0.0156,0.0781 -0.0312,0.125 -0.0312,0.15625 0,0.10938 0.0781,0.17188 0.17188,0.17188 0.14062,0 0.14062,-0.0469 0.20312,-0.29688 l 0.76563,-3.04687 c 0.0469,-0.14063 0.0469,-0.17188 0.0469,-0.21875 0,-0.0312 -0.0312,-0.15625 -0.17188,-0.15625 -0.14062,0 -0.15625,0.0781 -0.20312,0.29687 -0.29688,1.09375 -0.625,1.34375 -1.8125,1.34375 h -1.26563 l 0.89063,-3.5625 c 0.125,-0.48437 0.14062,-0.54687 0.75,-0.54687 h 1.85937 c 1.71875,0 2.03125,0.46875 2.03125,1.54687 0,0.32813 0,0.375 -0.0312,0.75 -0.0312,0.1875 -0.0312,0.21875 -0.0312,0.26563 0,0.0625 0.0469,0.15625 0.17187,0.15625 0.15625,0 0.15625,-0.0781 0.1875,-0.34375 l 0.28125,-2.42188 c 0.0469,-0.375 -0.0312,-0.375 -0.375,-0.375 h -6.85938 c -0.28125,0 -0.42187,0 -0.42187,0.28125 0,0.14063 0.125,0.14063 0.39062,0.14063 0.51563,0 0.90625,0 0.90625,0.26562 0,0.0469 0,0.0781 -0.0625,0.32813 l -1.84375,7.40625 c -0.14062,0.54687 -0.17187,0.65625 -1.28125,0.65625 -0.23437,0 -0.39062,0 -0.39062,0.26562 0,0.17188 0.17187,0.17188 0.20312,0.17188 0.40625,0 1.45313,-0.0469 1.85938,-0.0469 0.45312,0 1.625,0.0469 2.07812,0.0469 0.125,0 0.29688,0 0.29688,-0.26563 0,-0.10937 -0.0781,-0.14062 -0.0781,-0.15625 -0.0469,-0.0156 -0.0781,-0.0156 -0.39062,-0.0156 -0.3125,0 -0.39063,0 -0.73438,-0.0312 -0.40625,-0.0312 -0.45312,-0.0937 -0.45312,-0.26563 0,-0.0312 0,-0.125 0.0625,-0.32812 z m 0,0"
         style="fill:#d33682;fill-opacity:1;fill-rule:nonzero;stroke:none;stroke-width:1.33333" />
      <path
         id="path5"
         d="m 567.8086,154.38282 c 0,-0.0469 0,-0.0625 -0.25,-0.3125 -1.75,-1.76563 -2.1875,-4.40625 -2.1875,-6.54688 0,-2.4375 0.53125,-4.875 2.25,-6.625 0.1875,-0.17187 0.1875,-0.1875 0.1875,-0.23437 0,-0.0937 -0.0625,-0.14063 -0.14063,-0.14063 -0.14062,0 -1.40625,0.95313 -2.23437,2.73438 -0.71875,1.53125 -0.875,3.09375 -0.875,4.26562 0,1.09375 0.15625,2.78125 0.92187,4.375 0.84375,1.71875 2.04688,2.625 2.1875,2.625 0.0781,0 0.14063,-0.0469 0.14063,-0.14062 z m 4.90234,-5.67188 v 1.21875 c 0,0.5 -0.0156,0.65625 -1.0625,0.65625 h -0.28125 v 0.4375 c 0.5625,-0.0469 1.29688,-0.0469 1.875,-0.0469 0.59375,0 1.34375,0 1.90625,0.0469 v -0.4375 h -0.28125 c -1.04688,0 -1.07812,-0.15625 -1.07812,-0.65625 v -1.21875 h 1.40624 v -0.4375 h -1.40624 v -6.35937 c 0,-0.28125 0,-0.375 -0.21876,-0.375 -0.125,0 -0.17187,0 -0.28124,0.17187 l -4.29688,6.5625 v 0.4375 z m 0.0937,-0.4375 h -3.42188 l 3.42188,-5.21875 z m 6.84375,-0.75 c 0,-1.09375 -0.15625,-2.78125 -0.92188,-4.375 -0.84375,-1.71875 -2.04687,-2.625 -2.1875,-2.625 -0.0781,0 -0.14062,0.0625 -0.14062,0.14063 0,0.0469 0,0.0625 0.26562,0.32812 1.375,1.375 2.17188,3.60938 2.17188,6.53125 0,2.39063 -0.51563,4.85938 -2.25,6.625 -0.1875,0.17188 -0.1875,0.1875 -0.1875,0.23438 0,0.0781 0.0625,0.14062 0.14062,0.14062 0.14063,0 1.40625,-0.95312 2.21875,-2.73437 0.71875,-1.53125 0.89063,-3.09375 0.89063,-4.26563 z m 0,0"
         style="fill:#d33682;fill-opacity:1;fill-rule:nonzero;stroke:none;stroke-width:1.33333" />
      <path
         id="path6"
         d="m 602.38281,186.33203 h 1.35937 c 1.0625,0 1.17188,0.21875 1.17188,0.625 0,0.0937 0,0.26563 -0.10938,0.6875 -0.0156,0.0781 -0.0312,0.125 -0.0312,0.15625 0,0.10938 0.0781,0.17188 0.17187,0.17188 0.14063,0 0.14063,-0.0469 0.20313,-0.29688 l 0.76562,-3.04687 c 0.0469,-0.14063 0.0469,-0.17188 0.0469,-0.21875 0,-0.0312 -0.0312,-0.15625 -0.17187,-0.15625 -0.14063,0 -0.15625,0.0781 -0.20313,0.29687 -0.29687,1.09375 -0.625,1.34375 -1.8125,1.34375 h -1.26562 l 0.89062,-3.5625 c 0.125,-0.48437 0.14063,-0.54687 0.75,-0.54687 h 1.85938 c 1.71875,0 2.03125,0.46875 2.03125,1.54687 0,0.32813 0,0.375 -0.0312,0.75 -0.0312,0.1875 -0.0312,0.21875 -0.0312,0.26563 0,0.0625 0.0469,0.15625 0.17188,0.15625 0.15625,0 0.15625,-0.0781 0.1875,-0.34375 l 0.28125,-2.42188 c 0.0469,-0.375 -0.0312,-0.375 -0.375,-0.375 h -6.85938 c -0.28125,0 -0.42188,0 -0.42188,0.28125 0,0.14063 0.125,0.14063 0.39063,0.14063 0.51562,0 0.90625,0 0.90625,0.26562 0,0.0469 0,0.0781 -0.0625,0.32813 l -1.84375,7.40625 c -0.14063,0.54687 -0.17188,0.65625 -1.28125,0.65625 -0.23438,0 -0.39063,0 -0.39063,0.26562 0,0.17188 0.17188,0.17188 0.20313,0.17188 0.40625,0 1.45312,-0.0469 1.85937,-0.0469 0.45313,0 1.625,0.0469 2.07813,0.0469 0.125,0 0.29687,0 0.29687,-0.26563 0,-0.10937 -0.0781,-0.14062 -0.0781,-0.15625 -0.0469,-0.0156 -0.0781,-0.0156 -0.39063,-0.0156 -0.3125,0 -0.39062,0 -0.73437,-0.0312 -0.40625,-0.0312 -0.45313,-0.0937 -0.45313,-0.26563 0,-0.0312 0,-0.125 0.0625,-0.32812 z m 0,0"
         style="fill:#d33682;fill-opacity:1;fill-rule:nonzero;stroke:none;stroke-width:1.33333" />
      <path
         id="path7"
         d="m 613.73828,194.23828 c 0,-0.0469 0,-0.0625 -0.25,-0.3125 -1.75,-1.76562 -2.1875,-4.40625 -2.1875,-6.54687 0,-2.4375 0.53125,-4.875 2.25,-6.625 0.1875,-0.17188 0.1875,-0.1875 0.1875,-0.23438 0,-0.0937 -0.0625,-0.14062 -0.14063,-0.14062 -0.14062,0 -1.40625,0.95312 -2.23437,2.73437 -0.71875,1.53125 -0.875,3.09375 -0.875,4.26563 0,1.09375 0.15625,2.78125 0.92187,4.375 0.84375,1.71875 2.04688,2.625 2.1875,2.625 0.0781,0 0.14063,-0.0469 0.14063,-0.14063 z m 2.57422,-4.4375 1.48437,-1.4375 c 2.1875,-1.9375 3.01563,-2.6875 3.01563,-4.09375 0,-1.59375 -1.25,-2.71875 -2.96875,-2.71875 -1.57813,0 -2.60938,1.29688 -2.60938,2.53125 0,0.79688 0.70313,0.79688 0.73438,0.79688 0.25,0 0.73437,-0.17188 0.73437,-0.75 0,-0.35938 -0.25,-0.71875 -0.75,-0.71875 -0.10937,0 -0.14062,0 -0.17187,0 0.3125,-0.90625 1.07812,-1.42188 1.89062,-1.42188 1.26563,0 1.875,1.14063 1.875,2.28125 0,1.125 -0.70312,2.23438 -1.46875,3.09375 l -2.6875,3 c -0.15625,0.15625 -0.15625,0.17188 -0.15625,0.51563 h 5.1875 l 0.39063,-2.4375 h -0.34375 c -0.0781,0.42187 -0.17188,1.03125 -0.3125,1.25 -0.0937,0.10937 -1.01563,0.10937 -1.32813,0.10937 z m 9.26562,-2.42187 c 0,-1.09375 -0.15625,-2.78125 -0.92187,-4.375 -0.84375,-1.71875 -2.04688,-2.625 -2.1875,-2.625 -0.0781,0 -0.14063,0.0625 -0.14063,0.14062 0,0.0469 0,0.0625 0.26563,0.32813 1.375,1.375 2.17187,3.60937 2.17187,6.53125 0,2.39062 -0.51562,4.85937 -2.25,6.625 -0.1875,0.17187 -0.1875,0.1875 -0.1875,0.23437 0,0.0781 0.0625,0.14063 0.14063,0.14063 0.14062,0 1.40625,-0.95313 2.21875,-2.73438 0.71875,-1.53125 0.89062,-3.09375 0.89062,-4.26562 z m 0,0"
         style="fill:#d33682;fill-opacity:1;fill-rule:nonzero;stroke:none;stroke-width:1.33333" />
      <path
         id="path8"
         d="m 622.79688,226.18359 h 1.35937 c 1.0625,0 1.17188,0.21875 1.17188,0.625 0,0.0937 0,0.26563 -0.10938,0.6875 -0.0156,0.0781 -0.0312,0.125 -0.0312,0.15625 0,0.10938 0.0781,0.17188 0.17188,0.17188 0.14062,0 0.14062,-0.0469 0.20312,-0.29688 l 0.76563,-3.04687 c 0.0469,-0.14063 0.0469,-0.17188 0.0469,-0.21875 0,-0.0312 -0.0312,-0.15625 -0.17187,-0.15625 -0.14063,0 -0.15625,0.0781 -0.20313,0.29687 -0.29687,1.09375 -0.625,1.34375 -1.8125,1.34375 h -1.26562 l 0.89062,-3.5625 c 0.125,-0.48437 0.14063,-0.54687 0.75,-0.54687 h 1.85938 c 1.71875,0 2.03125,0.46875 2.03125,1.54687 0,0.32813 0,0.375 -0.0312,0.75 -0.0312,0.1875 -0.0312,0.21875 -0.0312,0.26563 0,0.0625 0.0469,0.15625 0.17187,0.15625 0.15625,0 0.15625,-0.0781 0.1875,-0.34375 l 0.28125,-2.42188 c 0.0469,-0.375 -0.0312,-0.375 -0.375,-0.375 h -6.85937 c -0.28125,0 -0.42188,0 -0.42188,0.28125 0,0.14063 0.125,0.14063 0.39063,0.14063 0.51562,0 0.90625,0 0.90625,0.26562 0,0.0469 0,0.0781 -0.0625,0.32813 l -1.84375,7.40625 c -0.14063,0.54687 -0.17188,0.65625 -1.28125,0.65625 -0.23438,0 -0.39063,0 -0.39063,0.26562 0,0.17188 0.17188,0.17188 0.20313,0.17188 0.40625,0 1.45312,-0.0469 1.85937,-0.0469 0.45313,0 1.625,0.0469 2.07813,0.0469 0.125,0 0.29687,0 0.29687,-0.26563 0,-0.10937 -0.0781,-0.14062 -0.0781,-0.15625 -0.0469,-0.0156 -0.0781,-0.0156 -0.39063,-0.0156 -0.3125,0 -0.39062,0 -0.73437,-0.0312 -0.40625,-0.0312 -0.45313,-0.0937 -0.45313,-0.26563 0,-0.0312 0,-0.125 0.0625,-0.32812 z m 0,0"
         style="fill:#dc322f;fill-opacity:1;fill-rule:nonzero;stroke:none;stroke-width:1.33333" />
      <path
         id="path9"
         d="m 634.14844,234.08984 c 0,-0.0469 0,-0.0625 -0.25,-0.3125 -1.75,-1.76562 -2.1875,-4.40625 -2.1875,-6.54687 0,-2.4375 0.53125,-4.875 2.25,-6.625 0.1875,-0.17188 0.1875,-0.1875 0.1875,-0.23438 0,-0.0937 -0.0625,-0.14062 -0.14063,-0.14062 -0.14062,0 -1.40624,0.95312 -2.23437,2.73437 -0.71875,1.53125 -0.875,3.09375 -0.875,4.26563 0,1.09375 0.15625,2.78125 0.92188,4.375 0.84375,1.71875 2.04687,2.625 2.18749,2.625 0.0781,0 0.14063,-0.0469 0.14063,-0.14063 z m 7.23047,-7.84375 c 0,-1.10937 -0.0625,-2.23437 -0.5625,-3.26562 -0.64063,-1.34375 -1.78125,-1.57813 -2.375,-1.57813 -0.84375,0 -1.85938,0.375 -2.4375,1.67188 -0.45313,0.96875 -0.51563,2.0625 -0.51563,3.17187 0,1.04688 0.0625,2.3125 0.625,3.375 0.60938,1.14063 1.625,1.42188 2.3125,1.42188 0.75,0 1.82813,-0.29688 2.4375,-1.625 0.45313,-0.96875 0.51563,-2.0625 0.51563,-3.17188 z m -2.95313,4.48438 c -0.54687,0 -1.375,-0.34375 -1.625,-1.6875 -0.15625,-0.84375 -0.15625,-2.14063 -0.15625,-2.95313 0,-0.90625 0,-1.82812 0.10938,-2.57812 0.28125,-1.67188 1.32812,-1.79688 1.67187,-1.79688 0.46875,0 1.39063,0.25 1.65625,1.64063 0.14063,0.78125 0.14063,1.84375 0.14063,2.73437 0,1.04688 0,2 -0.15625,2.89063 -0.21875,1.32812 -1.01563,1.75 -1.64063,1.75 z m 7.5625,-3.5 c 0,-1.09375 -0.15625,-2.78125 -0.92187,-4.375 -0.84375,-1.71875 -2.04688,-2.625 -2.1875,-2.625 -0.0781,0 -0.14063,0.0625 -0.14063,0.14062 0,0.0469 0,0.0625 0.26563,0.32813 1.375,1.375 2.17187,3.60937 2.17187,6.53125 0,2.39062 -0.51562,4.85937 -2.25,6.625 -0.1875,0.17187 -0.1875,0.1875 -0.1875,0.23437 0,0.0781 0.0625,0.14063 0.14063,0.14063 0.14062,0 1.40625,-0.95313 2.21875,-2.73438 0.71875,-1.53125 0.89062,-3.09375 0.89062,-4.26562 z m 0,0"
         style="fill:#dc322f;fill-opacity:1;fill-rule:nonzero;stroke:none;stroke-width:1.33333" />
      <path
         id="path10"
         d="m 581.97266,226.1836 h 1.35937 c 1.0625,0 1.17188,0.21875 1.17188,0.625 0,0.0937 0,0.26562 -0.10938,0.6875 -0.0156,0.0781 -0.0312,0.125 -0.0312,0.15625 0,0.10937 0.0781,0.17187 0.17188,0.17187 0.14062,0 0.14062,-0.0469 0.20312,-0.29687 l 0.76563,-3.04688 c 0.0469,-0.14062 0.0469,-0.17187 0.0469,-0.21875 0,-0.0312 -0.0312,-0.15625 -0.17187,-0.15625 -0.14063,0 -0.15625,0.0781 -0.20313,0.29688 -0.29687,1.09375 -0.625,1.34375 -1.8125,1.34375 h -1.26562 l 0.89062,-3.5625 c 0.125,-0.48438 0.14063,-0.54688 0.75,-0.54688 h 1.85938 c 1.71875,0 2.03125,0.46875 2.03125,1.54688 0,0.32812 0,0.375 -0.0312,0.75 -0.0312,0.1875 -0.0312,0.21875 -0.0312,0.26562 0,0.0625 0.0469,0.15625 0.17187,0.15625 0.15625,0 0.15625,-0.0781 0.1875,-0.34375 l 0.28125,-2.42187 c 0.0469,-0.375 -0.0312,-0.375 -0.375,-0.375 h -6.85937 c -0.28125,0 -0.42188,0 -0.42188,0.28125 0,0.14062 0.125,0.14062 0.39063,0.14062 0.51562,0 0.90625,0 0.90625,0.26563 0,0.0469 0,0.0781 -0.0625,0.32812 l -1.84375,7.40625 c -0.14063,0.54688 -0.17188,0.65625 -1.28125,0.65625 -0.23438,0 -0.39063,0 -0.39063,0.26563 0,0.17187 0.17188,0.17187 0.20313,0.17187 0.40625,0 1.45312,-0.0469 1.85937,-0.0469 0.45313,0 1.625,0.0469 2.07813,0.0469 0.125,0 0.29687,0 0.29687,-0.26562 0,-0.10938 -0.0781,-0.14063 -0.0781,-0.15625 -0.0469,-0.0156 -0.0781,-0.0156 -0.39063,-0.0156 -0.3125,0 -0.39062,0 -0.73437,-0.0312 -0.40625,-0.0312 -0.45313,-0.0937 -0.45313,-0.26562 0,-0.0312 0,-0.125 0.0625,-0.32813 z m 0,0"
         style="fill:#dc322f;fill-opacity:1;fill-rule:nonzero;stroke:none;stroke-width:1.33333" />
      <path
         id="path11"
         d="m 593.32422,234.08985 c 0,-0.0469 0,-0.0625 -0.25,-0.3125 -1.75,-1.76563 -2.1875,-4.40625 -2.1875,-6.54688 0,-2.4375 0.53125,-4.875 2.25,-6.625 0.1875,-0.17187 0.1875,-0.1875 0.1875,-0.23437 0,-0.0937 -0.0625,-0.14063 -0.14063,-0.14063 -0.14062,0 -1.40625,0.95313 -2.23437,2.73438 -0.71875,1.53125 -0.875,3.09375 -0.875,4.26562 0,1.09375 0.15625,2.78125 0.92187,4.375 0.84375,1.71875 2.04688,2.625 2.1875,2.625 0.0781,0 0.14063,-0.0469 0.14063,-0.14062 z m 4.90234,-12.3125 c 0,-0.34375 0,-0.375 -0.3125,-0.375 -0.875,0.90625 -2.10937,0.90625 -2.54687,0.90625 v 0.42187 c 0.28125,0 1.10937,0 1.82812,-0.35937 v 7.25 c 0,0.5 -0.0469,0.67187 -1.29687,0.67187 h -0.45313 v 0.4375 c 0.48438,-0.0469 1.70313,-0.0469 2.26563,-0.0469 0.5625,0 1.78125,0 2.26562,0.0469 v -0.4375 h -0.4375 c -1.26562,0 -1.3125,-0.15625 -1.3125,-0.67187 z m 6.9375,5.45312 c 0,-1.09375 -0.15625,-2.78125 -0.92187,-4.375 -0.84375,-1.71875 -2.04688,-2.625 -2.1875,-2.625 -0.0781,0 -0.14063,0.0625 -0.14063,0.14063 0,0.0469 0,0.0625 0.26563,0.32812 1.375,1.375 2.17187,3.60938 2.17187,6.53125 0,2.39063 -0.51562,4.85938 -2.25,6.625 -0.1875,0.17188 -0.1875,0.1875 -0.1875,0.23438 0,0.0781 0.0625,0.14062 0.14063,0.14062 0.14062,0 1.40625,-0.95312 2.21875,-2.73437 0.71875,-1.53125 0.89062,-3.09375 0.89062,-4.26563 z m 0,0"
         style="fill:#dc322f;fill-opacity:1;fill-rule:nonzero;stroke:none;stroke-width:1.33333" />
      <path
         id="path12"
         d="M 0,-6.32394 -15.30962,-18.31429"
         style="fill:none;stroke:#586e75;stroke-width:0.3985;stroke-linecap:butt;stroke-linejoin:miter;stroke-miterlimit:10;stroke-dasharray:none;stroke-opacity:1"
         transform="matrix(1.3333333,0,0,-1.3333333,612.568,190.88)" />
      <path
         id="path13"
         d="M 0,-6.32394 15.30962,-18.31429"
         style="fill:none;stroke:#586e75;stroke-width:0.3985;stroke-linecap:butt;stroke-linejoin:miter;stroke-miterlimit:10;stroke-dasharray:none;stroke-opacity:1"
         transform="matrix(1.3333333,0,0,-1.3333333,612.568,190.88)" />
      <path
         id="path14"
         d="m 510.52734,186.33593 h 1.35938 c 1.0625,0 1.17187,0.21875 1.17187,0.625 0,0.0937 0,0.26563 -0.10937,0.6875 -0.0156,0.0781 -0.0312,0.125 -0.0312,0.15625 0,0.10938 0.0781,0.17188 0.17187,0.17188 0.14063,0 0.14063,-0.0469 0.20313,-0.29688 l 0.76562,-3.04687 c 0.0469,-0.14063 0.0469,-0.17188 0.0469,-0.21875 0,-0.0312 -0.0312,-0.15625 -0.17188,-0.15625 -0.14062,0 -0.15625,0.0781 -0.20312,0.29687 -0.29688,1.09375 -0.625,1.34375 -1.8125,1.34375 h -1.26563 l 0.89063,-3.5625 c 0.125,-0.48437 0.14062,-0.54687 0.75,-0.54687 h 1.85937 c 1.71875,0 2.03125,0.46875 2.03125,1.54687 0,0.32813 0,0.375 -0.0312,0.75 -0.0312,0.1875 -0.0312,0.21875 -0.0312,0.26563 0,0.0625 0.0469,0.15625 0.17188,0.15625 0.15625,0 0.15625,-0.0781 0.1875,-0.34375 l 0.28125,-2.42188 c 0.0469,-0.375 -0.0312,-0.375 -0.375,-0.375 h -6.85938 c -0.28125,0 -0.42187,0 -0.42187,0.28125 0,0.14063 0.125,0.14063 0.39062,0.14063 0.51563,0 0.90625,0 0.90625,0.26562 0,0.0469 0,0.0781 -0.0625,0.32813 l -1.84375,7.40625 c -0.14062,0.54687 -0.17187,0.65625 -1.28125,0.65625 -0.23437,0 -0.39062,0 -0.39062,0.26562 0,0.17188 0.17187,0.17188 0.20312,0.17188 0.40625,0 1.45313,-0.0469 1.85938,-0.0469 0.45312,0 1.625,0.0469 2.07812,0.0469 0.125,0 0.29688,0 0.29688,-0.26563 0,-0.10937 -0.0781,-0.14062 -0.0781,-0.15625 -0.0469,-0.0156 -0.0781,-0.0156 -0.39062,-0.0156 -0.3125,0 -0.39063,0 -0.73438,-0.0312 -0.40625,-0.0312 -0.45312,-0.0937 -0.45312,-0.26563 0,-0.0312 0,-0.125 0.0625,-0.32812 z m 0,0"
         style="fill:#d33682;fill-opacity:1;fill-rule:nonzero;stroke:none;stroke-width:1.33333" />
      <path
         id="path15"
         d="m 521.87891,194.24218 c 0,-0.0469 0,-0.0625 -0.25,-0.3125 -1.75,-1.76562 -2.1875,-4.40625 -2.1875,-6.54687 0,-2.4375 0.53125,-4.875 2.25,-6.625 0.1875,-0.17188 0.1875,-0.1875 0.1875,-0.23438 0,-0.0937 -0.0625,-0.14062 -0.14063,-0.14062 -0.14062,0 -1.40625,0.95312 -2.23437,2.73437 -0.71875,1.53125 -0.875,3.09375 -0.875,4.26563 0,1.09375 0.15625,2.78125 0.92187,4.375 0.84375,1.71875 2.04688,2.625 2.1875,2.625 0.0781,0 0.14063,-0.0469 0.14063,-0.14063 z m 4.85546,-8.28125 c 1.14063,-0.39062 1.95313,-1.35937 1.95313,-2.46875 0,-1.15625 -1.23438,-1.9375 -2.57813,-1.9375 -1.40625,0 -2.46875,0.84375 -2.46875,1.90625 0,0.46875 0.3125,0.73438 0.71875,0.73438 0.42188,0 0.70313,-0.3125 0.70313,-0.71875 0,-0.70313 -0.65625,-0.70313 -0.85938,-0.70313 0.42188,-0.6875 1.35938,-0.85937 1.85938,-0.85937 0.57812,0 1.34375,0.29687 1.34375,1.5625 0,0.17187 -0.0312,0.98437 -0.39063,1.59375 -0.42187,0.67187 -0.90625,0.71875 -1.25,0.73437 -0.10937,0.0156 -0.45312,0.0312 -0.54687,0.0312 -0.10937,0.0156 -0.20313,0.0312 -0.20313,0.17188 0,0.15625 0.0937,0.15625 0.32813,0.15625 h 0.625 c 1.14062,0 1.65625,0.95312 1.65625,2.32812 0,1.90625 -0.96875,2.3125 -1.57813,2.3125 -0.60937,0 -1.65625,-0.25 -2.14062,-1.0625 0.48437,0.0625 0.92187,-0.25 0.92187,-0.78125 0,-0.5 -0.375,-0.78125 -0.78125,-0.78125 -0.34375,0 -0.78125,0.20313 -0.78125,0.8125 0,1.28125 1.29688,2.20313 2.82813,2.20313 1.70312,0 2.96875,-1.28125 2.96875,-2.70313 0,-1.15625 -0.875,-2.25 -2.32813,-2.53125 z m 6.98438,1.42188 c 0,-1.09375 -0.15625,-2.78125 -0.92188,-4.375 -0.84375,-1.71875 -2.04687,-2.625 -2.1875,-2.625 -0.0781,0 -0.14062,0.0625 -0.14062,0.14062 0,0.0469 0,0.0625 0.26562,0.32813 1.375,1.375 2.17188,3.60937 2.17188,6.53125 0,2.39062 -0.51563,4.85937 -2.25,6.625 -0.1875,0.17187 -0.1875,0.1875 -0.1875,0.23437 0,0.0781 0.0625,0.14063 0.14062,0.14063 0.14063,0 1.40625,-0.95313 2.21875,-2.73438 0.71875,-1.53125 0.89063,-3.09375 0.89063,-4.26562 z m 0,0"
         style="fill:#d33682;fill-opacity:1;fill-rule:nonzero;stroke:none;stroke-width:1.33333" />
      <path
         id="path16"
         d="m 541.14453,226.1875 h 1.35938 c 1.0625,0 1.17187,0.21875 1.17187,0.625 0,0.0937 0,0.26563 -0.10937,0.6875 -0.0156,0.0781 -0.0312,0.125 -0.0312,0.15625 0,0.10938 0.0781,0.17188 0.17187,0.17188 0.14063,0 0.14063,-0.0469 0.20313,-0.29688 l 0.76562,-3.04687 c 0.0469,-0.14063 0.0469,-0.17188 0.0469,-0.21875 0,-0.0312 -0.0312,-0.15625 -0.17188,-0.15625 -0.14062,0 -0.15625,0.0781 -0.20312,0.29687 -0.29688,1.09375 -0.625,1.34375 -1.8125,1.34375 h -1.26563 l 0.89063,-3.5625 c 0.125,-0.48437 0.14062,-0.54687 0.75,-0.54687 h 1.85937 c 1.71875,0 2.03125,0.46875 2.03125,1.54687 0,0.32813 0,0.375 -0.0312,0.75 -0.0312,0.1875 -0.0312,0.21875 -0.0312,0.26563 0,0.0625 0.0469,0.15625 0.17188,0.15625 0.15625,0 0.15625,-0.0781 0.1875,-0.34375 l 0.28125,-2.42188 c 0.0469,-0.375 -0.0312,-0.375 -0.375,-0.375 h -6.85938 c -0.28125,0 -0.42187,0 -0.42187,0.28125 0,0.14063 0.125,0.14063 0.39062,0.14063 0.51563,0 0.90625,0 0.90625,0.26562 0,0.0469 0,0.0781 -0.0625,0.32813 l -1.84375,7.40625 c -0.14062,0.54687 -0.17187,0.65625 -1.28125,0.65625 -0.23437,0 -0.39062,0 -0.39062,0.26562 0,0.17188 0.17187,0.17188 0.20312,0.17188 0.40625,0 1.45313,-0.0469 1.85938,-0.0469 0.45312,0 1.625,0.0469 2.07812,0.0469 0.125,0 0.29688,0 0.29688,-0.26563 0,-0.10937 -0.0781,-0.14062 -0.0781,-0.15625 -0.0469,-0.0156 -0.0781,-0.0156 -0.39062,-0.0156 -0.3125,0 -0.39063,0 -0.73438,-0.0312 -0.40625,-0.0312 -0.45312,-0.0937 -0.45312,-0.26563 0,-0.0312 0,-0.125 0.0625,-0.32812 z m 0,0"
         style="fill:#dc322f;fill-opacity:1;fill-rule:nonzero;stroke:none;stroke-width:1.33333" />
      <path
         id="path17"
         d="m 552.5,234.09375 c 0,-0.0469 0,-0.0625 -0.25,-0.3125 -1.75,-1.76562 -2.1875,-4.40625 -2.1875,-6.54687 0,-2.4375 0.53125,-4.875 2.25,-6.625 0.1875,-0.17188 0.1875,-0.1875 0.1875,-0.23438 0,-0.0937 -0.0625,-0.14062 -0.14063,-0.14062 -0.14062,0 -1.40625,0.95312 -2.23437,2.73437 -0.71875,1.53125 -0.875,3.09375 -0.875,4.26563 0,1.09375 0.15625,2.78125 0.92187,4.375 0.84375,1.71875 2.04688,2.625 2.1875,2.625 0.0781,0 0.14063,-0.0469 0.14063,-0.14063 z m 4.90234,-12.3125 c 0,-0.34375 0,-0.375 -0.3125,-0.375 -0.875,0.90625 -2.10937,0.90625 -2.54687,0.90625 v 0.42188 c 0.28125,0 1.10937,0 1.82812,-0.35938 v 7.25 c 0,0.5 -0.0469,0.67188 -1.29687,0.67188 h -0.45313 v 0.4375 c 0.48438,-0.0469 1.70313,-0.0469 2.26563,-0.0469 0.5625,0 1.78125,0 2.26562,0.0469 v -0.4375 h -0.4375 c -1.26562,0 -1.3125,-0.15625 -1.3125,-0.67188 z m 6.9375,5.45313 c 0,-1.09375 -0.15625,-2.78125 -0.92187,-4.375 -0.84375,-1.71875 -2.04688,-2.625 -2.1875,-2.625 -0.0781,0 -0.14063,0.0625 -0.14063,0.14062 0,0.0469 0,0.0625 0.26563,0.32813 1.375,1.375 2.17187,3.60937 2.17187,6.53125 0,2.39062 -0.51562,4.85937 -2.25,6.625 -0.1875,0.17187 -0.1875,0.1875 -0.1875,0.23437 0,0.0781 0.0625,0.14063 0.14063,0.14063 0.14062,0 1.40625,-0.95313 2.21875,-2.73438 0.71875,-1.53125 0.89062,-3.09375 0.89062,-4.26562 z m 0,0"
         style="fill:#dc322f;fill-opacity:1;fill-rule:nonzero;stroke:none;stroke-width:1.33333" />
      <path
         id="path18"
         d="m 479.90625,226.1875 h 1.35937 c 1.0625,0 1.17188,0.21875 1.17188,0.625 0,0.0937 0,0.26562 -0.10938,0.6875 -0.0156,0.0781 -0.0312,0.125 -0.0312,0.15625 0,0.10937 0.0781,0.17187 0.17188,0.17187 0.14062,0 0.14062,-0.0469 0.20312,-0.29687 l 0.76563,-3.04688 c 0.0469,-0.14062 0.0469,-0.17187 0.0469,-0.21875 0,-0.0312 -0.0312,-0.15625 -0.17187,-0.15625 -0.14063,0 -0.15625,0.0781 -0.20313,0.29688 -0.29687,1.09375 -0.625,1.34375 -1.8125,1.34375 h -1.26562 l 0.89062,-3.5625 c 0.125,-0.48438 0.14063,-0.54688 0.75,-0.54688 h 1.85938 c 1.71875,0 2.03125,0.46875 2.03125,1.54688 0,0.32812 0,0.375 -0.0312,0.75 -0.0312,0.1875 -0.0312,0.21875 -0.0312,0.26562 0,0.0625 0.0469,0.15625 0.17187,0.15625 0.15625,0 0.15625,-0.0781 0.1875,-0.34375 l 0.28125,-2.42187 c 0.0469,-0.375 -0.0312,-0.375 -0.375,-0.375 h -6.85937 c -0.28125,0 -0.42188,0 -0.42188,0.28125 0,0.14062 0.125,0.14062 0.39063,0.14062 0.51562,0 0.90625,0 0.90625,0.26563 0,0.0469 0,0.0781 -0.0625,0.32812 l -1.84375,7.40625 c -0.14063,0.54688 -0.17188,0.65625 -1.28125,0.65625 -0.23438,0 -0.39063,0 -0.39063,0.26563 0,0.17187 0.17188,0.17187 0.20313,0.17187 0.40625,0 1.45312,-0.0469 1.85937,-0.0469 0.45313,0 1.625,0.0469 2.07813,0.0469 0.125,0 0.29687,0 0.29687,-0.26562 0,-0.10938 -0.0781,-0.14063 -0.0781,-0.15625 -0.0469,-0.0156 -0.0781,-0.0156 -0.39063,-0.0156 -0.3125,0 -0.39062,0 -0.73437,-0.0312 -0.40625,-0.0312 -0.45313,-0.0937 -0.45313,-0.26562 0,-0.0312 0,-0.125 0.0625,-0.32813 z m 0,0"
         style="fill:#d33682;fill-opacity:1;fill-rule:nonzero;stroke:none;stroke-width:1.33333" />
      <path
         id="path19"
         d="m 491.25781,234.09375 c 0,-0.0469 0,-0.0625 -0.25,-0.3125 -1.75,-1.76563 -2.1875,-4.40625 -2.1875,-6.54688 0,-2.4375 0.53125,-4.875 2.25,-6.625 0.1875,-0.17187 0.1875,-0.1875 0.1875,-0.23437 0,-0.0937 -0.0625,-0.14063 -0.14063,-0.14063 -0.14062,0 -1.40625,0.95313 -2.23437,2.73438 -0.71875,1.53125 -0.875,3.09375 -0.875,4.26562 0,1.09375 0.15625,2.78125 0.92187,4.375 0.84375,1.71875 2.04688,2.625 2.1875,2.625 0.0781,0 0.14063,-0.0469 0.14063,-0.14062 z m 2.57422,-4.4375 1.48437,-1.4375 c 2.1875,-1.9375 3.01563,-2.6875 3.01563,-4.09375 0,-1.59375 -1.25,-2.71875 -2.96875,-2.71875 -1.57813,0 -2.60938,1.29687 -2.60938,2.53125 0,0.79687 0.70313,0.79687 0.73438,0.79687 0.25,0 0.73437,-0.17187 0.73437,-0.75 0,-0.35937 -0.25,-0.71875 -0.75,-0.71875 -0.10937,0 -0.14062,0 -0.17187,0 0.3125,-0.90625 1.07812,-1.42187 1.89062,-1.42187 1.26563,0 1.875,1.14062 1.875,2.28125 0,1.125 -0.70312,2.23437 -1.46875,3.09375 l -2.6875,3 c -0.15625,0.15625 -0.15625,0.17187 -0.15625,0.51562 h 5.1875 l 0.39063,-2.4375 h -0.34375 c -0.0781,0.42188 -0.17188,1.03125 -0.3125,1.25 -0.0937,0.10938 -1.01563,0.10938 -1.32813,0.10938 z m 9.26562,-2.42188 c 0,-1.09375 -0.15625,-2.78125 -0.92187,-4.375 -0.84375,-1.71875 -2.04688,-2.625 -2.1875,-2.625 -0.0781,0 -0.14063,0.0625 -0.14063,0.14063 0,0.0469 0,0.0625 0.26563,0.32812 1.375,1.375 2.17187,3.60938 2.17187,6.53125 0,2.39063 -0.51562,4.85938 -2.25,6.625 -0.1875,0.17188 -0.1875,0.1875 -0.1875,0.23438 0,0.0781 0.0625,0.14062 0.14063,0.14062 0.14062,0 1.40625,-0.95312 2.21875,-2.73437 0.71875,-1.53125 0.89062,-3.09375 0.89062,-4.26563 z m 0,0"
         style="fill:#d33682;fill-opacity:1;fill-rule:nonzero;stroke:none;stroke-width:1.33333" />
      <path
         id="path20"
         d="m 500.3164,266.03906 h 1.35938 c 1.0625,0 1.17187,0.21875 1.17187,0.625 0,0.0937 0,0.26562 -0.10937,0.6875 -0.0156,0.0781 -0.0312,0.125 -0.0312,0.15625 0,0.10937 0.0781,0.17187 0.17187,0.17187 0.14063,0 0.14063,-0.0469 0.20313,-0.29687 l 0.76562,-3.04688 c 0.0469,-0.14062 0.0469,-0.17187 0.0469,-0.21875 0,-0.0312 -0.0312,-0.15625 -0.17188,-0.15625 -0.14062,0 -0.15625,0.0781 -0.20312,0.29688 -0.29688,1.09375 -0.625,1.34375 -1.8125,1.34375 h -1.26563 l 0.89063,-3.5625 c 0.125,-0.48438 0.14062,-0.54688 0.75,-0.54688 h 1.85937 c 1.71875,0 2.03125,0.46875 2.03125,1.54688 0,0.32812 0,0.375 -0.0312,0.75 -0.0312,0.1875 -0.0312,0.21875 -0.0312,0.26562 0,0.0625 0.0469,0.15625 0.17188,0.15625 0.15625,0 0.15625,-0.0781 0.1875,-0.34375 l 0.28125,-2.42187 c 0.0469,-0.375 -0.0312,-0.375 -0.375,-0.375 h -6.85938 c -0.28125,0 -0.42187,0 -0.42187,0.28125 0,0.14062 0.125,0.14062 0.39062,0.14062 0.51563,0 0.90625,0 0.90625,0.26563 0,0.0469 0,0.0781 -0.0625,0.32812 l -1.84375,7.40625 c -0.14062,0.54688 -0.17187,0.65625 -1.28125,0.65625 -0.23437,0 -0.39062,0 -0.39062,0.26563 0,0.17187 0.17187,0.17187 0.20312,0.17187 0.40625,0 1.45313,-0.0469 1.85938,-0.0469 0.45312,0 1.625,0.0469 2.07812,0.0469 0.125,0 0.29688,0 0.29688,-0.26562 0,-0.10938 -0.0781,-0.14063 -0.0781,-0.15625 -0.0469,-0.0156 -0.0781,-0.0156 -0.39062,-0.0156 -0.3125,0 -0.39063,0 -0.73438,-0.0312 -0.40625,-0.0312 -0.45312,-0.0937 -0.45312,-0.26562 0,-0.0312 0,-0.125 0.0625,-0.32813 z m 0,0"
         style="fill:#dc322f;fill-opacity:1;fill-rule:nonzero;stroke:none;stroke-width:1.33333" />
      <path
         id="path21"
         d="m 511.67187,273.94531 c 0,-0.0469 0,-0.0625 -0.25,-0.3125 -1.75,-1.76563 -2.1875,-4.40625 -2.1875,-6.54688 0,-2.4375 0.53125,-4.875 2.25,-6.625 0.1875,-0.17187 0.1875,-0.1875 0.1875,-0.23437 0,-0.0937 -0.0625,-0.14063 -0.14062,-0.14063 -0.14063,0 -1.40625,0.95313 -2.23438,2.73438 -0.71875,1.53125 -0.875,3.09375 -0.875,4.26562 0,1.09375 0.15625,2.78125 0.92188,4.375 0.84375,1.71875 2.04687,2.625 2.1875,2.625 0.0781,0 0.14062,-0.0469 0.14062,-0.14062 z m 7.23047,-7.84375 c 0,-1.10938 -0.0625,-2.23438 -0.5625,-3.26563 -0.64063,-1.34375 -1.78125,-1.57812 -2.375,-1.57812 -0.84375,0 -1.85937,0.375 -2.4375,1.67187 -0.45313,0.96875 -0.51563,2.0625 -0.51563,3.17188 0,1.04687 0.0625,2.3125 0.625,3.375 0.60938,1.14062 1.625,1.42187 2.3125,1.42187 0.75,0 1.82813,-0.29687 2.4375,-1.625 0.45313,-0.96875 0.51563,-2.0625 0.51563,-3.17187 z m -2.95313,4.48437 c -0.54687,0 -1.375,-0.34375 -1.625,-1.6875 -0.15624,-0.84375 -0.15624,-2.14062 -0.15624,-2.95312 0,-0.90625 0,-1.82813 0.10937,-2.57813 0.28125,-1.67187 1.32812,-1.79687 1.67187,-1.79687 0.46875,0 1.39063,0.25 1.65625,1.64062 0.14063,0.78125 0.14063,1.84375 0.14063,2.73438 0,1.04687 0,2 -0.15625,2.89062 -0.21875,1.32813 -1.01563,1.75 -1.64063,1.75 z m 7.5625,-3.5 c 0,-1.09375 -0.15624,-2.78125 -0.92187,-4.375 -0.84375,-1.71875 -2.04687,-2.625 -2.1875,-2.625 -0.0781,0 -0.14063,0.0625 -0.14063,0.14063 0,0.0469 0,0.0625 0.26563,0.32812 1.375,1.375 2.17187,3.60938 2.17187,6.53125 0,2.39063 -0.51562,4.85938 -2.25,6.625 -0.1875,0.17188 -0.1875,0.1875 -0.1875,0.23438 0,0.0781 0.0625,0.14062 0.14063,0.14062 0.14063,0 1.40625,-0.95312 2.21875,-2.73437 0.71875,-1.53125 0.89062,-3.09375 0.89062,-4.26563 z m 0,0"
         style="fill:#dc322f;fill-opacity:1;fill-rule:nonzero;stroke:none;stroke-width:1.33333" />
      <path
         id="path22"
         d="m 459.49219,266.03906 h 1.35938 c 1.0625,0 1.17187,0.21875 1.17187,0.625 0,0.0937 0,0.26563 -0.10937,0.6875 -0.0156,0.0781 -0.0312,0.125 -0.0312,0.15625 0,0.10938 0.0781,0.17188 0.17187,0.17188 0.14063,0 0.14063,-0.0469 0.20313,-0.29688 l 0.76562,-3.04687 c 0.0469,-0.14063 0.0469,-0.17188 0.0469,-0.21875 0,-0.0312 -0.0312,-0.15625 -0.17188,-0.15625 -0.14062,0 -0.15625,0.0781 -0.20312,0.29687 -0.29688,1.09375 -0.625,1.34375 -1.8125,1.34375 h -1.26563 l 0.89063,-3.5625 c 0.125,-0.48437 0.14062,-0.54687 0.75,-0.54687 h 1.85937 c 1.71875,0 2.03125,0.46875 2.03125,1.54687 0,0.32813 0,0.375 -0.0312,0.75 -0.0312,0.1875 -0.0312,0.21875 -0.0312,0.26563 0,0.0625 0.0469,0.15625 0.17188,0.15625 0.15625,0 0.15625,-0.0781 0.1875,-0.34375 l 0.28125,-2.42188 c 0.0469,-0.375 -0.0312,-0.375 -0.375,-0.375 h -6.85938 c -0.28125,0 -0.42187,0 -0.42187,0.28125 0,0.14063 0.125,0.14063 0.39062,0.14063 0.51563,0 0.90625,0 0.90625,0.26562 0,0.0469 0,0.0781 -0.0625,0.32813 l -1.84375,7.40625 c -0.14062,0.54687 -0.17187,0.65625 -1.28125,0.65625 -0.23437,0 -0.39062,0 -0.39062,0.26562 0,0.17188 0.17187,0.17188 0.20312,0.17188 0.40625,0 1.45313,-0.0469 1.85938,-0.0469 0.45312,0 1.625,0.0469 2.07812,0.0469 0.125,0 0.29688,0 0.29688,-0.26563 0,-0.10937 -0.0781,-0.14062 -0.0781,-0.15625 -0.0469,-0.0156 -0.0781,-0.0156 -0.39062,-0.0156 -0.3125,0 -0.39063,0 -0.73438,-0.0312 -0.40625,-0.0312 -0.45312,-0.0937 -0.45312,-0.26563 0,-0.0312 0,-0.125 0.0625,-0.32812 z m 0,0"
         style="fill:#dc322f;fill-opacity:1;fill-rule:nonzero;stroke:none;stroke-width:1.33333" />
      <path
         id="path23"
         d="m 470.84766,273.94531 c 0,-0.0469 0,-0.0625 -0.25,-0.3125 -1.75,-1.76562 -2.1875,-4.40625 -2.1875,-6.54687 0,-2.4375 0.53125,-4.875 2.25,-6.625 0.1875,-0.17188 0.1875,-0.1875 0.1875,-0.23438 0,-0.0937 -0.0625,-0.14062 -0.14063,-0.14062 -0.14062,0 -1.40625,0.95312 -2.23437,2.73437 -0.71875,1.53125 -0.875,3.09375 -0.875,4.26563 0,1.09375 0.15625,2.78125 0.92187,4.375 0.84375,1.71875 2.04688,2.625 2.1875,2.625 0.0781,0 0.14063,-0.0469 0.14063,-0.14063 z m 4.89844,-12.3125 c 0,-0.34375 0,-0.375 -0.3125,-0.375 -0.875,0.90625 -2.10938,0.90625 -2.54688,0.90625 v 0.42188 c 0.28125,0 1.10938,0 1.82813,-0.35938 v 7.25 c 0,0.5 -0.0469,0.67188 -1.29688,0.67188 h -0.45312 v 0.4375 c 0.48437,-0.0469 1.70312,-0.0469 2.26562,-0.0469 0.5625,0 1.78125,0 2.26563,0.0469 v -0.4375 h -0.4375 c -1.26563,0 -1.3125,-0.15625 -1.3125,-0.67188 z m 6.9375,5.45313 c 0,-1.09375 -0.15625,-2.78125 -0.92188,-4.375 -0.84375,-1.71875 -2.04687,-2.625 -2.1875,-2.625 -0.0781,0 -0.14062,0.0625 -0.14062,0.14062 0,0.0469 0,0.0625 0.26562,0.32813 1.375,1.375 2.17188,3.60937 2.17188,6.53125 0,2.39062 -0.51563,4.85937 -2.25,6.625 -0.1875,0.17187 -0.1875,0.1875 -0.1875,0.23437 0,0.0781 0.0625,0.14063 0.14062,0.14063 0.14063,0 1.40625,-0.95313 2.21875,-2.73438 0.71875,-1.53125 0.89063,-3.09375 0.89063,-4.26562 z m 0,0"
         style="fill:#dc322f;fill-opacity:1;fill-rule:nonzero;stroke:none;stroke-width:1.33333" />
      <path
         id="path24"
         d="M 0,-6.32394 -15.30962,-18.31429"
         style="fill:none;stroke:#586e75;stroke-width:0.3985;stroke-linecap:butt;stroke-linejoin:miter;stroke-miterlimit:10;stroke-dasharray:none;stroke-opacity:1"
         transform="matrix(1.3333333,0,0,-1.3333333,490.0902,230.73585)" />
      <path
         id="path25"
         d="M 0,-6.32394 15.30962,-18.31429"
         style="fill:none;stroke:#586e75;stroke-width:0.3985;stroke-linecap:butt;stroke-linejoin:miter;stroke-miterlimit:10;stroke-dasharray:none;stroke-opacity:1"
         transform="matrix(1.3333333,0,0,-1.3333333,490.0902,230.73585)" />
      <path
         id="path26"
         d="M 0,-6.32394 -22.96442,-18.31429"
         style="fill:none;stroke:#586e75;stroke-width:0.3985;stroke-linecap:butt;stroke-linejoin:miter;stroke-miterlimit:10;stroke-dasharray:none;stroke-opacity:1"
         transform="matrix(1.3333333,0,0,-1.3333333,520.71015,190.88213)" />
      <path
         id="path27"
         d="M 0,-6.32394 22.96443,-18.31429"
         style="fill:none;stroke:#586e75;stroke-width:0.3985;stroke-linecap:butt;stroke-linejoin:miter;stroke-miterlimit:10;stroke-dasharray:none;stroke-opacity:1"
         transform="matrix(1.3333333,0,0,-1.3333333,520.71015,190.88213)" />
      <path
         id="path28"
         d="M 0,-6.32394 -34.44664,-18.31429"
         style="fill:none;stroke:#586e75;stroke-width:0.3985;stroke-linecap:butt;stroke-linejoin:miter;stroke-miterlimit:10;stroke-dasharray:none;stroke-opacity:1"
         transform="matrix(1.3333333,0,0,-1.3333333,566.64133,151.02667)" />
      <path
         id="path29"
         d="M 0,-6.32394 34.44666,-18.31429"
         style="fill:none;stroke:#586e75;stroke-width:0.3985;stroke-linecap:butt;stroke-linejoin:miter;stroke-miterlimit:10;stroke-dasharray:none;stroke-opacity:1"
         transform="matrix(1.3333333,0,0,-1.3333333,566.64133,151.02667)" />
      <path
         id="path30"
         d="m 308.94532,146.48047 h 1.35937 c 1.0625,0 1.17188,0.21875 1.17188,0.625 0,0.0937 0,0.26563 -0.10938,0.6875 -0.0156,0.0781 -0.0312,0.125 -0.0312,0.15625 0,0.10938 0.0781,0.17188 0.17188,0.17188 0.14062,0 0.14062,-0.0469 0.20312,-0.29688 l 0.76563,-3.04687 c 0.0469,-0.14063 0.0469,-0.17188 0.0469,-0.21875 0,-0.0312 -0.0312,-0.15625 -0.17187,-0.15625 -0.14063,0 -0.15625,0.0781 -0.20313,0.29687 -0.29687,1.09375 -0.625,1.34375 -1.8125,1.34375 h -1.26562 l 0.89062,-3.5625 c 0.125,-0.48437 0.14063,-0.54687 0.75,-0.54687 h 1.85938 c 1.71875,0 2.03125,0.46875 2.03125,1.54687 0,0.32813 0,0.375 -0.0312,0.75 -0.0312,0.1875 -0.0312,0.21875 -0.0312,0.26563 0,0.0625 0.0469,0.15625 0.17187,0.15625 0.15625,0 0.15625,-0.0781 0.1875,-0.34375 l 0.28125,-2.42188 c 0.0469,-0.375 -0.0312,-0.375 -0.375,-0.375 h -6.85937 c -0.28125,0 -0.42188,0 -0.42188,0.28125 0,0.14063 0.125,0.14063 0.39063,0.14063 0.51562,0 0.90625,0 0.90625,0.26562 0,0.0469 0,0.0781 -0.0625,0.32813 l -1.84375,7.40625 c -0.14063,0.54687 -0.17188,0.65625 -1.28125,0.65625 -0.23438,0 -0.39063,0 -0.39063,0.26562 0,0.17188 0.17188,0.17188 0.20313,0.17188 0.40625,0 1.45312,-0.0469 1.85937,-0.0469 0.45313,0 1.625,0.0469 2.07813,0.0469 0.125,0 0.29687,0 0.29687,-0.26563 0,-0.10937 -0.0781,-0.14062 -0.0781,-0.15625 -0.0469,-0.0156 -0.0781,-0.0156 -0.39063,-0.0156 -0.3125,0 -0.39062,0 -0.73437,-0.0312 -0.40625,-0.0312 -0.45313,-0.0937 -0.45313,-0.26563 0,-0.0312 0,-0.125 0.0625,-0.32812 z m 0,0"
         style="fill:#d33682;fill-opacity:1;fill-rule:nonzero;stroke:none;stroke-width:1.33333" />
      <path
         id="path31"
         d="m 320.30078,154.38672 c 0,-0.0469 0,-0.0625 -0.25,-0.3125 -1.75,-1.76562 -2.1875,-4.40625 -2.1875,-6.54687 0,-2.4375 0.53125,-4.875 2.25,-6.625 0.1875,-0.17188 0.1875,-0.1875 0.1875,-0.23438 0,-0.0937 -0.0625,-0.14062 -0.14062,-0.14062 -0.14063,0 -1.40625,0.95312 -2.23438,2.73437 -0.71875,1.53125 -0.875,3.09375 -0.875,4.26563 0,1.09375 0.15625,2.78125 0.92188,4.375 0.84375,1.71875 2.04687,2.625 2.1875,2.625 0.0781,0 0.14062,-0.0469 0.14062,-0.14063 z m 7.07032,-6.17187 c 0,-1.67188 -1.14063,-3.0625 -2.65625,-3.0625 -0.67188,0 -1.26563,0.21875 -1.78125,0.70312 v -2.71875 c 0.28125,0.0781 0.75,0.17188 1.1875,0.17188 1.73437,0 2.70312,-1.26563 2.70312,-1.45313 0,-0.0781 -0.0312,-0.15625 -0.14062,-0.15625 0,0 -0.0313,0 -0.10938,0.0469 -0.28125,0.125 -0.96875,0.40625 -1.90625,0.40625 -0.54687,0 -1.20312,-0.0937 -1.85937,-0.39063 -0.10938,-0.0469 -0.14063,-0.0469 -0.17188,-0.0469 -0.14062,0 -0.14062,0.10937 -0.14062,0.34375 v 4.14062 c 0,0.25 0,0.35938 0.20312,0.35938 0.0937,0 0.125,-0.0469 0.1875,-0.125 0.15625,-0.21875 0.67188,-0.98438 1.79688,-0.98438 0.73437,0 1.07812,0.65625 1.1875,0.90625 0.23437,0.51563 0.26562,1.0625 0.26562,1.76563 0,0.48437 0,1.32812 -0.34375,1.90625 -0.32812,0.54687 -0.85937,0.92187 -1.5,0.92187 -1.01562,0 -1.8125,-0.75 -2.0625,-1.57812 0.0469,0.0156 0.0937,0.0312 0.25,0.0312 0.45313,0 0.70313,-0.34375 0.70313,-0.6875 0,-0.32813 -0.25,-0.6875 -0.70313,-0.6875 -0.20312,0 -0.6875,0.10937 -0.6875,0.75 0,1.20312 0.96875,2.5625 2.53125,2.5625 1.625,0 3.04688,-1.34375 3.04688,-3.125 z m 4.76562,-0.6875 c 0,-1.09375 -0.15625,-2.78125 -0.92187,-4.375 -0.84375,-1.71875 -2.04688,-2.625 -2.1875,-2.625 -0.0781,0 -0.14063,0.0625 -0.14063,0.14062 0,0.0469 0,0.0625 0.26563,0.32813 1.375,1.375 2.17187,3.60937 2.17187,6.53125 0,2.39062 -0.51562,4.85937 -2.25,6.625 -0.1875,0.17187 -0.1875,0.1875 -0.1875,0.23437 0,0.0781 0.0625,0.14063 0.14063,0.14063 0.14062,0 1.40625,-0.95313 2.21875,-2.73438 0.71875,-1.53125 0.89062,-3.09375 0.89062,-4.26562 z m 0,0"
         style="fill:#d33682;fill-opacity:1;fill-rule:nonzero;stroke:none;stroke-width:1.33333" />
      <path
         id="path32"
         d="m 388.04297,186.33594 h 1.35937 c 1.0625,0 1.17188,0.21875 1.17188,0.625 0,0.0937 0,0.26562 -0.10938,0.6875 -0.0156,0.0781 -0.0312,0.125 -0.0312,0.15625 0,0.10937 0.0781,0.17187 0.17188,0.17187 0.14062,0 0.14062,-0.0469 0.20312,-0.29687 l 0.76563,-3.04688 c 0.0469,-0.14062 0.0469,-0.17187 0.0469,-0.21875 0,-0.0312 -0.0312,-0.15625 -0.17187,-0.15625 -0.14063,0 -0.15625,0.0781 -0.20313,0.29688 -0.29687,1.09375 -0.625,1.34375 -1.8125,1.34375 h -1.26562 l 0.89062,-3.5625 c 0.125,-0.48438 0.14063,-0.54688 0.75,-0.54688 h 1.85938 c 1.71875,0 2.03125,0.46875 2.03125,1.54688 0,0.32812 0,0.375 -0.0312,0.75 -0.0312,0.1875 -0.0312,0.21875 -0.0312,0.26562 0,0.0625 0.0469,0.15625 0.17187,0.15625 0.15625,0 0.15625,-0.0781 0.1875,-0.34375 l 0.28125,-2.42187 c 0.0469,-0.375 -0.0312,-0.375 -0.375,-0.375 h -6.85937 c -0.28125,0 -0.42188,0 -0.42188,0.28125 0,0.14062 0.125,0.14062 0.39063,0.14062 0.51562,0 0.90625,0 0.90625,0.26563 0,0.0469 0,0.0781 -0.0625,0.32812 l -1.84375,7.40625 c -0.14063,0.54688 -0.17188,0.65625 -1.28125,0.65625 -0.23438,0 -0.39063,0 -0.39063,0.26563 0,0.17187 0.17188,0.17187 0.20313,0.17187 0.40625,0 1.45312,-0.0469 1.85937,-0.0469 0.45313,0 1.625,0.0469 2.07813,0.0469 0.125,0 0.29687,0 0.29687,-0.26562 0,-0.10938 -0.0781,-0.14063 -0.0781,-0.15625 -0.0469,-0.0156 -0.0781,-0.0156 -0.39063,-0.0156 -0.3125,0 -0.39062,0 -0.73437,-0.0312 -0.40625,-0.0312 -0.45313,-0.0937 -0.45313,-0.26562 0,-0.0312 0,-0.125 0.0625,-0.32813 z m 0,0"
         style="fill:#d33682;fill-opacity:1;fill-rule:nonzero;stroke:none;stroke-width:1.33333" />
      <path
         id="path33"
         d="m 399.39844,194.24219 c 0,-0.0469 0,-0.0625 -0.25,-0.3125 -1.75,-1.76563 -2.1875,-4.40625 -2.1875,-6.54688 0,-2.4375 0.53125,-4.875 2.25,-6.625 0.1875,-0.17187 0.1875,-0.1875 0.1875,-0.23437 0,-0.0937 -0.0625,-0.14063 -0.14063,-0.14063 -0.14062,0 -1.40625,0.95313 -2.23437,2.73438 -0.71875,1.53125 -0.875,3.09375 -0.875,4.26562 0,1.09375 0.15625,2.78125 0.92187,4.375 0.84375,1.71875 2.04688,2.625 2.1875,2.625 0.0781,0 0.14063,-0.0469 0.14063,-0.14062 z m 4.85156,-8.28125 c 1.14062,-0.39063 1.95312,-1.35938 1.95312,-2.46875 0,-1.15625 -1.23437,-1.9375 -2.57812,-1.9375 -1.40625,0 -2.46875,0.84375 -2.46875,1.90625 0,0.46875 0.3125,0.73437 0.71875,0.73437 0.42187,0 0.70312,-0.3125 0.70312,-0.71875 0,-0.70312 -0.65625,-0.70312 -0.85937,-0.70312 0.42187,-0.6875 1.35937,-0.85938 1.85937,-0.85938 0.57813,0 1.34375,0.29688 1.34375,1.5625 0,0.17188 -0.0312,0.98438 -0.39062,1.59375 -0.42188,0.67188 -0.90625,0.71875 -1.25,0.73438 -0.10937,0.0156 -0.45313,0.0312 -0.54688,0.0312 -0.10937,0.0156 -0.20312,0.0312 -0.20312,0.17187 0,0.15625 0.0937,0.15625 0.32812,0.15625 h 0.625 c 1.14063,0 1.65625,0.95313 1.65625,2.32813 0,1.90625 -0.96875,2.3125 -1.57812,2.3125 -0.60938,0 -1.65625,-0.25 -2.14063,-1.0625 0.48438,0.0625 0.92188,-0.25 0.92188,-0.78125 0,-0.5 -0.375,-0.78125 -0.78125,-0.78125 -0.34375,0 -0.78125,0.20312 -0.78125,0.8125 0,1.28125 1.29687,2.20312 2.82812,2.20312 1.70313,0 2.96875,-1.28125 2.96875,-2.70312 0,-1.15625 -0.875,-2.25 -2.32812,-2.53125 z m 6.98437,1.42187 c 0,-1.09375 -0.15625,-2.78125 -0.92187,-4.375 -0.84375,-1.71875 -2.04688,-2.625 -2.1875,-2.625 -0.0781,0 -0.14063,0.0625 -0.14063,0.14063 0,0.0469 0,0.0625 0.26563,0.32812 1.375,1.375 2.17187,3.60938 2.17187,6.53125 0,2.39063 -0.51562,4.85938 -2.25,6.625 -0.1875,0.17188 -0.1875,0.1875 -0.1875,0.23438 0,0.0781 0.0625,0.14062 0.14063,0.14062 0.14062,0 1.40625,-0.95312 2.21875,-2.73437 0.71875,-1.53125 0.89062,-3.09375 0.89062,-4.26563 z m 0,0"
         style="fill:#d33682;fill-opacity:1;fill-rule:nonzero;stroke:none;stroke-width:1.33333" />
      <path
         id="path34"
         d="m 418.66406,226.1875 h 1.35938 c 1.0625,0 1.17187,0.21875 1.17187,0.625 0,0.0937 0,0.26563 -0.10937,0.6875 -0.0156,0.0781 -0.0312,0.125 -0.0312,0.15625 0,0.10937 0.0781,0.17188 0.17187,0.17188 0.14063,0 0.14063,-0.0469 0.20313,-0.29688 l 0.76562,-3.04687 c 0.0469,-0.14063 0.0469,-0.17188 0.0469,-0.21875 0,-0.0312 -0.0312,-0.15625 -0.17188,-0.15625 -0.14062,0 -0.15625,0.0781 -0.20312,0.29687 -0.29688,1.09375 -0.625,1.34375 -1.8125,1.34375 h -1.26563 l 0.89063,-3.5625 c 0.125,-0.48437 0.14062,-0.54687 0.75,-0.54687 h 1.85937 c 1.71875,0 2.03125,0.46875 2.03125,1.54687 0,0.32813 0,0.375 -0.0312,0.75 -0.0312,0.1875 -0.0312,0.21875 -0.0312,0.26563 0,0.0625 0.0469,0.15625 0.17188,0.15625 0.15625,0 0.15625,-0.0781 0.1875,-0.34375 l 0.28125,-2.42188 c 0.0469,-0.375 -0.0312,-0.375 -0.375,-0.375 h -6.85938 c -0.28125,0 -0.42187,0 -0.42187,0.28125 0,0.14063 0.125,0.14063 0.39062,0.14063 0.51563,0 0.90625,0 0.90625,0.26562 0,0.0469 0,0.0781 -0.0625,0.32813 l -1.84375,7.40625 c -0.14062,0.54687 -0.17187,0.65625 -1.28125,0.65625 -0.23437,0 -0.39062,0 -0.39062,0.26562 0,0.17188 0.17187,0.17188 0.20312,0.17188 0.40625,0 1.45313,-0.0469 1.85938,-0.0469 0.45312,0 1.625,0.0469 2.07812,0.0469 0.125,0 0.29688,0 0.29688,-0.26563 0,-0.10937 -0.0781,-0.14062 -0.0781,-0.15625 -0.0469,-0.0156 -0.0781,-0.0156 -0.39062,-0.0156 -0.3125,0 -0.39063,0 -0.73438,-0.0312 -0.40625,-0.0312 -0.45312,-0.0937 -0.45312,-0.26562 0,-0.0312 0,-0.125 0.0625,-0.32813 z m 0,0"
         style="fill:#dc322f;fill-opacity:1;fill-rule:nonzero;stroke:none;stroke-width:1.33333" />
      <path
         id="path35"
         d="m 430.01953,234.09375 c 0,-0.0469 0,-0.0625 -0.25,-0.3125 -1.75,-1.76563 -2.1875,-4.40625 -2.1875,-6.54687 0,-2.4375 0.53125,-4.875 2.25,-6.625 0.1875,-0.17188 0.1875,-0.1875 0.1875,-0.23438 0,-0.0937 -0.0625,-0.14062 -0.14062,-0.14062 -0.14063,0 -1.40625,0.95312 -2.23438,2.73437 -0.71875,1.53125 -0.875,3.09375 -0.875,4.26563 0,1.09374 0.15625,2.78125 0.92188,4.37499 0.84375,1.71875 2.04687,2.625 2.1875,2.625 0.0781,0 0.14062,-0.0469 0.14062,-0.14062 z m 4.89844,-12.3125 c 0,-0.34375 0,-0.375 -0.3125,-0.375 -0.875,0.90625 -2.10938,0.90625 -2.54688,0.90625 v 0.42188 c 0.28125,0 1.10938,0 1.82813,-0.35938 v 7.25 c 0,0.5 -0.0469,0.67188 -1.29688,0.67188 h -0.45312 v 0.4375 c 0.48437,-0.0469 1.70312,-0.0469 2.26562,-0.0469 0.5625,0 1.78125,0 2.26563,0.0469 v -0.4375 h -0.4375 c -1.26563,0 -1.3125,-0.15625 -1.3125,-0.67188 z m 6.9375,5.45313 c 0,-1.09375 -0.15625,-2.78125 -0.92188,-4.375 -0.84375,-1.71875 -2.04687,-2.625 -2.1875,-2.625 -0.0781,0 -0.14062,0.0625 -0.14062,0.14062 0,0.0469 0,0.0625 0.26562,0.32813 1.375,1.375 2.17188,3.60937 2.17188,6.53125 0,2.39062 -0.51563,4.85937 -2.25,6.62499 -0.1875,0.17188 -0.1875,0.1875 -0.1875,0.23438 0,0.0781 0.0625,0.14062 0.14062,0.14062 0.14063,0 1.40625,-0.95312 2.21875,-2.73437 0.71875,-1.53125 0.89063,-3.09375 0.89063,-4.26562 z m 0,0"
         style="fill:#dc322f;fill-opacity:1;fill-rule:nonzero;stroke:none;stroke-width:1.33333" />
      <path
         id="path36"
         d="m 357.42578,226.19141 h 1.35937 c 1.0625,0 1.17188,0.21875 1.17188,0.625 0,0.0937 0,0.26562 -0.10938,0.6875 -0.0156,0.0781 -0.0312,0.125 -0.0312,0.15625 0,0.10937 0.0781,0.17187 0.17188,0.17187 0.14062,0 0.14062,-0.0469 0.20312,-0.29687 l 0.76563,-3.04688 c 0.0469,-0.14062 0.0469,-0.17187 0.0469,-0.21875 0,-0.0312 -0.0312,-0.15625 -0.17187,-0.15625 -0.14063,0 -0.15625,0.0781 -0.20313,0.29688 -0.29687,1.09375 -0.625,1.34375 -1.8125,1.34375 h -1.26562 l 0.89062,-3.5625 c 0.125,-0.48438 0.14063,-0.54688 0.75,-0.54688 h 1.85938 c 1.71875,0 2.03125,0.46875 2.03125,1.54688 0,0.32812 0,0.375 -0.0312,0.75 -0.0312,0.1875 -0.0312,0.21875 -0.0312,0.26562 0,0.0625 0.0469,0.15625 0.17187,0.15625 0.15625,0 0.15625,-0.0781 0.1875,-0.34375 l 0.28125,-2.42187 c 0.0469,-0.375 -0.0312,-0.375 -0.375,-0.375 h -6.85937 c -0.28125,0 -0.42188,0 -0.42188,0.28125 0,0.14062 0.125,0.14062 0.39063,0.14062 0.51562,0 0.90625,0 0.90625,0.26563 0,0.0469 0,0.0781 -0.0625,0.32812 l -1.84375,7.40625 c -0.14063,0.54688 -0.17188,0.65625 -1.28125,0.65625 -0.23438,0 -0.39063,0 -0.39063,0.26563 0,0.17187 0.17188,0.17187 0.20313,0.17187 0.40625,0 1.45312,-0.0469 1.85937,-0.0469 0.45313,0 1.625,0.0469 2.07813,0.0469 0.125,0 0.29687,0 0.29687,-0.26562 0,-0.10938 -0.0781,-0.14063 -0.0781,-0.15625 -0.0469,-0.0156 -0.0781,-0.0156 -0.39063,-0.0156 -0.3125,0 -0.39062,0 -0.73437,-0.0312 -0.40625,-0.0312 -0.45313,-0.0937 -0.45313,-0.26562 0,-0.0312 0,-0.125 0.0625,-0.32813 z m 0,0"
         style="fill:#d33682;fill-opacity:1;fill-rule:nonzero;stroke:none;stroke-width:1.33333" />
      <path
         id="path37"
         d="m 368.77734,234.09766 c 0,-0.0469 0,-0.0625 -0.25,-0.3125 -1.75,-1.76563 -2.1875,-4.40625 -2.1875,-6.54688 0,-2.4375 0.53125,-4.875 2.25,-6.625 0.1875,-0.17187 0.1875,-0.1875 0.1875,-0.23437 0,-0.0937 -0.0625,-0.14063 -0.14063,-0.14063 -0.14062,0 -1.40624,0.95313 -2.23437,2.73438 -0.71875,1.53125 -0.875,3.09375 -0.875,4.26562 0,1.09375 0.15625,2.78125 0.92188,4.375 0.84375,1.71875 2.04687,2.625 2.18749,2.625 0.0781,0 0.14063,-0.0469 0.14063,-0.14062 z m 2.57031,-4.4375 1.48438,-1.4375 c 2.1875,-1.9375 3.01562,-2.6875 3.01562,-4.09375 0,-1.59375 -1.25,-2.71875 -2.96875,-2.71875 -1.57812,0 -2.60937,1.29687 -2.60937,2.53125 0,0.79687 0.70312,0.79687 0.73437,0.79687 0.25,0 0.73438,-0.17187 0.73438,-0.75 0,-0.35937 -0.25,-0.71875 -0.75,-0.71875 -0.10938,0 -0.14063,0 -0.17188,0 0.3125,-0.90625 1.07813,-1.42187 1.89063,-1.42187 1.26562,0 1.875,1.14062 1.875,2.28125 0,1.125 -0.70313,2.23437 -1.46875,3.09375 l -2.6875,3 c -0.15625,0.15625 -0.15625,0.17187 -0.15625,0.51562 h 5.1875 l 0.39062,-2.4375 h -0.34375 c -0.0781,0.42188 -0.17187,1.03125 -0.3125,1.25 -0.0937,0.10938 -1.01562,0.10938 -1.32812,0.10938 z m 9.26563,-2.42188 c 0,-1.09375 -0.15625,-2.78125 -0.92188,-4.375 -0.84375,-1.71875 -2.04687,-2.625 -2.1875,-2.625 -0.0781,0 -0.14062,0.0625 -0.14062,0.14063 0,0.0469 0,0.0625 0.26562,0.32812 1.375,1.375 2.17188,3.60938 2.17188,6.53125 0,2.39063 -0.51563,4.85938 -2.25,6.625 -0.1875,0.17188 -0.1875,0.1875 -0.1875,0.23438 0,0.0781 0.0625,0.14062 0.14062,0.14062 0.14063,0 1.40625,-0.95312 2.21875,-2.73437 0.71875,-1.53125 0.89063,-3.09375 0.89063,-4.26563 z m 0,0"
         style="fill:#d33682;fill-opacity:1;fill-rule:nonzero;stroke:none;stroke-width:1.33333" />
      <path
         id="path38"
         d="m 377.83593,266.04297 h 1.35938 c 1.0625,0 1.17187,0.21875 1.17187,0.625 0,0.0937 0,0.26563 -0.10937,0.6875 -0.0156,0.0781 -0.0312,0.125 -0.0312,0.15625 0,0.10938 0.0781,0.17188 0.17187,0.17188 0.14063,0 0.14063,-0.0469 0.20313,-0.29688 l 0.76562,-3.04687 c 0.0469,-0.14063 0.0469,-0.17188 0.0469,-0.21875 0,-0.0312 -0.0312,-0.15625 -0.17188,-0.15625 -0.14062,0 -0.15625,0.0781 -0.20312,0.29687 -0.29688,1.09375 -0.625,1.34375 -1.8125,1.34375 H 377.961 l 0.89063,-3.5625 c 0.125,-0.48437 0.14062,-0.54687 0.75,-0.54687 h 1.85937 c 1.71875,0 2.03125,0.46875 2.03125,1.54687 0,0.32813 0,0.375 -0.0312,0.75 -0.0312,0.1875 -0.0312,0.21875 -0.0312,0.26563 0,0.0625 0.0469,0.15625 0.17187,0.15625 0.15625,0 0.15625,-0.0781 0.1875,-0.34375 l 0.28125,-2.42188 c 0.0469,-0.375 -0.0312,-0.375 -0.375,-0.375 h -6.85938 c -0.28125,0 -0.42187,0 -0.42187,0.28125 0,0.14063 0.125,0.14063 0.39062,0.14063 0.51563,0 0.90625,0 0.90625,0.26562 0,0.0469 0,0.0781 -0.0625,0.32813 l -1.84375,7.40625 c -0.14062,0.54687 -0.17187,0.65625 -1.28125,0.65625 -0.23437,0 -0.39062,0 -0.39062,0.26562 0,0.17188 0.17187,0.17188 0.20312,0.17188 0.40625,0 1.45313,-0.0469 1.85938,-0.0469 0.45312,0 1.625,0.0469 2.07812,0.0469 0.125,0 0.29688,0 0.29688,-0.26563 0,-0.10937 -0.0781,-0.14062 -0.0781,-0.15625 -0.0469,-0.0156 -0.0781,-0.0156 -0.39062,-0.0156 -0.3125,0 -0.39063,0 -0.73438,-0.0312 -0.40625,-0.0312 -0.45312,-0.0937 -0.45312,-0.26563 0,-0.0312 0,-0.125 0.0625,-0.32812 z m 0,0"
         style="fill:#dc322f;fill-opacity:1;fill-rule:nonzero;stroke:none;stroke-width:1.33333" />
      <path
         id="path39"
         d="m 389.1914,273.94922 c 0,-0.0469 0,-0.0625 -0.25,-0.3125 -1.75,-1.76562 -2.1875,-4.40625 -2.1875,-6.54687 0,-2.4375 0.53125,-4.875 2.25,-6.625 0.1875,-0.17188 0.1875,-0.1875 0.1875,-0.23438 0,-0.0937 -0.0625,-0.14062 -0.14062,-0.14062 -0.14063,0 -1.40625,0.95312 -2.23438,2.73437 -0.71875,1.53125 -0.875,3.09375 -0.875,4.26563 0,1.09375 0.15625,2.78125 0.92188,4.375 0.84375,1.71875 2.04687,2.625 2.1875,2.625 0.0781,0 0.14062,-0.0469 0.14062,-0.14063 z m 7.22657,-7.84375 c 0,-1.10937 -0.0625,-2.23437 -0.5625,-3.26562 -0.64063,-1.34375 -1.78126,-1.57813 -2.375,-1.57813 -0.84376,0 -1.85938,0.375 -2.4375,1.67188 -0.45313,0.96875 -0.51563,2.0625 -0.51563,3.17187 0,1.04688 0.0625,2.3125 0.625,3.375 0.60937,1.14063 1.625,1.42188 2.3125,1.42188 0.75,0 1.82813,-0.29688 2.4375,-1.625 0.45313,-0.96875 0.51563,-2.0625 0.51563,-3.17188 z m -2.95313,4.48438 c -0.54687,0 -1.375,-0.34375 -1.625,-1.6875 -0.15625,-0.84375 -0.15625,-2.14063 -0.15625,-2.95313 0,-0.90625 0,-1.82812 0.10937,-2.57812 0.28125,-1.67188 1.32813,-1.79688 1.67188,-1.79688 0.46875,0 1.39062,0.25 1.65625,1.64063 0.14062,0.78125 0.14062,1.84375 0.14062,2.73437 0,1.04688 0,2 -0.15625,2.89063 -0.21875,1.32812 -1.01562,1.75 -1.64062,1.75 z m 7.5625,-3.5 c 0,-1.09375 -0.15625,-2.78125 -0.92187,-4.375 -0.84376,-1.71875 -2.04688,-2.625 -2.1875,-2.625 -0.0781,0 -0.14063,0.0625 -0.14063,0.14062 0,0.0469 0,0.0625 0.26563,0.32813 1.375,1.375 2.17187,3.60937 2.17187,6.53125 0,2.39062 -0.51563,4.85937 -2.25,6.625 -0.1875,0.17187 -0.1875,0.1875 -0.1875,0.23437 0,0.0781 0.0625,0.14063 0.14063,0.14063 0.14062,0 1.40624,-0.95313 2.21874,-2.73438 0.71876,-1.53125 0.89063,-3.09375 0.89063,-4.26562 z m 0,0"
         style="fill:#dc322f;fill-opacity:1;fill-rule:nonzero;stroke:none;stroke-width:1.33333" />
      <path
         id="path40"
         d="m 337.01172,266.04297 h 1.35938 c 1.0625,0 1.17187,0.21875 1.17187,0.625 0,0.0937 0,0.26562 -0.10937,0.6875 -0.0156,0.0781 -0.0312,0.125 -0.0312,0.15625 0,0.10937 0.0781,0.17187 0.17187,0.17187 0.14063,0 0.14063,-0.0469 0.20313,-0.29687 l 0.76562,-3.04688 c 0.0469,-0.14062 0.0469,-0.17187 0.0469,-0.21875 0,-0.0312 -0.0312,-0.15625 -0.17188,-0.15625 -0.14062,0 -0.15625,0.0781 -0.20312,0.29688 -0.29688,1.09375 -0.625,1.34375 -1.8125,1.34375 h -1.26563 l 0.89063,-3.5625 c 0.125,-0.48438 0.14062,-0.54688 0.75,-0.54688 h 1.85937 c 1.71875,0 2.03125,0.46875 2.03125,1.54688 0,0.32812 0,0.375 -0.0312,0.75 -0.0312,0.1875 -0.0312,0.21875 -0.0312,0.26562 0,0.0625 0.0469,0.15625 0.17188,0.15625 0.15625,0 0.15625,-0.0781 0.1875,-0.34375 l 0.28125,-2.42187 c 0.0469,-0.375 -0.0312,-0.375 -0.375,-0.375 h -6.85938 c -0.28125,0 -0.42187,0 -0.42187,0.28125 0,0.14062 0.125,0.14062 0.39062,0.14062 0.51563,0 0.90625,0 0.90625,0.26563 0,0.0469 0,0.0781 -0.0625,0.32812 l -1.84375,7.40625 c -0.14062,0.54688 -0.17187,0.65625 -1.28125,0.65625 -0.23437,0 -0.39062,0 -0.39062,0.26563 0,0.17187 0.17187,0.17187 0.20312,0.17187 0.40625,0 1.45313,-0.0469 1.85938,-0.0469 0.45312,0 1.625,0.0469 2.07812,0.0469 0.125,0 0.29688,0 0.29688,-0.26562 0,-0.10938 -0.0781,-0.14063 -0.0781,-0.15625 -0.0469,-0.0156 -0.0781,-0.0156 -0.39062,-0.0156 -0.3125,0 -0.39063,0 -0.73438,-0.0312 -0.40625,-0.0312 -0.45312,-0.0937 -0.45312,-0.26562 0,-0.0312 0,-0.125 0.0625,-0.32813 z m 0,0"
         style="fill:#dc322f;fill-opacity:1;fill-rule:nonzero;stroke:none;stroke-width:1.33333" />
      <path
         id="path41"
         d="m 348.36328,273.94922 c 0,-0.0469 0,-0.0625 -0.25,-0.3125 -1.75,-1.76563 -2.1875,-4.40625 -2.1875,-6.54688 0,-2.4375 0.53125,-4.875 2.25,-6.625 0.1875,-0.17187 0.1875,-0.1875 0.1875,-0.23437 0,-0.0937 -0.0625,-0.14063 -0.14062,-0.14063 -0.14063,0 -1.40625,0.95313 -2.23438,2.73438 -0.71875,1.53125 -0.875,3.09375 -0.875,4.26562 0,1.09375 0.15625,2.78125 0.92188,4.375 0.84375,1.71875 2.04687,2.625 2.1875,2.625 0.0781,0 0.14062,-0.0469 0.14062,-0.14062 z m 4.90235,-12.3125 c 0,-0.34375 0,-0.375 -0.3125,-0.375 -0.875,0.90625 -2.10938,0.90625 -2.54688,0.90625 v 0.42187 c 0.28125,0 1.10938,0 1.82813,-0.35937 v 7.25 c 0,0.5 -0.0469,0.67187 -1.29688,0.67187 h -0.45312 v 0.4375 c 0.48437,-0.0469 1.70312,-0.0469 2.26562,-0.0469 0.5625,0 1.78125,0 2.26563,0.0469 v -0.4375 h -0.4375 c -1.26563,0 -1.3125,-0.15625 -1.3125,-0.67187 z m 6.9375,5.45312 c 0,-1.09375 -0.15625,-2.78125 -0.92188,-4.375 -0.84375,-1.71875 -2.04687,-2.625 -2.1875,-2.625 -0.0781,0 -0.14062,0.0625 -0.14062,0.14063 0,0.0469 0,0.0625 0.26562,0.32812 1.375,1.375 2.17188,3.60938 2.17188,6.53125 0,2.39063 -0.51563,4.85938 -2.25,6.625 -0.1875,0.17188 -0.1875,0.1875 -0.1875,0.23438 0,0.0781 0.0625,0.14062 0.14062,0.14062 0.14063,0 1.40625,-0.95312 2.21875,-2.73437 0.71875,-1.53125 0.89063,-3.09375 0.89063,-4.26563 z m 0,0"
         style="fill:#dc322f;fill-opacity:1;fill-rule:nonzero;stroke:none;stroke-width:1.33333" />
      <path
         id="path42"
         d="M 0,-6.32394 -15.30962,-18.31429"
         style="fill:none;stroke:#586e75;stroke-width:0.3985;stroke-linecap:butt;stroke-linejoin:miter;stroke-miterlimit:10;stroke-dasharray:none;stroke-opacity:1"
         transform="matrix(1.3333333,0,0,-1.3333333,367.60828,230.73667)" />
      <path
         id="path43"
         d="M 0,-6.32394 15.30962,-18.31429"
         style="fill:none;stroke:#586e75;stroke-width:0.3985;stroke-linecap:butt;stroke-linejoin:miter;stroke-miterlimit:10;stroke-dasharray:none;stroke-opacity:1"
         transform="matrix(1.3333333,0,0,-1.3333333,367.60828,230.73667)" />
      <path
         id="path44"
         d="M 0,-6.32394 -22.96442,-18.31429"
         style="fill:none;stroke:#586e75;stroke-width:0.3985;stroke-linecap:butt;stroke-linejoin:miter;stroke-miterlimit:10;stroke-dasharray:none;stroke-opacity:1"
         transform="matrix(1.3333333,0,0,-1.3333333,398.22823,190.88428)" />
      <path
         id="path45"
         d="M 0,-6.32394 22.96443,-18.31429"
         style="fill:none;stroke:#586e75;stroke-width:0.3985;stroke-linecap:butt;stroke-linejoin:miter;stroke-miterlimit:10;stroke-dasharray:none;stroke-opacity:1"
         transform="matrix(1.3333333,0,0,-1.3333333,398.22823,190.88428)" />
      <path
         id="path46"
         d="m 229.83984,186.33594 h 1.35938 c 1.0625,0 1.17187,0.21875 1.17187,0.625 0,0.0937 0,0.26563 -0.10937,0.6875 -0.0156,0.0781 -0.0312,0.125 -0.0312,0.15625 0,0.10938 0.0781,0.17188 0.17187,0.17188 0.14063,0 0.14063,-0.0469 0.20313,-0.29688 l 0.76562,-3.04687 c 0.0469,-0.14063 0.0469,-0.17188 0.0469,-0.21875 0,-0.0312 -0.0312,-0.15625 -0.17188,-0.15625 -0.14062,0 -0.15625,0.0781 -0.20312,0.29687 -0.29688,1.09375 -0.625,1.34375 -1.8125,1.34375 h -1.26563 l 0.89063,-3.5625 c 0.125,-0.48437 0.14062,-0.54687 0.75,-0.54687 h 1.85937 c 1.71875,0 2.03125,0.46875 2.03125,1.54687 0,0.32813 0,0.375 -0.0312,0.75 -0.0312,0.1875 -0.0312,0.21875 -0.0312,0.26563 0,0.0625 0.0469,0.15625 0.17188,0.15625 0.15625,0 0.15625,-0.0781 0.1875,-0.34375 l 0.28125,-2.42188 c 0.0469,-0.375 -0.0312,-0.375 -0.375,-0.375 h -6.85938 c -0.28125,0 -0.42187,0 -0.42187,0.28125 0,0.14063 0.125,0.14063 0.39062,0.14063 0.51563,0 0.90625,0 0.90625,0.26562 0,0.0469 0,0.0781 -0.0625,0.32813 l -1.84375,7.40625 c -0.14062,0.54687 -0.17187,0.65625 -1.28125,0.65625 -0.23437,0 -0.39062,0 -0.39062,0.26562 0,0.17188 0.17187,0.17188 0.20312,0.17188 0.40625,0 1.45313,-0.0469 1.85938,-0.0469 0.45312,0 1.625,0.0469 2.07812,0.0469 0.125,0 0.29688,0 0.29688,-0.26563 0,-0.10937 -0.0781,-0.14062 -0.0781,-0.15625 -0.0469,-0.0156 -0.0781,-0.0156 -0.39062,-0.0156 -0.3125,0 -0.39063,0 -0.73438,-0.0312 -0.40625,-0.0312 -0.45312,-0.0937 -0.45312,-0.26563 0,-0.0312 0,-0.125 0.0625,-0.32812 z m 0,0"
         style="fill:#d33682;fill-opacity:1;fill-rule:nonzero;stroke:none;stroke-width:1.33333" />
      <path
         id="path47"
         d="m 241.19531,194.24219 c 0,-0.0469 0,-0.0625 -0.25,-0.3125 -1.75,-1.76562 -2.1875,-4.40625 -2.1875,-6.54687 0,-2.4375 0.53125,-4.875 2.25,-6.625 0.1875,-0.17188 0.1875,-0.1875 0.1875,-0.23438 0,-0.0937 -0.0625,-0.14062 -0.14062,-0.14062 -0.14063,0 -1.40625,0.95312 -2.23438,2.73437 -0.71875,1.53125 -0.875,3.09375 -0.875,4.26563 0,1.09375 0.15625,2.78125 0.92188,4.375 0.84375,1.71875 2.04687,2.625 2.1875,2.625 0.0781,0 0.14062,-0.0469 0.14062,-0.14063 z m 4.90235,-5.67187 v 1.21875 c 0,0.5 -0.0156,0.65625 -1.0625,0.65625 h -0.28125 v 0.4375 c 0.5625,-0.0469 1.29687,-0.0469 1.875,-0.0469 0.59375,0 1.34375,0 1.90625,0.0469 v -0.4375 h -0.28125 c -1.04688,0 -1.07813,-0.15625 -1.07813,-0.65625 v -1.21875 h 1.40625 v -0.4375 h -1.40625 v -6.35938 c 0,-0.28125 0,-0.375 -0.21875,-0.375 -0.125,0 -0.17187,0 -0.28125,0.17188 l -4.29687,6.5625 v 0.4375 z m 0.0937,-0.4375 h -3.42187 l 3.42187,-5.21875 z m 6.84375,-0.75 c 0,-1.09375 -0.15625,-2.78125 -0.92187,-4.375 -0.84375,-1.71875 -2.04688,-2.625 -2.1875,-2.625 -0.0781,0 -0.14063,0.0625 -0.14063,0.14062 0,0.0469 0,0.0625 0.26563,0.32813 1.375,1.375 2.17187,3.60937 2.17187,6.53125 0,2.39062 -0.51562,4.85937 -2.25,6.625 -0.1875,0.17187 -0.1875,0.1875 -0.1875,0.23437 0,0.0781 0.0625,0.14063 0.14063,0.14063 0.14062,0 1.40625,-0.95313 2.21875,-2.73438 0.71875,-1.53125 0.89062,-3.09375 0.89062,-4.26562 z m 0,0"
         style="fill:#d33682;fill-opacity:1;fill-rule:nonzero;stroke:none;stroke-width:1.33333" />
      <path
         id="path48"
         d="m 275.76953,226.19141 h 1.35938 c 1.0625,0 1.17187,0.21875 1.17187,0.625 0,0.0937 0,0.26562 -0.10937,0.6875 -0.0156,0.0781 -0.0312,0.125 -0.0312,0.15625 0,0.10937 0.0781,0.17187 0.17187,0.17187 0.14063,0 0.14063,-0.0469 0.20313,-0.29687 l 0.76562,-3.04688 c 0.0469,-0.14062 0.0469,-0.17187 0.0469,-0.21875 0,-0.0312 -0.0312,-0.15625 -0.17188,-0.15625 -0.14062,0 -0.15625,0.0781 -0.20312,0.29688 -0.29688,1.09375 -0.625,1.34375 -1.8125,1.34375 h -1.26563 l 0.89063,-3.5625 c 0.125,-0.48438 0.14062,-0.54688 0.75,-0.54688 h 1.85937 c 1.71875,0 2.03125,0.46875 2.03125,1.54688 0,0.32812 0,0.375 -0.0312,0.75 -0.0312,0.1875 -0.0312,0.21875 -0.0312,0.26562 0,0.0625 0.0469,0.15625 0.17188,0.15625 0.15625,0 0.15625,-0.0781 0.1875,-0.34375 l 0.28125,-2.42187 c 0.0469,-0.375 -0.0312,-0.375 -0.375,-0.375 h -6.85938 c -0.28125,0 -0.42187,0 -0.42187,0.28125 0,0.14062 0.125,0.14062 0.39062,0.14062 0.51563,0 0.90625,0 0.90625,0.26563 0,0.0469 0,0.0781 -0.0625,0.32812 l -1.84375,7.40625 c -0.14062,0.54688 -0.17187,0.65625 -1.28125,0.65625 -0.23437,0 -0.39062,0 -0.39062,0.26563 0,0.17187 0.17187,0.17187 0.20312,0.17187 0.40625,0 1.45313,-0.0469 1.85938,-0.0469 0.45312,0 1.625,0.0469 2.07812,0.0469 0.125,0 0.29688,0 0.29688,-0.26562 0,-0.10938 -0.0781,-0.14063 -0.0781,-0.15625 -0.0469,-0.0156 -0.0781,-0.0156 -0.39062,-0.0156 -0.3125,0 -0.39063,0 -0.73438,-0.0312 -0.40625,-0.0312 -0.45312,-0.0937 -0.45312,-0.26562 0,-0.0312 0,-0.125 0.0625,-0.32813 z m 0,0"
         style="fill:#d33682;fill-opacity:1;fill-rule:nonzero;stroke:none;stroke-width:1.33333" />
      <path
         id="path49"
         d="m 287.12109,234.09766 c 0,-0.0469 0,-0.0625 -0.25,-0.3125 -1.75,-1.76563 -2.1875,-4.40625 -2.1875,-6.54688 0,-2.4375 0.53125,-4.875 2.25,-6.625 0.1875,-0.17187 0.1875,-0.1875 0.1875,-0.23437 0,-0.0937 -0.0625,-0.14063 -0.14062,-0.14063 -0.14063,0 -1.40625,0.95313 -2.23438,2.73438 -0.71875,1.53125 -0.875,3.09375 -0.875,4.26562 0,1.09375 0.15625,2.78125 0.92188,4.375 0.84375,1.71875 2.04687,2.625 2.1875,2.625 0.0781,0 0.14062,-0.0469 0.14062,-0.14062 z m 2.57422,-4.4375 1.48438,-1.4375 c 2.1875,-1.9375 3.01562,-2.6875 3.01562,-4.09375 0,-1.59375 -1.25,-2.71875 -2.96875,-2.71875 -1.57812,0 -2.60937,1.29687 -2.60937,2.53125 0,0.79687 0.70312,0.79687 0.73437,0.79687 0.25,0 0.73438,-0.17187 0.73438,-0.75 0,-0.35937 -0.25,-0.71875 -0.75,-0.71875 -0.10938,0 -0.14063,0 -0.17188,0 0.3125,-0.90625 1.07813,-1.42187 1.89063,-1.42187 1.26562,0 1.875,1.14062 1.875,2.28125 0,1.125 -0.70313,2.23437 -1.46875,3.09375 l -2.6875,3 c -0.15625,0.15625 -0.15625,0.17187 -0.15625,0.51562 h 5.1875 l 0.39062,-2.4375 h -0.34375 c -0.0781,0.42188 -0.17187,1.03125 -0.3125,1.25 -0.0937,0.10938 -1.01562,0.10938 -1.32812,0.10938 z m 9.26563,-2.42188 c 0,-1.09375 -0.15625,-2.78125 -0.92188,-4.375 -0.84375,-1.71875 -2.04687,-2.625 -2.1875,-2.625 -0.0781,0 -0.14062,0.0625 -0.14062,0.14063 0,0.0469 0,0.0625 0.26562,0.32812 1.375,1.375 2.17188,3.60938 2.17188,6.53125 0,2.39063 -0.51563,4.85938 -2.25,6.625 -0.1875,0.17188 -0.1875,0.1875 -0.1875,0.23438 0,0.0781 0.0625,0.14062 0.14062,0.14062 0.14063,0 1.40625,-0.95312 2.21875,-2.73437 0.71875,-1.53125 0.89063,-3.09375 0.89063,-4.26563 z m 0,0"
         style="fill:#d33682;fill-opacity:1;fill-rule:nonzero;stroke:none;stroke-width:1.33333" />
      <path
         id="path50"
         d="m 296.17969,266.04297 h 1.35937 c 1.0625,0 1.17188,0.21875 1.17188,0.625 0,0.0937 0,0.26562 -0.10938,0.6875 -0.0156,0.0781 -0.0312,0.125 -0.0312,0.15625 0,0.10937 0.0781,0.17187 0.17188,0.17187 0.14062,0 0.14062,-0.0469 0.20312,-0.29687 l 0.76563,-3.04688 c 0.0469,-0.14062 0.0469,-0.17187 0.0469,-0.21875 0,-0.0312 -0.0312,-0.15625 -0.17187,-0.15625 -0.14063,0 -0.15625,0.0781 -0.20313,0.29688 -0.29687,1.09375 -0.625,1.34375 -1.8125,1.34375 h -1.26562 l 0.89062,-3.5625 c 0.125,-0.48438 0.14063,-0.54688 0.75,-0.54688 h 1.85938 c 1.71875,0 2.03125,0.46875 2.03125,1.54688 0,0.32812 0,0.375 -0.0312,0.75 -0.0312,0.1875 -0.0312,0.21875 -0.0312,0.26562 0,0.0625 0.0469,0.15625 0.17187,0.15625 0.15625,0 0.15625,-0.0781 0.1875,-0.34375 l 0.28125,-2.42187 c 0.0469,-0.375 -0.0312,-0.375 -0.375,-0.375 h -6.85937 c -0.28125,0 -0.42188,0 -0.42188,0.28125 0,0.14062 0.125,0.14062 0.39063,0.14062 0.51562,0 0.90625,0 0.90625,0.26563 0,0.0469 0,0.0781 -0.0625,0.32812 l -1.84375,7.40625 c -0.14063,0.54688 -0.17188,0.65625 -1.28125,0.65625 -0.23438,0 -0.39063,0 -0.39063,0.26563 0,0.17187 0.17188,0.17187 0.20313,0.17187 0.40625,0 1.45312,-0.0469 1.85937,-0.0469 0.45313,0 1.625,0.0469 2.07813,0.0469 0.125,0 0.29687,0 0.29687,-0.26562 0,-0.10938 -0.0781,-0.14063 -0.0781,-0.15625 -0.0469,-0.0156 -0.0781,-0.0156 -0.39063,-0.0156 -0.3125,0 -0.39062,0 -0.73437,-0.0312 -0.40625,-0.0312 -0.45313,-0.0937 -0.45313,-0.26562 0,-0.0312 0,-0.125 0.0625,-0.32813 z m 0,0"
         style="fill:#dc322f;fill-opacity:1;fill-rule:nonzero;stroke:none;stroke-width:1.33333" />
      <path
         id="path51"
         d="m 307.53516,273.94922 c 0,-0.0469 0,-0.0625 -0.25,-0.3125 -1.75,-1.76563 -2.1875,-4.40625 -2.1875,-6.54688 0,-2.4375 0.53125,-4.875 2.25,-6.625 0.1875,-0.17187 0.1875,-0.1875 0.1875,-0.23437 0,-0.0937 -0.0625,-0.14063 -0.14063,-0.14063 -0.14062,0 -1.40625,0.95313 -2.23437,2.73438 -0.71875,1.53125 -0.875,3.09375 -0.875,4.26562 0,1.09375 0.15625,2.78125 0.92187,4.375 0.84375,1.71875 2.04688,2.625 2.1875,2.625 0.0781,0 0.14063,-0.0469 0.14063,-0.14062 z m 7.23046,-7.84375 c 0,-1.10938 -0.0625,-2.23438 -0.5625,-3.26563 -0.64062,-1.34375 -1.78125,-1.57812 -2.375,-1.57812 -0.84375,0 -1.85937,0.375 -2.4375,1.67187 -0.45312,0.96875 -0.51562,2.0625 -0.51562,3.17188 0,1.04687 0.0625,2.3125 0.625,3.375 0.60937,1.14062 1.625,1.42187 2.3125,1.42187 0.75,0 1.82812,-0.29687 2.4375,-1.625 0.45312,-0.96875 0.51562,-2.0625 0.51562,-3.17187 z m -2.95312,4.48437 c -0.54688,0 -1.375,-0.34375 -1.625,-1.6875 -0.15625,-0.84375 -0.15625,-2.14062 -0.15625,-2.95312 0,-0.90625 0,-1.82813 0.10937,-2.57813 0.28125,-1.67187 1.32813,-1.79687 1.67188,-1.79687 0.46875,0 1.39062,0.25 1.65625,1.64062 0.14062,0.78125 0.14062,1.84375 0.14062,2.73438 0,1.04687 0,2 -0.15625,2.89062 -0.21875,1.32813 -1.01562,1.75 -1.64062,1.75 z m 7.5625,-3.5 c 0,-1.09375 -0.15625,-2.78125 -0.92188,-4.375 -0.84375,-1.71875 -2.04687,-2.625 -2.1875,-2.625 -0.0781,0 -0.14062,0.0625 -0.14062,0.14063 0,0.0469 0,0.0625 0.26562,0.32812 1.375,1.375 2.17188,3.60938 2.17188,6.53125 0,2.39063 -0.51563,4.85938 -2.25,6.625 -0.1875,0.17188 -0.1875,0.1875 -0.1875,0.23438 0,0.0781 0.0625,0.14062 0.14062,0.14062 0.14063,0 1.40625,-0.95312 2.21875,-2.73437 0.71875,-1.53125 0.89063,-3.09375 0.89063,-4.26563 z m 0,0"
         style="fill:#dc322f;fill-opacity:1;fill-rule:nonzero;stroke:none;stroke-width:1.33333" />
      <path
         id="path52"
         d="m 255.35547,266.04297 h 1.35937 c 1.0625,0 1.17188,0.21875 1.17188,0.625 0,0.0937 0,0.26562 -0.10938,0.6875 -0.0156,0.0781 -0.0312,0.125 -0.0312,0.15625 0,0.10937 0.0781,0.17187 0.17188,0.17187 0.14062,0 0.14062,-0.0469 0.20312,-0.29687 l 0.76563,-3.04688 c 0.0469,-0.14062 0.0469,-0.17187 0.0469,-0.21875 0,-0.0312 -0.0312,-0.15625 -0.17187,-0.15625 -0.14063,0 -0.15625,0.0781 -0.20313,0.29688 -0.29687,1.09375 -0.625,1.34375 -1.8125,1.34375 h -1.26562 l 0.89062,-3.5625 c 0.125,-0.48438 0.14063,-0.54688 0.75,-0.54688 h 1.85938 c 1.71875,0 2.03125,0.46875 2.03125,1.54688 0,0.32812 0,0.375 -0.0312,0.75 -0.0312,0.1875 -0.0312,0.21875 -0.0312,0.26562 0,0.0625 0.0469,0.15625 0.17187,0.15625 0.15625,0 0.15625,-0.0781 0.1875,-0.34375 l 0.28125,-2.42187 c 0.0469,-0.375 -0.0312,-0.375 -0.375,-0.375 h -6.85937 c -0.28125,0 -0.42188,0 -0.42188,0.28125 0,0.14062 0.125,0.14062 0.39063,0.14062 0.51562,0 0.90625,0 0.90625,0.26563 0,0.0469 0,0.0781 -0.0625,0.32812 l -1.84375,7.40625 c -0.14063,0.54688 -0.17188,0.65625 -1.28125,0.65625 -0.23438,0 -0.39063,0 -0.39063,0.26563 0,0.17187 0.17188,0.17187 0.20313,0.17187 0.40625,0 1.45312,-0.0469 1.85937,-0.0469 0.45313,0 1.625,0.0469 2.07813,0.0469 0.125,0 0.29687,0 0.29687,-0.26562 0,-0.10938 -0.0781,-0.14063 -0.0781,-0.15625 -0.0469,-0.0156 -0.0781,-0.0156 -0.39062,-0.0156 -0.3125,0 -0.39063,0 -0.73438,-0.0312 -0.40625,-0.0312 -0.45312,-0.0937 -0.45312,-0.26562 0,-0.0312 0,-0.125 0.0625,-0.32813 z m 0,0"
         style="fill:#dc322f;fill-opacity:1;fill-rule:nonzero;stroke:none;stroke-width:1.33333" />
      <path
         id="path53"
         d="m 266.71093,273.94922 c 0,-0.0469 0,-0.0625 -0.25,-0.3125 -1.75,-1.76563 -2.1875,-4.40625 -2.1875,-6.54688 0,-2.4375 0.53125,-4.875 2.25,-6.625 0.1875,-0.17187 0.1875,-0.1875 0.1875,-0.23437 0,-0.0937 -0.0625,-0.14063 -0.14062,-0.14063 -0.14063,0 -1.40625,0.95313 -2.23438,2.73438 -0.71875,1.53125 -0.875,3.09375 -0.875,4.26562 0,1.09375 0.15625,2.78125 0.92188,4.375 0.84375,1.71875 2.04687,2.625 2.1875,2.625 0.0781,0 0.14062,-0.0469 0.14062,-0.14062 z m 4.89844,-12.3125 c 0,-0.34375 0,-0.375 -0.3125,-0.375 -0.875,0.90625 -2.10937,0.90625 -2.54687,0.90625 v 0.42187 c 0.28125,0 1.10937,0 1.82812,-0.35937 v 7.25 c 0,0.5 -0.0469,0.67187 -1.29687,0.67187 h -0.45313 v 0.4375 c 0.48438,-0.0469 1.70313,-0.0469 2.26563,-0.0469 0.5625,0 1.78125,0 2.26562,0.0469 v -0.4375 h -0.4375 c -1.26562,0 -1.3125,-0.15625 -1.3125,-0.67187 z m 6.9375,5.45312 c 0,-1.09375 -0.15625,-2.78125 -0.92187,-4.375 -0.84375,-1.71875 -2.04688,-2.625 -2.1875,-2.625 -0.0781,0 -0.14063,0.0625 -0.14063,0.14063 0,0.0469 0,0.0625 0.26563,0.32812 1.375,1.375 2.17187,3.60938 2.17187,6.53125 0,2.39063 -0.51562,4.85938 -2.25,6.625 -0.1875,0.17188 -0.1875,0.1875 -0.1875,0.23438 0,0.0781 0.0625,0.14062 0.14063,0.14062 0.14062,0 1.40625,-0.95312 2.21875,-2.73437 0.71875,-1.53125 0.89062,-3.09375 0.89062,-4.26563 z m 0,0"
         style="fill:#dc322f;fill-opacity:1;fill-rule:nonzero;stroke:none;stroke-width:1.33333" />
      <path
         id="path54"
         d="M 0,-6.32394 -15.30962,-18.31429"
         style="fill:none;stroke:#586e75;stroke-width:0.3985;stroke-linecap:butt;stroke-linejoin:miter;stroke-miterlimit:10;stroke-dasharray:none;stroke-opacity:1"
         transform="matrix(1.3333333,0,0,-1.3333333,285.95351,230.73748)" />
      <path
         id="path55"
         d="M 0,-6.32394 15.30962,-18.31429"
         style="fill:none;stroke:#586e75;stroke-width:0.3985;stroke-linecap:butt;stroke-linejoin:miter;stroke-miterlimit:10;stroke-dasharray:none;stroke-opacity:1"
         transform="matrix(1.3333333,0,0,-1.3333333,285.95351,230.73748)" />
      <path
         id="path56"
         d="m 183.91015,226.1914 h 1.35938 c 1.0625,0 1.17187,0.21875 1.17187,0.625 0,0.0937 0,0.26563 -0.10937,0.6875 -0.0156,0.0781 -0.0312,0.125 -0.0312,0.15625 0,0.10938 0.0781,0.17188 0.17187,0.17188 0.14063,0 0.14063,-0.0469 0.20313,-0.29688 l 0.76562,-3.04687 c 0.0469,-0.14063 0.0469,-0.17188 0.0469,-0.21875 0,-0.0312 -0.0312,-0.15625 -0.17188,-0.15625 -0.14062,0 -0.15625,0.0781 -0.20312,0.29687 -0.29688,1.09375 -0.625,1.34375 -1.8125,1.34375 h -1.26563 l 0.89063,-3.5625 c 0.125,-0.48437 0.14062,-0.54687 0.75,-0.54687 h 1.85937 c 1.71875,0 2.03125,0.46875 2.03125,1.54687 0,0.32813 0,0.375 -0.0312,0.75 -0.0312,0.1875 -0.0312,0.21875 -0.0312,0.26563 0,0.0625 0.0469,0.15625 0.17188,0.15625 0.15625,0 0.15625,-0.0781 0.1875,-0.34375 l 0.28125,-2.42188 c 0.0469,-0.375 -0.0312,-0.375 -0.375,-0.375 h -6.85938 c -0.28125,0 -0.42187,0 -0.42187,0.28125 0,0.14063 0.125,0.14063 0.39062,0.14063 0.51563,0 0.90625,0 0.90625,0.26562 0,0.0469 0,0.0781 -0.0625,0.32813 l -1.84375,7.40625 c -0.14062,0.54687 -0.17187,0.65625 -1.28125,0.65625 -0.23437,0 -0.39062,0 -0.39062,0.26562 0,0.17188 0.17187,0.17188 0.20312,0.17188 0.40625,0 1.45313,-0.0469 1.85938,-0.0469 0.45312,0 1.625,0.0469 2.07812,0.0469 0.125,0 0.29688,0 0.29688,-0.26563 0,-0.10937 -0.0781,-0.14062 -0.0781,-0.15625 -0.0469,-0.0156 -0.0781,-0.0156 -0.39062,-0.0156 -0.3125,0 -0.39063,0 -0.73438,-0.0312 -0.40625,-0.0312 -0.45312,-0.0937 -0.45312,-0.26563 0,-0.0312 0,-0.125 0.0625,-0.32812 z m 0,0"
         style="fill:#d33682;fill-opacity:1;fill-rule:nonzero;stroke:none;stroke-width:1.33333" />
      <path
         id="path57"
         d="m 195.26562,234.09765 c 0,-0.0469 0,-0.0625 -0.25,-0.3125 -1.75,-1.76562 -2.1875,-4.40625 -2.1875,-6.54687 0,-2.4375 0.53125,-4.875 2.25,-6.625 0.1875,-0.17188 0.1875,-0.1875 0.1875,-0.23438 0,-0.0937 -0.0625,-0.14062 -0.14062,-0.14062 -0.14063,0 -1.40625,0.95312 -2.23438,2.73437 -0.71875,1.53125 -0.875,3.09375 -0.875,4.26563 0,1.09375 0.15625,2.78125 0.92188,4.375 0.84375,1.71875 2.04687,2.625 2.1875,2.625 0.0781,0 0.14062,-0.0469 0.14062,-0.14063 z m 4.85156,-8.28125 c 1.14063,-0.39062 1.95313,-1.35937 1.95313,-2.46875 0,-1.15625 -1.23438,-1.9375 -2.57813,-1.9375 -1.40625,0 -2.46875,0.84375 -2.46875,1.90625 0,0.46875 0.3125,0.73438 0.71875,0.73438 0.42188,0 0.70313,-0.3125 0.70313,-0.71875 0,-0.70313 -0.65625,-0.70313 -0.85938,-0.70313 0.42188,-0.6875 1.35938,-0.85937 1.85938,-0.85937 0.57812,0 1.34375,0.29687 1.34375,1.5625 0,0.17187 -0.0312,0.98437 -0.39063,1.59375 -0.42187,0.67187 -0.90625,0.71875 -1.25,0.73437 -0.10937,0.0156 -0.45312,0.0312 -0.54687,0.0312 -0.10937,0.0156 -0.20313,0.0312 -0.20313,0.17188 0,0.15625 0.0937,0.15625 0.32813,0.15625 h 0.625 c 1.14062,0 1.65625,0.95312 1.65625,2.32812 0,1.90625 -0.96875,2.3125 -1.57813,2.3125 -0.60937,0 -1.65625,-0.25 -2.14062,-1.0625 0.48437,0.0625 0.92187,-0.25 0.92187,-0.78125 0,-0.5 -0.375,-0.78125 -0.78125,-0.78125 -0.34375,0 -0.78125,0.20313 -0.78125,0.8125 0,1.28125 1.29688,2.20313 2.82813,2.20313 1.70312,0 2.96875,-1.28125 2.96875,-2.70313 0,-1.15625 -0.875,-2.25 -2.32813,-2.53125 z m 6.98438,1.42188 c 0,-1.09375 -0.15625,-2.78125 -0.92188,-4.375 -0.84375,-1.71875 -2.04687,-2.625 -2.1875,-2.625 -0.0781,0 -0.14062,0.0625 -0.14062,0.14062 0,0.0469 0,0.0625 0.26562,0.32813 1.375,1.375 2.17188,3.60937 2.17188,6.53125 0,2.39062 -0.51563,4.85937 -2.25,6.625 -0.1875,0.17187 -0.1875,0.1875 -0.1875,0.23437 0,0.0781 0.0625,0.14063 0.14062,0.14063 0.14063,0 1.40625,-0.95313 2.21875,-2.73438 0.71875,-1.53125 0.89063,-3.09375 0.89063,-4.26562 z m 0,0"
         style="fill:#d33682;fill-opacity:1;fill-rule:nonzero;stroke:none;stroke-width:1.33333" />
      <path
         id="path58"
         d="m 214.53125,266.04688 h 1.35938 c 1.0625,0 1.17187,0.21875 1.17187,0.625 0,0.0937 0,0.26562 -0.10937,0.6875 -0.0156,0.0781 -0.0312,0.125 -0.0312,0.15625 0,0.10937 0.0781,0.17187 0.17187,0.17187 0.14063,0 0.14063,-0.0469 0.20313,-0.29687 l 0.76562,-3.04688 c 0.0469,-0.14062 0.0469,-0.17187 0.0469,-0.21875 0,-0.0312 -0.0312,-0.15625 -0.17188,-0.15625 -0.14062,0 -0.15625,0.0781 -0.20312,0.29688 -0.29688,1.09375 -0.625,1.34375 -1.8125,1.34375 h -1.26563 l 0.89063,-3.5625 c 0.125,-0.48438 0.14062,-0.54688 0.75,-0.54688 h 1.85937 c 1.71875,0 2.03125,0.46875 2.03125,1.54688 0,0.32812 0,0.375 -0.0312,0.75 -0.0312,0.1875 -0.0312,0.21875 -0.0312,0.26562 0,0.0625 0.0469,0.15625 0.17188,0.15625 0.15625,0 0.15625,-0.0781 0.1875,-0.34375 l 0.28125,-2.42187 c 0.0469,-0.375 -0.0312,-0.375 -0.375,-0.375 h -6.85938 c -0.28125,0 -0.42187,0 -0.42187,0.28125 0,0.14062 0.125,0.14062 0.39062,0.14062 0.51563,0 0.90625,0 0.90625,0.26563 0,0.0469 0,0.0781 -0.0625,0.32812 L 212.5,269.5 c -0.14062,0.54688 -0.17187,0.65625 -1.28125,0.65625 -0.23437,0 -0.39062,0 -0.39062,0.26563 0,0.17187 0.17187,0.17187 0.20312,0.17187 0.40625,0 1.45313,-0.0469 1.85938,-0.0469 0.45312,0 1.625,0.0469 2.07812,0.0469 0.125,0 0.29688,0 0.29688,-0.26562 0,-0.10938 -0.0781,-0.14063 -0.0781,-0.15625 -0.0469,-0.0156 -0.0781,-0.0156 -0.39062,-0.0156 -0.3125,0 -0.39063,0 -0.73438,-0.0312 -0.40625,-0.0312 -0.45312,-0.0937 -0.45312,-0.26562 0,-0.0312 0,-0.125 0.0625,-0.32813 z m 0,0"
         style="fill:#dc322f;fill-opacity:1;fill-rule:nonzero;stroke:none;stroke-width:1.33333" />
      <path
         id="path59"
         d="m 225.88672,273.95313 c 0,-0.0469 0,-0.0625 -0.25,-0.3125 -1.75,-1.76563 -2.1875,-4.40625 -2.1875,-6.54688 0,-2.4375 0.53125,-4.875 2.25,-6.625 0.1875,-0.17187 0.1875,-0.1875 0.1875,-0.23437 0,-0.0937 -0.0625,-0.14063 -0.14062,-0.14063 -0.14063,0 -1.40625,0.95313 -2.23438,2.73438 -0.71875,1.53125 -0.875,3.09375 -0.875,4.26562 0,1.09375 0.15625,2.78125 0.92188,4.375 0.84375,1.71875 2.04687,2.625 2.1875,2.625 0.0781,0 0.14062,-0.0469 0.14062,-0.14062 z m 4.89844,-12.3125 c 0,-0.34375 0,-0.375 -0.3125,-0.375 -0.875,0.90625 -2.10938,0.90625 -2.54688,0.90625 v 0.42187 c 0.28125,0 1.10938,0 1.82813,-0.35937 v 7.25 c 0,0.5 -0.0469,0.67187 -1.29688,0.67187 h -0.45312 v 0.4375 c 0.48437,-0.0469 1.70312,-0.0469 2.26562,-0.0469 0.5625,0 1.78125,0 2.26563,0.0469 v -0.4375 h -0.4375 c -1.26563,0 -1.3125,-0.15625 -1.3125,-0.67187 z m 6.9375,5.45312 c 0,-1.09375 -0.15625,-2.78125 -0.92188,-4.375 -0.84375,-1.71875 -2.04687,-2.625 -2.1875,-2.625 -0.0781,0 -0.14062,0.0625 -0.14062,0.14063 0,0.0469 0,0.0625 0.26562,0.32812 1.375,1.375 2.17188,3.60938 2.17188,6.53125 0,2.39063 -0.51563,4.85938 -2.25,6.625 -0.1875,0.17188 -0.1875,0.1875 -0.1875,0.23438 0,0.0781 0.0625,0.14062 0.14062,0.14062 0.14063,0 1.40625,-0.95312 2.21875,-2.73437 0.71875,-1.53125 0.89063,-3.09375 0.89063,-4.26563 z m 0,0"
         style="fill:#dc322f;fill-opacity:1;fill-rule:nonzero;stroke:none;stroke-width:1.33333" />
      <path
         id="path60"
         d="m 153.28907,266.04687 h 1.35937 c 1.0625,0 1.17188,0.21875 1.17188,0.625 0,0.0937 0,0.26563 -0.10938,0.6875 -0.0156,0.0781 -0.0312,0.125 -0.0312,0.15625 0,0.10938 0.0781,0.17188 0.17188,0.17188 0.14062,0 0.14062,-0.0469 0.20312,-0.29688 l 0.76563,-3.04687 c 0.0469,-0.14063 0.0469,-0.17188 0.0469,-0.21875 0,-0.0312 -0.0312,-0.15625 -0.17187,-0.15625 -0.14063,0 -0.15625,0.0781 -0.20313,0.29687 -0.29687,1.09375 -0.625,1.34375 -1.8125,1.34375 h -1.26562 l 0.89062,-3.5625 c 0.125,-0.48437 0.14063,-0.54687 0.75,-0.54687 h 1.85938 c 1.71875,0 2.03125,0.46875 2.03125,1.54687 0,0.32813 0,0.375 -0.0312,0.75 -0.0312,0.1875 -0.0312,0.21875 -0.0312,0.26563 0,0.0625 0.0469,0.15625 0.17187,0.15625 0.15625,0 0.15625,-0.0781 0.1875,-0.34375 l 0.28125,-2.42188 c 0.0469,-0.375 -0.0312,-0.375 -0.375,-0.375 h -6.85937 c -0.28125,0 -0.42188,0 -0.42188,0.28125 0,0.14063 0.125,0.14063 0.39063,0.14063 0.51562,0 0.90625,0 0.90625,0.26562 0,0.0469 0,0.0781 -0.0625,0.32813 L 151.25782,269.5 c -0.14063,0.54687 -0.17188,0.65625 -1.28125,0.65625 -0.23438,0 -0.39063,0 -0.39063,0.26562 0,0.17188 0.17188,0.17188 0.20313,0.17188 0.40625,0 1.45312,-0.0469 1.85937,-0.0469 0.45313,0 1.625,0.0469 2.07813,0.0469 0.125,0 0.29687,0 0.29687,-0.26563 0,-0.10937 -0.0781,-0.14062 -0.0781,-0.15625 -0.0469,-0.0156 -0.0781,-0.0156 -0.39063,-0.0156 -0.3125,0 -0.39062,0 -0.73437,-0.0312 -0.40625,-0.0312 -0.45313,-0.0937 -0.45313,-0.26563 0,-0.0312 0,-0.125 0.0625,-0.32812 z m 0,0"
         style="fill:#d33682;fill-opacity:1;fill-rule:nonzero;stroke:none;stroke-width:1.33333" />
      <path
         id="path61"
         d="m 164.64453,273.95312 c 0,-0.0469 0,-0.0625 -0.25,-0.3125 -1.75,-1.76562 -2.1875,-4.40625 -2.1875,-6.54687 0,-2.4375 0.53125,-4.875 2.25,-6.625 0.1875,-0.17188 0.1875,-0.1875 0.1875,-0.23438 0,-0.0937 -0.0625,-0.14062 -0.14062,-0.14062 -0.14063,0 -1.40625,0.95312 -2.23438,2.73437 -0.71875,1.53125 -0.875,3.09375 -0.875,4.26563 0,1.09375 0.15625,2.78125 0.92188,4.375 0.84375,1.71875 2.04687,2.625 2.1875,2.625 0.0781,0 0.14062,-0.0469 0.14062,-0.14063 z m 2.57422,-4.4375 1.48438,-1.4375 c 2.1875,-1.9375 3.01562,-2.6875 3.01562,-4.09375 0,-1.59375 -1.25,-2.71875 -2.96875,-2.71875 -1.57812,0 -2.60937,1.29688 -2.60937,2.53125 0,0.79688 0.70312,0.79688 0.73437,0.79688 0.25,0 0.73438,-0.17188 0.73438,-0.75 0,-0.35938 -0.25,-0.71875 -0.75,-0.71875 -0.10938,0 -0.14063,0 -0.17188,0 0.3125,-0.90625 1.07813,-1.42188 1.89063,-1.42188 1.26562,0 1.875,1.14063 1.875,2.28125 0,1.125 -0.70313,2.23438 -1.46875,3.09375 l -2.6875,3 c -0.15625,0.15625 -0.15625,0.17188 -0.15625,0.51563 h 5.1875 l 0.39062,-2.4375 H 171.375 c -0.0781,0.42187 -0.17187,1.03125 -0.3125,1.25 -0.0937,0.10937 -1.01562,0.10937 -1.32812,0.10937 z m 9.26563,-2.42187 c 0,-1.09375 -0.15625,-2.78125 -0.92188,-4.375 -0.84375,-1.71875 -2.04687,-2.625 -2.1875,-2.625 -0.0781,0 -0.14062,0.0625 -0.14062,0.14062 0,0.0469 0,0.0625 0.26562,0.32813 1.375,1.375 2.17188,3.60937 2.17188,6.53125 0,2.39062 -0.51563,4.85937 -2.25,6.625 -0.1875,0.17187 -0.1875,0.1875 -0.1875,0.23437 0,0.0781 0.0625,0.14063 0.14062,0.14063 0.14063,0 1.40625,-0.95313 2.21875,-2.73438 0.71875,-1.53125 0.89063,-3.09375 0.89063,-4.26562 z m 0,0"
         style="fill:#d33682;fill-opacity:1;fill-rule:nonzero;stroke:none;stroke-width:1.33333" />
      <path
         id="path62"
         d="m 173.70312,305.89843 h 1.35938 c 1.0625,0 1.17187,0.21875 1.17187,0.625 0,0.0937 0,0.26563 -0.10937,0.6875 -0.0156,0.0781 -0.0312,0.125 -0.0312,0.15625 0,0.10938 0.0781,0.17188 0.17188,0.17188 0.14062,0 0.14062,-0.0469 0.20312,-0.29688 l 0.76563,-3.04687 c 0.0469,-0.14063 0.0469,-0.17188 0.0469,-0.21875 0,-0.0312 -0.0312,-0.15625 -0.17187,-0.15625 -0.14063,0 -0.15625,0.0781 -0.20313,0.29687 -0.29687,1.09375 -0.625,1.34375 -1.8125,1.34375 h -1.26563 l 0.89063,-3.5625 c 0.125,-0.48437 0.14062,-0.54687 0.75,-0.54687 h 1.85937 c 1.71875,0 2.03125,0.46875 2.03125,1.54687 0,0.32813 0,0.375 -0.0312,0.75 -0.0312,0.1875 -0.0312,0.21875 -0.0312,0.26563 0,0.0625 0.0469,0.15625 0.17187,0.15625 0.15625,0 0.15625,-0.0781 0.1875,-0.34375 l 0.28125,-2.42188 c 0.0469,-0.375 -0.0312,-0.375 -0.375,-0.375 h -6.85938 c -0.28125,0 -0.42187,0 -0.42187,0.28125 0,0.14063 0.125,0.14063 0.39062,0.14063 0.51563,0 0.90625,0 0.90625,0.26562 0,0.0469 0,0.0781 -0.0625,0.32813 l -1.84375,7.40625 c -0.14062,0.54687 -0.17187,0.65625 -1.28125,0.65625 -0.23437,0 -0.39062,0 -0.39062,0.26562 0,0.17188 0.17187,0.17188 0.20312,0.17188 0.40625,0 1.45313,-0.0469 1.85938,-0.0469 0.45312,0 1.625,0.0469 2.07812,0.0469 0.125,0 0.29688,0 0.29688,-0.26563 0,-0.10937 -0.0781,-0.14062 -0.0781,-0.15625 -0.0469,-0.0156 -0.0781,-0.0156 -0.39062,-0.0156 -0.3125,0 -0.39063,0 -0.73438,-0.0312 -0.40625,-0.0312 -0.45312,-0.0937 -0.45312,-0.26563 0,-0.0312 0,-0.125 0.0625,-0.32812 z m 0,0"
         style="fill:#dc322f;fill-opacity:1;fill-rule:nonzero;stroke:none;stroke-width:1.33333" />
      <path
         id="path63"
         d="m 185.05469,313.80468 c 0,-0.0469 0,-0.0625 -0.25,-0.3125 -1.75,-1.76562 -2.1875,-4.40625 -2.1875,-6.54687 0,-2.4375 0.53125,-4.875 2.25,-6.625 0.1875,-0.17188 0.1875,-0.1875 0.1875,-0.23438 0,-0.0937 -0.0625,-0.14062 -0.14063,-0.14062 -0.14062,0 -1.40625,0.95312 -2.23437,2.73437 -0.71875,1.53125 -0.875,3.09375 -0.875,4.26563 0,1.09375 0.15625,2.78125 0.92187,4.375 0.84375,1.71875 2.04688,2.625 2.1875,2.625 0.0781,0 0.14063,-0.0469 0.14063,-0.14063 z m 7.23047,-7.84375 c 0,-1.10937 -0.0625,-2.23437 -0.5625,-3.26562 -0.64063,-1.34375 -1.78125,-1.57813 -2.375,-1.57813 -0.84375,0 -1.85938,0.375 -2.4375,1.67188 -0.45313,0.96875 -0.51563,2.0625 -0.51563,3.17187 0,1.04688 0.0625,2.3125 0.625,3.375 0.60938,1.14063 1.625,1.42188 2.3125,1.42188 0.75,0 1.82813,-0.29688 2.4375,-1.625 0.45313,-0.96875 0.51563,-2.0625 0.51563,-3.17188 z m -2.95313,4.48438 c -0.54687,0 -1.375,-0.34375 -1.625,-1.6875 -0.15625,-0.84375 -0.15625,-2.14063 -0.15625,-2.95313 0,-0.90625 0,-1.82812 0.10937,-2.57812 0.28125,-1.67188 1.32813,-1.79688 1.67188,-1.79688 0.46875,0 1.39062,0.25 1.65625,1.64063 0.14062,0.78125 0.14062,1.84375 0.14062,2.73437 0,1.04688 0,2 -0.15625,2.89063 -0.21874,1.32812 -1.01562,1.75 -1.64062,1.75 z m 7.5625,-3.5 c 0,-1.09375 -0.15625,-2.78125 -0.92187,-4.375 -0.84375,-1.71875 -2.04688,-2.625 -2.1875,-2.625 -0.0781,0 -0.14063,0.0625 -0.14063,0.14062 0,0.0469 0,0.0625 0.26563,0.32813 1.375,1.375 2.17187,3.60937 2.17187,6.53125 0,2.39062 -0.51562,4.85937 -2.25,6.625 -0.1875,0.17187 -0.1875,0.1875 -0.1875,0.23437 0,0.0781 0.0625,0.14063 0.14063,0.14063 0.14062,0 1.40625,-0.95313 2.21875,-2.73438 0.71875,-1.53125 0.89062,-3.09375 0.89062,-4.26562 z m 0,0"
         style="fill:#dc322f;fill-opacity:1;fill-rule:nonzero;stroke:none;stroke-width:1.33333" />
      <path
         id="path64"
         d="m 132.8789,305.89844 h 1.35938 c 1.0625,0 1.17187,0.21875 1.17187,0.625 0,0.0937 0,0.26562 -0.10937,0.6875 -0.0156,0.0781 -0.0312,0.125 -0.0312,0.15625 0,0.10937 0.0781,0.17187 0.17187,0.17187 0.14063,0 0.14063,-0.0469 0.20313,-0.29687 l 0.76562,-3.04688 c 0.0469,-0.14062 0.0469,-0.17187 0.0469,-0.21875 0,-0.0312 -0.0312,-0.15625 -0.17188,-0.15625 -0.14062,0 -0.15625,0.0781 -0.20312,0.29688 -0.29688,1.09375 -0.625,1.34375 -1.8125,1.34375 h -1.26563 l 0.89063,-3.5625 c 0.125,-0.48438 0.14062,-0.54688 0.75,-0.54688 h 1.85937 c 1.71875,0 2.03125,0.46875 2.03125,1.54688 0,0.32812 0,0.375 -0.0312,0.75 -0.0312,0.1875 -0.0312,0.21875 -0.0312,0.26562 0,0.0625 0.0469,0.15625 0.17188,0.15625 0.15625,0 0.15625,-0.0781 0.1875,-0.34375 l 0.28125,-2.42187 c 0.0469,-0.375 -0.0312,-0.375 -0.375,-0.375 h -6.85938 c -0.28125,0 -0.42187,0 -0.42187,0.28125 0,0.14062 0.125,0.14062 0.39062,0.14062 0.51563,0 0.90625,0 0.90625,0.26563 0,0.0469 0,0.0781 -0.0625,0.32812 l -1.84375,7.40625 c -0.14062,0.54688 -0.17187,0.65625 -1.28125,0.65625 -0.23437,0 -0.39062,0 -0.39062,0.26563 0,0.17187 0.17187,0.17187 0.20312,0.17187 0.40625,0 1.45313,-0.0469 1.85938,-0.0469 0.45312,0 1.625,0.0469 2.07812,0.0469 0.125,0 0.29688,0 0.29688,-0.26562 0,-0.10938 -0.0781,-0.14063 -0.0781,-0.15625 -0.0469,-0.0156 -0.0781,-0.0156 -0.39062,-0.0156 -0.3125,0 -0.39063,0 -0.73438,-0.0312 -0.40625,-0.0312 -0.45312,-0.0937 -0.45312,-0.26562 0,-0.0312 0,-0.125 0.0625,-0.32813 z m 0,0"
         style="fill:#dc322f;fill-opacity:1;fill-rule:nonzero;stroke:none;stroke-width:1.33333" />
      <path
         id="path65"
         d="m 144.23047,313.80469 c 0,-0.0469 0,-0.0625 -0.25,-0.3125 -1.75,-1.76563 -2.1875,-4.40625 -2.1875,-6.54688 0,-2.4375 0.53124,-4.875 2.25,-6.625 0.1875,-0.17187 0.1875,-0.1875 0.1875,-0.23437 0,-0.0937 -0.0625,-0.14063 -0.14063,-0.14063 -0.14063,0 -1.40625,0.95313 -2.23437,2.73438 -0.71875,1.53125 -0.875,3.09375 -0.875,4.26562 0,1.09375 0.15625,2.78125 0.92187,4.375 0.84375,1.71875 2.04687,2.625 2.1875,2.625 0.0781,0 0.14063,-0.0469 0.14063,-0.14062 z m 4.90234,-12.3125 c 0,-0.34375 0,-0.375 -0.3125,-0.375 -0.875,0.90625 -2.10938,0.90625 -2.54688,0.90625 v 0.42187 c 0.28125,0 1.10938,0 1.82813,-0.35937 v 7.25 c 0,0.5 -0.0469,0.67187 -1.29688,0.67187 h -0.45312 v 0.4375 c 0.48437,-0.0469 1.70312,-0.0469 2.26562,-0.0469 0.5625,0 1.78125,0 2.26563,0.0469 v -0.4375 h -0.4375 c -1.26563,0 -1.3125,-0.15625 -1.3125,-0.67187 z m 6.9375,5.45312 c 0,-1.09375 -0.15625,-2.78125 -0.92188,-4.375 -0.84375,-1.71875 -2.04687,-2.625 -2.1875,-2.625 -0.0781,0 -0.14062,0.0625 -0.14062,0.14063 0,0.0469 0,0.0625 0.26562,0.32812 1.375,1.375 2.17188,3.60938 2.17188,6.53125 0,2.39063 -0.51563,4.85938 -2.25,6.625 -0.1875,0.17188 -0.1875,0.1875 -0.1875,0.23438 0,0.0781 0.0625,0.14062 0.14062,0.14062 0.14063,0 1.40625,-0.95312 2.21875,-2.73437 0.71875,-1.53125 0.89063,-3.09375 0.89063,-4.26563 z m 0,0"
         style="fill:#dc322f;fill-opacity:1;fill-rule:nonzero;stroke:none;stroke-width:1.33333" />
      <path
         id="path66"
         d="M 0,-6.32394 -15.30962,-18.31429"
         style="fill:none;stroke:#586e75;stroke-width:0.3985;stroke-linecap:butt;stroke-linejoin:miter;stroke-miterlimit:10;stroke-dasharray:none;stroke-opacity:1"
         transform="matrix(1.3333333,0,0,-1.3333333,163.47437,270.59333)" />
      <path
         id="path67"
         d="M 0,-6.32394 15.30962,-18.31429"
         style="fill:none;stroke:#586e75;stroke-width:0.3985;stroke-linecap:butt;stroke-linejoin:miter;stroke-miterlimit:10;stroke-dasharray:none;stroke-opacity:1"
         transform="matrix(1.3333333,0,0,-1.3333333,163.47437,270.59333)" />
      <path
         id="path68"
         d="M 0,-6.32394 -22.96442,-18.31429"
         style="fill:none;stroke:#586e75;stroke-width:0.3985;stroke-linecap:butt;stroke-linejoin:miter;stroke-miterlimit:10;stroke-dasharray:none;stroke-opacity:1"
         transform="matrix(1.3333333,0,0,-1.3333333,194.09432,230.73961)" />
      <path
         id="path69"
         d="M 0,-6.32394 22.96443,-18.31429"
         style="fill:none;stroke:#586e75;stroke-width:0.3985;stroke-linecap:butt;stroke-linejoin:miter;stroke-miterlimit:10;stroke-dasharray:none;stroke-opacity:1"
         transform="matrix(1.3333333,0,0,-1.3333333,194.09432,230.73961)" />
      <path
         id="path70"
         d="M 0,-6.32394 -34.44664,-18.31429"
         style="fill:none;stroke:#586e75;stroke-width:0.3985;stroke-linecap:butt;stroke-linejoin:miter;stroke-miterlimit:10;stroke-dasharray:none;stroke-opacity:1"
         transform="matrix(1.3333333,0,0,-1.3333333,240.02551,190.88415)" />
      <path
         id="path71"
         d="M 0,-6.32394 34.44666,-18.31429"
         style="fill:none;stroke:#586e75;stroke-width:0.3985;stroke-linecap:butt;stroke-linejoin:miter;stroke-miterlimit:10;stroke-dasharray:none;stroke-opacity:1"
         transform="matrix(1.3333333,0,0,-1.3333333,240.02551,190.88415)" />
      <path
         id="path72"
         d="M 0,-6.32394 -59.32478,-18.31429"
         style="fill:none;stroke:#586e75;stroke-width:0.3985;stroke-linecap:butt;stroke-linejoin:miter;stroke-miterlimit:10;stroke-dasharray:none;stroke-opacity:1"
         transform="matrix(1.3333333,0,0,-1.3333333,319.13089,151.02695)" />
      <path
         id="path73"
         d="M 0,-6.32394 59.32478,-18.31429"
         style="fill:none;stroke:#586e75;stroke-width:0.3985;stroke-linecap:butt;stroke-linejoin:miter;stroke-miterlimit:10;stroke-dasharray:none;stroke-opacity:1"
         transform="matrix(1.3333333,0,0,-1.3333333,319.13089,151.02695)" />
      <path
         id="path74"
         d="M 0,-6.32394 -92.81458,-18.31429"
         style="fill:none;stroke:#586e75;stroke-width:0.3985;stroke-linecap:butt;stroke-linejoin:miter;stroke-miterlimit:10;stroke-dasharray:none;stroke-opacity:1"
         transform="matrix(1.3333333,0,0,-1.3333333,442.89067,111.168)" />
      <path
         id="path75"
         d="M 0,-6.32394 92.81459,-18.31429"
         style="fill:none;stroke:#586e75;stroke-width:0.3985;stroke-linecap:butt;stroke-linejoin:miter;stroke-miterlimit:10;stroke-dasharray:none;stroke-opacity:1"
         transform="matrix(1.3333333,0,0,-1.3333333,442.89067,111.168)" />
    </g>
  </g>
</svg>
