<?xml version="1.0" encoding="UTF-8" standalone="no"?>
<!-- Created with Inkscape (http://www.inkscape.org/) -->

<svg
   version="1.1"
   id="svg1"
   width="315.88"
   height="361.34668"
   viewBox="0 0 315.88 361.34668"
   sodipodi:docname="fibo-mem.svg"
   inkscape:version="1.4.3 (0d15f75042, 2025-12-25)"
   xmlns:inkscape="http://www.inkscape.org/namespaces/inkscape"
   xmlns:sodipodi="http://sodipodi.sourceforge.net/DTD/sodipodi-0.dtd"
   xmlns="http://www.w3.org/2000/svg"
   xmlns:svg="http://www.w3.org/2000/svg">
  <defs
     id="defs1" />
  <sodipodi:namedview
     id="namedview1"
     pagecolor="#ffffff"
     bordercolor="#666666"
     borderopacity="1.0"
     inkscape:showpageshadow="2"
     inkscape:pageopacity="0.0"
     inkscape:pagecheckerboard="0"
     inkscape:deskcolor="#d1d1d1"
     inkscape:zoom="3.6203867"
     inkscape:cx="145.70267"
     inkscape:cy="224.14733"
     inkscape:window-width="3840"
     inkscape:window-height="2346"
     inkscape:window-x="0"
     inkscape:window-y="54"
     inkscape:window-maximized="1"
     inkscape:current-layer="g1">
    <inkscape:page
       x="0"
       y="0"
       inkscape:label="2"
       id="page1"
       width="315.88"
       height="361.34668"
       margin="0"
       bleed="0" />
  </sodipodi:namedview>
  <g
     id="g1"
     inkscape:groupmode="layer"
     inkscape:label="2">
    <path
       id="path1"
       d="m 2.9881172,-9.8442109 c 0,0.1523437 0.1640625,0.234375 0.4804687,0.234375 0.5976563,0 0.890625,0.058594 0.890625,0.1875 0,0.046875 -0.023437,0.1523437 -0.070312,0.3515625 l -1.9453125,7.8398437 c -0.09375,0.32812501 -0.2460937,0.52734376 -0.4570312,0.59765626 -0.1054688,0.0351563 -0.375,0.046875 -0.8320313,0.046875 -0.33984371,0 -0.48046871,0.0351563 -0.48046871,0.3515625 0,0.1640625 0.0820313,0.2343750025 0.28125,0.2343750025 L 2.8006172,-0.04733594 5.0271797,-4.609375e-4 c 0.234375,0 0.3632812,-0.1171875025 0.3632812,-0.3398437525 0,-0.2578125 -0.1757812,-0.24609375 -0.5625,-0.24609375 -0.65625,0 -1.03125,-0.0234375 -1.125,-0.10546875 -0.046875,-0.0117188 -0.058594,-0.0703125 -0.058594,-0.15234375 L 4.6053047,-4.8168672 h 1.3945312 c 0.6914063,0 1.171875,0.035156 1.171875,0.5976563 0,0.1992187 -0.035156,0.4335937 -0.1054687,0.7265625 -0.011719,0.046875 -0.035156,0.1054687 -0.046875,0.1640625 0,0.1640625 0.070312,0.234375 0.2460937,0.234375 0.070312,-0.011719 0.1757813,-0.1171875 0.28125,-0.3398438 l 0.8085938,-3.2226562 c 0.035156,-0.1289063 0.046875,-0.2109375 0.046875,-0.2578125 -0.046875,-0.140625 -0.140625,-0.2109375 -0.2460938,-0.2109375 -0.1171875,0 -0.2109375,0.1171875 -0.2695312,0.3398437 -0.1523438,0.5742188 -0.3515625,0.9375 -0.5976563,1.1132813 -0.234375,0.1875 -0.65625,0.2695312 -1.2539062,0.2695312 H 4.7576484 l 0.9257813,-3.6914062 c 0.1171875,-0.5039063 0.1171875,-0.515625 0.75,-0.515625 h 1.9570312 c 1.453125,0 2.1093751,0.2226562 2.1093751,1.5585937 0,0.2929688 -0.01172,0.5625 -0.04687,0.7851563 -0.01172,0.1757812 -0.02344,0.2578125 -0.02344,0.28125 0,0.1640625 0.07031,0.234375 0.222657,0.234375 0.152343,0 0.234375,-0.140625 0.269531,-0.421875 l 0.292969,-2.5664063 c 0.04687,-0.4218748 -0.05859,-0.4570308 -0.457032,-0.4570308 H 3.4920234 c -0.3398437,0 -0.5039062,0.01172 -0.5039062,0.3515621 z M 16.423664,3.7143828 c 0.140625,0 0.210938,-0.070312 0.210938,-0.1992187 0,-0.046875 -0.03516,-0.1054688 -0.07031,-0.1757813 C 15.779133,2.7417266 15.14632,1.7573516 14.689289,0.38625781 14.279133,-0.79733594 14.068195,-1.9692109 14.068195,-3.1176484 v -1.265625 c 0,-1.1484375 0.210938,-2.3203125 0.621094,-3.5039063 0.457031,-1.3710937 1.089844,-2.3554683 1.875,-2.9531253 0.03516,-0.04687 0.07031,-0.105468 0.07031,-0.175781 0,-0.128906 -0.07031,-0.199219 -0.210938,-0.199219 -0.01172,0 -0.05859,0.01172 -0.105469,0.03516 -0.902343,0.691406 -1.652343,1.7109371 -2.261718,3.0820308 -0.585938,1.3007813 -0.890625,2.53125 -0.890625,3.7148438 v 1.265625 c 0,1.1835937 0.304687,2.41406246 0.890625,3.71484371 0.609375,1.37109379 1.359375,2.39062499 2.261718,3.08203129 0.04687,0.023437 0.09375,0.035156 0.105469,0.035156 z m 6.808594,-11.2734375 c 0.492187,0 0.738281,-0.2578125 0.738281,-0.7617187 0,-1.0898438 -0.808594,-1.6640625 -1.921875,-1.6640625 -1.242187,0 -2.238281,0.5742187 -2.964844,1.7695312 -0.644531,1.0195313 -0.960937,2.1679688 -0.960937,3.4804688 0,1.8984375 0.339844,3.234375 1.042969,4.03124996 0.609375,0.69140625 1.289062,1.03125 2.085937,1.03125 0.914063,0 1.664063,-0.33984375 2.25,-1.03125 0.5625,-0.65624996 0.84375,-1.45312496 0.84375,-2.36718746 0,-0.9140625 -0.269531,-1.6992188 -0.808594,-2.34375 -0.574218,-0.6914063 -1.3125,-1.0546875 -2.191406,-1.0546875 -0.785156,0 -1.382812,0.4335937 -1.78125,1.2773437 v -0.09375 c 0,-1.6875 0.410156,-3.1289062 1.3125,-3.7851562 0.398438,-0.2929688 0.796875,-0.421875 1.207031,-0.421875 0.539063,0 0.925782,0.1523437 1.183594,0.4570312 -0.515625,0 -0.761719,0.2929688 -0.761719,0.7382813 0,0.421875 0.304688,0.7382812 0.726563,0.7382812 z m -0.585938,2.4609375 c 0.164063,0.3398438 0.257813,1.0195313 0.257813,2.0039063 0,0.984375 -0.07031,1.6289062 -0.234375,1.9570312 -0.304688,0.60937501 -0.773438,0.92578126 -1.417969,0.92578126 -0.433594,0 -0.761719,-0.15234375 -0.996094,-0.4453125 -0.199218,-0.24609375 -0.339843,-0.45703126 -0.398437,-0.62109376 -0.175781,-0.4570312 -0.269531,-1.171875 -0.269531,-2.1328125 0,-0.4101562 0.05859,-0.8203125 0.164062,-1.2070312 0.199219,-0.703125 0.75,-1.3710938 1.582031,-1.3710938 0.585938,0 1.03125,0.3046875 1.3125,0.890625 z m 3.515625,8.7773438 c 0.902344,-0.6914063 1.652344,-1.7109375 2.261719,-3.08203129 0.585938,-1.30078125 0.890625,-2.53125001 0.890625,-3.71484371 v -1.265625 c 0,-1.1835938 -0.304687,-2.4140625 -0.890625,-3.7148438 -0.609375,-1.3710937 -1.359375,-2.3906248 -2.261719,-3.0820308 -0.04687,-0.02344 -0.09375,-0.03516 -0.105468,-0.03516 -0.140625,0 -0.210938,0.07031 -0.210938,0.199219 0,0.07031 0.03516,0.128906 0.07031,0.175781 0.785156,0.597657 1.417968,1.5820316 1.875,2.9531253 0.410156,1.1835938 0.621093,2.3554688 0.621093,3.5039063 v 1.265625 c 0,1.1484375 -0.210937,2.32031246 -0.621093,3.50390621 -0.457032,1.37109379 -1.089844,2.35546879 -1.875,2.95312499 -0.03516,0.070312 -0.07031,0.1289063 -0.07031,0.1757813 0,0.1289062 0.07031,0.1992187 0.210938,0.1992187 0.01172,0 0.05859,-0.011719 0.105468,-0.035156 z m 0,0"
       style="fill:#d33682;fill-opacity:1;fill-rule:nonzero;stroke:none"
       aria-label="𝐹(6)"
       transform="matrix(1.3333333,0,0,1.3333333,218.676,19.637333)" />
    <path
       id="path2"
       d="m 2.9873828,-9.843875 c 0,0.1523437 0.1640625,0.234375 0.4804688,0.234375 0.5976562,0 0.890625,0.058594 0.890625,0.1875 0,0.046875 -0.023437,0.1523437 -0.070312,0.3515625 l -1.9453125,7.8398437 c -0.09375,0.32812505 -0.2460938,0.5273438 -0.4570313,0.5976563 -0.1054687,0.0351563 -0.375,0.046875 -0.8320312,0.046875 -0.33984379,0 -0.48046879,0.0351563 -0.48046879,0.3515625 0,0.1640625 0.0820313,0.234375 0.28125,0.234375 L 2.7998828,-0.047 5.0264453,-1.25e-4 c 0.234375,0 0.3632813,-0.1171875 0.3632813,-0.33984375 0,-0.2578125 -0.1757813,-0.24609375 -0.5625,-0.24609375 -0.65625,0 -1.03125,-0.0234375 -1.125,-0.10546875 C 3.6553516,-0.70325 3.6436328,-0.76184375 3.6436328,-0.843875 l 0.9609375,-3.9726563 h 1.3945313 c 0.6914062,0 1.171875,0.035156 1.171875,0.5976563 0,0.1992187 -0.035156,0.4335937 -0.1054688,0.7265625 -0.011719,0.046875 -0.035156,0.1054687 -0.046875,0.1640625 0,0.1640625 0.070312,0.234375 0.2460938,0.234375 0.070312,-0.011719 0.1757812,-0.1171875 0.28125,-0.3398438 L 8.3545703,-6.656375 c 0.035156,-0.1289063 0.046875,-0.2109375 0.046875,-0.2578125 -0.046875,-0.140625 -0.140625,-0.2109375 -0.2460937,-0.2109375 -0.1171875,0 -0.2109375,0.1171875 -0.2695313,0.3398437 -0.1523437,0.5742188 -0.3515625,0.9375 -0.5976562,1.1132813 -0.234375,0.1875 -0.65625,0.2695312 -1.2539063,0.2695312 H 4.7569141 L 5.6826953,-9.093875 c 0.1171875,-0.5039063 0.1171875,-0.515625 0.75,-0.515625 h 1.9570313 c 1.453125,0 2.1093754,0.2226562 2.1093754,1.5585937 0,0.2929688 -0.01172,0.5625 -0.04687,0.7851563 -0.01172,0.1757812 -0.02344,0.2578125 -0.02344,0.28125 0,0.1640625 0.07031,0.234375 0.222656,0.234375 0.152344,0 0.234375,-0.140625 0.269532,-0.421875 l 0.292968,-2.5664063 c 0.04687,-0.4218747 -0.05859,-0.4570317 -0.457031,-0.4570317 H 3.4912891 c -0.3398438,0 -0.5039063,0.01172 -0.5039063,0.351563 z M 16.408281,3.7147187 c 0.140625,0 0.210938,-0.070312 0.210938,-0.1992187 0,-0.046875 -0.03516,-0.1054688 -0.07031,-0.1757813 C 15.76375,2.7420625 15.130937,1.7576875 14.673906,0.38659375 14.26375,-0.797 14.052812,-1.968875 14.052812,-3.1173125 v -1.265625 c 0,-1.1484375 0.210938,-2.3203125 0.621094,-3.5039063 0.457031,-1.3710937 1.089844,-2.3554692 1.875,-2.9531252 0.03516,-0.04687 0.07031,-0.105469 0.07031,-0.175781 0,-0.128906 -0.07031,-0.199219 -0.210938,-0.199219 -0.01172,0 -0.05859,0.01172 -0.105469,0.03516 -0.902343,0.691407 -1.652343,1.710938 -2.261718,3.0820317 -0.585938,1.3007813 -0.890625,2.53125 -0.890625,3.7148438 v 1.265625 c 0,1.1835937 0.304687,2.4140625 0.890625,3.71484375 0.609375,1.37109375 1.359375,2.39062495 2.261718,3.08203125 0.04687,0.023437 0.09375,0.035156 0.105469,0.035156 z m 6.363281,-13.8749997 c -0.140625,0 -0.257812,0.08203 -0.351562,0.2109372 l -4.523438,6.9609375 v 0.5390625 h 3.914063 v 1.2304688 c 0,0.26953125 -0.05859,0.45703125 -0.164063,0.52734375 -0.105468,0.0820313 -0.386718,0.10546875 -0.890625,0.10546875 h -0.375 V -1.25e-4 c 0.433594,-0.03515625 1.125,-0.046875 2.0625,-0.046875 0.925782,0 1.617188,0.01171875 2.050782,0.046875 v -0.5859375 h -0.375 c -0.492188,0 -0.785157,-0.0234375 -0.878907,-0.10546875 -0.105468,-0.0703125 -0.175781,-0.2578125 -0.175781,-0.52734375 v -1.2304688 h 1.476563 v -0.5859375 h -1.476563 v -6.8671875 c 0,-0.1523442 -0.105469,-0.2578122 -0.292969,-0.2578122 z M 21.904375,-8.297 v 5.2617187 H 18.4825 Z M 26.146562,3.6795625 C 27.048906,2.9881562 27.798906,1.968625 28.408281,0.59753125 28.994219,-0.70325 29.298906,-1.9337188 29.298906,-3.1173125 v -1.265625 c 0,-1.1835938 -0.304687,-2.4140625 -0.890625,-3.7148438 -0.609375,-1.3710937 -1.359375,-2.3906247 -2.261719,-3.0820317 -0.04687,-0.02344 -0.09375,-0.03516 -0.105468,-0.03516 -0.140625,0 -0.210938,0.07031 -0.210938,0.199219 0,0.07031 0.03516,0.128906 0.07031,0.175781 0.785156,0.597656 1.417968,1.5820315 1.875,2.9531252 0.410156,1.1835938 0.621093,2.3554688 0.621093,3.5039063 v 1.265625 c 0,1.1484375 -0.210937,2.3203125 -0.621093,3.50390625 -0.457032,1.37109375 -1.089844,2.35546875 -1.875,2.95312495 -0.03516,0.070312 -0.07031,0.1289063 -0.07031,0.1757813 0,0.1289062 0.07031,0.1992187 0.210938,0.1992187 0.01172,0 0.05859,-0.011719 0.105468,-0.035156 z m 0,0"
       style="fill:#268bd2;fill-opacity:1;fill-rule:nonzero;stroke:none"
       aria-label="𝐹(4)"
       transform="matrix(1.3333333,0,0,1.3333333,270.10667,86.062667)" />
    <path
       id="path3"
       d="m 2.9885922,-9.8448553 c 0,0.1523437 0.1640625,0.234375 0.4804687,0.234375 0.5976563,0 0.890625,0.058594 0.890625,0.1875 0,0.046875 -0.023437,0.1523437 -0.070312,0.3515625 l -1.9453125,7.8398437 c -0.09375,0.32812504 -0.2460937,0.52734379 -0.4570312,0.59765629 -0.1054688,0.0351563 -0.375,0.046875 -0.8320313,0.046875 -0.33984371,0 -0.48046871,0.0351563 -0.48046871,0.3515625 0,0.1640625 0.0820313,0.234375 0.28125,0.234375 l 1.94531251,-0.046875 2.2265625,0.046875 c 0.234375,0 0.3632812,-0.1171875 0.3632812,-0.33984375 0,-0.2578125 -0.1757812,-0.24609375 -0.5625,-0.24609375 -0.65625,0 -1.03125,-0.0234375 -1.125,-0.10546875 -0.046875,-0.0117188 -0.058594,-0.0703125 -0.058594,-0.15234375 L 4.6057797,-4.8175116 h 1.3945312 c 0.6914063,0 1.171875,0.035156 1.171875,0.5976563 0,0.1992187 -0.035156,0.4335937 -0.1054687,0.7265625 -0.011719,0.046875 -0.035156,0.1054687 -0.046875,0.1640625 0,0.1640625 0.070312,0.234375 0.2460937,0.234375 0.070312,-0.011719 0.1757813,-0.1171875 0.28125,-0.3398438 l 0.8085938,-3.2226562 c 0.035156,-0.1289063 0.046875,-0.2109375 0.046875,-0.2578125 -0.046875,-0.140625 -0.140625,-0.2109375 -0.2460938,-0.2109375 -0.1171875,0 -0.2109375,0.1171875 -0.2695312,0.3398437 -0.1523438,0.5742188 -0.3515625,0.9375 -0.5976563,1.1132813 -0.234375,0.1875 -0.65625,0.2695312 -1.2539062,0.2695312 H 4.7581234 l 0.9257813,-3.6914062 c 0.1171875,-0.5039063 0.1171875,-0.515625 0.75,-0.515625 h 1.9570312 c 1.453125,0 2.1093751,0.2226562 2.1093751,1.5585937 0,0.2929688 -0.01172,0.5625 -0.04687,0.7851563 -0.01172,0.1757812 -0.02344,0.2578125 -0.02344,0.28125 0,0.1640625 0.07031,0.234375 0.222657,0.234375 0.152343,0 0.234375,-0.140625 0.269531,-0.421875 l 0.292969,-2.5664063 c 0.04687,-0.4218754 -0.05859,-0.4570314 -0.457032,-0.4570314 H 3.4924984 c -0.3398437,0 -0.5039062,0.01172 -0.5039062,0.3515627 z M 16.409491,3.7137384 c 0.140625,0 0.210937,-0.070312 0.210937,-0.1992187 0,-0.046875 -0.03516,-0.1054688 -0.07031,-0.1757813 -0.785157,-0.5976562 -1.417969,-1.5820312 -1.875,-2.95312496 -0.410157,-1.18359375 -0.621094,-2.35546874 -0.621094,-3.50390624 v -1.265625 c 0,-1.1484375 0.210937,-2.3203125 0.621094,-3.5039063 0.457031,-1.3710937 1.089843,-2.3554689 1.875,-2.9531249 0.03516,-0.04687 0.07031,-0.105469 0.07031,-0.175781 0,-0.128907 -0.07031,-0.199219 -0.210937,-0.199219 -0.01172,0 -0.05859,0.01172 -0.105469,0.03516 -0.902344,0.691406 -1.652344,1.7109377 -2.261719,3.0820314 -0.585937,1.3007813 -0.890625,2.53125 -0.890625,3.7148438 v 1.265625 c 0,1.1835937 0.304688,2.41406249 0.890625,3.71484374 0.609375,1.37109376 1.359375,2.39062496 2.261719,3.08203126 0.04687,0.023437 0.09375,0.035156 0.105469,0.035156 z m 2.835937,-8.4375 c 0.07031,0 0.164063,-0.058594 0.246094,-0.1640625 0.445312,-0.6796875 1.054687,-1.0078125 1.839844,-1.0078125 0.527343,0 0.925781,0.3046875 1.195312,0.9140625 0.164063,0.4101563 0.257813,1.0195313 0.257813,1.8398438 0,0.9492187 -0.117188,1.6054687 -0.339844,2.0039062 -0.375,0.60937504 -0.890625,0.92578129 -1.535156,0.92578129 -1.007813,0 -1.792969,-0.71484375 -2.074219,-1.49999999 0.04687,0.011719 0.08203,0 0.140625,0 0.445312,0 0.820312,-0.3398438 0.820312,-0.796875 0,-0.4570313 -0.375,-0.7734375 -0.820312,-0.7734375 -0.527344,0 -0.75,0.28125 -0.75,0.8320312 0,1.50000004 1.21875,2.77734379 2.71875,2.77734379 0.914062,0 1.6875,-0.328125 2.320312,-0.984375 0.632813,-0.66796879 0.949219,-1.45312499 0.949219,-2.37890629 0,-0.8671875 -0.257812,-1.6171875 -0.773437,-2.2617187 -0.550782,-0.703125 -1.242188,-1.0429688 -2.074219,-1.0429688 -0.714844,0 -1.324219,0.2226563 -1.816406,0.6679688 v -2.671875 c 0.398437,0.1289062 0.785156,0.1875 1.195312,0.1875 0.691406,0 1.289063,-0.1640625 1.804688,-0.515625 0.457031,-0.28125 0.773437,-0.5625 0.960937,-0.84375 0.08203,-0.1171875 0.128906,-0.1992188 0.128906,-0.2460938 0,-0.1523437 -0.07031,-0.2226562 -0.222656,-0.2226562 -0.832031,0.3046875 -1.535156,0.46875 -2.097656,0.46875 -0.679688,0 -1.324219,-0.1289063 -1.933594,-0.4101563 -0.08203,-0.035156 -0.140625,-0.046875 -0.199219,-0.046875 -0.140625,0 -0.210937,0.1289063 -0.210937,0.421875 v 4.3710938 c 0,0.3164062 0,0.4570312 0.269531,0.4570312 z m 6.902344,8.4023438 c 0.902344,-0.6914063 1.652344,-1.7109375 2.261719,-3.08203126 0.585937,-1.30078125 0.890625,-2.53125004 0.890625,-3.71484374 v -1.265625 c 0,-1.1835938 -0.304688,-2.4140625 -0.890625,-3.7148438 -0.609375,-1.3710937 -1.359375,-2.3906254 -2.261719,-3.0820314 -0.04687,-0.02344 -0.09375,-0.03516 -0.105469,-0.03516 -0.140625,0 -0.210937,0.07031 -0.210937,0.199219 0,0.07031 0.03516,0.128906 0.07031,0.175781 0.785156,0.597656 1.417969,1.5820312 1.875,2.9531249 0.410156,1.1835938 0.621094,2.3554688 0.621094,3.5039063 v 1.265625 c 0,1.1484375 -0.210938,2.32031249 -0.621094,3.50390624 -0.457031,1.37109376 -1.089844,2.35546876 -1.875,2.95312496 -0.03516,0.070312 -0.07031,0.1289063 -0.07031,0.1757813 0,0.1289062 0.07031,0.1992187 0.210937,0.1992187 0.01172,0 0.05859,-0.011719 0.105469,-0.035156 z m 0,0"
       style="fill:#d33682;fill-opacity:1;fill-rule:nonzero;stroke:none"
       aria-label="𝐹(5)"
       transform="matrix(1.3333333,0,0,1.3333333,167.23787,86.06788)" />
    <path
       id="path4"
       d="m 2.9887406,-9.8435194 c 0,0.1523438 0.1640625,0.234375 0.4804688,0.234375 0.5976562,0 0.890625,0.058594 0.890625,0.1875 0,0.046875 -0.023437,0.1523438 -0.070312,0.3515625 l -1.9453125,7.8398438 c -0.09375,0.32812498 -0.2460938,0.52734373 -0.4570313,0.59765623 -0.1054687,0.0351563 -0.375,0.046875 -0.8320312,0.046875 -0.33984378,0 -0.48046878,0.0351563 -0.48046878,0.3515625 0,0.1640625 0.0820313,0.234374995 0.28125,0.234374995 L 2.8012406,-0.04664437 5.0278031,2.30625e-4 c 0.234375,0 0.3632813,-0.117187495 0.3632813,-0.339843745 0,-0.2578125 -0.1757813,-0.24609375 -0.5625,-0.24609375 -0.65625,0 -1.03125,-0.0234375 -1.125,-0.10546875 -0.046875,-0.0117188 -0.058594,-0.0703125 -0.058594,-0.15234375 L 4.6059281,-4.8161756 h 1.3945313 c 0.6914062,0 1.171875,0.035156 1.171875,0.5976562 0,0.1992188 -0.035156,0.4335938 -0.1054688,0.7265625 -0.011719,0.046875 -0.035156,0.1054688 -0.046875,0.1640625 0,0.1640625 0.070312,0.234375 0.2460938,0.234375 0.070312,-0.011719 0.1757812,-0.1171875 0.28125,-0.3398437 l 0.8085937,-3.2226563 c 0.035156,-0.1289062 0.046875,-0.2109375 0.046875,-0.2578125 -0.046875,-0.140625 -0.140625,-0.2109375 -0.2460937,-0.2109375 -0.1171875,0 -0.2109375,0.1171875 -0.2695313,0.3398438 -0.1523437,0.5742187 -0.3515625,0.9375 -0.5976562,1.1132812 -0.234375,0.1875 -0.65625,0.2695313 -1.2539063,0.2695313 H 4.7582719 l 0.9257812,-3.6914063 c 0.1171875,-0.5039062 0.1171875,-0.515625 0.75,-0.515625 h 1.9570313 c 1.453125,0 2.1093746,0.2226563 2.1093746,1.5585938 0,0.2929687 -0.01172,0.5625 -0.04687,0.7851562 -0.01172,0.1757813 -0.02344,0.2578125 -0.02344,0.28125 0,0.1640625 0.07031,0.234375 0.222656,0.234375 0.152344,0 0.234375,-0.140625 0.269531,-0.421875 l 0.292969,-2.5664062 c 0.04687,-0.4218754 -0.05859,-0.4570314 -0.457031,-0.4570314 H 3.4926469 c -0.3398438,0 -0.5039063,0.01172 -0.5039063,0.3515626 z M 16.424287,3.7150744 c 0.140625,0 0.210938,-0.070312 0.210938,-0.1992188 0,-0.046875 -0.03516,-0.1054687 -0.07031,-0.1757812 -0.785156,-0.5976563 -1.417968,-1.5820313 -1.875,-2.95312502 -0.410156,-1.18359375 -0.621093,-2.35546878 -0.621093,-3.50390628 v -1.265625 c 0,-1.1484375 0.210937,-2.3203125 0.621093,-3.5039062 0.457032,-1.3710938 1.089844,-2.3554689 1.875,-2.9531249 0.03516,-0.04687 0.07031,-0.105469 0.07031,-0.175781 0,-0.128907 -0.07031,-0.199219 -0.210938,-0.199219 -0.01172,0 -0.05859,0.01172 -0.105468,0.03516 -0.902344,0.691406 -1.652344,1.7109376 -2.261719,3.0820314 -0.585938,1.3007812 -0.890625,2.53125 -0.890625,3.7148437 v 1.265625 c 0,1.1835938 0.304687,2.41406253 0.890625,3.71484378 0.609375,1.37109372 1.359375,2.39062502 2.261719,3.08203122 0.04687,0.023437 0.09375,0.035156 0.105468,0.035156 z m 5.613282,-9.0117188 c 0.984375,-0.375 1.921875,-1.3125 1.921875,-2.5898437 0,-0.6445313 -0.316407,-1.171875 -0.9375,-1.5820313 -0.539063,-0.3398437 -1.148438,-0.515625 -1.839844,-0.515625 -0.679688,0 -1.265625,0.1757813 -1.78125,0.515625 -0.585938,0.3984375 -0.890625,0.9023438 -0.890625,1.546875 0,0.4921875 0.328125,0.84375 0.808594,0.84375 0.480468,0 0.808593,-0.3515625 0.808593,-0.8320312 0,-0.4921875 -0.28125,-0.7617188 -0.855468,-0.7851563 0.398437,-0.5273437 1.007812,-0.796875 1.851562,-0.796875 0.902344,0 1.347656,0.5273438 1.347656,1.5820313 0,0.6328125 -0.117187,1.1601562 -0.339843,1.59375 -0.410157,0.7265625 -0.960938,0.8554687 -1.898438,0.8554687 -0.175781,0.035156 -0.269531,0.1054688 -0.269531,0.2460938 0,0.2226562 0.105469,0.2226562 0.410156,0.2226562 h 0.644531 c 1.125,0 1.6875,0.796875 1.6875,2.4023438 0,1.265625 -0.457031,2.37890623 -1.605468,2.37890623 -0.972657,0 -1.6875,-0.328125 -2.121094,-0.98437503 0.527344,0.011719 0.914062,-0.375 0.914062,-0.890625 0,-0.5039062 -0.375,-0.8789062 -0.890625,-0.8789062 -0.585937,0 -0.878906,0.2929687 -0.878906,0.9140625 0,0.7265625 0.328125,1.31249998 0.984375,1.78124998 0.585938,0.41015625 1.277344,0.59765625 2.039063,0.59765625 0.855468,0 1.59375,-0.28125 2.238281,-0.84375 0.644531,-0.55078123 0.960937,-1.24218753 0.960937,-2.07421873 0,-1.4179688 -1.113281,-2.390625 -2.308593,-2.7070313 z m 4.125,8.9765625 c 0.902343,-0.6914062 1.652343,-1.7109375 2.261718,-3.08203122 0.585938,-1.30078125 0.890625,-2.53124998 0.890625,-3.71484378 v -1.265625 c 0,-1.1835937 -0.304687,-2.4140625 -0.890625,-3.7148437 -0.609375,-1.3710938 -1.359375,-2.3906254 -2.261718,-3.0820314 -0.04687,-0.02344 -0.09375,-0.03516 -0.105469,-0.03516 -0.140625,0 -0.210938,0.07031 -0.210938,0.199219 0,0.07031 0.03516,0.128906 0.07031,0.175781 0.785156,0.597656 1.417969,1.5820311 1.875,2.9531249 0.410156,1.1835937 0.621094,2.3554687 0.621094,3.5039062 v 1.265625 c 0,1.1484375 -0.210938,2.32031253 -0.621094,3.50390628 -0.457031,1.37109372 -1.089844,2.35546872 -1.875,2.95312502 -0.03516,0.070312 -0.07031,0.1289062 -0.07031,0.1757812 0,0.1289063 0.07031,0.1992188 0.210938,0.1992188 0.01172,0 0.05859,-0.011719 0.105469,-0.035156 z m 0,0"
       style="fill:#268bd2;fill-opacity:1;fill-rule:nonzero;stroke:none"
       aria-label="𝐹(3)"
       transform="matrix(1.3333333,0,0,1.3333333,217.0072,152.49188)" />
    <path
       id="path5"
       d="m 2.9885244,-9.8436597 c 0,0.1523438 0.1640625,0.234375 0.4804687,0.234375 0.5976563,0 0.890625,0.058594 0.890625,0.1875 0,0.046875 -0.023437,0.1523438 -0.070312,0.3515625 l -1.9453125,7.8398438 c -0.09375,0.32812496 -0.2460937,0.52734371 -0.4570312,0.59765621 -0.1054688,0.0351563 -0.375,0.046875 -0.8320313,0.046875 -0.33984372,0 -0.48046872,0.0351563 -0.48046872,0.3515625 0,0.1640625 0.0820313,0.2343750025 0.28125,0.2343750025 L 2.8010244,-0.04678469 5.0275869,9.03125e-5 c 0.234375,0 0.3632812,-0.1171875025 0.3632812,-0.3398437525 0,-0.2578125 -0.1757812,-0.24609375 -0.5625,-0.24609375 -0.65625,0 -1.03125,-0.0234375 -1.125,-0.10546875 -0.046875,-0.0117188 -0.058594,-0.0703125 -0.058594,-0.15234375 L 4.6057119,-4.8163159 h 1.3945312 c 0.6914063,0 1.171875,0.035156 1.171875,0.5976562 0,0.1992188 -0.035156,0.4335938 -0.1054687,0.7265625 -0.011719,0.046875 -0.035156,0.1054688 -0.046875,0.1640625 0,0.1640625 0.070312,0.234375 0.2460937,0.234375 0.070312,-0.011719 0.1757813,-0.1171875 0.28125,-0.3398437 l 0.8085938,-3.2226563 c 0.035156,-0.1289062 0.046875,-0.2109375 0.046875,-0.2578125 -0.046875,-0.140625 -0.140625,-0.2109375 -0.2460938,-0.2109375 -0.1171875,0 -0.2109375,0.1171875 -0.2695312,0.3398438 -0.1523438,0.5742187 -0.3515625,0.9375 -0.5976563,1.1132812 -0.234375,0.1875 -0.65625,0.2695313 -1.2539062,0.2695313 H 4.7580556 l 0.9257813,-3.6914063 c 0.1171875,-0.5039062 0.1171875,-0.515625 0.75,-0.515625 h 1.9570312 c 1.453125,0 2.1093749,0.2226563 2.1093749,1.5585938 0,0.2929687 -0.01172,0.5625 -0.04687,0.7851562 -0.01172,0.1757813 -0.02344,0.2578125 -0.02344,0.28125 0,0.1640625 0.07031,0.234375 0.222656,0.234375 0.152344,0 0.234375,-0.140625 0.269531,-0.421875 l 0.292969,-2.5664062 c 0.04687,-0.4218751 -0.05859,-0.4570311 -0.457031,-0.4570311 H 3.4924306 c -0.3398437,0 -0.5039062,0.01172 -0.5039062,0.3515623 z M 16.409423,3.7149341 c 0.140625,0 0.210937,-0.070312 0.210937,-0.1992188 0,-0.046875 -0.03516,-0.1054687 -0.07031,-0.1757812 C 15.764894,2.7422778 15.132081,1.7579028 14.67505,0.38680906 14.264894,-0.79678469 14.053956,-1.9686597 14.053956,-3.1170972 v -1.265625 c 0,-1.1484375 0.210938,-2.3203125 0.621094,-3.5039062 0.457031,-1.3710938 1.089844,-2.3554686 1.875,-2.9531246 0.03516,-0.04687 0.07031,-0.105469 0.07031,-0.175782 0,-0.128906 -0.07031,-0.199218 -0.210937,-0.199218 -0.01172,0 -0.05859,0.01172 -0.105469,0.03516 -0.902344,0.691406 -1.652344,1.7109373 -2.261719,3.0820311 -0.585937,1.3007812 -0.890625,2.53125 -0.890625,3.7148437 v 1.265625 c 0,1.1835938 0.304688,2.41406251 0.890625,3.71484376 0.609375,1.37109374 1.359375,2.39062504 2.261719,3.08203124 0.04687,0.023437 0.09375,0.035156 0.105469,0.035156 z m 6.363281,-13.8750001 c -0.140625,0 -0.257812,0.08203 -0.351562,0.2109376 l -4.523438,6.9609375 v 0.5390625 h 3.914063 v 1.2304687 c 0,0.26953126 -0.05859,0.45703126 -0.164063,0.52734376 -0.105469,0.0820313 -0.386719,0.10546875 -0.890625,0.10546875 h -0.375 V 9.03125e-5 c 0.433594,-0.0351562525 1.125,-0.0468750025 2.0625,-0.0468750025 0.925781,0 1.617188,0.01171875 2.050781,0.0468750025 V -0.58584719 h -0.375 c -0.492187,0 -0.785156,-0.0234375 -0.878906,-0.10546875 -0.105469,-0.0703125 -0.175781,-0.2578125 -0.175781,-0.52734376 v -1.2304687 h 1.476562 v -0.5859375 h -1.476562 v -6.8671875 c 0,-0.1523436 -0.105469,-0.2578126 -0.292969,-0.2578126 z m -0.867187,1.8632813 v 5.2617188 h -3.421875 z m 4.242187,11.9765625 c 0.902344,-0.6914062 1.652344,-1.7109375 2.261719,-3.08203124 0.585937,-1.30078125 0.890625,-2.53124996 0.890625,-3.71484376 v -1.265625 c 0,-1.1835937 -0.304688,-2.4140625 -0.890625,-3.7148437 -0.609375,-1.3710938 -1.359375,-2.3906251 -2.261719,-3.0820311 -0.04687,-0.02344 -0.09375,-0.03516 -0.105469,-0.03516 -0.140625,0 -0.210937,0.07031 -0.210937,0.199218 0,0.07031 0.03516,0.128907 0.07031,0.175782 0.785157,0.597656 1.417969,1.5820308 1.875,2.9531246 0.410157,1.1835937 0.621094,2.3554687 0.621094,3.5039062 v 1.265625 c 0,1.1484375 -0.210937,2.32031251 -0.621094,3.50390626 -0.457031,1.37109374 -1.089843,2.35546874 -1.875,2.95312504 -0.03516,0.070312 -0.07031,0.1289062 -0.07031,0.1757812 0,0.1289063 0.07031,0.1992188 0.210937,0.1992188 0.01172,0 0.05859,-0.011719 0.105469,-0.035156 z m 0,0"
       style="fill:#d33682;fill-opacity:1;fill-rule:nonzero;stroke:none"
       aria-label="𝐹(4)"
       transform="matrix(1.3333333,0,0,1.3333333,117.46061,152.49597)" />
    <path
       id="path6"
       d="m 2.9883681,-9.8423238 c 0,0.1523438 0.1640625,0.234375 0.4804688,0.234375 0.5976562,0 0.890625,0.058594 0.890625,0.1875 0,0.046875 -0.023437,0.1523438 -0.070312,0.3515625 l -1.9453125,7.8398438 c -0.09375,0.328125 -0.2460938,0.52734375 -0.4570313,0.59765625 -0.1054687,0.0351563 -0.375,0.046875 -0.8320312,0.046875 -0.33984378,0 -0.48046878,0.0351563 -0.48046878,0.3515625 0,0.1640625 0.0820313,0.234375 0.28125,0.234375 l 1.94531248,-0.046875 2.2265625,0.046875 c 0.234375,0 0.3632813,-0.1171875 0.3632813,-0.33984375 0,-0.2578125 -0.1757813,-0.24609375 -0.5625,-0.24609375 -0.65625,0 -1.03125,-0.0234375 -1.125,-0.10546875 -0.046875,-0.0117188 -0.058594,-0.0703125 -0.058594,-0.15234375 L 4.6055556,-4.81498 h 1.3945313 c 0.6914062,0 1.171875,0.035156 1.171875,0.5976562 0,0.1992188 -0.035156,0.4335938 -0.1054688,0.7265625 -0.011719,0.046875 -0.035156,0.1054688 -0.046875,0.1640625 0,0.1640625 0.070312,0.234375 0.2460938,0.234375 0.070312,-0.011719 0.1757812,-0.1171875 0.28125,-0.3398437 l 0.8085937,-3.2226563 c 0.035156,-0.1289062 0.046875,-0.2109375 0.046875,-0.2578125 -0.046875,-0.140625 -0.140625,-0.2109375 -0.2460937,-0.2109375 -0.1171875,0 -0.2109375,0.1171875 -0.2695313,0.3398438 -0.1523437,0.5742187 -0.3515625,0.9375 -0.5976562,1.1132812 -0.234375,0.1875 -0.65625,0.2695313 -1.2539063,0.2695313 H 4.7578994 l 0.9257812,-3.6914063 c 0.1171875,-0.5039062 0.1171875,-0.515625 0.75,-0.515625 h 1.9570313 c 1.453125,0 2.1093751,0.2226563 2.1093751,1.5585938 0,0.2929687 -0.01172,0.5625 -0.04687,0.7851562 -0.01172,0.1757813 -0.02344,0.2578125 -0.02344,0.28125 0,0.1640625 0.07031,0.234375 0.222657,0.234375 0.152343,0 0.234375,-0.140625 0.269531,-0.421875 l 0.292969,-2.5664062 c 0.04687,-0.421875 -0.05859,-0.457031 -0.457032,-0.457031 H 3.4922744 c -0.3398438,0 -0.5039063,0.01172 -0.5039063,0.3515622 z M 16.409267,3.71627 c 0.140625,0 0.210937,-0.070312 0.210937,-0.1992188 0,-0.046875 -0.03516,-0.1054687 -0.07031,-0.1757812 C 15.764737,2.7436137 15.131925,1.7592387 14.674894,0.388145 14.264737,-0.79544875 14.0538,-1.9673238 14.0538,-3.1157613 v -1.265625 c 0,-1.1484375 0.210937,-2.3203125 0.621094,-3.5039062 0.457031,-1.3710938 1.089843,-2.3554685 1.875,-2.9531255 0.03516,-0.04687 0.07031,-0.105468 0.07031,-0.175781 0,-0.128906 -0.07031,-0.199219 -0.210937,-0.199219 -0.01172,0 -0.05859,0.01172 -0.105469,0.03516 -0.902344,0.691406 -1.652344,1.7109372 -2.261719,3.082031 -0.585937,1.3007812 -0.890625,2.53125 -0.890625,3.7148437 v 1.265625 c 0,1.1835938 0.304688,2.41406255 0.890625,3.7148438 0.609375,1.3710937 1.359375,2.390625 2.261719,3.0820312 0.04687,0.023437 0.09375,0.035156 0.105469,0.035156 z m 4.617187,-13.6992188 c -0.761719,0 -1.40625,0.2695313 -1.957031,0.8085938 -0.5625,0.5390625 -0.84375,1.1601562 -0.84375,1.9335937 0,0.5039063 0.375,0.8789063 0.84375,0.8789063 0.445312,0 0.820312,-0.3867188 0.820312,-0.8320313 0,-0.5039062 -0.363281,-0.84375 -0.84375,-0.84375 -0.03516,0 -0.07031,0 -0.105468,0.011719 0.292968,-0.7382813 0.949218,-1.3828125 1.898437,-1.3828125 1.230469,0 1.921875,1.0664062 1.921875,2.3554687 0,1.0078125 -0.515625,2.0859375 -1.535156,3.234375 l -2.824219,3.1757813 c -0.1875,0.22265625 -0.175781,0.2109375 -0.175781,0.64453125 h 5.566406 l 0.433594,-2.69531255 h -0.492188 c -0.117187,0.7617188 -0.222656,1.1953125 -0.316406,1.3359375 -0.08203,0.070312 -0.527344,0.09375 -1.347656,0.09375 H 19.56161 l 1.453125,-1.4179687 c 1.019532,-0.9609375 2.308594,-1.9921875 2.742188,-2.7890625 0.304687,-0.5273438 0.457031,-1.0546875 0.457031,-1.5820313 0,-1.7695312 -1.382812,-2.9296875 -3.1875,-2.9296877 z m 5.121094,13.6640625 c 0.902344,-0.6914062 1.652344,-1.7109375 2.261719,-3.0820312 0.585937,-1.30078125 0.890625,-2.53125 0.890625,-3.7148438 v -1.265625 c 0,-1.1835937 -0.304688,-2.4140625 -0.890625,-3.7148437 -0.609375,-1.3710938 -1.359375,-2.390625 -2.261719,-3.082031 -0.04687,-0.02344 -0.09375,-0.03516 -0.105469,-0.03516 -0.140625,0 -0.210937,0.07031 -0.210937,0.199219 0,0.07031 0.03516,0.128906 0.07031,0.175781 0.785156,0.597657 1.417969,1.5820317 1.875,2.9531255 0.410156,1.1835937 0.621094,2.3554687 0.621094,3.5039062 v 1.265625 c 0,1.1484375 -0.210938,2.32031255 -0.621094,3.5039063 -0.457031,1.3710937 -1.089844,2.3554687 -1.875,2.953125 -0.03516,0.070312 -0.07031,0.1289062 -0.07031,0.1757812 0,0.1289063 0.07031,0.1992188 0.210937,0.1992188 0.01172,0 0.05859,-0.011719 0.105469,-0.035156 z m 0,0"
       style="fill:#268bd2;fill-opacity:1;fill-rule:nonzero;stroke:none"
       aria-label="𝐹(2)"
       transform="matrix(1.3333333,0,0,1.3333333,163.91395,218.91997)" />
    <path
       id="path7"
       d="m 2.9886209,-9.8435437 c 0,0.1523437 0.1640625,0.234375 0.4804688,0.234375 0.5976562,0 0.890625,0.058594 0.890625,0.1875 0,0.046875 -0.023437,0.1523437 -0.070312,0.3515625 l -1.9453125,7.8398437 c -0.09375,0.328125 -0.2460938,0.52734375 -0.4570313,0.59765625 -0.1054687,0.0351563 -0.375,0.046875 -0.8320312,0.046875 -0.33984376,0 -0.48046876,0.0351563 -0.48046876,0.3515625 0,0.1640625 0.0820313,0.234375 0.28125,0.234375 l 1.94531246,-0.046875 2.2265625,0.046875 c 0.234375,0 0.3632813,-0.1171875 0.3632813,-0.33984375 0,-0.2578125 -0.1757813,-0.24609375 -0.5625,-0.24609375 -0.65625,0 -1.03125,-0.0234375 -1.125,-0.10546875 -0.046875,-0.0117188 -0.058594,-0.0703125 -0.058594,-0.15234375 L 4.6058084,-4.8162 h 1.3945313 c 0.6914062,0 1.171875,0.035156 1.171875,0.5976563 0,0.1992187 -0.035156,0.4335937 -0.1054688,0.7265625 -0.011719,0.046875 -0.035156,0.1054687 -0.046875,0.1640625 0,0.1640625 0.070312,0.234375 0.2460938,0.234375 0.070312,-0.011719 0.1757812,-0.1171875 0.28125,-0.3398438 l 0.8085937,-3.2226562 c 0.035156,-0.1289063 0.046875,-0.2109375 0.046875,-0.2578125 -0.046875,-0.140625 -0.140625,-0.2109375 -0.2460937,-0.2109375 -0.1171875,0 -0.2109375,0.1171875 -0.2695313,0.3398437 -0.1523437,0.5742188 -0.3515625,0.9375 -0.5976562,1.1132813 -0.234375,0.1875 -0.65625,0.2695312 -1.2539063,0.2695312 H 4.7581522 l 0.9257812,-3.6914062 c 0.1171875,-0.5039063 0.1171875,-0.515625 0.75,-0.515625 h 1.9570313 c 1.453125,0 2.1093753,0.2226562 2.1093753,1.5585937 0,0.2929688 -0.01172,0.5625 -0.04687,0.7851563 -0.01172,0.1757812 -0.02344,0.2578125 -0.02344,0.28125 0,0.1640625 0.07031,0.234375 0.222656,0.234375 0.152344,0 0.234375,-0.140625 0.269532,-0.421875 l 0.292968,-2.5664063 c 0.04687,-0.421875 -0.05859,-0.457031 -0.457031,-0.457031 H 3.4925272 c -0.3398438,0 -0.5039063,0.01172 -0.5039063,0.3515623 z M 16.409519,3.71505 c 0.140625,0 0.210938,-0.070312 0.210938,-0.1992187 0,-0.046875 -0.03516,-0.1054688 -0.07031,-0.1757813 -0.785156,-0.5976562 -1.417968,-1.5820312 -1.875,-2.953125 -0.410156,-1.18359375 -0.621093,-2.3554687 -0.621093,-3.5039062 v -1.265625 c 0,-1.1484375 0.210937,-2.3203125 0.621093,-3.5039063 0.457032,-1.3710937 1.089844,-2.3554685 1.875,-2.9531245 0.03516,-0.04687 0.07031,-0.105469 0.07031,-0.175782 0,-0.128906 -0.07031,-0.199218 -0.210938,-0.199218 -0.01172,0 -0.05859,0.01172 -0.105468,0.03516 -0.902344,0.691406 -1.652344,1.7109373 -2.261719,3.082031 -0.585938,1.3007813 -0.890625,2.53125 -0.890625,3.7148438 v 1.265625 c 0,1.1835937 0.304687,2.41406245 0.890625,3.7148437 0.609375,1.3710938 1.359375,2.390625 2.261719,3.0820313 0.04687,0.023437 0.09375,0.035156 0.105468,0.035156 z m 5.613282,-9.0117187 c 0.984375,-0.375 1.921875,-1.3125 1.921875,-2.5898438 0,-0.6445312 -0.316407,-1.171875 -0.9375,-1.5820312 -0.539063,-0.3398438 -1.148438,-0.515625 -1.839844,-0.515625 -0.679688,0 -1.265625,0.1757812 -1.78125,0.515625 -0.585938,0.3984375 -0.890625,0.9023437 -0.890625,1.546875 0,0.4921875 0.328125,0.84375 0.808594,0.84375 0.480468,0 0.808593,-0.3515625 0.808593,-0.8320313 0,-0.4921875 -0.28125,-0.7617187 -0.855468,-0.7851562 0.398437,-0.5273438 1.007812,-0.796875 1.851562,-0.796875 0.902344,0 1.347656,0.5273437 1.347656,1.5820312 0,0.6328125 -0.117187,1.1601563 -0.339843,1.59375 -0.410157,0.7265625 -0.960938,0.8554688 -1.898438,0.8554688 -0.175781,0.035156 -0.269531,0.1054687 -0.269531,0.2460937 0,0.2226563 0.105469,0.2226563 0.410156,0.2226563 h 0.644531 c 1.125,0 1.6875,0.796875 1.6875,2.4023437 0,1.265625 -0.457031,2.37890625 -1.605468,2.37890625 -0.972657,0 -1.6875,-0.328125 -2.121094,-0.98437495 0.527344,0.011719 0.914062,-0.375 0.914062,-0.890625 0,-0.5039063 -0.375,-0.8789063 -0.890625,-0.8789063 -0.585937,0 -0.878906,0.2929688 -0.878906,0.9140625 0,0.7265625 0.328125,1.3125 0.984375,1.78125 0.585938,0.41015625 1.277344,0.59765625 2.039063,0.59765625 0.855468,0 1.59375,-0.28125 2.238281,-0.84375 0.644531,-0.55078125 0.960937,-1.24218745 0.960937,-2.07421875 0,-1.4179687 -1.113281,-2.390625 -2.308593,-2.7070312 z m 4.125,8.9765625 c 0.902343,-0.6914063 1.652343,-1.7109375 2.261718,-3.0820313 0.585938,-1.30078125 0.890625,-2.53125 0.890625,-3.7148437 v -1.265625 c 0,-1.1835938 -0.304687,-2.4140625 -0.890625,-3.7148438 -0.609375,-1.3710937 -1.359375,-2.390625 -2.261718,-3.082031 -0.04687,-0.02344 -0.09375,-0.03516 -0.105469,-0.03516 -0.140625,0 -0.210938,0.07031 -0.210938,0.199218 0,0.07031 0.03516,0.128907 0.07031,0.175782 0.785156,0.597656 1.417969,1.5820308 1.875,2.9531245 0.410156,1.1835938 0.621094,2.3554688 0.621094,3.5039063 v 1.265625 c 0,1.1484375 -0.210938,2.32031245 -0.621094,3.5039062 -0.457031,1.3710938 -1.089844,2.3554688 -1.875,2.953125 -0.03516,0.070312 -0.07031,0.1289063 -0.07031,0.1757813 0,0.1289062 0.07031,0.1992187 0.210938,0.1992187 0.01172,0 0.05859,-0.011719 0.105469,-0.035156 z m 0,0"
       style="fill:#d33682;fill-opacity:1;fill-rule:nonzero;stroke:none"
       aria-label="𝐹(3)"
       transform="matrix(1.3333333,0,0,1.3333333,71.003453,218.9216)" />
    <path
       id="path8"
       d="m 2.9869959,-9.8431375 c 0,0.1523438 0.1640625,0.234375 0.4804688,0.234375 0.5976562,0 0.890625,0.058594 0.890625,0.1875 0,0.046875 -0.023437,0.1523438 -0.070312,0.3515625 l -1.9453125,7.8398438 c -0.09375,0.32812495 -0.2460938,0.5273437 -0.4570313,0.5976562 -0.1054687,0.0351563 -0.375,0.046875 -0.8320312,0.046875 -0.33984376,0 -0.48046876,0.0351563 -0.48046876,0.3515625 0,0.1640625 0.0820313,0.234375 0.28125,0.234375 l 1.94531246,-0.046875 2.2265625,0.046875 c 0.234375,0 0.3632813,-0.1171875 0.3632813,-0.33984375 0,-0.2578125 -0.1757813,-0.24609375 -0.5625,-0.24609375 -0.65625,0 -1.03125,-0.0234375 -1.125,-0.10546875 -0.046875,-0.0117188 -0.058594,-0.0703125 -0.058594,-0.15234375 L 4.6041837,-4.8157937 H 5.998715 c 0.6914062,0 1.171875,0.035156 1.171875,0.5976562 0,0.1992188 -0.035156,0.4335938 -0.1054688,0.7265625 -0.011719,0.046875 -0.035156,0.1054688 -0.046875,0.1640625 0,0.1640625 0.070312,0.234375 0.2460938,0.234375 0.070312,-0.011719 0.1757812,-0.1171875 0.28125,-0.3398437 l 0.8085937,-3.2226563 c 0.035156,-0.1289062 0.046875,-0.2109375 0.046875,-0.2578125 -0.046875,-0.140625 -0.140625,-0.2109375 -0.2460937,-0.2109375 -0.1171875,0 -0.2109375,0.1171875 -0.2695313,0.3398438 -0.1523437,0.5742187 -0.3515625,0.9375 -0.5976562,1.1132812 -0.234375,0.1875 -0.65625,0.2695313 -1.2539063,0.2695313 h -1.277344 l 0.9257812,-3.6914063 c 0.1171875,-0.5039062 0.1171875,-0.515625 0.75,-0.515625 h 1.9570313 c 1.453125,0 2.1093753,0.2226563 2.1093753,1.5585938 0,0.2929687 -0.01172,0.5625 -0.04687,0.7851562 -0.01172,0.1757813 -0.02344,0.2578125 -0.02344,0.28125 0,0.1640625 0.07031,0.234375 0.222656,0.234375 0.152344,0 0.234375,-0.140625 0.269532,-0.421875 l 0.292968,-2.5664062 C 11.260433,-10.159544 11.154965,-10.1947 10.756527,-10.1947 H 3.4909022 c -0.3398438,0 -0.5039063,0.01172 -0.5039063,0.3515625 z M 16.425472,3.7154563 c 0.140625,0 0.210938,-0.070312 0.210938,-0.1992188 0,-0.046875 -0.03516,-0.1054687 -0.07031,-0.1757812 C 15.780941,2.7428 15.148129,1.758425 14.691097,0.38733125 14.280941,-0.7962625 14.070004,-1.9681375 14.070004,-3.116575 V -4.3822 c 0,-1.1484375 0.210937,-2.3203125 0.621093,-3.5039062 0.457032,-1.3710938 1.089844,-2.3554688 1.875,-2.9531248 0.03516,-0.04687 0.07031,-0.105469 0.07031,-0.175781 0,-0.128907 -0.07031,-0.199219 -0.210938,-0.199219 -0.01172,0 -0.05859,0.01172 -0.105468,0.03516 -0.902344,0.691406 -1.652344,1.7109375 -2.261719,3.0820313 -0.585938,1.3007812 -0.890625,2.53125 -0.890625,3.7148437 v 1.265625 c 0,1.1835938 0.304687,2.4140625 0.890625,3.71484375 C 14.66766,1.9693625 15.41766,2.9888938 16.320004,3.6803 c 0.04687,0.023437 0.09375,0.035156 0.105468,0.035156 z m 5.094727,-13.6992188 c -0.609375,0.6210938 -1.511719,0.9375 -2.695312,0.9375 v 0.5859375 c 0.773437,0 1.429687,-0.1171875 1.921875,-0.3632812 v 7.59375 c 0,0.2695312 -0.05859,0.44531245 -0.199219,0.5273437 C 20.418637,-0.6322 20.043637,-0.585325 19.434262,-0.585325 H 18.918637 V 6.125e-4 c 0.375,-0.03515625 1.183593,-0.046875 2.425781,-0.046875 1.242187,0 2.050781,0.01171875 2.425781,0.046875 V -0.585325 h -0.515625 c -0.621094,0 -0.996094,-0.046875 -1.113281,-0.1171875 -0.117188,-0.0820313 -0.199219,-0.2578125 -0.199219,-0.5273437 V -9.53845 c 0,-0.3632812 -0.02344,-0.4453125 -0.421875,-0.4453125 z M 26.160824,3.6803 C 27.063168,2.9888938 27.813168,1.9693625 28.422543,0.59826875 29.00848,-0.7025125 29.313168,-1.9329812 29.313168,-3.116575 V -4.3822 c 0,-1.1835937 -0.304688,-2.4140625 -0.890625,-3.7148437 -0.609375,-1.3710938 -1.359375,-2.3906253 -2.261719,-3.0820313 -0.04687,-0.02344 -0.09375,-0.03516 -0.105469,-0.03516 -0.140625,0 -0.210937,0.07031 -0.210937,0.199219 0,0.07031 0.03516,0.128906 0.07031,0.175781 0.785157,0.597656 1.417969,1.582031 1.875,2.9531248 0.410157,1.1835937 0.621094,2.3554687 0.621094,3.5039062 v 1.265625 c 0,1.1484375 -0.210937,2.3203125 -0.621094,3.50390625 C 27.332699,1.758425 26.699887,2.7428 25.91473,3.3404563 c -0.03516,0.070312 -0.07031,0.1289062 -0.07031,0.1757812 0,0.1289063 0.07031,0.1992188 0.210937,0.1992188 0.01172,0 0.05859,-0.011719 0.105469,-0.035156 z m 0,0"
       style="fill:#dc322f;fill-opacity:1;fill-rule:nonzero;stroke:none"
       aria-label="𝐹(1)"
       transform="matrix(1.3333333,0,0,1.3333333,110.81812,285.34293)" />
    <path
       id="path9"
       d="m 2.9883366,-9.8435175 c 0,0.1523438 0.1640625,0.234375 0.4804687,0.234375 0.5976563,0 0.890625,0.058594 0.890625,0.1875 0,0.046875 -0.023437,0.1523438 -0.070312,0.3515625 l -1.9453125,7.8398438 c -0.09375,0.32812495 -0.2460937,0.5273437 -0.4570312,0.5976562 -0.1054688,0.0351563 -0.375,0.046875 -0.8320313,0.046875 -0.33984374,0 -0.48046874,0.0351563 -0.48046874,0.3515625 0,0.1640625 0.0820313,0.234375 0.28125,0.234375 l 1.94531254,-0.046875 2.2265625,0.046875 c 0.234375,0 0.3632812,-0.1171875 0.3632812,-0.33984375 0,-0.2578125 -0.1757812,-0.24609375 -0.5625,-0.24609375 -0.65625,0 -1.03125,-0.0234375 -1.125,-0.10546875 -0.046875,-0.0117188 -0.058594,-0.0703125 -0.058594,-0.15234375 l 0.9609375,-3.9726562 h 1.3945312 c 0.6914063,0 1.171875,0.035156 1.171875,0.5976562 0,0.1992188 -0.035156,0.4335938 -0.1054687,0.7265625 -0.011719,0.046875 -0.035156,0.1054688 -0.046875,0.1640625 0,0.1640625 0.070312,0.234375 0.2460937,0.234375 0.070312,-0.011719 0.1757813,-0.1171875 0.28125,-0.3398437 l 0.8085938,-3.2226563 c 0.035156,-0.1289062 0.046875,-0.2109375 0.046875,-0.2578125 -0.046875,-0.140625 -0.140625,-0.2109375 -0.2460938,-0.2109375 -0.1171875,0 -0.2109375,0.1171875 -0.2695312,0.3398438 -0.1523438,0.5742187 -0.3515625,0.9375 -0.5976563,1.1132812 -0.234375,0.1875 -0.65625,0.2695313 -1.2539062,0.2695313 h -1.277344 l 0.9257813,-3.6914063 c 0.1171875,-0.5039062 0.1171875,-0.515625 0.75,-0.515625 h 1.9570312 c 1.453125,0 2.1093747,0.2226563 2.1093747,1.5585938 0,0.2929687 -0.01172,0.5625 -0.04687,0.7851562 -0.01172,0.1757813 -0.02344,0.2578125 -0.02344,0.28125 0,0.1640625 0.07031,0.234375 0.222656,0.234375 0.152344,0 0.234375,-0.140625 0.269531,-0.421875 l 0.292969,-2.5664062 C 11.261771,-10.159924 11.156311,-10.19508 10.75787,-10.19508 H 3.4922428 c -0.3398437,0 -0.5039062,0.01172 -0.5039062,0.3515625 z M 16.423883,3.7150763 c 0.140625,0 0.210938,-0.070312 0.210938,-0.1992188 0,-0.046875 -0.03516,-0.1054687 -0.07031,-0.1757812 C 15.779352,2.74242 15.14654,1.758045 14.689508,0.38695125 14.279352,-0.7966425 14.068415,-1.9685175 14.068415,-3.116955 V -4.38258 c 0,-1.1484375 0.210937,-2.3203125 0.621093,-3.5039062 0.457032,-1.3710938 1.089844,-2.3554688 1.875,-2.9531248 0.03516,-0.04687 0.07031,-0.105469 0.07031,-0.175781 0,-0.128907 -0.07031,-0.199219 -0.210938,-0.199219 -0.01172,0 -0.05859,0.01172 -0.105468,0.03516 -0.902344,0.691406 -1.652344,1.7109375 -2.261719,3.0820313 -0.585938,1.3007812 -0.890625,2.53125 -0.890625,3.7148437 v 1.265625 c 0,1.1835938 0.304687,2.4140625 0.890625,3.71484375 0.609375,1.37109375 1.359375,2.39062505 2.261719,3.08203125 0.04687,0.023437 0.09375,0.035156 0.105468,0.035156 z m 4.617188,-13.6992188 c -0.761719,0 -1.40625,0.2695313 -1.957031,0.8085938 -0.5625,0.5390625 -0.84375,1.1601562 -0.84375,1.9335937 0,0.5039063 0.375,0.8789063 0.84375,0.8789063 0.445312,0 0.820312,-0.3867188 0.820312,-0.8320313 0,-0.5039062 -0.363281,-0.84375 -0.84375,-0.84375 -0.03516,0 -0.07031,0 -0.105469,0.011719 0.292969,-0.7382813 0.949219,-1.3828125 1.898438,-1.3828125 1.230469,0 1.921875,1.0664062 1.921875,2.3554687 0,1.0078125 -0.515625,2.0859375 -1.535156,3.234375 l -2.824219,3.17578125 c -0.1875,0.22265625 -0.175781,0.2109375 -0.175781,0.64453125 h 5.566406 L 24.24029,-2.69508 h -0.492188 c -0.117187,0.7617188 -0.222656,1.1953125 -0.316406,1.3359375 -0.08203,0.070312 -0.527344,0.09375 -1.347656,0.09375 h -2.507813 l 1.453125,-1.4179687 c 1.019531,-0.9609375 2.308594,-1.9921875 2.742188,-2.7890625 0.304687,-0.5273438 0.457031,-1.0546875 0.457031,-1.5820313 0,-1.7695312 -1.382813,-2.9296875 -3.1875,-2.9296875 z M 26.162165,3.67992 C 27.064508,2.9885138 27.814508,1.9689825 28.423883,0.59788875 29.009821,-0.7028925 29.314508,-1.9333612 29.314508,-3.116955 V -4.38258 c 0,-1.1835937 -0.304687,-2.4140625 -0.890625,-3.7148437 -0.609375,-1.3710938 -1.359375,-2.3906253 -2.261718,-3.0820313 -0.04687,-0.02344 -0.09375,-0.03516 -0.105469,-0.03516 -0.140625,0 -0.210938,0.07031 -0.210938,0.199219 0,0.07031 0.03516,0.128906 0.07031,0.175781 0.785156,0.597656 1.417969,1.582031 1.875,2.9531248 0.410156,1.1835937 0.621094,2.3554687 0.621094,3.5039062 v 1.265625 c 0,1.1484375 -0.210938,2.3203125 -0.621094,3.50390625 -0.457031,1.37109375 -1.089844,2.35546875 -1.875,2.95312505 -0.03516,0.070312 -0.07031,0.1289062 -0.07031,0.1757812 0,0.1289063 0.07031,0.1992188 0.210938,0.1992188 0.01172,0 0.05859,-0.011719 0.105469,-0.035156 z m 0,0"
       style="fill:#d33682;fill-opacity:1;fill-rule:nonzero;stroke:none"
       aria-label="𝐹(2)"
       transform="matrix(1.3333333,0,0,1.3333333,31.18352,285.34344)" />
    <path
       id="path10"
       d="m 2.9894928,-9.8441113 c 0,0.1523438 0.1640625,0.234375 0.4804688,0.234375 0.5976562,0 0.890625,0.058594 0.890625,0.1875 0,0.046875 -0.023437,0.1523438 -0.070312,0.3515625 L 2.3449616,-1.23083 c -0.09375,0.328125 -0.2460938,0.52734375 -0.4570313,0.59765625 -0.1054687,0.0351563 -0.375,0.046875 -0.8320312,0.046875 -0.33984379,0 -0.48046879,0.0351563 -0.48046879,0.3515625 0,0.1640625 0.0820313,0.234375 0.28125,0.234375 l 1.94531249,-0.046875 2.2265625,0.046875 c 0.234375,0 0.3632813,-0.1171875 0.3632813,-0.33984375 0,-0.2578125 -0.1757813,-0.24609375 -0.5625,-0.24609375 -0.65625,0 -1.03125,-0.0234375 -1.125,-0.10546875 C 3.6574616,-0.7034863 3.6457426,-0.76208 3.6457426,-0.84411125 L 4.6066803,-4.8167675 h 1.3945313 c 0.6914062,0 1.171875,0.035156 1.171875,0.5976562 0,0.1992188 -0.035156,0.4335938 -0.1054688,0.7265625 -0.011719,0.046875 -0.035156,0.1054688 -0.046875,0.1640625 0,0.1640625 0.070312,0.234375 0.2460938,0.234375 0.070312,-0.011719 0.1757812,-0.1171875 0.28125,-0.3398437 l 0.8085937,-3.2226563 c 0.035156,-0.1289062 0.046875,-0.2109375 0.046875,-0.2578125 -0.046875,-0.140625 -0.140625,-0.2109375 -0.2460937,-0.2109375 -0.1171875,0 -0.2109375,0.1171875 -0.2695313,0.3398438 -0.1523437,0.5742187 -0.3515625,0.9375 -0.5976562,1.1132812 -0.234375,0.1875 -0.65625,0.2695313 -1.2539063,0.2695313 H 4.7590241 l 0.9257812,-3.6914063 c 0.1171875,-0.5039062 0.1171875,-0.515625 0.75,-0.515625 h 1.9570313 c 1.453125,0 2.1093754,0.2226563 2.1093754,1.5585938 0,0.2929687 -0.01172,0.5625 -0.04687,0.7851562 -0.01172,0.1757813 -0.02344,0.2578125 -0.02344,0.28125 0,0.1640625 0.07031,0.234375 0.222656,0.234375 0.152344,0 0.234375,-0.140625 0.269532,-0.421875 l 0.292968,-2.5664062 c 0.04687,-0.4218755 -0.05859,-0.4570315 -0.457031,-0.4570315 H 3.4933991 c -0.3398438,0 -0.5039063,0.01172 -0.5039063,0.3515627 z M 16.410391,3.7144825 c 0.140625,0 0.210938,-0.070312 0.210938,-0.1992188 0,-0.046875 -0.03516,-0.1054687 -0.07031,-0.1757812 -0.785156,-0.5976563 -1.417968,-1.5820313 -1.875,-2.953125 -0.410156,-1.18359375 -0.621093,-2.3554688 -0.621093,-3.5039063 v -1.265625 c 0,-1.1484375 0.210937,-2.3203125 0.621093,-3.5039062 0.457032,-1.3710938 1.089844,-2.355469 1.875,-2.953125 0.03516,-0.04687 0.07031,-0.105469 0.07031,-0.175781 0,-0.128907 -0.07031,-0.199219 -0.210938,-0.199219 -0.01172,0 -0.05859,0.01172 -0.105468,0.03516 -0.902344,0.691406 -1.652344,1.7109377 -2.261719,3.0820315 -0.585938,1.3007812 -0.890625,2.53125 -0.890625,3.7148437 v 1.265625 c 0,1.1835938 0.304687,2.41406255 0.890625,3.7148438 0.609375,1.3710937 1.359375,2.390625 2.261719,3.0820312 0.04687,0.023437 0.09375,0.035156 0.105468,0.035156 z m 4.801758,-3.38671875 c 2.109375,0 3.164063,-1.71093755 3.164063,-5.13281255 0,-2.2851562 -0.480469,-3.8203125 -1.429688,-4.5703125 -0.527344,-0.4101562 -1.113281,-0.609375 -1.722656,-0.609375 -2.109375,0 -3.164063,1.7226563 -3.164063,5.1796875 0,2.765625 0.738282,5.13281255 3.152344,5.13281255 z M 22.88793,-7.8636425 c 0.105469,0.5273437 0.152344,1.4882812 0.152344,2.8828125 0,1.3828125 -0.05859,2.4023437 -0.164062,3.0585937 -0.199219,1.2070313 -0.75,1.80468755 -1.664063,1.80468755 -0.351562,0 -0.691406,-0.140625 -1.007812,-0.3984375 C 19.79418,-0.85583 19.559805,-1.558955 19.454337,-2.63708 c -0.04687,-0.375 -0.05859,-1.1601563 -0.05859,-2.34375 0,-1.3007813 0.04687,-2.2148438 0.117187,-2.71875 0.140625,-0.8203125 0.410157,-1.3476563 0.820313,-1.5703125 0.339844,-0.1757813 0.621094,-0.2695313 0.878906,-0.2695313 0.972656,0 1.511719,0.796875 1.675781,1.6757813 z M 26.145743,3.6793262 C 27.048087,2.98792 27.798087,1.9683887 28.407462,0.597295 c 0.585937,-1.30078125 0.890625,-2.53125 0.890625,-3.7148438 v -1.265625 c 0,-1.1835937 -0.304688,-2.4140625 -0.890625,-3.7148437 -0.609375,-1.3710938 -1.359375,-2.3906255 -2.261719,-3.0820315 -0.04687,-0.02344 -0.09375,-0.03516 -0.105469,-0.03516 -0.140625,0 -0.210937,0.07031 -0.210937,0.199219 0,0.07031 0.03516,0.128906 0.07031,0.175781 0.785156,0.597656 1.417969,1.5820312 1.875,2.953125 0.410156,1.1835937 0.621094,2.3554687 0.621094,3.5039062 v 1.265625 c 0,1.1484375 -0.210938,2.32031255 -0.621094,3.5039063 -0.457031,1.3710937 -1.089844,2.3554687 -1.875,2.953125 -0.03516,0.070312 -0.07031,0.1289062 -0.07031,0.1757812 0,0.1289063 0.07031,0.1992188 0.210937,0.1992188 0.01172,0 0.05859,-0.011719 0.105469,-0.035156 z m 0,0"
       style="fill:#dc322f;fill-opacity:1;fill-rule:nonzero;stroke:none"
       aria-label="𝐹(0)"
       transform="matrix(1.3333333,0,0,1.3333333,57.728853,351.76611)" />
    <path
       id="path11"
       d="m 2.9875203,-9.8436512 c 0,0.1523437 0.1640625,0.234375 0.4804688,0.234375 0.5976562,0 0.890625,0.058594 0.890625,0.1875 0,0.046875 -0.023437,0.1523437 -0.070312,0.3515625 L 2.3429891,-1.23037 c -0.09375,0.328125 -0.2460938,0.52734375 -0.4570313,0.59765625 -0.1054687,0.0351563 -0.375,0.046875 -0.8320312,0.046875 -0.33984379,0 -0.48046879,0.0351563 -0.48046879,0.3515625 0,0.1640625 0.0820313,0.234375 0.28125,0.234375 l 1.94531249,-0.046875 2.2265625,0.046875 c 0.234375,0 0.3632813,-0.1171875 0.3632813,-0.33984375 0,-0.2578125 -0.1757813,-0.24609375 -0.5625,-0.24609375 -0.65625,0 -1.03125,-0.0234375 -1.125,-0.10546875 C 3.6554891,-0.7030263 3.6437701,-0.76162 3.6437701,-0.84365125 L 4.6047078,-4.8163075 h 1.3945313 c 0.6914062,0 1.171875,0.035156 1.171875,0.5976563 0,0.1992187 -0.035156,0.4335937 -0.1054688,0.7265625 -0.011719,0.046875 -0.035156,0.1054687 -0.046875,0.1640625 0,0.1640625 0.070312,0.234375 0.2460938,0.234375 0.070312,-0.011719 0.1757812,-0.1171875 0.28125,-0.3398438 l 0.8085937,-3.2226562 c 0.035156,-0.1289063 0.046875,-0.2109375 0.046875,-0.2578125 -0.046875,-0.140625 -0.140625,-0.2109375 -0.2460937,-0.2109375 -0.1171875,0 -0.2109375,0.1171875 -0.2695313,0.3398437 -0.1523437,0.5742188 -0.3515625,0.9375 -0.5976562,1.1132813 -0.234375,0.1875 -0.65625,0.2695312 -1.2539063,0.2695312 H 4.7570516 l 0.9257812,-3.6914062 c 0.1171875,-0.5039063 0.1171875,-0.515625 0.75,-0.515625 h 1.9570313 c 1.453125,0 2.1093749,0.2226562 2.1093749,1.5585937 0,0.2929688 -0.01172,0.5625 -0.04687,0.7851563 -0.01172,0.1757812 -0.02344,0.2578125 -0.02344,0.28125 0,0.1640625 0.07031,0.234375 0.222656,0.234375 0.152344,0 0.234375,-0.140625 0.269531,-0.421875 l 0.292969,-2.5664063 c 0.04687,-0.4218745 -0.05859,-0.4570315 -0.457031,-0.4570315 H 3.4914266 c -0.3398438,0 -0.5039063,0.01172 -0.5039063,0.3515628 z M 16.423067,3.7149425 c 0.140625,0 0.210938,-0.070312 0.210938,-0.1992187 0,-0.046875 -0.03516,-0.1054688 -0.07031,-0.1757813 -0.785156,-0.5976562 -1.417969,-1.5820312 -1.875,-2.953125 -0.410156,-1.18359375 -0.621094,-2.3554687 -0.621094,-3.5039062 v -1.265625 c 0,-1.1484375 0.210938,-2.3203125 0.621094,-3.5039063 0.457031,-1.3710937 1.089844,-2.355469 1.875,-2.953125 0.03516,-0.04687 0.07031,-0.105469 0.07031,-0.175781 0,-0.128906 -0.07031,-0.199219 -0.210938,-0.199219 -0.01172,0 -0.05859,0.01172 -0.105469,0.03516 -0.902343,0.691407 -1.652343,1.7109378 -2.261718,3.0820315 -0.585938,1.3007813 -0.890625,2.53125 -0.890625,3.7148438 v 1.265625 c 0,1.1835937 0.304687,2.41406245 0.890625,3.7148437 0.609375,1.3710938 1.359375,2.390625 2.261718,3.0820313 0.04687,0.023437 0.09375,0.035156 0.105469,0.035156 z m 5.097656,-13.6992187 c -0.609375,0.6210937 -1.511718,0.9375 -2.695312,0.9375 v 0.5859375 c 0.773437,0 1.429687,-0.1171875 1.921875,-0.3632813 v 7.59375 c 0,0.26953125 -0.05859,0.4453125 -0.199219,0.52734375 -0.128906,0.0703125 -0.503906,0.1171875 -1.113281,0.1171875 H 18.919161 V 9.875e-5 c 0.375,-0.03515625 1.183594,-0.046875 2.425781,-0.046875 1.242188,0 2.050781,0.01171875 2.425781,0.046875 v -0.5859375 h -0.515625 c -0.621093,0 -0.996093,-0.046875 -1.113281,-0.1171875 C 22.02463,-0.7850575 21.942598,-0.96083875 21.942598,-1.23037 v -8.3085937 c 0,-0.3632813 -0.02344,-0.4453125 -0.421875,-0.4453125 z M 26.161348,3.6797863 C 27.063692,2.98838 27.813692,1.9688488 28.423067,0.597755 c 0.585938,-1.30078125 0.890625,-2.53125 0.890625,-3.7148437 v -1.265625 c 0,-1.1835938 -0.304687,-2.4140625 -0.890625,-3.7148438 -0.609375,-1.3710937 -1.359375,-2.3906245 -2.261719,-3.0820315 -0.04687,-0.02344 -0.09375,-0.03516 -0.105468,-0.03516 -0.140625,0 -0.210938,0.07031 -0.210938,0.199219 0,0.07031 0.03516,0.128906 0.07031,0.175781 0.785156,0.597656 1.417968,1.5820313 1.875,2.953125 0.410156,1.1835938 0.621093,2.3554688 0.621093,3.5039063 v 1.265625 c 0,1.1484375 -0.210937,2.32031245 -0.621093,3.5039062 -0.457032,1.3710938 -1.089844,2.3554688 -1.875,2.953125 -0.03516,0.070312 -0.07031,0.1289063 -0.07031,0.1757813 0,0.1289062 0.07031,0.1992187 0.210938,0.1992187 0.01172,0 0.05859,-0.011719 0.105468,-0.035156 z m 0,0"
       style="fill:#dc322f;fill-opacity:1;fill-rule:nonzero;stroke:none"
       aria-label="𝐹(1)"
       transform="matrix(1.3333333,0,0,1.3333333,4.6377333,351.76549)" />
    <path
       id="path12"
       d="M 0,-7.41896 -19.90862,-34.89479"
       style="fill:none;stroke:#586e75;stroke-width:0.3985;stroke-linecap:butt;stroke-linejoin:miter;stroke-miterlimit:10;stroke-dasharray:none;stroke-opacity:1"
       transform="matrix(1.3333333,0,0,-1.3333333,51.734187,285.34344)" />
    <path
       id="path13"
       d="M 0,-7.41896 19.90862,-34.89479"
       style="fill:none;stroke:#586e75;stroke-width:0.3985;stroke-linecap:butt;stroke-linejoin:miter;stroke-miterlimit:10;stroke-dasharray:none;stroke-opacity:1"
       transform="matrix(1.3333333,0,0,-1.3333333,51.734187,285.34344)" />
    <path
       id="path14"
       d="M 0,-7.41896 -29.86292,-34.89479"
       style="fill:none;stroke:#586e75;stroke-width:0.3985;stroke-linecap:butt;stroke-linejoin:miter;stroke-miterlimit:10;stroke-dasharray:none;stroke-opacity:1"
       transform="matrix(1.3333333,0,0,-1.3333333,91.55412,218.9216)" />
    <path
       id="path15"
       d="M 0,-7.41896 29.86293,-34.89479"
       style="fill:none;stroke:#586e75;stroke-width:0.3985;stroke-linecap:butt;stroke-linejoin:miter;stroke-miterlimit:10;stroke-dasharray:none;stroke-opacity:1"
       transform="matrix(1.3333333,0,0,-1.3333333,91.55412,218.9216)" />
    <path
       id="path16"
       d="M 0,-7.41896 -34.84007,-34.89479"
       style="fill:none;stroke:#586e75;stroke-width:0.3985;stroke-linecap:butt;stroke-linejoin:miter;stroke-miterlimit:10;stroke-dasharray:none;stroke-opacity:1"
       transform="matrix(1.3333333,0,0,-1.3333333,138.01128,152.49597)" />
    <path
       id="path17"
       d="M 0,-7.41896 34.84009,-34.89479"
       style="fill:none;stroke:#586e75;stroke-width:0.3985;stroke-linecap:butt;stroke-linejoin:miter;stroke-miterlimit:10;stroke-dasharray:none;stroke-opacity:1"
       transform="matrix(1.3333333,0,0,-1.3333333,138.01128,152.49597)" />
    <path
       id="path18"
       d="M 0,-7.41896 -37.32864,-34.89479"
       style="fill:none;stroke:#586e75;stroke-width:0.3985;stroke-linecap:butt;stroke-linejoin:miter;stroke-miterlimit:10;stroke-dasharray:none;stroke-opacity:1"
       transform="matrix(1.3333333,0,0,-1.3333333,187.78853,86.06788)" />
    <path
       id="path19"
       d="M 0,-7.41896 37.32866,-34.89479"
       style="fill:none;stroke:#586e75;stroke-width:0.3985;stroke-linecap:butt;stroke-linejoin:miter;stroke-miterlimit:10;stroke-dasharray:none;stroke-opacity:1"
       transform="matrix(1.3333333,0,0,-1.3333333,187.78853,86.06788)" />
    <path
       id="path20"
       d="M 0,-7.41896 -38.57295,-34.89479"
       style="fill:none;stroke:#586e75;stroke-width:0.3985;stroke-linecap:butt;stroke-linejoin:miter;stroke-miterlimit:10;stroke-dasharray:none;stroke-opacity:1"
       transform="matrix(1.3333333,0,0,-1.3333333,239.22667,19.637333)" />
    <path
       id="path21"
       d="M 0,-7.41896 38.57295,-34.89479"
       style="fill:none;stroke:#586e75;stroke-width:0.3985;stroke-linecap:butt;stroke-linejoin:miter;stroke-miterlimit:10;stroke-dasharray:none;stroke-opacity:1"
       transform="matrix(1.3333333,0,0,-1.3333333,239.22667,19.637333)" />
  </g>
</svg>
