<?xml version="1.0" encoding="UTF-8" standalone="no"?>
<!-- Created with Inkscape (http://www.inkscape.org/) -->

<svg
   version="1.1"
   id="svg1"
   width="231.03493"
   height="213.27734"
   viewBox="0 0 231.03493 213.27734"
   sodipodi:docname="fibo-mem.svg"
   inkscape:version="1.4.2 (ebf0e940d0, 2025-05-08)"
   xmlns:inkscape="http://www.inkscape.org/namespaces/inkscape"
   xmlns:sodipodi="http://sodipodi.sourceforge.net/DTD/sodipodi-0.dtd"
   xmlns="http://www.w3.org/2000/svg"
   xmlns:svg="http://www.w3.org/2000/svg">
  <defs
     id="defs1" />
  <sodipodi:namedview
     id="namedview1"
     pagecolor="#ffffff"
     bordercolor="#666666"
     borderopacity="1.0"
     inkscape:showpageshadow="2"
     inkscape:pageopacity="0.0"
     inkscape:pagecheckerboard="0"
     inkscape:deskcolor="#d1d1d1"
     inkscape:zoom="1.28"
     inkscape:cx="185.54688"
     inkscape:cy="223.82813"
     inkscape:window-width="3840"
     inkscape:window-height="2346"
     inkscape:window-x="0"
     inkscape:window-y="54"
     inkscape:window-maximized="1"
     inkscape:current-layer="g1">
    <inkscape:page
       x="0"
       y="0"
       inkscape:label="1"
       id="page1"
       width="231.03493"
       height="213.27734"
       margin="0"
       bleed="0" />
  </sodipodi:namedview>
  <g
     id="g1"
     inkscape:groupmode="layer"
     inkscape:label="1"
     transform="translate(-129.17987,-324.58203)">
    <g
       id="g107">
      <path
         id="path76"
         d="m 297.47266,330.53515 h 1.35937 c 1.0625,0 1.17188,0.21875 1.17188,0.625 0,0.0937 0,0.26563 -0.10938,0.6875 -0.0156,0.0781 -0.0312,0.125 -0.0312,0.15625 0,0.10938 0.0781,0.17188 0.17188,0.17188 0.14062,0 0.14062,-0.0469 0.20312,-0.29688 l 0.76563,-3.04687 c 0.0469,-0.14063 0.0469,-0.17188 0.0469,-0.21875 0,-0.0312 -0.0312,-0.15625 -0.17187,-0.15625 -0.14063,0 -0.15625,0.0781 -0.20313,0.29687 -0.29687,1.09375 -0.625,1.34375 -1.8125,1.34375 h -1.26562 l 0.89062,-3.5625 c 0.125,-0.48437 0.14063,-0.54687 0.75,-0.54687 h 1.85938 c 1.71875,0 2.03125,0.46875 2.03125,1.54687 0,0.32813 0,0.375 -0.0312,0.75 -0.0312,0.1875 -0.0312,0.21875 -0.0312,0.26563 0,0.0625 0.0469,0.15625 0.17187,0.15625 0.15625,0 0.15625,-0.0781 0.1875,-0.34375 l 0.28125,-2.42188 c 0.0469,-0.375 -0.0312,-0.375 -0.375,-0.375 h -6.85937 c -0.28125,0 -0.42188,0 -0.42188,0.28125 0,0.14063 0.125,0.14063 0.39063,0.14063 0.51562,0 0.90625,0 0.90625,0.26562 0,0.0469 0,0.0781 -0.0625,0.32813 l -1.84375,7.40625 c -0.14063,0.54687 -0.17188,0.65625 -1.28125,0.65625 -0.23438,0 -0.39063,0 -0.39063,0.26562 0,0.17188 0.17188,0.17188 0.20313,0.17188 0.40625,0 1.45312,-0.0469 1.85937,-0.0469 0.45313,0 1.625,0.0469 2.07813,0.0469 0.125,0 0.29687,0 0.29687,-0.26563 0,-0.10937 -0.0781,-0.14062 -0.0781,-0.15625 -0.0469,-0.0156 -0.0781,-0.0156 -0.39063,-0.0156 -0.3125,0 -0.39062,0 -0.73437,-0.0312 -0.40625,-0.0312 -0.45313,-0.0937 -0.45313,-0.26563 0,-0.0312 0,-0.125 0.0625,-0.32812 z m 0,0"
         style="fill:#d33682;fill-opacity:1;fill-rule:nonzero;stroke:none;stroke-width:1.33333" />
      <path
         id="path77"
         d="m 308.82812,338.4414 c 0,-0.0469 0,-0.0625 -0.25,-0.3125 -1.75,-1.76562 -2.1875,-4.40625 -2.1875,-6.54687 0,-2.4375 0.53125,-4.875 2.25,-6.625 0.1875,-0.17188 0.1875,-0.1875 0.1875,-0.23438 0,-0.0937 -0.0625,-0.14062 -0.14062,-0.14062 -0.14063,0 -1.40625,0.95312 -2.23438,2.73437 -0.71875,1.53125 -0.875,3.09375 -0.875,4.26563 0,1.09375 0.15625,2.78125 0.92188,4.375 0.84375,1.71875 2.04687,2.625 2.1875,2.625 0.0781,0 0.14062,-0.0469 0.14062,-0.14063 z m 2.63282,-7.95312 v -0.32813 c 0,-3.54687 1.73437,-4.04687 2.45312,-4.04687 0.34375,0 0.92188,0.0781 1.23438,0.5625 -0.21875,0 -0.76563,0 -0.76563,0.625 0,0.4375 0.32813,0.64062 0.64063,0.64062 0.21875,0 0.64062,-0.125 0.64062,-0.67187 0,-0.84375 -0.60937,-1.51563 -1.78125,-1.51563 -1.78125,0 -3.67187,1.8125 -3.67187,4.90625 0,3.73438 1.625,4.73438 2.92187,4.73438 1.54688,0 2.875,-1.32813 2.875,-3.17188 0,-1.78125 -1.23437,-3.125 -2.79687,-3.125 -0.95313,0 -1.46875,0.71875 -1.75,1.39063 z m 1.67187,4.51562 c -0.89062,0 -1.29687,-0.84375 -1.39062,-1.0625 -0.25,-0.65625 -0.25,-1.76562 -0.25,-2.01562 0,-1.09375 0.45312,-2.5 1.70312,-2.5 0.23438,0 0.875,0 1.3125,0.875 0.25,0.51562 0.25,1.21875 0.25,1.90625 0,0.67187 0,1.375 -0.23437,1.875 -0.42188,0.84375 -1.0625,0.92187 -1.39063,0.92187 z m 7.53125,-3.42187 c 0,-1.09375 -0.15625,-2.78125 -0.92187,-4.375 -0.84375,-1.71875 -2.04688,-2.625 -2.1875,-2.625 -0.0781,0 -0.14063,0.0625 -0.14063,0.14062 0,0.0469 0,0.0625 0.26563,0.32813 1.375,1.375 2.17187,3.60937 2.17187,6.53125 0,2.39062 -0.51562,4.85937 -2.25,6.625 -0.1875,0.17187 -0.1875,0.1875 -0.1875,0.23437 0,0.0781 0.0625,0.14063 0.14063,0.14063 0.14062,0 1.40625,-0.95313 2.21875,-2.73438 0.71875,-1.53125 0.89062,-3.09375 0.89062,-4.26562 z m 0,0"
         style="fill:#d33682;fill-opacity:1;fill-rule:nonzero;stroke:none;stroke-width:1.33333" />
      <path
         id="path78"
         d="m 337.01953,370.39063 h 1.35938 c 1.0625,0 1.17187,0.21875 1.17187,0.625 0,0.0937 0,0.26562 -0.10937,0.6875 -0.0156,0.0781 -0.0312,0.125 -0.0312,0.15625 0,0.10937 0.0781,0.17187 0.17188,0.17187 0.14062,0 0.14062,-0.0469 0.20312,-0.29687 l 0.76562,-3.04688 c 0.0469,-0.14062 0.0469,-0.17187 0.0469,-0.21875 0,-0.0312 -0.0312,-0.15625 -0.17188,-0.15625 -0.14062,0 -0.15625,0.0781 -0.20312,0.29688 -0.29688,1.09375 -0.625,1.34375 -1.8125,1.34375 h -1.26563 l 0.89063,-3.5625 c 0.125,-0.48438 0.14062,-0.54688 0.75,-0.54688 h 1.85937 c 1.71875,0 2.03125,0.46875 2.03125,1.54688 0,0.32812 0,0.375 -0.0312,0.75 -0.0312,0.1875 -0.0312,0.21875 -0.0312,0.26562 0,0.0625 0.0469,0.15625 0.17187,0.15625 0.15625,0 0.15625,-0.0781 0.1875,-0.34375 l 0.28125,-2.42187 c 0.0469,-0.375 -0.0312,-0.375 -0.375,-0.375 h -6.85938 c -0.28125,0 -0.42187,0 -0.42187,0.28125 0,0.14062 0.125,0.14062 0.39062,0.14062 0.51563,0 0.90625,0 0.90625,0.26563 0,0.0469 0,0.0781 -0.0625,0.32812 l -1.84375,7.40625 c -0.14062,0.54688 -0.17187,0.65625 -1.28125,0.65625 -0.23437,0 -0.39062,0 -0.39062,0.26563 0,0.17187 0.17187,0.17187 0.20312,0.17187 0.40625,0 1.45313,-0.0469 1.85938,-0.0469 0.45312,0 1.625,0.0469 2.07812,0.0469 0.125,0 0.29688,0 0.29688,-0.26562 0,-0.10938 -0.0781,-0.14063 -0.0781,-0.15625 -0.0469,-0.0156 -0.0781,-0.0156 -0.39062,-0.0156 -0.3125,0 -0.39063,0 -0.73438,-0.0312 -0.40625,-0.0312 -0.45312,-0.0937 -0.45312,-0.26562 0,-0.0312 0,-0.125 0.0625,-0.32813 z m 0,0"
         style="fill:#268bd2;fill-opacity:1;fill-rule:nonzero;stroke:none;stroke-width:1.33333" />
      <path
         id="path79"
         d="m 348.375,378.29687 c 0,-0.0469 0,-0.0625 -0.25,-0.3125 -1.75,-1.76562 -2.1875,-4.40624 -2.1875,-6.54687 0,-2.4375 0.53125,-4.875 2.25,-6.625 0.1875,-0.17187 0.1875,-0.1875 0.1875,-0.23437 0,-0.0937 -0.0625,-0.14063 -0.14062,-0.14063 -0.14063,0 -1.40625,0.95313 -2.23438,2.73438 -0.71875,1.53125 -0.875,3.09375 -0.875,4.26562 0,1.09375 0.15625,2.78125 0.92188,4.375 0.84375,1.71875 2.04687,2.625 2.1875,2.625 0.0781,0 0.14062,-0.0469 0.14062,-0.14063 z m 4.90235,-5.67187 v 1.21875 c 0,0.5 -0.0156,0.65625 -1.0625,0.65625 h -0.28125 v 0.4375 c 0.5625,-0.0469 1.29687,-0.0469 1.875,-0.0469 0.59375,0 1.34375,0 1.90625,0.0469 V 374.5 h -0.28125 c -1.04688,0 -1.07813,-0.15625 -1.07813,-0.65625 V 372.625 h 1.40625 v -0.4375 h -1.40625 v -6.35937 c 0,-0.28125 0,-0.375 -0.21875,-0.375 -0.125,0 -0.17187,0 -0.28125,0.17187 l -4.29687,6.5625 v 0.4375 z m 0.0937,-0.4375 h -3.42187 l 3.42187,-5.21875 z m 6.84375,-0.75 c 0,-1.09375 -0.15625,-2.78125 -0.92187,-4.375 -0.84375,-1.71875 -2.04688,-2.625 -2.1875,-2.625 -0.0781,0 -0.14063,0.0625 -0.14063,0.14063 0,0.0469 0,0.0625 0.26563,0.32812 1.375,1.375 2.17187,3.60938 2.17187,6.53125 0,2.39063 -0.51562,4.85938 -2.25,6.625 -0.1875,0.17187 -0.1875,0.1875 -0.1875,0.23437 0,0.0781 0.0625,0.14063 0.14063,0.14063 0.14062,0 1.40625,-0.95312 2.21875,-2.73438 0.71875,-1.53124 0.89062,-3.09374 0.89062,-4.26562 z m 0,0"
         style="fill:#268bd2;fill-opacity:1;fill-rule:nonzero;stroke:none;stroke-width:1.33333" />
      <path
         id="path80"
         d="m 257.91797,370.39453 h 1.35937 c 1.0625,0 1.17188,0.21875 1.17188,0.625 0,0.0937 0,0.26563 -0.10938,0.6875 -0.0156,0.0781 -0.0312,0.125 -0.0312,0.15625 0,0.10938 0.0781,0.17188 0.17188,0.17188 0.14062,0 0.14062,-0.0469 0.20312,-0.29688 l 0.76563,-3.04687 c 0.0469,-0.14063 0.0469,-0.17188 0.0469,-0.21875 0,-0.0312 -0.0312,-0.15625 -0.17187,-0.15625 -0.14063,0 -0.15625,0.0781 -0.20313,0.29687 -0.29687,1.09375 -0.625,1.34375 -1.8125,1.34375 h -1.26562 l 0.89062,-3.5625 c 0.125,-0.48437 0.14063,-0.54687 0.75,-0.54687 h 1.85938 c 1.71875,0 2.03125,0.46875 2.03125,1.54687 0,0.32813 0,0.375 -0.0312,0.75 -0.0312,0.1875 -0.0312,0.21875 -0.0312,0.26563 0,0.0625 0.0469,0.15625 0.17187,0.15625 0.15625,0 0.15625,-0.0781 0.1875,-0.34375 l 0.28125,-2.42188 c 0.0469,-0.375 -0.0312,-0.375 -0.375,-0.375 h -6.85937 c -0.28125,0 -0.42188,0 -0.42188,0.28125 0,0.14063 0.125,0.14063 0.39063,0.14063 0.51562,0 0.90625,0 0.90625,0.26562 0,0.0469 0,0.0781 -0.0625,0.32813 l -1.84375,7.40625 c -0.14063,0.54687 -0.17188,0.65625 -1.28125,0.65625 -0.23438,0 -0.39063,0 -0.39063,0.26562 0,0.17188 0.17188,0.17188 0.20313,0.17188 0.40625,0 1.45312,-0.0469 1.85937,-0.0469 0.45313,0 1.625,0.0469 2.07813,0.0469 0.125,0 0.29687,0 0.29687,-0.26563 0,-0.10937 -0.0781,-0.14062 -0.0781,-0.15625 -0.0469,-0.0156 -0.0781,-0.0156 -0.39062,-0.0156 -0.3125,0 -0.39063,0 -0.73438,-0.0312 -0.40625,-0.0312 -0.45312,-0.0937 -0.45312,-0.26563 0,-0.0312 0,-0.125 0.0625,-0.32812 z m 0,0"
         style="fill:#d33682;fill-opacity:1;fill-rule:nonzero;stroke:none;stroke-width:1.33333" />
      <path
         id="path81"
         d="m 269.27343,378.30078 c 0,-0.0469 0,-0.0625 -0.25,-0.3125 -1.75,-1.76562 -2.1875,-4.40625 -2.1875,-6.54687 0,-2.4375 0.53125,-4.875 2.25,-6.625 0.1875,-0.17188 0.1875,-0.1875 0.1875,-0.23438 0,-0.0937 -0.0625,-0.14062 -0.14062,-0.14062 -0.14063,0 -1.40625,0.95312 -2.23438,2.73437 -0.71875,1.53125 -0.875,3.09375 -0.875,4.26563 0,1.09375 0.15625,2.78125 0.92188,4.375 0.84375,1.71875 2.04687,2.625 2.1875,2.625 0.0781,0 0.14062,-0.0469 0.14062,-0.14063 z m 7.07032,-6.17187 c 0,-1.67188 -1.14063,-3.0625 -2.65625,-3.0625 -0.67188,0 -1.26563,0.21875 -1.78125,0.70312 v -2.71875 c 0.28125,0.0781 0.75,0.17188 1.1875,0.17188 1.73437,0 2.70312,-1.26563 2.70312,-1.45313 0,-0.0781 -0.0312,-0.15625 -0.14062,-0.15625 0,0 -0.0313,0 -0.10938,0.0469 -0.28125,0.125 -0.96875,0.40625 -1.90625,0.40625 -0.54687,0 -1.20312,-0.0937 -1.85937,-0.39063 -0.10938,-0.0469 -0.14063,-0.0469 -0.17188,-0.0469 -0.14062,0 -0.14062,0.10937 -0.14062,0.34375 v 4.14062 c 0,0.25 0,0.35938 0.20312,0.35938 0.0937,0 0.125,-0.0469 0.1875,-0.125 0.15625,-0.21875 0.67188,-0.98438 1.79688,-0.98438 0.73437,0 1.07812,0.65625 1.1875,0.90625 0.23437,0.51563 0.26562,1.0625 0.26562,1.76563 0,0.48437 0,1.32812 -0.34375,1.90625 -0.32812,0.54687 -0.85937,0.92187 -1.5,0.92187 -1.01562,0 -1.8125,-0.75 -2.0625,-1.57812 0.0469,0.0156 0.0937,0.0312 0.25,0.0312 0.45313,0 0.70313,-0.34375 0.70313,-0.6875 0,-0.32813 -0.25,-0.6875 -0.70313,-0.6875 -0.20312,0 -0.6875,0.10937 -0.6875,0.75 0,1.20312 0.96875,2.5625 2.53125,2.5625 1.625,0 3.04688,-1.34375 3.04688,-3.125 z m 4.76562,-0.6875 c 0,-1.09375 -0.15625,-2.78125 -0.92187,-4.375 -0.84375,-1.71875 -2.04688,-2.625 -2.1875,-2.625 -0.0781,0 -0.14063,0.0625 -0.14063,0.14062 0,0.0469 0,0.0625 0.26563,0.32813 1.375,1.375 2.17187,3.60937 2.17187,6.53125 0,2.39062 -0.51562,4.85937 -2.25,6.625 -0.1875,0.17187 -0.1875,0.1875 -0.1875,0.23437 0,0.0781 0.0625,0.14063 0.14063,0.14063 0.14062,0 1.40625,-0.95313 2.21875,-2.73438 0.71875,-1.53125 0.89062,-3.09375 0.89062,-4.26562 z m 0,0"
         style="fill:#d33682;fill-opacity:1;fill-rule:nonzero;stroke:none;stroke-width:1.33333" />
      <path
         id="path82"
         d="m 296.19141,410.24609 h 1.35937 c 1.0625,0 1.17188,0.21875 1.17188,0.625 0,0.0937 0,0.26563 -0.10938,0.6875 -0.0156,0.0781 -0.0312,0.125 -0.0312,0.15625 0,0.10938 0.0781,0.17188 0.17187,0.17188 0.14063,0 0.14063,-0.0469 0.20313,-0.29688 l 0.76562,-3.04687 c 0.0469,-0.14063 0.0469,-0.17188 0.0469,-0.21875 0,-0.0312 -0.0312,-0.15625 -0.17188,-0.15625 -0.14062,0 -0.15625,0.0781 -0.20312,0.29687 -0.29688,1.09375 -0.625,1.34375 -1.8125,1.34375 h -1.26563 l 0.89062,-3.5625 c 0.125,-0.48437 0.14063,-0.54687 0.75,-0.54687 h 1.85938 c 1.71875,0 2.03125,0.46875 2.03125,1.54687 0,0.32813 0,0.375 -0.0312,0.75 -0.0312,0.1875 -0.0312,0.21875 -0.0312,0.26563 0,0.0625 0.0469,0.15625 0.17188,0.15625 0.15625,0 0.15625,-0.0781 0.1875,-0.34375 l 0.28125,-2.42188 c 0.0469,-0.375 -0.0312,-0.375 -0.375,-0.375 h -6.85938 c -0.28125,0 -0.42188,0 -0.42188,0.28125 0,0.14063 0.125,0.14063 0.39063,0.14063 0.51562,0 0.90625,0 0.90625,0.26562 0,0.0469 0,0.0781 -0.0625,0.32813 l -1.84375,7.40625 c -0.14063,0.54687 -0.17188,0.65625 -1.28125,0.65625 -0.23438,0 -0.39063,0 -0.39063,0.26562 0,0.17188 0.17188,0.17188 0.20313,0.17188 0.40625,0 1.45312,-0.0469 1.85937,-0.0469 0.45313,0 1.625,0.0469 2.07813,0.0469 0.125,0 0.29687,0 0.29687,-0.26563 0,-0.10937 -0.0781,-0.14062 -0.0781,-0.15625 -0.0469,-0.0156 -0.0781,-0.0156 -0.39063,-0.0156 -0.3125,0 -0.39062,0 -0.73437,-0.0312 -0.40625,-0.0312 -0.45313,-0.0937 -0.45313,-0.26563 0,-0.0312 0,-0.125 0.0625,-0.32812 z m 0,0"
         style="fill:#268bd2;fill-opacity:1;fill-rule:nonzero;stroke:none;stroke-width:1.33333" />
      <path
         id="path83"
         d="m 307.54688,418.15234 c 0,-0.0469 0,-0.0625 -0.25,-0.3125 -1.75,-1.76562 -2.1875,-4.40625 -2.1875,-6.54687 0,-2.4375 0.53125,-4.875 2.25,-6.625 0.1875,-0.17188 0.1875,-0.1875 0.1875,-0.23438 0,-0.0937 -0.0625,-0.14062 -0.14063,-0.14062 -0.14062,0 -1.40625,0.95312 -2.23437,2.73437 -0.71875,1.53125 -0.875,3.09375 -0.875,4.26563 0,1.09375 0.15625,2.78125 0.92187,4.375 0.84375,1.71875 2.04688,2.625 2.1875,2.625 0.0781,0 0.14063,-0.0469 0.14063,-0.14063 z m 4.85156,-8.28125 c 1.14063,-0.39062 1.95313,-1.35937 1.95313,-2.46875 0,-1.15625 -1.23438,-1.9375 -2.57813,-1.9375 -1.40625,0 -2.46875,0.84375 -2.46875,1.90625 0,0.46875 0.3125,0.73438 0.71875,0.73438 0.42187,0 0.70313,-0.3125 0.70313,-0.71875 0,-0.70313 -0.65626,-0.70313 -0.85938,-0.70313 0.42188,-0.6875 1.35938,-0.85937 1.85938,-0.85937 0.57812,0 1.34374,0.29687 1.34374,1.5625 0,0.17187 -0.0312,0.98437 -0.39062,1.59375 -0.42188,0.67187 -0.90625,0.71875 -1.25,0.73437 -0.10937,0.0156 -0.45312,0.0312 -0.54688,0.0312 -0.10937,0.0156 -0.20312,0.0312 -0.20312,0.17187 0,0.15625 0.0937,0.15625 0.32812,0.15625 h 0.625 c 1.14063,0 1.65626,0.95313 1.65626,2.32813 0,1.90625 -0.96876,2.3125 -1.57813,2.3125 -0.60937,0 -1.65625,-0.25 -2.14063,-1.0625 0.48438,0.0625 0.92188,-0.25 0.92188,-0.78125 0,-0.5 -0.375,-0.78125 -0.78125,-0.78125 -0.34375,0 -0.78125,0.20312 -0.78125,0.8125 0,1.28125 1.29688,2.20312 2.82812,2.20312 1.70313,0 2.96876,-1.28125 2.96876,-2.70312 0,-1.15625 -0.875,-2.25 -2.32813,-2.53125 z m 6.98437,1.42188 c 0,-1.09375 -0.15624,-2.78125 -0.92187,-4.375 -0.84375,-1.71875 -2.04687,-2.625 -2.1875,-2.625 -0.0781,0 -0.14063,0.0625 -0.14063,0.14062 0,0.0469 0,0.0625 0.26563,0.32813 1.375,1.375 2.17187,3.60937 2.17187,6.53125 0,2.39062 -0.51562,4.85937 -2.25,6.625 -0.1875,0.17187 -0.1875,0.1875 -0.1875,0.23437 0,0.0781 0.0625,0.14063 0.14063,0.14063 0.14063,0 1.40625,-0.95313 2.21875,-2.73438 0.71875,-1.53125 0.89062,-3.09375 0.89062,-4.26562 z m 0,0"
         style="fill:#268bd2;fill-opacity:1;fill-rule:nonzero;stroke:none;stroke-width:1.33333" />
      <path
         id="path84"
         d="M 219.64062,410.25 H 221 c 1.0625,0 1.17187,0.21875 1.17187,0.625 0,0.0937 0,0.26563 -0.10937,0.6875 -0.0156,0.0781 -0.0312,0.125 -0.0312,0.15625 0,0.10937 0.0781,0.17188 0.17188,0.17188 0.14062,0 0.14062,-0.0469 0.20312,-0.29688 l 0.76563,-3.04687 c 0.0469,-0.14063 0.0469,-0.17188 0.0469,-0.21875 0,-0.0312 -0.0312,-0.15625 -0.17187,-0.15625 -0.14063,0 -0.15625,0.0781 -0.20313,0.29687 -0.29687,1.09375 -0.625,1.34375 -1.8125,1.34375 h -1.26563 l 0.89063,-3.5625 c 0.125,-0.48437 0.14062,-0.54687 0.75,-0.54687 h 1.85937 c 1.71875,0 2.03125,0.46875 2.03125,1.54687 0,0.32813 0,0.375 -0.0312,0.75 -0.0312,0.1875 -0.0312,0.21875 -0.0312,0.26563 0,0.0625 0.0469,0.15625 0.17187,0.15625 0.15625,0 0.15625,-0.0781 0.1875,-0.34375 l 0.28125,-2.42188 c 0.0469,-0.375 -0.0312,-0.375 -0.375,-0.375 h -6.85938 c -0.28125,0 -0.42187,0 -0.42187,0.28125 0,0.14063 0.125,0.14063 0.39062,0.14063 0.51563,0 0.90625,0 0.90625,0.26562 0,0.0469 0,0.0781 -0.0625,0.32813 l -1.84375,7.40625 c -0.14062,0.54687 -0.17187,0.65625 -1.28125,0.65625 -0.23437,0 -0.39062,0 -0.39062,0.26562 0,0.17188 0.17187,0.17188 0.20312,0.17188 0.40625,0 1.45313,-0.0469 1.85938,-0.0469 0.45312,0 1.625,0.0469 2.07812,0.0469 0.125,0 0.29688,0 0.29688,-0.26563 0,-0.10937 -0.0781,-0.14062 -0.0781,-0.15625 -0.0469,-0.0156 -0.0781,-0.0156 -0.39062,-0.0156 -0.3125,0 -0.39063,0 -0.73438,-0.0312 -0.40625,-0.0312 -0.45312,-0.0937 -0.45312,-0.26562 0,-0.0312 0,-0.125 0.0625,-0.32813 z m 0,0"
         style="fill:#d33682;fill-opacity:1;fill-rule:nonzero;stroke:none;stroke-width:1.33333" />
      <path
         id="path85"
         d="m 230.99219,418.15625 c 0,-0.0469 0,-0.0625 -0.25,-0.3125 -1.75,-1.76563 -2.1875,-4.40625 -2.1875,-6.54687 0,-2.4375 0.53125,-4.875 2.25,-6.625 0.1875,-0.17188 0.1875,-0.1875 0.1875,-0.23438 0,-0.0937 -0.0625,-0.14062 -0.14063,-0.14062 -0.14062,0 -1.40625,0.95312 -2.23437,2.73437 -0.71875,1.53125 -0.875,3.09375 -0.875,4.26563 0,1.09374 0.15625,2.78125 0.92187,4.37499 0.84375,1.71875 2.04688,2.625 2.1875,2.625 0.0781,0 0.14063,-0.0469 0.14063,-0.14062 z m 4.90234,-5.67188 v 1.21876 c 0,0.5 -0.0156,0.65625 -1.0625,0.65625 h -0.28125 v 0.4375 c 0.5625,-0.0469 1.29688,-0.0469 1.875,-0.0469 0.59375,0 1.34375,0 1.90625,0.0469 v -0.4375 h -0.28125 c -1.04687,0 -1.07812,-0.15625 -1.07812,-0.65625 v -1.21876 h 1.40625 v -0.43749 h -1.40625 v -6.35938 c 0,-0.28125 0,-0.375 -0.21875,-0.375 -0.125,0 -0.17188,0 -0.28125,0.17188 l -4.29688,6.5625 v 0.43749 z m 0.0937,-0.43749 h -3.42188 l 3.42188,-5.21875 z m 6.84375,-0.75 c 0,-1.09375 -0.15625,-2.78125 -0.92188,-4.375 -0.84375,-1.71875 -2.04687,-2.625 -2.1875,-2.625 -0.0781,0 -0.14062,0.0625 -0.14062,0.14062 0,0.0469 0,0.0625 0.26562,0.32813 1.375,1.375 2.17188,3.60937 2.17188,6.53125 0,2.39062 -0.51563,4.85937 -2.25,6.62499 -0.1875,0.17188 -0.1875,0.1875 -0.1875,0.23438 0,0.0781 0.0625,0.14062 0.14062,0.14062 0.14063,0 1.40625,-0.95312 2.21875,-2.73437 0.71875,-1.53125 0.89063,-3.09375 0.89063,-4.26562 z m 0,0"
         style="fill:#d33682;fill-opacity:1;fill-rule:nonzero;stroke:none;stroke-width:1.33333" />
      <path
         id="path86"
         d="m 255.36328,450.10547 h 1.35937 c 1.0625,0 1.17188,0.21875 1.17188,0.625 0,0.0937 0,0.26562 -0.10938,0.6875 -0.0156,0.0781 -0.0312,0.125 -0.0312,0.15625 0,0.10937 0.0781,0.17187 0.17188,0.17187 0.14062,0 0.14062,-0.0469 0.20312,-0.29687 l 0.76563,-3.04688 c 0.0469,-0.14062 0.0469,-0.17187 0.0469,-0.21875 0,-0.0312 -0.0312,-0.15625 -0.17187,-0.15625 -0.14063,0 -0.15625,0.0781 -0.20313,0.29688 -0.29687,1.09375 -0.625,1.34375 -1.8125,1.34375 h -1.26562 l 0.89062,-3.5625 c 0.125,-0.48438 0.14063,-0.54688 0.75,-0.54688 h 1.85938 c 1.71875,0 2.03125,0.46875 2.03125,1.54688 0,0.32812 0,0.375 -0.0312,0.75 -0.0312,0.1875 -0.0312,0.21875 -0.0312,0.26562 0,0.0625 0.0469,0.15625 0.17187,0.15625 0.15625,0 0.15625,-0.0781 0.1875,-0.34375 l 0.28125,-2.42187 c 0.0469,-0.375 -0.0312,-0.375 -0.375,-0.375 h -6.85937 c -0.28125,0 -0.42188,0 -0.42188,0.28125 0,0.14062 0.125,0.14062 0.39063,0.14062 0.51562,0 0.90625,0 0.90625,0.26563 0,0.0469 0,0.0781 -0.0625,0.32812 l -1.84375,7.40625 c -0.14063,0.54688 -0.17188,0.65625 -1.28125,0.65625 -0.23438,0 -0.39063,0 -0.39063,0.26563 0,0.17187 0.17188,0.17187 0.20313,0.17187 0.40625,0 1.45312,-0.0469 1.85937,-0.0469 0.45313,0 1.625,0.0469 2.07813,0.0469 0.125,0 0.29687,0 0.29687,-0.26562 0,-0.10938 -0.0781,-0.14063 -0.0781,-0.15625 -0.0469,-0.0156 -0.0781,-0.0156 -0.39063,-0.0156 -0.3125,0 -0.39062,0 -0.73437,-0.0312 -0.40625,-0.0312 -0.45313,-0.0937 -0.45313,-0.26562 0,-0.0312 0,-0.125 0.0625,-0.32813 z m 0,0"
         style="fill:#268bd2;fill-opacity:1;fill-rule:nonzero;stroke:none;stroke-width:1.33333" />
      <path
         id="path87"
         d="m 266.71484,458.01172 c 0,-0.0469 0,-0.0625 -0.25,-0.3125 -1.75,-1.76563 -2.1875,-4.40625 -2.1875,-6.54688 0,-2.4375 0.53125,-4.875 2.25,-6.625 0.1875,-0.17187 0.1875,-0.1875 0.1875,-0.23437 0,-0.0937 -0.0625,-0.14063 -0.14063,-0.14063 -0.14062,0 -1.40624,0.95313 -2.23437,2.73438 -0.71875,1.53125 -0.875,3.09375 -0.875,4.26562 0,1.09375 0.15625,2.78125 0.92188,4.375 0.84375,1.71875 2.04687,2.625 2.18749,2.625 0.0781,0 0.14063,-0.0469 0.14063,-0.14062 z m 2.57422,-4.4375 1.48437,-1.4375 c 2.1875,-1.9375 3.01563,-2.6875 3.01563,-4.09375 0,-1.59375 -1.25,-2.71875 -2.96875,-2.71875 -1.57813,0 -2.60938,1.29687 -2.60938,2.53125 0,0.79687 0.70313,0.79687 0.73438,0.79687 0.25,0 0.73437,-0.17187 0.73437,-0.75 0,-0.35937 -0.25,-0.71875 -0.75,-0.71875 -0.10937,0 -0.14062,0 -0.17187,0 0.3125,-0.90625 1.07812,-1.42187 1.89062,-1.42187 1.26563,0 1.875,1.14062 1.875,2.28125 0,1.125 -0.70312,2.23437 -1.46875,3.09375 l -2.6875,3 c -0.15625,0.15625 -0.15625,0.17187 -0.15625,0.51562 h 5.1875 l 0.39063,-2.4375 h -0.34375 c -0.0781,0.42188 -0.17188,1.03125 -0.3125,1.25 -0.0937,0.10938 -1.01563,0.10938 -1.32813,0.10938 z m 9.26562,-2.42188 c 0,-1.09375 -0.15625,-2.78125 -0.92187,-4.375 -0.84375,-1.71875 -2.04688,-2.625 -2.1875,-2.625 -0.0781,0 -0.14063,0.0625 -0.14063,0.14063 0,0.0469 0,0.0625 0.26563,0.32812 1.375,1.375 2.17187,3.60938 2.17187,6.53125 0,2.39063 -0.51562,4.85938 -2.25,6.625 -0.1875,0.17188 -0.1875,0.1875 -0.1875,0.23438 0,0.0781 0.0625,0.14062 0.14063,0.14062 0.14062,0 1.40625,-0.95312 2.21875,-2.73437 0.71875,-1.53125 0.89062,-3.09375 0.89062,-4.26563 z m 0,0"
         style="fill:#268bd2;fill-opacity:1;fill-rule:nonzero;stroke:none;stroke-width:1.33333" />
      <path
         id="path88"
         d="m 183.91797,450.10547 h 1.35937 c 1.0625,0 1.17188,0.21875 1.17188,0.625 0,0.0937 0,0.26562 -0.10938,0.6875 -0.0156,0.0781 -0.0312,0.125 -0.0312,0.15625 0,0.10937 0.0781,0.17187 0.17188,0.17187 0.14062,0 0.14062,-0.0469 0.20312,-0.29687 l 0.76563,-3.04688 c 0.0469,-0.14062 0.0469,-0.17187 0.0469,-0.21875 0,-0.0312 -0.0312,-0.15625 -0.17187,-0.15625 -0.14063,0 -0.15625,0.0781 -0.20313,0.29688 -0.29687,1.09375 -0.625,1.34375 -1.8125,1.34375 h -1.26562 l 0.89062,-3.5625 c 0.125,-0.48438 0.14063,-0.54688 0.75,-0.54688 h 1.85938 c 1.71875,0 2.03125,0.46875 2.03125,1.54688 0,0.32812 0,0.375 -0.0312,0.75 -0.0312,0.1875 -0.0312,0.21875 -0.0312,0.26562 0,0.0625 0.0469,0.15625 0.17187,0.15625 0.15625,0 0.15625,-0.0781 0.1875,-0.34375 l 0.28125,-2.42187 c 0.0469,-0.375 -0.0312,-0.375 -0.375,-0.375 h -6.85937 c -0.28125,0 -0.42188,0 -0.42188,0.28125 0,0.14062 0.125,0.14062 0.39063,0.14062 0.51562,0 0.90625,0 0.90625,0.26563 0,0.0469 0,0.0781 -0.0625,0.32812 l -1.84375,7.40625 c -0.14063,0.54688 -0.17188,0.65625 -1.28125,0.65625 -0.23438,0 -0.39063,0 -0.39063,0.26563 0,0.17187 0.17188,0.17187 0.20313,0.17187 0.40625,0 1.45312,-0.0469 1.85937,-0.0469 0.45313,0 1.625,0.0469 2.07813,0.0469 0.125,0 0.29687,0 0.29687,-0.26562 0,-0.10938 -0.0781,-0.14063 -0.0781,-0.15625 -0.0469,-0.0156 -0.0781,-0.0156 -0.39063,-0.0156 -0.3125,0 -0.39062,0 -0.73437,-0.0312 -0.40625,-0.0312 -0.45313,-0.0937 -0.45313,-0.26562 0,-0.0312 0,-0.125 0.0625,-0.32813 z m 0,0"
         style="fill:#d33682;fill-opacity:1;fill-rule:nonzero;stroke:none;stroke-width:1.33333" />
      <path
         id="path89"
         d="m 195.26953,458.01172 c 0,-0.0469 0,-0.0625 -0.25,-0.3125 -1.75,-1.76563 -2.1875,-4.40625 -2.1875,-6.54688 0,-2.4375 0.53125,-4.875 2.25,-6.625 0.1875,-0.17187 0.1875,-0.1875 0.1875,-0.23437 0,-0.0937 -0.0625,-0.14063 -0.14062,-0.14063 -0.14063,0 -1.40625,0.95313 -2.23438,2.73438 -0.71875,1.53125 -0.875,3.09375 -0.875,4.26562 0,1.09375 0.15625,2.78125 0.92188,4.375 0.84375,1.71875 2.04687,2.625 2.1875,2.625 0.0781,0 0.14062,-0.0469 0.14062,-0.14062 z m 4.85547,-8.28125 c 1.14062,-0.39063 1.95312,-1.35938 1.95312,-2.46875 0,-1.15625 -1.23437,-1.9375 -2.57812,-1.9375 -1.40625,0 -2.46875,0.84375 -2.46875,1.90625 0,0.46875 0.3125,0.73437 0.71875,0.73437 0.42187,0 0.70312,-0.3125 0.70312,-0.71875 0,-0.70312 -0.65625,-0.70312 -0.85937,-0.70312 0.42187,-0.6875 1.35937,-0.85938 1.85937,-0.85938 0.57813,0 1.34375,0.29688 1.34375,1.5625 0,0.17188 -0.0312,0.98438 -0.39062,1.59375 -0.42188,0.67188 -0.90625,0.71875 -1.25,0.73438 -0.10937,0.0156 -0.45313,0.0312 -0.54688,0.0312 -0.10937,0.0156 -0.20312,0.0312 -0.20312,0.17187 0,0.15625 0.0937,0.15625 0.32812,0.15625 h 0.625 c 1.14063,0 1.65625,0.95313 1.65625,2.32813 0,1.90625 -0.96875,2.3125 -1.57812,2.3125 -0.60938,0 -1.65625,-0.25 -2.14063,-1.0625 0.48438,0.0625 0.92188,-0.25 0.92188,-0.78125 0,-0.5 -0.375,-0.78125 -0.78125,-0.78125 -0.34375,0 -0.78125,0.20312 -0.78125,0.8125 0,1.28125 1.29687,2.20312 2.82812,2.20312 1.70313,0 2.96875,-1.28125 2.96875,-2.70312 0,-1.15625 -0.875,-2.25 -2.32812,-2.53125 z m 6.98437,1.42187 c 0,-1.09375 -0.15625,-2.78125 -0.92187,-4.375 -0.84375,-1.71875 -2.04688,-2.625 -2.1875,-2.625 -0.0781,0 -0.14063,0.0625 -0.14063,0.14063 0,0.0469 0,0.0625 0.26563,0.32812 1.375,1.375 2.17187,3.60938 2.17187,6.53125 0,2.39063 -0.51562,4.85938 -2.25,6.625 -0.1875,0.17188 -0.1875,0.1875 -0.1875,0.23438 0,0.0781 0.0625,0.14062 0.14063,0.14062 0.14062,0 1.40625,-0.95312 2.21875,-2.73437 0.71875,-1.53125 0.89062,-3.09375 0.89062,-4.26563 z m 0,0"
         style="fill:#d33682;fill-opacity:1;fill-rule:nonzero;stroke:none;stroke-width:1.33333" />
      <path
         id="path90"
         d="m 214.53516,489.96094 h 1.35937 c 1.0625,0 1.17188,0.21875 1.17188,0.625 0,0.0937 0,0.26562 -0.10938,0.6875 -0.0156,0.0781 -0.0312,0.125 -0.0312,0.15625 0,0.10937 0.0781,0.17187 0.17188,0.17187 0.14062,0 0.14062,-0.0469 0.20312,-0.29687 l 0.76563,-3.04688 c 0.0469,-0.14062 0.0469,-0.17187 0.0469,-0.21875 0,-0.0312 -0.0312,-0.15625 -0.17187,-0.15625 -0.14063,0 -0.15625,0.0781 -0.20313,0.29688 -0.29687,1.09375 -0.625,1.34375 -1.8125,1.34375 h -1.26562 l 0.89062,-3.5625 c 0.125,-0.48438 0.14063,-0.54688 0.75,-0.54688 h 1.85938 c 1.71875,0 2.03125,0.46875 2.03125,1.54688 0,0.32812 0,0.375 -0.0312,0.75 -0.0312,0.1875 -0.0312,0.21875 -0.0312,0.26562 0,0.0625 0.0469,0.15625 0.17187,0.15625 0.15625,0 0.15625,-0.0781 0.1875,-0.34375 l 0.28125,-2.42187 c 0.0469,-0.375 -0.0312,-0.375 -0.375,-0.375 h -6.85937 c -0.28125,0 -0.42188,0 -0.42188,0.28125 0,0.14062 0.125,0.14062 0.39063,0.14062 0.51562,0 0.90625,0 0.90625,0.26563 0,0.0469 0,0.0781 -0.0625,0.32812 l -1.84375,7.40625 c -0.14063,0.54688 -0.17188,0.65625 -1.28125,0.65625 -0.23438,0 -0.39063,0 -0.39063,0.26563 0,0.17187 0.17188,0.17187 0.20313,0.17187 0.40625,0 1.45312,-0.0469 1.85937,-0.0469 0.45313,0 1.625,0.0469 2.07813,0.0469 0.125,0 0.29687,0 0.29687,-0.26562 0,-0.10938 -0.0781,-0.14063 -0.0781,-0.15625 -0.0469,-0.0156 -0.0781,-0.0156 -0.39063,-0.0156 -0.3125,0 -0.39062,0 -0.73437,-0.0312 -0.40625,-0.0312 -0.45313,-0.0937 -0.45313,-0.26562 0,-0.0312 0,-0.125 0.0625,-0.32813 z m 0,0"
         style="fill:#dc322f;fill-opacity:1;fill-rule:nonzero;stroke:none;stroke-width:1.33333" />
      <path
         id="path91"
         d="m 225.89062,497.86719 c 0,-0.0469 0,-0.0625 -0.25,-0.3125 -1.75,-1.76563 -2.1875,-4.40625 -2.1875,-6.54688 0,-2.4375 0.53125,-4.875 2.25,-6.625 0.1875,-0.17187 0.1875,-0.1875 0.1875,-0.23437 0,-0.0937 -0.0625,-0.14063 -0.14062,-0.14063 -0.14063,0 -1.40625,0.95313 -2.23438,2.73438 -0.71875,1.53125 -0.875,3.09375 -0.875,4.26562 0,1.09375 0.15625,2.78125 0.92188,4.375 0.84375,1.71875 2.04687,2.625 2.1875,2.625 0.0781,0 0.14062,-0.0469 0.14062,-0.14062 z m 4.90235,-12.3125 c 0,-0.34375 0,-0.375 -0.3125,-0.375 -0.875,0.90625 -2.10938,0.90625 -2.54688,0.90625 v 0.42187 c 0.28125,0 1.10938,0 1.82813,-0.35937 v 7.25 c 0,0.5 -0.0469,0.67187 -1.29688,0.67187 h -0.45312 v 0.4375 c 0.48437,-0.0469 1.70312,-0.0469 2.26562,-0.0469 0.5625,0 1.78125,0 2.26563,0.0469 v -0.4375 h -0.4375 c -1.26563,0 -1.3125,-0.15625 -1.3125,-0.67187 z m 6.9375,5.45312 c 0,-1.09375 -0.15625,-2.78125 -0.92188,-4.375 -0.84375,-1.71875 -2.04687,-2.625 -2.1875,-2.625 -0.0781,0 -0.14062,0.0625 -0.14062,0.14063 0,0.0469 0,0.0625 0.26562,0.32812 1.375,1.375 2.17188,3.60938 2.17188,6.53125 0,2.39063 -0.51563,4.85938 -2.25,6.625 -0.1875,0.17188 -0.1875,0.1875 -0.1875,0.23438 0,0.0781 0.0625,0.14062 0.14062,0.14062 0.14063,0 1.40625,-0.95312 2.21875,-2.73437 0.71875,-1.53125 0.89063,-3.09375 0.89063,-4.26563 z m 0,0"
         style="fill:#dc322f;fill-opacity:1;fill-rule:nonzero;stroke:none;stroke-width:1.33333" />
      <path
         id="path92"
         d="m 153.29687,489.96094 h 1.35938 c 1.0625,0 1.17187,0.21875 1.17187,0.625 0,0.0937 0,0.26563 -0.10937,0.6875 -0.0156,0.0781 -0.0312,0.125 -0.0312,0.15625 0,0.10938 0.0781,0.17188 0.17187,0.17188 0.14063,0 0.14063,-0.0469 0.20313,-0.29688 l 0.76562,-3.04687 c 0.0469,-0.14063 0.0469,-0.17188 0.0469,-0.21875 0,-0.0312 -0.0312,-0.15625 -0.17188,-0.15625 -0.14062,0 -0.15625,0.0781 -0.20312,0.29687 -0.29688,1.09375 -0.625,1.34375 -1.8125,1.34375 h -1.26563 l 0.89063,-3.5625 c 0.125,-0.48437 0.14062,-0.54687 0.75,-0.54687 h 1.85937 c 1.71875,0 2.03125,0.46875 2.03125,1.54687 0,0.32813 0,0.375 -0.0312,0.75 -0.0312,0.1875 -0.0312,0.21875 -0.0312,0.26563 0,0.0625 0.0469,0.15625 0.17188,0.15625 0.15625,0 0.15625,-0.0781 0.1875,-0.34375 l 0.28125,-2.42188 c 0.0469,-0.375 -0.0312,-0.375 -0.375,-0.375 h -6.85938 c -0.28125,0 -0.42187,0 -0.42187,0.28125 0,0.14063 0.125,0.14063 0.39062,0.14063 0.51563,0 0.90625,0 0.90625,0.26562 0,0.0469 0,0.0781 -0.0625,0.32813 l -1.84375,7.40625 c -0.14062,0.54687 -0.17187,0.65625 -1.28125,0.65625 -0.23437,0 -0.39062,0 -0.39062,0.26562 0,0.17188 0.17187,0.17188 0.20312,0.17188 0.40625,0 1.45313,-0.0469 1.85938,-0.0469 0.45312,0 1.625,0.0469 2.07812,0.0469 0.125,0 0.29688,0 0.29688,-0.26563 0,-0.10937 -0.0781,-0.14062 -0.0781,-0.15625 -0.0469,-0.0156 -0.0781,-0.0156 -0.39062,-0.0156 -0.3125,0 -0.39063,0 -0.73438,-0.0312 -0.40625,-0.0312 -0.45312,-0.0937 -0.45312,-0.26563 0,-0.0312 0,-0.125 0.0625,-0.32812 z m 0,0"
         style="fill:#d33682;fill-opacity:1;fill-rule:nonzero;stroke:none;stroke-width:1.33333" />
      <path
         id="path93"
         d="m 164.64843,497.86719 c 0,-0.0469 0,-0.0625 -0.25,-0.3125 -1.75,-1.76562 -2.1875,-4.40625 -2.1875,-6.54687 0,-2.4375 0.53125,-4.875 2.25,-6.625 0.1875,-0.17188 0.1875,-0.1875 0.1875,-0.23438 0,-0.0937 -0.0625,-0.14062 -0.14062,-0.14062 -0.14063,0 -1.40625,0.95312 -2.23438,2.73437 -0.71875,1.53125 -0.875,3.09375 -0.875,4.26563 0,1.09375 0.15625,2.78125 0.92188,4.375 0.84375,1.71875 2.04687,2.625 2.1875,2.625 0.0781,0 0.14062,-0.0469 0.14062,-0.14063 z m 2.57422,-4.4375 1.48438,-1.4375 c 2.1875,-1.9375 3.01562,-2.6875 3.01562,-4.09375 0,-1.59375 -1.25,-2.71875 -2.96875,-2.71875 -1.57812,0 -2.60937,1.29688 -2.60937,2.53125 0,0.79688 0.70312,0.79688 0.73437,0.79688 0.25,0 0.73438,-0.17188 0.73438,-0.75 0,-0.35938 -0.25,-0.71875 -0.75,-0.71875 -0.10938,0 -0.14063,0 -0.17188,0 0.3125,-0.90625 1.07813,-1.42188 1.89063,-1.42188 1.26562,0 1.875,1.14063 1.875,2.28125 0,1.125 -0.70313,2.23438 -1.46875,3.09375 l -2.6875,3 c -0.15625,0.15625 -0.15625,0.17188 -0.15625,0.51563 h 5.1875 l 0.39062,-2.4375 h -0.34375 c -0.0781,0.42187 -0.17187,1.03125 -0.3125,1.25 -0.0937,0.10937 -1.01562,0.10937 -1.32812,0.10937 z m 9.26563,-2.42187 c 0,-1.09375 -0.15625,-2.78125 -0.92188,-4.375 -0.84375,-1.71875 -2.04687,-2.625 -2.1875,-2.625 -0.0781,0 -0.14062,0.0625 -0.14062,0.14062 0,0.0469 0,0.0625 0.26562,0.32813 1.375,1.375 2.17188,3.60937 2.17188,6.53125 0,2.39062 -0.51563,4.85937 -2.25,6.625 -0.1875,0.17187 -0.1875,0.1875 -0.1875,0.23437 0,0.0781 0.0625,0.14063 0.14062,0.14063 0.14063,0 1.40625,-0.95313 2.21875,-2.73438 0.71875,-1.53125 0.89063,-3.09375 0.89063,-4.26562 z m 0,0"
         style="fill:#d33682;fill-opacity:1;fill-rule:nonzero;stroke:none;stroke-width:1.33333" />
      <path
         id="path94"
         d="m 173.70703,529.8125 h 1.35937 c 1.0625,0 1.17188,0.21875 1.17188,0.625 0,0.0937 0,0.26563 -0.10938,0.6875 -0.0156,0.0781 -0.0312,0.125 -0.0312,0.15625 0,0.10938 0.0781,0.17188 0.17188,0.17188 0.14062,0 0.14062,-0.0469 0.20312,-0.29688 l 0.76563,-3.04687 c 0.0469,-0.14063 0.0469,-0.17188 0.0469,-0.21875 0,-0.0312 -0.0312,-0.15625 -0.17187,-0.15625 -0.14063,0 -0.15625,0.0781 -0.20313,0.29687 -0.29687,1.09375 -0.625,1.34375 -1.8125,1.34375 h -1.26562 l 0.89062,-3.5625 c 0.125,-0.48437 0.14063,-0.54687 0.75,-0.54687 h 1.85938 c 1.71875,0 2.03125,0.46875 2.03125,1.54687 0,0.32813 0,0.375 -0.0312,0.75 -0.0312,0.1875 -0.0312,0.21875 -0.0312,0.26563 0,0.0625 0.0469,0.15625 0.17187,0.15625 0.15625,0 0.15625,-0.0781 0.1875,-0.34375 l 0.28125,-2.42188 c 0.0469,-0.375 -0.0312,-0.375 -0.375,-0.375 h -6.85937 c -0.28125,0 -0.42188,0 -0.42188,0.28125 0,0.14063 0.125,0.14063 0.39063,0.14063 0.51562,0 0.90625,0 0.90625,0.26562 0,0.0469 0,0.0781 -0.0625,0.32813 l -1.84375,7.40625 c -0.14063,0.54687 -0.17188,0.65625 -1.28125,0.65625 -0.23438,0 -0.39063,0 -0.39063,0.26562 0,0.17188 0.17188,0.17188 0.20313,0.17188 0.40625,0 1.45312,-0.0469 1.85937,-0.0469 0.45313,0 1.625,0.0469 2.07813,0.0469 0.125,0 0.29687,0 0.29687,-0.26563 0,-0.10937 -0.0781,-0.14062 -0.0781,-0.15625 -0.0469,-0.0156 -0.0781,-0.0156 -0.39063,-0.0156 -0.3125,0 -0.39062,0 -0.73437,-0.0312 -0.40625,-0.0312 -0.45313,-0.0937 -0.45313,-0.26563 0,-0.0312 0,-0.125 0.0625,-0.32812 z m 0,0"
         style="fill:#dc322f;fill-opacity:1;fill-rule:nonzero;stroke:none;stroke-width:1.33333" />
      <path
         id="path95"
         d="m 185.0625,537.71875 c 0,-0.0469 0,-0.0625 -0.25,-0.3125 -1.75,-1.76562 -2.1875,-4.40625 -2.1875,-6.54687 0,-2.4375 0.53125,-4.875 2.25,-6.625 0.1875,-0.17188 0.1875,-0.1875 0.1875,-0.23438 0,-0.0937 -0.0625,-0.14062 -0.14063,-0.14062 -0.14062,0 -1.40625,0.95312 -2.23437,2.73437 -0.71875,1.53125 -0.875,3.09375 -0.875,4.26563 0,1.09375 0.15625,2.78125 0.92187,4.375 0.84375,1.71875 2.04688,2.625 2.1875,2.625 0.0781,0 0.14063,-0.0469 0.14063,-0.14063 z m 7.23047,-7.84375 c 0,-1.10937 -0.0625,-2.23437 -0.5625,-3.26562 -0.64063,-1.34375 -1.78126,-1.57813 -2.375,-1.57813 -0.84376,0 -1.85938,0.375 -2.4375,1.67188 -0.45313,0.96875 -0.51563,2.0625 -0.51563,3.17187 0,1.04688 0.0625,2.3125 0.625,3.375 0.60937,1.14063 1.625,1.42188 2.3125,1.42188 0.75,0 1.82813,-0.29688 2.4375,-1.625 0.45313,-0.96875 0.51563,-2.0625 0.51563,-3.17188 z m -2.95313,4.48438 c -0.54687,0 -1.375,-0.34375 -1.625,-1.6875 -0.15625,-0.84375 -0.15625,-2.14063 -0.15625,-2.95313 0,-0.90625 0,-1.82812 0.10937,-2.57812 0.28125,-1.67188 1.32813,-1.79688 1.67188,-1.79688 0.46875,0 1.39062,0.25 1.65625,1.64063 0.14062,0.78125 0.14062,1.84375 0.14062,2.73437 0,1.04688 0,2 -0.15625,2.89063 -0.21875,1.32812 -1.01562,1.75 -1.64062,1.75 z m 7.5625,-3.5 c 0,-1.09375 -0.15625,-2.78125 -0.92187,-4.375 -0.84376,-1.71875 -2.04688,-2.625 -2.1875,-2.625 -0.0781,0 -0.14063,0.0625 -0.14063,0.14062 0,0.0469 0,0.0625 0.26563,0.32813 1.375,1.375 2.17187,3.60937 2.17187,6.53125 0,2.39062 -0.51563,4.85937 -2.25,6.625 -0.1875,0.17187 -0.1875,0.1875 -0.1875,0.23437 0,0.0781 0.0625,0.14063 0.14063,0.14063 0.14062,0 1.40624,-0.95313 2.21874,-2.73438 0.71876,-1.53125 0.89063,-3.09375 0.89063,-4.26562 z m 0,0"
         style="fill:#dc322f;fill-opacity:1;fill-rule:nonzero;stroke:none;stroke-width:1.33333" />
      <path
         id="path96"
         d="m 132.88282,529.8125 h 1.35937 c 1.0625,0 1.17188,0.21875 1.17188,0.625 0,0.0937 0,0.26562 -0.10938,0.6875 -0.0156,0.0781 -0.0312,0.125 -0.0312,0.15625 0,0.10937 0.0781,0.17187 0.17188,0.17187 0.14062,0 0.14062,-0.0469 0.20312,-0.29687 l 0.76563,-3.04688 c 0.0469,-0.14062 0.0469,-0.17187 0.0469,-0.21875 0,-0.0312 -0.0312,-0.15625 -0.17187,-0.15625 -0.14063,0 -0.15625,0.0781 -0.20313,0.29688 -0.29687,1.09375 -0.625,1.34375 -1.8125,1.34375 h -1.26562 l 0.89062,-3.5625 c 0.125,-0.48438 0.14063,-0.54688 0.75,-0.54688 h 1.85938 c 1.71875,0 2.03125,0.46875 2.03125,1.54688 0,0.32812 0,0.375 -0.0312,0.75 -0.0312,0.1875 -0.0312,0.21875 -0.0312,0.26562 0,0.0625 0.0469,0.15625 0.17187,0.15625 0.15625,0 0.15625,-0.0781 0.1875,-0.34375 l 0.28125,-2.42187 c 0.0469,-0.375 -0.0312,-0.375 -0.375,-0.375 H 131.883 c -0.28125,0 -0.42188,0 -0.42188,0.28125 0,0.14062 0.125,0.14062 0.39063,0.14062 0.51562,0 0.90625,0 0.90625,0.26563 0,0.0469 0,0.0781 -0.0625,0.32812 l -1.84375,7.40625 c -0.14063,0.54688 -0.17188,0.65625 -1.28125,0.65625 -0.23438,0 -0.39063,0 -0.39063,0.26563 0,0.17187 0.17188,0.17187 0.20313,0.17187 0.40625,0 1.45312,-0.0469 1.85937,-0.0469 0.45313,0 1.625,0.0469 2.07813,0.0469 0.125,0 0.29687,0 0.29687,-0.26562 0,-0.10938 -0.0781,-0.14063 -0.0781,-0.15625 -0.0469,-0.0156 -0.0781,-0.0156 -0.39063,-0.0156 -0.3125,0 -0.39062,0 -0.73437,-0.0312 -0.40625,-0.0312 -0.45313,-0.0937 -0.45313,-0.26562 0,-0.0312 0,-0.125 0.0625,-0.32813 z m 0,0"
         style="fill:#dc322f;fill-opacity:1;fill-rule:nonzero;stroke:none;stroke-width:1.33333" />
      <path
         id="path97"
         d="m 144.23438,537.71875 c 0,-0.0469 0,-0.0625 -0.25,-0.3125 -1.75,-1.76563 -2.1875,-4.40625 -2.1875,-6.54688 0,-2.4375 0.53125,-4.875 2.25,-6.625 0.1875,-0.17187 0.1875,-0.1875 0.1875,-0.23437 0,-0.0937 -0.0625,-0.14063 -0.14063,-0.14063 -0.14062,0 -1.40625,0.95313 -2.23437,2.73438 -0.71875,1.53125 -0.875,3.09375 -0.875,4.26562 0,1.09375 0.15625,2.78125 0.92187,4.375 0.84375,1.71875 2.04688,2.625 2.1875,2.625 0.0781,0 0.14063,-0.0469 0.14063,-0.14062 z m 4.90234,-12.3125 c 0,-0.34375 0,-0.375 -0.3125,-0.375 -0.875,0.90625 -2.10937,0.90625 -2.54687,0.90625 v 0.42187 c 0.28125,0 1.10937,0 1.82812,-0.35937 v 7.25 c 0,0.5 -0.0469,0.67187 -1.29687,0.67187 h -0.45313 v 0.4375 c 0.48438,-0.0469 1.70313,-0.0469 2.26563,-0.0469 0.5625,0 1.78125,0 2.26562,0.0469 v -0.4375 h -0.4375 c -1.26562,0 -1.3125,-0.15625 -1.3125,-0.67187 z m 6.9375,5.45312 c 0,-1.09375 -0.15625,-2.78125 -0.92187,-4.375 -0.84375,-1.71875 -2.04688,-2.625 -2.1875,-2.625 -0.0781,0 -0.14063,0.0625 -0.14063,0.14063 0,0.0469 0,0.0625 0.26563,0.32812 1.375,1.375 2.17187,3.60938 2.17187,6.53125 0,2.39063 -0.51562,4.85938 -2.25,6.625 -0.1875,0.17188 -0.1875,0.1875 -0.1875,0.23438 0,0.0781 0.0625,0.14062 0.14063,0.14062 0.14062,0 1.40625,-0.95312 2.21875,-2.73437 0.71875,-1.53125 0.89062,-3.09375 0.89062,-4.26563 z m 0,0"
         style="fill:#dc322f;fill-opacity:1;fill-rule:nonzero;stroke:none;stroke-width:1.33333" />
      <path
         id="path98"
         d="M 0,-6.32394 -15.30962,-18.31429"
         style="fill:none;stroke:#586e75;stroke-width:0.3985;stroke-linecap:butt;stroke-linejoin:miter;stroke-miterlimit:10;stroke-dasharray:none;stroke-opacity:1"
         transform="matrix(1.3333333,0,0,-1.3333333,163.48084,494.50667)" />
      <path
         id="path99"
         d="M 0,-6.32394 15.30962,-18.31429"
         style="fill:none;stroke:#586e75;stroke-width:0.3985;stroke-linecap:butt;stroke-linejoin:miter;stroke-miterlimit:10;stroke-dasharray:none;stroke-opacity:1"
         transform="matrix(1.3333333,0,0,-1.3333333,163.48084,494.50667)" />
      <path
         id="path100"
         d="M 0,-6.32394 -22.96442,-18.31429"
         style="fill:none;stroke:#586e75;stroke-width:0.3985;stroke-linecap:butt;stroke-linejoin:miter;stroke-miterlimit:10;stroke-dasharray:none;stroke-opacity:1"
         transform="matrix(1.3333333,0,0,-1.3333333,194.10079,454.65428)" />
      <path
         id="path101"
         d="M 0,-6.32394 22.96443,-18.31429"
         style="fill:none;stroke:#586e75;stroke-width:0.3985;stroke-linecap:butt;stroke-linejoin:miter;stroke-miterlimit:10;stroke-dasharray:none;stroke-opacity:1"
         transform="matrix(1.3333333,0,0,-1.3333333,194.10079,454.65428)" />
      <path
         id="path102"
         d="M 0,-6.32394 -26.79184,-18.31429"
         style="fill:none;stroke:#586e75;stroke-width:0.3985;stroke-linecap:butt;stroke-linejoin:miter;stroke-miterlimit:10;stroke-dasharray:none;stroke-opacity:1"
         transform="matrix(1.3333333,0,0,-1.3333333,229.82531,414.79748)" />
      <path
         id="path103"
         d="M 0,-6.32394 26.79184,-18.31429"
         style="fill:none;stroke:#586e75;stroke-width:0.3985;stroke-linecap:butt;stroke-linejoin:miter;stroke-miterlimit:10;stroke-dasharray:none;stroke-opacity:1"
         transform="matrix(1.3333333,0,0,-1.3333333,229.82531,414.79748)" />
      <path
         id="path104"
         d="M 0,-6.32394 -28.70554,-18.31429"
         style="fill:none;stroke:#586e75;stroke-width:0.3985;stroke-linecap:butt;stroke-linejoin:miter;stroke-miterlimit:10;stroke-dasharray:none;stroke-opacity:1"
         transform="matrix(1.3333333,0,0,-1.3333333,268.10296,374.94028)" />
      <path
         id="path105"
         d="M 0,-6.32394 28.70554,-18.31429"
         style="fill:none;stroke:#586e75;stroke-width:0.3985;stroke-linecap:butt;stroke-linejoin:miter;stroke-miterlimit:10;stroke-dasharray:none;stroke-opacity:1"
         transform="matrix(1.3333333,0,0,-1.3333333,268.10296,374.94028)" />
      <path
         id="path106"
         d="M 0,-6.32394 -29.66238,-18.31429"
         style="fill:none;stroke:#586e75;stroke-width:0.3985;stroke-linecap:butt;stroke-linejoin:miter;stroke-miterlimit:10;stroke-dasharray:none;stroke-opacity:1"
         transform="matrix(1.3333333,0,0,-1.3333333,307.65867,335.08133)" />
      <path
         id="path107"
         d="M 0,-6.32394 29.6624,-18.31429"
         style="fill:none;stroke:#586e75;stroke-width:0.3985;stroke-linecap:butt;stroke-linejoin:miter;stroke-miterlimit:10;stroke-dasharray:none;stroke-opacity:1"
         transform="matrix(1.3333333,0,0,-1.3333333,307.65867,335.08133)" />
    </g>
  </g>
</svg>
