<?xml version="1.0" encoding="UTF-8" standalone="no"?>
<!-- Created with Inkscape (http://www.inkscape.org/) -->

<svg
   version="1.1"
   id="svg1"
   width="331.23438"
   height="352.14844"
   viewBox="0 0 331.23437 352.14844"
   sodipodi:docname="fibo-mem.svg"
   inkscape:version="1.4.2 (ebf0e940d0, 2025-05-08)"
   xmlns:inkscape="http://www.inkscape.org/namespaces/inkscape"
   xmlns:sodipodi="http://sodipodi.sourceforge.net/DTD/sodipodi-0.dtd"
   xmlns="http://www.w3.org/2000/svg"
   xmlns:svg="http://www.w3.org/2000/svg">
  <defs
     id="defs1" />
  <sodipodi:namedview
     id="namedview1"
     pagecolor="#ffffff"
     bordercolor="#666666"
     borderopacity="1.0"
     inkscape:showpageshadow="2"
     inkscape:pageopacity="0.0"
     inkscape:pagecheckerboard="0"
     inkscape:deskcolor="#d1d1d1"
     inkscape:zoom="2.500924"
     inkscape:cx="490.0189"
     inkscape:cy="354.46899"
     inkscape:window-width="3840"
     inkscape:window-height="2346"
     inkscape:window-x="0"
     inkscape:window-y="54"
     inkscape:window-maximized="1"
     inkscape:current-layer="g1">
    <inkscape:page
       x="0"
       y="0"
       inkscape:label="2"
       id="page1"
       width="331.23438"
       height="352.14844"
       margin="0"
       bleed="0" />
  </sodipodi:namedview>
  <g
     id="g1"
     inkscape:groupmode="layer"
     inkscape:label="2"
     transform="translate(-71.29297,-42.46875)">
    <g
       id="g43">
      <path
         id="path2"
         d="m 5.4844766,-4.75925 h 0.984375 c 0.890625,0 1.1484375,0.1523438 1.1484375,0.6445313 0,0.1640625 -0.046875,0.4570312 -0.082031,0.6328125 -0.035156,0.1054687 -0.046875,0.1757812 -0.046875,0.2109375 0,0.2226562 0.1875,0.2695312 0.3398438,0.2695312 0.28125,0 0.3046875,-0.09375 0.375,-0.3632812 l 0.84375,-3.3398438 c 0.058594,-0.1992187 0.058594,-0.2226562 0.058594,-0.2460937 0,-0.2695313 -0.3046875,-0.2695313 -0.3632812,-0.2695313 -0.28125,0 -0.3164063,0.1054688 -0.3867188,0.3984375 -0.3046875,1.1367188 -0.7617187,1.359375 -1.8398437,1.359375 h -0.84375 l 0.984375,-4.0078125 c 0.1992187,-0.023437 0.3632812,-0.023437 0.515625,-0.023437 h 1.78125 c 1.7109378,0 2.2382818,0.4335938 2.2382818,1.7578125 0,0.3515625 -0.05859,0.8085938 -0.05859,0.8671875 0,0.28125 0.28125,0.28125 0.351563,0.28125 0.316406,0 0.339843,-0.1523437 0.363281,-0.421875 l 0.269531,-2.6835937 0.02344,-0.234375 c 0,-0.2695308 -0.257813,-0.2695308 -0.503907,-0.2695308 H 3.5743203 c -0.3164062,0 -0.3398437,0.01172 -0.4101562,0.07031 -0.1054688,0.07031 -0.1289063,0.3398438 -0.1289063,0.3632813 0,0.2695312 0.1992188,0.2695312 0.609375,0.2695312 0.3164063,0 0.5976563,0.011719 0.9140625,0.023437 L 2.4493203,-1.00925 c -0.058594,0.24609375 -0.082031,0.2578125 -0.3515625,0.29296875 -0.2578125,0.0117188 -0.5507812,0.0117188 -0.796875,0.0117188 -0.38671874,0 -0.41015624,0 -0.48046874,0.0234375 -0.17578125,0.10546875 -0.17578125,0.3515625 -0.17578125,0.41015625 0,0.0117188 0,0.26953125 0.328125,0.26953125 0.37499999,0 0.76171879,-0.03515625 1.13671879,-0.03515625 0.4101562,0 0.8203125,-0.01171875 1.21875,-0.01171875 0.4570312,0 0.9023437,0.01171875 1.3476562,0.01171875 0.4335938,0 0.8789063,0.03515625 1.2890625,0.03515625 0.1875,0 0.4570313,0 0.4570313,-0.43359375 0,-0.26953125 -0.2578125,-0.26953125 -0.4921875,-0.26953125 H 5.4258828 c -0.5625,0 -0.7851562,-0.0351563 -0.9375,-0.0585938 z m 0,0"
         style="fill:#d33682;fill-opacity:1;fill-rule:nonzero;stroke:none"
         aria-label="F"
         transform="matrix(1.3333333,0,0,1.3333333,303.10533,57.470667)" />
      <path
         id="path3"
         d="m 5.613875,3.5845 c 0,-0.058594 0,-0.09375 -0.2929687,-0.3632812 -1.6757813,-1.6757813 -2.3203125,-4.3125 -2.3203125,-6.9609375 0,-2.953125 0.7382812,-5.3789063 2.4140625,-7.0781253 0.1757812,-0.175781 0.1992187,-0.199218 0.1992187,-0.257812 0,-0.175781 -0.1875,-0.175781 -0.2578125,-0.175781 -0.140625,0 -0.1640625,0 -0.5507812,0.316406 -2.1679688,1.722656 -3.1875,4.488281 -3.1875,7.1835935 0,2.765625 1.0429687,5.4492188 3.1640625,7.1835938 0.3984375,0.328125 0.421875,0.328125 0.5742187,0.328125 0.070312,0 0.2578125,0 0.2578125,-0.1757813 z m 0,0"
         style="fill:#d33682;fill-opacity:1;fill-rule:nonzero;stroke:none"
         aria-label="("
         transform="matrix(1.3333333,0,0,1.3333333,320.07733,57.470667)" />
      <path
         id="path4"
         d="m 2.614375,-5.4272187 c 0,-0.9140625 0.046875,-1.8515625 0.4570313,-2.6601563 0.3398437,-0.6328125 1.1015625,-1.21875 2.0742187,-1.21875 0.28125,0 0.8203125,0.046875 1.1835938,0.421875 -0.5625,0.058594 -0.8085938,0.4804688 -0.8085938,0.890625 0,0.5390625 0.4101563,0.8789063 0.890625,0.8789063 0.3867188,0 0.8789063,-0.2460938 0.8789063,-0.9140625 0,-0.9023438 -0.5976563,-1.8164063 -2.1796875,-1.8164063 -1.875,0 -4.40625005,1.171875 -4.40625005,5.0859375 0,1.0078125 0,4.93359375 3.56250005,4.93359375 1.96875,0 3.4453125,-1.16015625 3.4453125,-3.26953125 0,-2.0976562 -1.453125,-3.2109375 -3.2460938,-3.2109375 -0.2929687,0 -1.2539062,0 -1.8515625,1.2773438 z m 1.6289063,5.0039062 c -0.9609375,0 -1.3359375,-0.8085937 -1.3945313,-0.9257812 -0.2109375,-0.4921875 -0.2109375,-1.6992188 -0.2109375,-1.828125 0,-1.8515625 0.796875,-2.625 1.6875,-2.625 1.4765625,0 1.4765625,1.1953125 1.4765625,2.6953125 0,1.4882812 0,2.6835937 -1.5585937,2.6835937 z m 0,0"
         style="fill:#d33682;fill-opacity:1;fill-rule:nonzero;stroke:none"
         aria-label="6"
         transform="matrix(1.3333333,0,0,1.3333333,328.82667,57.470667)" />
      <path
         id="path5"
         d="m 4.9224688,-3.7397187 c 0,-2.7539063 -1.03125,-5.4375 -3.1640625,-7.1835933 -0.3984375,-0.328125 -0.421875,-0.328125 -0.5742188,-0.328125 -0.070312,0 -0.2578125,0 -0.2578125,0.175781 0,0.05859 0,0.09375 0.2929688,0.363281 1.6757812,1.6757813 2.3203125,4.3242188 2.3203125,6.9609375 0,2.953125 -0.7382813,5.390625 -2.4140625,7.078125 C 0.9498125,3.5141875 0.926375,3.5259063 0.926375,3.5845 c 0,0.1757813 0.1875,0.1757813 0.2578125,0.1757813 0.140625,0 0.1640625,0 0.5507813,-0.3164063 2.1679687,-1.7226562 3.1875,-4.4765625 3.1875,-7.1835937 z m 0,0"
         style="fill:#d33682;fill-opacity:1;fill-rule:nonzero;stroke:none"
         aria-label=")"
         transform="matrix(1.3333333,0,0,1.3333333,340.07733,57.470667)" />
      <g
         id="g5"
         aria-label="F(4)"
         transform="matrix(1.3333333,0,0,1.3333333,359.012,123.896)">
        <path
           id="path6"
           d="m 5.4841641,-4.7589141 h 0.984375 c 0.890625,0 1.1484375,0.1523438 1.1484375,0.6445313 0,0.1640625 -0.046875,0.4570312 -0.082031,0.6328125 -0.035156,0.1054687 -0.046875,0.1757812 -0.046875,0.2109375 0,0.2226562 0.1875,0.2695312 0.3398438,0.2695312 0.28125,0 0.3046875,-0.09375 0.375,-0.3632812 l 0.84375,-3.3398438 c 0.058594,-0.1992187 0.058594,-0.2226562 0.058594,-0.2460937 0,-0.2695313 -0.3046875,-0.2695313 -0.3632812,-0.2695313 -0.28125,0 -0.3164063,0.1054688 -0.3867188,0.3984375 -0.3046875,1.1367188 -0.7617187,1.359375 -1.8398437,1.359375 h -0.84375 l 0.984375,-4.0078125 c 0.1992187,-0.023437 0.3632812,-0.023437 0.515625,-0.023437 h 1.78125 c 1.7109383,0 2.2382813,0.4335938 2.2382813,1.7578125 0,0.3515625 -0.05859,0.8085938 -0.05859,0.8671875 0,0.28125 0.28125,0.28125 0.351562,0.28125 0.316406,0 0.339844,-0.1523437 0.363281,-0.421875 l 0.269532,-2.6835937 0.02344,-0.234375 c 0,-0.2695307 -0.257812,-0.2695307 -0.503906,-0.2695307 H 3.5740078 c -0.3164062,0 -0.3398437,0.01172 -0.4101562,0.07031 -0.1054688,0.07031 -0.1289063,0.3398437 -0.1289063,0.3632812 0,0.2695312 0.1992188,0.2695312 0.609375,0.2695312 0.3164063,0 0.5976563,0.011719 0.9140625,0.023437 l -2.109375,8.4609375 c -0.058594,0.24609379 -0.082031,0.25781254 -0.3515625,0.29296879 -0.2578125,0.0117188 -0.5507812,0.0117188 -0.796875,0.0117188 -0.38671874,0 -0.41015624,0 -0.48046874,0.0234375 -0.17578125,0.10546875 -0.17578125,0.3515625 -0.17578125,0.41015625 0,0.0117188 0,0.26953125 0.328125,0.26953125 0.37499999,0 0.76171879,-0.03515625 1.13671879,-0.03515625 0.4101562,0 0.8203125,-0.01171875 1.21875,-0.01171875 0.4570312,0 0.9023437,0.01171875 1.3476562,0.01171875 0.4335938,0 0.8789063,0.03515625 1.2890625,0.03515625 0.1875,0 0.4570313,0 0.4570313,-0.43359375 0,-0.26953125 -0.2578125,-0.26953125 -0.4921875,-0.26953125 H 5.4255703 c -0.5625,0 -0.7851562,-0.0351563 -0.9375,-0.0585938 z m 0,0"
           style="fill:#268bd2;fill-opacity:1;fill-rule:nonzero;stroke:none" />
        <path
           id="path7"
           d="m 18.342562,3.5848359 c 0,-0.058594 0,-0.09375 -0.292968,-0.3632812 -1.675782,-1.6757813 -2.320313,-4.3125 -2.320313,-6.9609375 0,-2.953125 0.738281,-5.3789063 2.414063,-7.0781252 0.175781,-0.175781 0.199218,-0.199219 0.199218,-0.257812 0,-0.175782 -0.1875,-0.175782 -0.257812,-0.175782 -0.140625,0 -0.164063,0 -0.550781,0.316407 -2.167969,1.7226559 -3.1875,4.4882809 -3.1875,7.1835934 0,2.76562504 1.042968,5.4492188 3.164062,7.1835938 0.398438,0.328125 0.421875,0.328125 0.574219,0.328125 0.07031,0 0.257812,0 0.257812,-0.1757813 z m 7.432618,-5.9414062 h 1.453125 V -3.0011016 H 25.77518 v -6.4335937 c 0,-0.375 -0.01172,-0.4335938 -0.386719,-0.4335938 -0.269531,0 -0.304688,0 -0.480469,0.2226563 l -5.15625,6.6445312 v 0.6445313 h 4.253906 v 1.71093749 h -1.628906 v 0.64453125 c 0.433594,-0.03515625 1.921875,-0.03515625 2.460938,-0.03515625 0.503906,0 1.992187,0 2.390625,0.03515625 V -0.64563281 H 25.77518 Z m -1.628907,-5.4140625 v 4.7695312 h -3.703125 z m 8.490235,4.03125 c 0,-2.7539063 -1.03125,-5.4375 -3.164063,-7.1835942 -0.398437,-0.328125 -0.421875,-0.328125 -0.574218,-0.328125 -0.07031,0 -0.257813,0 -0.257813,0.175782 0,0.05859 0,0.09375 0.292969,0.363281 1.675781,1.6757812 2.320312,4.3242187 2.320312,6.9609374 0,2.95312504 -0.738281,5.390625 -2.414062,7.078125 -0.175781,0.1875 -0.199219,0.1992188 -0.199219,0.2578125 0,0.1757813 0.1875,0.1757813 0.257813,0.1757813 0.140625,0 0.164062,0 0.550781,-0.3164063 2.167969,-1.7226562 3.1875,-4.4765625 3.1875,-7.1835937 z m 0,0"
           style="fill:#268bd2;fill-opacity:1;fill-rule:nonzero;stroke:none" />
      </g>
      <path
         id="path8"
         d="m 5.48347,-4.7579547 h 0.984375 c 0.890625,0 1.1484375,0.1523438 1.1484375,0.6445313 0,0.1640625 -0.046875,0.4570312 -0.082031,0.6328125 -0.035156,0.1054687 -0.046875,0.1757812 -0.046875,0.2109375 0,0.2226562 0.1875,0.2695312 0.3398438,0.2695312 0.28125,0 0.3046875,-0.09375 0.375,-0.3632812 l 0.84375,-3.3398438 c 0.058594,-0.1992187 0.058594,-0.2226562 0.058594,-0.2460937 0,-0.2695313 -0.3046875,-0.2695313 -0.3632812,-0.2695313 -0.28125,0 -0.3164063,0.1054688 -0.3867188,0.3984375 -0.3046875,1.1367188 -0.7617187,1.359375 -1.8398437,1.359375 H 5.67097 l 0.984375,-4.0078125 c 0.1992187,-0.023437 0.3632812,-0.023437 0.515625,-0.023437 h 1.78125 c 1.710937,0 2.238281,0.4335938 2.238281,1.7578125 0,0.3515625 -0.05859,0.8085938 -0.05859,0.8671875 0,0.28125 0.28125,0.28125 0.351563,0.28125 0.316406,0 0.339844,-0.1523437 0.363281,-0.421875 l 0.269531,-2.6835937 0.02344,-0.234375 c 0,-0.2695321 -0.257813,-0.2695321 -0.503906,-0.2695321 H 3.5733137 c -0.3164062,0 -0.3398437,0.01172 -0.4101562,0.07031 -0.1054688,0.07031 -0.1289063,0.3398441 -0.1289063,0.3632816 0,0.2695312 0.1992188,0.2695312 0.609375,0.2695312 0.3164063,0 0.5976563,0.011719 0.9140625,0.023437 l -2.109375,8.4609375 c -0.058594,0.24609376 -0.082031,0.25781251 -0.3515625,0.29296876 -0.2578125,0.0117188 -0.5507812,0.0117188 -0.796875,0.0117188 -0.3867187,0 -0.4101562,0 -0.4804687,0.0234375 -0.17578125,0.10546875 -0.17578125,0.3515625 -0.17578125,0.41015625 0,0.0117188 0,0.2695312525 0.328125,0.2695312525 0.37499995,0 0.76171875,-0.0351562525 1.13671875,-0.0351562525 0.4101562,0 0.8203125,-0.01171875 1.21875,-0.01171875 0.4570312,0 0.9023437,0.01171875 1.3476562,0.01171875 0.4335938,0 0.8789063,0.0351562525 1.2890625,0.0351562525 0.1875,0 0.4570313,0 0.4570313,-0.4335937525 0,-0.26953125 -0.2578125,-0.26953125 -0.4921875,-0.26953125 H 5.4248762 c -0.5625,0 -0.7851562,-0.0351563 -0.9375,-0.0585938 z m 0,0"
         style="fill:#d33682;fill-opacity:1;fill-rule:nonzero;stroke:none"
         aria-label="F"
         transform="matrix(1.3333333,0,0,1.3333333,247.18871,123.90253)" />
      <path
         id="path9"
         d="m 5.6128684,3.5857953 c 0,-0.058594 0,-0.09375 -0.2929687,-0.3632812 -1.6757813,-1.6757813 -2.3203125,-4.3125 -2.3203125,-6.9609375 0,-2.953125 0.7382812,-5.3789063 2.4140625,-7.0781246 0.1757812,-0.175782 0.1992187,-0.199219 0.1992187,-0.257813 0,-0.175781 -0.1875,-0.175781 -0.2578125,-0.175781 -0.140625,0 -0.1640625,0 -0.5507812,0.316406 -2.1679688,1.7226563 -3.1875,4.4882813 -3.1875,7.1835938 0,2.76562501 1.0429687,5.4492188 3.1640625,7.1835938 0.3984375,0.328125 0.421875,0.328125 0.5742187,0.328125 0.070312,0 0.2578125,0 0.2578125,-0.1757813 z m 0,0"
         style="fill:#d33682;fill-opacity:1;fill-rule:nonzero;stroke:none"
         aria-label="("
         transform="matrix(1.3333333,0,0,1.3333333,264.16071,123.90253)" />
      <path
         id="path10"
         d="m 2.3076809,-7.7813922 c 0.515625,0.1171875 0.9140625,0.1171875 1.1367188,0.1171875 0.3632812,0 1.21875,0 2.2265625,-0.6210937 0.46875,-0.28125 1.2421875,-0.9492188 1.2421875,-1.3007813 0,-0.070312 0,-0.2578125 -0.1757813,-0.2578125 -0.023437,0 -0.046875,0 -0.1992187,0.082031 -0.6914063,0.234375 -1.4296875,0.3984375 -2.2617188,0.3984375 -0.8554687,0 -1.5820312,-0.1640625 -2.2851562,-0.421875 -0.1054688,-0.023437 -0.1523438,-0.058594 -0.1875,-0.058594 -0.1875,0 -0.1875,0.1523438 -0.1875,0.4101563 v 4.359375 c 0,0.2929687 0,0.4570312 0.3046875,0.4570312 0.1523437,0 0.1757812,-0.023437 0.2929687,-0.1640625 0.1875,-0.2109375 0.7265625,-0.8789062 2.0039063,-0.8789062 1.3710937,0 1.3710937,1.4179687 1.3710937,2.6015625 0,1.078125 0,2.63671871 -1.8398437,2.63671871 -0.5507813,0 -1.5,-0.2109375 -2.015625,-1.06640621 0.796875,0 0.9960937,-0.5976563 0.9960937,-0.9257813 0,-0.5390625 -0.3867187,-0.9492187 -0.9492187,-0.9492187 -0.4453125,0 -0.93750001,0.2695312 -0.93750001,0.9726562 0,1.3125 1.18359371,2.56640626 2.96484371,2.56640626 2.3085938,0 3.7617188,-1.33593746 3.7617188,-3.18749996 0,-1.828125 -1.2421875,-3.140625 -3.2929688,-3.140625 -0.5976562,0 -1.3242187,0.1171875 -1.96875,0.5976562 z m 0,0"
         style="fill:#d33682;fill-opacity:1;fill-rule:nonzero;stroke:none"
         aria-label="5"
         transform="matrix(1.3333333,0,0,1.3333333,272.91137,123.90253)" />
      <path
         id="path11"
         d="m 4.9214622,-3.7384234 c 0,-2.7539063 -1.03125,-5.4375 -3.1640625,-7.1835936 -0.3984375,-0.328125 -0.421875,-0.328125 -0.5742188,-0.328125 -0.070312,0 -0.25781246,0 -0.25781246,0.175781 0,0.05859 0,0.09375 0.29296876,0.363281 1.6757812,1.6757816 2.3203125,4.3242191 2.3203125,6.9609378 0,2.95312501 -0.7382813,5.390625 -2.4140625,7.078125 -0.17578126,0.1875 -0.19921876,0.1992188 -0.19921876,0.2578125 0,0.1757813 0.18749996,0.1757813 0.25781246,0.1757813 0.140625,0 0.1640625,0 0.5507813,-0.3164063 2.1679687,-1.7226562 3.1875,-4.4765625 3.1875,-7.1835937 z m 0,0"
         style="fill:#d33682;fill-opacity:1;fill-rule:nonzero;stroke:none"
         aria-label=")"
         transform="matrix(1.3333333,0,0,1.3333333,284.16071,123.90253)" />
      <g
         id="g11"
         aria-label="F(3)"
         transform="matrix(1.3333333,0,0,1.3333333,301.29404,190.32653)">
        <path
           id="path12"
           d="m 5.4835716,-4.7566188 h 0.984375 c 0.890625,0 1.1484375,0.1523438 1.1484375,0.6445313 0,0.1640625 -0.046875,0.4570312 -0.082031,0.6328125 -0.035156,0.1054687 -0.046875,0.1757812 -0.046875,0.2109375 0,0.2226562 0.1875,0.2695312 0.3398438,0.2695312 0.28125,0 0.3046875,-0.09375 0.375,-0.3632812 l 0.84375,-3.3398438 c 0.058594,-0.1992187 0.058594,-0.2226562 0.058594,-0.2460937 0,-0.2695313 -0.3046875,-0.2695313 -0.3632812,-0.2695313 -0.28125,0 -0.3164063,0.1054688 -0.3867188,0.3984375 -0.3046875,1.1367188 -0.7617187,1.359375 -1.8398437,1.359375 h -0.84375 l 0.984375,-4.0078125 c 0.1992187,-0.023437 0.3632812,-0.023437 0.515625,-0.023437 h 1.78125 c 1.7109378,0 2.2382818,0.4335938 2.2382818,1.7578125 0,0.3515625 -0.05859,0.8085938 -0.05859,0.8671875 0,0.28125 0.28125,0.28125 0.351563,0.28125 0.316406,0 0.339843,-0.1523437 0.363281,-0.421875 l 0.269531,-2.6835937 0.02344,-0.234375 c 0,-0.269531 -0.257813,-0.269531 -0.503907,-0.269531 H 3.5734153 c -0.3164062,0 -0.3398437,0.01172 -0.4101562,0.07031 -0.1054688,0.07031 -0.1289063,0.339843 -0.1289063,0.3632805 0,0.2695312 0.1992188,0.2695312 0.609375,0.2695312 0.3164063,0 0.5976563,0.011719 0.9140625,0.023437 l -2.109375,8.4609375 c -0.058594,0.2460938 -0.082031,0.25781255 -0.3515625,0.2929688 -0.2578125,0.0117188 -0.5507812,0.0117188 -0.796875,0.0117188 -0.38671874,0 -0.41015624,0 -0.48046874,0.0234375 -0.17578125,0.10546875 -0.17578125,0.3515625 -0.17578125,0.41015625 0,0.0117188 0,0.26953125 0.328125,0.26953125 0.37499999,0 0.76171879,-0.03515625 1.13671879,-0.03515625 0.4101562,0 0.8203125,-0.01171875 1.21875,-0.01171875 0.4570312,0 0.9023437,0.01171875 1.3476562,0.01171875 0.4335938,0 0.8789063,0.03515625 1.2890625,0.03515625 0.1875,0 0.4570313,0 0.4570313,-0.43359375 0,-0.26953125 -0.2578125,-0.26953125 -0.4921875,-0.26953125 H 5.4249778 c -0.5625,0 -0.7851562,-0.0351563 -0.9375,-0.0585938 z m 0,0"
           style="fill:#268bd2;fill-opacity:1;fill-rule:nonzero;stroke:none" />
        <path
           id="path13"
           d="m 18.34197,3.5871312 c 0,-0.058594 0,-0.09375 -0.292969,-0.3632812 -1.675781,-1.6757813 -2.320312,-4.3125 -2.320312,-6.9609375 0,-2.953125 0.738281,-5.3789063 2.414062,-7.0781255 0.175782,-0.175781 0.199219,-0.199218 0.199219,-0.257812 0,-0.175781 -0.1875,-0.175781 -0.257812,-0.175781 -0.140625,0 -0.164063,0 -0.550782,0.316406 -2.167968,1.7226562 -3.1875,4.4882812 -3.1875,7.1835937 0,2.76562505 1.042969,5.4492188 3.164063,7.1835938 0.398437,0.328125 0.421875,0.328125 0.574219,0.328125 0.07031,0 0.257812,0 0.257812,-0.1757813 z m 4.857422,-8.5546875 c 1.675781,0 1.675781,1.5585938 1.675781,2.2851563 0,0.6679687 0,2.26171875 -1.617187,2.26171875 -0.316407,0 -1.300782,-0.046875 -2.027344,-0.55078125 0.644531,-0.140625 0.878906,-0.5976563 0.878906,-1.0546875 0,-0.609375 -0.433594,-1.0429688 -1.054687,-1.0429688 -0.632813,0 -1.066407,0.4335938 -1.066407,1.0546875 0,1.38281255 1.5,2.1914063 3.351563,2.1914063 2.472656,0 3.65625,-1.359375 3.65625,-2.859375 0,-0.7382813 -0.375,-2.15625 -2.695313,-2.5664063 1.3125,-0.4101562 2.226563,-1.3359375 2.226563,-2.5195312 0,-1.125 -1.078125,-2.0742188 -3.164063,-2.0742188 -1.675781,0 -2.90625,0.890625 -2.90625,2.109375 0,0.75 0.585938,0.984375 0.972657,0.984375 0.433593,0 0.960937,-0.28125 0.960937,-0.9726562 0,-0.3515625 -0.152344,-0.8554688 -0.855469,-0.9609375 0.632813,-0.6210938 1.652344,-0.6210938 1.734375,-0.6210938 1.335938,0 1.335938,1.0429688 1.335938,1.4882813 0,0.4570312 -0.05859,1.1367187 -0.539063,1.7578125 -0.386718,0.5039062 -0.773437,0.5390625 -1.347656,0.5742187 -0.175781,0.011719 -0.480469,0.023437 -0.539062,0.058594 -0.09375,0.035156 -0.09375,0.140625 -0.09375,0.2109375 0,0.2460937 0.09375,0.2460937 0.398437,0.2460937 z m 9.436523,1.2304688 c 0,-2.7539063 -1.03125,-5.4375 -3.164062,-7.1835935 -0.398438,-0.328125 -0.421875,-0.328125 -0.574219,-0.328125 -0.07031,0 -0.257812,0 -0.257812,0.175781 0,0.05859 0,0.09375 0.292968,0.363281 1.675782,1.6757815 2.320313,4.324219 2.320313,6.9609377 0,2.95312505 -0.738281,5.390625 -2.414063,7.078125 -0.175781,0.1875 -0.199218,0.1992188 -0.199218,0.2578125 0,0.1757813 0.1875,0.1757813 0.257812,0.1757813 0.140625,0 0.164063,0 0.550781,-0.3164063 2.167969,-1.7226562 3.1875,-4.4765625 3.1875,-7.1835937 z m 0,0"
           style="fill:#268bd2;fill-opacity:1;fill-rule:nonzero;stroke:none" />
      </g>
      <path
         id="path14"
         d="m 5.4832987,-4.7567391 h 0.984375 c 0.890625,0 1.1484375,0.1523438 1.1484375,0.6445313 0,0.1640625 -0.046875,0.4570312 -0.082031,0.6328125 -0.035156,0.1054687 -0.046875,0.1757812 -0.046875,0.2109375 0,0.2226562 0.1875,0.2695312 0.3398437,0.2695312 0.28125,0 0.3046875,-0.09375 0.375,-0.3632812 l 0.84375,-3.3398438 c 0.058594,-0.1992187 0.058594,-0.2226562 0.058594,-0.2460937 0,-0.2695313 -0.3046875,-0.2695313 -0.3632813,-0.2695313 -0.28125,0 -0.3164062,0.1054688 -0.3867187,0.3984375 -0.3046875,1.1367188 -0.7617188,1.359375 -1.8398438,1.359375 h -0.84375 l 0.984375,-4.0078125 c 0.1992188,-0.023437 0.3632813,-0.023437 0.515625,-0.023437 h 1.78125 c 1.7109369,0 2.2382809,0.4335938 2.2382809,1.7578125 0,0.3515625 -0.05859,0.8085938 -0.05859,0.8671875 0,0.28125 0.28125,0.28125 0.351563,0.28125 0.316406,0 0.339843,-0.1523437 0.363281,-0.421875 l 0.269531,-2.6835937 0.02344,-0.234375 c 0,-0.2695307 -0.257813,-0.2695307 -0.503907,-0.2695307 H 3.5731425 c -0.3164063,0 -0.3398438,0.01172 -0.4101563,0.07031 -0.1054687,0.07031 -0.1289062,0.3398447 -0.1289062,0.3632822 0,0.2695312 0.1992187,0.2695312 0.609375,0.2695312 0.3164062,0 0.5976562,0.011719 0.9140625,0.023437 l -2.109375,8.4609375 c -0.058594,0.24609379 -0.082031,0.25781254 -0.3515625,0.29296879 -0.2578125,0.0117188 -0.5507813,0.0117188 -0.796875,0.0117188 -0.38671875,0 -0.41015625,0 -0.48046875,0.0234375 -0.17578125,0.1054707 -0.17578125,0.35156445 -0.17578125,0.4101582 0,0.0117188 0,0.26953125 0.328125,0.26953125 0.375,0 0.7617187,-0.03515625 1.1367187,-0.03515625 0.4101563,0 0.8203125,-0.01171875 1.21875,-0.01171875 0.4570313,0 0.9023438,0.01171875 1.3476563,0.01171875 0.4335937,0 0.8789062,0.03515625 1.2890625,0.03515625 0.1875,0 0.4570312,0 0.4570312,-0.43359375 0,-0.26953125 -0.2578125,-0.26953125 -0.4921875,-0.26953125 H 5.424705 c -0.5625,0 -0.7851563,-0.0351563 -0.9375,-0.0585938 z m 0,0"
         style="fill:#d33682;fill-opacity:1;fill-rule:nonzero;stroke:none"
         aria-label="F"
         transform="matrix(1.3333333,0,0,1.3333333,193.07956,190.3306)" />
      <path
         id="path15"
         d="m 5.6126972,3.5870109 c 0,-0.058594 0,-0.09375 -0.2929688,-0.3632812 -1.6757812,-1.6757813 -2.3203125,-4.3125 -2.3203125,-6.9609375 0,-2.953125 0.7382813,-5.3789063 2.4140625,-7.0781252 0.1757813,-0.175781 0.1992188,-0.199219 0.1992188,-0.257812 0,-0.175782 -0.1875,-0.175782 -0.2578125,-0.175782 -0.140625,0 -0.1640625,0 -0.5507813,0.316407 -2.1679687,1.7226559 -3.1875,4.4882809 -3.1875,7.1835934 0,2.76562504 1.0429688,5.4492188 3.1640625,7.1835938 0.3984375,0.328125 0.421875,0.328125 0.5742188,0.328125 0.070312,0 0.2578125,0 0.2578125,-0.1757813 z m 0,0"
         style="fill:#d33682;fill-opacity:1;fill-rule:nonzero;stroke:none"
         aria-label="("
         transform="matrix(1.3333333,0,0,1.3333333,210.05156,190.3306)" />
      <path
         id="path16"
         d="m 6.4921034,-2.3543953 h 1.453125 v -0.6445313 h -1.453125 v -6.4335937 c 0,-0.375 -0.011719,-0.4335938 -0.3867187,-0.4335938 -0.2695313,0 -0.3046875,0 -0.4804688,0.2226563 l -5.15624996,6.6445312 v 0.6445313 H 4.7225722 v 1.71093749 H 3.0936659 v 0.64453125 c 0.4335938,-0.03515625 1.921875,-0.03515625 2.4609375,-0.03515625 0.5039063,0 1.9921875,0 2.390625,0.03515625 V -0.64345781 H 6.4921034 Z M 4.8631972,-7.7684578 v 4.7695312 h -3.703125 z m 0,0"
         style="fill:#d33682;fill-opacity:1;fill-rule:nonzero;stroke:none"
         aria-label="4"
         transform="matrix(1.3333333,0,0,1.3333333,218.80089,190.3306)" />
      <path
         id="path17"
         d="m 4.9212909,-3.7372078 c 0,-2.7539063 -1.03125,-5.4375 -3.1640625,-7.1835942 -0.3984375,-0.328125 -0.421875,-0.328125 -0.5742187,-0.328125 -0.070312,0 -0.25781251,0 -0.25781251,0.175782 0,0.05859 0,0.09375 0.29296871,0.363281 1.6757813,1.6757812 2.3203125,4.3242187 2.3203125,6.9609374 0,2.95312504 -0.7382812,5.390625 -2.4140625,7.078125 -0.17578121,0.1875 -0.19921871,0.1992188 -0.19921871,0.2578125 0,0.1757813 0.18750001,0.1757813 0.25781251,0.1757813 0.140625,0 0.1640625,0 0.5507812,-0.3164063 2.1679688,-1.7226562 3.1875,-4.4765625 3.1875,-7.1835937 z m 0,0"
         style="fill:#d33682;fill-opacity:1;fill-rule:nonzero;stroke:none"
         aria-label=")"
         transform="matrix(1.3333333,0,0,1.3333333,230.05156,190.3306)" />
      <g
         id="g17"
         aria-label="F(2)"
         transform="matrix(1.3333333,0,0,1.3333333,243.57556,256.75327)">
        <path
           id="path18"
           d="m 5.4833691,-4.7573328 h 0.984375 c 0.890625,0 1.1484375,0.1523437 1.1484375,0.6445312 0,0.1640625 -0.046875,0.4570313 -0.082031,0.6328125 -0.035156,0.1054688 -0.046875,0.1757813 -0.046875,0.2109375 0,0.2226563 0.1875,0.2695313 0.3398438,0.2695313 0.28125,0 0.3046875,-0.09375 0.375,-0.3632813 l 0.84375,-3.3398437 c 0.058594,-0.1992188 0.058594,-0.2226563 0.058594,-0.2460938 0,-0.2695312 -0.3046875,-0.2695312 -0.3632812,-0.2695312 -0.28125,0 -0.3164063,0.1054687 -0.3867188,0.3984375 -0.3046875,1.1367187 -0.7617187,1.359375 -1.8398437,1.359375 h -0.84375 l 0.984375,-4.0078125 c 0.1992187,-0.023437 0.3632812,-0.023437 0.515625,-0.023437 h 1.78125 c 1.7109383,0 2.2382813,0.4335937 2.2382813,1.7578125 0,0.3515625 -0.05859,0.8085937 -0.05859,0.8671875 0,0.28125 0.28125,0.28125 0.351562,0.28125 0.316406,0 0.339844,-0.1523438 0.363281,-0.421875 l 0.269532,-2.6835938 0.02344,-0.234375 c 0,-0.2695319 -0.257812,-0.2695319 -0.503906,-0.2695319 H 3.5732128 c -0.3164062,0 -0.3398437,0.01172 -0.4101562,0.07031 -0.1054688,0.07031 -0.1289063,0.3398439 -0.1289063,0.3632814 0,0.2695313 0.1992188,0.2695313 0.609375,0.2695313 0.3164063,0 0.5976563,0.011719 0.9140625,0.023437 l -2.109375,8.4609375 c -0.058594,0.24609374 -0.082031,0.25781249 -0.3515625,0.29296874 -0.2578125,0.0117188 -0.5507812,0.0117188 -0.796875,0.0117188 -0.38671874,0 -0.41015624,0 -0.48046874,0.0234375 -0.17578125,0.10546875 -0.17578125,0.3515625 -0.17578125,0.41015625 0,0.0117188 0,0.2695312475 0.328125,0.2695312475 0.37499999,0 0.76171879,-0.0351562475 1.13671879,-0.0351562475 0.4101562,0 0.8203125,-0.01171875 1.21875,-0.01171875 0.4570312,0 0.9023437,0.01171875 1.3476562,0.01171875 0.4335938,0 0.8789063,0.0351562475 1.2890625,0.0351562475 0.1875,0 0.4570313,0 0.4570313,-0.4335937475 0,-0.26953125 -0.2578125,-0.26953125 -0.4921875,-0.26953125 H 5.4247753 c -0.5625,0 -0.7851562,-0.0351563 -0.9375,-0.0585938 z m 0,0"
           style="fill:#268bd2;fill-opacity:1;fill-rule:nonzero;stroke:none" />
        <path
           id="path19"
           d="m 18.341768,3.5864172 c 0,-0.058594 0,-0.09375 -0.292969,-0.3632813 -1.675781,-1.6757812 -2.320313,-4.3125 -2.320313,-6.9609375 0,-2.953125 0.738282,-5.3789062 2.414063,-7.0781254 0.175781,-0.175781 0.199219,-0.199218 0.199219,-0.257812 0,-0.175781 -0.1875,-0.175781 -0.257813,-0.175781 -0.140625,0 -0.164062,0 -0.550781,0.316406 -2.167969,1.7226562 -3.1875,4.4882812 -3.1875,7.1835937 0,2.76562499 1.042969,5.4492187 3.164062,7.1835937 0.398438,0.328125 0.421875,0.328125 0.574219,0.328125 0.07031,0 0.257813,0 0.257813,-0.1757812 z m 8.513671,-6.8085938 h -0.621093 c -0.04687,0.3164063 -0.152344,1.1953125 -0.375,1.3476563 -0.128907,0.1054687 -1.289063,0.1054687 -1.523438,0.1054687 h -2.320312 c 0.574218,-0.4804687 1.933593,-1.6171875 2.15625,-1.78125 1.664062,-1.2539062 2.683593,-2.015625 2.683593,-3.4570312 0,-1.7695313 -1.605468,-2.8359375 -3.585937,-2.8359375 -1.6875,0 -3.140625,0.9609375 -3.140625,2.390625 0,0.796875 0.644531,1.0195312 0.984375,1.0195312 0.46875,0 1.007812,-0.3164062 1.007812,-1.0078125 0,-0.6328125 -0.46875,-0.9492187 -0.925781,-1.0078125 0.597656,-0.6914062 1.394531,-0.75 1.699219,-0.75 1.382812,0 2.050781,1.125 2.050781,2.2148438 0,1.1601562 -0.796875,2.25 -1.417969,2.8945312 l -3.257812,3.39843754 c -0.140625,0.140625 -0.140625,0.1640625 -0.140625,0.43359375 V 4.796875e-4 h 6.292969 z m 5.780274,-0.515625 c 0,-2.7539062 -1.03125,-5.4375 -3.164063,-7.1835934 -0.398437,-0.328125 -0.421875,-0.328125 -0.574218,-0.328125 -0.07031,0 -0.257813,0 -0.257813,0.175781 0,0.05859 0,0.09375 0.292969,0.363281 1.675781,1.6757814 2.320312,4.3242189 2.320312,6.9609377 0,2.95312499 -0.738281,5.390625 -2.414062,7.078125 -0.175781,0.1875 -0.199219,0.1992187 -0.199219,0.2578125 0,0.1757812 0.1875,0.1757812 0.257813,0.1757812 0.140625,0 0.164062,0 0.550781,-0.3164062 2.167969,-1.7226563 3.1875,-4.4765625 3.1875,-7.1835938 z m 0,0"
           style="fill:#268bd2;fill-opacity:1;fill-rule:nonzero;stroke:none" />
      </g>
      <path
         id="path20"
         d="m 5.4847688,-4.7566131 h 0.984375 c 0.890625,0 1.1484375,0.1523437 1.1484375,0.6445312 0,0.1640625 -0.046875,0.4570313 -0.082031,0.6328125 -0.035156,0.1054688 -0.046875,0.1757813 -0.046875,0.2109375 0,0.2226563 0.1875,0.2695313 0.3398438,0.2695313 0.28125,0 0.3046875,-0.09375 0.375,-0.3632813 l 0.84375,-3.3398437 c 0.058594,-0.1992188 0.058594,-0.2226563 0.058594,-0.2460938 0,-0.2695312 -0.3046875,-0.2695312 -0.3632812,-0.2695312 -0.28125,0 -0.3164063,0.1054687 -0.3867188,0.3984375 -0.3046875,1.1367187 -0.7617187,1.359375 -1.8398437,1.359375 h -0.84375 l 0.984375,-4.0078125 c 0.1992187,-0.023437 0.3632812,-0.023437 0.515625,-0.023437 h 1.78125 c 1.7109376,0 2.2382816,0.4335937 2.2382816,1.7578125 0,0.3515625 -0.05859,0.8085937 -0.05859,0.8671875 0,0.28125 0.28125,0.28125 0.351563,0.28125 0.316406,0 0.339844,-0.1523438 0.363281,-0.421875 l 0.269531,-2.6835938 0.02344,-0.234375 c 0,-0.2695306 -0.257813,-0.2695306 -0.503906,-0.2695306 H 3.5746125 c -0.3164062,0 -0.3398437,0.01172 -0.4101562,0.07031 -0.1054688,0.07031 -0.1289063,0.3398446 -0.1289063,0.3632821 0,0.2695313 0.1992188,0.2695313 0.609375,0.2695313 0.3164063,0 0.5976563,0.011719 0.9140625,0.023437 l -2.109375,8.4609375 c -0.058594,0.24609373 -0.082031,0.25781248 -0.3515625,0.29296873 -0.2578125,0.0117188 -0.5507812,0.0117188 -0.796875,0.0117188 -0.38671875,0 -0.41015625,0 -0.48046875,0.0234375 -0.17578125,0.1054707 -0.17578125,0.35156445 -0.17578125,0.4101582 0,0.0117188 0,0.26953125 0.328125,0.26953125 0.375,0 0.7617188,-0.03515625 1.1367188,-0.03515625 0.4101562,0 0.8203125,-0.01171875 1.21875,-0.01171875 0.4570312,0 0.9023437,0.01171875 1.3476562,0.01171875 0.4335938,0 0.8789063,0.03515625 1.2890625,0.03515625 0.1875,0 0.4570313,0 0.4570313,-0.43359375 0,-0.26953125 -0.2578125,-0.26953125 -0.4921875,-0.26953125 H 5.426175 c -0.5625,0 -0.7851562,-0.0351563 -0.9375,-0.0585938 z m 0,0"
         style="fill:#d33682;fill-opacity:1;fill-rule:nonzero;stroke:none"
         aria-label="F"
         transform="matrix(1.3333333,0,0,1.3333333,142.5776,256.75621)" />
      <path
         id="path21"
         d="m 5.6141672,3.5871369 c 0,-0.058594 0,-0.09375 -0.2929688,-0.3632813 -1.6757812,-1.6757812 -2.3203125,-4.3125 -2.3203125,-6.9609375 0,-2.953125 0.7382813,-5.3789062 2.4140625,-7.0781251 0.1757813,-0.175781 0.1992188,-0.199219 0.1992188,-0.257812 0,-0.175782 -0.1875,-0.175782 -0.2578125,-0.175782 -0.140625,0 -0.1640625,0 -0.5507813,0.316407 -2.1679687,1.7226559 -3.1875,4.4882809 -3.1875,7.1835934 0,2.76562498 1.0429688,5.4492187 3.1640625,7.1835937 0.3984375,0.328125 0.421875,0.328125 0.5742188,0.328125 0.070312,0 0.2578125,0 0.2578125,-0.1757812 z m 0,0"
         style="fill:#d33682;fill-opacity:1;fill-rule:nonzero;stroke:none"
         aria-label="("
         transform="matrix(1.3333333,0,0,1.3333333,159.5496,256.75621)" />
      <path
         id="path22"
         d="m 3.9144484,-4.9675506 c 1.6757813,0 1.6757813,1.5585937 1.6757813,2.2851562 0,0.6679688 0,2.26171878 -1.6171875,2.26171878 -0.3164063,0 -1.3007813,-0.046875 -2.0273438,-0.55078125 0.6445313,-0.14062503 0.8789063,-0.59765623 0.8789063,-1.05468753 0,-0.609375 -0.4335938,-1.0429687 -1.0546875,-1.0429687 -0.6328125,0 -1.06640626,0.4335937 -1.06640626,1.0546875 0,1.38281248 1.49999996,2.19140623 3.35156246,2.19140623 2.4726563,0 3.65625,-1.35937503 3.65625,-2.85937503 0,-0.7382812 -0.375,-2.15625 -2.6953125,-2.5664062 1.3125,-0.4101563 2.2265625,-1.3359375 2.2265625,-2.5195313 0,-1.125 -1.078125,-2.0742187 -3.1640625,-2.0742187 -1.6757812,0 -2.90625,0.890625 -2.90625,2.109375 0,0.75 0.5859375,0.984375 0.9726563,0.984375 0.4335937,0 0.9609375,-0.28125 0.9609375,-0.9726563 0,-0.3515625 -0.1523438,-0.8554687 -0.8554688,-0.9609375 0.6328125,-0.6210937 1.6523438,-0.6210937 1.734375,-0.6210937 1.3359375,0 1.3359375,1.0429687 1.3359375,1.4882812 0,0.4570313 -0.058594,1.1367188 -0.5390625,1.7578125 -0.3867187,0.5039063 -0.7734375,0.5390625 -1.3476562,0.5742188 -0.1757813,0.011719 -0.4804688,0.023437 -0.5390625,0.058594 -0.09375,0.035156 -0.09375,0.140625 -0.09375,0.2109375 0,0.2460938 0.09375,0.2460938 0.3984375,0.2460938 z m 0,0"
         style="fill:#d33682;fill-opacity:1;fill-rule:nonzero;stroke:none"
         aria-label="3"
         transform="matrix(1.3333333,0,0,1.3333333,168.30027,256.75621)" />
      <path
         id="path23"
         d="m 4.9227609,-3.7370819 c 0,-2.7539062 -1.03125,-5.4375 -3.1640625,-7.1835941 -0.3984375,-0.328125 -0.421875,-0.328125 -0.5742187,-0.328125 -0.070312,0 -0.25781251,0 -0.25781251,0.175782 0,0.05859 0,0.09375 0.29296871,0.363281 1.6757813,1.6757811 2.3203125,4.3242186 2.3203125,6.9609374 0,2.95312498 -0.7382812,5.390625 -2.4140625,7.078125 -0.17578121,0.1875 -0.19921871,0.1992187 -0.19921871,0.2578125 0,0.1757812 0.18750001,0.1757812 0.25781251,0.1757812 0.140625,0 0.1640625,0 0.5507812,-0.3164062 2.1679688,-1.7226563 3.1875,-4.4765625 3.1875,-7.1835938 z m 0,0"
         style="fill:#d33682;fill-opacity:1;fill-rule:nonzero;stroke:none"
         aria-label=")"
         transform="matrix(1.3333333,0,0,1.3333333,179.5496,256.75621)" />
      <g
         id="g23"
         aria-label="F(1)"
         transform="matrix(1.3333333,0,0,1.3333333,185.8616,323.17755)">
        <path
           id="path24"
           d="m 5.4856359,-4.7591366 h 0.984375 c 0.890625,0 1.1484375,0.1523438 1.1484375,0.6445313 0,0.1640625 -0.046875,0.4570312 -0.082031,0.6328125 -0.035156,0.1054687 -0.046875,0.1757812 -0.046875,0.2109375 0,0.2226562 0.1875,0.2695312 0.3398437,0.2695312 0.28125,0 0.3046875,-0.09375 0.375,-0.3632812 l 0.84375,-3.3398438 c 0.058594,-0.1992187 0.058594,-0.2226562 0.058594,-0.2460937 0,-0.2695313 -0.3046875,-0.2695313 -0.3632813,-0.2695313 -0.28125,0 -0.3164062,0.1054688 -0.3867187,0.3984375 -0.3046875,1.1367188 -0.7617188,1.359375 -1.8398438,1.359375 h -0.84375 l 0.984375,-4.0078125 c 0.1992188,-0.023437 0.3632813,-0.023437 0.515625,-0.023437 h 1.78125 c 1.7109367,0 2.2382807,0.4335938 2.2382807,1.7578125 0,0.3515625 -0.05859,0.8085938 -0.05859,0.8671875 0,0.28125 0.28125,0.28125 0.351563,0.28125 0.316406,0 0.339844,-0.1523437 0.363281,-0.421875 l 0.269531,-2.6835937 0.02344,-0.234375 c 0,-0.2695312 -0.257813,-0.2695312 -0.503906,-0.2695312 H 3.5754797 c -0.3164063,0 -0.3398438,0.01172 -0.4101563,0.07031 -0.1054687,0.07031 -0.1289062,0.3398432 -0.1289062,0.3632807 0,0.2695312 0.1992187,0.2695312 0.609375,0.2695312 0.3164062,0 0.5976562,0.011719 0.9140625,0.023437 l -2.109375,8.4609375 c -0.058594,0.24609379 -0.082031,0.25781254 -0.3515625,0.29296879 -0.2578125,0.0117188 -0.5507813,0.0117188 -0.796875,0.0117188 -0.38671876,0 -0.41015626,0 -0.48046876,0.0234375 -0.17578125,0.10546875 -0.17578125,0.3515625 -0.17578125,0.41015625 0,0.0117188 0,0.26953125 0.328125,0.26953125 0.37500001,0 0.76171871,-0.03515625 1.13671871,-0.03515625 0.4101563,0 0.8203125,-0.01171875 1.21875,-0.01171875 0.4570313,0 0.9023438,0.01171875 1.3476563,0.01171875 0.4335937,0 0.8789062,0.03515625 1.2890625,0.03515625 0.1875,0 0.4570312,0 0.4570312,-0.43359375 0,-0.26953125 -0.2578125,-0.26953125 -0.4921875,-0.26953125 H 5.4270422 c -0.5625,0 -0.7851563,-0.0351563 -0.9375,-0.0585938 z m 0,0"
           style="fill:#dc322f;fill-opacity:1;fill-rule:nonzero;stroke:none" />
        <path
           id="path25"
           d="m 18.341105,3.5846134 c 0,-0.058594 0,-0.09375 -0.292969,-0.3632812 -1.675781,-1.6757813 -2.320313,-4.3125 -2.320313,-6.9609375 0,-2.953125 0.738282,-5.3789063 2.414063,-7.0781247 0.175781,-0.175782 0.199219,-0.199219 0.199219,-0.257813 0,-0.175781 -0.1875,-0.175781 -0.257813,-0.175781 -0.140625,0 -0.164062,0 -0.550781,0.316406 -2.167969,1.7226564 -3.1875,4.4882814 -3.1875,7.1835939 0,2.76562504 1.042969,5.4492188 3.164062,7.1835938 0.398438,0.328125 0.421875,0.328125 0.574219,0.328125 0.07031,0 0.257813,0 0.257813,-0.1757813 z M 24.47587,-9.4114803 c 0,-0.4335938 -0.03516,-0.4335938 -0.515625,-0.4335938 -1.101562,0.9609375 -2.765625,0.9609375 -3.105468,0.9609375 h -0.28125 v 0.6445313 h 0.28125 c 0.527343,0 1.324218,-0.082031 1.921875,-0.28125 v 7.87499999 h -2.085938 v 0.64453125 c 0.632813,-0.03515625 2.203125,-0.03515625 2.917969,-0.03515625 0.703125,0 2.285156,0 2.917969,0.03515625 V -0.64585531 H 24.47587 Z m 8.15918,5.671875 c 0,-2.7539063 -1.03125,-5.4375 -3.164062,-7.1835937 -0.398438,-0.328125 -0.421875,-0.328125 -0.574219,-0.328125 -0.07031,0 -0.257813,0 -0.257813,0.175781 0,0.05859 0,0.09375 0.292969,0.363281 1.675781,1.6757817 2.320313,4.3242192 2.320313,6.9609379 0,2.95312504 -0.738282,5.390625 -2.414063,7.078125 -0.175781,0.1875 -0.199219,0.1992188 -0.199219,0.2578125 0,0.1757813 0.1875,0.1757813 0.257813,0.1757813 0.140625,0 0.164062,0 0.550781,-0.3164063 2.167969,-1.7226562 3.1875,-4.4765625 3.1875,-7.1835937 z m 0,0"
           style="fill:#dc322f;fill-opacity:1;fill-rule:nonzero;stroke:none" />
      </g>
      <path
         id="path26"
         d="m 5.4854816,-4.7565769 h 0.984375 c 0.890625,0 1.1484375,0.1523438 1.1484375,0.6445313 0,0.1640625 -0.046875,0.4570312 -0.082031,0.6328125 -0.035156,0.1054687 -0.046875,0.1757812 -0.046875,0.2109375 0,0.2226562 0.1875,0.2695312 0.3398438,0.2695312 0.28125,0 0.3046875,-0.09375 0.375,-0.3632812 l 0.84375,-3.3398438 c 0.058594,-0.1992187 0.058594,-0.2226562 0.058594,-0.2460937 0,-0.2695313 -0.3046875,-0.2695313 -0.3632812,-0.2695313 -0.28125,0 -0.3164063,0.1054688 -0.3867188,0.3984375 -0.3046875,1.1367188 -0.7617187,1.359375 -1.8398437,1.359375 h -0.84375 l 0.984375,-4.0078125 c 0.1992187,-0.023437 0.3632812,-0.023437 0.515625,-0.023437 h 1.78125 c 1.7109378,0 2.2382818,0.4335938 2.2382818,1.7578125 0,0.3515625 -0.05859,0.8085938 -0.05859,0.8671875 0,0.28125 0.28125,0.28125 0.351563,0.28125 0.316406,0 0.339843,-0.1523437 0.363281,-0.421875 l 0.269531,-2.6835937 0.02344,-0.234375 c 0,-0.2695319 -0.257813,-0.2695319 -0.503907,-0.2695319 H 3.5753253 c -0.3164062,0 -0.3398437,0.01172 -0.4101562,0.07031 -0.1054688,0.07031 -0.1289063,0.3398439 -0.1289063,0.3632814 0,0.2695312 0.1992188,0.2695312 0.609375,0.2695312 0.3164063,0 0.5976563,0.011719 0.9140625,0.023437 l -2.109375,8.4609375 c -0.058594,0.24609377 -0.082031,0.25781252 -0.3515625,0.29296877 -0.2578125,0.0117188 -0.5507812,0.0117188 -0.796875,0.0117188 -0.38671874,0 -0.41015624,0 -0.48046874,0.0234375 -0.17578125,0.10546875 -0.17578125,0.3515625 -0.17578125,0.41015625 0,0.0117188 0,0.26953125 0.328125,0.26953125 0.37499999,0 0.76171879,-0.03515625 1.13671879,-0.03515625 0.4101562,0 0.8203125,-0.01171875 1.21875,-0.01171875 0.4570312,0 0.9023437,0.01171875 1.3476562,0.01171875 0.4335938,0 0.8789063,0.03515625 1.2890625,0.03515625 0.1875,0 0.4570313,0 0.4570313,-0.43359375 0,-0.26953125 -0.2578125,-0.26953125 -0.4921875,-0.26953125 H 5.4268878 c -0.5625,0 -0.7851562,-0.0351563 -0.9375,-0.0585938 z m 0,0"
         style="fill:#d33682;fill-opacity:1;fill-rule:nonzero;stroke:none"
         aria-label="F"
         transform="matrix(1.3333333,0,0,1.3333333,99.291493,323.17804)" />
      <path
         id="path27"
         d="m 5.6119503,3.5871731 c 0,-0.058594 0,-0.09375 -0.2929687,-0.3632812 -1.6757813,-1.6757813 -2.3203125,-4.3125 -2.3203125,-6.9609375 0,-2.953125 0.7382812,-5.3789063 2.4140625,-7.0781254 0.1757812,-0.175781 0.1992187,-0.199218 0.1992187,-0.257812 0,-0.175781 -0.1875,-0.175781 -0.2578125,-0.175781 -0.140625,0 -0.1640625,0 -0.5507812,0.316406 -2.1679688,1.7226561 -3.1875,4.4882811 -3.1875,7.1835936 0,2.76562502 1.0429687,5.4492188 3.1640625,7.1835938 0.3984375,0.328125 0.421875,0.328125 0.5742187,0.328125 0.070312,0 0.2578125,0 0.2578125,-0.1757813 z m 0,0"
         style="fill:#d33682;fill-opacity:1;fill-rule:nonzero;stroke:none"
         aria-label="("
         transform="matrix(1.3333333,0,0,1.3333333,116.26349,323.17804)" />
      <path
         id="path28"
         d="M 7.5714113,-3.2214206 H 6.9503175 c -0.046875,0.3164062 -0.1523437,1.1953125 -0.375,1.3476562 C 6.4464113,-1.7682956 5.286255,-1.7682956 5.05188,-1.7682956 H 2.7315675 c 0.5742188,-0.4804688 1.9335938,-1.6171875 2.15625,-1.78125 1.6640625,-1.2539063 2.6835938,-2.015625 2.6835938,-3.4570313 0,-1.7695312 -1.6054688,-2.8359375 -3.5859375,-2.8359375 -1.6875,0 -3.14062505,0.9609375 -3.14062505,2.390625 0,0.796875 0.64453125,1.0195313 0.98437505,1.0195313 0.46875,0 1.0078125,-0.3164063 1.0078125,-1.0078125 0,-0.6328125 -0.46875,-0.9492188 -0.9257813,-1.0078125 0.5976563,-0.6914063 1.3945313,-0.75 1.6992188,-0.75 1.3828125,0 2.0507812,1.125 2.0507812,2.2148437 0,1.1601563 -0.796875,2.25 -1.4179687,2.8945313 l -3.25781255,3.39843747 c -0.140625,0.140625 -0.140625,0.1640625 -0.140625,0.43359375 v 0.2578125 H 7.1378175 Z m 0,0"
         style="fill:#d33682;fill-opacity:1;fill-rule:nonzero;stroke:none"
         aria-label="2"
         transform="matrix(1.3333333,0,0,1.3333333,125.01416,323.17804)" />
      <path
         id="path29"
         d="m 4.9205441,-3.7370456 c 0,-2.7539063 -1.03125,-5.4375 -3.1640625,-7.1835934 -0.3984375,-0.328125 -0.421875,-0.328125 -0.5742188,-0.328125 -0.070312,0 -0.25781249,0 -0.25781249,0.175781 0,0.05859 0,0.09375 0.29296879,0.363281 1.6757812,1.6757814 2.3203125,4.3242189 2.3203125,6.9609376 0,2.95312502 -0.7382813,5.390625 -2.4140625,7.078125 -0.17578129,0.1875 -0.19921879,0.1992188 -0.19921879,0.2578125 0,0.1757813 0.18749999,0.1757813 0.25781249,0.1757813 0.140625,0 0.1640625,0 0.5507813,-0.3164063 2.1679687,-1.7226562 3.1875,-4.4765625 3.1875,-7.1835937 z m 0,0"
         style="fill:#d33682;fill-opacity:1;fill-rule:nonzero;stroke:none"
         aria-label=")"
         transform="matrix(1.3333333,0,0,1.3333333,136.26349,323.17804)" />
      <g
         id="g29"
         aria-label="F(0)"
         transform="matrix(1.3333333,0,0,1.3333333,128.14616,389.60071)">
        <path
           id="path30"
           d="m 5.4831534,-4.7571706 h 0.984375 c 0.890625,0 1.1484375,0.1523437 1.1484375,0.6445312 0,0.1640625 -0.046875,0.4570313 -0.082031,0.6328125 -0.035156,0.1054688 -0.046875,0.1757813 -0.046875,0.2109375 0,0.2226563 0.1875,0.2695313 0.3398437,0.2695313 0.28125,0 0.3046875,-0.09375 0.375,-0.3632813 l 0.84375,-3.3398437 c 0.058594,-0.1992188 0.058594,-0.2226563 0.058594,-0.2460938 0,-0.2695312 -0.3046875,-0.2695312 -0.3632813,-0.2695312 -0.28125,0 -0.3164062,0.1054687 -0.3867187,0.3984375 -0.3046875,1.1367187 -0.7617188,1.359375 -1.8398438,1.359375 h -0.84375 l 0.984375,-4.0078125 c 0.1992188,-0.023437 0.3632813,-0.023437 0.515625,-0.023437 h 1.78125 c 1.7109372,0 2.2382812,0.4335937 2.2382812,1.7578125 0,0.3515625 -0.05859,0.8085937 -0.05859,0.8671875 0,0.28125 0.28125,0.28125 0.351562,0.28125 0.316407,0 0.339844,-0.1523438 0.363282,-0.421875 l 0.269531,-2.6835938 0.02344,-0.234375 c 0,-0.2695321 -0.257812,-0.2695321 -0.503906,-0.2695321 H 3.5729972 c -0.3164063,0 -0.3398438,0.01172 -0.4101563,0.07031 -0.1054687,0.07031 -0.1289062,0.3398441 -0.1289062,0.3632816 0,0.2695313 0.1992187,0.2695313 0.609375,0.2695313 0.3164062,0 0.5976562,0.011719 0.9140625,0.023437 l -2.109375,8.4609375 c -0.058594,0.24609373 -0.082031,0.25781248 -0.3515625,0.29296873 -0.2578125,0.0117188 -0.5507813,0.0117188 -0.796875,0.0117188 -0.38671876,0 -0.41015626,0 -0.48046876,0.0234375 -0.17578125,0.10546875 -0.17578125,0.3515625 -0.17578125,0.41015625 0,0.0117188 0,0.269531245 0.328125,0.269531245 0.37500001,0 0.76171871,-0.035156245 1.13671871,-0.035156245 0.4101563,0 0.8203125,-0.01171875 1.21875,-0.01171875 0.4570313,0 0.9023438,0.01171875 1.3476563,0.01171875 0.4335937,0 0.8789062,0.035156245 1.2890625,0.035156245 0.1875,0 0.4570312,0 0.4570312,-0.433593745 0,-0.26953125 -0.2578125,-0.26953125 -0.4921875,-0.26953125 H 5.4245597 c -0.5625,0 -0.7851563,-0.0351563 -0.9375,-0.0585938 z m 0,0"
           style="fill:#dc322f;fill-opacity:1;fill-rule:nonzero;stroke:none" />
        <path
           id="path31"
           d="m 18.341552,3.5865794 c 0,-0.058594 0,-0.09375 -0.292969,-0.3632813 -1.675781,-1.6757812 -2.320312,-4.3125 -2.320312,-6.9609375 0,-2.953125 0.738281,-5.3789062 2.414062,-7.0781246 0.175781,-0.175782 0.199219,-0.199219 0.199219,-0.257813 0,-0.175781 -0.1875,-0.175781 -0.257813,-0.175781 -0.140625,0 -0.164062,0 -0.550781,0.316406 -2.167969,1.7226564 -3.1875,4.4882814 -3.1875,7.1835939 0,2.76562498 1.042969,5.4492187 3.164063,7.1835937 0.398437,0.328125 0.421875,0.328125 0.574218,0.328125 0.07031,0 0.257813,0 0.257813,-0.1757812 z m 8.701172,-8.3671875 c 0,-1.4414063 0,-5.0625 -3.539063,-5.0625 -3.5625,0 -3.5625,3.609375 -3.5625,5.0625 0,1.4414062 0,4.95703123 3.539063,4.95703123 3.539062,0 3.5625,-3.48046873 3.5625,-4.95703123 z m -3.539063,4.46484373 c -0.480468,0 -0.84375,-0.19921875 -1.148437,-0.50390625 -0.375,-0.37499998 -0.609375,-0.62109378 -0.609375,-4.14843748 0,-1.0429688 0,-2.0039063 0.117187,-2.7890625 0.210938,-1.4765625 1.289063,-1.5820313 1.617188,-1.5820313 0.480469,0 1.417969,0.2226563 1.628906,1.4765625 0.128906,0.7734375 0.128906,1.9804688 0.128906,2.8945313 0,3.5390625 -0.222656,3.75 -0.667968,4.20703123 -0.304688,0.29296875 -0.714844,0.4453125 -1.066407,0.4453125 z m 9.131836,-3.42187503 c 0,-2.7539062 -1.03125,-5.4375 -3.164062,-7.1835936 -0.398438,-0.328125 -0.421875,-0.328125 -0.574219,-0.328125 -0.07031,0 -0.257813,0 -0.257813,0.175781 0,0.05859 0,0.09375 0.292969,0.363281 1.675781,1.6757816 2.320313,4.3242191 2.320313,6.9609379 0,2.95312498 -0.738282,5.390625 -2.414063,7.078125 -0.175781,0.1875 -0.199219,0.1992187 -0.199219,0.2578125 0,0.1757812 0.1875,0.1757812 0.257813,0.1757812 0.140625,0 0.164062,0 0.550781,-0.3164062 2.167969,-1.7226563 3.1875,-4.4765625 3.1875,-7.1835938 z m 0,0"
           style="fill:#dc322f;fill-opacity:1;fill-rule:nonzero;stroke:none" />
      </g>
      <g
         id="g31"
         aria-label="F(1)"
         transform="matrix(1.3333333,0,0,1.3333333,70.433293,389.60007)">
        <path
           id="path32"
           d="m 5.4846003,-4.7566906 h 0.984375 c 0.890625,0 1.1484375,0.1523437 1.1484375,0.6445312 0,0.1640625 -0.046875,0.4570313 -0.082031,0.6328125 -0.035156,0.1054688 -0.046875,0.1757813 -0.046875,0.2109375 0,0.2226563 0.1875,0.2695313 0.3398437,0.2695313 0.28125,0 0.3046875,-0.09375 0.375,-0.3632813 l 0.84375,-3.3398437 c 0.058594,-0.1992188 0.058594,-0.2226563 0.058594,-0.2460938 0,-0.2695312 -0.3046875,-0.2695312 -0.3632813,-0.2695312 -0.28125,0 -0.3164062,0.1054687 -0.3867187,0.3984375 -0.3046875,1.1367187 -0.7617188,1.359375 -1.8398438,1.359375 h -0.84375 l 0.984375,-4.0078125 c 0.1992188,-0.023437 0.3632813,-0.023437 0.515625,-0.023437 h 1.78125 c 1.7109373,0 2.2382813,0.4335937 2.2382813,1.7578125 0,0.3515625 -0.05859,0.8085937 -0.05859,0.8671875 0,0.28125 0.28125,0.28125 0.351562,0.28125 0.316407,0 0.339844,-0.1523438 0.363282,-0.421875 l 0.269531,-2.6835938 0.02344,-0.234375 c 0,-0.2695321 -0.257812,-0.2695321 -0.503906,-0.2695321 H 3.5744441 c -0.3164063,0 -0.3398438,0.01172 -0.4101563,0.07031 -0.1054687,0.07031 -0.1289062,0.3398441 -0.1289062,0.3632816 0,0.2695313 0.1992187,0.2695313 0.609375,0.2695313 0.3164062,0 0.5976562,0.011719 0.9140625,0.023437 l -2.109375,8.4609375 c -0.058594,0.24609373 -0.082031,0.25781248 -0.3515625,0.29296873 -0.2578125,0.0117188 -0.5507813,0.0117188 -0.796875,0.0117188 -0.38671879,0 -0.41015629,0 -0.48046879,0.0234375 -0.17578125,0.10546875 -0.17578125,0.3515625 -0.17578125,0.41015625 0,0.0117188 0,0.26953125 0.328125,0.26953125 0.37500004,0 0.76171874,-0.03515625 1.13671874,-0.03515625 0.4101563,0 0.8203125,-0.01171875 1.21875,-0.01171875 0.4570313,0 0.9023438,0.01171875 1.3476563,0.01171875 0.4335937,0 0.8789062,0.03515625 1.2890625,0.03515625 0.1875,0 0.4570312,0 0.4570312,-0.43359375 0,-0.26953125 -0.2578125,-0.26953125 -0.4921875,-0.26953125 H 5.4260066 c -0.5625,0 -0.7851563,-0.0351563 -0.9375,-0.0585938 z m 0,0"
           style="fill:#dc322f;fill-opacity:1;fill-rule:nonzero;stroke:none" />
        <path
           id="path33"
           d="m 18.342999,3.5870594 c 0,-0.058594 0,-0.09375 -0.292969,-0.3632813 -1.675781,-1.6757812 -2.320312,-4.3125 -2.320312,-6.9609375 0,-2.953125 0.738281,-5.3789062 2.414062,-7.0781246 0.175781,-0.175782 0.199219,-0.199219 0.199219,-0.257813 0,-0.175781 -0.1875,-0.175781 -0.257813,-0.175781 -0.140625,0 -0.164062,0 -0.550781,0.316406 -2.167969,1.7226564 -3.1875,4.4882814 -3.1875,7.1835939 0,2.76562498 1.042969,5.4492187 3.164063,7.1835937 0.398437,0.328125 0.421875,0.328125 0.574218,0.328125 0.07031,0 0.257813,0 0.257813,-0.1757812 z m 6.134765,-12.9960938 c 0,-0.4335937 -0.03516,-0.4335937 -0.515625,-0.4335937 -1.101562,0.9609375 -2.765625,0.9609375 -3.105468,0.9609375 h -0.28125 v 0.6445312 h 0.28125 c 0.527343,0 1.324218,-0.082031 1.921875,-0.28125 v 7.87500003 h -2.085938 v 0.64453125 c 0.632813,-0.03515625 2.203125,-0.03515625 2.917969,-0.03515625 0.703125,0 2.285156,0 2.917969,0.03515625 v -0.64453125 h -2.050782 z m 8.15918,5.671875 c 0,-2.7539062 -1.03125,-5.4375 -3.164062,-7.1835936 -0.398438,-0.328125 -0.421875,-0.328125 -0.574219,-0.328125 -0.07031,0 -0.257813,0 -0.257813,0.175781 0,0.05859 0,0.09375 0.292969,0.363281 1.675781,1.6757816 2.320313,4.3242191 2.320313,6.9609379 0,2.95312498 -0.738282,5.390625 -2.414063,7.078125 -0.175781,0.1875 -0.199219,0.1992187 -0.199219,0.2578125 0,0.1757812 0.1875,0.1757812 0.257813,0.1757812 0.140625,0 0.164062,0 0.550781,-0.3164062 2.167969,-1.7226563 3.1875,-4.4765625 3.1875,-7.1835938 z m 0,0"
           style="fill:#dc322f;fill-opacity:1;fill-rule:nonzero;stroke:none" />
      </g>
      <path
         id="path34"
         d="M 0,-7.44893 -21.64192,-34.86479"
         style="fill:none;stroke:#586e75;stroke-width:0.3985;stroke-linecap:butt;stroke-linejoin:miter;stroke-miterlimit:10;stroke-dasharray:none;stroke-opacity:1"
         transform="matrix(1.3333333,0,0,-1.3333333,122.15283,323.17804)" />
      <path
         id="path35"
         d="M 0,-7.44893 21.64192,-34.86479"
         style="fill:none;stroke:#586e75;stroke-width:0.3985;stroke-linecap:butt;stroke-linejoin:miter;stroke-miterlimit:10;stroke-dasharray:none;stroke-opacity:1"
         transform="matrix(1.3333333,0,0,-1.3333333,122.15283,323.17804)" />
      <path
         id="path36"
         d="M 0,-7.44893 -32.46289,-34.86479"
         style="fill:none;stroke:#586e75;stroke-width:0.3985;stroke-linecap:butt;stroke-linejoin:miter;stroke-miterlimit:10;stroke-dasharray:none;stroke-opacity:1"
         transform="matrix(1.3333333,0,0,-1.3333333,165.43893,256.75621)" />
      <path
         id="path37"
         d="M 0,-7.44893 32.46289,-34.86479"
         style="fill:none;stroke:#586e75;stroke-width:0.3985;stroke-linecap:butt;stroke-linejoin:miter;stroke-miterlimit:10;stroke-dasharray:none;stroke-opacity:1"
         transform="matrix(1.3333333,0,0,-1.3333333,165.43893,256.75621)" />
      <path
         id="path38"
         d="M 0,-7.44893 -37.87337,-34.86479"
         style="fill:none;stroke:#586e75;stroke-width:0.3985;stroke-linecap:butt;stroke-linejoin:miter;stroke-miterlimit:10;stroke-dasharray:none;stroke-opacity:1"
         transform="matrix(1.3333333,0,0,-1.3333333,215.94089,190.3306)" />
      <path
         id="path39"
         d="M 0,-7.44893 37.87338,-34.86479"
         style="fill:none;stroke:#586e75;stroke-width:0.3985;stroke-linecap:butt;stroke-linejoin:miter;stroke-miterlimit:10;stroke-dasharray:none;stroke-opacity:1"
         transform="matrix(1.3333333,0,0,-1.3333333,215.94089,190.3306)" />
      <path
         id="path40"
         d="M 0,-7.44893 -40.57861,-34.86479"
         style="fill:none;stroke:#586e75;stroke-width:0.3985;stroke-linecap:butt;stroke-linejoin:miter;stroke-miterlimit:10;stroke-dasharray:none;stroke-opacity:1"
         transform="matrix(1.3333333,0,0,-1.3333333,270.05004,123.90253)" />
      <path
         id="path41"
         d="M 0,-7.44893 40.57861,-34.86479"
         style="fill:none;stroke:#586e75;stroke-width:0.3985;stroke-linecap:butt;stroke-linejoin:miter;stroke-miterlimit:10;stroke-dasharray:none;stroke-opacity:1"
         transform="matrix(1.3333333,0,0,-1.3333333,270.05004,123.90253)" />
      <path
         id="path42"
         d="M 0,-7.44893 -41.93123,-34.86479"
         style="fill:none;stroke:#586e75;stroke-width:0.3985;stroke-linecap:butt;stroke-linejoin:miter;stroke-miterlimit:10;stroke-dasharray:none;stroke-opacity:1"
         transform="matrix(1.3333333,0,0,-1.3333333,325.96667,57.470667)" />
      <path
         id="path43"
         d="M 0,-7.44893 41.93124,-34.86479"
         style="fill:none;stroke:#586e75;stroke-width:0.3985;stroke-linecap:butt;stroke-linejoin:miter;stroke-miterlimit:10;stroke-dasharray:none;stroke-opacity:1"
         transform="matrix(1.3333333,0,0,-1.3333333,325.96667,57.470667)" />
    </g>
  </g>
</svg>
