<?xml version="1.0" encoding="UTF-8"?>
<svg xmlns="http://www.w3.org/2000/svg" xmlns:xlink="http://www.w3.org/1999/xlink" width="273.37pt" height="241.83pt" viewBox="0 0 273.37 241.83">
<defs>
<g>
<g id="glyph-0-0">
<path d="M 10.46875 -4.046875 L 1.203125 -4.046875 C 0.953125 -4.046875 0.84375 -3.9375 0.84375 -3.75 C 0.84375 -3.5625 0.953125 -3.453125 1.203125 -3.453125 L 10.46875 -3.453125 C 10.703125 -3.453125 10.828125 -3.5625 10.828125 -3.75 C 10.828125 -3.9375 10.65625 -4.046875 10.46875 -4.046875 Z M 10.46875 -4.046875 "/>
</g>
<g id="glyph-0-1">
<path d="M 1.765625 -4.71875 C 1.84375 -4.71875 1.9375 -4.78125 2.015625 -4.890625 C 2.453125 -5.5625 3.078125 -5.890625 3.859375 -5.890625 C 4.375 -5.890625 4.78125 -5.59375 5.0625 -4.984375 C 5.21875 -4.578125 5.3125 -3.953125 5.3125 -3.140625 C 5.3125 -2.1875 5.1875 -1.53125 4.96875 -1.140625 C 4.59375 -0.53125 4.078125 -0.203125 3.4375 -0.203125 C 2.4375 -0.203125 1.640625 -0.9375 1.359375 -1.703125 C 1.40625 -1.6875 1.4375 -1.703125 1.5 -1.703125 C 1.953125 -1.703125 2.328125 -2.0625 2.328125 -2.5 C 2.328125 -2.96875 1.953125 -3.28125 1.5 -3.28125 C 0.96875 -3.28125 0.75 -3 0.75 -2.4375 C 0.75 -0.9375 1.96875 0.328125 3.46875 0.328125 C 4.375 0.328125 5.15625 0 5.796875 -0.65625 C 6.421875 -1.3125 6.734375 -2.109375 6.734375 -3.03125 C 6.734375 -3.90625 6.484375 -4.65625 5.96875 -5.296875 C 5.421875 -6 4.71875 -6.34375 3.890625 -6.34375 C 3.1875 -6.34375 2.5625 -6.125 2.0625 -5.671875 L 2.0625 -8.34375 C 2.46875 -8.21875 2.859375 -8.15625 3.265625 -8.15625 C 3.953125 -8.15625 4.5625 -8.328125 5.0625 -8.671875 C 5.53125 -8.953125 5.84375 -9.234375 6.03125 -9.515625 C 6.125 -9.625 6.171875 -9.71875 6.171875 -9.765625 C 6.171875 -9.921875 6.09375 -9.984375 5.9375 -9.984375 C 5.109375 -9.671875 4.40625 -9.515625 3.84375 -9.515625 C 3.171875 -9.515625 2.515625 -9.640625 1.90625 -9.9375 C 1.828125 -9.953125 1.765625 -9.96875 1.703125 -9.96875 C 1.578125 -9.96875 1.5 -9.84375 1.5 -9.5625 L 1.5 -5.171875 C 1.5 -4.859375 1.5 -4.71875 1.765625 -4.71875 Z M 1.765625 -4.71875 "/>
</g>
<g id="glyph-0-2">
<path d="M 4.546875 -5.296875 C 5.53125 -5.671875 6.46875 -6.609375 6.46875 -7.890625 C 6.46875 -8.53125 6.15625 -9.0625 5.53125 -9.46875 C 5 -9.8125 4.375 -9.984375 3.6875 -9.984375 C 3.015625 -9.984375 2.4375 -9.8125 1.90625 -9.46875 C 1.3125 -9.078125 1.015625 -8.5625 1.015625 -7.921875 C 1.015625 -7.421875 1.34375 -7.078125 1.828125 -7.078125 C 2.3125 -7.078125 2.640625 -7.421875 2.640625 -7.90625 C 2.640625 -8.40625 2.359375 -8.671875 1.78125 -8.703125 C 2.171875 -9.21875 2.796875 -9.5 3.625 -9.5 C 4.53125 -9.5 4.984375 -8.96875 4.984375 -7.90625 C 4.984375 -7.28125 4.859375 -6.75 4.640625 -6.3125 C 4.234375 -5.59375 3.671875 -5.453125 2.75 -5.453125 C 2.5625 -5.4375 2.46875 -5.359375 2.46875 -5.21875 C 2.46875 -5 2.578125 -5 2.875 -5 L 3.53125 -5 C 4.65625 -5 5.21875 -4.203125 5.21875 -2.59375 C 5.21875 -1.3125 4.75 -0.203125 3.609375 -0.203125 C 2.640625 -0.203125 1.921875 -0.546875 1.484375 -1.203125 C 2.015625 -1.1875 2.40625 -1.578125 2.40625 -2.078125 C 2.40625 -2.59375 2.03125 -2.96875 1.515625 -2.96875 C 0.9375 -2.96875 0.625 -2.671875 0.625 -2.0625 C 0.625 -1.3125 0.953125 -0.734375 1.625 -0.265625 C 2.203125 0.140625 2.890625 0.328125 3.65625 0.328125 C 4.515625 0.328125 5.25 0.046875 5.890625 -0.515625 C 6.546875 -1.0625 6.859375 -1.75 6.859375 -2.59375 C 6.859375 -4 5.75 -4.984375 4.546875 -5.296875 Z M 4.546875 -5.296875 "/>
</g>
<g id="glyph-0-3">
<path d="M 5.296875 -10.15625 C 5.15625 -10.15625 5.046875 -10.078125 4.953125 -9.9375 L 0.421875 -2.984375 L 0.421875 -2.4375 L 4.328125 -2.4375 L 4.328125 -1.21875 C 4.328125 -0.9375 4.28125 -0.765625 4.171875 -0.6875 C 4.0625 -0.609375 3.78125 -0.578125 3.28125 -0.578125 L 2.90625 -0.578125 L 2.90625 0 C 3.34375 -0.03125 4.03125 -0.046875 4.96875 -0.046875 C 5.890625 -0.046875 6.578125 -0.03125 7.015625 0 L 7.015625 -0.578125 L 6.640625 -0.578125 C 6.15625 -0.578125 5.859375 -0.609375 5.765625 -0.6875 C 5.65625 -0.765625 5.59375 -0.9375 5.59375 -1.21875 L 5.59375 -2.4375 L 7.0625 -2.4375 L 7.0625 -3.03125 L 5.59375 -3.03125 L 5.59375 -9.90625 C 5.59375 -10.046875 5.484375 -10.15625 5.296875 -10.15625 Z M 4.421875 -8.296875 L 4.421875 -3.03125 L 1 -3.03125 Z M 4.421875 -8.296875 "/>
</g>
<g id="glyph-0-4">
<path d="M 3.734375 0.328125 C 5.84375 0.328125 6.90625 -1.375 6.90625 -4.796875 C 6.90625 -7.09375 6.421875 -8.625 5.46875 -9.375 C 4.953125 -9.78125 4.359375 -9.984375 3.75 -9.984375 C 1.640625 -9.984375 0.578125 -8.265625 0.578125 -4.796875 C 0.578125 -2.046875 1.3125 0.328125 3.734375 0.328125 Z M 5.421875 -7.859375 C 5.515625 -7.328125 5.5625 -6.375 5.5625 -4.984375 C 5.5625 -3.59375 5.5 -2.578125 5.40625 -1.921875 C 5.203125 -0.71875 4.65625 -0.125 3.734375 -0.125 C 3.390625 -0.125 3.046875 -0.25 2.734375 -0.515625 C 2.328125 -0.859375 2.078125 -1.5625 1.984375 -2.640625 C 1.9375 -3.015625 1.921875 -3.796875 1.921875 -4.984375 C 1.921875 -6.28125 1.96875 -7.203125 2.046875 -7.6875 C 2.171875 -8.515625 2.4375 -9.046875 2.859375 -9.265625 C 3.1875 -9.453125 3.484375 -9.546875 3.734375 -9.546875 C 4.703125 -9.546875 5.25 -8.75 5.421875 -7.859375 Z M 5.421875 -7.859375 "/>
</g>
<g id="glyph-0-5">
<path d="M 4.03125 -9.984375 C 3.421875 -9.359375 2.515625 -9.046875 1.328125 -9.046875 L 1.328125 -8.453125 C 2.109375 -8.453125 2.765625 -8.578125 3.25 -8.8125 L 3.25 -1.234375 C 3.25 -0.953125 3.1875 -0.78125 3.0625 -0.703125 C 2.921875 -0.625 2.546875 -0.578125 1.953125 -0.578125 L 1.421875 -0.578125 L 1.421875 0 C 1.796875 -0.03125 2.609375 -0.046875 3.859375 -0.046875 C 5.09375 -0.046875 5.90625 -0.03125 6.28125 0 L 6.28125 -0.578125 L 5.765625 -0.578125 C 5.140625 -0.578125 4.765625 -0.625 4.65625 -0.703125 C 4.53125 -0.78125 4.453125 -0.953125 4.453125 -1.234375 L 4.453125 -9.546875 C 4.453125 -9.90625 4.421875 -9.984375 4.03125 -9.984375 Z M 4.03125 -9.984375 "/>
</g>
<g id="glyph-0-6">
<path d="M 5.53125 -5.859375 C 5.53125 -5.75 5.671875 -5.546875 5.90625 -5.25 C 6.15625 -4.953125 6.265625 -4.609375 6.265625 -4.21875 C 6.265625 -3.78125 6.0625 -3.046875 5.625 -2.015625 C 5.3125 -1.296875 4.59375 -0.265625 3.703125 -0.265625 C 3.015625 -0.265625 2.671875 -0.671875 2.671875 -1.5 C 2.671875 -2.078125 2.953125 -3.125 3.53125 -4.609375 C 3.640625 -4.921875 3.703125 -5.171875 3.703125 -5.359375 C 3.703125 -6.109375 3.1875 -6.625 2.4375 -6.625 C 1.78125 -6.625 1.265625 -6.25 0.890625 -5.5 C 0.578125 -4.890625 0.4375 -4.5 0.4375 -4.3125 C 0.4375 -4.171875 0.515625 -4.09375 0.671875 -4.09375 C 0.875 -4.09375 0.90625 -4.1875 0.953125 -4.390625 C 1.3125 -5.59375 1.78125 -6.1875 2.40625 -6.1875 C 2.59375 -6.1875 2.703125 -6.0625 2.703125 -5.78125 C 2.703125 -5.53125 2.625 -5.203125 2.453125 -4.765625 C 1.90625 -3.28125 1.625 -2.28125 1.625 -1.71875 C 1.625 -0.953125 1.875 -0.4375 2.390625 -0.15625 C 2.796875 0.0625 3.203125 0.171875 3.640625 0.171875 C 4.984375 0.171875 5.90625 -1.28125 6.296875 -2.4375 C 6.78125 -3.84375 7.015625 -4.875 7.015625 -5.53125 C 7.015625 -6.265625 6.78125 -6.625 6.3125 -6.625 C 5.9375 -6.625 5.53125 -6.234375 5.53125 -5.859375 Z M 5.53125 -5.859375 "/>
</g>
<g id="glyph-1-0">
<path d="M 3.234375 -7.984375 C 2.734375 -7.484375 2.015625 -7.234375 1.0625 -7.234375 L 1.0625 -6.765625 C 1.6875 -6.765625 2.203125 -6.859375 2.609375 -7.0625 L 2.609375 -0.984375 C 2.609375 -0.765625 2.5625 -0.625 2.453125 -0.5625 C 2.34375 -0.5 2.046875 -0.46875 1.5625 -0.46875 L 1.140625 -0.46875 L 1.140625 0 C 1.4375 -0.03125 2.09375 -0.03125 3.078125 -0.03125 C 4.078125 -0.03125 4.734375 -0.03125 5.03125 0 L 5.03125 -0.46875 L 4.609375 -0.46875 C 4.109375 -0.46875 3.8125 -0.5 3.71875 -0.5625 C 3.625 -0.625 3.5625 -0.765625 3.5625 -0.984375 L 3.5625 -7.625 C 3.5625 -7.921875 3.546875 -7.984375 3.234375 -7.984375 Z M 3.234375 -7.984375 "/>
</g>
<g id="glyph-1-1">
<path d="M 1.421875 -3.78125 C 1.46875 -3.78125 1.546875 -3.828125 1.609375 -3.90625 C 1.96875 -4.453125 2.453125 -4.71875 3.078125 -4.71875 C 3.5 -4.71875 3.828125 -4.46875 4.046875 -3.984375 C 4.171875 -3.65625 4.25 -3.171875 4.25 -2.515625 C 4.25 -1.75 4.15625 -1.21875 3.96875 -0.90625 C 3.671875 -0.421875 3.265625 -0.171875 2.75 -0.171875 C 1.9375 -0.171875 1.3125 -0.75 1.09375 -1.375 C 1.125 -1.359375 1.15625 -1.375 1.203125 -1.375 C 1.5625 -1.375 1.859375 -1.640625 1.859375 -2 C 1.859375 -2.375 1.5625 -2.625 1.203125 -2.625 C 0.78125 -2.625 0.59375 -2.40625 0.59375 -1.953125 C 0.59375 -0.75 1.578125 0.265625 2.765625 0.265625 C 3.5 0.265625 4.125 0 4.625 -0.53125 C 5.140625 -1.0625 5.390625 -1.6875 5.390625 -2.421875 C 5.390625 -3.125 5.1875 -3.71875 4.78125 -4.234375 C 4.328125 -4.796875 3.78125 -5.078125 3.109375 -5.078125 C 2.546875 -5.078125 2.046875 -4.890625 1.65625 -4.53125 L 1.65625 -6.671875 C 1.984375 -6.578125 2.296875 -6.53125 2.609375 -6.53125 C 3.171875 -6.53125 3.640625 -6.65625 4.0625 -6.9375 C 4.421875 -7.15625 4.6875 -7.390625 4.828125 -7.609375 C 4.890625 -7.703125 4.9375 -7.78125 4.9375 -7.8125 C 4.9375 -7.9375 4.875 -7.984375 4.75 -7.984375 C 4.09375 -7.734375 3.53125 -7.609375 3.078125 -7.609375 C 2.53125 -7.609375 2.015625 -7.71875 1.53125 -7.9375 C 1.46875 -7.96875 1.421875 -7.984375 1.375 -7.984375 C 1.265625 -7.984375 1.203125 -7.875 1.203125 -7.640625 L 1.203125 -4.140625 C 1.203125 -3.890625 1.203125 -3.78125 1.421875 -3.78125 Z M 1.421875 -3.78125 "/>
</g>
<g id="glyph-1-2">
<path d="M 2.84375 -7.984375 C 2.234375 -7.984375 1.71875 -7.78125 1.265625 -7.34375 C 0.828125 -6.90625 0.59375 -6.40625 0.59375 -5.796875 C 0.59375 -5.390625 0.90625 -5.09375 1.265625 -5.09375 C 1.625 -5.09375 1.9375 -5.40625 1.9375 -5.765625 C 1.9375 -6.15625 1.640625 -6.4375 1.265625 -6.4375 C 1.21875 -6.4375 1.203125 -6.4375 1.171875 -6.421875 C 1.40625 -7.015625 1.9375 -7.53125 2.6875 -7.53125 C 3.671875 -7.53125 4.21875 -6.671875 4.21875 -5.640625 C 4.21875 -4.84375 3.8125 -3.96875 3 -3.0625 L 0.75 -0.515625 C 0.59375 -0.34375 0.59375 -0.34375 0.59375 0 L 5.046875 0 L 5.40625 -2.15625 L 5 -2.15625 C 4.90625 -1.546875 4.828125 -1.203125 4.75 -1.09375 C 4.6875 -1.03125 4.328125 -1.015625 3.671875 -1.015625 L 1.671875 -1.015625 L 2.828125 -2.140625 C 3.640625 -2.921875 4.6875 -3.75 5.03125 -4.375 C 5.265625 -4.796875 5.390625 -5.21875 5.390625 -5.640625 C 5.390625 -7.0625 4.28125 -7.984375 2.84375 -7.984375 Z M 2.84375 -7.984375 "/>
</g>
<g id="glyph-1-3">
<path d="M 3.640625 -4.234375 C 4.421875 -4.53125 5.171875 -5.296875 5.171875 -6.3125 C 5.171875 -6.828125 4.921875 -7.25 4.421875 -7.578125 C 4 -7.84375 3.5 -7.984375 2.953125 -7.984375 C 2.40625 -7.984375 1.9375 -7.84375 1.53125 -7.578125 C 1.0625 -7.265625 0.8125 -6.859375 0.8125 -6.34375 C 0.8125 -5.9375 1.078125 -5.65625 1.46875 -5.65625 C 1.84375 -5.65625 2.109375 -5.9375 2.109375 -6.328125 C 2.109375 -6.71875 1.890625 -6.9375 1.421875 -6.953125 C 1.734375 -7.375 2.234375 -7.59375 2.90625 -7.59375 C 3.625 -7.59375 3.984375 -7.171875 3.984375 -6.328125 C 3.984375 -5.8125 3.890625 -5.40625 3.703125 -5.046875 C 3.390625 -4.46875 2.9375 -4.375 2.203125 -4.375 C 2.046875 -4.34375 1.984375 -4.28125 1.984375 -4.171875 C 1.984375 -4 2.0625 -4 2.296875 -4 L 2.8125 -4 C 3.71875 -4 4.171875 -3.359375 4.171875 -2.078125 C 4.171875 -1.0625 3.796875 -0.171875 2.890625 -0.171875 C 2.109375 -0.171875 1.53125 -0.4375 1.1875 -0.953125 C 1.609375 -0.953125 1.921875 -1.265625 1.921875 -1.671875 C 1.921875 -2.078125 1.625 -2.375 1.21875 -2.375 C 0.75 -2.375 0.5 -2.140625 0.5 -1.640625 C 0.5 -1.0625 0.765625 -0.59375 1.296875 -0.21875 C 1.765625 0.109375 2.3125 0.265625 2.921875 0.265625 C 3.609375 0.265625 4.203125 0.03125 4.71875 -0.40625 C 5.234375 -0.859375 5.484375 -1.40625 5.484375 -2.078125 C 5.484375 -3.203125 4.59375 -3.984375 3.640625 -4.234375 Z M 3.640625 -4.234375 "/>
</g>
<g id="glyph-1-4">
<path d="M 4.234375 -8.125 C 4.125 -8.125 4.03125 -8.0625 3.953125 -7.953125 L 0.34375 -2.390625 L 0.34375 -1.953125 L 3.46875 -1.953125 L 3.46875 -0.96875 C 3.46875 -0.75 3.421875 -0.609375 3.34375 -0.546875 C 3.25 -0.484375 3.03125 -0.46875 2.625 -0.46875 L 2.328125 -0.46875 L 2.328125 0 C 2.671875 -0.03125 3.234375 -0.03125 3.96875 -0.03125 C 4.71875 -0.03125 5.265625 -0.03125 5.609375 0 L 5.609375 -0.46875 L 5.3125 -0.46875 C 4.921875 -0.46875 4.6875 -0.484375 4.609375 -0.546875 C 4.53125 -0.609375 4.46875 -0.75 4.46875 -0.96875 L 4.46875 -1.953125 L 5.65625 -1.953125 L 5.65625 -2.421875 L 4.46875 -2.421875 L 4.46875 -7.921875 C 4.46875 -8.046875 4.390625 -8.125 4.234375 -8.125 Z M 3.546875 -6.640625 L 3.546875 -2.421875 L 0.796875 -2.421875 Z M 3.546875 -6.640625 "/>
</g>
<g id="glyph-1-5">
<path d="M 2.984375 0.265625 C 4.6875 0.265625 5.515625 -1.109375 5.515625 -3.84375 C 5.515625 -5.671875 5.140625 -6.90625 4.375 -7.5 C 3.953125 -7.828125 3.484375 -7.984375 3 -7.984375 C 1.3125 -7.984375 0.46875 -6.609375 0.46875 -3.84375 C 0.46875 -1.625 1.0625 0.265625 2.984375 0.265625 Z M 4.328125 -6.28125 C 4.421875 -5.875 4.453125 -5.09375 4.453125 -3.984375 C 4.453125 -2.875 4.40625 -2.0625 4.3125 -1.53125 C 4.15625 -0.578125 3.71875 -0.09375 2.984375 -0.09375 C 2.71875 -0.09375 2.4375 -0.203125 2.1875 -0.40625 C 1.859375 -0.6875 1.671875 -1.25 1.578125 -2.109375 C 1.546875 -2.40625 1.53125 -3.03125 1.53125 -3.984375 C 1.53125 -5.03125 1.578125 -5.765625 1.625 -6.15625 C 1.734375 -6.8125 1.953125 -7.234375 2.296875 -7.421875 C 2.5625 -7.5625 2.78125 -7.625 2.984375 -7.625 C 3.765625 -7.625 4.203125 -7 4.328125 -6.28125 Z M 4.328125 -6.28125 "/>
</g>
<g id="glyph-1-6">
<path d="M 8.375 -3.234375 L 0.953125 -3.234375 C 0.765625 -3.234375 0.671875 -3.15625 0.671875 -3 C 0.671875 -2.84375 0.765625 -2.765625 0.953125 -2.765625 L 8.375 -2.765625 C 8.5625 -2.765625 8.65625 -2.84375 8.65625 -3 C 8.65625 -3.140625 8.515625 -3.234375 8.375 -3.234375 Z M 8.375 -3.234375 "/>
</g>
</g>
<clipPath id="clip-0">
<path clip-rule="nonzero" d="M 224 67 L 273.371094 67 L 273.371094 133 L 224 133 Z M 224 67 "/>
</clipPath>
</defs>
<path fill-rule="nonzero" fill="rgb(93.331909%, 90.979004%, 83.529663%)" fill-opacity="1" stroke-width="1.19553" stroke-linecap="butt" stroke-linejoin="miter" stroke="rgb(34.510803%, 43.136597%, 45.881653%)" stroke-opacity="1" stroke-miterlimit="10" d="M 15.653656 0.001 C 15.653656 8.645531 8.645844 15.653344 0.0013125 15.653344 C -8.643219 15.653344 -15.651031 8.645531 -15.651031 0.001 C -15.651031 -8.643531 -8.643219 -15.651344 0.0013125 -15.651344 C 8.645844 -15.651344 15.653656 -8.643531 15.653656 0.001 Z M 15.653656 0.001 " transform="matrix(1, 0, 0, -1, 188.319, 50.376)"/>
<g fill="rgb(82.699585%, 21.199036%, 50.999451%)" fill-opacity="1">
<use xlink:href="#glyph-0-0" x="178.734" y="55.206"/>
<use xlink:href="#glyph-0-1" x="190.404" y="55.206"/>
</g>
<path fill-rule="nonzero" fill="rgb(93.331909%, 90.979004%, 83.529663%)" fill-opacity="1" d="M 272.769531 100.363281 C 272.769531 91.714844 265.761719 84.707031 257.117188 84.707031 C 248.472656 84.707031 241.464844 91.714844 241.464844 100.363281 C 241.464844 109.007812 248.472656 116.015625 257.117188 116.015625 C 265.761719 116.015625 272.769531 109.007812 272.769531 100.363281 Z M 272.769531 100.363281 "/>
<g clip-path="url(#clip-0)">
<path fill="none" stroke-width="1.19553" stroke-linecap="butt" stroke-linejoin="miter" stroke="rgb(34.510803%, 43.136597%, 45.881653%)" stroke-opacity="1" stroke-miterlimit="10" d="M 84.450531 -49.987281 C 84.450531 -41.338844 77.442719 -34.331031 68.798187 -34.331031 C 60.153656 -34.331031 53.145844 -41.338844 53.145844 -49.987281 C 53.145844 -58.631813 60.153656 -65.639625 68.798187 -65.639625 C 77.442719 -65.639625 84.450531 -58.631813 84.450531 -49.987281 Z M 84.450531 -49.987281 " transform="matrix(1, 0, 0, -1, 188.319, 50.376)"/>
</g>
<g fill="rgb(82.699585%, 21.199036%, 50.999451%)" fill-opacity="1">
<use xlink:href="#glyph-0-0" x="247.533" y="105.191"/>
<use xlink:href="#glyph-0-2" x="259.203" y="105.191"/>
</g>
<path fill-rule="nonzero" fill="rgb(93.331909%, 90.979004%, 83.529663%)" fill-opacity="1" stroke-width="1.19553" stroke-linecap="butt" stroke-linejoin="miter" stroke="rgb(34.510803%, 43.136597%, 45.881653%)" stroke-opacity="1" stroke-miterlimit="10" d="M -53.147125 -49.987281 C -53.147125 -41.338844 -60.154938 -34.331031 -68.799469 -34.331031 C -77.444 -34.331031 -84.451813 -41.338844 -84.451813 -49.987281 C -84.451813 -58.631813 -77.444 -65.639625 -68.799469 -65.639625 C -60.154938 -65.639625 -53.147125 -58.631813 -53.147125 -49.987281 Z M -53.147125 -49.987281 " transform="matrix(1, 0, 0, -1, 188.319, 50.376)"/>
<g fill="rgb(82.699585%, 21.199036%, 50.999451%)" fill-opacity="1">
<use xlink:href="#glyph-0-0" x="109.934" y="105.439"/>
<use xlink:href="#glyph-0-3" x="121.604" y="105.439"/>
</g>
<path fill-rule="nonzero" fill="rgb(93.331909%, 90.979004%, 83.529663%)" fill-opacity="1" stroke-width="1.19553" stroke-linecap="butt" stroke-linejoin="miter" stroke="rgb(34.510803%, 43.136597%, 45.881653%)" stroke-opacity="1" stroke-miterlimit="10" d="M 56.692719 -130.866188 C 56.692719 -123.038063 50.348969 -116.690406 42.520844 -116.690406 C 34.692719 -116.690406 28.345062 -123.038063 28.345062 -130.866188 C 28.345062 -138.690406 34.692719 -145.038063 42.520844 -145.038063 C 50.348969 -145.038063 56.692719 -138.690406 56.692719 -130.866188 Z M 56.692719 -130.866188 " transform="matrix(1, 0, 0, -1, 188.319, 50.376)"/>
<g fill="rgb(82.699585%, 21.199036%, 50.999451%)" fill-opacity="1">
<use xlink:href="#glyph-0-4" x="227.089" y="186.07"/>
</g>
<path fill-rule="nonzero" fill="rgb(93.331909%, 90.979004%, 83.529663%)" fill-opacity="1" stroke-width="1.19553" stroke-linecap="butt" stroke-linejoin="miter" stroke="rgb(34.510803%, 43.136597%, 45.881653%)" stroke-opacity="1" stroke-miterlimit="10" d="M -26.940094 -130.866188 C -26.940094 -122.260719 -33.916656 -115.284156 -42.522125 -115.284156 C -51.123688 -115.284156 -58.10025 -122.260719 -58.10025 -130.866188 C -58.10025 -139.46775 -51.123688 -146.444313 -42.522125 -146.444313 C -33.916656 -146.444313 -26.940094 -139.46775 -26.940094 -130.866188 Z M -26.940094 -130.866188 " transform="matrix(1, 0, 0, -1, 188.319, 50.376)"/>
<g fill="rgb(82.699585%, 21.199036%, 50.999451%)" fill-opacity="1">
<use xlink:href="#glyph-0-0" x="136.214" y="186.235"/>
<use xlink:href="#glyph-0-5" x="147.884" y="186.235"/>
</g>
<path fill-rule="nonzero" fill="rgb(93.331909%, 90.979004%, 83.529663%)" fill-opacity="1" stroke-width="1.19553" stroke-linecap="butt" stroke-linejoin="miter" stroke="rgb(34.510803%, 43.136597%, 45.881653%)" stroke-opacity="1" stroke-miterlimit="10" d="M -139.666656 -49.987281 C -139.666656 -42.159156 -146.010406 -35.8115 -153.838531 -35.8115 C -161.666656 -35.8115 -168.014313 -42.159156 -168.014313 -49.987281 C -168.014313 -57.8115 -161.666656 -64.159156 -153.838531 -64.159156 C -146.010406 -64.159156 -139.666656 -57.8115 -139.666656 -49.987281 Z M -139.666656 -49.987281 " transform="matrix(1, 0, 0, -1, 188.319, 50.376)"/>
<g fill="rgb(82.699585%, 21.199036%, 50.999451%)" fill-opacity="1">
<use xlink:href="#glyph-0-4" x="30.729" y="105.191"/>
</g>
<g fill="rgb(82.699585%, 21.199036%, 50.999451%)" fill-opacity="1">
<use xlink:href="#glyph-0-6" x="204.11" y="51.838"/>
</g>
<g fill="rgb(82.699585%, 21.199036%, 50.999451%)" fill-opacity="1">
<use xlink:href="#glyph-1-0" x="211.385" y="55.544"/>
</g>
<g fill="rgb(82.699585%, 21.199036%, 50.999451%)" fill-opacity="1">
<use xlink:href="#glyph-0-6" x="112.633" y="79.014"/>
</g>
<g fill="rgb(82.699585%, 21.199036%, 50.999451%)" fill-opacity="1">
<use xlink:href="#glyph-1-1" x="119.908" y="82.72"/>
</g>
<g fill="rgb(82.699585%, 21.199036%, 50.999451%)" fill-opacity="1">
<use xlink:href="#glyph-0-6" x="250.232" y="125.919"/>
</g>
<g fill="rgb(82.699585%, 21.199036%, 50.999451%)" fill-opacity="1">
<use xlink:href="#glyph-1-2" x="257.507" y="129.625"/>
</g>
<g fill="rgb(82.699585%, 21.199036%, 50.999451%)" fill-opacity="1">
<use xlink:href="#glyph-0-6" x="248.048" y="182.571"/>
</g>
<g fill="rgb(82.699585%, 21.199036%, 50.999451%)" fill-opacity="1">
<use xlink:href="#glyph-1-3" x="255.323" y="186.277"/>
</g>
<g fill="rgb(82.699585%, 21.199036%, 50.999451%)" fill-opacity="1">
<use xlink:href="#glyph-0-6" x="138.912" y="206.798"/>
</g>
<g fill="rgb(82.699585%, 21.199036%, 50.999451%)" fill-opacity="1">
<use xlink:href="#glyph-1-4" x="146.187" y="210.504"/>
</g>
<g fill="rgb(82.699585%, 21.199036%, 50.999451%)" fill-opacity="1">
<use xlink:href="#glyph-0-6" x="3.497" y="101.692"/>
</g>
<g fill="rgb(82.699585%, 21.199036%, 50.999451%)" fill-opacity="1">
<use xlink:href="#glyph-1-5" x="10.772" y="105.398"/>
</g>
<path fill="none" stroke-width="1.19553" stroke-linecap="butt" stroke-linejoin="miter" stroke="rgb(34.498596%, 43.099976%, 45.899963%)" stroke-opacity="1" stroke-miterlimit="10" d="M 55.653656 -40.432594 L 17.317719 -12.581031 " transform="matrix(1, 0, 0, -1, 188.319, 50.376)"/>
<path fill-rule="nonzero" fill="rgb(34.498596%, 43.099976%, 45.899963%)" fill-opacity="1" stroke-width="1.19553" stroke-linecap="butt" stroke-linejoin="miter" stroke="rgb(34.498596%, 43.099976%, 45.899963%)" stroke-opacity="1" stroke-miterlimit="10" d="M 6.664921 0.000961974 L 1.929094 1.79424 L 3.512954 -0.000359645 L 1.930774 -1.796849 Z M 6.664921 0.000961974 " transform="matrix(-0.80902, -0.58777, -0.58777, 0.80902, 208.23637, 64.84635)"/>
<g fill="rgb(82.699585%, 21.199036%, 50.999451%)" fill-opacity="1">
<use xlink:href="#glyph-1-5" x="227.547" y="76.144"/>
</g>
<path fill="none" stroke-width="1.59404" stroke-linecap="butt" stroke-linejoin="miter" stroke="rgb(14.898682%, 54.499817%, 82.398987%)" stroke-opacity="1" stroke-miterlimit="10" d="M -55.651031 -40.432594 L -18.166656 -13.198219 " transform="matrix(1, 0, 0, -1, 188.319, 50.376)"/>
<path fill-rule="nonzero" fill="rgb(14.898682%, 54.499817%, 82.398987%)" fill-opacity="1" stroke-width="1.59404" stroke-linecap="butt" stroke-linejoin="miter" stroke="rgb(14.898682%, 54.499817%, 82.398987%)" stroke-opacity="1" stroke-miterlimit="10" d="M 7.892323 -0.000221787 L 2.571901 2.020738 L 4.357526 -0.000811638 L 2.571591 -2.020385 Z M 7.892323 -0.000221787 " transform="matrix(0.80902, -0.58777, -0.58777, -0.80902, 166.95076, 65.90041)"/>
<g fill="rgb(82.699585%, 21.199036%, 50.999451%)" fill-opacity="1">
<use xlink:href="#glyph-1-6" x="133.556" y="76.276"/>
<use xlink:href="#glyph-1-0" x="142.892" y="76.276"/>
</g>
<path fill="none" stroke-width="1.59404" stroke-linecap="butt" stroke-linejoin="miter" stroke="rgb(14.898682%, 54.499817%, 82.398987%)" stroke-opacity="1" stroke-miterlimit="10" d="M -52.549469 -49.987281 L 46.345062 -49.987281 " transform="matrix(1, 0, 0, -1, 188.319, 50.376)"/>
<path fill-rule="nonzero" fill="rgb(14.898682%, 54.499817%, 82.398987%)" fill-opacity="1" stroke-width="1.59404" stroke-linecap="butt" stroke-linejoin="miter" stroke="rgb(14.898682%, 54.499817%, 82.398987%)" stroke-opacity="1" stroke-miterlimit="10" d="M 7.891676 -0.00191125 L 2.57527 2.021526 L 4.35652 -0.00191125 L 2.57527 -2.021443 Z M 7.891676 -0.00191125 " transform="matrix(1, 0, 0, -1, 230.70598, 100.36137)"/>
<g fill="rgb(82.699585%, 21.199036%, 50.999451%)" fill-opacity="1">
<use xlink:href="#glyph-1-0" x="185.319" y="94.072"/>
</g>
<path fill="none" stroke-width="1.19553" stroke-linecap="butt" stroke-linejoin="miter" stroke="rgb(34.498596%, 43.099976%, 45.899963%)" stroke-opacity="1" stroke-miterlimit="10" d="M -5.022125 -15.456031 L -35.928375 -110.573219 " transform="matrix(1, 0, 0, -1, 188.319, 50.376)"/>
<path fill-rule="nonzero" fill="rgb(34.498596%, 43.099976%, 45.899963%)" fill-opacity="1" stroke-width="1.19553" stroke-linecap="butt" stroke-linejoin="miter" stroke="rgb(34.498596%, 43.099976%, 45.899963%)" stroke-opacity="1" stroke-miterlimit="10" d="M 6.665119 -0.0000205113 L 1.928997 1.796324 L 3.510139 0.00173929 L 1.930078 -1.797215 Z M 6.665119 -0.0000205113 " transform="matrix(-0.309, 0.95105, 0.95105, 0.309, 153.38376, 157.89552)"/>
<g fill="rgb(82.699585%, 21.199036%, 50.999451%)" fill-opacity="1">
<use xlink:href="#glyph-1-4" x="171.145" y="119.905"/>
</g>
<path fill="none" stroke-width="1.19553" stroke-linecap="butt" stroke-linejoin="miter" stroke="rgb(34.498596%, 43.099976%, 45.899963%)" stroke-opacity="1" stroke-miterlimit="10" d="M 5.020844 -15.456031 L 36.360687 -111.913063 " transform="matrix(1, 0, 0, -1, 188.319, 50.376)"/>
<path fill-rule="nonzero" fill="rgb(34.498596%, 43.099976%, 45.899963%)" fill-opacity="1" stroke-width="1.19553" stroke-linecap="butt" stroke-linejoin="miter" stroke="rgb(34.498596%, 43.099976%, 45.899963%)" stroke-opacity="1" stroke-miterlimit="10" d="M 6.667652 0.000846981 L 1.931404 1.794326 L 3.508957 0.000294234 L 1.93153 -1.795497 Z M 6.667652 0.000846981 " transform="matrix(0.309, 0.95105, 0.95105, -0.309, 223.68889, 159.23321)"/>
<g fill="rgb(82.699585%, 21.199036%, 50.999451%)" fill-opacity="1">
<use xlink:href="#glyph-1-1" x="213.905" y="120.376"/>
</g>
<path fill="none" stroke-width="1.19553" stroke-linecap="butt" stroke-linejoin="miter" stroke="rgb(34.498596%, 43.099976%, 45.899963%)" stroke-opacity="1" stroke-miterlimit="10" d="M 30.571625 -122.182594 L -51.479156 -62.569313 " transform="matrix(1, 0, 0, -1, 188.319, 50.376)"/>
<path fill-rule="nonzero" fill="rgb(34.498596%, 43.099976%, 45.899963%)" fill-opacity="1" stroke-width="1.19553" stroke-linecap="butt" stroke-linejoin="miter" stroke="rgb(34.498596%, 43.099976%, 45.899963%)" stroke-opacity="1" stroke-miterlimit="10" d="M 6.666562 0.00054908 L 1.93065 1.793752 L 3.509106 0.0000290628 L 1.930106 -1.794214 Z M 6.666562 0.00054908 " transform="matrix(-0.809, -0.58778, -0.58778, 0.809, 139.43654, 114.83209)"/>
<g fill="rgb(82.699585%, 21.199036%, 50.999451%)" fill-opacity="1">
<use xlink:href="#glyph-1-6" x="184.857" y="145.1"/>
<use xlink:href="#glyph-1-3" x="194.193" y="145.1"/>
</g>
<path fill="none" stroke-width="1.59404" stroke-linecap="butt" stroke-linejoin="miter" stroke="rgb(14.898682%, 54.499817%, 82.398987%)" stroke-opacity="1" stroke-miterlimit="10" d="M 27.747406 -130.866188 L -20.139313 -130.866188 " transform="matrix(1, 0, 0, -1, 188.319, 50.376)"/>
<path fill-rule="nonzero" fill="rgb(14.898682%, 54.499817%, 82.398987%)" fill-opacity="1" stroke-width="1.59404" stroke-linecap="butt" stroke-linejoin="miter" stroke="rgb(14.898682%, 54.499817%, 82.398987%)" stroke-opacity="1" stroke-miterlimit="10" d="M 7.892456 0.0018375 L 2.572144 2.021369 L 4.3573 0.0018375 L 2.572144 -2.0216 Z M 7.892456 0.0018375 " transform="matrix(-1, 0, 0, 1, 172.13855, 181.24035)"/>
<g fill="rgb(82.699585%, 21.199036%, 50.999451%)" fill-opacity="1">
<use xlink:href="#glyph-1-6" x="181.354" y="174.951"/>
<use xlink:href="#glyph-1-0" x="190.69" y="174.951"/>
</g>
<path fill="none" stroke-width="1.59404" stroke-linecap="butt" stroke-linejoin="miter" stroke="rgb(14.898682%, 54.499817%, 82.398987%)" stroke-opacity="1" stroke-miterlimit="10" d="M -47.518219 -115.479469 L -61.861969 -71.338844 " transform="matrix(1, 0, 0, -1, 188.319, 50.376)"/>
<path fill-rule="nonzero" fill="rgb(14.898682%, 54.499817%, 82.398987%)" fill-opacity="1" stroke-width="1.59404" stroke-linecap="butt" stroke-linejoin="miter" stroke="rgb(14.898682%, 54.499817%, 82.398987%)" stroke-opacity="1" stroke-miterlimit="10" d="M 7.890852 0.000672011 L 2.574763 2.019509 L 4.357869 -0.0014921 L 2.572142 -2.021224 Z M 7.890852 0.000672011 " transform="matrix(-0.309, -0.95105, -0.95105, 0.309, 127.6811, 125.48095)"/>
<g fill="rgb(82.699585%, 21.199036%, 50.999451%)" fill-opacity="1">
<use xlink:href="#glyph-1-6" x="111.045" y="144.7"/>
<use xlink:href="#glyph-1-3" x="120.381" y="144.7"/>
</g>
<path fill="none" stroke-width="1.19553" stroke-linecap="butt" stroke-linejoin="miter" stroke="rgb(34.498596%, 43.099976%, 45.899963%)" stroke-opacity="1" stroke-miterlimit="10" d="M -139.069 -49.987281 L -90.205719 -49.987281 " transform="matrix(1, 0, 0, -1, 188.319, 50.376)"/>
<path fill-rule="nonzero" fill="rgb(34.498596%, 43.099976%, 45.899963%)" fill-opacity="1" stroke-width="1.19553" stroke-linecap="butt" stroke-linejoin="miter" stroke="rgb(34.498596%, 43.099976%, 45.899963%)" stroke-opacity="1" stroke-miterlimit="10" d="M 6.666026 -0.00191125 L 1.931651 1.794964 L 3.509776 -0.00191125 L 1.931651 -1.79488 Z M 6.666026 -0.00191125 " transform="matrix(1, 0, 0, -1, 94.90038, 100.36137)"/>
<g fill="rgb(82.699585%, 21.199036%, 50.999451%)" fill-opacity="1">
<use xlink:href="#glyph-1-5" x="73.26" y="96"/>
</g>
<path fill="none" stroke-width="1.19553" stroke-linecap="butt" stroke-linejoin="miter" stroke="rgb(34.498596%, 43.099976%, 45.899963%)" stroke-opacity="1" stroke-miterlimit="10" d="M -148.78775 -63.866188 C -133.971344 -104.573219 -101.111969 -120.534156 -63.529938 -127.159156 " transform="matrix(1, 0, 0, -1, 188.319, 50.376)"/>
<path fill-rule="nonzero" fill="rgb(34.498596%, 43.099976%, 45.899963%)" fill-opacity="1" stroke-width="1.19553" stroke-linecap="butt" stroke-linejoin="miter" stroke="rgb(34.498596%, 43.099976%, 45.899963%)" stroke-opacity="1" stroke-miterlimit="10" d="M 6.667432 -0.000693144 L 1.932236 1.794262 L 3.510297 -0.00201145 L 1.930545 -1.795756 Z M 6.667432 -0.000693144 " transform="matrix(0.9848, 0.17363, 0.17363, -0.9848, 121.62544, 176.97837)"/>
<g fill="rgb(82.699585%, 21.199036%, 50.999451%)" fill-opacity="1">
<use xlink:href="#glyph-1-5" x="73.999" y="155.25"/>
</g>
<path fill="none" stroke-width="1.19553" stroke-linecap="butt" stroke-linejoin="miter" stroke="rgb(34.498596%, 43.099976%, 45.899963%)" stroke-opacity="1" stroke-miterlimit="10" d="M -151.276031 -35.440406 C -136.5065 48.325219 51.208344 49.778344 65.083344 -28.90525 " transform="matrix(1, 0, 0, -1, 188.319, 50.376)"/>
<path fill-rule="nonzero" fill="rgb(34.498596%, 43.099976%, 45.899963%)" fill-opacity="1" stroke-width="1.19553" stroke-linecap="butt" stroke-linejoin="miter" stroke="rgb(34.498596%, 43.099976%, 45.899963%)" stroke-opacity="1" stroke-miterlimit="10" d="M 6.664415 -0.00104824 L 1.932053 1.797184 L 3.511127 -0.000408187 L 1.929219 -1.796003 Z M 6.664415 -0.00104824 " transform="matrix(0.17363, 0.9848, 0.9848, -0.17363, 252.84389, 76.11639)"/>
<g fill="rgb(82.699585%, 21.199036%, 50.999451%)" fill-opacity="1">
<use xlink:href="#glyph-1-5" x="116.519" y="36.193"/>
</g>
<path fill="none" stroke-width="1.59404" stroke-linecap="butt" stroke-linejoin="miter" stroke="rgb(14.898682%, 54.499817%, 82.398987%)" stroke-opacity="1" stroke-miterlimit="10" d="M -153.838531 -64.756813 C -153.838531 -143.006813 -28.736969 -190.659156 26.454437 -144.346656 " transform="matrix(1, 0, 0, -1, 188.319, 50.376)"/>
<path fill-rule="nonzero" fill="rgb(14.898682%, 54.499817%, 82.398987%)" fill-opacity="1" stroke-width="1.59404" stroke-linecap="butt" stroke-linejoin="miter" stroke="rgb(14.898682%, 54.499817%, 82.398987%)" stroke-opacity="1" stroke-miterlimit="10" d="M 7.89112 -0.000868737 L 2.573796 2.01849 L 4.358472 0.000723046 L 2.574969 -2.021333 Z M 7.89112 -0.000868737 " transform="matrix(0.766, -0.64279, -0.64279, -0.766, 211.74, 197.26698)"/>
<g fill="rgb(82.699585%, 21.199036%, 50.999451%)" fill-opacity="1">
<use xlink:href="#glyph-1-5" x="108.015" y="199.47"/>
</g>
<path fill="none" stroke-width="1.19553" stroke-linecap="butt" stroke-linejoin="miter" stroke="rgb(34.498596%, 43.099976%, 45.899963%)" stroke-opacity="1" stroke-miterlimit="10" d="M -142.526031 -40.491188 C -102.791656 -7.151344 -68.115875 0.001 -21.408844 0.001 " transform="matrix(1, 0, 0, -1, 188.319, 50.376)"/>
<path fill-rule="nonzero" fill="rgb(34.498596%, 43.099976%, 45.899963%)" fill-opacity="1" stroke-width="1.19553" stroke-linecap="butt" stroke-linejoin="miter" stroke="rgb(34.498596%, 43.099976%, 45.899963%)" stroke-opacity="1" stroke-miterlimit="10" d="M 6.667327 0.001 L 1.929046 1.793969 L 3.511077 0.001 L 1.929046 -1.795875 Z M 6.667327 0.001 " transform="matrix(1, 0, 0, -1, 163.69986, 50.376)"/>
<g fill="rgb(82.699585%, 21.199036%, 50.999451%)" fill-opacity="1">
<use xlink:href="#glyph-1-5" x="99.512" y="70.21"/>
</g>
</svg>
