<?xml version="1.0" encoding="UTF-8" standalone="no"?>
<!-- Created with Inkscape (http://www.inkscape.org/) -->

<svg
   version="1.1"
   id="svg1"
   width="315.29877"
   height="250.84081"
   viewBox="0 0 315.29876 250.84081"
   sodipodi:docname="sssp-loop.svg"
   inkscape:version="1.4.2 (ebf0e940d0, 2025-05-08)"
   xmlns:inkscape="http://www.inkscape.org/namespaces/inkscape"
   xmlns:sodipodi="http://sodipodi.sourceforge.net/DTD/sodipodi-0.dtd"
   xmlns="http://www.w3.org/2000/svg"
   xmlns:svg="http://www.w3.org/2000/svg">
  <defs
     id="defs1" />
  <sodipodi:namedview
     id="namedview1"
     pagecolor="#ffffff"
     bordercolor="#666666"
     borderopacity="1.0"
     inkscape:showpageshadow="2"
     inkscape:pageopacity="0.0"
     inkscape:pagecheckerboard="0"
     inkscape:deskcolor="#d1d1d1"
     inkscape:zoom="2.500924"
     inkscape:cx="495.21698"
     inkscape:cy="354.86885"
     inkscape:window-width="3840"
     inkscape:window-height="2346"
     inkscape:window-x="0"
     inkscape:window-y="54"
     inkscape:window-maximized="1"
     inkscape:current-layer="g1">
    <inkscape:page
       x="0"
       y="0"
       inkscape:label="1"
       id="page1"
       width="315.29877"
       height="250.84081"
       margin="0"
       bleed="0" />
  </sodipodi:namedview>
  <g
     id="g1"
     inkscape:groupmode="layer"
     inkscape:label="1"
     transform="translate(-65.793969,-41.855468)">
    <g
       id="g54">
      <path
         id="path2"
         d="M 11.33876,0 C 11.33876,6.2623 6.2623,11.33876 0,11.33876 -6.2623,11.33876 -11.33876,6.2623 -11.33876,0 c 0,-6.2623 5.07646,-11.33876 11.33876,-11.33876 6.2623,0 11.33876,5.07646 11.33876,11.33876 z"
         style="fill:none;stroke:#586e75;stroke-width:1.19553;stroke-linecap:butt;stroke-linejoin:miter;stroke-miterlimit:10;stroke-dasharray:none;stroke-opacity:1"
         transform="matrix(1.3333333,0,0,-1.3333333,176.19867,159.63067)" />
      <path
         id="path3"
         d="m 5.8596563,-5.6355937 c -0.28125,0 -0.4101563,0 -0.6210938,0.1757812 C 5.1448125,-5.3895 4.98075,-5.155125 4.98075,-4.92075 c 0,0.3046875 0.2226563,0.4804688 0.5039063,0.4804688 0.3632812,0 0.7734375,-0.2929688 0.7734375,-0.9023438 0,-0.7148437 -0.6914063,-1.265625 -1.7226563,-1.265625 -1.96875,0 -3.9375,2.1445313 -3.9375,4.265625 0,1.3125 0.8085938,2.49609375 2.34375,2.49609375 2.0390625,0 3.328125,-1.59374995 3.328125,-1.79296875 0,-0.082031 -0.09375,-0.1640625 -0.1523437,-0.1640625 -0.046875,0 -0.058594,0.023437 -0.1875,0.1523438 -0.9609375,1.2773437 -2.390625,1.49999995 -2.9648438,1.49999995 -1.03125,0 -1.359375,-0.90234375 -1.359375,-1.65234375 0,-0.515625 0.2578125,-1.9804687 0.796875,-3 0.3867188,-0.703125 1.1953125,-1.5117187 2.1445313,-1.5117187 0.1875,0 1.0195312,0.035156 1.3125,0.6796875 z m 0,0"
         style="fill:#d33682;fill-opacity:1;fill-rule:nonzero;stroke:none"
         aria-label="c"
         transform="matrix(1.3333333,0,0,1.3333333,171.984,163.936)" />
      <path
         id="path4"
         d="m 82.24077,0 c 0,6.28162 -5.09213,11.37375 -11.37377,11.37375 -6.28161,0 -11.37374,-5.09213 -11.37374,-11.37375 0,-6.28162 5.09213,-11.37375 11.37374,-11.37375 6.28164,0 11.37377,5.09213 11.37377,11.37375 z"
         style="fill:none;stroke:#586e75;stroke-width:1.19553;stroke-linecap:butt;stroke-linejoin:miter;stroke-miterlimit:10;stroke-dasharray:none;stroke-opacity:1"
         transform="matrix(1.3333333,0,0,-1.3333333,176.19867,159.63067)" />
      <path
         id="path5"
         d="m 7.5480469,-10.031586 c 0.011719,-0.05859 0.046875,-0.152344 0.046875,-0.234375 0,-0.140625 -0.1523438,-0.140625 -0.1875,-0.140625 -0.011719,0 -0.75,0.05859 -0.8203125,0.07031 -0.2578125,0.01172 -0.4804688,0.04687 -0.75,0.05859 -0.375,0.03516 -0.4804688,0.04687 -0.4804688,0.3164066 0,0.1523437 0.1171875,0.1523437 0.328125,0.1523437 0.7382813,0 0.75,0.1289063 0.75,0.28125 0,0.09375 -0.023437,0.2109375 -0.046875,0.2578125 l -0.9140625,3.6445313 c -0.1640625,-0.3867188 -0.5625,-0.984375 -1.3476562,-0.984375 -1.6992188,0 -3.52734378,2.1796875 -3.52734378,4.40625 0,1.48828121 0.86718748,2.35546871 1.88671878,2.35546871 0.8320312,0 1.5351562,-0.64453125 1.9570312,-1.13671875 0.1523438,0.87890625 0.8554688,1.13671875 1.3007813,1.13671875 0.4570312,0 0.8085937,-0.26953125 1.078125,-0.80859375 0.2460937,-0.51562496 0.4570312,-1.42968746 0.4570312,-1.48828126 0,-0.070312 -0.058594,-0.140625 -0.1523437,-0.140625 -0.140625,0 -0.1523438,0.082031 -0.2109375,0.3046875 -0.2226563,0.890625 -0.5039063,1.82812501 -1.125,1.82812501 -0.4335938,0 -0.46875,-0.38671875 -0.46875,-0.69140625 0,-0.0585938 0,-0.37499996 0.1054687,-0.79687496 z m -3.0351563,8.2500001 c -0.070312,0.2460937 -0.070312,0.28125 -0.28125,0.5625 -0.328125,0.42187496 -0.9960937,1.06640621 -1.6992187,1.06640621 -0.609375,0 -0.9609375,-0.55078125 -0.9609375,-1.44140621 0,-0.8203125 0.46875,-2.4960938 0.75,-3.1289063 0.515625,-1.0546875 1.21875,-1.59375 1.8046875,-1.59375 0.984375,0 1.1835937,1.2304688 1.1835937,1.3476563 0,0.023437 -0.046875,0.2109375 -0.058594,0.2460937 z m 0,0"
         style="fill:#d33682;fill-opacity:1;fill-rule:nonzero;stroke:none"
         aria-label="d"
         transform="matrix(1.3333333,0,0,1.3333333,265.6,166.57467)" />
      <path
         id="path6"
         d="m 11.33876,70.867 c 0,6.26232 -5.07646,11.33876 -11.33876,11.33876 -6.2623,0 -11.33876,-5.07644 -11.33876,-11.33876 0,-6.2623 5.07646,-11.33876 11.33876,-11.33876 6.2623,0 11.33876,5.07646 11.33876,11.33876 z"
         style="fill:none;stroke:#586e75;stroke-width:1.19553;stroke-linecap:butt;stroke-linejoin:miter;stroke-miterlimit:10;stroke-dasharray:none;stroke-opacity:1"
         transform="matrix(1.3333333,0,0,-1.3333333,176.19867,159.63067)" />
      <path
         id="path7"
         d="m 4.5116641,-1.7822656 c -0.070312,0.2460937 -0.070312,0.28125 -0.28125,0.5625 -0.328125,0.42187498 -0.9960938,1.06640623 -1.6992188,1.06640623 -0.609375,0 -0.9609375,-0.55078125 -0.9609375,-1.44140623 0,-0.8203125 0.46875,-2.4960938 0.75,-3.1289063 0.515625,-1.0546875 1.21875,-1.59375 1.8046875,-1.59375 0.984375,0 1.1835938,1.2304688 1.1835938,1.3476563 0,0.023437 -0.046875,0.2109375 -0.058594,0.2460937 z m 0.9609375,-3.84375 c -0.1640625,-0.3867188 -0.5625,-0.984375 -1.3476563,-0.984375 -1.6992187,0 -3.52734374,2.1796875 -3.52734374,4.40625 0,1.48828123 0.86718754,2.35546873 1.88671874,2.35546873 0.8320313,0 1.5351563,-0.64453125 1.9570313,-1.13671875 0.1523437,0.87890625 0.8554687,1.13671875 1.3007812,1.13671875 0.4570313,0 0.8085938,-0.26953125 1.078125,-0.80859375 0.2460938,-0.51562498 0.4570313,-1.42968748 0.4570313,-1.48828128 0,-0.070312 -0.058594,-0.140625 -0.1523438,-0.140625 -0.140625,0 -0.1523437,0.082031 -0.2109375,0.3046875 -0.2226562,0.890625 -0.5039062,1.82812503 -1.125,1.82812503 -0.4335937,0 -0.46875,-0.38671875 -0.46875,-0.69140625 0,-0.33984378 0.046875,-0.50390628 0.1875,-1.08984378 0.1054688,-0.375 0.1757813,-0.703125 0.2929688,-1.1367187 0.5625,-2.25 0.6914062,-2.7890625 0.6914062,-2.8828125 0,-0.2109375 -0.1640625,-0.375 -0.3867187,-0.375 -0.4804688,0 -0.5976563,0.5273437 -0.6328125,0.703125 z m 0,0"
         style="fill:#d33682;fill-opacity:1;fill-rule:nonzero;stroke:none"
         aria-label="a"
         transform="matrix(1.3333333,0,0,1.3333333,171.05867,69.446667)" />
      <path
         id="path8"
         d="m 11.33876,-70.867 c 0,6.2623 -5.07646,11.33876 -11.33876,11.33876 -6.2623,0 -11.33876,-5.07646 -11.33876,-11.33876 0,-6.26232 5.07646,-11.33876 11.33876,-11.33876 6.2623,0 11.33876,5.07644 11.33876,11.33876 z"
         style="fill:none;stroke:#586e75;stroke-width:1.19553;stroke-linecap:butt;stroke-linejoin:miter;stroke-miterlimit:10;stroke-dasharray:none;stroke-opacity:1"
         transform="matrix(1.3333333,0,0,-1.3333333,176.19867,159.63067)" />
      <path
         id="path9"
         d="m 2.6837109,-3.4801328 c 0.4101563,0 1.4296875,-0.035156 2.1445313,-0.3046875 1.1367187,-0.4335938 1.2421875,-1.3007813 1.2421875,-1.5703125 0,-0.65625 -0.5625,-1.2539063 -1.5585938,-1.2539063 -1.5703125,0 -3.83203121,1.4179688 -3.83203121,4.0898438 0,1.57031249 0.89062501,2.67187499 2.26171871,2.67187499 2.0390625,0 3.328125,-1.59374999 3.328125,-1.79296879 0,-0.082031 -0.09375,-0.1640625 -0.1523437,-0.1640625 -0.046875,0 -0.058594,0.023437 -0.1875,0.1523438 -0.9609375,1.27734374 -2.390625,1.49999999 -2.9648438,1.49999999 -0.8554687,0 -1.3007812,-0.66796875 -1.3007812,-1.78124999 0,-0.2109375 0,-0.5859375 0.2226562,-1.546875 z M 1.9688672,-3.7848203 c 0.6445312,-2.3085938 2.0625,-2.53125 2.5429687,-2.53125 0.6679688,0 1.1132813,0.3867187 1.1132813,0.9609375 0,1.5703125 -2.4023438,1.5703125 -3.0351563,1.5703125 z m 0,0"
         style="fill:#d33682;fill-opacity:1;fill-rule:nonzero;stroke:none"
         aria-label="e"
         transform="matrix(1.3333333,0,0,1.3333333,171.66,258.42533)" />
      <path
         id="path10"
         d="m 83.75099,-70.867 c 0,7.1157 -5.76826,12.88397 -12.88399,12.88397 -7.1157,0 -12.88397,-5.76827 -12.88397,-12.88397 0,-7.11573 5.76827,-12.88399 12.88397,-12.88399 7.11573,0 12.88399,5.76826 12.88399,12.88399 z"
         style="fill:none;stroke:#586e75;stroke-width:1.19553;stroke-linecap:butt;stroke-linejoin:miter;stroke-miterlimit:10;stroke-dasharray:none;stroke-opacity:1"
         transform="matrix(1.3333333,0,0,-1.3333333,176.19867,159.63067)" />
      <path
         id="path11"
         d="m 6.6911328,-6.0343359 c 0.2929688,0 0.421875,0 0.421875,-0.28125 0,-0.1523438 -0.1289062,-0.1523438 -0.3984375,-0.1523438 H 5.5075391 c 0.28125,-1.546875 0.4921875,-2.6015625 0.609375,-3.0820312 0.09375,-0.3632813 0.4101562,-0.7148441 0.796875,-0.7148441 0.3164062,0 0.6328125,0.140625 0.7851562,0.2812503 -0.5859375,0.058594 -0.7734375,0.4921875 -0.7734375,0.75 0,0.2929688 0.234375,0.46875 0.515625,0.46875 0.2929688,0 0.75,-0.2460937 0.75,-0.8203125 0,-0.6328128 -0.6328125,-0.9726558 -1.2890625,-0.9726558 -0.6445312,0 -1.2773437,0.480468 -1.5820312,1.0664058 -0.2695313,0.5273438 -0.4101563,1.0664063 -0.7617188,3.0234375 H 3.5505078 c -0.28125,0 -0.4335937,0 -0.4335937,0.2695313 0,0.1640625 0.09375,0.1640625 0.3984375,0.1640625 H 4.4645703 C 4.1950391,-4.6398047 3.5856641,-1.2413672 3.2341016,0.36410156 2.9880078,1.6648828 2.7653516,2.7664453 2.0153516,2.7664453 c -0.046875,0 -0.4804688,0 -0.75,-0.2929687 0.7617187,-0.058594 0.7617187,-0.7148438 0.7617187,-0.7382813 0,-0.2929687 -0.2226562,-0.46875 -0.515625,-0.46875 -0.2929687,0 -0.74999999,0.2460938 -0.74999999,0.8203125 0,0.6445313 0.66796879,0.9726563 1.25390629,0.9726563 1.5234375,0 2.15625,-2.74218754 2.3203125,-3.49218754 0.2695312,-1.16015626 1.0078125,-5.14453126 1.078125,-5.60156246 z m 0,0"
         style="fill:#d33682;fill-opacity:1;fill-rule:nonzero;stroke:none"
         aria-label="f"
         transform="matrix(1.3333333,0,0,1.3333333,264.79333,259.12)" />
      <path
         id="path12"
         d="m 82.20576,70.867 c 0,6.26232 -5.07644,11.33876 -11.33876,11.33876 -6.2623,0 -11.33876,-5.07644 -11.33876,-11.33876 0,-6.2623 5.07646,-11.33876 11.33876,-11.33876 6.26232,0 11.33876,5.07646 11.33876,11.33876 z"
         style="fill:none;stroke:#586e75;stroke-width:1.19553;stroke-linecap:butt;stroke-linejoin:miter;stroke-miterlimit:10;stroke-dasharray:none;stroke-opacity:1"
         transform="matrix(1.3333333,0,0,-1.3333333,176.19867,159.63067)" />
      <path
         id="path13"
         d="m 3.4673281,-10.030797 c 0.011719,-0.05859 0.046875,-0.152344 0.046875,-0.234375 0,-0.140625 -0.1523437,-0.140625 -0.1875,-0.140625 -0.011719,0 -0.5507812,0.04687 -0.8203125,0.07031 -0.2578125,0.01172 -0.4804687,0.04687 -0.75,0.05859 -0.3632812,0.03516 -0.46875,0.04687 -0.46875,0.3164066 0,0.1523438 0.1523438,0.1523438 0.3046875,0.1523438 0.7617188,0 0.7617188,0.1289062 0.7617188,0.28125 0,0.1054687 -0.1171875,0.5390625 -0.1757813,0.8085937 l -0.3632812,1.4414063 c -0.1523438,0.5976562 -1.00781253,4.0078125 -1.06640628,4.2773437 -0.0703125,0.375 -0.0703125,0.6328125 -0.0703125,0.8203125 0,1.53515628 0.85546878,2.33203128 1.82812498,2.33203128 1.734375,0 3.5390625,-2.23828128 3.5390625,-4.41796878 0,-1.3710937 -0.7851562,-2.34375 -1.9101562,-2.34375 -0.7734375,0 -1.4765625,0.6445313 -1.7695313,0.9375 z m -0.9492187,9.87890638 c -0.4804688,0 -1.0078125,-0.36328125 -1.0078125,-1.52343748 0,-0.5039063 0.046875,-0.7851563 0.3164062,-1.8398438 0.046875,-0.1875 0.28125,-1.1484375 0.3515625,-1.3476562 0.023437,-0.1171875 0.9140625,-1.453125 1.9335938,-1.453125 0.65625,0 0.9609375,0.65625 0.9609375,1.4414062 0,0.7148438 -0.421875,2.4140625 -0.796875,3.1992188 -0.375,0.80859373 -1.0664063,1.52343748 -1.7578125,1.52343748 z m 0,0"
         style="fill:#d33682;fill-opacity:1;fill-rule:nonzero;stroke:none"
         aria-label="b"
         transform="matrix(1.3333333,0,0,1.3333333,266.52533,72.085333)" />
      <path
         id="path14"
         d="m -59.52824,0 c 0,6.2623 -5.07646,11.33876 -11.33876,11.33876 -6.26232,0 -11.33876,-5.07646 -11.33876,-11.33876 0,-6.2623 5.07644,-11.33876 11.33876,-11.33876 6.2623,0 11.33876,5.07646 11.33876,11.33876 z"
         style="fill:none;stroke:#586e75;stroke-width:1.19553;stroke-linecap:butt;stroke-linejoin:miter;stroke-miterlimit:10;stroke-dasharray:none;stroke-opacity:1"
         transform="matrix(1.3333333,0,0,-1.3333333,176.19867,159.63067)" />
      <path
         id="path15"
         d="m 3.4221172,-2.998875 c 0.2578125,0.046875 0.65625,0.140625 0.75,0.1523438 0.1875,0.058594 0.8671875,0.2929687 0.8671875,1.0195312 0,0.46875 -0.421875,1.67578125 -2.15625,1.67578125 -0.3164063,0 -1.4414063,-0.046875 -1.7460938,-0.86718745 0.5976563,0.0703125 0.9023438,-0.3867188 0.9023438,-0.7148438 0,-0.3164062 -0.2109375,-0.4804687 -0.5039063,-0.4804687 -0.3398437,0 -0.77343746,0.2460937 -0.77343746,0.9257812 0,0.87890625 0.90234376,1.44140625 2.09765626,1.44140625 2.2851562,0 2.9648437,-1.68749995 2.9648437,-2.46093745 0,-0.2226563 0,-0.6445313 -0.4804687,-1.125 C 4.9689922,-3.79575 4.6057109,-3.8660625 3.7971172,-4.030125 3.3869609,-4.123875 2.7424297,-4.2645 2.7424297,-4.9324687 c 0,-0.3046875 0.2695312,-1.3828125 1.6992187,-1.3828125 0.6328125,0 1.2421875,0.2460937 1.3945313,0.7851562 -0.65625,0 -0.6914063,0.5625 -0.6914063,0.5859375 0,0.3046875 0.28125,0.3984375 0.421875,0.3984375 0.2109375,0 0.6328125,-0.1640625 0.6328125,-0.796875 0,-0.6210937 -0.5742187,-1.265625 -1.7460937,-1.265625 -1.96875,0 -2.484375,1.5351563 -2.484375,2.15625 0,1.1367188 1.1015625,1.3828125 1.453125,1.453125 z m 0,0"
         style="fill:#d33682;fill-opacity:1;fill-rule:nonzero;stroke:none"
         aria-label="s"
         transform="matrix(1.3333333,0,0,1.3333333,77.097333,163.936)" />
      <path
         id="path16"
         d="m 153.0728,0 c 0,6.2623 -5.07646,11.33876 -11.33876,11.33876 -6.2623,0 -11.33876,-5.07646 -11.33876,-11.33876 0,-6.2623 5.07646,-11.33876 11.33876,-11.33876 6.2623,0 11.33876,5.07646 11.33876,11.33876 z"
         style="fill:none;stroke:#586e75;stroke-width:1.19553;stroke-linecap:butt;stroke-linejoin:miter;stroke-miterlimit:10;stroke-dasharray:none;stroke-opacity:1"
         transform="matrix(1.3333333,0,0,-1.3333333,176.19867,159.63067)" />
      <path
         id="path17"
         d="m 5.0738984,-1.9100156 c -0.058594,0.2460937 -0.09375,0.3046875 -0.2929687,0.5273437 -0.609375,0.79687503 -1.2421875,1.07812503 -1.7109375,1.07812503 -0.4921875,0 -0.9609375,-0.38671875 -0.9609375,-1.41796873 0,-0.796875 0.4570312,-2.4726563 0.7851562,-3.1523438 0.4335938,-0.84375 1.1132813,-1.4414062 1.7460938,-1.4414062 0.984375,0 1.1835937,1.2304687 1.1835937,1.3242187 l -0.046875,0.2109375 z m 0.9257813,-3.7148438 c -0.1992188,-0.4335937 -0.609375,-0.984375 -1.359375,-0.984375 -1.640625,0 -3.5039063,2.0507813 -3.5039063,4.2890625 0,1.55859378 0.9492188,2.320312525 1.9101563,2.320312525 0.796875,0 1.5,-0.632812495 1.7695312,-0.925781245 L 4.4879609,0.42201563 C 4.2770234,1.2423281 4.1832734,1.6173281 3.6442109,2.1446719 3.0348359,2.7657656 2.4606172,2.7657656 2.1324922,2.7657656 c -0.4570313,0 -0.8320313,-0.035156 -1.20703126,-0.1523437 0.48046876,-0.140625 0.60937496,-0.5625 0.60937496,-0.7265625 0,-0.234375 -0.1875,-0.4804688 -0.515625,-0.4804688 -0.36328121,0 -0.74999996,0.3046875 -0.74999996,0.796875 0,0.6210938 0.62109375,0.8554688 1.88671876,0.8554688 1.9335937,0 2.9414062,-1.2421875 3.140625,-2.0507813 l 1.6640625,-6.7265625 c 0.046875,-0.1757812 0.046875,-0.2109375 0.046875,-0.234375 0,-0.2109375 -0.1640625,-0.375 -0.3984375,-0.375 -0.3515625,0 -0.5625,0.2929688 -0.609375,0.703125 z m 0,0"
         style="fill:#d33682;fill-opacity:1;fill-rule:nonzero;stroke:none"
         aria-label="g"
         transform="matrix(1.3333333,0,0,1.3333333,360.12933,161.992)" />
      <path
         id="path18"
         d="m -58.9305,0 h 41.83722"
         style="fill:none;stroke:#586e75;stroke-width:1.19553;stroke-linecap:butt;stroke-linejoin:miter;stroke-miterlimit:10;stroke-dasharray:none;stroke-opacity:1"
         transform="matrix(1.3333333,0,0,-1.3333333,176.19867,159.63067)" />
      <path
         id="path19"
         d="M 6.66628,0 1.93044,1.79556 3.5108,0 1.93044,-1.79556 Z"
         style="fill:#586e75;fill-opacity:1;fill-rule:nonzero;stroke:#586e75;stroke-width:1.19553;stroke-linecap:butt;stroke-linejoin:miter;stroke-miterlimit:10;stroke-dasharray:none;stroke-opacity:1"
         transform="matrix(1.3333333,0,0,-1.3333333,149.12504,159.63067)" />
      <path
         id="path20"
         d="m 1.9218203,-8.5890547 c 0.6445313,0.1992188 1.171875,0.2226563 1.3359375,0.2226563 1.6875,0 2.7773438,-1.2421875 2.7773438,-1.453125 0,-0.070312 -0.035156,-0.140625 -0.1289063,-0.140625 -0.023437,0 -0.058594,0 -0.1875,0.058594 -0.84375,0.3632813 -1.5585937,0.4101563 -1.9570312,0.4101563 -0.984375,0 -1.6875,-0.3046875 -1.9804688,-0.421875 -0.1054687,-0.046875 -0.1289062,-0.046875 -0.140625,-0.046875 -0.1289062,0 -0.1289062,0.09375 -0.1289062,0.328125 v 4.453125 c 0,0.2695312 0,0.3632812 0.1875,0.3632812 0.070312,0 0.082031,-0.011719 0.234375,-0.1992187 0.421875,-0.609375 1.125,-0.9726563 1.875,-0.9726563 0.796875,0 1.1835937,0.7382813 1.3007812,0.9960938 0.2578125,0.5859375 0.28125,1.3125 0.28125,1.8867187 0,0.5742188 0,1.4296875 -0.421875,2.0976563 -0.328125,0.53906246 -0.9140625,0.91406246 -1.5820312,0.91406246 -0.984375,0 -1.9570313,-0.66796875 -2.2265625,-1.76953126 0.070312,0.035156 0.1640625,0.046875 0.234375,0.046875 0.2578125,0 0.65625,-0.1523437 0.65625,-0.65625 0,-0.421875 -0.28125,-0.6679687 -0.65625,-0.6679687 -0.2695313,0 -0.65625004,0.140625 -0.65625004,0.7265625 0,1.2773437 1.01953124,2.73046871 2.68359374,2.73046871 1.6875,0 3.1757813,-1.42968751 3.1757813,-3.32812501 0,-1.7929687 -1.1953125,-3.2695312 -2.7773438,-3.2695312 -0.8554687,0 -1.5117187,0.375 -1.8984375,0.796875 z m 0,0"
         style="fill:#d33682;fill-opacity:1;fill-rule:nonzero;stroke:none"
         aria-label="5"
         transform="matrix(1.3333333,0,0,1.3333333,124.05867,151.51067)" />
      <path
         id="path21"
         d="m -62.4266,8.44038 50.33984,50.33986"
         style="fill:none;stroke:#586e75;stroke-width:1.19553;stroke-linecap:butt;stroke-linejoin:miter;stroke-miterlimit:10;stroke-dasharray:none;stroke-opacity:1"
         transform="matrix(1.3333333,0,0,-1.3333333,176.19867,159.63067)" />
      <path
         id="path22"
         d="M 6.66628,0 1.93044,1.79556 3.5108,0 1.93044,-1.79556 Z"
         style="fill:#586e75;fill-opacity:1;fill-rule:nonzero;stroke:#586e75;stroke-width:1.19553;stroke-linecap:butt;stroke-linejoin:miter;stroke-miterlimit:10;stroke-dasharray:none;stroke-opacity:1"
         transform="matrix(0.9428,-0.9428,-0.9428,-0.9428,157.05472,84.285267)" />
      <path
         id="path23"
         d="m 2.7655703,-5.3906875 c -0.2578125,0.023437 -0.3164062,0.035156 -0.3164062,0.1757813 0,0.140625 0.070312,0.140625 0.3398437,0.140625 h 0.6914063 c 1.2773437,0 1.8398437,1.0546875 1.8398437,2.4960937 0,1.96875 -1.0195312,2.484375 -1.7460937,2.484375 -0.7265625,0 -1.9570313,-0.33984375 -2.390625,-1.3359375 0.4804687,0.082031 0.9140625,-0.1875 0.9140625,-0.7265625 0,-0.4335937 -0.3164063,-0.7382812 -0.7382813,-0.7382812 -0.3515625,0 -0.74999999,0.2109375 -0.74999999,0.7851562 0,1.32421875 1.33593749,2.42578125 2.99999999,2.42578125 1.7929688,0 3.1054688,-1.37109375 3.1054688,-2.88281245 0,-1.3828125 -1.1015625,-2.4609375 -2.5429688,-2.71875 1.3007813,-0.375 2.1445313,-1.4648438 2.1445313,-2.6367188 0,-1.1835937 -1.2304688,-2.0507812 -2.6835938,-2.0507812 -1.5,0 -2.6132812,0.9140625 -2.6132812,2.0039062 0,0.609375 0.46875,0.7265625 0.6914062,0.7265625 0.3164063,0 0.6796875,-0.2226562 0.6796875,-0.6796875 0,-0.4804687 -0.3632812,-0.6914062 -0.6914062,-0.6914062 -0.09375,0 -0.1289063,0 -0.1640625,0.023437 0.5625,-1.0195313 1.9804687,-1.0195313 2.0507812,-1.0195313 0.4921875,0 1.4648438,0.2226563 1.4648438,1.6875 0,0.28125 -0.035156,1.125 -0.4804688,1.7695313 -0.4453125,0.6679687 -0.9609375,0.703125 -1.359375,0.7265625 z m 0,0"
         style="fill:#d33682;fill-opacity:1;fill-rule:nonzero;stroke:none"
         aria-label="3"
         transform="matrix(1.3333333,0,0,1.3333333,124.05867,100.28133)" />
      <path
         id="path24"
         d="m -62.4266,-8.44038 50.33984,-50.33986"
         style="fill:none;stroke:#586e75;stroke-width:1.19553;stroke-linecap:butt;stroke-linejoin:miter;stroke-miterlimit:10;stroke-dasharray:none;stroke-opacity:1"
         transform="matrix(1.3333333,0,0,-1.3333333,176.19867,159.63067)" />
      <path
         id="path25"
         d="M 6.66628,0 1.93044,1.79556 3.5108,0 1.93044,-1.79556 Z"
         style="fill:#586e75;fill-opacity:1;fill-rule:nonzero;stroke:#586e75;stroke-width:1.19553;stroke-linecap:butt;stroke-linejoin:miter;stroke-miterlimit:10;stroke-dasharray:none;stroke-opacity:1"
         transform="matrix(0.9428,0.9428,0.9428,-0.9428,157.05472,234.97607)" />
      <path
         id="path26"
         d="m 6.5976016,-2.5182109 h -0.328125 c -0.046875,0.2578125 -0.1640625,1.078125 -0.3164063,1.3242187 -0.1054687,0.1289063 -0.9609375,0.1289063 -1.40625,0.1289063 H 1.7694766 c 0.4101562,-0.3398438 1.3242187,-1.3007813 1.7109375,-1.6640625 2.2851562,-2.0976563 3.1171875,-2.8828125 3.1171875,-4.359375 0,-1.734375 -1.359375,-2.8828125 -3.1054688,-2.8828125 -1.734375,0 -2.75390624,1.4882812 -2.75390624,2.7773437 0,0.7617188 0.65625004,0.7617188 0.70312504,0.7617188 0.3164062,0 0.703125,-0.2226563 0.703125,-0.703125 0,-0.421875 -0.28125,-0.703125 -0.703125,-0.703125 -0.140625,0 -0.1640625,0 -0.2109375,0.011719 0.28125,-1.0195312 1.0898437,-1.7109375 2.0742187,-1.7109375 1.265625,0 2.0507813,1.0664063 2.0507813,2.4492188 0,1.265625 -0.7382813,2.3789062 -1.59375,3.3398437 L 0.73822656,-0.36196094 V 0.00132031 H 6.2108828 Z m 0,0"
         style="fill:#d33682;fill-opacity:1;fill-rule:nonzero;stroke:none"
         aria-label="2"
         transform="matrix(1.3333333,0,0,1.3333333,124.05867,231.86933)" />
      <path
         id="path27"
         d="M 11.93651,70.867 H 53.77373"
         style="fill:none;stroke:#586e75;stroke-width:1.19553;stroke-linecap:butt;stroke-linejoin:miter;stroke-miterlimit:10;stroke-dasharray:none;stroke-opacity:1"
         transform="matrix(1.3333333,0,0,-1.3333333,176.19867,159.63067)" />
      <path
         id="path28"
         d="M 6.66628,0 1.93044,1.79556 3.5108,0 1.93044,-1.79556 Z"
         style="fill:#586e75;fill-opacity:1;fill-rule:nonzero;stroke:#586e75;stroke-width:1.19553;stroke-linecap:butt;stroke-linejoin:miter;stroke-miterlimit:10;stroke-dasharray:none;stroke-opacity:1"
         transform="matrix(1.3333333,0,0,-1.3333333,243.61437,65.141333)" />
      <g
         id="g28"
         aria-label="−4"
         transform="matrix(1.3333333,0,0,1.3333333,210.76933,55.354667)">
        <path
           id="path29"
           d="m 9.8907734,-3.4447109 c 0.2460936,0 0.5156246,0 0.5156246,-0.3046875 0,-0.3046875 -0.269531,-0.3046875 -0.5156246,-0.3046875 H 1.7696797 c -0.2578125,0 -0.5273438,0 -0.5273438,0.3046875 0,0.3046875 0.2695313,0.3046875 0.5273438,0.3046875 z m 0,0"
           style="fill:#d33682;fill-opacity:1;fill-rule:nonzero;stroke:none" />
        <path
           id="path30"
           d="m 17.080227,-9.7611172 c 0,-0.2929688 0,-0.3632808 -0.210938,-0.3632808 -0.117187,0 -0.164062,0 -0.28125,0.1757808 l -4.511719,7.0078125 v 0.4335938 h 3.9375 v 1.3710937 c 0,0.55078126 -0.02344,0.70312501 -1.125,0.70312501 H 14.595852 V 6.015625e-4 C 14.935695,-0.03455469 16.119289,-0.03455469 16.541164,-0.03455469 c 0.421875,0 1.617188,0 1.96875,0.0351562525 V -0.43299219 h -0.304687 c -1.078125,0 -1.125,-0.15234375 -1.125,-0.70312501 v -1.3710937 h 1.511718 v -0.4335938 h -1.511718 z m -0.984375,1.171875 v 5.6484375 H 12.45132 Z m 0,0"
           style="fill:#d33682;fill-opacity:1;fill-rule:nonzero;stroke:none" />
      </g>
      <path
         id="path31"
         d="M 79.3074,62.4266 129.64726,12.08676"
         style="fill:none;stroke:#586e75;stroke-width:1.19553;stroke-linecap:butt;stroke-linejoin:miter;stroke-miterlimit:10;stroke-dasharray:none;stroke-opacity:1"
         transform="matrix(1.3333333,0,0,-1.3333333,176.19867,159.63067)" />
      <path
         id="path32"
         d="M 6.66628,0 1.93044,1.79556 3.5108,0 1.93044,-1.79556 Z"
         style="fill:#586e75;fill-opacity:1;fill-rule:nonzero;stroke:#586e75;stroke-width:1.19553;stroke-linecap:butt;stroke-linejoin:miter;stroke-miterlimit:10;stroke-dasharray:none;stroke-opacity:1"
         transform="matrix(0.9428,0.9428,0.9428,-0.9428,346.03344,140.48672)" />
      <path
         id="path33"
         d="m 5.4153594,-9.7617812 c 0,-0.2929688 0,-0.3632808 -0.2109375,-0.3632808 -0.1171875,0 -0.1640625,0 -0.28125,0.1757808 L 0.41145313,-2.9414687 V -2.507875 H 4.3489531 v 1.3710938 c 0,0.5507812 -0.023437,0.70312495 -1.125,0.70312495 H 2.9309844 V -6.25e-5 c 0.3398437,-0.03515625 1.5234375,-0.03515625 1.9453125,-0.03515625 0.421875,0 1.6171875,0 1.96875,0.03515625 V -0.43365625 H 6.5403594 c -1.078125,0 -1.125,-0.15234375 -1.125,-0.70312495 V -2.507875 H 6.9270781 V -2.9414687 H 5.4153594 Z m -0.984375,1.171875 v 5.6484375 H 0.78645313 Z m 0,0"
         style="fill:#d33682;fill-opacity:1;fill-rule:nonzero;stroke:none"
         aria-label="4"
         transform="matrix(1.3333333,0,0,1.3333333,313.03733,100.28133)" />
      <path
         id="path34"
         d="m 82.83852,0 h 41.80224"
         style="fill:none;stroke:#586e75;stroke-width:1.19553;stroke-linecap:butt;stroke-linejoin:miter;stroke-miterlimit:10;stroke-dasharray:none;stroke-opacity:1"
         transform="matrix(1.3333333,0,0,-1.3333333,176.19867,159.63067)" />
      <path
         id="path35"
         d="M 6.66628,0 1.93044,1.79556 3.5108,0 1.93044,-1.79556 Z"
         style="fill:#586e75;fill-opacity:1;fill-rule:nonzero;stroke:#586e75;stroke-width:1.19553;stroke-linecap:butt;stroke-linejoin:miter;stroke-miterlimit:10;stroke-dasharray:none;stroke-opacity:1"
         transform="matrix(1.3333333,0,0,-1.3333333,338.10376,159.63067)" />
      <path
         id="path36"
         d="m 4.4637891,-5.4132734 c 0.75,-0.4101563 1.8515625,-1.1015625 1.8515625,-2.3554688 0,-1.3007812 -1.265625,-2.203125 -2.6367188,-2.203125 -1.4882812,0 -2.6601562,1.0898438 -2.6601562,2.4609375 0,0.5039063 0.1523437,1.0195313 0.5742187,1.5234375 0.1640625,0.1992188 0.1757813,0.2109375 1.2304688,0.9492188 -1.4648438,0.6796875 -2.21484379,1.6757812 -2.21484379,2.7773437 0,1.58203126 1.52343749,2.57812501 3.04687499,2.57812501 1.6640625,0 3.0585938,-1.23046875 3.0585938,-2.80078121 0,-1.5351563 -1.078125,-2.2148438 -2.25,-2.9296875 z M 2.4247266,-6.7609297 c -0.1875,-0.140625 -0.7851563,-0.5273437 -0.7851563,-1.265625 0,-0.9726562 1.0195313,-1.5820312 2.015625,-1.5820312 1.078125,0 2.0390625,0.7734375 2.0390625,1.8515625 0,0.9140625 -0.65625,1.6523437 -1.5234375,2.1328125 z m 0.7148437,1.9335938 1.8046875,1.1835937 c 0.3984375,0.2578125 1.0898438,0.7148438 1.0898438,1.6289063 0,1.14843746 -1.1601563,1.92187496 -2.3554688,1.92187496 -1.2773437,0 -2.3789062,-0.92578126 -2.3789062,-2.16796876 0,-1.171875 0.8554687,-2.1210937 1.8398437,-2.5664062 z m 0,0"
         style="fill:#d33682;fill-opacity:1;fill-rule:nonzero;stroke:none"
         aria-label="8"
         transform="matrix(1.3333333,0,0,1.3333333,313.06,151.51067)" />
      <path
         id="path37"
         d="m 80.40004,-61.33398 49.24722,49.24722"
         style="fill:none;stroke:#586e75;stroke-width:1.19553;stroke-linecap:butt;stroke-linejoin:miter;stroke-miterlimit:10;stroke-dasharray:none;stroke-opacity:1"
         transform="matrix(1.3333333,0,0,-1.3333333,176.19867,159.63067)" />
      <path
         id="path38"
         d="M 6.66628,0 1.93044,1.79556 3.5108,0 1.93044,-1.79556 Z"
         style="fill:#586e75;fill-opacity:1;fill-rule:nonzero;stroke:#586e75;stroke-width:1.19553;stroke-linecap:butt;stroke-linejoin:miter;stroke-miterlimit:10;stroke-dasharray:none;stroke-opacity:1"
         transform="matrix(0.9428,-0.9428,-0.9428,-0.9428,346.03344,178.77461)" />
      <path
         id="path39"
         d="m 7.1252188,-9.3169375 v -0.3398437 h -3.609375 c -1.8164063,0 -1.8515625,-0.1992188 -1.9101563,-0.4804688 h -0.328125 l -0.46875,3 h 0.328125 c 0.046875,-0.2695312 0.1875,-1.2070312 0.375,-1.3710937 0.1289063,-0.082031 1.2539063,-0.082031 1.453125,-0.082031 h 3.1875 l -1.59375,2.2734375 c -0.3984375,0.5859375 -1.921875,3.046875 -1.921875,5.87109375 0,0.1640625 0,0.76171875 0.6210938,0.76171875 0.6328125,0 0.6328125,-0.5859375 0.6328125,-0.78515625 V -1.2192812 c 0,-2.2265625 0.3515625,-3.9726563 1.0546875,-4.9804688 z m 0,0"
         style="fill:#d33682;fill-opacity:1;fill-rule:nonzero;stroke:none"
         aria-label="7"
         transform="matrix(1.3333333,0,0,1.3333333,313.76533,231.14133)" />
      <path
         id="path40"
         d="M 11.7551,2.07253 C 29.92918,5.27701 40.90335,5.28308 53.99905,2.97395"
         style="fill:none;stroke:#586e75;stroke-width:1.19553;stroke-linecap:butt;stroke-linejoin:miter;stroke-miterlimit:10;stroke-dasharray:none;stroke-opacity:1"
         transform="matrix(1.3333333,0,0,-1.3333333,176.19867,159.63067)" />
      <path
         id="path41"
         d="M 6.66628,0 1.93044,1.79556 3.5108,0 1.93044,-1.79556 Z"
         style="fill:#586e75;fill-opacity:1;fill-rule:nonzero;stroke:#586e75;stroke-width:1.19553;stroke-linecap:butt;stroke-linejoin:miter;stroke-miterlimit:10;stroke-dasharray:none;stroke-opacity:1"
         transform="matrix(1.3130667,0.23150667,0.23150667,-1.3130667,243.97992,154.9218)" />
      <path
         id="path42"
         d="m 1.839,-5.2140156 c 0,-3.796875 1.8515625,-4.3945313 2.6601562,-4.3945313 0.5390625,0 1.078125,0.1640625 1.359375,0.609375 -0.1757812,0 -0.75,0 -0.75,0.609375 0,0.3398438 0.234375,0.6210938 0.6210938,0.6210938 0.375,0 0.6328125,-0.2226563 0.6328125,-0.65625 0,-0.7851563 -0.5742188,-1.546875 -1.875,-1.546875 -1.8984375,0 -3.87890625,1.9335937 -3.87890625,5.2382812 0,4.12500003 1.80468745,5.05078128 3.08203125,5.05078128 1.6289062,0 3.0234375,-1.42968748 3.0234375,-3.37499998 0,-1.9921875 -1.3945313,-3.328125 -2.8945313,-3.328125 -1.3359375,0 -1.828125,1.1484375 -1.9804687,1.5703125 z m 1.8515625,5.12109373 c -0.9492188,0 -1.3945313,-0.83203125 -1.5351563,-1.14843753 -0.1289062,-0.3984375 -0.28125,-1.125 -0.28125,-2.1796875 0,-1.1835937 0.5390625,-2.671875 1.8867188,-2.671875 0.8320312,0 1.265625,0.5625 1.4882812,1.0664063 0.234375,0.5625 0.234375,1.3125 0.234375,1.9570312 0,0.7617188 0,1.4296875 -0.28125,2.0039063 -0.375,0.72656248 -0.9140625,0.97265623 -1.5117187,0.97265623 z m 0,0"
         style="fill:#d33682;fill-opacity:1;fill-rule:nonzero;stroke:none"
         aria-label="6"
         transform="matrix(1.3333333,0,0,1.3333333,218.548,143.39733)" />
      <path
         id="path43"
         d="M 59.07745,-2.07858 C 40.90335,-5.28308 29.92918,-5.27701 16.83348,-2.9679"
         style="fill:none;stroke:#586e75;stroke-width:1.19553;stroke-linecap:butt;stroke-linejoin:miter;stroke-miterlimit:10;stroke-dasharray:none;stroke-opacity:1"
         transform="matrix(1.3333333,0,0,-1.3333333,176.19867,159.63067)" />
      <path
         id="path44"
         d="M 6.66628,0 1.93044,1.79556 3.5108,0 1.93044,-1.79556 Z"
         style="fill:#586e75;fill-opacity:1;fill-rule:nonzero;stroke:#586e75;stroke-width:1.19553;stroke-linecap:butt;stroke-linejoin:miter;stroke-miterlimit:10;stroke-dasharray:none;stroke-opacity:1"
         transform="matrix(-1.3130667,-0.23150667,-0.23150667,1.3130667,202.8608,164.33143)" />
      <g
         id="g44"
         aria-label="−3"
         transform="matrix(1.3333333,0,0,1.3333333,210.76933,187.92)">
        <path
           id="path45"
           d="m 9.8907734,-3.4439062 c 0.2460936,0 0.5156246,0 0.5156246,-0.3046875 0,-0.3046875 -0.269531,-0.3046875 -0.5156246,-0.3046875 H 1.7696797 c -0.2578125,0 -0.5273438,0 -0.5273438,0.3046875 0,0.3046875 0.2695313,0.3046875 0.5273438,0.3046875 z m 0,0"
           style="fill:#d33682;fill-opacity:1;fill-rule:nonzero;stroke:none" />
        <path
           id="path46"
           d="m 14.431789,-5.3892187 c -0.257812,0.023437 -0.316406,0.035156 -0.316406,0.1757812 0,0.140625 0.07031,0.140625 0.339844,0.140625 h 0.691406 c 1.277344,0 1.839844,1.0546875 1.839844,2.4960938 0,1.96874995 -1.019532,2.48437495 -1.746094,2.48437495 -0.726563,0 -1.957031,-0.33984375 -2.390625,-1.33593745 0.480469,0.082031 0.914062,-0.1875 0.914062,-0.7265625 0,-0.4335938 -0.316406,-0.7382813 -0.738281,-0.7382813 -0.351562,0 -0.75,0.2109375 -0.75,0.7851563 0,1.3242187 1.335938,2.4257812 3,2.4257812 1.792969,0 3.105469,-1.3710937 3.105469,-2.8828125 0,-1.3828125 -1.101563,-2.4609375 -2.542969,-2.71875 1.300781,-0.375 2.144531,-1.4648437 2.144531,-2.6367187 0,-1.1835938 -1.230468,-2.0507813 -2.683593,-2.0507813 -1.5,0 -2.613282,0.9140625 -2.613282,2.0039063 0,0.609375 0.46875,0.7265625 0.691407,0.7265625 0.316406,0 0.679687,-0.2226563 0.679687,-0.6796875 0,-0.4804688 -0.363281,-0.6914063 -0.691406,-0.6914063 -0.09375,0 -0.128906,0 -0.164063,0.023437 0.5625,-1.0195312 1.980469,-1.0195312 2.050782,-1.0195312 0.492187,0 1.464843,0.2226562 1.464843,1.6875 0,0.28125 -0.03516,1.125 -0.480468,1.7695312 -0.445313,0.6679688 -0.960938,0.703125 -1.359375,0.7265625 z m 0,0"
           style="fill:#d33682;fill-opacity:1;fill-rule:nonzero;stroke:none" />
      </g>
      <path
         id="path47"
         d="m 11.7551,-68.79448 c 17.67172,3.11591 28.16334,3.38418 40.75668,1.16365"
         style="fill:none;stroke:#586e75;stroke-width:1.19553;stroke-linecap:butt;stroke-linejoin:miter;stroke-miterlimit:10;stroke-dasharray:none;stroke-opacity:1"
         transform="matrix(1.3333333,0,0,-1.3333333,176.19867,159.63067)" />
      <path
         id="path48"
         d="M 6.66628,0 1.93044,1.79556 3.5108,0 1.93044,-1.79556 Z"
         style="fill:#586e75;fill-opacity:1;fill-rule:nonzero;stroke:#586e75;stroke-width:1.19553;stroke-linecap:butt;stroke-linejoin:miter;stroke-miterlimit:10;stroke-dasharray:none;stroke-opacity:1"
         transform="matrix(1.3130667,0.23150667,0.23150667,-1.3130667,241.99687,249.06152)" />
      <path
         id="path49"
         d="m 2.7647812,-5.3905859 c -0.2578125,0.023437 -0.3164062,0.035156 -0.3164062,0.1757812 0,0.140625 0.070312,0.140625 0.3398437,0.140625 H 3.479625 c 1.2773437,0 1.8398437,1.0546875 1.8398437,2.4960938 0,1.96874996 -1.0195312,2.48437496 -1.7460937,2.48437496 -0.7265625,0 -1.9570313,-0.33984375 -2.390625,-1.33593746 0.4804687,0.082031 0.9140625,-0.1875 0.9140625,-0.7265625 0,-0.4335938 -0.3164063,-0.7382813 -0.7382813,-0.7382813 -0.3515625,0 -0.74999995,0.2109375 -0.74999995,0.7851563 0,1.32421871 1.33593745,2.42578121 2.99999995,2.42578121 1.7929688,0 3.1054688,-1.37109371 3.1054688,-2.88281251 0,-1.3828125 -1.1015625,-2.4609375 -2.5429688,-2.71875 1.3007813,-0.375 2.1445313,-1.4648437 2.1445313,-2.6367187 0,-1.1835938 -1.2304688,-2.0507813 -2.6835938,-2.0507813 -1.5,0 -2.6132812,0.9140625 -2.6132812,2.0039063 0,0.609375 0.46875,0.7265625 0.6914062,0.7265625 0.3164063,0 0.6796875,-0.2226563 0.6796875,-0.6796875 0,-0.4804688 -0.3632812,-0.6914063 -0.6914062,-0.6914063 -0.09375,0 -0.1289063,0 -0.1640625,0.023437 0.5625,-1.0195312 1.9804687,-1.0195312 2.0507812,-1.0195312 0.4921875,0 1.4648438,0.2226562 1.4648438,1.6875 0,0.28125 -0.035156,1.125 -0.4804688,1.7695312 -0.4453125,0.6679688 -0.9609375,0.703125 -1.359375,0.7265625 z m 0,0"
         style="fill:#d33682;fill-opacity:1;fill-rule:nonzero;stroke:none"
         aria-label="3"
         transform="matrix(1.3333333,0,0,1.3333333,218.548,237.88667)" />
      <path
         id="path50"
         d="M 57.59016,-73.20782 C 39.91844,-76.32373 29.42682,-76.05545 16.83348,-73.8349"
         style="fill:none;stroke:#586e75;stroke-width:1.19553;stroke-linecap:butt;stroke-linejoin:miter;stroke-miterlimit:10;stroke-dasharray:none;stroke-opacity:1"
         transform="matrix(1.3333333,0,0,-1.3333333,176.19867,159.63067)" />
      <path
         id="path51"
         d="M 6.66628,0 1.93044,1.79556 3.5108,0 1.93044,-1.79556 Z"
         style="fill:#586e75;fill-opacity:1;fill-rule:nonzero;stroke:#586e75;stroke-width:1.19553;stroke-linecap:butt;stroke-linejoin:miter;stroke-miterlimit:10;stroke-dasharray:none;stroke-opacity:1"
         transform="matrix(-1.3130667,-0.23150667,-0.23150667,1.3130667,202.8608,258.8208)" />
      <g
         id="g51"
         aria-label="−6"
         transform="matrix(1.3333333,0,0,1.3333333,210.76933,282.40933)">
        <path
           id="path52"
           d="m 9.8907734,-3.4446953 c 0.2460936,0 0.5156246,0 0.5156246,-0.3046875 0,-0.3046875 -0.269531,-0.3046875 -0.5156246,-0.3046875 H 1.7696797 c -0.2578125,0 -0.5273438,0 -0.5273438,0.3046875 0,0.3046875 0.2695313,0.3046875 0.5273438,0.3046875 z m 0,0"
           style="fill:#d33682;fill-opacity:1;fill-rule:nonzero;stroke:none" />
        <path
           id="path53"
           d="m 13.506008,-5.2142266 c 0,-3.796875 1.851562,-4.3945312 2.660156,-4.3945312 0.539063,0 1.078125,0.1640625 1.359375,0.609375 -0.175781,0 -0.75,0 -0.75,0.609375 0,0.3398437 0.234375,0.6210937 0.621094,0.6210937 0.375,0 0.632812,-0.2226562 0.632812,-0.65625 0,-0.7851562 -0.574218,-1.546875 -1.875,-1.546875 -1.898437,0 -3.878906,1.9335938 -3.878906,5.2382813 0,4.12499999 1.804688,5.05078124 3.082031,5.05078124 1.628907,0 3.023438,-1.42968754 3.023438,-3.37500004 0,-1.9921875 -1.394531,-3.328125 -2.894531,-3.328125 -1.335938,0 -1.828125,1.1484375 -1.980469,1.5703125 z m 1.851562,5.12109379 c -0.949218,0 -1.394531,-0.83203125 -1.535156,-1.14843749 -0.128906,-0.3984375 -0.28125,-1.125 -0.28125,-2.1796875 0,-1.1835938 0.539063,-2.671875 1.886719,-2.671875 0.832031,0 1.265625,0.5625 1.488281,1.0664062 0.234375,0.5625 0.234375,1.3125 0.234375,1.9570313 0,0.7617187 0,1.4296875 -0.28125,2.0039062 -0.375,0.72656254 -0.914062,0.97265629 -1.511719,0.97265629 z m 0,0"
           style="fill:#d33682;fill-opacity:1;fill-rule:nonzero;stroke:none" />
      </g>
      <path
         id="path54"
         d="m 97.7964,-70.867 c 0,15.6557 -27.9204,28.3468 -62.36291,28.3468 -34.44251,0 -62.36289,-12.6911 -62.36289,-28.3468 0,-15.65572 27.92038,-28.34682 62.36289,-28.34682 34.44251,0 62.36291,12.6911 62.36291,28.34682 z"
         style="fill:none;stroke:#dc322f;stroke-width:1.19553;stroke-linecap:butt;stroke-linejoin:miter;stroke-miterlimit:10;stroke-dasharray:2.98883, 2.98883;stroke-dashoffset:0;stroke-opacity:1"
         transform="matrix(1.3333333,0,0,-1.3333333,176.19867,159.63067)" />
    </g>
  </g>
</svg>
