<?xml version="1.0" encoding="UTF-8" standalone="no"?>
<!-- Created with Inkscape (http://www.inkscape.org/) -->

<svg
   version="1.1"
   id="svg1"
   width="64.939995"
   height="141.88672"
   viewBox="0 0 64.939995 141.88672"
   xmlns="http://www.w3.org/2000/svg"
   xmlns:svg="http://www.w3.org/2000/svg">
  <defs
     id="defs1" />
  <g
     id="g1"
     transform="translate(-96,-771.96875)">
    <g
       id="g12">
      <path
         id="path2"
         d="m 4.7095,-2.11025 c 0,-1.2539062 -0.8554687,-2.296875 -1.9921875,-2.296875 -0.5039062,0 -0.9492187,0.1640625 -1.3359375,0.5273438 v -2.0390625 c 0.2109375,0.058594 0.5625,0.1289062 0.890625,0.1289062 1.3007813,0 2.0273438,-0.9492187 2.0273438,-1.0898437 0,-0.058594 -0.023437,-0.1171875 -0.1054688,-0.1171875 0,0 -0.023437,0 -0.082031,0.035156 -0.2109375,0.09375 -0.7265625,0.3046875 -1.4296875,0.3046875 -0.4101563,0 -0.9023438,-0.070312 -1.3945313,-0.2929687 C 1.2055938,-6.98525 1.1587188,-6.98525 1.1587188,-6.98525 1.05325,-6.98525 1.05325,-6.9032187 1.05325,-6.7274375 v 3.1054688 c 0,0.1875 0,0.2695312 0.1523438,0.2695312 0.070312,0 0.09375,-0.035156 0.140625,-0.09375 0.1171875,-0.1640625 0.5039062,-0.7382812 1.3476562,-0.7382812 0.5507813,0 0.8085938,0.4921875 0.890625,0.6796875 0.1757813,0.3867187 0.1992188,0.796875 0.1992188,1.3242187 0,0.3632813 0,0.9960938 -0.2578125,1.4296875 -0.2460938,0.41015625 -0.6445313,0.69140625 -1.125,0.69140625 -0.7617188,0 -1.359375,-0.5625 -1.54687505,-1.18359375 0.0351563,0.011719 0.0703125,0.023437 0.18750005,0.023437 0.3398437,0 0.5273437,-0.2578125 0.5273437,-0.515625 0,-0.2460937 -0.1875,-0.515625 -0.5273437,-0.515625 -0.1523438,0 -0.51562505,0.082031 -0.51562505,0.5625 0,0.90234375 0.72656255,1.921875 1.89843755,1.921875 1.21875,0 2.2851562,-1.0078125 2.2851562,-2.3437495 z m 5.332031,-0.035156 c 0,-1.3359375 -0.925781,-2.34375 -2.097656,-2.34375 -0.7148437,0 -1.1015625,0.5390625 -1.3125,1.0429687 V -3.692281 c 0,-2.6601563 1.3007813,-3.0351563 1.8398438,-3.0351563 0.2578125,0 0.6914062,0.058594 0.9257812,0.421875 -0.1640625,0 -0.5742187,0 -0.5742187,0.46875 0,0.328125 0.2460937,0.4804688 0.4804687,0.4804688 0.1640625,0 0.4804688,-0.09375 0.4804688,-0.5039063 0,-0.6328125 -0.4570313,-1.1367187 -1.3359375,-1.1367187 -1.3359375,0 -2.7539063,1.359375 -2.7539063,3.6796875 0,2.8007812 1.21875,3.5507812 2.1914063,3.5507812 1.1601562,0 2.1562497,-0.99609375 2.1562497,-2.3789062 z M 9.1040313,-2.157125 c 0,0.5039063 0,1.03125 -0.1757813,1.40625 -0.3164062,0.6328125 -0.796875,0.69140625 -1.0429687,0.69140625 -0.6679688,0 -0.9726563,-0.6328125 -1.0429688,-0.796875 -0.1875,-0.49218745 -0.1875,-1.32421875 -0.1875,-1.51171875 0,-0.8203125 0.3398438,-1.875 1.2773438,-1.875 0.1757812,0 0.65625,0 0.984375,0.65625 0.1875,0.3867188 0.1875,0.9140625 0.1875,1.4296875 z m 6.4921877,-4.6054687 h -2.554688 c -1.277343,0 -1.300781,-0.140625 -1.347656,-0.3398438 H 11.436063 L 11.0845,-4.9344687 h 0.269531 C 11.377469,-5.0985312 11.471219,-5.7665 11.611844,-5.8954062 11.682156,-5.954 12.502469,-5.954 12.643094,-5.954 h 2.167969 l -1.171875,1.6640625 c -0.949219,1.40625 -1.289063,2.8710938 -1.289063,3.9375 0,0.10546875 0,0.5859375 0.480469,0.5859375 0.480469,0 0.480469,-0.48046875 0.480469,-0.5859375 v -0.52734375 c 0,-0.58593745 0.03516,-1.16015625 0.117187,-1.72265625 0.04687,-0.2460937 0.1875,-1.1484375 0.65625,-1.7929687 l 1.40625,-2.0039063 c 0.105469,-0.1171875 0.105469,-0.140625 0.105469,-0.3632812 z m 4.945312,4.9921875 c 0,-0.375 -0.105468,-0.84375 -0.503906,-1.2890625 -0.199219,-0.2226563 -0.375,-0.328125 -1.042969,-0.7382813 0.75,-0.3984375 1.265625,-0.9375 1.265625,-1.6289062 0,-0.9726563 -0.925781,-1.5703125 -1.886718,-1.5703125 -1.054688,0 -1.898438,0.7851562 -1.898438,1.7578125 0,0.1875 0.02344,0.65625 0.457031,1.1484375 0.117188,0.1289062 0.503907,0.3984375 0.773438,0.5742187 -0.609375,0.3046875 -1.511719,0.890625 -1.511719,1.9335938 0,1.1132812 1.066406,1.8164062 2.167969,1.8164062 1.183594,0 2.179687,-0.87890625 2.179687,-2.0039062 z m -0.738281,-3.65625 c 0,0.5976562 -0.410156,1.1015625 -1.042969,1.4648437 L 17.4595,-4.7938437 c -0.480469,-0.3164063 -0.527344,-0.6796875 -0.527344,-0.8554688 0,-0.6445312 0.679688,-1.078125 1.429688,-1.078125 0.773437,0 1.441406,0.5390625 1.441406,1.3007813 z m 0.222656,4.0429687 c 0,0.7734375 -0.796875,1.32421875 -1.652343,1.32421875 -0.902344,0 -1.664063,-0.65625 -1.664063,-1.52343745 0,-0.609375 0.339844,-1.2890625 1.230469,-1.78125 l 1.289062,0.8203125 c 0.304688,0.1992187 0.796875,0.515625 0.796875,1.1601562 z m 0,0"
         style="fill:#d33682;fill-opacity:1;fill-rule:nonzero;stroke:none"
         aria-label="5678"
         transform="matrix(1.3333333,0,0,1.3333333,124.97067,781.43867)" />
      <path
         id="path3"
         d="M 4.2536328,-3.0478672 2.0739453,-5.2275547 c -0.140625,-0.1289062 -0.1640625,-0.1523437 -0.2460937,-0.1523437 -0.1054688,0 -0.2226563,0.1054687 -0.2226563,0.2226562 0,0.082031 0.023437,0.09375 0.140625,0.2226563 l 2.1914063,2.1914062 -2.1914063,2.20312501 c -0.1171875,0.12890625 -0.140625,0.140625 -0.140625,0.22265625 0,0.1171875 0.1171875,0.22265625 0.2226563,0.22265625 0.082031,0 0.1054687,-0.0234375 0.2460937,-0.15234375 l 2.1679688,-2.17968746 2.2734375,2.26171871 c 0.023437,0.0117188 0.09375,0.0703125 0.1640625,0.0703125 0.1289062,0 0.2109375,-0.10546875 0.2109375,-0.22265625 0,-0.0234375 0,-0.0703125 -0.023437,-0.1171875 -0.011719,-0.0234375 -1.757813,-1.74609376 -2.3085943,-2.30859376 l 2.0039063,-1.9921875 c 0.058594,-0.070312 0.2226562,-0.2109375 0.28125,-0.28125 0.011719,-0.023437 0.046875,-0.058594 0.046875,-0.140625 0,-0.1171875 -0.082031,-0.2226562 -0.2109375,-0.2226562 -0.09375,0 -0.1289063,0.046875 -0.2578125,0.1640625 z m 0,0"
         style="fill:#586e75;fill-opacity:1;fill-rule:nonzero;stroke:none"
         aria-label="×"
         transform="matrix(1.3333333,0,0,1.3333333,108.79333,803.27867)" />
      <path
         id="path4"
         d="M 4.3930938,-9.921875e-4 V -0.32911719 h -0.328125 c -0.9492188,0 -0.984375,-0.1171875 -0.984375,-0.50390625 V -6.7158359 c 0,-0.2578125 0,-0.28125 -0.234375,-0.28125 -0.65625,0.6796875 -1.5820313,0.6796875 -1.9101563,0.6796875 v 0.3164062 c 0.2109375,0 0.8320313,0 1.3710938,-0.2695312 v 5.43749996 c 0,0.375 -0.035156,0.50390625 -0.9726563,0.50390625 H 0.99465625 V -9.921875e-4 C 1.3579375,-0.03614844 2.272,-0.03614844 2.693875,-0.03614844 c 0.421875,0 1.3359375,0 1.6992188,0.0351562525 z M 9.9595,-1.8291172 H 9.7016875 c -0.058594,0.3164063 -0.1289062,0.7734375 -0.234375,0.93750001 -0.070312,0.0820313 -0.7617187,0.0820313 -0.9960937,0.0820313 H 6.5845 L 7.6977813,-1.8877109 C 9.3384063,-3.3408359 9.9595,-3.9033359 9.9595,-4.9580234 c 0,-1.1953125 -0.9375,-2.0390625 -2.2265625,-2.0390625 -1.1835937,0 -1.9570312,0.9726562 -1.9570312,1.8984375 0,0.5976562 0.5273437,0.5976562 0.5507812,0.5976562 0.1875,0 0.5507813,-0.1289062 0.5507813,-0.5625 0,-0.2695312 -0.1875,-0.5390625 -0.5625,-0.5390625 -0.082031,0 -0.1054688,0 -0.1289063,0 0.234375,-0.6796875 0.8085938,-1.0664062 1.4179688,-1.0664062 0.9492187,0 1.40625,0.8554687 1.40625,1.7109375 0,0.84375 -0.5273438,1.6757812 -1.1015625,2.3203125 l -2.015625,2.24999996 c -0.1171875,0.1171875 -0.1171875,0.12890625 -0.1171875,0.3867187525 h 3.890625 z m 5.332031,0.035156 c 0,-0.8671875 -0.65625,-1.6875 -1.746093,-1.8984375 0.855468,-0.2929688 1.464843,-1.0195313 1.464843,-1.8515625 0,-0.8671875 -0.925781,-1.453125 -1.933593,-1.453125 -1.054688,0 -1.851563,0.6328125 -1.851563,1.4296875 0,0.3515625 0.234375,0.5507812 0.539063,0.5507812 0.316406,0 0.527343,-0.234375 0.527343,-0.5390625 0,-0.5273437 -0.492187,-0.5273437 -0.644531,-0.5273437 0.316406,-0.515625 1.019531,-0.6445313 1.394531,-0.6445313 0.433594,0 1.007813,0.2226563 1.007813,1.171875 0,0.1289063 -0.02344,0.7382813 -0.292969,1.1953125 -0.316406,0.5039063 -0.679687,0.5390625 -0.9375,0.5507813 -0.08203,0.011719 -0.339844,0.023437 -0.410156,0.023437 -0.08203,0.011719 -0.152344,0.023437 -0.152344,0.1289062 0,0.1171875 0.07031,0.1171875 0.246094,0.1171875 h 0.46875 c 0.855469,0 1.242187,0.7148438 1.242187,1.7460938 0,1.42968746 -0.726562,1.73437496 -1.183593,1.73437496 -0.457032,0 -1.242188,-0.1875 -1.605469,-0.796875 0.363281,0.046875 0.691406,-0.18749996 0.691406,-0.58593746 0,-0.375 -0.28125,-0.5859375 -0.585937,-0.5859375 -0.257813,0 -0.585938,0.1523437 -0.585938,0.609375 0,0.96093746 0.972656,1.65234371 2.121094,1.65234371 1.277344,0 2.226562,-0.9609375 2.226562,-2.02734321 z m 5.402344,0.058594 v -0.328125 h -1.054687 v -4.7695312 c 0,-0.2109375 0,-0.28125 -0.164063,-0.28125 -0.09375,0 -0.128906,0 -0.210937,0.1289062 l -3.222657,4.921875 v 0.328125 h 2.789063 v 0.91406251 c 0,0.375 -0.01172,0.4921875 -0.796875,0.4921875 h -0.210938 v 0.3281250025 c 0.421875,-0.0351562525 0.972657,-0.0351562525 1.40625,-0.0351562525 0.445313,0 1.007813,0 1.429688,0.0351562525 V -0.32911719 h -0.210938 c -0.785156,0 -0.808593,-0.1171875 -0.808593,-0.4921875 V -1.7353672 Z m -1.792969,-0.328125 H 16.3345 l 2.566406,-3.9140625 z m 0,0"
         style="fill:#d33682;fill-opacity:1;fill-rule:nonzero;stroke:none"
         aria-label="1234"
         transform="matrix(1.3333333,0,0,1.3333333,124.97067,803.27867)" />
      <path
         id="path5"
         d="M 0,-535.573 H 48.705"
         style="fill:none;stroke:#586e75;stroke-width:0.3985;stroke-linecap:butt;stroke-linejoin:miter;stroke-miterlimit:10;stroke-dasharray:none;stroke-opacity:1"
         transform="matrix(1.3333333,0,0,-1.3333333,96,96)" />
      <path
         id="path6"
         d="M 4.7095,-1.8268672 H 4.4516875 c -0.058594,0.3164063 -0.1289062,0.7734375 -0.234375,0.93750001 -0.070312,0.0820313 -0.7617187,0.0820313 -0.9960937,0.0820313 H 1.3345 L 2.4477813,-1.8854609 C 4.0884063,-3.3385859 4.7095,-3.9010859 4.7095,-4.9557734 c 0,-1.1953125 -0.9375,-2.0390625 -2.2265625,-2.0390625 -1.1835937,0 -1.95703125,0.9726562 -1.95703125,1.8984375 0,0.5976562 0.52734375,0.5976562 0.55078125,0.5976562 0.1875,0 0.5507813,-0.1289062 0.5507813,-0.5625 0,-0.2695312 -0.1875,-0.5390625 -0.5625,-0.5390625 -0.0820313,0 -0.1054688,0 -0.1289063,0 0.234375,-0.6796875 0.8085938,-1.0664062 1.4179688,-1.0664062 0.9492187,0 1.40625,0.8554687 1.40625,1.7109375 0,0.84375 -0.5273438,1.6757812 -1.1015625,2.3203125 l -2.01562505,2.24999996 c -0.1171875,0.1171875 -0.1171875,0.12890625 -0.1171875,0.38671875 H 4.4165313 Z m 5.25,0 H 9.7016875 c -0.058594,0.3164063 -0.1289062,0.7734375 -0.234375,0.93750001 -0.070312,0.0820313 -0.7617187,0.0820313 -0.9960937,0.0820313 H 6.5845 L 7.6977813,-1.8854609 C 9.3384063,-3.3385859 9.9595,-3.9010859 9.9595,-4.9557734 c 0,-1.1953125 -0.9375,-2.0390625 -2.2265625,-2.0390625 -1.1835937,0 -1.9570312,0.9726562 -1.9570312,1.8984375 0,0.5976562 0.5273437,0.5976562 0.5507812,0.5976562 0.1875,0 0.5507813,-0.1289062 0.5507813,-0.5625 0,-0.2695312 -0.1875,-0.5390625 -0.5625,-0.5390625 -0.082031,0 -0.1054688,0 -0.1289063,0 0.234375,-0.6796875 0.8085938,-1.0664062 1.4179688,-1.0664062 0.9492187,0 1.40625,0.8554687 1.40625,1.7109375 0,0.84375 -0.5273438,1.6757812 -1.1015625,2.3203125 l -2.015625,2.24999996 c -0.1171875,0.1171875 -0.1171875,0.12890625 -0.1171875,0.38671875 h 3.890625 z m 5.636719,-4.9335937 h -2.554688 c -1.277343,0 -1.300781,-0.140625 -1.347656,-0.3398438 H 11.436063 L 11.0845,-4.9323359 h 0.269531 c 0.02344,-0.1640625 0.117188,-0.8320313 0.257813,-0.9609375 0.07031,-0.058594 0.890625,-0.058594 1.03125,-0.058594 h 2.167969 l -1.171875,1.6640625 c -0.949219,1.40625 -1.289063,2.8710938 -1.289063,3.93750001 0,0.10546875 0,0.5859375 0.480469,0.5859375 0.480469,0 0.480469,-0.48046875 0.480469,-0.5859375 v -0.52734375 c 0,-0.58593746 0.03516,-1.16015626 0.117187,-1.72265626 0.04687,-0.2460937 0.1875,-1.1484375 0.65625,-1.7929687 l 1.40625,-2.0039063 c 0.105469,-0.1171875 0.105469,-0.140625 0.105469,-0.363281 z m 4.546875,6.76171871 v -0.328125 h -0.328125 c -0.949219,0 -0.984375,-0.1171875 -0.984375,-0.50390625 V -6.7135859 c 0,-0.2578125 0,-0.28125 -0.234375,-0.28125 -0.65625,0.6796875 -1.582031,0.6796875 -1.910156,0.6796875 v 0.3164062 c 0.210937,0 0.832031,0 1.371093,-0.2695312 v 5.43749996 c 0,0.375 -0.03516,0.50390625 -0.972656,0.50390625 h -0.339844 v 0.328125 c 0.363282,-0.03515625 1.277344,-0.03515625 1.699219,-0.03515625 0.421875,0 1.335938,0 1.699219,0.03515625 z M 25.7095,-1.8268672 h -0.257812 c -0.05859,0.3164063 -0.128907,0.7734375 -0.234375,0.93750001 -0.07031,0.0820313 -0.761719,0.0820313 -0.996094,0.0820313 H 22.3345 l 1.113281,-1.07812491 c 1.640625,-1.453125 2.261719,-2.015625 2.261719,-3.0703125 0,-1.1953125 -0.9375,-2.0390625 -2.226562,-2.0390625 -1.183594,0 -1.957032,0.9726562 -1.957032,1.8984375 0,0.5976562 0.527344,0.5976562 0.550782,0.5976562 0.1875,0 0.550781,-0.1289062 0.550781,-0.5625 0,-0.2695312 -0.1875,-0.5390625 -0.5625,-0.5390625 -0.08203,0 -0.105469,0 -0.128906,0 0.234375,-0.6796875 0.808593,-1.0664062 1.417968,-1.0664062 0.949219,0 1.40625,0.8554687 1.40625,1.7109375 0,0.84375 -0.527343,1.6757812 -1.101562,2.3203125 l -2.015625,2.24999991 c -0.117188,0.1171875 -0.117188,0.12890625 -0.117188,0.38671875 h 3.890625 z m 0,0"
         style="fill:#d33682;fill-opacity:1;fill-rule:nonzero;stroke:none"
         aria-label="22712"
         transform="matrix(1.3333333,0,0,1.3333333,117.97067,825.65067)" />
      <path
         id="path7"
         d="m 4.3930938,0.00114062 v -0.328125 h -0.328125 c -0.9492188,0 -0.984375,-0.1171875 -0.984375,-0.50390625 V -6.7137031 c 0,-0.2578125 0,-0.28125 -0.234375,-0.28125 -0.65625,0.6796875 -1.5820313,0.6796875 -1.9101563,0.6796875 v 0.3164062 c 0.2109375,0 0.8320313,0 1.3710938,-0.2695312 v 5.43749997 c 0,0.375 -0.035156,0.50390625 -0.9726563,0.50390625 H 0.99465625 v 0.328125 C 1.3579375,-0.03401563 2.272,-0.03401563 2.693875,-0.03401563 c 0.421875,0 1.3359375,0 1.6992188,0.03515625 z M 10.346219,-6.7605781 H 7.7915313 c -1.2773438,0 -1.3007813,-0.140625 -1.3476563,-0.3398438 H 6.1860625 L 5.8345,-4.9324531 h 0.2695313 c 0.023437,-0.1640625 0.1171875,-0.8320313 0.2578125,-0.9609375 0.070312,-0.058594 0.890625,-0.058594 1.03125,-0.058594 h 2.1679687 l -1.171875,1.6640625 c -0.9492187,1.40625 -1.2890625,2.8710938 -1.2890625,3.93750002 0,0.10546875 0,0.5859375 0.4804688,0.5859375 0.4804687,0 0.4804687,-0.48046875 0.4804687,-0.5859375 v -0.52734375 c 0,-0.58593747 0.035156,-1.16015627 0.1171875,-1.72265627 0.046875,-0.2460937 0.1875,-1.1484375 0.65625,-1.7929687 l 1.40625,-2.0039063 c 0.105469,-0.1171875 0.105469,-0.140625 0.105469,-0.363281 z m 4.980469,3.3984375 c 0,-0.8320313 -0.04687,-1.6757813 -0.421875,-2.4492188 -0.480469,-1.0078125 -1.335938,-1.1835937 -1.78125,-1.1835937 -0.632813,0 -1.394532,0.28125 -1.828125,1.2539062 -0.339844,0.7265625 -0.386719,1.546875 -0.386719,2.3789063 0,0.7851562 0.04687,1.734375 0.46875,2.53124997 0.457031,0.85546875 1.21875,1.06640625 1.734375,1.06640625 0.5625,0 1.371094,-0.22265625 1.828125,-1.21875 0.339844,-0.72656252 0.386719,-1.54687502 0.386719,-2.37890622 z M 14.4595,-3.4793281 c 0,0.7851562 0,1.5 -0.117187,2.1679687 -0.164063,0.99609377 -0.761719,1.31250002 -1.230469,1.31250002 -0.410156,0 -1.03125,-0.2578125 -1.21875,-1.26562502 -0.117188,-0.6328125 -0.117188,-1.6054687 -0.117188,-2.2148437 0,-0.6796875 0,-1.3710938 0.08203,-1.9335938 0.210937,-1.2539062 0.996093,-1.3476562 1.253906,-1.3476562 0.351562,0 1.042969,0.1875 1.242187,1.2304687 0.105469,0.5859375 0.105469,1.3828125 0.105469,2.0507813 z m 6.082031,1.6875 c 0,-0.8671875 -0.65625,-1.6875 -1.746093,-1.8984375 0.855468,-0.2929688 1.464843,-1.0195313 1.464843,-1.8515625 0,-0.8671875 -0.925781,-1.453125 -1.933593,-1.453125 -1.054688,0 -1.851563,0.6328125 -1.851563,1.4296875 0,0.3515625 0.234375,0.5507812 0.539063,0.5507812 0.316406,0 0.527343,-0.234375 0.527343,-0.5390625 0,-0.5273437 -0.492187,-0.5273437 -0.644531,-0.5273437 0.316406,-0.515625 1.019531,-0.6445313 1.394531,-0.6445313 0.433594,0 1.007813,0.2226563 1.007813,1.171875 0,0.1289063 -0.02344,0.7382813 -0.292969,1.1953125 -0.316406,0.5039063 -0.679687,0.5390625 -0.9375,0.5507813 -0.08203,0.011719 -0.339844,0.023437 -0.410156,0.023437 -0.08203,0.011719 -0.152344,0.023437 -0.152344,0.1289062 0,0.1171875 0.07031,0.1171875 0.246094,0.1171875 h 0.46875 c 0.855469,0 1.242187,0.7148438 1.242187,1.7460938 0,1.42968747 -0.726562,1.73437497 -1.183593,1.73437497 -0.457032,0 -1.242188,-0.1875 -1.605469,-0.796875 0.363281,0.046875 0.691406,-0.18749997 0.691406,-0.58593747 0,-0.375 -0.28125,-0.5859375 -0.585937,-0.5859375 -0.257813,0 -0.585938,0.1523437 -0.585938,0.609375 0,0.96093747 0.972656,1.65234372 2.121094,1.65234372 1.277344,0 2.226562,-0.9609375 2.226562,-2.02734322 z m 5.402344,0.058594 v -0.328125 h -1.054687 v -4.7695312 c 0,-0.2109375 0,-0.28125 -0.164063,-0.28125 -0.09375,0 -0.128906,0 -0.210937,0.1289062 l -3.222657,4.921875 v 0.328125 h 2.789063 v 0.91406252 c 0,0.375 -0.01172,0.4921875 -0.796875,0.4921875 h -0.210938 v 0.328125 c 0.421875,-0.03515625 0.972657,-0.03515625 1.40625,-0.03515625 0.445313,0 1.007813,0 1.429688,0.03515625 v -0.328125 h -0.210938 c -0.785156,0 -0.808593,-0.1171875 -0.808593,-0.4921875 V -1.7332344 Z m -1.792969,-0.328125 H 21.5845 l 2.566406,-3.9140625 z m 0,0"
         style="fill:#d33682;fill-opacity:1;fill-rule:nonzero;stroke:none"
         aria-label="17034"
         transform="matrix(1.3333333,0,0,1.3333333,110.97067,847.49067)" />
      <path
         id="path8"
         d="m 4.3930937,0.00102344 v -0.328125 h -0.328125 c -0.9492187,0 -0.984375,-0.1171875 -0.984375,-0.50390625 V -6.7138203 c 0,-0.2578125 0,-0.28125 -0.234375,-0.28125 -0.65625,0.6796875 -1.5820312,0.6796875 -1.9101562,0.6796875 v 0.3164062 c 0.2109375,0 0.8320312,0 1.3710937,-0.2695312 v 5.43749999 c 0,0.375 -0.035156,0.50390625 -0.9726562,0.50390625 H 0.99465625 v 0.328125 C 1.3579375,-0.03413281 2.272,-0.03413281 2.693875,-0.03413281 c 0.421875,0 1.3359375,0 1.6992187,0.03515625 z m 5.25,0 v -0.328125 h -0.328125 c -0.9492187,0 -0.984375,-0.1171875 -0.984375,-0.50390625 V -6.7138203 c 0,-0.2578125 0,-0.28125 -0.234375,-0.28125 -0.65625,0.6796875 -1.5820312,0.6796875 -1.9101562,0.6796875 v 0.3164062 c 0.2109375,0 0.8320312,0 1.3710937,-0.2695312 v 5.43749999 c 0,0.375 -0.035156,0.50390625 -0.9726562,0.50390625 H 6.2446562 v 0.328125 C 6.6079375,-0.03413281 7.522,-0.03413281 7.943875,-0.03413281 c 0.421875,0 1.3359375,0 1.6992187,0.03515625 z M 15.291531,-1.7919453 c 0,-0.8671875 -0.65625,-1.6875 -1.746094,-1.8984375 0.855469,-0.2929688 1.464844,-1.0195313 1.464844,-1.8515625 0,-0.8671875 -0.925781,-1.453125 -1.933594,-1.453125 -1.054687,0 -1.851562,0.6328125 -1.851562,1.4296875 0,0.3515625 0.234375,0.5507812 0.539062,0.5507812 0.316407,0 0.527344,-0.234375 0.527344,-0.5390625 0,-0.5273437 -0.492187,-0.5273437 -0.644531,-0.5273437 0.316406,-0.515625 1.019531,-0.6445313 1.394531,-0.6445313 0.433594,0 1.007813,0.2226563 1.007813,1.171875 0,0.1289063 -0.02344,0.7382813 -0.292969,1.1953125 -0.316406,0.5039063 -0.679688,0.5390625 -0.9375,0.5507813 -0.08203,0.011719 -0.339844,0.023437 -0.410156,0.023437 -0.08203,0.011719 -0.152344,0.023437 -0.152344,0.1289062 0,0.1171875 0.07031,0.1171875 0.246094,0.1171875 h 0.46875 c 0.855468,0 1.242187,0.7148438 1.242187,1.7460938 0,1.42968749 -0.726562,1.73437499 -1.183594,1.73437499 -0.457031,0 -1.242187,-0.1875 -1.605468,-0.796875 0.363281,0.046875 0.691406,-0.18749999 0.691406,-0.58593749 0,-0.375 -0.28125,-0.5859375 -0.585938,-0.5859375 -0.257812,0 -0.585937,0.1523437 -0.585937,0.609375 0,0.96093749 0.972656,1.65234374 2.121094,1.65234374 1.277343,0 2.226562,-0.9609375 2.226562,-2.02734324 z M 20.4595,-2.1083516 c 0,-1.2539062 -0.855469,-2.296875 -1.992188,-2.296875 -0.503906,0 -0.949218,0.1640625 -1.335937,0.5273438 v -2.0390625 c 0.210937,0.058594 0.5625,0.1289062 0.890625,0.1289062 1.300781,0 2.027344,-0.9492187 2.027344,-1.0898437 0,-0.058594 -0.02344,-0.1171875 -0.105469,-0.1171875 0,0 -0.02344,0 -0.08203,0.035156 -0.210938,0.09375 -0.726563,0.3046875 -1.429688,0.3046875 -0.410156,0 -0.902344,-0.070312 -1.394531,-0.2929687 -0.08203,-0.035156 -0.128906,-0.035156 -0.128906,-0.035156 -0.105469,0 -0.105469,0.082031 -0.105469,0.2578125 v 3.1054688 c 0,0.1875 0,0.2695312 0.152344,0.2695312 0.07031,0 0.09375,-0.035156 0.140625,-0.09375 0.117187,-0.1640625 0.503906,-0.7382812 1.347656,-0.7382812 0.550781,0 0.808594,0.4921875 0.890625,0.6796875 0.175781,0.3867187 0.199219,0.796875 0.199219,1.3242187 0,0.3632813 0,0.9960938 -0.257813,1.42968754 -0.246094,0.41015625 -0.644531,0.69140625 -1.125,0.69140625 -0.761719,0 -1.359375,-0.5625 -1.546875,-1.18359379 0.03516,0.011719 0.07031,0.023437 0.1875,0.023437 0.339844,0 0.527344,-0.2578125 0.527344,-0.515625 0,-0.2460937 -0.1875,-0.515625 -0.527344,-0.515625 -0.152344,0 -0.515625,0.082031 -0.515625,0.5625 0,0.90234379 0.726563,1.92187504 1.898438,1.92187504 1.21875,0 2.285156,-1.0078125 2.285156,-2.34375004 z m 5.332031,-0.035156 c 0,-1.3359375 -0.925781,-2.34375 -2.097656,-2.34375 -0.714844,0 -1.101563,0.5390625 -1.3125,1.0429687 v -0.2460937 c 0,-2.6601563 1.300781,-3.0351563 1.839844,-3.0351563 0.257812,0 0.691406,0.058594 0.925781,0.421875 -0.164063,0 -0.574219,0 -0.574219,0.46875 0,0.328125 0.246094,0.4804688 0.480469,0.4804688 0.164062,0 0.480469,-0.09375 0.480469,-0.5039063 0,-0.6328125 -0.457032,-1.1367187 -1.335938,-1.1367187 -1.335937,0 -2.753906,1.359375 -2.753906,3.6796875 0,2.80078124 1.21875,3.55078124 2.191406,3.55078124 1.160156,0 2.15625,-0.99609375 2.15625,-2.37890624 z m -0.9375,-0.011719 c 0,0.5039063 0,1.03125 -0.175781,1.40625004 -0.316406,0.6328125 -0.796875,0.69140625 -1.042969,0.69140625 -0.667969,0 -0.972656,-0.6328125 -1.042969,-0.796875 -0.1875,-0.49218749 -0.1875,-1.32421879 -0.1875,-1.51171879 0,-0.8203125 0.339844,-1.875 1.277344,-1.875 0.175781,0 0.65625,0 0.984375,0.65625 0.1875,0.3867188 0.1875,0.9140625 0.1875,1.4296875 z m 0,0"
         style="fill:#d33682;fill-opacity:1;fill-rule:nonzero;stroke:none"
         aria-label="11356"
         transform="matrix(1.3333333,0,0,1.3333333,103.97067,869.33067)" />
      <path
         id="path9"
         d="m 4.7095,-2.1084687 c 0,-1.2539063 -0.8554688,-2.296875 -1.9921875,-2.296875 -0.5039063,0 -0.9492188,0.1640625 -1.3359375,0.5273437 v -2.0390625 c 0.2109375,0.058594 0.5625,0.1289063 0.890625,0.1289063 1.3007812,0 2.0273437,-0.9492188 2.0273437,-1.0898438 0,-0.058594 -0.023437,-0.1171875 -0.1054687,-0.1171875 0,0 -0.023437,0 -0.082031,0.035156 -0.2109375,0.09375 -0.7265625,0.3046875 -1.4296875,0.3046875 -0.4101562,0 -0.9023437,-0.070312 -1.3945312,-0.2929688 -0.082031,-0.035156 -0.1289063,-0.035156 -0.1289063,-0.035156 -0.1054687,0 -0.1054687,0.082031 -0.1054687,0.2578125 v 3.1054687 c 0,0.1875 0,0.2695313 0.1523437,0.2695313 0.070312,0 0.09375,-0.035156 0.140625,-0.09375 0.1171875,-0.1640625 0.5039063,-0.7382813 1.3476563,-0.7382813 0.5507812,0 0.8085937,0.4921875 0.890625,0.6796875 0.1757812,0.3867188 0.1992187,0.796875 0.1992187,1.3242188 0,0.3632812 0,0.9960937 -0.2578125,1.42968745 -0.2460937,0.41015625 -0.6445312,0.69140625 -1.125,0.69140625 -0.7617187,0 -1.359375,-0.5625 -1.54687495,-1.1835937 0.0351563,0.011719 0.0703125,0.023437 0.18749995,0.023437 0.3398438,0 0.5273438,-0.2578125 0.5273438,-0.515625 0,-0.2460938 -0.1875,-0.515625 -0.5273438,-0.515625 -0.1523437,0 -0.51562495,0.082031 -0.51562495,0.5625 0,0.9023437 0.72656245,1.92187495 1.89843745,1.92187495 1.21875,0 2.2851563,-1.0078125 2.285156,-2.34374935 z m 5.332031,-0.035156 c 0,-1.3359375 -0.925781,-2.34375 -2.097656,-2.34375 -0.7148438,0 -1.1015625,0.5390625 -1.3125,1.0429688 V -3.6905 c 0,-2.6601562 1.3007812,-3.0351562 1.8398437,-3.0351562 0.2578125,0 0.6914063,0.058594 0.9257813,0.421875 -0.1640625,0 -0.5742188,0 -0.5742188,0.46875 0,0.328125 0.2460938,0.4804687 0.4804688,0.4804687 0.1640625,0 0.4804687,-0.09375 0.4804687,-0.5039062 0,-0.6328125 -0.4570312,-1.1367188 -1.3359375,-1.1367188 -1.3359375,0 -2.7539062,1.359375 -2.7539062,3.6796875 0,2.80078125 1.21875,3.55078125 2.1914062,3.55078125 1.1601563,0 2.1562498,-0.99609375 2.1562498,-2.37890595 z m -0.9374998,-0.011719 c 0,0.5039062 0,1.03125 -0.1757812,1.40624995 -0.3164063,0.6328125 -0.796875,0.69140625 -1.0429688,0.69140625 -0.6679687,0 -0.9726562,-0.6328125 -1.0429687,-0.796875 -0.1875,-0.4921875 -0.1875,-1.3242187 -0.1875,-1.5117187 0,-0.8203125 0.3398437,-1.875 1.2773437,-1.875 0.1757813,0 0.65625,0 0.984375,0.65625 0.1875,0.3867187 0.1875,0.9140625 0.1875,1.4296875 z m 6.4921878,-4.6054688 h -2.554688 c -1.277344,0 -1.300781,-0.140625 -1.347656,-0.3398437 H 11.436062 L 11.0845,-4.9326875 h 0.269531 c 0.02344,-0.1640625 0.117188,-0.8320312 0.257813,-0.9609375 0.07031,-0.058594 0.890625,-0.058594 1.03125,-0.058594 h 2.167968 l -1.171875,1.6640625 c -0.949218,1.40625 -1.289062,2.8710937 -1.289062,3.93749995 0,0.10546875 0,0.5859375 0.480469,0.5859375 0.480468,0 0.480468,-0.48046875 0.480468,-0.5859375 V -0.878 c 0,-0.5859375 0.03516,-1.1601562 0.117188,-1.7226562 0.04687,-0.2460938 0.1875,-1.1484375 0.65625,-1.7929688 l 1.40625,-2.0039062 c 0.105469,-0.1171875 0.105469,-0.140625 0.105469,-0.3632813 z m 4.945312,4.9921875 c 0,-0.375 -0.105469,-0.84375 -0.503906,-1.2890625 -0.199219,-0.2226562 -0.375,-0.328125 -1.042969,-0.7382812 0.75,-0.3984375 1.265625,-0.9375 1.265625,-1.6289063 0,-0.9726562 -0.925781,-1.5703125 -1.886719,-1.5703125 -1.054687,0 -1.898437,0.7851563 -1.898437,1.7578125 0,0.1875 0.02344,0.65625 0.457031,1.1484375 0.117188,0.1289063 0.503906,0.3984375 0.773438,0.5742188 -0.609375,0.3046875 -1.511719,0.890625 -1.511719,1.9335937 0,1.11328125 1.066406,1.81640625 2.167969,1.81640625 1.183593,0 2.179687,-0.87890625 2.179687,-2.00390625 z m -0.738281,-3.65625 c 0,0.5976563 -0.410156,1.1015625 -1.042969,1.4648438 L 17.4595,-4.7920625 c -0.480469,-0.3164062 -0.527344,-0.6796875 -0.527344,-0.8554687 0,-0.6445313 0.679688,-1.078125 1.429688,-1.078125 0.773437,0 1.441406,0.5390625 1.441406,1.3007812 z m 0.222656,4.0429688 c 0,0.77343745 -0.796875,1.3242187 -1.652344,1.3242187 -0.902343,0 -1.664062,-0.65625 -1.664062,-1.5234375 0,-0.609375 0.339844,-1.2890625 1.230469,-1.78125 l 1.289062,0.8203125 c 0.304688,0.1992188 0.796875,0.515625 0.796875,1.1601563 z m 0,0"
         style="fill:#d33682;fill-opacity:1;fill-rule:nonzero;stroke:none"
         aria-label="5678"
         transform="matrix(1.3333333,0,0,1.3333333,103.97067,891.17067)" />
      <path
         id="path10"
         d="M 0,-601.491 H 48.705"
         style="fill:none;stroke:#586e75;stroke-width:0.3985;stroke-linecap:butt;stroke-linejoin:miter;stroke-miterlimit:10;stroke-dasharray:none;stroke-opacity:1"
         transform="matrix(1.3333333,0,0,-1.3333333,96,96)" />
      <path
         id="path11"
         d="M 5.0962187,-6.7604922 H 2.5415312 c -1.2773437,0 -1.3007812,-0.140625 -1.3476562,-0.3398437 H 0.9360625 L 0.5845,-4.9323672 h 0.26953125 c 0.0234375,-0.1640625 0.1171875,-0.8320312 0.25781245,-0.9609375 0.070312,-0.058594 0.890625,-0.058594 1.03125,-0.058594 h 2.1679688 l -1.171875,1.6640625 c -0.9492188,1.40625 -1.2890625,2.8710937 -1.2890625,3.93749996 0,0.10546875 0,0.5859375 0.4804687,0.5859375 0.4804688,0 0.4804688,-0.48046875 0.4804688,-0.5859375 v -0.52734375 c 0,-0.58593751 0.035156,-1.16015621 0.1171875,-1.72265621 C 2.975125,-2.84643 3.11575,-3.7487737 3.5845,-4.393305 l 1.40625,-2.0039062 c 0.1054687,-0.1171875 0.1054687,-0.140625 0.1054687,-0.363281 z m 4.9804683,3.3984375 c 0,-0.8320312 -0.04687,-1.6757812 -0.4218745,-2.4492187 -0.4804688,-1.0078125 -1.3359375,-1.1835938 -1.78125,-1.1835938 -0.6328125,0 -1.3945313,0.28125 -1.828125,1.2539063 -0.3398438,0.7265625 -0.3867188,1.546875 -0.3867188,2.3789062 0,0.7851563 0.046875,1.734375 0.46875,2.53125001 0.4570313,0.85546875 1.21875,1.06640625 1.734375,1.06640625 0.5625,0 1.3710938,-0.22265625 1.828125,-1.21875 C 10.029812,-1.7097109 10.076687,-2.5300234 10.076687,-3.3620547 Z M 9.2095,-3.4792422 c 0,0.7851563 0,1.5 -0.1171875,2.1679688 -0.1640625,0.99609371 -0.7617188,1.31249996 -1.2304688,1.31249996 -0.4101562,0 -1.03125,-0.2578125 -1.21875,-1.26562496 -0.1171875,-0.6328125 -0.1171875,-1.6054688 -0.1171875,-2.2148438 0,-0.6796875 0,-1.3710937 0.082031,-1.9335937 0.2109375,-1.2539063 0.9960937,-1.3476563 1.2539062,-1.3476563 0.3515625,0 1.0429688,0.1875 1.2421875,1.2304688 C 9.2095,-4.9440859 9.2095,-4.1472109 9.2095,-3.4792422 Z m 6.117187,0.1171875 c 0,-0.8320312 -0.04687,-1.6757812 -0.421875,-2.4492187 -0.480468,-1.0078125 -1.335937,-1.1835938 -1.78125,-1.1835938 -0.632812,0 -1.394531,0.28125 -1.828125,1.2539063 -0.339843,0.7265625 -0.386718,1.546875 -0.386718,2.3789062 0,0.7851563 0.04687,1.734375 0.46875,2.53125001 0.457031,0.85546875 1.21875,1.06640625 1.734375,1.06640625 0.5625,0 1.371093,-0.22265625 1.828125,-1.21875 0.339843,-0.72656246 0.386718,-1.54687496 0.386718,-2.37890626 z M 14.4595,-3.4792422 c 0,0.7851563 0,1.5 -0.117188,2.1679688 -0.164062,0.99609371 -0.761718,1.31249996 -1.230468,1.31249996 -0.410157,0 -1.03125,-0.2578125 -1.21875,-1.26562496 -0.117188,-0.6328125 -0.117188,-1.6054688 -0.117188,-2.2148438 0,-0.6796875 0,-1.3710937 0.08203,-1.9335937 0.210938,-1.2539063 0.996094,-1.3476563 1.253907,-1.3476563 0.351562,0 1.042968,0.1875 1.242187,1.2304688 0.105469,0.5859375 0.105469,1.3828125 0.105469,2.0507812 z m 6.082031,1.3359375 c 0,-1.3359375 -0.925781,-2.34375 -2.097656,-2.34375 -0.714844,0 -1.101563,0.5390625 -1.3125,1.0429688 v -0.2460938 c 0,-2.6601562 1.300781,-3.0351562 1.839844,-3.0351562 0.257812,0 0.691406,0.058594 0.925781,0.421875 -0.164063,0 -0.574219,0 -0.574219,0.46875 0,0.328125 0.246094,0.4804687 0.480469,0.4804687 0.164062,0 0.480469,-0.09375 0.480469,-0.5039062 0,-0.6328125 -0.457032,-1.1367188 -1.335938,-1.1367188 -1.335937,0 -2.753906,1.359375 -2.753906,3.6796875 0,2.80078126 1.21875,3.55078126 2.191406,3.55078126 1.160156,0 2.15625,-0.99609375 2.15625,-2.37890626 z m -0.9375,-0.011719 c 0,0.5039062 0,1.03125 -0.175781,1.40624996 -0.316406,0.6328125 -0.796875,0.69140625 -1.042969,0.69140625 -0.667969,0 -0.972656,-0.6328125 -1.042969,-0.796875 -0.1875,-0.49218751 -0.1875,-1.32421871 -0.1875,-1.51171871 0,-0.8203125 0.339844,-1.875 1.277344,-1.875 0.175781,0 0.65625,0 0.984375,0.65625 0.1875,0.3867187 0.1875,0.9140625 0.1875,1.4296875 z m 6.1875,0.011719 c 0,-1.3359375 -0.925781,-2.34375 -2.097656,-2.34375 -0.714844,0 -1.101563,0.5390625 -1.3125,1.0429688 v -0.2460938 c 0,-2.6601562 1.300781,-3.0351562 1.839844,-3.0351562 0.257812,0 0.691406,0.058594 0.925781,0.421875 -0.164063,0 -0.574219,0 -0.574219,0.46875 0,0.328125 0.246094,0.4804687 0.480469,0.4804687 0.164062,0 0.480469,-0.09375 0.480469,-0.5039062 0,-0.6328125 -0.457032,-1.1367188 -1.335938,-1.1367188 -1.335937,0 -2.753906,1.359375 -2.753906,3.6796875 0,2.80078126 1.21875,3.55078126 2.191406,3.55078126 1.160156,0 2.15625,-0.99609375 2.15625,-2.37890626 z m -0.9375,-0.011719 c 0,0.5039062 0,1.03125 -0.175781,1.40624996 -0.316406,0.6328125 -0.796875,0.69140625 -1.042969,0.69140625 -0.667969,0 -0.972656,-0.6328125 -1.042969,-0.796875 -0.1875,-0.49218751 -0.1875,-1.32421871 -0.1875,-1.51171871 0,-0.8203125 0.339844,-1.875 1.277344,-1.875 0.175781,0 0.65625,0 0.984375,0.65625 0.1875,0.3867187 0.1875,0.9140625 0.1875,1.4296875 z m 6.105469,0.046875 c 0,-1.2539063 -0.855469,-2.296875 -1.992188,-2.296875 -0.503906,0 -0.949218,0.1640625 -1.335937,0.5273437 v -2.0390625 c 0.210937,0.058594 0.5625,0.1289063 0.890625,0.1289063 1.300781,0 2.027344,-0.9492188 2.027344,-1.0898438 0,-0.058594 -0.02344,-0.1171875 -0.105469,-0.1171875 0,0 -0.02344,0 -0.08203,0.035156 -0.210938,0.09375 -0.726563,0.3046875 -1.429688,0.3046875 -0.410156,0 -0.902344,-0.070312 -1.394531,-0.2929688 -0.08203,-0.035156 -0.128906,-0.035156 -0.128906,-0.035156 -0.105469,0 -0.105469,0.082031 -0.105469,0.2578125 v 3.1054687 c 0,0.1875 0,0.2695313 0.152344,0.2695313 0.07031,0 0.09375,-0.035156 0.140625,-0.09375 0.117187,-0.1640625 0.503906,-0.7382813 1.347656,-0.7382813 0.550781,0 0.808594,0.4921875 0.890625,0.6796875 0.175781,0.3867188 0.199219,0.796875 0.199219,1.3242188 0,0.3632812 0,0.9960937 -0.257813,1.42968746 -0.246094,0.41015625 -0.644531,0.69140625 -1.125,0.69140625 -0.761719,0 -1.359375,-0.5625 -1.546875,-1.18359371 0.03516,0.011719 0.07031,0.023437 0.1875,0.023437 0.339844,0 0.527344,-0.2578125 0.527344,-0.515625 0,-0.2460938 -0.1875,-0.515625 -0.527344,-0.515625 -0.152344,0 -0.515625,0.082031 -0.515625,0.5625 0,0.90234371 0.726563,1.92187496 1.898438,1.92187496 1.21875,0 2.285156,-1.0078125 2.285156,-2.34374996 z m 5.25,0.28125 h -0.257813 c -0.05859,0.3164062 -0.128906,0.7734375 -0.234375,0.93749996 -0.07031,0.0820313 -0.761718,0.0820313 -0.996093,0.0820313 H 32.8345 l 1.113281,-1.07812496 c 1.640625,-1.453125 2.261719,-2.015625 2.261719,-3.0703125 0,-1.1953125 -0.9375,-2.0390625 -2.226563,-2.0390625 -1.183593,0 -1.957031,0.9726563 -1.957031,1.8984375 0,0.5976563 0.527344,0.5976563 0.550781,0.5976563 0.1875,0 0.550782,-0.1289063 0.550782,-0.5625 0,-0.2695313 -0.1875,-0.5390625 -0.5625,-0.5390625 -0.08203,0 -0.105469,0 -0.128907,0 0.234375,-0.6796875 0.808594,-1.0664063 1.417969,-1.0664063 0.949219,0 1.40625,0.8554688 1.40625,1.7109375 0,0.84375 -0.527344,1.6757813 -1.101562,2.3203125 l -2.015625,2.24999996 c -0.117188,0.1171875 -0.117188,0.12890625 -0.117188,0.38671875 h 3.890625 z m 0,0"
         style="fill:#d33682;fill-opacity:1;fill-rule:nonzero;stroke:none"
         aria-label="7006652"
         transform="matrix(1.3333333,0,0,1.3333333,103.97067,913.54133)" />
    </g>
  </g>
</svg>
