<?xml version="1.0" encoding="UTF-8" standalone="no"?>
<!-- Created with Inkscape (http://www.inkscape.org/) -->

<svg
   version="1.1"
   id="svg1"
   width="144.63066"
   height="82.878799"
   viewBox="0 0 144.63066 82.878799"
   sodipodi:docname="lp.svg"
   inkscape:version="1.3.2 (091e20ef0f, 2023-11-25, custom)"
   xmlns:inkscape="http://www.inkscape.org/namespaces/inkscape"
   xmlns:sodipodi="http://sodipodi.sourceforge.net/DTD/sodipodi-0.dtd"
   xmlns="http://www.w3.org/2000/svg"
   xmlns:svg="http://www.w3.org/2000/svg">
  <defs
     id="defs1" />
  <sodipodi:namedview
     id="namedview1"
     pagecolor="#ffffff"
     bordercolor="#666666"
     borderopacity="1.0"
     inkscape:showpageshadow="2"
     inkscape:pageopacity="0.0"
     inkscape:pagecheckerboard="0"
     inkscape:deskcolor="#d1d1d1"
     inkscape:zoom="3.5757576"
     inkscape:cx="114.52119"
     inkscape:cy="62.644068"
     inkscape:window-width="3840"
     inkscape:window-height="2346"
     inkscape:window-x="0"
     inkscape:window-y="54"
     inkscape:window-maximized="1"
     inkscape:current-layer="g1">
    <inkscape:page
       x="0"
       y="0"
       inkscape:label="1"
       id="page1"
       width="144.63066"
       height="82.878799"
       margin="0"
       bleed="0" />
  </sodipodi:namedview>
  <g
     id="g1"
     inkscape:groupmode="layer"
     inkscape:label="1"
     transform="translate(-124.14666,-100.67974)">
    <g
       id="g30">
      <path
         id="path2"
         d="M -8.5039,0 H 95.37828"
         style="fill:none;stroke:#586e75;stroke-width:0.3985;stroke-linecap:butt;stroke-linejoin:miter;stroke-miterlimit:10;stroke-dasharray:none;stroke-opacity:1"
         transform="matrix(1.3333333,0,0,-1.3333333,135.604,171.49733)" />
      <path
         id="path3"
         d="M 3.25822,0 0.64348,0.98706 1.50697,0 0.64348,-0.98706 Z"
         style="fill:#586e75;fill-opacity:1;fill-rule:nonzero;stroke:#586e75;stroke-width:0.3985;stroke-linecap:butt;stroke-linejoin:miter;stroke-miterlimit:10;stroke-dasharray:none;stroke-opacity:1"
         transform="matrix(1.3333333,0,0,-1.3333333,260.89856,171.49733)" />
      <path
         id="path4"
         d="m 262.39062,163.76953 c 0,0.14063 -0.0156,0.23438 -0.0625,0.46875 -0.0156,0.0937 -0.0156,0.10938 -0.0312,0.17188 0.10938,0.0469 0.23438,0.0781 0.3125,0.0781 0.25,0 0.53125,-0.20312 0.76563,-0.54687 l 0.54688,-0.85938 0.0781,0.5 c 0.10938,0.625 0.26563,0.90625 0.53125,0.90625 0.17188,0 0.40625,-0.125 0.64063,-0.32812 l 0.35937,-0.32813 -0.0781,-0.14062 c -0.26562,0.21875 -0.4375,0.32812 -0.56249,0.32812 -0.10938,0 -0.20313,-0.0781 -0.28125,-0.21875 -0.0625,-0.14062 -0.14063,-0.40625 -0.17188,-0.625 l -0.14062,-0.73437 0.26562,-0.35938 c 0.34375,-0.48437 0.53125,-0.64062 0.76562,-0.64062 0.10938,0 0.20313,0.0469 0.23438,0.15625 l 0.10937,-0.0312 0.10938,-0.60938 c -0.0937,-0.0625 -0.15625,-0.0781 -0.21875,-0.0781 -0.29688,0 -0.59375,0.26562 -1.04687,0.9375 l -0.26563,0.40625 -0.0469,-0.35938 c -0.0781,-0.71875 -0.28125,-0.98437 -0.71876,-0.98437 -0.1875,0 -0.34375,0.0625 -0.42187,0.15625 l -0.42188,0.60937 0.125,0.0625 c 0.21875,-0.25 0.375,-0.34375 0.51563,-0.34375 0.23437,0 0.39063,0.29688 0.51563,1.01563 l 0.0937,0.45312 -0.29687,0.45313 c -0.3125,0.5 -0.5625,0.73437 -0.76563,0.73437 -0.125,0 -0.20312,-0.0312 -0.21875,-0.0781 l -0.0781,-0.20313 z m 0,0"
         style="fill:#d33682;fill-opacity:1;fill-rule:nonzero;stroke:none;stroke-width:1.33333" />
      <path
         id="path5"
         d="m 266.43359,162.83594 h 0.0781 l 0.85937,-0.39063 c 0,0 0,0 0.0156,0 0.0312,0 0.0469,0.0625 0.0469,0.21875 v 3.21875 c 0,0.34375 -0.0625,0.42188 -0.42187,0.4375 l -0.375,0.0312 v 0.1875 c 1.01562,-0.0156 1.01562,-0.0156 1.09375,-0.0156 0.0781,0 0.23437,0 0.45312,0 0.0781,0.0156 0.3125,0.0156 0.59375,0.0156 v -0.1875 l -0.34375,-0.0312 c -0.375,-0.0156 -0.4375,-0.0937 -0.4375,-0.4375 v -3.9375 l -0.0937,-0.0312 c -0.4375,0.21875 -0.90625,0.42188 -1.5,0.64063 z m 0,0"
         style="fill:#d33682;fill-opacity:1;fill-rule:nonzero;stroke:none;stroke-width:1.33333" />
      <path
         id="path6"
         d="M 0,-8.5039 V 48.60579"
         style="fill:none;stroke:#586e75;stroke-width:0.3985;stroke-linecap:butt;stroke-linejoin:miter;stroke-miterlimit:10;stroke-dasharray:none;stroke-opacity:1"
         transform="matrix(1.3333333,0,0,-1.3333333,135.604,171.49733)" />
      <path
         id="path7"
         d="M 3.25822,0 0.64348,0.98706 1.50697,0 0.64348,-0.98706 Z"
         style="fill:#586e75;fill-opacity:1;fill-rule:nonzero;stroke:#586e75;stroke-width:0.3985;stroke-linecap:butt;stroke-linejoin:miter;stroke-miterlimit:10;stroke-dasharray:none;stroke-opacity:1"
         transform="matrix(0,-1.3333333,-1.3333333,0,135.604,108.56609)" />
      <path
         id="path8"
         d="m 140.91016,103.57032 c 0,0.14062 -0.0156,0.23437 -0.0625,0.46875 -0.0156,0.0937 -0.0156,0.10937 -0.0312,0.17187 0.10937,0.0469 0.23437,0.0781 0.3125,0.0781 0.25,0 0.53125,-0.20313 0.76562,-0.54688 l 0.54688,-0.85937 0.0781,0.5 c 0.10938,0.625 0.26563,0.90625 0.53125,0.90625 0.17188,0 0.40625,-0.125 0.64063,-0.32813 l 0.35937,-0.32812 -0.0781,-0.14063 c -0.26563,0.21875 -0.4375,0.32813 -0.5625,0.32813 -0.10938,0 -0.20313,-0.0781 -0.28125,-0.21875 -0.0625,-0.14063 -0.14063,-0.40625 -0.17188,-0.625 l -0.14062,-0.73438 0.26562,-0.35937 c 0.34375,-0.48438 0.53125,-0.64063 0.76563,-0.64063 0.10937,0 0.20312,0.0469 0.23437,0.15625 l 0.10938,-0.0312 0.10937,-0.60937 c -0.0937,-0.0625 -0.15625,-0.0781 -0.21875,-0.0781 -0.29687,0 -0.59375,0.26563 -1.04687,0.9375 l -0.26563,0.40625 -0.0469,-0.35937 c -0.0781,-0.71875 -0.28125,-0.98438 -0.71875,-0.98438 -0.1875,0 -0.34375,0.0625 -0.42188,0.15625 l -0.42187,0.60938 0.125,0.0625 c 0.21875,-0.25 0.375,-0.34375 0.51562,-0.34375 0.23438,0 0.39063,0.29687 0.51563,1.01562 l 0.0937,0.45313 -0.29688,0.45312 c -0.3125,0.5 -0.5625,0.73438 -0.76562,0.73438 -0.125,0 -0.20313,-0.0312 -0.21875,-0.0781 l -0.0781,-0.20312 z m 0,0"
         style="fill:#d33682;fill-opacity:1;fill-rule:nonzero;stroke:none;stroke-width:1.33333" />
      <path
         id="path9"
         d="m 144.62109,106.06641 v 0.17187 c 1.23438,-0.0156 1.23438,-0.0156 1.48438,-0.0156 0.23437,0 0.23437,0 1.51562,0.0156 -0.0156,-0.14062 -0.0156,-0.20312 -0.0156,-0.29687 0,-0.0781 0,-0.15625 0.0156,-0.29688 -0.76562,0.0312 -1.07812,0.0469 -2.29687,0.0625 l 1.20312,-1.28125 c 0.64063,-0.6875 0.84375,-1.04687 0.84375,-1.54687 0,-0.76563 -0.51562,-1.23438 -1.35937,-1.23438 -0.48438,0 -0.79688,0.14063 -1.125,0.46875 l -0.10938,0.90625 h 0.1875 l 0.0781,-0.3125 c 0.10937,-0.375 0.35937,-0.54687 0.79687,-0.54687 0.57813,0 0.9375,0.35937 0.9375,0.92187 0,0.5 -0.28125,0.98438 -1.03125,1.78125 z m 0,0"
         style="fill:#d33682;fill-opacity:1;fill-rule:nonzero;stroke:none;stroke-width:1.33333" />
      <path
         id="path10"
         d="M 0,0 H 42.5202 V 14.17317 L 0,28.34636 Z"
         style="fill:#dc322f;fill-opacity:0.5;fill-rule:nonzero;stroke:#586e75;stroke-width:0.3985;stroke-linecap:butt;stroke-linejoin:miter;stroke-miterlimit:10;stroke-dasharray:none;stroke-opacity:1;paint-order:stroke fill markers"
         transform="matrix(1.3333333,0,0,-1.3333333,135.604,171.49733)" />
      <path
         id="path11"
         d="M 85.04042,-7.08624 -7.08624,38.97643"
         style="fill:none;stroke:#586e75;stroke-width:0.3985;stroke-linecap:butt;stroke-linejoin:miter;stroke-miterlimit:10;stroke-dasharray:none;stroke-opacity:1"
         transform="matrix(1.3333333,0,0,-1.3333333,135.604,171.49733)" />
      <path
         id="path12"
         d="M 93.54433,-4.25226 -8.5039,46.77248"
         style="fill:none;stroke:#586e75;stroke-width:0.3985;stroke-linecap:butt;stroke-linejoin:miter;stroke-miterlimit:10;stroke-dasharray:none;stroke-opacity:1"
         transform="matrix(1.3333333,0,0,-1.3333333,135.604,171.49733)" />
      <path
         id="path13"
         d="m 186.9414,177.77343 h 0.23438 l 0.125,-0.40625 c 0.0781,-0.25 0.54687,-0.5 0.92187,-0.5 0.48438,0 0.875,0.39063 0.875,0.85938 0,0.54687 -0.4375,1 -0.95312,1 -0.0625,0 -0.14063,0 -0.23438,-0.0156 h -0.10937 l -0.0937,0.39063 0.0469,0.0469 c 0.28125,-0.125 0.42188,-0.17187 0.625,-0.17187 0.60938,0 0.95313,0.39062 0.95313,1.0625 0,0.75 -0.45313,1.23437 -1.125,1.23437 -0.34375,0 -0.64063,-0.10937 -0.85938,-0.3125 -0.17187,-0.15625 -0.26562,-0.32812 -0.40625,-0.71875 l -0.20312,0.0625 c 0.15625,0.45313 0.21875,0.71875 0.25,1.07813 0.39062,0.14062 0.71875,0.1875 0.98437,0.1875 0.59375,0 1.26563,-0.32813 1.67188,-0.8125 0.25,-0.29688 0.375,-0.625 0.375,-0.96875 0,-0.35938 -0.15625,-0.65625 -0.42188,-0.84375 -0.17187,-0.125 -0.34375,-0.1875 -0.71875,-0.25 0.59375,-0.45313 0.8125,-0.79688 0.8125,-1.23438 0,-0.64062 -0.54687,-1.07812 -1.35937,-1.07812 -0.5,0 -0.82813,0.14062 -1.17188,0.48437 z m 0,0"
         style="fill:#d33682;fill-opacity:1;fill-rule:nonzero;stroke:none;stroke-width:1.33333" />
      <path
         id="path14"
         d="m 190.66797,180.78906 c 0,0.14062 -0.0156,0.23437 -0.0625,0.46875 -0.0156,0.0937 -0.0156,0.10937 -0.0312,0.17187 0.10937,0.0469 0.23437,0.0781 0.3125,0.0781 0.25,0 0.53125,-0.20313 0.76562,-0.54688 l 0.54688,-0.85937 0.0781,0.5 c 0.10938,0.625 0.26563,0.90625 0.53125,0.90625 0.17188,0 0.40625,-0.125 0.64063,-0.32813 l 0.35937,-0.32812 -0.0781,-0.14063 c -0.26563,0.21875 -0.4375,0.32813 -0.5625,0.32813 -0.10938,0 -0.20313,-0.0781 -0.28125,-0.21875 -0.0625,-0.14063 -0.14063,-0.40625 -0.17188,-0.625 l -0.14062,-0.73438 0.26562,-0.35937 c 0.34375,-0.48438 0.53125,-0.64063 0.76563,-0.64063 0.10937,0 0.20312,0.0469 0.23437,0.15625 l 0.10937,-0.0312 0.10938,-0.60937 c -0.0937,-0.0625 -0.15625,-0.0781 -0.21875,-0.0781 -0.29688,0 -0.59375,0.26563 -1.04688,0.9375 l -0.26562,0.40625 -0.0469,-0.35937 c -0.0781,-0.71875 -0.28125,-0.98438 -0.71875,-0.98438 -0.1875,0 -0.34375,0.0625 -0.42187,0.15625 l -0.42188,0.60938 0.125,0.0625 c 0.21875,-0.25 0.375,-0.34375 0.51563,-0.34375 0.23437,0 0.39062,0.29687 0.51562,1.01562 l 0.0937,0.45313 -0.29687,0.45312 c -0.3125,0.5 -0.5625,0.73438 -0.76563,0.73438 -0.125,0 -0.20312,-0.0312 -0.21875,-0.0781 l -0.0781,-0.20312 z m 0,0"
         style="fill:#d33682;fill-opacity:1;fill-rule:nonzero;stroke:none;stroke-width:1.33333" />
      <path
         id="path15"
         d="m 194.70703,179.85547 h 0.0781 l 0.85938,-0.39063 c 0,0 0,0 0.0156,0 0.0312,0 0.0469,0.0625 0.0469,0.21875 v 3.21875 c 0,0.34375 -0.0625,0.42188 -0.42188,0.4375 l -0.375,0.0312 v 0.1875 c 1.01563,-0.0156 1.01563,-0.0156 1.09375,-0.0156 0.0781,0 0.23438,0 0.45313,0 0.0781,0.0156 0.3125,0.0156 0.59375,0.0156 v -0.1875 l -0.34375,-0.0312 c -0.375,-0.0156 -0.4375,-0.0937 -0.4375,-0.4375 v -3.9375 l -0.0937,-0.0312 c -0.4375,0.21875 -0.90625,0.42188 -1.5,0.64063 z m 0,0"
         style="fill:#d33682;fill-opacity:1;fill-rule:nonzero;stroke:none;stroke-width:1.33333" />
      <path
         id="path16"
         d="m 202.89843,179.67968 h 2.125 c 0.10938,0 0.26563,0 0.26563,-0.15625 0,-0.15625 -0.15625,-0.15625 -0.26563,-0.15625 h -2.125 v -2.14062 c 0,-0.10938 0,-0.25 -0.15625,-0.25 -0.15625,0 -0.15625,0.14062 -0.15625,0.25 v 2.14062 h -2.125 c -0.10937,0 -0.26562,0 -0.26562,0.15625 0,0.15625 0.15625,0.15625 0.26562,0.15625 h 2.125 v 2.125 c 0,0.10938 0,0.26563 0.15625,0.26563 0.15625,0 0.15625,-0.15625 0.15625,-0.26563 z m 0,0"
         style="fill:#d33682;fill-opacity:1;fill-rule:nonzero;stroke:none;stroke-width:1.33333" />
      <path
         id="path17"
         d="m 210.27734,176.50781 -0.26563,-0.125 c -0.70312,0.23437 -1.01562,0.375 -1.375,0.70312 -0.76562,0.64063 -1.17187,1.53125 -1.17187,2.53125 0,1.21875 0.59375,1.95313 1.53125,1.95313 0.95312,0 1.65625,-0.75 1.65625,-1.75 0,-0.84375 -0.5,-1.39063 -1.28125,-1.39063 -0.35938,0 -0.57812,0.0937 -1.01562,0.4375 -0.0781,0.0781 -0.0781,0.0781 -0.17188,0.14063 0.15625,-1.32813 0.78125,-2.04688 2.09375,-2.4375 z m -1.17187,2.35937 c 0.54687,0 0.92187,0.48438 0.92187,1.21875 0,0.75 -0.375,1.25 -0.9375,1.25 -0.625,0 -0.95313,-0.53125 -0.95313,-1.51562 0,-0.26563 0.0313,-0.40625 0.10938,-0.51563 0.15625,-0.25 0.5,-0.4375 0.85938,-0.4375 z m 0,0"
         style="fill:#d33682;fill-opacity:1;fill-rule:nonzero;stroke:none;stroke-width:1.33333" />
      <path
         id="path18"
         d="m 211.26953,180.78906 c 0,0.14062 -0.0156,0.23437 -0.0625,0.46875 -0.0156,0.0937 -0.0156,0.10937 -0.0312,0.17187 0.10937,0.0469 0.23437,0.0781 0.3125,0.0781 0.25,0 0.53125,-0.20313 0.76563,-0.54688 l 0.54687,-0.85937 0.0781,0.5 c 0.10937,0.625 0.26562,0.90625 0.53125,0.90625 0.17187,0 0.40625,-0.125 0.64062,-0.32813 l 0.35938,-0.32812 -0.0781,-0.14063 c -0.26562,0.21875 -0.4375,0.32813 -0.5625,0.32813 -0.10937,0 -0.20312,-0.0781 -0.28125,-0.21875 -0.0625,-0.14063 -0.14063,-0.40625 -0.17187,-0.625 l -0.14063,-0.73438 0.26563,-0.35937 c 0.34374,-0.48438 0.53124,-0.64063 0.76562,-0.64063 0.10937,0 0.20312,0.0469 0.23438,0.15625 l 0.10937,-0.0312 0.10937,-0.60937 c -0.0937,-0.0625 -0.15625,-0.0781 -0.21875,-0.0781 -0.29687,0 -0.59375,0.26563 -1.04687,0.9375 l -0.26563,0.40625 -0.0469,-0.35937 c -0.0781,-0.71875 -0.28125,-0.98438 -0.71875,-0.98438 -0.1875,0 -0.34375,0.0625 -0.42187,0.15625 l -0.42188,0.60938 0.125,0.0625 c 0.21875,-0.25 0.375,-0.34375 0.51563,-0.34375 0.23437,0 0.39062,0.29687 0.51562,1.01562 l 0.0937,0.45313 -0.29687,0.45312 c -0.3125,0.5 -0.5625,0.73438 -0.76563,0.73438 -0.125,0 -0.20312,-0.0312 -0.21875,-0.0781 l -0.0781,-0.20312 z m 0,0"
         style="fill:#d33682;fill-opacity:1;fill-rule:nonzero;stroke:none;stroke-width:1.33333" />
      <path
         id="path19"
         d="m 214.98047,183.28515 v 0.17188 c 1.23437,-0.0156 1.23437,-0.0156 1.48437,-0.0156 0.23437,0 0.23437,0 1.51563,0.0156 -0.0156,-0.14063 -0.0156,-0.20313 -0.0156,-0.29688 0,-0.0781 0,-0.15625 0.0156,-0.29687 -0.76563,0.0312 -1.07813,0.0469 -2.29688,0.0625 l 1.20312,-1.28125 c 0.64063,-0.6875 0.84376,-1.04688 0.84376,-1.54688 0,-0.76562 -0.51563,-1.23437 -1.35938,-1.23437 -0.48438,0 -0.79688,0.14062 -1.125,0.46875 l -0.10937,0.90625 h 0.1875 l 0.0781,-0.3125 c 0.10937,-0.375 0.35937,-0.54688 0.79687,-0.54688 0.57813,0 0.9375,0.35938 0.9375,0.92188 0,0.5 -0.28125,0.98437 -1.03125,1.78125 z m 0,0"
         style="fill:#d33682;fill-opacity:1;fill-rule:nonzero;stroke:none;stroke-width:1.33333" />
      <path
         id="path20"
         d="m 226.23437,178.92968 c 0.10937,0 0.26563,0 0.26563,-0.15625 0,-0.14062 -0.15625,-0.14062 -0.26563,-0.14062 h -4.5625 c -0.10937,0 -0.26562,0 -0.26562,0.14062 0,0.15625 0.15625,0.15625 0.26562,0.15625 z m 0,1.48438 c 0.10937,0 0.26563,0 0.26563,-0.15625 0,-0.15625 -0.15625,-0.15625 -0.26563,-0.15625 h -4.5625 c -0.10937,0 -0.26562,0 -0.26562,0.15625 0,0.15625 0.15625,0.15625 0.26562,0.15625 z m 0,0"
         style="fill:#d33682;fill-opacity:1;fill-rule:nonzero;stroke:none;stroke-width:1.33333" />
      <path
         id="path21"
         d="m 229.99218,176.99218 c 0.9375,0.0312 1.34375,0.0469 2.23438,0.0469 l 0.0312,-0.0469 c -0.0156,-0.125 -0.0156,-0.1875 -0.0156,-0.28125 0,-0.10937 0,-0.15625 0.0156,-0.29687 l -0.0312,-0.0312 c -0.5625,0.0312 -0.89063,0.0312 -1.28125,0.0312 -0.40625,0 -0.71875,0 -1.28125,-0.0312 l -0.0313,0.0312 c 0.0156,0.45312 0.0156,0.76562 0.0156,1 0,0.625 -0.0156,1.32812 -0.0469,1.65625 l 0.15625,0.0469 c 0.34375,-0.34375 0.53125,-0.45312 0.89063,-0.45312 0.70312,0 1.14062,0.5 1.14062,1.29687 0,0.8125 -0.46875,1.28125 -1.26562,1.28125 -0.39063,0 -0.76563,-0.125 -0.85938,-0.3125 l -0.34375,-0.60937 -0.17187,0.10937 c 0.17187,0.40625 0.26562,0.64063 0.35937,0.96875 0.20313,0.10938 0.5,0.17188 0.8125,0.17188 0.5,0 1.01563,-0.20313 1.42188,-0.5625 0.4375,-0.39063 0.67187,-0.89063 0.67187,-1.4375 0,-0.82813 -0.59375,-1.40625 -1.42187,-1.40625 -0.35938,0 -0.625,0.0937 -1.07813,0.35937 z m 0,0"
         style="fill:#d33682;fill-opacity:1;fill-rule:nonzero;stroke:none;stroke-width:1.33333" />
      <path
         id="path22"
         d="m 214.55078,146.58984 h 0.23437 l 0.125,-0.40625 c 0.0781,-0.25 0.54688,-0.5 0.92188,-0.5 0.48437,0 0.875,0.39063 0.875,0.85938 0,0.54687 -0.4375,1 -0.95313,1 -0.0625,0 -0.14062,0 -0.23437,-0.0156 h -0.10938 l -0.0937,0.39063 0.0469,0.0469 c 0.28125,-0.125 0.42187,-0.17187 0.625,-0.17187 0.60937,0 0.95312,0.39062 0.95312,1.0625 0,0.75 -0.45312,1.23437 -1.125,1.23437 -0.34375,0 -0.64062,-0.10937 -0.85937,-0.3125 -0.17188,-0.15625 -0.26563,-0.32812 -0.40625,-0.71875 l -0.20313,0.0625 c 0.15625,0.45313 0.21875,0.71875 0.25,1.07813 0.39063,0.14062 0.71875,0.1875 0.98438,0.1875 0.59375,0 1.26562,-0.32813 1.67187,-0.8125 0.25,-0.29688 0.375,-0.625 0.375,-0.96875 0,-0.35938 -0.15625,-0.65625 -0.42187,-0.84375 -0.17188,-0.125 -0.34375,-0.1875 -0.71875,-0.25 0.59375,-0.45313 0.8125,-0.79688 0.8125,-1.23438 0,-0.64062 -0.54688,-1.07812 -1.35938,-1.07812 -0.5,0 -0.82812,0.14062 -1.17187,0.48437 z m 0,0"
         style="fill:#d33682;fill-opacity:1;fill-rule:nonzero;stroke:none;stroke-width:1.33333" />
      <path
         id="path23"
         d="m 218.27734,149.60547 c 0,0.14062 -0.0156,0.23437 -0.0625,0.46875 -0.0156,0.0937 -0.0156,0.10937 -0.0312,0.17187 0.10938,0.0469 0.23438,0.0781 0.3125,0.0781 0.25,0 0.53125,-0.20313 0.76563,-0.54688 l 0.54687,-0.85937 0.0781,0.5 c 0.10937,0.625 0.26562,0.90625 0.53125,0.90625 0.17187,0 0.40625,-0.125 0.64062,-0.32813 l 0.35938,-0.32812 -0.0781,-0.14063 c -0.26562,0.21875 -0.4375,0.32813 -0.5625,0.32813 -0.10937,0 -0.20312,-0.0781 -0.28125,-0.21875 -0.0625,-0.14063 -0.14062,-0.40625 -0.17187,-0.625 l -0.14063,-0.73438 0.26563,-0.35937 c 0.34375,-0.48438 0.53125,-0.64063 0.76562,-0.64063 0.10937,0 0.20313,0.0469 0.23438,0.15625 l 0.10937,-0.0312 0.10937,-0.60937 c -0.0937,-0.0625 -0.15625,-0.0781 -0.21875,-0.0781 -0.29687,0 -0.59375,0.26563 -1.04687,0.9375 l -0.26563,0.40625 -0.0469,-0.35937 c -0.0781,-0.71875 -0.28125,-0.98438 -0.71875,-0.98438 -0.1875,0 -0.34375,0.0625 -0.42187,0.15625 l -0.42188,0.60938 0.125,0.0625 c 0.21875,-0.25 0.375,-0.34375 0.51563,-0.34375 0.23437,0 0.39062,0.29687 0.51562,1.01562 l 0.0937,0.45313 -0.29688,0.45312 c -0.3125,0.5 -0.5625,0.73438 -0.76562,0.73438 -0.125,0 -0.20313,-0.0312 -0.21875,-0.0781 l -0.0781,-0.20312 z m 0,0"
         style="fill:#d33682;fill-opacity:1;fill-rule:nonzero;stroke:none;stroke-width:1.33333" />
      <path
         id="path24"
         d="m 222.3164,148.67578 h 0.0781 l 0.85937,-0.39062 c 0,0 0,0 0.0156,0 0.0312,0 0.0469,0.0625 0.0469,0.21875 v 3.21875 c 0,0.34375 -0.0625,0.42187 -0.42187,0.4375 l -0.375,0.0312 v 0.1875 c 1.01562,-0.0156 1.01562,-0.0156 1.09375,-0.0156 0.0781,0 0.23437,0 0.45312,0 0.0781,0.0156 0.3125,0.0156 0.59375,0.0156 v -0.1875 l -0.34375,-0.0312 c -0.375,-0.0156 -0.4375,-0.0937 -0.4375,-0.4375 v -3.9375 l -0.0937,-0.0312 c -0.4375,0.21875 -0.90625,0.42187 -1.5,0.64062 z m 0,0"
         style="fill:#d33682;fill-opacity:1;fill-rule:nonzero;stroke:none;stroke-width:1.33333" />
      <path
         id="path25"
         d="m 230.50781,148.49609 h 2.125 c 0.10937,0 0.26562,0 0.26562,-0.15625 0,-0.15625 -0.15625,-0.15625 -0.26562,-0.15625 h -2.125 v -2.14062 c 0,-0.10938 0,-0.25 -0.15625,-0.25 -0.15625,0 -0.15625,0.14062 -0.15625,0.25 v 2.14062 h -2.125 c -0.10938,0 -0.26563,0 -0.26563,0.15625 0,0.15625 0.15625,0.15625 0.26563,0.15625 h 2.125 v 2.125 c 0,0.10938 0,0.26563 0.15625,0.26563 0.15625,0 0.15625,-0.15625 0.15625,-0.26563 z m 0,0"
         style="fill:#d33682;fill-opacity:1;fill-rule:nonzero;stroke:none;stroke-width:1.33333" />
      <path
         id="path26"
         d="m 237.88671,145.32422 -0.26562,-0.125 c -0.70312,0.23437 -1.01562,0.375 -1.375,0.70312 -0.76562,0.64063 -1.17188,1.53125 -1.17188,2.53125 0,1.21875 0.59376,1.95313 1.53126,1.95313 0.95312,0 1.65624,-0.75 1.65624,-1.75 0,-0.84375 -0.5,-1.39063 -1.28124,-1.39063 -0.35938,0 -0.57813,0.0937 -1.01563,0.4375 -0.0781,0.0781 -0.0781,0.0781 -0.17187,0.14063 0.15624,-1.32813 0.78124,-2.04688 2.09374,-2.4375 z m -1.17187,2.35937 c 0.54687,0 0.92187,0.48438 0.92187,1.21875 0,0.75 -0.375,1.25 -0.9375,1.25 -0.625,0 -0.95312,-0.53125 -0.95312,-1.51562 0,-0.26563 0.0312,-0.40625 0.10937,-0.51563 0.15625,-0.25 0.5,-0.4375 0.85938,-0.4375 z m 0,0"
         style="fill:#d33682;fill-opacity:1;fill-rule:nonzero;stroke:none;stroke-width:1.33333" />
      <path
         id="path27"
         d="m 238.8789,149.60547 c 0,0.14062 -0.0156,0.23437 -0.0625,0.46875 -0.0156,0.0937 -0.0156,0.10937 -0.0312,0.17187 0.10937,0.0469 0.23437,0.0781 0.3125,0.0781 0.25,0 0.53125,-0.20313 0.76562,-0.54688 l 0.54688,-0.85937 0.0781,0.5 c 0.10937,0.625 0.26562,0.90625 0.53125,0.90625 0.17187,0 0.40625,-0.125 0.64062,-0.32813 l 0.35938,-0.32812 -0.0781,-0.14063 c -0.26563,0.21875 -0.4375,0.32813 -0.5625,0.32813 -0.10938,0 -0.20313,-0.0781 -0.28126,-0.21875 -0.0625,-0.14063 -0.14062,-0.40625 -0.17187,-0.625 l -0.14063,-0.73438 0.26563,-0.35937 c 0.34375,-0.48438 0.53125,-0.64063 0.76563,-0.64063 0.10937,0 0.20312,0.0469 0.23437,0.15625 l 0.10937,-0.0312 0.10938,-0.60937 c -0.0937,-0.0625 -0.15625,-0.0781 -0.21875,-0.0781 -0.29688,0 -0.59375,0.26563 -1.04688,0.9375 l -0.26562,0.40625 -0.0469,-0.35937 c -0.0781,-0.71875 -0.28125,-0.98438 -0.71875,-0.98438 -0.1875,0 -0.34375,0.0625 -0.42188,0.15625 l -0.42187,0.60938 0.125,0.0625 c 0.21875,-0.25 0.375,-0.34375 0.51562,-0.34375 0.23438,0 0.39063,0.29687 0.51563,1.01562 l 0.0937,0.45313 -0.29687,0.45312 c -0.3125,0.5 -0.5625,0.73438 -0.76563,0.73438 -0.125,0 -0.20312,-0.0312 -0.21875,-0.0781 l -0.0781,-0.20312 z m 0,0"
         style="fill:#d33682;fill-opacity:1;fill-rule:nonzero;stroke:none;stroke-width:1.33333" />
      <path
         id="path28"
         d="m 242.58984,152.10547 v 0.17187 c 1.23437,-0.0156 1.23437,-0.0156 1.48437,-0.0156 0.23438,0 0.23438,0 1.51563,0.0156 -0.0156,-0.14062 -0.0156,-0.20312 -0.0156,-0.29687 0,-0.0781 0,-0.15625 0.0156,-0.29688 -0.76563,0.0312 -1.07813,0.0469 -2.29687,0.0625 l 1.20312,-1.28125 c 0.64062,-0.6875 0.84375,-1.04687 0.84375,-1.54687 0,-0.76563 -0.51563,-1.23438 -1.35937,-1.23438 -0.48438,0 -0.79688,0.14063 -1.125,0.46875 l -0.10938,0.90625 h 0.1875 l 0.0781,-0.3125 c 0.10938,-0.375 0.35938,-0.54687 0.79688,-0.54687 0.57812,0 0.9375,0.35937 0.9375,0.92187 0,0.5 -0.28125,0.98438 -1.03125,1.78125 z m 0,0"
         style="fill:#d33682;fill-opacity:1;fill-rule:nonzero;stroke:none;stroke-width:1.33333" />
      <path
         id="path29"
         d="m 253.84375,147.74609 c 0.10937,0 0.26562,0 0.26562,-0.15625 0,-0.14062 -0.15625,-0.14062 -0.26562,-0.14062 h -4.5625 c -0.10938,0 -0.26563,0 -0.26563,0.14062 0,0.15625 0.15625,0.15625 0.26563,0.15625 z m 0,1.48438 c 0.10937,0 0.26562,0 0.26562,-0.15625 0,-0.15625 -0.15625,-0.15625 -0.26562,-0.15625 h -4.5625 c -0.10938,0 -0.26563,0 -0.26563,0.15625 0,0.15625 0.15625,0.15625 0.26563,0.15625 z m 0,0"
         style="fill:#d33682;fill-opacity:1;fill-rule:nonzero;stroke:none;stroke-width:1.33333" />
      <path
         id="path30"
         d="m 259.71093,145.32422 -0.26562,-0.125 c -0.70313,0.23437 -1.01563,0.375 -1.375,0.70312 -0.76563,0.64063 -1.17188,1.53125 -1.17188,2.53125 0,1.21875 0.59375,1.95313 1.53125,1.95313 0.95313,0 1.65625,-0.75 1.65625,-1.75 0,-0.84375 -0.5,-1.39063 -1.28125,-1.39063 -0.35937,0 -0.57812,0.0937 -1.01562,0.4375 -0.0781,0.0781 -0.0781,0.0781 -0.17188,0.14063 0.15625,-1.32813 0.78125,-2.04688 2.09375,-2.4375 z m -1.17187,2.35937 c 0.54687,0 0.92187,0.48438 0.92187,1.21875 0,0.75 -0.375,1.25 -0.9375,1.25 -0.625,0 -0.95312,-0.53125 -0.95312,-1.51562 0,-0.26563 0.0312,-0.40625 0.10937,-0.51563 0.15625,-0.25 0.5,-0.4375 0.85938,-0.4375 z m 0,0"
         style="fill:#d33682;fill-opacity:1;fill-rule:nonzero;stroke:none;stroke-width:1.33333" />
    </g>
  </g>
</svg>
