<?xml version="1.0" encoding="UTF-8" standalone="no"?>
<!-- Created with Inkscape (http://www.inkscape.org/) -->

<svg
   version="1.1"
   id="svg1"
   width="424.17841"
   height="305.73453"
   viewBox="0 0 424.17841 305.73453"
   sodipodi:docname="matching.svg"
   inkscape:version="1.4 (e7c3feb100, 2024-10-09)"
   xmlns:inkscape="http://www.inkscape.org/namespaces/inkscape"
   xmlns:sodipodi="http://sodipodi.sourceforge.net/DTD/sodipodi-0.dtd"
   xmlns="http://www.w3.org/2000/svg"
   xmlns:svg="http://www.w3.org/2000/svg">
  <defs
     id="defs1" />
  <sodipodi:namedview
     id="namedview1"
     pagecolor="#ffffff"
     bordercolor="#666666"
     borderopacity="1.0"
     inkscape:showpageshadow="2"
     inkscape:pageopacity="0.0"
     inkscape:pagecheckerboard="0"
     inkscape:deskcolor="#d1d1d1"
     inkscape:zoom="1.28"
     inkscape:cx="142.1875"
     inkscape:cy="233.98438"
     inkscape:window-width="3840"
     inkscape:window-height="2346"
     inkscape:window-x="0"
     inkscape:window-y="54"
     inkscape:window-maximized="1"
     inkscape:current-layer="g1">
    <inkscape:page
       x="0"
       y="0"
       inkscape:label="1"
       id="page1"
       width="424.17841"
       height="305.73453"
       margin="0"
       bleed="0" />
  </sodipodi:namedview>
  <g
     id="g1"
     inkscape:groupmode="layer"
     inkscape:label="1"
     transform="translate(-195.91397,-95.999306)">
    <g
       id="g40">
      <path
         id="path2"
         d="M 11.33876,0 C 11.33876,6.2623 6.2623,11.33876 0,11.33876 -6.2623,11.33876 -11.33876,6.2623 -11.33876,0 c 0,-6.2623 5.07646,-11.33876 11.33876,-11.33876 6.2623,0 11.33876,5.07646 11.33876,11.33876 z"
         style="fill:#eee8d5;fill-opacity:1;fill-rule:nonzero;stroke:#586e75;stroke-width:1.19553;stroke-linecap:butt;stroke-linejoin:miter;stroke-miterlimit:10;stroke-dasharray:none;stroke-opacity:1"
         transform="matrix(1.3333333,0,0,-1.3333333,211.82933,111.91467)" />
      <path
         id="path3"
         d="m 107.17186,-25.67848 c 0,6.26231 -5.07646,11.33876 -11.33876,11.33876 -6.2623,0 -11.33876,-5.07645 -11.33876,-11.33876 0,-6.2623 5.07646,-11.33876 11.33876,-11.33876 6.2623,0 11.33876,5.07646 11.33876,11.33876 z"
         style="fill:#eee8d5;fill-opacity:1;fill-rule:nonzero;stroke:#586e75;stroke-width:1.19553;stroke-linecap:butt;stroke-linejoin:miter;stroke-miterlimit:10;stroke-dasharray:none;stroke-opacity:1"
         transform="matrix(1.3333333,0,0,-1.3333333,211.82933,111.91467)" />
      <path
         id="path4"
         d="m 11.33876,-51.35696 c 0,6.26231 -5.07646,11.33876 -11.33876,11.33876 -6.2623,0 -11.33876,-5.07645 -11.33876,-11.33876 0,-6.2623 5.07646,-11.33876 11.33876,-11.33876 6.2623,0 11.33876,5.07646 11.33876,11.33876 z"
         style="fill:#eee8d5;fill-opacity:1;fill-rule:nonzero;stroke:#586e75;stroke-width:1.19553;stroke-linecap:butt;stroke-linejoin:miter;stroke-miterlimit:10;stroke-dasharray:none;stroke-opacity:1"
         transform="matrix(1.3333333,0,0,-1.3333333,211.82933,111.91467)" />
      <path
         id="path5"
         d="m 107.17186,-77.03545 c 0,6.26232 -5.07646,11.33876 -11.33876,11.33876 -6.2623,0 -11.33876,-5.07644 -11.33876,-11.33876 0,-6.26229 5.07646,-11.33875 11.33876,-11.33875 6.2623,0 11.33876,5.07646 11.33876,11.33875 z"
         style="fill:#eee8d5;fill-opacity:1;fill-rule:nonzero;stroke:#586e75;stroke-width:1.19553;stroke-linecap:butt;stroke-linejoin:miter;stroke-miterlimit:10;stroke-dasharray:none;stroke-opacity:1"
         transform="matrix(1.3333333,0,0,-1.3333333,211.82933,111.91467)" />
      <path
         id="path6"
         d="m 11.33876,-102.71393 c 0,6.26232 -5.07646,11.33876 -11.33876,11.33876 -6.2623,0 -11.33876,-5.07644 -11.33876,-11.33876 0,-6.2623 5.07646,-11.33876 11.33876,-11.33876 6.2623,0 11.33876,5.07646 11.33876,11.33876 z"
         style="fill:#eee8d5;fill-opacity:1;fill-rule:nonzero;stroke:#586e75;stroke-width:1.19553;stroke-linecap:butt;stroke-linejoin:miter;stroke-miterlimit:10;stroke-dasharray:none;stroke-opacity:1"
         transform="matrix(1.3333333,0,0,-1.3333333,211.82933,111.91467)" />
      <path
         id="path7"
         d="m 107.17186,-128.39241 c 0,6.26231 -5.07646,11.33876 -11.33876,11.33876 -6.2623,0 -11.33876,-5.07645 -11.33876,-11.33876 0,-6.2623 5.07646,-11.33876 11.33876,-11.33876 6.2623,0 11.33876,5.07646 11.33876,11.33876 z"
         style="fill:#eee8d5;fill-opacity:1;fill-rule:nonzero;stroke:#586e75;stroke-width:1.19553;stroke-linecap:butt;stroke-linejoin:miter;stroke-miterlimit:10;stroke-dasharray:none;stroke-opacity:1"
         transform="matrix(1.3333333,0,0,-1.3333333,211.82933,111.91467)" />
      <path
         id="path8"
         d="m 11.33876,-154.07089 c 0,6.26231 -5.07646,11.33876 -11.33876,11.33876 -6.2623,0 -11.33876,-5.07645 -11.33876,-11.33876 0,-6.2623 5.07646,-11.33876 11.33876,-11.33876 6.2623,0 11.33876,5.07646 11.33876,11.33876 z"
         style="fill:#eee8d5;fill-opacity:1;fill-rule:nonzero;stroke:#586e75;stroke-width:1.19553;stroke-linecap:butt;stroke-linejoin:miter;stroke-miterlimit:10;stroke-dasharray:none;stroke-opacity:1"
         transform="matrix(1.3333333,0,0,-1.3333333,211.82933,111.91467)" />
      <path
         id="path9"
         d="m 107.17186,-179.74937 c 0,6.26231 -5.07646,11.33876 -11.33876,11.33876 -6.2623,0 -11.33876,-5.07645 -11.33876,-11.33876 0,-6.2623 5.07646,-11.33876 11.33876,-11.33876 6.2623,0 11.33876,5.07646 11.33876,11.33876 z"
         style="fill:#eee8d5;fill-opacity:1;fill-rule:nonzero;stroke:#586e75;stroke-width:1.19553;stroke-linecap:butt;stroke-linejoin:miter;stroke-miterlimit:10;stroke-dasharray:none;stroke-opacity:1"
         transform="matrix(1.3333333,0,0,-1.3333333,211.82933,111.91467)" />
      <path
         id="path10"
         d="m 11.33876,-205.42786 c 0,6.26232 -5.07646,11.33876 -11.33876,11.33876 -6.2623,0 -11.33876,-5.07644 -11.33876,-11.33876 0,-6.2623 5.07646,-11.33876 11.33876,-11.33876 6.2623,0 11.33876,5.07646 11.33876,11.33876 z"
         style="fill:#eee8d5;fill-opacity:1;fill-rule:nonzero;stroke:#586e75;stroke-width:1.19553;stroke-linecap:butt;stroke-linejoin:miter;stroke-miterlimit:10;stroke-dasharray:none;stroke-opacity:1"
         transform="matrix(1.3333333,0,0,-1.3333333,211.82933,111.91467)" />
      <path
         id="path11"
         d="M 11.52962,-48.26756 84.3033,-28.7675"
         style="fill:none;stroke:#268bd2;stroke-width:5.66934;stroke-linecap:butt;stroke-linejoin:miter;stroke-miterlimit:10;stroke-dasharray:none;stroke-opacity:0.6"
         transform="matrix(1.3333333,0,0,-1.3333333,211.82933,111.91467)" />
      <path
         id="path12"
         d="M 11.52962,-105.80331 84.3033,-125.30338"
         style="fill:none;stroke:#268bd2;stroke-width:5.66934;stroke-linecap:butt;stroke-linejoin:miter;stroke-miterlimit:10;stroke-dasharray:none;stroke-opacity:0.6"
         transform="matrix(1.3333333,0,0,-1.3333333,211.82933,111.91467)" />
      <path
         id="path13"
         d="M 11.52962,-3.08939 84.3033,-22.58945"
         style="fill:none;stroke:#586e75;stroke-width:1.19553;stroke-linecap:butt;stroke-linejoin:miter;stroke-miterlimit:10;stroke-dasharray:none;stroke-opacity:1"
         transform="matrix(1.3333333,0,0,-1.3333333,211.82933,111.91467)" />
      <path
         id="path14"
         d="M 11.52962,-48.26756 84.3033,-28.7675"
         style="fill:none;stroke:#586e75;stroke-width:1.19553;stroke-linecap:butt;stroke-linejoin:miter;stroke-miterlimit:10;stroke-dasharray:none;stroke-opacity:1"
         transform="matrix(1.3333333,0,0,-1.3333333,211.82933,111.91467)" />
      <path
         id="path15"
         d="m 9.3028,-58.83513 77.22749,-62.0791"
         style="fill:none;stroke:#586e75;stroke-width:1.19553;stroke-linecap:butt;stroke-linejoin:miter;stroke-miterlimit:10;stroke-dasharray:none;stroke-opacity:1"
         transform="matrix(1.3333333,0,0,-1.3333333,211.82933,111.91467)" />
      <path
         id="path16"
         d="M 11.52962,-99.62453 84.3033,-80.12447"
         style="fill:none;stroke:#586e75;stroke-width:1.19553;stroke-linecap:butt;stroke-linejoin:miter;stroke-miterlimit:10;stroke-dasharray:none;stroke-opacity:1"
         transform="matrix(1.3333333,0,0,-1.3333333,211.82933,111.91467)" />
      <path
         id="path17"
         d="M 11.52962,-105.80331 84.3033,-125.30338"
         style="fill:none;stroke:#586e75;stroke-width:1.19553;stroke-linecap:butt;stroke-linejoin:miter;stroke-miterlimit:10;stroke-dasharray:none;stroke-opacity:1"
         transform="matrix(1.3333333,0,0,-1.3333333,211.82933,111.91467)" />
      <path
         id="path18"
         d="m 9.3028,-110.1921 77.22749,-62.0791"
         style="fill:none;stroke:#586e75;stroke-width:1.19553;stroke-linecap:butt;stroke-linejoin:miter;stroke-miterlimit:10;stroke-dasharray:none;stroke-opacity:1"
         transform="matrix(1.3333333,0,0,-1.3333333,211.82933,111.91467)" />
      <path
         id="path19"
         d="m 11.52962,-150.98149 72.77368,19.50006"
         style="fill:none;stroke:#586e75;stroke-width:1.19553;stroke-linecap:butt;stroke-linejoin:miter;stroke-miterlimit:10;stroke-dasharray:none;stroke-opacity:1"
         transform="matrix(1.3333333,0,0,-1.3333333,211.82933,111.91467)" />
      <path
         id="path20"
         d="m 9.3028,-197.94968 77.22749,62.07911"
         style="fill:none;stroke:#586e75;stroke-width:1.19553;stroke-linecap:butt;stroke-linejoin:miter;stroke-miterlimit:10;stroke-dasharray:none;stroke-opacity:1"
         transform="matrix(1.3333333,0,0,-1.3333333,211.82933,111.91467)" />
      <path
         id="path21"
         d="m 209.76642,0 c 0,6.2623 -5.07645,11.33876 -11.33876,11.33876 -6.2623,0 -11.33876,-5.07646 -11.33876,-11.33876 0,-6.2623 5.07646,-11.33876 11.33876,-11.33876 6.26231,0 11.33876,5.07646 11.33876,11.33876 z"
         style="fill:#eee8d5;fill-opacity:1;fill-rule:nonzero;stroke:#586e75;stroke-width:1.19553;stroke-linecap:butt;stroke-linejoin:miter;stroke-miterlimit:10;stroke-dasharray:none;stroke-opacity:1"
         transform="matrix(1.3333333,0,0,-1.3333333,211.82933,111.91467)" />
      <path
         id="path22"
         d="m 305.59953,-25.67848 c 0,6.26231 -5.07646,11.33876 -11.33876,11.33876 -6.26231,0 -11.33876,-5.07645 -11.33876,-11.33876 0,-6.2623 5.07645,-11.33876 11.33876,-11.33876 6.2623,0 11.33876,5.07646 11.33876,11.33876 z"
         style="fill:#eee8d5;fill-opacity:1;fill-rule:nonzero;stroke:#586e75;stroke-width:1.19553;stroke-linecap:butt;stroke-linejoin:miter;stroke-miterlimit:10;stroke-dasharray:none;stroke-opacity:1"
         transform="matrix(1.3333333,0,0,-1.3333333,211.82933,111.91467)" />
      <path
         id="path23"
         d="m 209.76642,-51.35696 c 0,6.26231 -5.07645,11.33876 -11.33876,11.33876 -6.2623,0 -11.33876,-5.07645 -11.33876,-11.33876 0,-6.2623 5.07646,-11.33876 11.33876,-11.33876 6.26231,0 11.33876,5.07646 11.33876,11.33876 z"
         style="fill:#eee8d5;fill-opacity:1;fill-rule:nonzero;stroke:#586e75;stroke-width:1.19553;stroke-linecap:butt;stroke-linejoin:miter;stroke-miterlimit:10;stroke-dasharray:none;stroke-opacity:1"
         transform="matrix(1.3333333,0,0,-1.3333333,211.82933,111.91467)" />
      <path
         id="path24"
         d="m 305.59953,-77.03545 c 0,6.26232 -5.07646,11.33876 -11.33876,11.33876 -6.26231,0 -11.33876,-5.07644 -11.33876,-11.33876 0,-6.26229 5.07645,-11.33875 11.33876,-11.33875 6.2623,0 11.33876,5.07646 11.33876,11.33875 z"
         style="fill:#eee8d5;fill-opacity:1;fill-rule:nonzero;stroke:#586e75;stroke-width:1.19553;stroke-linecap:butt;stroke-linejoin:miter;stroke-miterlimit:10;stroke-dasharray:none;stroke-opacity:1"
         transform="matrix(1.3333333,0,0,-1.3333333,211.82933,111.91467)" />
      <path
         id="path25"
         d="m 209.76642,-102.71393 c 0,6.26232 -5.07645,11.33876 -11.33876,11.33876 -6.2623,0 -11.33876,-5.07644 -11.33876,-11.33876 0,-6.2623 5.07646,-11.33876 11.33876,-11.33876 6.26231,0 11.33876,5.07646 11.33876,11.33876 z"
         style="fill:#eee8d5;fill-opacity:1;fill-rule:nonzero;stroke:#586e75;stroke-width:1.19553;stroke-linecap:butt;stroke-linejoin:miter;stroke-miterlimit:10;stroke-dasharray:none;stroke-opacity:1"
         transform="matrix(1.3333333,0,0,-1.3333333,211.82933,111.91467)" />
      <path
         id="path26"
         d="m 305.59953,-128.39241 c 0,6.26231 -5.07646,11.33876 -11.33876,11.33876 -6.26231,0 -11.33876,-5.07645 -11.33876,-11.33876 0,-6.2623 5.07645,-11.33876 11.33876,-11.33876 6.2623,0 11.33876,5.07646 11.33876,11.33876 z"
         style="fill:#eee8d5;fill-opacity:1;fill-rule:nonzero;stroke:#586e75;stroke-width:1.19553;stroke-linecap:butt;stroke-linejoin:miter;stroke-miterlimit:10;stroke-dasharray:none;stroke-opacity:1"
         transform="matrix(1.3333333,0,0,-1.3333333,211.82933,111.91467)" />
      <path
         id="path27"
         d="m 209.76642,-154.07089 c 0,6.26231 -5.07645,11.33876 -11.33876,11.33876 -6.2623,0 -11.33876,-5.07645 -11.33876,-11.33876 0,-6.2623 5.07646,-11.33876 11.33876,-11.33876 6.26231,0 11.33876,5.07646 11.33876,11.33876 z"
         style="fill:#eee8d5;fill-opacity:1;fill-rule:nonzero;stroke:#586e75;stroke-width:1.19553;stroke-linecap:butt;stroke-linejoin:miter;stroke-miterlimit:10;stroke-dasharray:none;stroke-opacity:1"
         transform="matrix(1.3333333,0,0,-1.3333333,211.82933,111.91467)" />
      <path
         id="path28"
         d="m 305.59953,-179.74937 c 0,6.26231 -5.07646,11.33876 -11.33876,11.33876 -6.26231,0 -11.33876,-5.07645 -11.33876,-11.33876 0,-6.2623 5.07645,-11.33876 11.33876,-11.33876 6.2623,0 11.33876,5.07646 11.33876,11.33876 z"
         style="fill:#eee8d5;fill-opacity:1;fill-rule:nonzero;stroke:#586e75;stroke-width:1.19553;stroke-linecap:butt;stroke-linejoin:miter;stroke-miterlimit:10;stroke-dasharray:none;stroke-opacity:1"
         transform="matrix(1.3333333,0,0,-1.3333333,211.82933,111.91467)" />
      <path
         id="path29"
         d="m 209.76642,-205.42786 c 0,6.26232 -5.07645,11.33876 -11.33876,11.33876 -6.2623,0 -11.33876,-5.07644 -11.33876,-11.33876 0,-6.2623 5.07646,-11.33876 11.33876,-11.33876 6.26231,0 11.33876,5.07646 11.33876,11.33876 z"
         style="fill:#eee8d5;fill-opacity:1;fill-rule:nonzero;stroke:#586e75;stroke-width:1.19553;stroke-linecap:butt;stroke-linejoin:miter;stroke-miterlimit:10;stroke-dasharray:none;stroke-opacity:1"
         transform="matrix(1.3333333,0,0,-1.3333333,211.82933,111.91467)" />
      <path
         id="path30"
         d="m 209.95728,-3.08939 72.77368,-19.50006"
         style="fill:none;stroke:#268bd2;stroke-width:5.66934;stroke-linecap:butt;stroke-linejoin:miter;stroke-miterlimit:10;stroke-dasharray:none;stroke-opacity:0.6"
         transform="matrix(1.3333333,0,0,-1.3333333,211.82933,111.91467)" />
      <path
         id="path31"
         d="m 207.73047,-58.83513 77.22749,-62.0791"
         style="fill:none;stroke:#268bd2;stroke-width:5.66934;stroke-linecap:butt;stroke-linejoin:miter;stroke-miterlimit:10;stroke-dasharray:none;stroke-opacity:0.6"
         transform="matrix(1.3333333,0,0,-1.3333333,211.82933,111.91467)" />
      <path
         id="path32"
         d="m 207.73047,-110.1921 77.22749,-62.0791"
         style="fill:none;stroke:#268bd2;stroke-width:5.66934;stroke-linecap:butt;stroke-linejoin:miter;stroke-miterlimit:10;stroke-dasharray:none;stroke-opacity:0.6"
         transform="matrix(1.3333333,0,0,-1.3333333,211.82933,111.91467)" />
      <path
         id="path33"
         d="m 209.95728,-3.08939 72.77368,-19.50006"
         style="fill:none;stroke:#586e75;stroke-width:1.19553;stroke-linecap:butt;stroke-linejoin:miter;stroke-miterlimit:10;stroke-dasharray:none;stroke-opacity:1"
         transform="matrix(1.3333333,0,0,-1.3333333,211.82933,111.91467)" />
      <path
         id="path34"
         d="m 209.95728,-48.26756 72.77368,19.50006"
         style="fill:none;stroke:#586e75;stroke-width:1.19553;stroke-linecap:butt;stroke-linejoin:miter;stroke-miterlimit:10;stroke-dasharray:none;stroke-opacity:1"
         transform="matrix(1.3333333,0,0,-1.3333333,211.82933,111.91467)" />
      <path
         id="path35"
         d="m 207.73047,-58.83513 77.22749,-62.0791"
         style="fill:none;stroke:#586e75;stroke-width:1.19553;stroke-linecap:butt;stroke-linejoin:miter;stroke-miterlimit:10;stroke-dasharray:none;stroke-opacity:1"
         transform="matrix(1.3333333,0,0,-1.3333333,211.82933,111.91467)" />
      <path
         id="path36"
         d="m 209.95728,-99.62453 72.77368,19.50006"
         style="fill:none;stroke:#586e75;stroke-width:1.19553;stroke-linecap:butt;stroke-linejoin:miter;stroke-miterlimit:10;stroke-dasharray:none;stroke-opacity:1"
         transform="matrix(1.3333333,0,0,-1.3333333,211.82933,111.91467)" />
      <path
         id="path37"
         d="m 209.95728,-105.80331 72.77368,-19.50007"
         style="fill:none;stroke:#586e75;stroke-width:1.19553;stroke-linecap:butt;stroke-linejoin:miter;stroke-miterlimit:10;stroke-dasharray:none;stroke-opacity:1"
         transform="matrix(1.3333333,0,0,-1.3333333,211.82933,111.91467)" />
      <path
         id="path38"
         d="m 207.73047,-110.1921 77.22749,-62.0791"
         style="fill:none;stroke:#586e75;stroke-width:1.19553;stroke-linecap:butt;stroke-linejoin:miter;stroke-miterlimit:10;stroke-dasharray:none;stroke-opacity:1"
         transform="matrix(1.3333333,0,0,-1.3333333,211.82933,111.91467)" />
      <path
         id="path39"
         d="m 209.95728,-150.98149 72.77368,19.50006"
         style="fill:none;stroke:#586e75;stroke-width:1.19553;stroke-linecap:butt;stroke-linejoin:miter;stroke-miterlimit:10;stroke-dasharray:none;stroke-opacity:1"
         transform="matrix(1.3333333,0,0,-1.3333333,211.82933,111.91467)" />
      <path
         id="path40"
         d="m 207.73047,-197.94968 77.22749,62.07911"
         style="fill:none;stroke:#586e75;stroke-width:1.19553;stroke-linecap:butt;stroke-linejoin:miter;stroke-miterlimit:10;stroke-dasharray:none;stroke-opacity:1"
         transform="matrix(1.3333333,0,0,-1.3333333,211.82933,111.91467)" />
    </g>
  </g>
</svg>
