<?xml version="1.0" encoding="UTF-8" standalone="no"?>
<svg
   width="318.13303pt"
   height="229.30099pt"
   viewBox="0 0 318.13301 229.30099"
   version="1.1"
   id="svg82"
   sodipodi:docname="matching.svg"
   inkscape:version="1.2.2 (b0a8486541, 2022-12-01)"
   xmlns:inkscape="http://www.inkscape.org/namespaces/inkscape"
   xmlns:sodipodi="http://sodipodi.sourceforge.net/DTD/sodipodi-0.dtd"
   xmlns="http://www.w3.org/2000/svg"
   xmlns:svg="http://www.w3.org/2000/svg">
  <defs
     id="defs86" />
  <sodipodi:namedview
     id="namedview84"
     pagecolor="#ffffff"
     bordercolor="#666666"
     borderopacity="1.0"
     inkscape:showpageshadow="2"
     inkscape:pageopacity="0.0"
     inkscape:pagecheckerboard="0"
     inkscape:deskcolor="#d1d1d1"
     inkscape:document-units="pt"
     showgrid="false"
     inkscape:zoom="1.6819299"
     inkscape:cx="340.08552"
     inkscape:cy="299.06121"
     inkscape:window-width="3840"
     inkscape:window-height="2346"
     inkscape:window-x="0"
     inkscape:window-y="54"
     inkscape:window-maximized="1"
     inkscape:current-layer="svg82" />
  <g
     id="g285"
     transform="translate(-349.7538,-202.05458)">
    <path
       fill-rule="nonzero"
       fill="#eee8d5"
       fill-opacity="1"
       stroke-width="1.19553"
       stroke-linecap="butt"
       stroke-linejoin="miter"
       stroke="#586e75"
       stroke-opacity="1"
       stroke-miterlimit="10"
       d="m 11.337344,-1.875e-4 c 0,6.2617185 -5.074219,11.3398435 -11.33593775,11.3398435 -6.26562525,0 -11.33984325,-5.078125 -11.33984325,-11.3398435 0,-6.2617185 5.074218,-11.3398435 11.33984325,-11.3398435 6.26171875,0 11.33593775,5.078125 11.33593775,11.3398435 z m 0,0"
       transform="matrix(1,0,0,-1,361.69,213.992)"
       id="path4" />
    <path
       fill-rule="nonzero"
       fill="#eee8d5"
       fill-opacity="1"
       stroke-width="1.19553"
       stroke-linecap="butt"
       stroke-linejoin="miter"
       stroke="#586e75"
       stroke-opacity="1"
       stroke-miterlimit="10"
       d="m 107.17328,-25.679875 c 0,6.265625 -5.07812,11.339844 -11.339842,11.339844 -6.261719,0 -11.339844,-5.074219 -11.339844,-11.339844 0,-6.261719 5.078125,-11.335937 11.339844,-11.335937 6.261722,0 11.339842,5.074218 11.339842,11.335937 z m 0,0"
       transform="matrix(1,0,0,-1,361.69,213.992)"
       id="path6" />
    <path
       fill-rule="nonzero"
       fill="#eee8d5"
       fill-opacity="1"
       stroke-width="1.19553"
       stroke-linecap="butt"
       stroke-linejoin="miter"
       stroke="#586e75"
       stroke-opacity="1"
       stroke-miterlimit="10"
       d="m 11.337344,-51.355656 c 0,6.261719 -5.074219,11.335937 -11.33593775,11.335937 -6.26562525,0 -11.33984325,-5.074218 -11.33984325,-11.335937 0,-6.261719 5.074218,-11.339844 11.33984325,-11.339844 6.26171875,0 11.33593775,5.078125 11.33593775,11.339844 z m 0,0"
       transform="matrix(1,0,0,-1,361.69,213.992)"
       id="path8" />
    <path
       fill-rule="nonzero"
       fill="#eee8d5"
       fill-opacity="1"
       stroke-width="1.19553"
       stroke-linecap="butt"
       stroke-linejoin="miter"
       stroke="#586e75"
       stroke-opacity="1"
       stroke-miterlimit="10"
       d="m 107.17328,-77.035344 c 0,6.261719 -5.07812,11.339844 -11.339842,11.339844 -6.261719,0 -11.339844,-5.078125 -11.339844,-11.339844 0,-6.261718 5.078125,-11.339843 11.339844,-11.339843 6.261722,0 11.339842,5.078125 11.339842,11.339843 z m 0,0"
       transform="matrix(1,0,0,-1,361.69,213.992)"
       id="path10" />
    <path
       fill-rule="nonzero"
       fill="#eee8d5"
       fill-opacity="1"
       stroke-width="1.19553"
       stroke-linecap="butt"
       stroke-linejoin="miter"
       stroke="#586e75"
       stroke-opacity="1"
       stroke-miterlimit="10"
       d="m 11.337344,-102.71503 c 0,6.261718 -5.074219,11.339843 -11.33593775,11.339843 -6.26562525,0 -11.33984325,-5.078125 -11.33984325,-11.339843 0,-6.26172 5.074218,-11.33594 11.33984325,-11.33594 6.26171875,0 11.33593775,5.07422 11.33593775,11.33594 z m 0,0"
       transform="matrix(1,0,0,-1,361.69,213.992)"
       id="path12" />
    <path
       fill-rule="nonzero"
       fill="#eee8d5"
       fill-opacity="1"
       stroke-width="1.19553"
       stroke-linecap="butt"
       stroke-linejoin="miter"
       stroke="#586e75"
       stroke-opacity="1"
       stroke-miterlimit="10"
       d="m 107.17328,-128.39081 c 0,6.26172 -5.07812,11.33594 -11.339842,11.33594 -6.261719,0 -11.339844,-5.07422 -11.339844,-11.33594 0,-6.26563 5.078125,-11.33985 11.339844,-11.33985 6.261722,0 11.339842,5.07422 11.339842,11.33985 z m 0,0"
       transform="matrix(1,0,0,-1,361.69,213.992)"
       id="path14" />
    <path
       fill-rule="nonzero"
       fill="#eee8d5"
       fill-opacity="1"
       stroke-width="1.19553"
       stroke-linecap="butt"
       stroke-linejoin="miter"
       stroke="#586e75"
       stroke-opacity="1"
       stroke-miterlimit="10"
       d="m 11.337344,-154.0705 c 0,6.26172 -5.074219,11.33984 -11.33593775,11.33984 -6.26562525,0 -11.33984325,-5.07812 -11.33984325,-11.33984 0,-6.26172 5.074218,-11.33984 11.33984325,-11.33984 6.26171875,0 11.33593775,5.07812 11.33593775,11.33984 z m 0,0"
       transform="matrix(1,0,0,-1,361.69,213.992)"
       id="path16" />
    <path
       fill-rule="nonzero"
       fill="#eee8d5"
       fill-opacity="1"
       stroke-width="1.19553"
       stroke-linecap="butt"
       stroke-linejoin="miter"
       stroke="#586e75"
       stroke-opacity="1"
       stroke-miterlimit="10"
       d="m 107.17328,-179.75019 c 0,6.26172 -5.07812,11.33985 -11.339842,11.33985 -6.261719,0 -11.339844,-5.07813 -11.339844,-11.33985 0,-6.26172 5.078125,-11.33984 11.339844,-11.33984 6.261722,0 11.339842,5.07812 11.339842,11.33984 z m 0,0"
       transform="matrix(1,0,0,-1,361.69,213.992)"
       id="path18" />
    <path
       fill-rule="nonzero"
       fill="#eee8d5"
       fill-opacity="1"
       stroke-width="1.19553"
       stroke-linecap="butt"
       stroke-linejoin="miter"
       stroke="#586e75"
       stroke-opacity="1"
       stroke-miterlimit="10"
       d="m 11.337344,-205.42597 c 0,6.26172 -5.074219,11.33594 -11.33593775,11.33594 -6.26562525,0 -11.33984325,-5.07422 -11.33984325,-11.33594 0,-6.26562 5.074218,-11.33984 11.33984325,-11.33984 6.26171875,0 11.33593775,5.07422 11.33593775,11.33984 z m 0,0"
       transform="matrix(1,0,0,-1,361.69,213.992)"
       id="path20" />
    <path
       fill="none"
       stroke-width="5.66934"
       stroke-linecap="butt"
       stroke-linejoin="miter"
       stroke="#268bd2"
       stroke-opacity="0.6"
       stroke-miterlimit="10"
       d="m 11.52875,-3.090031 72.773438,-19.5"
       transform="matrix(1,0,0,-1,361.69,213.992)"
       id="path22" />
    <path
       fill="none"
       stroke-width="5.66934"
       stroke-linecap="butt"
       stroke-linejoin="miter"
       stroke="#268bd2"
       stroke-opacity="0.6"
       stroke-miterlimit="10"
       d="m 11.52875,-105.80487 72.773438,-19.5"
       transform="matrix(1,0,0,-1,361.69,213.992)"
       id="path24" />
    <path
       fill="none"
       stroke-width="1.19553"
       stroke-linecap="butt"
       stroke-linejoin="miter"
       stroke="#586e75"
       stroke-opacity="1"
       stroke-miterlimit="10"
       d="m 11.52875,-3.090031 72.773438,-19.5"
       transform="matrix(1,0,0,-1,361.69,213.992)"
       id="path26" />
    <path
       fill="none"
       stroke-width="1.19553"
       stroke-linecap="butt"
       stroke-linejoin="miter"
       stroke="#586e75"
       stroke-opacity="1"
       stroke-miterlimit="10"
       d="m 11.52875,-48.265812 72.773438,19.5"
       transform="matrix(1,0,0,-1,361.69,213.992)"
       id="path28" />
    <path
       fill="none"
       stroke-width="1.19553"
       stroke-linecap="butt"
       stroke-linejoin="miter"
       stroke="#586e75"
       stroke-opacity="1"
       stroke-miterlimit="10"
       d="M 9.302188,-58.836125 86.52875,-120.91425"
       transform="matrix(1,0,0,-1,361.69,213.992)"
       id="path30" />
    <path
       fill="none"
       stroke-width="1.19553"
       stroke-linecap="butt"
       stroke-linejoin="miter"
       stroke="#586e75"
       stroke-opacity="1"
       stroke-miterlimit="10"
       d="m 11.52875,-99.625187 72.773438,19.5"
       transform="matrix(1,0,0,-1,361.69,213.992)"
       id="path32" />
    <path
       fill="none"
       stroke-width="1.19553"
       stroke-linecap="butt"
       stroke-linejoin="miter"
       stroke="#586e75"
       stroke-opacity="1"
       stroke-miterlimit="10"
       d="m 11.52875,-105.80487 72.773438,-19.5"
       transform="matrix(1,0,0,-1,361.69,213.992)"
       id="path34" />
    <path
       fill="none"
       stroke-width="1.19553"
       stroke-linecap="butt"
       stroke-linejoin="miter"
       stroke="#586e75"
       stroke-opacity="1"
       stroke-miterlimit="10"
       d="M 9.302188,-110.19159 86.52875,-172.26972"
       transform="matrix(1,0,0,-1,361.69,213.992)"
       id="path36" />
    <path
       fill="none"
       stroke-width="1.19553"
       stroke-linecap="butt"
       stroke-linejoin="miter"
       stroke="#586e75"
       stroke-opacity="1"
       stroke-miterlimit="10"
       d="m 11.52875,-150.98066 72.773438,19.5"
       transform="matrix(1,0,0,-1,361.69,213.992)"
       id="path38" />
    <path
       fill="none"
       stroke-width="1.19553"
       stroke-linecap="butt"
       stroke-linejoin="miter"
       stroke="#586e75"
       stroke-opacity="1"
       stroke-miterlimit="10"
       d="m 9.302188,-197.94941 77.226562,62.07813"
       transform="matrix(1,0,0,-1,361.69,213.992)"
       id="path40" />
    <path
       fill-rule="nonzero"
       fill="#eee8d5"
       fill-opacity="1"
       stroke-width="1.19553"
       stroke-linecap="butt"
       stroke-linejoin="miter"
       stroke="#586e75"
       stroke-opacity="1"
       stroke-miterlimit="10"
       d="m 209.76703,-1.875e-4 c 0,6.2617185 -5.07812,11.3398435 -11.33984,11.3398435 -6.26172,0 -11.33985,-5.078125 -11.33985,-11.3398435 0,-6.2617185 5.07813,-11.3398435 11.33985,-11.3398435 6.26172,0 11.33984,5.078125 11.33984,11.3398435 z m 0,0"
       transform="matrix(1,0,0,-1,361.69,213.992)"
       id="path42" />
    <path
       fill-rule="nonzero"
       fill="#eee8d5"
       fill-opacity="1"
       stroke-width="1.19553"
       stroke-linecap="butt"
       stroke-linejoin="miter"
       stroke="#586e75"
       stroke-opacity="1"
       stroke-miterlimit="10"
       d="m 305.59906,-25.679875 c 0,6.265625 -5.07422,11.339844 -11.33984,11.339844 -6.26172,0 -11.33594,-5.074219 -11.33594,-11.339844 0,-6.261719 5.07422,-11.335937 11.33594,-11.335937 6.26562,0 11.33984,5.074218 11.33984,11.335937 z m 0,0"
       transform="matrix(1,0,0,-1,361.69,213.992)"
       id="path44" />
    <path
       fill-rule="nonzero"
       fill="#eee8d5"
       fill-opacity="1"
       stroke-width="1.19553"
       stroke-linecap="butt"
       stroke-linejoin="miter"
       stroke="#586e75"
       stroke-opacity="1"
       stroke-miterlimit="10"
       d="m 209.76703,-51.355656 c 0,6.261719 -5.07812,11.335937 -11.33984,11.335937 -6.26172,0 -11.33985,-5.074218 -11.33985,-11.335937 0,-6.261719 5.07813,-11.339844 11.33985,-11.339844 6.26172,0 11.33984,5.078125 11.33984,11.339844 z m 0,0"
       transform="matrix(1,0,0,-1,361.69,213.992)"
       id="path46" />
    <path
       fill-rule="nonzero"
       fill="#eee8d5"
       fill-opacity="1"
       stroke-width="1.19553"
       stroke-linecap="butt"
       stroke-linejoin="miter"
       stroke="#586e75"
       stroke-opacity="1"
       stroke-miterlimit="10"
       d="m 305.59906,-77.035344 c 0,6.261719 -5.07422,11.339844 -11.33984,11.339844 -6.26172,0 -11.33594,-5.078125 -11.33594,-11.339844 0,-6.261718 5.07422,-11.339843 11.33594,-11.339843 6.26562,0 11.33984,5.078125 11.33984,11.339843 z m 0,0"
       transform="matrix(1,0,0,-1,361.69,213.992)"
       id="path48" />
    <path
       fill-rule="nonzero"
       fill="#eee8d5"
       fill-opacity="1"
       stroke-width="1.19553"
       stroke-linecap="butt"
       stroke-linejoin="miter"
       stroke="#586e75"
       stroke-opacity="1"
       stroke-miterlimit="10"
       d="m 209.76703,-102.71503 c 0,6.261718 -5.07812,11.339843 -11.33984,11.339843 -6.26172,0 -11.33985,-5.078125 -11.33985,-11.339843 0,-6.26172 5.07813,-11.33594 11.33985,-11.33594 6.26172,0 11.33984,5.07422 11.33984,11.33594 z m 0,0"
       transform="matrix(1,0,0,-1,361.69,213.992)"
       id="path50" />
    <path
       fill-rule="nonzero"
       fill="#eee8d5"
       fill-opacity="1"
       stroke-width="1.19553"
       stroke-linecap="butt"
       stroke-linejoin="miter"
       stroke="#586e75"
       stroke-opacity="1"
       stroke-miterlimit="10"
       d="m 305.59906,-128.39081 c 0,6.26172 -5.07422,11.33594 -11.33984,11.33594 -6.26172,0 -11.33594,-5.07422 -11.33594,-11.33594 0,-6.26563 5.07422,-11.33985 11.33594,-11.33985 6.26562,0 11.33984,5.07422 11.33984,11.33985 z m 0,0"
       transform="matrix(1,0,0,-1,361.69,213.992)"
       id="path52" />
    <path
       fill-rule="nonzero"
       fill="#eee8d5"
       fill-opacity="1"
       stroke-width="1.19553"
       stroke-linecap="butt"
       stroke-linejoin="miter"
       stroke="#586e75"
       stroke-opacity="1"
       stroke-miterlimit="10"
       d="m 209.76703,-154.0705 c 0,6.26172 -5.07812,11.33984 -11.33984,11.33984 -6.26172,0 -11.33985,-5.07812 -11.33985,-11.33984 0,-6.26172 5.07813,-11.33984 11.33985,-11.33984 6.26172,0 11.33984,5.07812 11.33984,11.33984 z m 0,0"
       transform="matrix(1,0,0,-1,361.69,213.992)"
       id="path54" />
    <path
       fill-rule="nonzero"
       fill="#eee8d5"
       fill-opacity="1"
       stroke-width="1.19553"
       stroke-linecap="butt"
       stroke-linejoin="miter"
       stroke="#586e75"
       stroke-opacity="1"
       stroke-miterlimit="10"
       d="m 305.59906,-179.75019 c 0,6.26172 -5.07422,11.33985 -11.33984,11.33985 -6.26172,0 -11.33594,-5.07813 -11.33594,-11.33985 0,-6.26172 5.07422,-11.33984 11.33594,-11.33984 6.26562,0 11.33984,5.07812 11.33984,11.33984 z m 0,0"
       transform="matrix(1,0,0,-1,361.69,213.992)"
       id="path56" />
    <path
       fill-rule="nonzero"
       fill="#eee8d5"
       fill-opacity="1"
       stroke-width="1.19553"
       stroke-linecap="butt"
       stroke-linejoin="miter"
       stroke="#586e75"
       stroke-opacity="1"
       stroke-miterlimit="10"
       d="m 209.76703,-205.42597 c 0,6.26172 -5.07812,11.33594 -11.33984,11.33594 -6.26172,0 -11.33985,-5.07422 -11.33985,-11.33594 0,-6.26562 5.07813,-11.33984 11.33985,-11.33984 6.26172,0 11.33984,5.07422 11.33984,11.33984 z m 0,0"
       transform="matrix(1,0,0,-1,361.69,213.992)"
       id="path58" />
    <path
       fill="none"
       stroke-width="5.66934"
       stroke-linecap="butt"
       stroke-linejoin="miter"
       stroke="#268bd2"
       stroke-opacity="0.6"
       stroke-miterlimit="10"
       d="m 209.95844,-48.265812 72.77343,19.5"
       transform="matrix(1,0,0,-1,361.69,213.992)"
       id="path60" />
    <path
       fill="none"
       stroke-width="5.66934"
       stroke-linecap="butt"
       stroke-linejoin="miter"
       stroke="#268bd2"
       stroke-opacity="0.6"
       stroke-miterlimit="10"
       d="m 209.95844,-99.625187 72.77343,19.5"
       transform="matrix(1,0,0,-1,361.69,213.992)"
       id="path62" />
    <path
       fill="none"
       stroke-width="5.66934"
       stroke-linecap="butt"
       stroke-linejoin="miter"
       stroke="#268bd2"
       stroke-opacity="0.6"
       stroke-miterlimit="10"
       d="m 207.73187,-197.94941 77.22657,62.07813"
       transform="matrix(1,0,0,-1,361.69,213.992)"
       id="path64" />
    <path
       fill="none"
       stroke-width="1.19553"
       stroke-linecap="butt"
       stroke-linejoin="miter"
       stroke="#586e75"
       stroke-opacity="1"
       stroke-miterlimit="10"
       d="m 209.95844,-3.090031 72.77343,-19.5"
       transform="matrix(1,0,0,-1,361.69,213.992)"
       id="path66" />
    <path
       fill="none"
       stroke-width="1.19553"
       stroke-linecap="butt"
       stroke-linejoin="miter"
       stroke="#586e75"
       stroke-opacity="1"
       stroke-miterlimit="10"
       d="m 209.95844,-48.265812 72.77343,19.5"
       transform="matrix(1,0,0,-1,361.69,213.992)"
       id="path68" />
    <path
       fill="none"
       stroke-width="1.19553"
       stroke-linecap="butt"
       stroke-linejoin="miter"
       stroke="#586e75"
       stroke-opacity="1"
       stroke-miterlimit="10"
       d="m 207.73187,-58.836125 77.22657,-62.078125"
       transform="matrix(1,0,0,-1,361.69,213.992)"
       id="path70" />
    <path
       fill="none"
       stroke-width="1.19553"
       stroke-linecap="butt"
       stroke-linejoin="miter"
       stroke="#586e75"
       stroke-opacity="1"
       stroke-miterlimit="10"
       d="m 209.95844,-99.625187 72.77343,19.5"
       transform="matrix(1,0,0,-1,361.69,213.992)"
       id="path72" />
    <path
       fill="none"
       stroke-width="1.19553"
       stroke-linecap="butt"
       stroke-linejoin="miter"
       stroke="#586e75"
       stroke-opacity="1"
       stroke-miterlimit="10"
       d="m 209.95844,-105.80487 72.77343,-19.5"
       transform="matrix(1,0,0,-1,361.69,213.992)"
       id="path74" />
    <path
       fill="none"
       stroke-width="1.19553"
       stroke-linecap="butt"
       stroke-linejoin="miter"
       stroke="#586e75"
       stroke-opacity="1"
       stroke-miterlimit="10"
       d="m 207.73187,-110.19159 77.22657,-62.07813"
       transform="matrix(1,0,0,-1,361.69,213.992)"
       id="path76" />
    <path
       fill="none"
       stroke-width="1.19553"
       stroke-linecap="butt"
       stroke-linejoin="miter"
       stroke="#586e75"
       stroke-opacity="1"
       stroke-miterlimit="10"
       d="m 209.95844,-150.98066 72.77343,19.5"
       transform="matrix(1,0,0,-1,361.69,213.992)"
       id="path78" />
    <path
       fill="none"
       stroke-width="1.19553"
       stroke-linecap="butt"
       stroke-linejoin="miter"
       stroke="#586e75"
       stroke-opacity="1"
       stroke-miterlimit="10"
       d="m 207.73187,-197.94941 77.22657,62.07813"
       transform="matrix(1,0,0,-1,361.69,213.992)"
       id="path80" />
  </g>
</svg>
