<?xml version="1.0" encoding="UTF-8" standalone="no"?>
<!-- Created with Inkscape (http://www.inkscape.org/) -->

<svg
   version="1.1"
   id="svg1"
   width="684.24097"
   height="305.73453"
   viewBox="0 0 684.24097 305.73453"
   sodipodi:docname="matching-max-flow.svg"
   inkscape:version="1.4 (e7c3feb100, 2024-10-09)"
   xmlns:inkscape="http://www.inkscape.org/namespaces/inkscape"
   xmlns:sodipodi="http://sodipodi.sourceforge.net/DTD/sodipodi-0.dtd"
   xmlns="http://www.w3.org/2000/svg"
   xmlns:svg="http://www.w3.org/2000/svg">
  <defs
     id="defs1" />
  <sodipodi:namedview
     id="namedview1"
     pagecolor="#ffffff"
     bordercolor="#666666"
     borderopacity="1.0"
     inkscape:showpageshadow="2"
     inkscape:pageopacity="0.0"
     inkscape:pagecheckerboard="0"
     inkscape:deskcolor="#d1d1d1"
     inkscape:zoom="1.8797348"
     inkscape:cx="312.27809"
     inkscape:cy="417.3461"
     inkscape:window-width="3840"
     inkscape:window-height="2346"
     inkscape:window-x="0"
     inkscape:window-y="54"
     inkscape:window-maximized="1"
     inkscape:current-layer="g1">
    <inkscape:page
       x="0"
       y="0"
       inkscape:label="1"
       id="page1"
       width="684.24097"
       height="305.73453"
       margin="0"
       bleed="0" />
  </sodipodi:namedview>
  <g
     id="g1"
     inkscape:groupmode="layer"
     inkscape:label="1"
     transform="translate(-95.999306,-110.61131)">
    <g
       id="g96">
      <path
         id="path2"
         d="M 11.33876,0 C 11.33876,6.2623 6.2623,11.33876 0,11.33876 -6.2623,11.33876 -11.33876,6.2623 -11.33876,0 c 0,-6.2623 5.07646,-11.33876 11.33876,-11.33876 6.2623,0 11.33876,5.07646 11.33876,11.33876 z"
         style="fill:#eee8d5;fill-opacity:1;fill-rule:nonzero;stroke:#586e75;stroke-width:1.19553;stroke-linecap:butt;stroke-linejoin:miter;stroke-miterlimit:10;stroke-dasharray:none;stroke-opacity:1"
         transform="matrix(1.3333333,0,0,-1.3333333,111.91467,126.52667)" />
      <path
         id="path3"
         d="m 107.17186,-25.67848 c 0,6.26231 -5.07646,11.33876 -11.33876,11.33876 -6.2623,0 -11.33876,-5.07645 -11.33876,-11.33876 0,-6.2623 5.07646,-11.33876 11.33876,-11.33876 6.2623,0 11.33876,5.07646 11.33876,11.33876 z"
         style="fill:#eee8d5;fill-opacity:1;fill-rule:nonzero;stroke:#586e75;stroke-width:1.19553;stroke-linecap:butt;stroke-linejoin:miter;stroke-miterlimit:10;stroke-dasharray:none;stroke-opacity:1"
         transform="matrix(1.3333333,0,0,-1.3333333,111.91467,126.52667)" />
      <path
         id="path4"
         d="m 11.33876,-51.35696 c 0,6.26231 -5.07646,11.33876 -11.33876,11.33876 -6.2623,0 -11.33876,-5.07645 -11.33876,-11.33876 0,-6.2623 5.07646,-11.33876 11.33876,-11.33876 6.2623,0 11.33876,5.07646 11.33876,11.33876 z"
         style="fill:#eee8d5;fill-opacity:1;fill-rule:nonzero;stroke:#586e75;stroke-width:1.19553;stroke-linecap:butt;stroke-linejoin:miter;stroke-miterlimit:10;stroke-dasharray:none;stroke-opacity:1"
         transform="matrix(1.3333333,0,0,-1.3333333,111.91467,126.52667)" />
      <path
         id="path5"
         d="m 107.17186,-77.03545 c 0,6.26232 -5.07646,11.33876 -11.33876,11.33876 -6.2623,0 -11.33876,-5.07644 -11.33876,-11.33876 0,-6.26229 5.07646,-11.33875 11.33876,-11.33875 6.2623,0 11.33876,5.07646 11.33876,11.33875 z"
         style="fill:#eee8d5;fill-opacity:1;fill-rule:nonzero;stroke:#586e75;stroke-width:1.19553;stroke-linecap:butt;stroke-linejoin:miter;stroke-miterlimit:10;stroke-dasharray:none;stroke-opacity:1"
         transform="matrix(1.3333333,0,0,-1.3333333,111.91467,126.52667)" />
      <path
         id="path6"
         d="m 11.33876,-102.71393 c 0,6.26232 -5.07646,11.33876 -11.33876,11.33876 -6.2623,0 -11.33876,-5.07644 -11.33876,-11.33876 0,-6.2623 5.07646,-11.33876 11.33876,-11.33876 6.2623,0 11.33876,5.07646 11.33876,11.33876 z"
         style="fill:#eee8d5;fill-opacity:1;fill-rule:nonzero;stroke:#586e75;stroke-width:1.19553;stroke-linecap:butt;stroke-linejoin:miter;stroke-miterlimit:10;stroke-dasharray:none;stroke-opacity:1"
         transform="matrix(1.3333333,0,0,-1.3333333,111.91467,126.52667)" />
      <path
         id="path7"
         d="m 107.17186,-128.39241 c 0,6.26231 -5.07646,11.33876 -11.33876,11.33876 -6.2623,0 -11.33876,-5.07645 -11.33876,-11.33876 0,-6.2623 5.07646,-11.33876 11.33876,-11.33876 6.2623,0 11.33876,5.07646 11.33876,11.33876 z"
         style="fill:#eee8d5;fill-opacity:1;fill-rule:nonzero;stroke:#586e75;stroke-width:1.19553;stroke-linecap:butt;stroke-linejoin:miter;stroke-miterlimit:10;stroke-dasharray:none;stroke-opacity:1"
         transform="matrix(1.3333333,0,0,-1.3333333,111.91467,126.52667)" />
      <path
         id="path8"
         d="m 11.33876,-154.07089 c 0,6.26231 -5.07646,11.33876 -11.33876,11.33876 -6.2623,0 -11.33876,-5.07645 -11.33876,-11.33876 0,-6.2623 5.07646,-11.33876 11.33876,-11.33876 6.2623,0 11.33876,5.07646 11.33876,11.33876 z"
         style="fill:#eee8d5;fill-opacity:1;fill-rule:nonzero;stroke:#586e75;stroke-width:1.19553;stroke-linecap:butt;stroke-linejoin:miter;stroke-miterlimit:10;stroke-dasharray:none;stroke-opacity:1"
         transform="matrix(1.3333333,0,0,-1.3333333,111.91467,126.52667)" />
      <path
         id="path9"
         d="m 107.17186,-179.74937 c 0,6.26231 -5.07646,11.33876 -11.33876,11.33876 -6.2623,0 -11.33876,-5.07645 -11.33876,-11.33876 0,-6.2623 5.07646,-11.33876 11.33876,-11.33876 6.2623,0 11.33876,5.07646 11.33876,11.33876 z"
         style="fill:#eee8d5;fill-opacity:1;fill-rule:nonzero;stroke:#586e75;stroke-width:1.19553;stroke-linecap:butt;stroke-linejoin:miter;stroke-miterlimit:10;stroke-dasharray:none;stroke-opacity:1"
         transform="matrix(1.3333333,0,0,-1.3333333,111.91467,126.52667)" />
      <path
         id="path10"
         d="m 11.33876,-205.42786 c 0,6.26232 -5.07646,11.33876 -11.33876,11.33876 -6.2623,0 -11.33876,-5.07644 -11.33876,-11.33876 0,-6.2623 5.07646,-11.33876 11.33876,-11.33876 6.2623,0 11.33876,5.07646 11.33876,11.33876 z"
         style="fill:#eee8d5;fill-opacity:1;fill-rule:nonzero;stroke:#586e75;stroke-width:1.19553;stroke-linecap:butt;stroke-linejoin:miter;stroke-miterlimit:10;stroke-dasharray:none;stroke-opacity:1"
         transform="matrix(1.3333333,0,0,-1.3333333,111.91467,126.52667)" />
      <path
         id="path11"
         d="M 11.52962,-3.08939 84.3033,-22.58945"
         style="fill:none;stroke:#268bd2;stroke-width:5.66934;stroke-linecap:butt;stroke-linejoin:miter;stroke-miterlimit:10;stroke-dasharray:none;stroke-opacity:0.6"
         transform="matrix(1.3333333,0,0,-1.3333333,111.91467,126.52667)" />
      <path
         id="path12"
         d="m 9.3028,-58.83513 77.22749,-62.0791"
         style="fill:none;stroke:#268bd2;stroke-width:5.66934;stroke-linecap:butt;stroke-linejoin:miter;stroke-miterlimit:10;stroke-dasharray:none;stroke-opacity:0.6"
         transform="matrix(1.3333333,0,0,-1.3333333,111.91467,126.52667)" />
      <path
         id="path13"
         d="m 9.3028,-110.1921 77.22749,-62.0791"
         style="fill:none;stroke:#268bd2;stroke-width:5.66934;stroke-linecap:butt;stroke-linejoin:miter;stroke-miterlimit:10;stroke-dasharray:none;stroke-opacity:0.6"
         transform="matrix(1.3333333,0,0,-1.3333333,111.91467,126.52667)" />
      <path
         id="path14"
         d="M 11.52962,-3.08939 84.3033,-22.58945"
         style="fill:none;stroke:#586e75;stroke-width:1.19553;stroke-linecap:butt;stroke-linejoin:miter;stroke-miterlimit:10;stroke-dasharray:none;stroke-opacity:1"
         transform="matrix(1.3333333,0,0,-1.3333333,111.91467,126.52667)" />
      <path
         id="path15"
         d="M 11.52962,-48.26756 84.3033,-28.7675"
         style="fill:none;stroke:#586e75;stroke-width:1.19553;stroke-linecap:butt;stroke-linejoin:miter;stroke-miterlimit:10;stroke-dasharray:none;stroke-opacity:1"
         transform="matrix(1.3333333,0,0,-1.3333333,111.91467,126.52667)" />
      <path
         id="path16"
         d="m 9.3028,-58.83513 77.22749,-62.0791"
         style="fill:none;stroke:#586e75;stroke-width:1.19553;stroke-linecap:butt;stroke-linejoin:miter;stroke-miterlimit:10;stroke-dasharray:none;stroke-opacity:1"
         transform="matrix(1.3333333,0,0,-1.3333333,111.91467,126.52667)" />
      <path
         id="path17"
         d="M 11.52962,-99.62453 84.3033,-80.12447"
         style="fill:none;stroke:#586e75;stroke-width:1.19553;stroke-linecap:butt;stroke-linejoin:miter;stroke-miterlimit:10;stroke-dasharray:none;stroke-opacity:1"
         transform="matrix(1.3333333,0,0,-1.3333333,111.91467,126.52667)" />
      <path
         id="path18"
         d="M 11.52962,-105.80331 84.3033,-125.30338"
         style="fill:none;stroke:#586e75;stroke-width:1.19553;stroke-linecap:butt;stroke-linejoin:miter;stroke-miterlimit:10;stroke-dasharray:none;stroke-opacity:1"
         transform="matrix(1.3333333,0,0,-1.3333333,111.91467,126.52667)" />
      <path
         id="path19"
         d="m 9.3028,-110.1921 77.22749,-62.0791"
         style="fill:none;stroke:#586e75;stroke-width:1.19553;stroke-linecap:butt;stroke-linejoin:miter;stroke-miterlimit:10;stroke-dasharray:none;stroke-opacity:1"
         transform="matrix(1.3333333,0,0,-1.3333333,111.91467,126.52667)" />
      <path
         id="path20"
         d="m 11.52962,-150.98149 72.77368,19.50006"
         style="fill:none;stroke:#586e75;stroke-width:1.19553;stroke-linecap:butt;stroke-linejoin:miter;stroke-miterlimit:10;stroke-dasharray:none;stroke-opacity:1"
         transform="matrix(1.3333333,0,0,-1.3333333,111.91467,126.52667)" />
      <path
         id="path21"
         d="m 9.3028,-197.94968 77.22749,62.07911"
         style="fill:none;stroke:#586e75;stroke-width:1.19553;stroke-linecap:butt;stroke-linejoin:miter;stroke-miterlimit:10;stroke-dasharray:none;stroke-opacity:1"
         transform="matrix(1.3333333,0,0,-1.3333333,111.91467,126.52667)" />
      <path
         id="path22"
         d="m 308.98026,0 c 0,6.2623 -5.07646,11.33876 -11.33876,11.33876 -6.26232,0 -11.33877,-5.07646 -11.33877,-11.33876 0,-6.2623 5.07645,-11.33876 11.33877,-11.33876 6.2623,0 11.33876,5.07646 11.33876,11.33876 z"
         style="fill:#eee8d5;fill-opacity:1;fill-rule:nonzero;stroke:#586e75;stroke-width:1.19553;stroke-linecap:butt;stroke-linejoin:miter;stroke-miterlimit:10;stroke-dasharray:none;stroke-opacity:1"
         transform="matrix(1.3333333,0,0,-1.3333333,111.91467,126.52667)" />
      <path
         id="path23"
         d="m 404.81335,-25.67848 c 0,6.26231 -5.07645,11.33876 -11.33875,11.33876 -6.2623,0 -11.33877,-5.07645 -11.33877,-11.33876 0,-6.2623 5.07647,-11.33876 11.33877,-11.33876 6.2623,0 11.33875,5.07646 11.33875,11.33876 z"
         style="fill:#eee8d5;fill-opacity:1;fill-rule:nonzero;stroke:#586e75;stroke-width:1.19553;stroke-linecap:butt;stroke-linejoin:miter;stroke-miterlimit:10;stroke-dasharray:none;stroke-opacity:1"
         transform="matrix(1.3333333,0,0,-1.3333333,111.91467,126.52667)" />
      <path
         id="path24"
         d="m 308.98026,-51.35696 c 0,6.26231 -5.07646,11.33876 -11.33876,11.33876 -6.26232,0 -11.33877,-5.07645 -11.33877,-11.33876 0,-6.2623 5.07645,-11.33876 11.33877,-11.33876 6.2623,0 11.33876,5.07646 11.33876,11.33876 z"
         style="fill:#eee8d5;fill-opacity:1;fill-rule:nonzero;stroke:#586e75;stroke-width:1.19553;stroke-linecap:butt;stroke-linejoin:miter;stroke-miterlimit:10;stroke-dasharray:none;stroke-opacity:1"
         transform="matrix(1.3333333,0,0,-1.3333333,111.91467,126.52667)" />
      <path
         id="path25"
         d="m 404.81335,-77.03545 c 0,6.26232 -5.07645,11.33876 -11.33875,11.33876 -6.2623,0 -11.33877,-5.07644 -11.33877,-11.33876 0,-6.26229 5.07647,-11.33875 11.33877,-11.33875 6.2623,0 11.33875,5.07646 11.33875,11.33875 z"
         style="fill:#eee8d5;fill-opacity:1;fill-rule:nonzero;stroke:#586e75;stroke-width:1.19553;stroke-linecap:butt;stroke-linejoin:miter;stroke-miterlimit:10;stroke-dasharray:none;stroke-opacity:1"
         transform="matrix(1.3333333,0,0,-1.3333333,111.91467,126.52667)" />
      <path
         id="path26"
         d="m 308.98026,-102.71393 c 0,6.26232 -5.07646,11.33876 -11.33876,11.33876 -6.26232,0 -11.33877,-5.07644 -11.33877,-11.33876 0,-6.2623 5.07645,-11.33876 11.33877,-11.33876 6.2623,0 11.33876,5.07646 11.33876,11.33876 z"
         style="fill:#eee8d5;fill-opacity:1;fill-rule:nonzero;stroke:#586e75;stroke-width:1.19553;stroke-linecap:butt;stroke-linejoin:miter;stroke-miterlimit:10;stroke-dasharray:none;stroke-opacity:1"
         transform="matrix(1.3333333,0,0,-1.3333333,111.91467,126.52667)" />
      <path
         id="path27"
         d="m 404.81335,-128.39241 c 0,6.26231 -5.07645,11.33876 -11.33875,11.33876 -6.2623,0 -11.33877,-5.07645 -11.33877,-11.33876 0,-6.2623 5.07647,-11.33876 11.33877,-11.33876 6.2623,0 11.33875,5.07646 11.33875,11.33876 z"
         style="fill:#eee8d5;fill-opacity:1;fill-rule:nonzero;stroke:#586e75;stroke-width:1.19553;stroke-linecap:butt;stroke-linejoin:miter;stroke-miterlimit:10;stroke-dasharray:none;stroke-opacity:1"
         transform="matrix(1.3333333,0,0,-1.3333333,111.91467,126.52667)" />
      <path
         id="path28"
         d="m 308.98026,-154.07089 c 0,6.26231 -5.07646,11.33876 -11.33876,11.33876 -6.26232,0 -11.33877,-5.07645 -11.33877,-11.33876 0,-6.2623 5.07645,-11.33876 11.33877,-11.33876 6.2623,0 11.33876,5.07646 11.33876,11.33876 z"
         style="fill:#eee8d5;fill-opacity:1;fill-rule:nonzero;stroke:#586e75;stroke-width:1.19553;stroke-linecap:butt;stroke-linejoin:miter;stroke-miterlimit:10;stroke-dasharray:none;stroke-opacity:1"
         transform="matrix(1.3333333,0,0,-1.3333333,111.91467,126.52667)" />
      <path
         id="path29"
         d="m 404.81335,-179.74937 c 0,6.26231 -5.07645,11.33876 -11.33875,11.33876 -6.2623,0 -11.33877,-5.07645 -11.33877,-11.33876 0,-6.2623 5.07647,-11.33876 11.33877,-11.33876 6.2623,0 11.33875,5.07646 11.33875,11.33876 z"
         style="fill:#eee8d5;fill-opacity:1;fill-rule:nonzero;stroke:#586e75;stroke-width:1.19553;stroke-linecap:butt;stroke-linejoin:miter;stroke-miterlimit:10;stroke-dasharray:none;stroke-opacity:1"
         transform="matrix(1.3333333,0,0,-1.3333333,111.91467,126.52667)" />
      <path
         id="path30"
         d="m 308.98026,-205.42786 c 0,6.26232 -5.07646,11.33876 -11.33876,11.33876 -6.26232,0 -11.33877,-5.07644 -11.33877,-11.33876 0,-6.2623 5.07645,-11.33876 11.33877,-11.33876 6.2623,0 11.33876,5.07646 11.33876,11.33876 z"
         style="fill:#eee8d5;fill-opacity:1;fill-rule:nonzero;stroke:#586e75;stroke-width:1.19553;stroke-linecap:butt;stroke-linejoin:miter;stroke-miterlimit:10;stroke-dasharray:none;stroke-opacity:1"
         transform="matrix(1.3333333,0,0,-1.3333333,111.91467,126.52667)" />
      <path
         id="path31"
         d="m 213.14714,-102.71393 c 0,6.26232 -5.07644,11.33876 -11.33876,11.33876 -6.2623,0 -11.33876,-5.07644 -11.33876,-11.33876 0,-6.2623 5.07646,-11.33876 11.33876,-11.33876 6.26232,0 11.33876,5.07646 11.33876,11.33876 z"
         style="fill:#eee8d5;fill-opacity:1;fill-rule:nonzero;stroke:#586e75;stroke-width:1.19553;stroke-linecap:butt;stroke-linejoin:miter;stroke-miterlimit:10;stroke-dasharray:none;stroke-opacity:1"
         transform="matrix(1.3333333,0,0,-1.3333333,111.91467,126.52667)" />
      <path
         id="path32"
         d="m 4.9683906,-4.7222891 c -0.3984375,0.1523438 -0.5039062,0.515625 -0.5039062,0.6796875 0,0.3164063 0.2460937,0.4921875 0.515625,0.4921875 0.2929687,0 0.7265625,-0.2460937 0.7265625,-0.8203125 0,-0.6328125 -0.6328125,-1.0546875 -1.7109375,-1.0546875 -0.3515625,0 -1.0195313,0.023437 -1.5703125,0.4453125 -0.5390625,0.4101563 -0.7382813,1.1015625 -0.7382813,1.40625 0,0.3632813 0.1757813,0.6914063 0.4335938,0.9140625 0.3398437,0.2578125 0.5390625,0.2929688 1.359375,0.4570313 0.3632812,0.058594 1.078125,0.1875 1.078125,0.7265625 0,0.046875 0,1.13671874 -1.78125,1.13671874 -0.5976563,0 -1.0429688,-0.1171875 -1.3007813,-0.3046875 0.4101563,-0.12890625 0.65625,-0.46875004 0.65625,-0.83203124 0,-0.4335938 -0.3398437,-0.5507813 -0.5859375,-0.5507813 -0.4101562,0 -0.86718748,0.3398438 -0.86718748,0.9375 0,0.77343754 0.84374998,1.18359379 2.06249998,1.18359379 2.7421875,0 2.7421875,-2.05078129 2.7421875,-2.06249999 0,-0.4101563 -0.1992187,-0.7265625 -0.4804687,-0.9726563 -0.375,-0.328125 -0.8320313,-0.4101562 -1.2421875,-0.4804687 -0.6679688,-0.1171875 -1.1367188,-0.1992188 -1.1367188,-0.6445313 0,-0.023437 0,-0.9257812 1.3476563,-0.9257812 0.234375,0 0.6679687,0.023437 0.9960937,0.2695312 z m 0,0"
         style="fill:#d33682;fill-opacity:1;fill-rule:nonzero;stroke:none"
         aria-label="s"
         transform="matrix(1.3333333,0,0,1.3333333,376.74267,267.03467)" />
      <path
         id="path33"
         d="m 500.64645,-102.71393 c 0,6.26232 -5.07645,11.33876 -11.33875,11.33876 -6.2623,0 -11.33877,-5.07644 -11.33877,-11.33876 0,-6.2623 5.07647,-11.33876 11.33877,-11.33876 6.2623,0 11.33875,5.07646 11.33875,11.33876 z"
         style="fill:#eee8d5;fill-opacity:1;fill-rule:nonzero;stroke:#586e75;stroke-width:1.19553;stroke-linecap:butt;stroke-linejoin:miter;stroke-miterlimit:10;stroke-dasharray:none;stroke-opacity:1"
         transform="matrix(1.3333333,0,0,-1.3333333,111.91467,126.52667)" />
      <path
         id="path34"
         d="m 3.0243672,-4.7685859 h 1.0664062 c 0.2460938,0 0.2695313,0 0.328125,-0.058594 0.070312,-0.046875 0.1054688,-0.2109375 0.1054688,-0.28125 0,-0.2226562 -0.1992188,-0.2226562 -0.3984375,-0.2226562 H 3.1649922 l 0.3867187,-1.546875 c 0.046875,-0.1875 0.046875,-0.2578125 0.046875,-0.3046875 0,-0.3867188 -0.3046875,-0.5273438 -0.5625,-0.5273438 -0.1757812,0 -0.5039062,0.082031 -0.6914062,0.4101563 -0.046875,0.1054687 -0.1992188,0.65625 -0.28125,0.984375 l -0.234375,0.984375 H 0.73921094 c -0.234375,0 -0.43359375,0 -0.43359375,0.3515625 0,0.2109375 0.1875,0.2109375 0.3984375,0.2109375 H 1.6767109 l -0.67968746,2.7421875 c -0.0820313,0.3164062 -0.19921875,0.8203125 -0.19921875,0.9492187 0,0.77343751 0.76171871,1.17187501 1.51171871,1.17187501 1.4179688,0 2.2382813,-1.66406251 2.2382813,-1.87500001 0,-0.1640625 -0.1757813,-0.1640625 -0.28125,-0.1640625 -0.2109375,0 -0.2226563,0.011719 -0.3046875,0.1875 -0.4570313,1.04296876 -1.125,1.41796876 -1.59375,1.41796876 -0.1054688,0 -0.2929688,0 -0.2929688,-0.4453125 0,-0.22265626 0.035156,-0.35156246 0.070312,-0.51562496 z m 0,0"
         style="fill:#d33682;fill-opacity:1;fill-rule:nonzero;stroke:none"
         aria-label="t"
         transform="matrix(1.3333333,0,0,1.3333333,761.00267,268.55733)" />
      <g
         id="g34"
         aria-label="=⇒"
         transform="matrix(1.3333333,0,0,1.3333333,296.212,267.88133)">
        <path
           id="path35"
           d="m 11.577328,-5.7762344 c 0.269531,0 0.539063,0 0.539063,-0.3046875 0,-0.328125 -0.304688,-0.328125 -0.609375,-0.328125 H 1.4406094 c -0.3046875,0 -0.60937502,0 -0.60937502,0.328125 0,0.3046875 0.26953122,0.3046875 0.53906252,0.3046875 z m -0.07031,3.1992188 c 0.304687,0 0.609375,0 0.609375,-0.3164063 0,-0.3046875 -0.269532,-0.3046875 -0.539063,-0.3046875 H 1.3702969 c -0.2695313,0 -0.53906252,0 -0.53906252,0.3046875 0,0.3164063 0.30468752,0.3164063 0.60937502,0.3164063 z m 0,0"
           style="fill:#d33682;fill-opacity:1;fill-rule:nonzero;stroke:none" />
        <path
           id="path36"
           d="m 23.023617,-5.8817031 c 0.761719,0.6445312 1.675781,1.1132812 2.273438,1.3828125 -0.65625,0.2929687 -1.535157,0.7617187 -2.273438,1.3828125 H 11.597836 c -0.304688,0 -0.65625,0 -0.65625,0.3632812 0,0.3632813 0.328125,0.3632813 0.632812,0.3632813 h 10.640625 c -0.867187,0.8203125 -1.804687,2.41406247 -1.804687,2.64843747 0,0.1875 0.234375,0.1875 0.351562,0.1875 0.140625,0 0.269532,0 0.339844,-0.140625 0.375,-0.6796875 0.878906,-1.64062497 2.050781,-2.68359377 1.242188,-1.0898437 2.449219,-1.5820312 3.386719,-1.8515625 0.304688,-0.1054687 0.316406,-0.1289062 0.351563,-0.1640625 0.03516,-0.011719 0.03516,-0.070312 0.03516,-0.1054687 0,-0.035156 0,-0.070312 -0.01172,-0.1054688 l -0.05859,-0.035156 c -0.03516,-0.023437 -0.04687,-0.035156 -0.386718,-0.1523438 -2.4375,-0.7148437 -4.230469,-2.3554687 -5.238282,-4.2773437 -0.199218,-0.3632813 -0.222656,-0.375 -0.46875,-0.375 -0.117187,0 -0.351562,0 -0.351562,0.1875 0,0.234375 0.925781,1.8046875 1.804687,2.6484375 H 11.574398 c -0.304687,0 -0.632812,0 -0.632812,0.3632812 0,0.3632813 0.351562,0.3632813 0.65625,0.3632813 z m 0,0"
           style="fill:#d33682;fill-opacity:1;fill-rule:nonzero;stroke:none" />
      </g>
      <path
         id="path37"
         d="M 209.95117,-93.98648 289.4987,-8.72743"
         style="fill:none;stroke:#268bd2;stroke-width:5.66934;stroke-linecap:butt;stroke-linejoin:miter;stroke-miterlimit:10;stroke-dasharray:none;stroke-opacity:0.6"
         transform="matrix(1.3333333,0,0,-1.3333333,111.91467,126.52667)" />
      <path
         id="path38"
         d="m 212.32896,-97.07607 74.79195,40.08126"
         style="fill:none;stroke:#268bd2;stroke-width:5.66934;stroke-linecap:butt;stroke-linejoin:miter;stroke-miterlimit:10;stroke-dasharray:none;stroke-opacity:0.6"
         transform="matrix(1.3333333,0,0,-1.3333333,111.91467,126.52667)" />
      <path
         id="path39"
         d="m 213.7449,-102.71393 h 71.96007"
         style="fill:none;stroke:#268bd2;stroke-width:5.66934;stroke-linecap:butt;stroke-linejoin:miter;stroke-miterlimit:10;stroke-dasharray:none;stroke-opacity:0.6"
         transform="matrix(1.3333333,0,0,-1.3333333,111.91467,126.52667)" />
      <path
         id="path40"
         d="M 309.17111,-3.08939 381.9448,-22.58945"
         style="fill:none;stroke:#268bd2;stroke-width:5.66934;stroke-linecap:butt;stroke-linejoin:miter;stroke-miterlimit:10;stroke-dasharray:none;stroke-opacity:0.6"
         transform="matrix(1.3333333,0,0,-1.3333333,111.91467,126.52667)" />
      <path
         id="path41"
         d="m 306.94429,-58.83513 77.22749,-62.0791"
         style="fill:none;stroke:#268bd2;stroke-width:5.66934;stroke-linecap:butt;stroke-linejoin:miter;stroke-miterlimit:10;stroke-dasharray:none;stroke-opacity:0.6"
         transform="matrix(1.3333333,0,0,-1.3333333,111.91467,126.52667)" />
      <path
         id="path42"
         d="m 306.94429,-110.1921 77.22749,-62.0791"
         style="fill:none;stroke:#268bd2;stroke-width:5.66934;stroke-linecap:butt;stroke-linejoin:miter;stroke-miterlimit:10;stroke-dasharray:none;stroke-opacity:0.6"
         transform="matrix(1.3333333,0,0,-1.3333333,111.91467,126.52667)" />
      <path
         id="path43"
         d="m 402.7774,-33.15665 77.2275,-62.0791"
         style="fill:none;stroke:#268bd2;stroke-width:5.66934;stroke-linecap:butt;stroke-linejoin:miter;stroke-miterlimit:10;stroke-dasharray:none;stroke-opacity:0.6"
         transform="matrix(1.3333333,0,0,-1.3333333,111.91467,126.52667)" />
      <path
         id="path44"
         d="m 405.00421,-125.30301 72.77369,19.50006"
         style="fill:none;stroke:#268bd2;stroke-width:5.66934;stroke-linecap:butt;stroke-linejoin:miter;stroke-miterlimit:10;stroke-dasharray:none;stroke-opacity:0.6"
         transform="matrix(1.3333333,0,0,-1.3333333,111.91467,126.52667)" />
      <path
         id="path45"
         d="m 402.7774,-172.2712 77.2275,62.0791"
         style="fill:none;stroke:#268bd2;stroke-width:5.66934;stroke-linecap:butt;stroke-linejoin:miter;stroke-miterlimit:10;stroke-dasharray:none;stroke-opacity:0.6"
         transform="matrix(1.3333333,0,0,-1.3333333,111.91467,126.52667)" />
      <path
         id="path46"
         d="m 209.95117,-93.98648 76.78195,82.29491"
         style="fill:none;stroke:#586e75;stroke-width:1.19553;stroke-linecap:butt;stroke-linejoin:miter;stroke-miterlimit:10;stroke-dasharray:none;stroke-opacity:1"
         transform="matrix(1.3333333,0,0,-1.3333333,111.91467,126.52667)" />
      <path
         id="path47"
         d="M 5.08617,0 1.82423,1.24171 2.92336,0 1.82423,-1.24171 Z"
         style="fill:#586e75;fill-opacity:1;fill-rule:nonzero;stroke:#586e75;stroke-width:1.12978;stroke-linecap:butt;stroke-linejoin:miter;stroke-miterlimit:10;stroke-dasharray:none;stroke-opacity:1"
         transform="matrix(0.90956,-0.97488,-0.97488,-0.90956,491.8234,144.69)" />
      <path
         id="path48"
         d="m 3.4596339,-7.6985385 c 0.00119,-0.2735811 0.00177,-0.2901444 -0.2472576,-0.2821931 -0.2770691,0.3386427 -0.8722853,0.7657566 -2.1242478,0.763818 l 0.00451,0.3484029 c 0.2901444,0.00177 0.8869964,0.00587 1.535878,-0.2950088 l -5.502e-4,6.23525505 c 0.00164,0.43121928 -0.036658,0.57914049 -1.0978557,0.57552273 l -0.3735348,0.011927 0.00451,0.3484029 c 0.3324138,-0.02164395 1.4849967,-0.02315012 1.8830894,-0.02593428 0.4060873,0.0057845 1.5506757,-0.0042903 1.8813671,0.02375554 l -0.00451,-0.3484029 -0.3729607,-0.004636 C 3.4868701,-0.3512475 3.4589107,-0.50146524 3.4572748,-0.93268451 Z m 7.5713341,-0.869358 c 0.05486,-0.1473471 0.05543,-0.1639104 0.04858,-0.2056056 0.0052,-0.1490695 -0.116473,-0.2279102 -0.215853,-0.231355 -0.14907,-0.00517 -0.177646,0.1016329 -0.241646,0.2735379 L 6.5739882,2.5624632 c -0.055431,0.1639104 -0.064574,0.1884682 -0.065722,0.2215948 0.00398,0.1245116 0.091916,0.2187673 0.2329909,0.2153658 0.1490695,0.00517 0.1947836,-0.1176221 0.2325032,-0.24898 z m 4.163391,0.8677559 c 0.0012,-0.2735811 0.0018,-0.2901443 -0.247257,-0.282193 -0.277069,0.3386427 -0.872286,0.7657566 -2.124248,0.7638179 l 0.0045,0.348403 c 0.290145,0.00177 0.886997,0.00587 1.535878,-0.2950089 l -5.5e-4,6.23525509 c 0.0016,0.43121927 -0.03666,0.57914049 -1.097855,0.57552273 l -0.373535,0.011927 0.0045,0.3484029 c 0.332414,-0.02164395 1.484997,-0.02315012 1.88309,-0.02593428 0.406087,0.0057845 1.550675,-0.0042903 1.881367,0.02375554 l -0.0045,-0.3484029 -0.372961,-0.004636 C 15.221595,-0.35284956 15.193636,-0.5030673 15.192,-0.93428658 Z m 0,0"
         style="fill:#d33682;fill-opacity:1;fill-rule:nonzero;stroke:none"
         aria-label="1/1"
         transform="matrix(0.90956,-0.97488,0.97488,0.90956,440.55372,185.76954)" />
      <path
         id="path49"
         d="m 212.32896,-97.07607 71.2188,38.16645"
         style="fill:none;stroke:#586e75;stroke-width:1.19553;stroke-linecap:butt;stroke-linejoin:miter;stroke-miterlimit:10;stroke-dasharray:none;stroke-opacity:1"
         transform="matrix(1.3333333,0,0,-1.3333333,111.91467,126.52667)" />
      <path
         id="path50"
         d="M 5.08617,0 1.82423,1.24171 2.92336,0 1.82423,-1.24171 Z"
         style="fill:#586e75;fill-opacity:1;fill-rule:nonzero;stroke:#586e75;stroke-width:1.12978;stroke-linecap:butt;stroke-linejoin:miter;stroke-miterlimit:10;stroke-dasharray:none;stroke-opacity:1"
         transform="matrix(1.1751733,-0.62976,-0.62976,-1.1751733,486.87481,206.73596)" />
      <path
         id="path51"
         d="m 3.4526597,-7.6832672 c 0.00262,-0.2778102 -0.00217,-0.2936752 -0.2434604,-0.2900182 -0.2763774,0.3172499 -0.8763314,0.7669053 -2.1137507,0.768584 l -0.0041,0.3301992 c 0.2778102,0.00262 0.8754901,0.00381 1.5289203,-0.2975281 l 0.00691,6.23948565 c -0.00707,0.43497733 -0.037711,0.59140306 -1.0965628,0.58240653 l -0.3722588,-4.992e-5 6.915e-4,0.34606423 c 0.3309406,-0.02209191 1.4897764,-0.02599482 1.8882297,-0.0252035 0.3984532,7.9131e-4 1.5517535,0.0072179 1.8708819,0.03197961 l -6.915e-4,-0.34606423 -0.3722587,-4.993e-5 c -1.0485223,-0.003461 -1.0916689,-0.14624598 -1.0846007,-0.5812233 z m 7.5749753,-0.880101 c 0.05684,-0.1556843 0.05758,-0.1818789 0.04799,-0.2136089 0.0044,-0.1571671 -0.119506,-0.2235926 -0.208419,-0.2313522 -0.146837,0.00109 -0.191862,0.1099179 -0.23837,0.2711377 L 6.5653088,2.5672712 C 6.5140068,2.712626 6.5132658,2.7388205 6.5069888,2.7753446 6.5032788,2.9063172 6.6106298,3.0037313 6.7416024,3.0074382 6.904305,3.0015582 6.928671,2.8816554 6.9903025,2.741836 Z m 4.16169,0.8806605 c 0.0026,-0.2778102 -0.0022,-0.2936752 -0.24346,-0.2900182 -0.276377,0.3172499 -0.876331,0.7669053 -2.113751,0.768584 l -0.0041,0.3301992 c 0.27781,0.00262 0.87549,0.00381 1.52892,-0.2975281 l 0.0069,6.23948565 c -0.0071,0.43497733 -0.03771,0.59140306 -1.096563,0.58240653 l -0.372259,-4.992e-5 6.92e-4,0.34606423 c 0.33094,-0.02209191 1.489776,-0.02599482 1.888229,-0.0252035 0.398454,7.9131e-4 1.551754,0.0072179 1.870882,0.03197961 l -6.91e-4,-0.34606423 -0.372259,-4.993e-5 c -1.048522,-0.003461 -1.091669,-0.14624598 -1.084601,-0.58122331 z m 0,0"
         style="fill:#d33682;fill-opacity:1;fill-rule:nonzero;stroke:none"
         aria-label="1/1"
         transform="matrix(1.1751733,-0.62976,0.62976,1.1751733,449.99989,215.76211)" />
      <path
         id="path52"
         d="m 213.7449,-102.71393 h 67.90601"
         style="fill:none;stroke:#586e75;stroke-width:1.19553;stroke-linecap:butt;stroke-linejoin:miter;stroke-miterlimit:10;stroke-dasharray:none;stroke-opacity:1"
         transform="matrix(1.3333333,0,0,-1.3333333,111.91467,126.52667)" />
      <path
         id="path53"
         d="M 5.08617,0 1.82423,1.24171 2.92336,0 1.82423,-1.24171 Z"
         style="fill:#586e75;fill-opacity:1;fill-rule:nonzero;stroke:#586e75;stroke-width:1.12978;stroke-linecap:butt;stroke-linejoin:miter;stroke-miterlimit:10;stroke-dasharray:none;stroke-opacity:1"
         transform="matrix(1.3333333,0,0,-1.3333333,483.928,263.47857)" />
      <path
         id="path54"
         d="m 3.4572656,-7.6867812 c 0,-0.28125 0,-0.2929688 -0.2460937,-0.2929688 -0.28125,0.328125 -0.8789063,0.7734375 -2.1210938,0.7734375 v 0.3398438 c 0.28125,0 0.8789063,0 1.5351563,-0.3046875 v 6.2460937 c 0,0.43359375 -0.035156,0.57421875 -1.0898438,0.57421875 h -0.375 v 0.3515625 c 0.328125,-0.0234375 1.4882813,-0.0234375 1.8867188,-0.0234375 0.3984375,0 1.546875,0 1.875,0.0234375 v -0.3515625 h -0.375 c -1.0546875,0 -1.0898438,-0.140625 -1.0898438,-0.57421875 z m 7.5673824,-0.8789063 c 0.05859,-0.1523437 0.05859,-0.1757812 0.05859,-0.2109375 0,-0.1523437 -0.117187,-0.2226562 -0.210937,-0.2226562 -0.152344,0 -0.1875,0.1054687 -0.246094,0.2695312 L 6.5715234,2.567125 c -0.058594,0.1523438 -0.058594,0.1757813 -0.058594,0.2109375 0,0.1289063 0.09375,0.2226563 0.234375,0.2226563 0.1523437,0 0.1875,-0.1171875 0.234375,-0.2578125 z m 4.168946,0.8789063 c 0,-0.28125 0,-0.2929688 -0.246094,-0.2929688 -0.28125,0.328125 -0.878906,0.7734375 -2.121094,0.7734375 v 0.3398438 c 0.28125,0 0.878906,0 1.535156,-0.3046875 v 6.2460937 c 0,0.43359375 -0.03516,0.57421875 -1.089843,0.57421875 h -0.375 v 0.3515625 c 0.328125,-0.0234375 1.488281,-0.0234375 1.886718,-0.0234375 0.398438,0 1.546875,0 1.875,0.0234375 v -0.3515625 h -0.375 c -1.054687,0 -1.089843,-0.140625 -1.089843,-0.57421875 z m 0,0"
         style="fill:#d33682;fill-opacity:1;fill-rule:nonzero;stroke:none"
         aria-label="1/1"
         transform="matrix(1.3333333,0,0,1.3333333,452.32,254.01467)" />
      <path
         id="path55"
         d="m 212.32896,-108.35178 71.2188,-38.16644"
         style="fill:none;stroke:#586e75;stroke-width:1.19553;stroke-linecap:butt;stroke-linejoin:miter;stroke-miterlimit:10;stroke-dasharray:none;stroke-opacity:1"
         transform="matrix(1.3333333,0,0,-1.3333333,111.91467,126.52667)" />
      <path
         id="path56"
         d="M 5.08617,0 1.82423,1.24171 2.92336,0 1.82423,-1.24171 Z"
         style="fill:#586e75;fill-opacity:1;fill-rule:nonzero;stroke:#586e75;stroke-width:1.12978;stroke-linecap:butt;stroke-linejoin:miter;stroke-miterlimit:10;stroke-dasharray:none;stroke-opacity:1"
         transform="matrix(1.1751733,0.62976,0.62976,-1.1751733,486.87481,320.22116)" />
      <path
         id="path57"
         d="M 5.387541,-3.8431706 C 5.3855627,-4.8393038 5.3160718,-5.8125538 4.8972053,-6.7182411 4.4023252,-7.7161529 3.5297507,-7.9798268 2.9479358,-7.9738457 c -0.7079935,-0.00618 -1.5579805,0.3429526 -2.00684453,1.3413599 -0.32456393,0.7589496 -0.44510715,1.5016386 -0.44530311,2.791447 0.001633,1.1691653 0.0784875,2.0321017 0.51727154,2.90052364 0.460926,0.90974007 1.3025119,1.19002031 1.9160568,1.19362741 C 3.9776387,0.24965118 4.5733903,-0.37541022 4.9208374,-1.0668472 5.356802,-1.9652705 5.3916935,-3.1407126 5.387541,-3.8431706 Z M 2.9327735,0.0118261 C 2.5446498,0.00708196 1.7680066,-0.20163297 1.5317105,-1.5109634 1.4172444,-2.2207853 1.4174903,-3.1383349 1.4144249,-3.9876305 c -0.00677,-0.9802682 -0.00579,-1.8716233 0.1837536,-2.5848065 0.213509,-0.7925081 0.8214685,-1.1714893 1.3302353,-1.1649167 0.4667073,0.00252 1.1559201,0.2713836 1.3792669,1.3084393 0.1557842,0.6876801 0.1666092,1.6258888 0.1633978,2.4386603 -0.00321,0.8127715 0.00134,1.7144562 -0.129536,2.4626806 -0.2407407,1.31234589 -0.9841212,1.5378669 -1.408769,1.5393996 z m 8.0939105,-8.5721682 c 0.04794,-0.1586499 0.0472,-0.1848444 0.05679,-0.2165744 -0.0044,-0.1571671 -0.12178,-0.2272497 -0.210693,-0.21949 -0.146837,-0.00109 -0.185931,0.099638 -0.244202,0.2638236 L 6.5754588,2.5604246 c -0.074135,0.1593913 -0.073394,0.1855858 -0.067117,0.2221099 0.00371,0.1309726 0.1059152,0.2224556 0.2368878,0.2187486 0.1627026,0.00588 0.1907256,-0.1155033 0.2338722,-0.2582882 z m 4.166722,0.8717036 c -0.0026,-0.2778102 0.0022,-0.2936752 -0.239112,-0.2973322 -0.299902,0.3335604 -0.895308,0.7855897 -2.132728,0.783911 l 0.0041,0.3301992 c 0.27781,-0.00262 0.87549,-0.00381 1.533269,-0.2898222 l -0.0069,6.2394857 c 0.0071,0.43497733 -0.02575,0.57222678 -1.084601,0.58122331 l -0.372258,4.993e-5 -6.92e-4,0.34606423 c 0.329458,-0.03029713 1.488294,-0.02639423 1.886747,-0.02718554 0.398453,-7.9132e-4 1.551754,-0.0072179 1.872365,0.02040943 l 6.91e-4,-0.34606423 -0.372259,4.992e-5 c -1.048522,0.003461 -1.089494,-0.1474292 -1.096562,-0.58240653 z m 0,0"
         style="fill:#d33682;fill-opacity:1;fill-rule:nonzero;stroke:none"
         aria-label="0/1"
         transform="matrix(1.1751733,0.62976,-0.62976,1.1751733,448.96718,289.17041)" />
      <path
         id="path58"
         d="m 209.95117,-111.44136 76.78195,-82.29491"
         style="fill:none;stroke:#586e75;stroke-width:1.19553;stroke-linecap:butt;stroke-linejoin:miter;stroke-miterlimit:10;stroke-dasharray:none;stroke-opacity:1"
         transform="matrix(1.3333333,0,0,-1.3333333,111.91467,126.52667)" />
      <path
         id="path59"
         d="M 5.08617,0 1.82423,1.24171 2.92336,0 1.82423,-1.24171 Z"
         style="fill:#586e75;fill-opacity:1;fill-rule:nonzero;stroke:#586e75;stroke-width:1.12978;stroke-linecap:butt;stroke-linejoin:miter;stroke-miterlimit:10;stroke-dasharray:none;stroke-opacity:1"
         transform="matrix(0.90956,0.97488,0.97488,-0.90956,491.8234,382.26712)" />
      <path
         id="path60"
         d="m 5.3804355,-3.84388 c -0.00132,-0.9949448 -0.051758,-1.9716039 -0.4974172,-2.8682308 -0.490799,-1.0028528 -1.3624236,-1.271137 -1.9427124,-1.2676057 -0.7048004,-4.444e-4 -1.5466135,0.3521071 -1.99307482,1.3459901 -0.33855621,0.7579782 -0.45379527,1.4999241 -0.4507084,2.7850132 -9.3204e-4,1.1691462 0.0791867,2.0452774 0.51512872,2.90078315 0.4627964,0.91261602 1.2938741,1.20718046 1.9238526,1.2019268 1.03664,0.005525 1.6282384,-0.6285589 1.993649,-1.32942685 C 5.3539271,-1.9773539 5.3799911,-3.1390797 5.3804355,-3.84388 Z M 2.9354608,0.0135422 C 2.5459368,0.01875261 1.7588509,-0.20271241 1.5312986,-1.5048957 1.4066573,-2.230235 1.4082067,-3.1423634 1.4120526,-3.9882387 c -7.471e-4,-0.9783815 0.00138,-1.8739466 0.1760223,-2.5764937 0.2208909,-0.8036491 0.8382386,-1.1732948 1.3522742,-1.1745296 0.4477826,0.00106 1.1286425,0.2676668 1.363572,1.3042636 0.1651883,0.6990591 0.1642131,1.6277508 0.1677876,2.4484941 -0.00499,0.8127487 0.00145,1.7163084 -0.1303514,2.4588283 -0.2362194,1.31825896 -0.9912405,1.54342823 -1.4058965,1.5412182 z m 8.0835282,-8.5738587 c 0.06051,-0.1679293 0.05994,-0.1844926 0.06678,-0.2261878 -0.0052,-0.1490695 -0.115412,-0.2198724 -0.214791,-0.2164276 -0.14907,0.00517 -0.186746,0.1142638 -0.239264,0.2736243 L 6.5705814,2.5636487 c -0.061086,0.151366 -0.051943,0.1759238 -0.050795,0.2090504 -0.00398,0.1245116 0.090854,0.2290152 0.2319291,0.2324167 0.1490694,-0.00517 0.1867458,-0.1142638 0.2312684,-0.2650556 z m 4.173842,0.8689695 c -0.0012,-0.2735811 -0.0018,-0.2901444 -0.250789,-0.2980957 -0.270093,0.3410257 -0.868581,0.7763504 -2.120543,0.778289 l -0.0045,0.3484029 c 0.290145,-0.00177 0.886997,-0.00587 1.548336,-0.3024173 l 5.5e-4,6.23525502 c -0.0016,0.43121928 -0.0296,0.58143701 -1.090793,0.58505477 l -0.373535,-0.011927 -0.0045,0.34840291 c 0.331265,-0.0114826 1.483848,-0.00997643 1.881941,-0.00719227 0.406087,-0.0057845 1.550676,0.0042903 1.882515,0.00937101 l 0.0045,-0.34840291 -0.372961,0.004636 c -1.061198,0.003618 -1.099492,-0.14430346 -1.097856,-0.57552274 z m 0,0"
         style="fill:#d33682;fill-opacity:1;fill-rule:nonzero;stroke:none"
         aria-label="0/1"
         transform="matrix(0.90956,0.97488,-0.97488,0.90956,443.78463,316.90721)" />
      <path
         id="path61"
         d="m 309.17111,-3.08939 68.85782,-18.45079"
         style="fill:none;stroke:#586e75;stroke-width:1.19553;stroke-linecap:butt;stroke-linejoin:miter;stroke-miterlimit:10;stroke-dasharray:none;stroke-opacity:1"
         transform="matrix(1.3333333,0,0,-1.3333333,111.91467,126.52667)" />
      <path
         id="path62"
         d="M 5.08617,0 1.82423,1.24171 2.92336,0 1.82423,-1.24171 Z"
         style="fill:#586e75;fill-opacity:1;fill-rule:nonzero;stroke:#586e75;stroke-width:1.12978;stroke-linecap:butt;stroke-linejoin:miter;stroke-miterlimit:10;stroke-dasharray:none;stroke-opacity:1"
         transform="matrix(1.28788,0.34509333,0.34509333,-1.28788,612.55204,154.33555)" />
      <path
         id="path63"
         d="m 3.4580891,-7.6955796 c -0.00184,-0.2785496 -0.00488,-0.2898692 -0.2464354,-0.2858044 -0.2872116,0.3317388 -0.8822726,0.7823643 -2.1217995,0.7747957 l 0.00569,0.3381807 c 0.2785496,-0.00184 0.8726407,-0.00331 1.5214852,-0.2984978 l -3.84e-5,6.24816614 c 0.00428,0.42348418 -0.03027,0.56619859 -1.0735173,0.56669771 l -0.3751726,0.00347 -0.0026,0.35253346 c 0.3321144,-0.02832988 1.4833047,-0.03348804 1.8841497,-0.03170521 0.400845,0.0017828 1.5520353,-0.0033753 1.8766762,0.03095905 l 0.0026,-0.35253345 -0.3782058,-0.007849 C 3.496354,-0.3536347 3.4569232,-0.50078922 3.4526397,-0.9242734 Z m 7.5653369,-0.8685279 c 0.06548,-0.1631334 0.05941,-0.1857726 0.06466,-0.2114449 -0.0055,-0.1562542 -0.120294,-0.2225459 -0.216917,-0.22092 -0.147967,-0.00888 -0.19162,0.099875 -0.245779,0.2599752 L 6.5716851,2.5772768 C 6.5114601,2.7147379 6.5062061,2.7404102 6.5153061,2.774369 6.5147118,2.907984 6.6099271,2.9916616 6.7435426,2.9922558 6.90283,2.9981058 6.9351629,2.8923808 6.9810355,2.7466334 Z m 4.169886,0.8693309 c -0.0018,-0.2785496 -0.0049,-0.2898692 -0.246436,-0.2858044 -0.287211,0.3317389 -0.882272,0.7823644 -2.121799,0.7747957 l 0.0057,0.3381807 c 0.27855,-0.00184 0.872641,-0.00331 1.521486,-0.2984978 l -3.9e-5,6.24816616 c 0.0043,0.42348418 -0.03027,0.56619859 -1.073517,0.56669771 l -0.375173,0.00347 -0.0026,0.35253345 c 0.332115,-0.02832987 1.483305,-0.03348804 1.88415,-0.03170521 0.400845,0.0017828 1.552035,-0.0033753 1.876676,0.03095906 l 0.0026,-0.35253346 -0.378206,-0.007849 c -1.054567,0.003532 -1.093998,-0.14362253 -1.098281,-0.56710671 z m 0,0"
         style="fill:#d33682;fill-opacity:1;fill-rule:nonzero;stroke:none"
         aria-label="1/1"
         transform="matrix(1.28788,0.34509333,-0.34509333,1.28788,563.75789,131.46371)" />
      <path
         id="path64"
         d="m 309.17111,-48.26756 68.85782,18.45079"
         style="fill:none;stroke:#586e75;stroke-width:1.19553;stroke-linecap:butt;stroke-linejoin:miter;stroke-miterlimit:10;stroke-dasharray:none;stroke-opacity:1"
         transform="matrix(1.3333333,0,0,-1.3333333,111.91467,126.52667)" />
      <path
         id="path65"
         d="M 5.08617,0 1.82423,1.24171 2.92336,0 1.82423,-1.24171 Z"
         style="fill:#586e75;fill-opacity:1;fill-rule:nonzero;stroke:#586e75;stroke-width:1.12978;stroke-linecap:butt;stroke-linejoin:miter;stroke-miterlimit:10;stroke-dasharray:none;stroke-opacity:1"
         transform="matrix(1.28788,-0.34509333,-0.34509333,-1.28788,612.55204,167.19372)" />
      <path
         id="path66"
         d="M 5.3744548,-3.8489356 C 5.3741409,-4.8438717 5.3307689,-5.8139484 4.8909922,-6.7082584 4.3962435,-7.7143572 3.5337338,-7.9818676 2.9396427,-7.9833366 c -0.7050669,0.00519 -1.5381199,0.3521912 -1.98696259,1.3480972 -0.34815484,0.7559742 -0.4517189,1.5046936 -0.45628278,2.7894989 9.515e-5,1.1768626 0.0737986,2.0337434 0.50832197,2.90238107 0.4737354,0.90340944 1.3045065,1.19881239 1.9242699,1.19502806 1.0432476,4.9911e-4 1.6479072,-0.6260818 1.9922159,-1.32242493 0.432864,-0.8909964 0.4584412,-2.0731124 0.4532497,-2.7781793 z M 2.9217344,0.00707783 C 2.5435286,0.01492694 1.7737959,-0.19132646 1.5459016,-1.5141553 1.4101281,-2.2299475 1.4112215,-3.1395802 1.4054357,-3.9782621 c -3.139e-4,-0.9949361 0.00603,-1.8788964 0.1827678,-2.5837446 0.218386,-0.8150111 0.824234,-1.174362 1.3360548,-1.1828054 0.4604761,0.00206 1.1493457,0.2837078 1.3821178,1.3166674 0.1561924,0.6848666 0.1603524,1.6201716 0.1578517,2.4445007 0.00357,0.80169 0.00247,1.7113226 -0.1320174,2.439623 -0.2356149,1.33208521 -0.9869918,1.55538228 -1.410476,1.55109883 z M 11.027594,-8.5671415 c 0.05378,-0.1554412 0.05985,-0.1780804 0.0546,-0.2037528 0.0055,-0.1562542 -0.118231,-0.2379302 -0.214854,-0.2395561 -0.147968,0.00888 -0.178299,0.1220767 -0.243402,0.2744848 L 6.5762544,2.5665607 C 6.5111514,2.7189688 6.5164044,2.7446411 6.5073054,2.7785999 6.5078997,2.9122149 6.6059304,2.9991443 6.739545,2.99855 6.8988323,2.9927 6.9404833,2.8825396 6.9912337,2.7384179 Z m 4.162501,0.8787804 c 0.0018,-0.2785496 0.0049,-0.2898692 -0.23668,-0.293934 -0.292527,0.3219834 -0.885648,0.769671 -2.125175,0.7772396 l -0.0057,0.3381808 c 0.27855,0.00184 0.872641,0.00331 1.537307,-0.3038798 l 3.9e-5,6.24816621 c -0.0043,0.42348419 -0.04372,0.57063897 -1.086962,0.57013985 l -0.375173,-0.003471 0.0026,0.35253346 c 0.321608,-0.02301479 1.472798,-0.01785663 1.873643,-0.01963946 0.400845,-0.0017828 1.552035,0.0033753 1.887183,0.02038562 l -0.0026,-0.35253346 -0.378206,0.007849 c -1.054567,-0.003532 -1.08912,-0.14624666 -1.084837,-0.56973084 z m 0,0"
         style="fill:#d33682;fill-opacity:1;fill-rule:nonzero;stroke:none"
         aria-label="0/1"
         transform="matrix(1.28788,-0.34509333,0.34509333,1.28788,558.85971,171.78431)" />
      <path
         id="path67"
         d="m 306.94429,-58.83513 74.06793,-59.53926"
         style="fill:none;stroke:#586e75;stroke-width:1.19553;stroke-linecap:butt;stroke-linejoin:miter;stroke-miterlimit:10;stroke-dasharray:none;stroke-opacity:1"
         transform="matrix(1.3333333,0,0,-1.3333333,111.91467,126.52667)" />
      <path
         id="path68"
         d="M 5.08617,0 1.82423,1.24171 2.92336,0 1.82423,-1.24171 Z"
         style="fill:#586e75;fill-opacity:1;fill-rule:nonzero;stroke:#586e75;stroke-width:1.12978;stroke-linecap:butt;stroke-linejoin:miter;stroke-miterlimit:10;stroke-dasharray:none;stroke-opacity:1"
         transform="matrix(1.0391467,0.83533333,0.83533333,-1.0391467,617.18668,282.15315)" />
      <path
         id="path69"
         d="M 3.461768,-7.682887 C 3.459268,-7.9665704 3.461062,-7.9830469 3.2194655,-7.9843089 2.932905,-7.6486984 2.333644,-7.1970465 1.0835746,-7.1995969 l -0.00288,0.333113 c 0.2836835,-0.0025 0.8840035,-0.00391 1.5421809,-0.3074496 l -0.00362,6.24300478 c 0.00285,0.43376348 -0.029749,0.58026048 -1.0803094,0.58273149 l -0.3752,8.8251e-4 -0.00467,0.34958949 c 0.327562,-0.02273351 1.4861149,-0.02179803 1.8869254,-0.02823153 0.3916765,9.0899e-4 1.5502295,0.0018445 1.8724169,0.02854046 l 0.00467,-0.34958948 -0.3751999,8.825e-4 c -1.05056,0.002471 -1.093,-0.14384947 -1.0958505,-0.57761295 z m 7.562817,-0.8844137 c 0.05821,-0.152048 0.06,-0.1685245 0.05624,-0.2106115 -3.53e-4,-0.15008 -0.117656,-0.2211839 -0.209173,-0.2227989 -0.157422,-0.00878 -0.186439,0.104763 -0.253784,0.2641534 L 6.5794688,2.5692684 c -0.065553,0.142914 -0.076479,0.166733 -0.063585,0.2014775 -0.0052,0.1244695 0.092046,0.226735 0.232992,0.2337245 0.159214,-0.0077 0.188231,-0.1212395 0.2281735,-0.2586025 z m 4.171853,0.8828938 c -0.0025,-0.2836835 -7.06e-4,-0.30016 -0.242303,-0.301422 -0.28656,0.3356105 -0.885821,0.7872625 -2.135891,0.784712 l -0.0029,0.333113 c 0.283684,-0.0025 0.884004,-0.00391 1.542181,-0.3074495 l -0.0036,6.24300473 c 0.0029,0.43376348 -0.02975,0.58026048 -1.08031,0.58273149 l -0.3752,8.8251e-4 -0.0047,0.34958948622 C 13.221314,-0.02197869 14.379867,-0.02104321 14.780677,-0.02747671 c 0.391677,9.0899e-4 1.55023,0.0018445 1.872417,0.02854046 l 0.0047,-0.34958948 -0.3752,8.825e-4 c -1.05056,0.002471 -1.093,-0.14384947 -1.095851,-0.57761295 z m 0,0"
         style="fill:#d33682;fill-opacity:1;fill-rule:nonzero;stroke:none"
         aria-label="1/1"
         transform="matrix(1.0391467,0.83533333,-0.83533333,1.0391467,538.53963,206.79113)" />
      <path
         id="path70"
         d="m 309.17111,-99.62453 68.85782,18.45079"
         style="fill:none;stroke:#586e75;stroke-width:1.19553;stroke-linecap:butt;stroke-linejoin:miter;stroke-miterlimit:10;stroke-dasharray:none;stroke-opacity:1"
         transform="matrix(1.3333333,0,0,-1.3333333,111.91467,126.52667)" />
      <path
         id="path71"
         d="M 5.08617,0 1.82423,1.24171 2.92336,0 1.82423,-1.24171 Z"
         style="fill:#586e75;fill-opacity:1;fill-rule:nonzero;stroke:#586e75;stroke-width:1.12978;stroke-linecap:butt;stroke-linejoin:miter;stroke-miterlimit:10;stroke-dasharray:none;stroke-opacity:1"
         transform="matrix(1.28788,-0.34509333,-0.34509333,-1.28788,612.55204,235.66967)" />
      <path
         id="path72"
         d="M 5.3745274,-3.849086 C 5.3742136,-4.8440221 5.3308415,-5.8140988 4.8910649,-6.7084088 4.3963161,-7.7145076 3.5338065,-7.982018 2.9397153,-7.983487 c -0.7050669,0.00519 -1.5381199,0.3521913 -1.98696254,1.3480972 -0.34815484,0.7559743 -0.4517189,1.5046936 -0.45628278,2.7894989 9.515e-5,1.1768627 0.0737986,2.0337434 0.50832192,2.90238109 0.4737355,0.90340944 1.3045065,1.19881238 1.92427,1.19502805 1.0432476,4.9912e-4 1.6479071,-0.6260818 1.9922159,-1.32242494 0.432864,-0.8909964 0.4584412,-2.0731124 0.4532496,-2.7781793 z M 2.921807,0.00692745 C 2.5436012,0.01477655 1.7738686,-0.19147684 1.5459742,-1.5143057 1.4102008,-2.2300979 1.4112942,-3.1397306 1.4055083,-3.9784125 c -3.138e-4,-0.9949361 0.00603,-1.8788964 0.1827679,-2.5837446 0.2183859,-0.8150111 0.824234,-1.174362 1.3360548,-1.1828054 0.4604761,0.00206 1.1493457,0.2837078 1.3821178,1.3166674 0.1561924,0.6848666 0.1603523,1.6201716 0.1578517,2.4445008 0.00357,0.8016899 0.00247,1.7113226 -0.1320175,2.4396229 -0.2356148,1.33208523 -0.9869918,1.5553823 -1.410476,1.55109885 z m 8.10586,-8.57421935 c 0.05378,-0.1554412 0.05985,-0.1780804 0.0546,-0.2037527 0.0055,-0.1562542 -0.11823,-0.2379303 -0.214853,-0.2395562 -0.147968,0.00888 -0.1783,0.1220767 -0.243403,0.2744848 L 6.5763271,2.5664103 c -0.065103,0.1524081 -0.05985,0.1780804 -0.068949,0.2120392 5.942e-4,0.133615 0.098625,0.2205444 0.2322395,0.2199501 0.1592874,-0.00585 0.2009383,-0.1160104 0.2516887,-0.2601321 z m 4.1625,0.8787804 c 0.0018,-0.2785496 0.0049,-0.2898692 -0.23668,-0.2939339 -0.292526,0.3219834 -0.885648,0.7696709 -2.125174,0.7772396 l -0.0057,0.3381807 c 0.278549,0.00184 0.872641,0.00331 1.537307,-0.3038798 l 3.8e-5,6.24816623 c -0.0043,0.42348418 -0.04371,0.57063896 -1.086962,0.57013984 l -0.375172,-0.00347 0.0026,0.35253345 c 0.321607,-0.02301479 1.472798,-0.01785663 1.873643,-0.01963945 0.400845,-0.0017828 1.552035,0.0033753 1.887182,0.02038561 l -0.0026,-0.35253346 -0.378206,0.007849 c -1.054567,-0.003532 -1.08912,-0.14624667 -1.084837,-0.56973085 z m 0,0"
         style="fill:#d33682;fill-opacity:1;fill-rule:nonzero;stroke:none"
         aria-label="0/1"
         transform="matrix(1.28788,-0.34509333,0.34509333,1.28788,587.96905,232.46031)" />
      <path
         id="path73"
         d="m 309.17111,-105.80331 68.85782,-18.45079"
         style="fill:none;stroke:#586e75;stroke-width:1.19553;stroke-linecap:butt;stroke-linejoin:miter;stroke-miterlimit:10;stroke-dasharray:none;stroke-opacity:1"
         transform="matrix(1.3333333,0,0,-1.3333333,111.91467,126.52667)" />
      <path
         id="path74"
         d="M 5.08617,0 1.82423,1.24171 2.92336,0 1.82423,-1.24171 Z"
         style="fill:#586e75;fill-opacity:1;fill-rule:nonzero;stroke:#586e75;stroke-width:1.12978;stroke-linecap:butt;stroke-linejoin:miter;stroke-miterlimit:10;stroke-dasharray:none;stroke-opacity:1"
         transform="matrix(1.28788,0.34509333,0.34509333,-1.28788,612.55204,291.28747)" />
      <path
         id="path75"
         d="M 5.3758096,-3.8439582 C 5.3761234,-4.8388943 5.3228724,-5.8073451 4.8869753,-6.7096611 4.3867879,-7.7160737 3.5266554,-7.9830233 2.9325642,-7.9815543 c -0.7050669,-0.00519 -1.5433114,0.3528756 -1.99278177,1.3468419 -0.33427287,0.7447164 -0.44659414,1.5027538 -0.44203025,2.7875591 -9.516e-5,1.1768627 0.0741691,2.0426241 0.50925332,2.89662864 0.4759223,0.91585583 1.2938096,1.20625754 1.913573,1.21004187 C 3.9638262,0.25901809 4.5699881,-0.37656708 4.9307462,-1.0677186 5.3448506,-1.967282 5.370618,-3.1388913 5.3758096,-3.8439582 Z M 2.9278334,0.01492642 C 2.5496276,0.00707731 1.767325,-0.19580074 1.5347432,-1.5165663 1.4032866,-2.2335471 1.4021933,-3.1431797 1.4079791,-3.9818617 c 3.138e-4,-0.9949361 -0.00603,-1.8788964 0.1810852,-2.5841819 0.219451,-0.8110081 0.8244243,-1.1793633 1.3362451,-1.1709199 0.4604761,-0.00206 1.1530349,0.2733914 1.3807389,1.3042878 0.1623823,0.6965618 0.1582223,1.6318668 0.160723,2.4561959 -0.00357,0.80169 -0.00247,1.7113226 -0.1352126,2.4384345 C 4.1066975,-0.20389688 3.3513175,0.01064297 2.9278334,0.01492642 Z M 11.023644,-8.5632925 c 0.06548,-0.1631334 0.05941,-0.1857726 0.06467,-0.2114449 -0.0055,-0.1562542 -0.120294,-0.2225459 -0.216917,-0.22092 -0.147968,-0.00888 -0.19162,0.099875 -0.24578,0.2599752 L 6.5719035,2.5780918 c -0.060225,0.1374611 -0.065479,0.1631334 -0.056379,0.1970922 -5.943e-4,0.133615 0.094622,0.2172926 0.2282365,0.2178869 0.1592874,0.00585 0.1916202,-0.099875 0.2374929,-0.2456225 z m 4.169128,0.866501 c -0.0018,-0.2785495 -0.0049,-0.2898691 -0.246436,-0.2858044 -0.287211,0.3317389 -0.882272,0.7823644 -2.121799,0.7747957 l 0.0057,0.3381807 c 0.27855,-0.00184 0.872641,-0.00331 1.521486,-0.2984978 l -3.9e-5,6.24816617 c 0.0043,0.42348419 -0.03027,0.5661986 -1.073517,0.56669771 l -0.375173,0.00347 -0.0026,0.35253345 c 0.332114,-0.02832987 1.483304,-0.03348804 1.884149,-0.03170521 0.400845,0.0017828 1.552036,-0.0033753 1.876677,0.03095906 l 0.0026,-0.35253346 -0.378205,-0.007849 c -1.054568,0.003532 -1.093999,-0.14362252 -1.098282,-0.56710671 z m 0,0"
         style="fill:#d33682;fill-opacity:1;fill-rule:nonzero;stroke:none"
         aria-label="0/1"
         transform="matrix(1.28788,0.34509333,-0.34509333,1.28788,563.75789,268.41571)" />
      <path
         id="path76"
         d="m 306.94429,-110.1921 74.06793,-59.53925"
         style="fill:none;stroke:#586e75;stroke-width:1.19553;stroke-linecap:butt;stroke-linejoin:miter;stroke-miterlimit:10;stroke-dasharray:none;stroke-opacity:1"
         transform="matrix(1.3333333,0,0,-1.3333333,111.91467,126.52667)" />
      <path
         id="path77"
         d="M 5.08617,0 1.82423,1.24171 2.92336,0 1.82423,-1.24171 Z"
         style="fill:#586e75;fill-opacity:1;fill-rule:nonzero;stroke:#586e75;stroke-width:1.12978;stroke-linecap:butt;stroke-linejoin:miter;stroke-miterlimit:10;stroke-dasharray:none;stroke-opacity:1"
         transform="matrix(1.0391467,0.83533333,0.83533333,-1.0391467,617.18668,350.62911)" />
      <path
         id="path78"
         d="m 3.4613323,-7.6829177 c -0.0025,-0.2836834 -7.06e-4,-0.3001599 -0.2423025,-0.3014219 -0.2865605,0.3356105 -0.8858214,0.7872624 -2.1358909,0.784712 l -0.00288,0.333113 c 0.2836835,-0.0025 0.8840035,-0.00391 1.5421809,-0.3074496 l -0.00362,6.24300478 c 0.00285,0.43376348 -0.02975,0.58026048 -1.0803095,0.58273149 l -0.3752,8.8251e-4 -0.00467,0.34958949 c 0.327562,-0.02273351 1.486115,-0.02179803 1.8869255,-0.02823153 0.3916764,9.0899e-4 1.5502294,0.0018445 1.8724169,0.02854046 l 0.00467,-0.34958948 -0.3752,8.825e-4 c -1.05056,0.002471 -1.093,-0.14384947 -1.0958505,-0.57761295 z m 7.5628167,-0.8844137 c 0.05821,-0.152048 0.06,-0.1685245 0.05624,-0.2106115 -3.53e-4,-0.15008 -0.117657,-0.2211839 -0.209173,-0.2227989 -0.157423,-0.00878 -0.18644,0.104763 -0.253784,0.2641534 L 6.5790331,2.5692377 c -0.065553,0.142914 -0.076479,0.166733 -0.063585,0.2014775 -0.0052,0.1244695 0.092046,0.226735 0.232992,0.2337245 0.159214,-0.0077 0.188231,-0.1212395 0.2281735,-0.2586025 z m 4.171853,0.8828938 c -0.0025,-0.2836835 -7.06e-4,-0.30016 -0.242303,-0.301422 -0.28656,0.3356105 -0.885821,0.7872625 -2.13589,0.784712 l -0.0029,0.333113 c 0.283683,-0.0025 0.884003,-0.00391 1.54218,-0.3074495 l -0.0036,6.24300473 c 0.0029,0.43376348 -0.02975,0.58026048 -1.080309,0.58273149 l -0.3752,8.8251e-4 -0.0047,0.34958948657 C 13.220878,-0.02200939 14.379431,-0.02107391 14.780242,-0.02750741 c 0.391676,9.0899e-4 1.550229,0.0018445 1.872417,0.02854046 l 0.0047,-0.34958948 -0.3752,8.825e-4 c -1.05056,0.002471 -1.093,-0.14384947 -1.09585,-0.57761295 z m 0,0"
         style="fill:#d33682;fill-opacity:1;fill-rule:nonzero;stroke:none"
         aria-label="1/1"
         transform="matrix(1.0391467,0.83533333,-0.83533333,1.0391467,521.66896,296.25247)" />
      <path
         id="path79"
         d="m 309.17111,-150.98149 68.85782,18.45079"
         style="fill:none;stroke:#586e75;stroke-width:1.19553;stroke-linecap:butt;stroke-linejoin:miter;stroke-miterlimit:10;stroke-dasharray:none;stroke-opacity:1"
         transform="matrix(1.3333333,0,0,-1.3333333,111.91467,126.52667)" />
      <path
         id="path80"
         d="M 5.08617,0 1.82423,1.24171 2.92336,0 1.82423,-1.24171 Z"
         style="fill:#586e75;fill-opacity:1;fill-rule:nonzero;stroke:#586e75;stroke-width:1.12978;stroke-linecap:butt;stroke-linejoin:miter;stroke-miterlimit:10;stroke-dasharray:none;stroke-opacity:1"
         transform="matrix(1.28788,-0.34509333,-0.34509333,-1.28788,612.55204,304.14563)" />
      <path
         id="path81"
         d="M 5.3744266,-3.8506416 C 5.3741128,-4.8455777 5.3307407,-5.8156545 4.8909641,-6.7099645 4.3962153,-7.7160633 3.5337057,-7.9835737 2.9396145,-7.9850427 c -0.7050669,0.00519 -1.5381199,0.3521913 -1.98696253,1.3480972 -0.34815485,0.7559743 -0.4517189,1.5046937 -0.45628279,2.789499 9.516e-5,1.1768626 0.0737986,2.0337433 0.50832192,2.902381 0.4737355,0.90340944 1.3045065,1.19881239 1.92427,1.19502806 1.0432476,4.9912e-4 1.6479071,-0.6260818 1.9922159,-1.32242486 0.432864,-0.8909965 0.4584412,-2.0731124 0.4532496,-2.7781793 z M 2.9217062,0.00537176 C 2.5435004,0.01322087 1.7737678,-0.19303252 1.5458734,-1.5158614 1.4101,-2.2316536 1.4111934,-3.1412862 1.4054075,-3.9799682 c -3.138e-4,-0.9949361 0.00603,-1.8788964 0.1827679,-2.5837446 0.2183859,-0.8150111 0.824234,-1.174362 1.3360548,-1.1828054 0.4604761,0.00206 1.1493457,0.2837078 1.3821178,1.3166675 0.1561924,0.6848665 0.1603523,1.6201715 0.1578517,2.4445007 0.00357,0.8016899 0.00247,1.7113226 -0.1320174,2.439623 C 4.0965674,-0.21364186 3.3451904,0.00965521 2.9217062,0.00537176 Z M 11.026808,-8.5660177 c 0.05378,-0.1554412 0.05985,-0.1780804 0.0546,-0.2037527 0.0055,-0.1562542 -0.11823,-0.2379303 -0.214853,-0.2395562 -0.147968,0.00888 -0.1783,0.1220767 -0.243403,0.2744848 L 6.575468,2.5676845 C 6.510365,2.7200926 6.515618,2.7457649 6.506519,2.7797237 6.5071133,2.9133387 6.605143,3.0002681 6.7387585,2.9996738 6.8980459,2.9938238 6.9396969,2.8836634 6.9904472,2.7395417 Z m 4.16533,0.8795387 c 0.0018,-0.2785496 0.0049,-0.2898692 -0.23668,-0.2939339 -0.292526,0.3219834 -0.885648,0.7696709 -2.125175,0.7772396 l -0.0057,0.3381807 c 0.278549,0.00184 0.87264,0.00331 1.537307,-0.3038798 l 3.8e-5,6.24816623 c -0.0043,0.42348418 -0.04371,0.57063896 -1.086962,0.57013984 l -0.375172,-0.00347 0.0026,0.35253346 c 0.321608,-0.0230148 1.472798,-0.01785664 1.873643,-0.01963946 0.400845,-0.0017828 1.552036,0.0033753 1.887183,0.0203856104 l -0.0026,-0.3525334604 -0.378206,0.007849 c -1.054568,-0.003532 -1.089121,-0.14624667 -1.084837,-0.56973085 z m 0,0"
         style="fill:#d33682;fill-opacity:1;fill-rule:nonzero;stroke:none"
         aria-label="0/1"
         transform="matrix(1.28788,-0.34509333,0.34509333,1.28788,536.71971,342.54431)" />
      <path
         id="path82"
         d="m 306.94429,-197.94968 74.06793,59.53926"
         style="fill:none;stroke:#586e75;stroke-width:1.19553;stroke-linecap:butt;stroke-linejoin:miter;stroke-miterlimit:10;stroke-dasharray:none;stroke-opacity:1"
         transform="matrix(1.3333333,0,0,-1.3333333,111.91467,126.52667)" />
      <path
         id="path83"
         d="M 5.08617,0 1.82423,1.24171 2.92336,0 1.82423,-1.24171 Z"
         style="fill:#586e75;fill-opacity:1;fill-rule:nonzero;stroke:#586e75;stroke-width:1.12978;stroke-linecap:butt;stroke-linejoin:miter;stroke-miterlimit:10;stroke-dasharray:none;stroke-opacity:1"
         transform="matrix(1.0391467,-0.83533333,-0.83533333,-1.0391467,617.18668,313.27992)" />
      <path
         id="path84"
         d="M 5.3831785,-3.8541106 C 5.3836816,-4.8461071 5.3200701,-5.814461 4.8884246,-6.7177915 4.3966007,-7.7146065 3.5333627,-7.9875145 2.9421767,-7.981584 2.2412062,-7.988724 1.3966158,-7.63015 0.94587278,-6.6392126 c -0.334878,0.753277 -0.45197851,1.5162174 -0.45497903,2.7918974 0.002727,1.1750294 0.0885425,2.0409414 0.51481345,2.89484238 0.4663899,0.91622397 1.3076004,1.21653397 1.9317394,1.20702049 C 3.97153,0.25881018 4.569679,-0.37305078 4.9190655,-1.0695557 5.354947,-1.9671852 5.385173,-3.1457977 5.3831785,-3.8541106 Z M 2.9361846,0.01295118 C 2.5445081,0.01386017 1.7708186,-0.20209934 1.5359822,-1.5186043 1.4095182,-2.2217193 1.4098447,-3.1386757 1.4099947,-3.9805922 c -0.00684,-0.9828624 0.00441,-1.8759999 0.1781086,-2.5784089 0.2123765,-0.8066424 0.8227129,-1.1730879 1.3388589,-1.1791949 0.45024,0.00106 1.1469215,0.2754055 1.3915979,1.299093 0.150283,0.6921894 0.151748,1.6256224 0.1498065,2.4510624 -0.00373,0.8089634 -0.00585,1.7094434 -0.133877,2.4485649 -0.2300886,1.3337139 -0.981018,1.55706888 -1.398305,1.55242688 z M 11.028253,-8.5711242 c 0.05892,-0.148112 0.05713,-0.1645885 0.06088,-0.2066755 3.53e-4,-0.15008 -0.116597,-0.229056 -0.208114,-0.227441 -0.157422,0.00878 -0.197894,0.096538 -0.262362,0.2702605 L 6.5710111,2.5664688 c -0.066259,0.1572459 -0.055333,0.1810649 -0.068227,0.2158094 0.0052,0.1244695 0.090987,0.223505 0.231933,0.2165155 0.159214,0.0077 0.196103,-0.1130145 0.2550195,-0.2611264 z m 4.164033,0.8851132 c 0.0025,-0.2836835 7.06e-4,-0.30016 -0.24089,-0.298898 -0.280807,0.3306154 -0.882186,0.7794434 -2.132255,0.7819939 l 0.0029,0.333113 c 0.283683,0.0025 0.884003,0.00391 1.543593,-0.2928705 l 0.0036,6.24300476 c -0.0029,0.43376348 -0.05442,0.57274147 -1.104984,0.57027046 l -0.3752,-8.8251e-4 0.0047,0.34958948614 C 13.232377,-0.0291779 14.39093,-0.03011338 14.791741,-0.02367987 c 0.391676,-9.0899e-4 1.550229,-0.0018445 1.861315,0.0226805303 l -0.0047,-0.3495894903 -0.3752,-8.825e-4 c -1.05056,-0.002471 -1.074026,-0.14162551 -1.071175,-0.575389 z m 0,0"
         style="fill:#d33682;fill-opacity:1;fill-rule:nonzero;stroke:none"
         aria-label="0/1"
         transform="matrix(1.0391467,-0.83533333,0.83533333,1.0391467,553.84821,386.59939)" />
      <path
         id="path85"
         d="M 402.7774,-33.15665 476.84532,-92.6959"
         style="fill:none;stroke:#586e75;stroke-width:1.19553;stroke-linecap:butt;stroke-linejoin:miter;stroke-miterlimit:10;stroke-dasharray:none;stroke-opacity:1"
         transform="matrix(1.3333333,0,0,-1.3333333,111.91467,126.52667)" />
      <path
         id="path86"
         d="M 5.08617,0 1.82423,1.24171 2.92336,0 1.82423,-1.24171 Z"
         style="fill:#586e75;fill-opacity:1;fill-rule:nonzero;stroke:#586e75;stroke-width:1.12978;stroke-linecap:butt;stroke-linejoin:miter;stroke-miterlimit:10;stroke-dasharray:none;stroke-opacity:1"
         transform="matrix(1.0391467,0.83533333,0.83533333,-1.0391467,744.96416,247.91517)" />
      <path
         id="path87"
         d="m 3.4603729,-7.6851337 c -0.0025,-0.2836835 -7.06e-4,-0.3001599 -0.2423025,-0.3014219 -0.2865605,0.3356104 -0.8858214,0.7872624 -2.1358909,0.784712 l -0.00288,0.3331129 c 0.2836835,-0.0025 0.8840035,-0.00391 1.542181,-0.3074495 l -0.00362,6.24300477 c 0.00285,0.43376348 -0.029749,0.58026048 -1.0803095,0.58273149 l -0.3752,8.8251e-4 L 1.157681,2.805555e-5 C 1.4852491,-0.02270545 2.6438021,-0.02176997 3.0446126,-0.02820348 c 0.3916765,9.09e-4 1.5502294,0.0018445 1.8724169,0.0285404714 l 0.00467,-0.3495894814 -0.3752,8.825e-4 c -1.05056,0.002471 -1.093,-0.14384947 -1.0958505,-0.57761295 z m 7.5646521,-0.8821302 c 0.05821,-0.152048 0.06,-0.1685245 0.05624,-0.2106115 -3.53e-4,-0.15008 -0.117657,-0.221184 -0.209173,-0.222799 -0.157423,-0.00878 -0.18644,0.104763 -0.253784,0.2641535 L 6.5799093,2.5693052 c -0.065553,0.142914 -0.076478,0.166733 -0.063585,0.2014775 -0.0052,0.1244695 0.092046,0.226735 0.232992,0.2337245 0.159214,-0.0077 0.188231,-0.1212395 0.2281735,-0.2586025 z m 4.171853,0.8828938 c -0.0025,-0.2836835 -7.06e-4,-0.30016 -0.242302,-0.301422 -0.286561,0.3356105 -0.885822,0.7872625 -2.135891,0.784712 l -0.0029,0.333113 c 0.283683,-0.0025 0.884003,-0.00391 1.542181,-0.3074495 l -0.0036,6.24300472 c 0.0029,0.43376348 -0.02975,0.58026048 -1.080309,0.58273149 l -0.3752,8.8251e-4 -0.0047,0.34958948522 C 13.221754,-0.0219419 14.380307,-0.02100642 14.781118,-0.02743993 c 0.391676,9.09e-4 1.550229,0.0018445 1.872417,0.02854047 l 0.0047,-0.34958948 -0.3752,8.825e-4 c -1.05056,0.002471 -1.093,-0.14384947 -1.09585,-0.57761296 z m 0,0"
         style="fill:#d33682;fill-opacity:1;fill-rule:nonzero;stroke:none"
         aria-label="1/1"
         transform="matrix(1.0391467,0.83533333,-0.83533333,1.0391467,686.9103,189.10713)" />
      <path
         id="path88"
         d="m 405.00421,-80.12483 68.85782,-18.45079"
         style="fill:none;stroke:#586e75;stroke-width:1.19553;stroke-linecap:butt;stroke-linejoin:miter;stroke-miterlimit:10;stroke-dasharray:none;stroke-opacity:1"
         transform="matrix(1.3333333,0,0,-1.3333333,111.91467,126.52667)" />
      <path
         id="path89"
         d="M 5.08617,0 1.82423,1.24171 2.92336,0 1.82423,-1.24171 Z"
         style="fill:#586e75;fill-opacity:1;fill-rule:nonzero;stroke:#586e75;stroke-width:1.12978;stroke-linecap:butt;stroke-linejoin:miter;stroke-miterlimit:10;stroke-dasharray:none;stroke-opacity:1"
         transform="matrix(1.28788,0.34509333,0.34509333,-1.28788,740.32952,257.04949)" />
      <path
         id="path90"
         d="M 5.3751207,-3.843903 C 5.3754346,-4.8388391 5.3221835,-5.8072899 4.8862864,-6.7096059 4.386099,-7.7160186 3.5259665,-7.9829681 2.9318754,-7.9814991 c -0.705067,-0.00519 -1.5433115,0.3528756 -1.99278186,1.3468419 -0.33427287,0.7447163 -0.44659414,1.5027538 -0.44203025,2.7875591 -9.516e-5,1.1768626 0.0741691,2.0426241 0.50925341,2.89662862 0.4759222,0.91585583 1.2938095,1.20625754 1.9135729,1.21004187 C 3.9631373,0.25907327 4.5692992,-0.3765119 4.9300573,-1.0676634 5.3441617,-1.9672268 5.3699292,-3.1388361 5.3751207,-3.843903 Z M 2.9271445,0.0149816 C 2.5489387,0.00713249 1.7666361,-0.19574556 1.5340543,-1.5165112 1.4025978,-2.2334919 1.4015044,-3.1431246 1.4072902,-3.9818065 c 3.138e-4,-0.9949361 -0.00603,-1.8788964 0.1810852,-2.584182 0.219451,-0.811008 0.8244243,-1.1793632 1.3362451,-1.1709198 0.4604761,-0.00206 1.1530349,0.2733914 1.3807389,1.3042878 0.1623823,0.6965618 0.1582223,1.6318667 0.160723,2.4561959 -0.00357,0.80169 -0.00247,1.7113226 -0.1352126,2.4384344 -0.2248612,1.3341485 -0.9802411,1.54868835 -1.4037253,1.5529718 z m 8.0958105,-8.5782189 c 0.06548,-0.1631334 0.05941,-0.1857726 0.06467,-0.2114449 -0.0055,-0.1562542 -0.120294,-0.2225459 -0.216917,-0.22092 -0.147968,-0.00888 -0.19162,0.099875 -0.245779,0.2599752 L 6.5712146,2.578147 C 6.5109896,2.7156081 6.5057356,2.7412804 6.5148356,2.7752392 6.5142413,2.9088542 6.6094576,2.9925318 6.7430721,2.993126 6.9023595,2.998976 6.9346924,2.893251 6.980565,2.7475036 Z m 4.171958,0.8657427 c -0.0018,-0.2785496 -0.0049,-0.2898691 -0.246436,-0.2858044 -0.287211,0.3317389 -0.882272,0.7823644 -2.121799,0.7747957 l 0.0057,0.3381807 c 0.278549,-0.00184 0.87264,-0.00331 1.521485,-0.2984978 l -3.9e-5,6.24816617 c 0.0043,0.42348418 -0.03027,0.56619859 -1.073517,0.56669771 l -0.375173,0.00347 -0.0026,0.35253346 c 0.332114,-0.02832988 1.483304,-0.03348804 1.884149,-0.03170521 0.400845,0.0017828 1.552036,-0.0033753 1.876677,0.03095905 l 0.0026,-0.35253345 -0.378205,-0.007849 c -1.054568,0.003532 -1.093998,-0.14362252 -1.098282,-0.5671067 z m 0,0"
         style="fill:#d33682;fill-opacity:1;fill-rule:nonzero;stroke:none"
         aria-label="0/1"
         transform="matrix(1.28788,0.34509333,-0.34509333,1.28788,672.12989,228.97838)" />
      <path
         id="path91"
         d="m 405.00421,-125.30301 68.85782,18.45079"
         style="fill:none;stroke:#586e75;stroke-width:1.19553;stroke-linecap:butt;stroke-linejoin:miter;stroke-miterlimit:10;stroke-dasharray:none;stroke-opacity:1"
         transform="matrix(1.3333333,0,0,-1.3333333,111.91467,126.52667)" />
      <path
         id="path92"
         d="M 5.08617,0 1.82423,1.24171 2.92336,0 1.82423,-1.24171 Z"
         style="fill:#586e75;fill-opacity:1;fill-rule:nonzero;stroke:#586e75;stroke-width:1.12978;stroke-linecap:butt;stroke-linejoin:miter;stroke-miterlimit:10;stroke-dasharray:none;stroke-opacity:1"
         transform="matrix(1.28788,-0.34509333,-0.34509333,-1.28788,740.32952,269.90765)" />
      <path
         id="path93"
         d="m 3.4540741,-7.6872057 c 0.00184,-0.2785496 0.00488,-0.2898692 -0.2366799,-0.293934 -0.2925267,0.3219834 -0.885648,0.7696709 -2.1251749,0.7772396 l -0.00569,0.3381807 c 0.2785495,0.00184 0.8726407,0.00331 1.5373069,-0.3038797 l 3.84e-5,6.24816616 c -0.00428,0.42348419 -0.043714,0.57063896 -1.0869618,0.57013985 l -0.3751727,-0.003471 0.0026,0.35253346 c 0.3216078,-0.0230148 1.4727981,-0.01785663 1.8736431,-0.01963946 0.400845,-0.0017828 1.5520353,0.0033753 1.8871828,0.02038561 l -0.0026,-0.35253345 -0.3782058,0.007849 C 3.4897924,-0.34970058 3.4552394,-0.49241499 3.4595228,-0.91589918 Z m 7.5727219,-0.8795835 c 0.05378,-0.1554412 0.05985,-0.1780804 0.0546,-0.2037527 0.0055,-0.1562542 -0.118231,-0.2379303 -0.214854,-0.2395562 -0.147968,0.00888 -0.178299,0.1220767 -0.243402,0.2744848 L 6.5754564,2.566913 c -0.065103,0.1524081 -0.05985,0.1780804 -0.068949,0.2120392 5.943e-4,0.133615 0.098625,0.2205444 0.2322396,0.2199501 0.159287,-0.00585 0.200938,-0.1160104 0.2516884,-0.2601321 z m 4.165331,0.8795387 c 0.0018,-0.2785496 0.0049,-0.2898692 -0.23668,-0.2939339 -0.292527,0.3219834 -0.885648,0.7696709 -2.125175,0.7772395 l -0.0057,0.3381808 c 0.27855,0.00184 0.872641,0.00331 1.537307,-0.3038798 l 3.8e-5,6.24816623 c -0.0043,0.42348418 -0.04371,0.57063896 -1.086961,0.57013984 l -0.375173,-0.00347 0.0026,0.35253345 c 0.321608,-0.02301479 1.472798,-0.01785663 1.873643,-0.01963946 0.400845,-0.0017828 1.552035,0.0033753 1.887183,0.02038562 l -0.0026,-0.35253346 -0.378206,0.007849 c -1.054567,-0.003532 -1.08912,-0.14624666 -1.084837,-0.56973084 z m 0,0"
         style="fill:#d33682;fill-opacity:1;fill-rule:nonzero;stroke:none"
         aria-label="1/1"
         transform="matrix(1.28788,-0.34509333,0.34509333,1.28788,667.23171,279.69765)" />
      <path
         id="path94"
         d="m 402.7774,-172.2712 74.06792,59.53927"
         style="fill:none;stroke:#586e75;stroke-width:1.19553;stroke-linecap:butt;stroke-linejoin:miter;stroke-miterlimit:10;stroke-dasharray:none;stroke-opacity:1"
         transform="matrix(1.3333333,0,0,-1.3333333,111.91467,126.52667)" />
      <path
         id="path95"
         d="M 5.08617,0 1.82423,1.24171 2.92336,0 1.82423,-1.24171 Z"
         style="fill:#586e75;fill-opacity:1;fill-rule:nonzero;stroke:#586e75;stroke-width:1.12978;stroke-linecap:butt;stroke-linejoin:miter;stroke-miterlimit:10;stroke-dasharray:none;stroke-opacity:1"
         transform="matrix(1.0391467,-0.83533333,-0.83533333,-1.0391467,744.96416,279.04195)" />
      <path
         id="path96"
         d="m 3.4571052,-7.6879422 c 0.0025,-0.2836835 7.06e-4,-0.30016 -0.2408905,-0.298898 -0.2808065,0.3306155 -0.8821855,0.7794435 -2.1322549,0.781994 l 0.00288,0.333113 c 0.2836835,0.0025 0.8840034,0.00391 1.5435929,-0.2928705 l 0.00362,6.24300473 c -0.00285,0.43376348 -0.054424,0.57274147 -1.1049845,0.57027046 l -0.3751999,-8.8251e-4 0.00467,0.34958949 c 0.3386639,-0.0284875 1.4972169,-0.02942298 1.8980274,-0.02298947 0.3916765,-9.0899e-4 1.5502294,-0.0018445 1.8613149,0.02268053 l -0.00467,-0.34958949 -0.3752,-8.825e-4 c -1.0505599,-0.002471 -1.0740259,-0.14162551 -1.0711754,-0.575389 z m 7.5706358,-0.8835932 c 0.05892,-0.148112 0.05712,-0.1645885 0.06088,-0.2066755 3.53e-4,-0.15008 -0.116598,-0.229056 -0.208114,-0.227441 -0.157423,0.00878 -0.197895,0.096538 -0.262362,0.2702605 L 6.5704996,2.5660576 c -0.066259,0.157246 -0.055333,0.181065 -0.068227,0.2158095 0.0052,0.1244695 0.090987,0.223505 0.231933,0.2165155 0.159214,0.0077 0.196103,-0.1130145 0.2550195,-0.2611265 z m 4.164034,0.8851132 c 0.0025,-0.2836835 7.06e-4,-0.30016 -0.240891,-0.298898 -0.280806,0.3306155 -0.882185,0.7794434 -2.132255,0.7819939 l 0.0029,0.333113 c 0.283684,0.0025 0.884004,0.00391 1.543593,-0.2928705 l 0.0036,6.24300478 c -0.0029,0.43376348 -0.05443,0.57274147 -1.104985,0.57027046 l -0.3752,-8.8251e-4 0.0047,0.34958949 c 0.338664,-0.0284875 1.497217,-0.02942298 1.898027,-0.02298947 0.391677,-9.0899e-4 1.55023,-0.0018445 1.861315,0.02268053 l -0.0047,-0.34958949 -0.3752,-8.825e-4 c -1.05056,-0.002471 -1.074026,-0.14162551 -1.071176,-0.575389 z m 0,0"
         style="fill:#d33682;fill-opacity:1;fill-rule:nonzero;stroke:none"
         aria-label="1/1"
         transform="matrix(1.0391467,-0.83533333,0.83533333,1.0391467,675.05221,323.09939)" />
    </g>
  </g>
</svg>
