<?xml version="1.0" encoding="UTF-8" standalone="no"?>
<!-- Created with Inkscape (http://www.inkscape.org/) -->

<svg
   version="1.1"
   id="svg1"
   width="765.06854"
   height="154.83328"
   viewBox="0 0 765.06853 154.83328"
   sodipodi:docname="max-flow-irrational2.svg"
   inkscape:version="1.4 (e7c3feb100, 2024-10-09)"
   xmlns:inkscape="http://www.inkscape.org/namespaces/inkscape"
   xmlns:sodipodi="http://sodipodi.sourceforge.net/DTD/sodipodi-0.dtd"
   xmlns="http://www.w3.org/2000/svg"
   xmlns:svg="http://www.w3.org/2000/svg">
  <defs
     id="defs1" />
  <sodipodi:namedview
     id="namedview1"
     pagecolor="#ffffff"
     bordercolor="#666666"
     borderopacity="1.0"
     inkscape:showpageshadow="2"
     inkscape:pageopacity="0.0"
     inkscape:pagecheckerboard="0"
     inkscape:deskcolor="#d1d1d1"
     inkscape:zoom="0.90509668"
     inkscape:cx="1119.2175"
     inkscape:cy="-177.32912"
     inkscape:window-width="3840"
     inkscape:window-height="2346"
     inkscape:window-x="0"
     inkscape:window-y="54"
     inkscape:window-maximized="1"
     inkscape:current-layer="g1">
    <inkscape:page
       x="0"
       y="0"
       inkscape:label="1"
       id="page1"
       width="765.06854"
       height="154.83328"
       margin="0"
       bleed="0" />
  </sodipodi:namedview>
  <g
     id="g1"
     inkscape:groupmode="layer"
     inkscape:label="1"
     transform="translate(-283.80597,-605.88282)">
    <g
       id="g162">
      <path
         id="path82"
         d="m 11.33876,-226.77448 c 0,6.26232 -5.07646,11.33877 -11.33876,11.33877 -6.2623,0 -11.33876,-5.07645 -11.33876,-11.33877 0,-6.26229 5.07646,-11.33876 11.33876,-11.33876 6.2623,0 11.33876,5.07647 11.33876,11.33876 z"
         style="fill:#eee8d5;fill-opacity:1;fill-rule:nonzero;stroke:#586e75;stroke-width:1.19553;stroke-linecap:butt;stroke-linejoin:miter;stroke-miterlimit:10;stroke-dasharray:none;stroke-opacity:1"
         transform="matrix(1.3333333,0,0,-1.3333333,299.72133,383.51733)" />
      <path
         id="path83"
         d="m 62.36308,-226.77448 c 0,6.26232 -5.07646,11.33877 -11.33876,11.33877 -6.2623,0 -11.33876,-5.07645 -11.33876,-11.33877 0,-6.26229 5.07646,-11.33876 11.33876,-11.33876 6.2623,0 11.33876,5.07647 11.33876,11.33876 z"
         style="fill:#eee8d5;fill-opacity:1;fill-rule:nonzero;stroke:#586e75;stroke-width:1.19553;stroke-linecap:butt;stroke-linejoin:miter;stroke-miterlimit:10;stroke-dasharray:none;stroke-opacity:1"
         transform="matrix(1.3333333,0,0,-1.3333333,299.72133,383.51733)" />
      <path
         id="path84"
         d="m 113.38744,-226.77448 c 0,6.26232 -5.07647,11.33877 -11.33876,11.33877 -6.26232,0 -11.33876,-5.07645 -11.33876,-11.33877 0,-6.26229 5.07644,-11.33876 11.33876,-11.33876 6.26229,0 11.33876,5.07647 11.33876,11.33876 z"
         style="fill:#eee8d5;fill-opacity:1;fill-rule:nonzero;stroke:#586e75;stroke-width:1.19553;stroke-linecap:butt;stroke-linejoin:miter;stroke-miterlimit:10;stroke-dasharray:none;stroke-opacity:1"
         transform="matrix(1.3333333,0,0,-1.3333333,299.72133,383.51733)" />
      <path
         id="path85"
         d="m 164.41177,-226.77448 c 0,6.26232 -5.07646,11.33877 -11.33876,11.33877 -6.2623,0 -11.33876,-5.07645 -11.33876,-11.33877 0,-6.26229 5.07646,-11.33876 11.33876,-11.33876 6.2623,0 11.33876,5.07647 11.33876,11.33876 z"
         style="fill:#eee8d5;fill-opacity:1;fill-rule:nonzero;stroke:#586e75;stroke-width:1.19553;stroke-linecap:butt;stroke-linejoin:miter;stroke-miterlimit:10;stroke-dasharray:none;stroke-opacity:1"
         transform="matrix(1.3333333,0,0,-1.3333333,299.72133,383.51733)" />
      <path
         id="path86"
         d="m 87.87503,-182.5864 c 0,6.2623 -5.07646,11.33877 -11.33876,11.33877 -6.2623,0 -11.33876,-5.07647 -11.33876,-11.33877 0,-6.2623 5.07646,-11.33876 11.33876,-11.33876 6.2623,0 11.33876,5.07646 11.33876,11.33876 z"
         style="fill:#eee8d5;fill-opacity:1;fill-rule:nonzero;stroke:#586e75;stroke-width:1.19553;stroke-linecap:butt;stroke-linejoin:miter;stroke-miterlimit:10;stroke-dasharray:none;stroke-opacity:1"
         transform="matrix(1.3333333,0,0,-1.3333333,299.72133,383.51733)" />
      <path
         id="path87"
         d="m 87.87549,-270.96255 c 0,6.26231 -5.07646,11.33875 -11.33876,11.33875 -6.26232,0 -11.33876,-5.07644 -11.33876,-11.33875 0,-6.2623 5.07644,-11.33877 11.33876,-11.33877 6.2623,0 11.33876,5.07647 11.33876,11.33877 z"
         style="fill:#eee8d5;fill-opacity:1;fill-rule:nonzero;stroke:#586e75;stroke-width:1.19553;stroke-linecap:butt;stroke-linejoin:miter;stroke-miterlimit:10;stroke-dasharray:none;stroke-opacity:1"
         transform="matrix(1.3333333,0,0,-1.3333333,299.72133,383.51733)" />
      <g
         id="g87"
         aria-label="(A)"
         transform="matrix(1.3333333,0,0,1.3333333,282.41333,623.85067)">
        <path
           id="path88"
           d="m 5.5083594,4.3952031 c 0,-0.023437 0,-0.058594 -0.058594,-0.1054687 -0.8203125,-0.8554688 -3.0351562,-3.1523438 -3.0351562,-8.765625 0,-5.6250004 2.1796875,-7.9101564 3.0585937,-8.8125004 0,-0.01172 0.035156,-0.04687 0.035156,-0.105468 0,-0.04687 -0.058594,-0.08203 -0.1289063,-0.08203 -0.1992187,0 -1.7226562,1.324219 -2.6015625,3.304688 -0.9023437,2.0039061 -1.1601562,3.9492186 -1.1601562,5.6718749 0,1.3007812 0.1289062,3.4921875 1.2070312,5.8125 0.8671875,1.875 2.34375,3.1875 2.5546875,3.1875 0.09375,0 0.1289063,-0.035156 0.1289063,-0.1054688 z m 0,0"
           style="fill:#d33682;fill-opacity:1;fill-rule:nonzero;stroke:none" />
        <path
           id="path89"
           d="m 9.4312109,-1.9915156 c -0.6328125,1.05468747 -1.2421875,1.41796872 -2.109375,1.46484372 -0.1875,0.0234375 -0.3398437,0.0234375 -0.3398437,0.3515625 0,0.10546875 0.09375,0.175781255 0.2226562,0.175781255 0.3164063,0 1.125,-0.035156255 1.453125,-0.035156255 0.5273438,0 1.1015625,0.035156255 1.6054686,0.035156255 0.105469,0 0.316406,0 0.316406,-0.339843755 0,-0.1640625 -0.140625,-0.1875 -0.246093,-0.1875 -0.4101566,-0.0351563 -0.7617191,-0.17578125 -0.7617191,-0.60937502 0,-0.2460937 0.1171875,-0.4453125 0.3515625,-0.84375 l 1.3593746,-2.2617187 h 4.59375 c 0.02344,0.1523437 0.02344,0.3046875 0.03516,0.4570312 0.05859,0.46875 0.269531,2.34375 0.269531,2.6835938 0,0.53906247 -0.914063,0.57421872 -1.207031,0.57421872 -0.199219,0 -0.398438,0 -0.398438,0.328125 0,0.199218755 0.164063,0.199218755 0.269531,0.199218755 0.316407,0 0.667969,-0.035156255 0.972657,-0.035156255 h 1.03125 c 1.101562,0 1.886718,0.035156255 1.910156,0.035156255 0.128906,0 0.316406,0 0.316406,-0.339843755 0,-0.1875 -0.152344,-0.1875 -0.421875,-0.1875 -0.996094,0 -1.007812,-0.15234375 -1.066406,-0.69140622 L 16.485898,-12.456359 c -0.03516,-0.363282 -0.105468,-0.398438 -0.304687,-0.398438 -0.175781,0 -0.28125,0.03516 -0.445313,0.304688 z m 2.1562501,-2.7773438 3.621094,-6.0468746 0.609375,6.0468746 z m 0,0"
           style="fill:#d33682;fill-opacity:1;fill-rule:nonzero;stroke:none" />
        <path
           id="path90"
           d="m 24.322813,-4.4758906 c 0,-1.3007813 -0.128907,-3.4921875 -1.207032,-5.8242184 -0.867187,-1.863282 -2.34375,-3.175782 -2.554687,-3.175782 -0.05859,0 -0.128906,0.01172 -0.128906,0.105469 0,0.03516 0.02344,0.04687 0.03516,0.08203 0.867187,0.902344 3.058594,3.1875 3.058594,8.7890629 0,5.6132812 -2.167969,7.8984375 -3.058594,8.8007812 -0.01172,0.035156 -0.03516,0.058594 -0.03516,0.09375 0,0.082031 0.07031,0.1054688 0.128906,0.1054688 0.199219,0 1.722656,-1.3359375 2.613281,-3.3164063 0.890625,-1.99218748 1.148438,-3.9375 1.148438,-5.6601562 z m 0,0"
           style="fill:#d33682;fill-opacity:1;fill-rule:nonzero;stroke:none" />
      </g>
      <path
         id="path91"
         d="m 66.19911,-188.55446 -51.59872,-29.7906"
         style="fill:none;stroke:#268bd2;stroke-width:1.59404;stroke-linecap:butt;stroke-linejoin:miter;stroke-miterlimit:10;stroke-dasharray:none;stroke-opacity:1"
         transform="matrix(1.3333333,0,0,-1.3333333,299.72133,383.51733)" />
      <path
         id="path92"
         d="M 6.17612,0 2.21527,1.50777 3.54979,0 2.21527,-1.50777 Z"
         style="fill:#268bd2;fill-opacity:1;fill-rule:nonzero;stroke:#268bd2;stroke-width:1.37189;stroke-linecap:butt;stroke-linejoin:miter;stroke-miterlimit:10;stroke-dasharray:none;stroke-opacity:1"
         transform="matrix(-1.15468,0.66664,0.66664,1.15468,322.8914,672.50627)" />
      <path
         id="path93"
         d="M 70.5682,-192.92355 59.01935,-212.92644"
         style="fill:none;stroke:#586e75;stroke-width:1.19553;stroke-linecap:butt;stroke-linejoin:miter;stroke-miterlimit:10;stroke-dasharray:none;stroke-opacity:1"
         transform="matrix(1.3333333,0,0,-1.3333333,299.72133,383.51733)" />
      <path
         id="path94"
         d="M 5.08617,0 1.82423,1.24171 2.92336,0 1.82423,-1.24171 Z"
         style="fill:#586e75;fill-opacity:1;fill-rule:nonzero;stroke:#586e75;stroke-width:1.12978;stroke-linecap:butt;stroke-linejoin:miter;stroke-miterlimit:10;stroke-dasharray:none;stroke-opacity:1"
         transform="matrix(-0.66664,1.15468,1.15468,0.66664,380.17437,664.36983)" />
      <path
         id="path95"
         d="m 86.87343,-188.55446 52.35156,-30.22499"
         style="fill:none;stroke:#586e75;stroke-width:1.19553;stroke-linecap:butt;stroke-linejoin:miter;stroke-miterlimit:10;stroke-dasharray:none;stroke-opacity:1"
         transform="matrix(1.3333333,0,0,-1.3333333,299.72133,383.51733)" />
      <path
         id="path96"
         d="M 5.08617,0 1.82423,1.24171 2.92336,0 1.82423,-1.24171 Z"
         style="fill:#586e75;fill-opacity:1;fill-rule:nonzero;stroke:#586e75;stroke-width:1.12978;stroke-linecap:butt;stroke-linejoin:miter;stroke-miterlimit:10;stroke-dasharray:none;stroke-opacity:1"
         transform="matrix(1.15468,0.66664,0.66664,-1.15468,482.30524,673.46268)" />
      <path
         id="path97"
         d="m 10.33716,-232.74254 52.35153,-30.22499"
         style="fill:none;stroke:#586e75;stroke-width:1.19553;stroke-linecap:butt;stroke-linejoin:miter;stroke-miterlimit:10;stroke-dasharray:none;stroke-opacity:1"
         transform="matrix(1.3333333,0,0,-1.3333333,299.72133,383.51733)" />
      <path
         id="path98"
         d="M 5.08617,0 1.82423,1.24171 2.92336,0 1.82423,-1.24171 Z"
         style="fill:#586e75;fill-opacity:1;fill-rule:nonzero;stroke:#586e75;stroke-width:1.12978;stroke-linecap:butt;stroke-linejoin:miter;stroke-miterlimit:10;stroke-dasharray:none;stroke-opacity:1"
         transform="matrix(1.15468,0.66664,0.66664,-1.15468,380.25684,732.38013)" />
      <path
         id="path99"
         d="M 96.0806,-237.11163 84.96613,-256.36215"
         style="fill:none;stroke:#268bd2;stroke-width:1.59404;stroke-linecap:butt;stroke-linejoin:miter;stroke-miterlimit:10;stroke-dasharray:none;stroke-opacity:1"
         transform="matrix(1.3333333,0,0,-1.3333333,299.72133,383.51733)" />
      <path
         id="path100"
         d="M 6.17612,0 2.21527,1.50777 3.54979,0 2.21527,-1.50777 Z"
         style="fill:#268bd2;fill-opacity:1;fill-rule:nonzero;stroke:#268bd2;stroke-width:1.37189;stroke-linecap:butt;stroke-linejoin:miter;stroke-miterlimit:10;stroke-dasharray:none;stroke-opacity:1"
         transform="matrix(-0.66664,1.15468,1.15468,0.66664,415.14733,721.63067)" />
      <path
         id="path101"
         d="M 142.73586,-232.74254 90.38475,-262.96753"
         style="fill:none;stroke:#586e75;stroke-width:1.19553;stroke-linecap:butt;stroke-linejoin:miter;stroke-miterlimit:10;stroke-dasharray:none;stroke-opacity:1"
         transform="matrix(1.3333333,0,0,-1.3333333,299.72133,383.51733)" />
      <path
         id="path102"
         d="M 5.08617,0 1.82423,1.24171 2.92336,0 1.82423,-1.24171 Z"
         style="fill:#586e75;fill-opacity:1;fill-rule:nonzero;stroke:#586e75;stroke-width:1.12978;stroke-linecap:butt;stroke-linejoin:miter;stroke-miterlimit:10;stroke-dasharray:none;stroke-opacity:1"
         transform="matrix(-1.15468,0.66664,0.66664,1.15468,423.28375,732.38013)" />
      <path
         id="path103"
         d="M 11.93651,-226.77448 H 34.16496"
         style="fill:none;stroke:#268bd2;stroke-width:1.59404;stroke-linecap:butt;stroke-linejoin:miter;stroke-miterlimit:10;stroke-dasharray:none;stroke-opacity:1"
         transform="matrix(1.3333333,0,0,-1.3333333,299.72133,383.51733)" />
      <path
         id="path104"
         d="M 6.17612,0 2.21527,1.50777 3.54979,0 2.21527,-1.50777 Z"
         style="fill:#268bd2;fill-opacity:1;fill-rule:nonzero;stroke:#268bd2;stroke-width:1.37189;stroke-linecap:butt;stroke-linejoin:miter;stroke-miterlimit:10;stroke-dasharray:none;stroke-opacity:1"
         transform="matrix(1.3333333,0,0,-1.3333333,340.99884,685.88331)" />
      <path
         id="path105"
         d="M 62.96085,-226.77448 H 85.18932"
         style="fill:none;stroke:#268bd2;stroke-width:1.59404;stroke-linecap:butt;stroke-linejoin:miter;stroke-miterlimit:10;stroke-dasharray:none;stroke-opacity:1"
         transform="matrix(1.3333333,0,0,-1.3333333,299.72133,383.51733)" />
      <path
         id="path106"
         d="M 6.17612,0 2.21527,1.50777 3.54979,0 2.21527,-1.50777 Z"
         style="fill:#268bd2;fill-opacity:1;fill-rule:nonzero;stroke:#268bd2;stroke-width:1.37189;stroke-linecap:butt;stroke-linejoin:miter;stroke-miterlimit:10;stroke-dasharray:none;stroke-opacity:1"
         transform="matrix(1.3333333,0,0,-1.3333333,409.03131,685.88331)" />
      <path
         id="path107"
         d="M 141.13649,-226.77448 H 118.03925"
         style="fill:none;stroke:#586e75;stroke-width:1.19553;stroke-linecap:butt;stroke-linejoin:miter;stroke-miterlimit:10;stroke-dasharray:none;stroke-opacity:1"
         transform="matrix(1.3333333,0,0,-1.3333333,299.72133,383.51733)" />
      <path
         id="path108"
         d="M 5.08617,0 1.82423,1.24171 2.92336,0 1.82423,-1.24171 Z"
         style="fill:#586e75;fill-opacity:1;fill-rule:nonzero;stroke:#586e75;stroke-width:1.12978;stroke-linecap:butt;stroke-linejoin:miter;stroke-miterlimit:10;stroke-dasharray:none;stroke-opacity:1"
         transform="matrix(-1.3333333,0,0,1.3333333,460.62821,685.88331)" />
      <path
         id="path109"
         d="m 209.76642,-226.77448 c 0,6.26232 -5.07645,11.33877 -11.33876,11.33877 -6.2623,0 -11.33876,-5.07645 -11.33876,-11.33877 0,-6.26229 5.07646,-11.33876 11.33876,-11.33876 6.26231,0 11.33876,5.07647 11.33876,11.33876 z"
         style="fill:#eee8d5;fill-opacity:1;fill-rule:nonzero;stroke:#586e75;stroke-width:1.19553;stroke-linecap:butt;stroke-linejoin:miter;stroke-miterlimit:10;stroke-dasharray:none;stroke-opacity:1"
         transform="matrix(1.3333333,0,0,-1.3333333,299.72133,383.51733)" />
      <path
         id="path110"
         d="m 260.79076,-226.77448 c 0,6.26232 -5.07646,11.33877 -11.33876,11.33877 -6.26232,0 -11.33876,-5.07645 -11.33876,-11.33877 0,-6.26229 5.07644,-11.33876 11.33876,-11.33876 6.2623,0 11.33876,5.07647 11.33876,11.33876 z"
         style="fill:#eee8d5;fill-opacity:1;fill-rule:nonzero;stroke:#586e75;stroke-width:1.19553;stroke-linecap:butt;stroke-linejoin:miter;stroke-miterlimit:10;stroke-dasharray:none;stroke-opacity:1"
         transform="matrix(1.3333333,0,0,-1.3333333,299.72133,383.51733)" />
      <path
         id="path111"
         d="m 311.8151,-226.77448 c 0,6.26232 -5.07645,11.33877 -11.33877,11.33877 -6.26229,0 -11.33876,-5.07645 -11.33876,-11.33877 0,-6.26229 5.07647,-11.33876 11.33876,-11.33876 6.26232,0 11.33877,5.07647 11.33877,11.33876 z"
         style="fill:#eee8d5;fill-opacity:1;fill-rule:nonzero;stroke:#586e75;stroke-width:1.19553;stroke-linecap:butt;stroke-linejoin:miter;stroke-miterlimit:10;stroke-dasharray:none;stroke-opacity:1"
         transform="matrix(1.3333333,0,0,-1.3333333,299.72133,383.51733)" />
      <path
         id="path112"
         d="m 362.83945,-226.77448 c 0,6.26232 -5.07646,11.33877 -11.33876,11.33877 -6.2623,0 -11.33876,-5.07645 -11.33876,-11.33877 0,-6.26229 5.07646,-11.33876 11.33876,-11.33876 6.2623,0 11.33876,5.07647 11.33876,11.33876 z"
         style="fill:#eee8d5;fill-opacity:1;fill-rule:nonzero;stroke:#586e75;stroke-width:1.19553;stroke-linecap:butt;stroke-linejoin:miter;stroke-miterlimit:10;stroke-dasharray:none;stroke-opacity:1"
         transform="matrix(1.3333333,0,0,-1.3333333,299.72133,383.51733)" />
      <path
         id="path113"
         d="m 286.3027,-182.5864 c 0,6.2623 -5.07646,11.33877 -11.33876,11.33877 -6.26231,0 -11.33876,-5.07647 -11.33876,-11.33877 0,-6.2623 5.07645,-11.33876 11.33876,-11.33876 6.2623,0 11.33876,5.07646 11.33876,11.33876 z"
         style="fill:#eee8d5;fill-opacity:1;fill-rule:nonzero;stroke:#586e75;stroke-width:1.19553;stroke-linecap:butt;stroke-linejoin:miter;stroke-miterlimit:10;stroke-dasharray:none;stroke-opacity:1"
         transform="matrix(1.3333333,0,0,-1.3333333,299.72133,383.51733)" />
      <path
         id="path114"
         d="m 286.30315,-270.96255 c 0,6.26231 -5.07645,11.33875 -11.33876,11.33875 -6.2623,0 -11.33876,-5.07644 -11.33876,-11.33875 0,-6.2623 5.07646,-11.33877 11.33876,-11.33877 6.26231,0 11.33876,5.07647 11.33876,11.33877 z"
         style="fill:#eee8d5;fill-opacity:1;fill-rule:nonzero;stroke:#586e75;stroke-width:1.19553;stroke-linecap:butt;stroke-linejoin:miter;stroke-miterlimit:10;stroke-dasharray:none;stroke-opacity:1"
         transform="matrix(1.3333333,0,0,-1.3333333,299.72133,383.51733)" />
      <g
         id="g114"
         aria-label="(B)"
         transform="matrix(1.3333333,0,0,1.3333333,546.26,623.85067)">
        <path
           id="path115"
           d="m 5.5091016,4.3952031 c 0,-0.023437 0,-0.058594 -0.058594,-0.1054687 -0.8203125,-0.8554688 -3.0351562,-3.1523438 -3.0351562,-8.765625 0,-5.6250004 2.1796875,-7.9101564 3.0585937,-8.8125004 0,-0.01172 0.035156,-0.04687 0.035156,-0.105468 0,-0.04687 -0.058594,-0.08203 -0.1289063,-0.08203 -0.1992187,0 -1.7226562,1.324219 -2.6015625,3.304688 -0.9023437,2.0039061 -1.1601562,3.9492186 -1.1601562,5.6718749 0,1.3007812 0.1289062,3.4921875 1.2070312,5.8125 0.8671875,1.875 2.34375,3.1875 2.5546875,3.1875 0.09375,0 0.1289063,-0.035156 0.1289063,-0.1054688 z m 0,0"
           style="fill:#d33682;fill-opacity:1;fill-rule:nonzero;stroke:none" />
        <path
           id="path116"
           d="m 12.959297,-11.073547 c 0.164062,-0.65625 0.234375,-0.703125 0.9375,-0.703125 h 2.34375 c 2.027344,0 2.027344,1.734375 2.027344,1.8984376 0,1.453125 -1.453125,3.3046875 -3.832032,3.3046875 h -2.589843 z m 3.046875,4.6523439 c 1.957031,-0.3632813 3.738281,-1.734375 3.738281,-3.3867188 0,-1.4062501 -1.242187,-2.4843751 -3.269531,-2.4843751 h -5.777344 c -0.351562,0 -0.503906,0 -0.503906,0.339844 0,0.175781 0.152344,0.175781 0.421875,0.175781 1.101562,0 1.101562,0.152344 1.101562,0.351563 0,0.03516 0,0.140625 -0.07031,0.410156 l -2.4257814,9.6796874 c -0.1640625,0.63281247 -0.1992187,0.80859372 -1.4648437,0.80859372 -0.3398438,0 -0.515625,0 -0.515625,0.328125 0,0.199218755 0.1054687,0.199218755 0.46875,0.199218755 H 13.88508 c 2.753906,0 4.875,-2.085937475 4.875,-3.902343775 0,-1.4765625 -1.300781,-2.3789062 -2.753906,-2.5195312 z m -2.554688,5.89453122 h -2.4375 c -0.246093,0 -0.28125,0 -0.398437,-0.0117188 -0.1875,-0.0234375 -0.210938,-0.0585938 -0.210938,-0.19921875 0,-0.12890625 0.03516,-0.234375 0.07031,-0.39843747 l 1.265625,-5.0742187 h 3.375 c 2.132812,0 2.132812,1.9804687 2.132812,2.1210936 0,1.734375 -1.570312,3.56250007 -3.796875,3.56250007 z m 0,0"
           style="fill:#d33682;fill-opacity:1;fill-rule:nonzero;stroke:none" />
        <path
           id="path117"
           d="m 25.407539,-4.4758906 c 0,-1.3007813 -0.128906,-3.4921875 -1.207031,-5.8242184 -0.867188,-1.863282 -2.34375,-3.175782 -2.554688,-3.175782 -0.05859,0 -0.128906,0.01172 -0.128906,0.105469 0,0.03516 0.02344,0.04687 0.03516,0.08203 0.867188,0.902344 3.058594,3.1875 3.058594,8.7890629 0,5.6132812 -2.167969,7.8984375 -3.058594,8.8007812 -0.01172,0.035156 -0.03516,0.058594 -0.03516,0.09375 0,0.082031 0.07031,0.1054688 0.128906,0.1054688 0.199219,0 1.722657,-1.3359375 2.613282,-3.3164063 0.890625,-1.99218748 1.148437,-3.9375 1.148437,-5.6601562 z m 0,0"
           style="fill:#d33682;fill-opacity:1;fill-rule:nonzero;stroke:none" />
      </g>
      <path
         id="path118"
         d="M 264.62677,-188.55446 212.2757,-218.77945"
         style="fill:none;stroke:#586e75;stroke-width:1.19553;stroke-linecap:butt;stroke-linejoin:miter;stroke-miterlimit:10;stroke-dasharray:none;stroke-opacity:1"
         transform="matrix(1.3333333,0,0,-1.3333333,299.72133,383.51733)" />
      <path
         id="path119"
         d="M 5.08617,0 1.82423,1.24171 2.92336,0 1.82423,-1.24171 Z"
         style="fill:#586e75;fill-opacity:1;fill-rule:nonzero;stroke:#586e75;stroke-width:1.12978;stroke-linecap:butt;stroke-linejoin:miter;stroke-miterlimit:10;stroke-dasharray:none;stroke-opacity:1"
         transform="matrix(-1.15468,0.66664,0.66664,1.15468,585.80501,673.46268)" />
      <path
         id="path120"
         d="m 268.99586,-192.92355 -11.54884,-20.00289"
         style="fill:none;stroke:#586e75;stroke-width:1.19553;stroke-linecap:butt;stroke-linejoin:miter;stroke-miterlimit:10;stroke-dasharray:none;stroke-opacity:1"
         transform="matrix(1.3333333,0,0,-1.3333333,299.72133,383.51733)" />
      <path
         id="path121"
         d="M 5.08617,0 1.82423,1.24171 2.92336,0 1.82423,-1.24171 Z"
         style="fill:#586e75;fill-opacity:1;fill-rule:nonzero;stroke:#586e75;stroke-width:1.12978;stroke-linecap:butt;stroke-linejoin:miter;stroke-miterlimit:10;stroke-dasharray:none;stroke-opacity:1"
         transform="matrix(-0.66664,1.15468,1.15468,0.66664,644.74459,664.36983)" />
      <path
         id="path122"
         d="m 285.3011,-188.55446 51.5992,-29.7906"
         style="fill:none;stroke:#268bd2;stroke-width:1.59404;stroke-linecap:butt;stroke-linejoin:miter;stroke-miterlimit:10;stroke-dasharray:none;stroke-opacity:1"
         transform="matrix(1.3333333,0,0,-1.3333333,299.72133,383.51733)" />
      <path
         id="path123"
         d="M 6.17612,0 2.21527,1.50777 3.54979,0 2.21527,-1.50777 Z"
         style="fill:#268bd2;fill-opacity:1;fill-rule:nonzero;stroke:#268bd2;stroke-width:1.37189;stroke-linecap:butt;stroke-linejoin:miter;stroke-miterlimit:10;stroke-dasharray:none;stroke-opacity:1"
         transform="matrix(1.15468,0.66664,0.66664,-1.15468,745.21885,672.50627)" />
      <path
         id="path124"
         d="m 208.76483,-232.74254 51.59917,-29.7906"
         style="fill:none;stroke:#268bd2;stroke-width:1.59404;stroke-linecap:butt;stroke-linejoin:miter;stroke-miterlimit:10;stroke-dasharray:none;stroke-opacity:1"
         transform="matrix(1.3333333,0,0,-1.3333333,299.72133,383.51733)" />
      <path
         id="path125"
         d="M 6.17612,0 2.21527,1.50777 3.54979,0 2.21527,-1.50777 Z"
         style="fill:#268bd2;fill-opacity:1;fill-rule:nonzero;stroke:#268bd2;stroke-width:1.37189;stroke-linecap:butt;stroke-linejoin:miter;stroke-miterlimit:10;stroke-dasharray:none;stroke-opacity:1"
         transform="matrix(1.15468,0.66664,0.66664,-1.15468,643.17045,731.42371)" />
      <path
         id="path126"
         d="m 294.50827,-237.11163 -11.54886,-20.00289"
         style="fill:none;stroke:#586e75;stroke-width:1.19553;stroke-linecap:butt;stroke-linejoin:miter;stroke-miterlimit:10;stroke-dasharray:none;stroke-opacity:1"
         transform="matrix(1.3333333,0,0,-1.3333333,299.72133,383.51733)" />
      <path
         id="path127"
         d="M 5.08617,0 1.82423,1.24171 2.92336,0 1.82423,-1.24171 Z"
         style="fill:#586e75;fill-opacity:1;fill-rule:nonzero;stroke:#586e75;stroke-width:1.12978;stroke-linecap:butt;stroke-linejoin:miter;stroke-miterlimit:10;stroke-dasharray:none;stroke-opacity:1"
         transform="matrix(-0.66664,1.15468,1.15468,0.66664,678.76113,723.28727)" />
      <path
         id="path128"
         d="m 341.16353,-232.74254 -52.35111,-30.22499"
         style="fill:none;stroke:#586e75;stroke-width:1.19553;stroke-linecap:butt;stroke-linejoin:miter;stroke-miterlimit:10;stroke-dasharray:none;stroke-opacity:1"
         transform="matrix(1.3333333,0,0,-1.3333333,299.72133,383.51733)" />
      <path
         id="path129"
         d="M 5.08617,0 1.82423,1.24171 2.92336,0 1.82423,-1.24171 Z"
         style="fill:#586e75;fill-opacity:1;fill-rule:nonzero;stroke:#586e75;stroke-width:1.12978;stroke-linecap:butt;stroke-linejoin:miter;stroke-miterlimit:10;stroke-dasharray:none;stroke-opacity:1"
         transform="matrix(-1.15468,0.66664,0.66664,1.15468,687.85399,732.38013)" />
      <path
         id="path130"
         d="M 237.51547,-226.77448 H 215.28702"
         style="fill:none;stroke:#268bd2;stroke-width:1.59404;stroke-linecap:butt;stroke-linejoin:miter;stroke-miterlimit:10;stroke-dasharray:none;stroke-opacity:1"
         transform="matrix(1.3333333,0,0,-1.3333333,299.72133,383.51733)" />
      <path
         id="path131"
         d="M 6.17612,0 2.21527,1.50777 3.54979,0 2.21527,-1.50777 Z"
         style="fill:#268bd2;fill-opacity:1;fill-rule:nonzero;stroke:#268bd2;stroke-width:1.37189;stroke-linecap:butt;stroke-linejoin:miter;stroke-miterlimit:10;stroke-dasharray:none;stroke-opacity:1"
         transform="matrix(-1.3333333,0,0,1.3333333,591.04647,685.88331)" />
      <path
         id="path132"
         d="M 288.53983,-226.77448 H 266.31136"
         style="fill:none;stroke:#268bd2;stroke-width:1.59404;stroke-linecap:butt;stroke-linejoin:miter;stroke-miterlimit:10;stroke-dasharray:none;stroke-opacity:1"
         transform="matrix(1.3333333,0,0,-1.3333333,299.72133,383.51733)" />
      <path
         id="path133"
         d="M 6.17612,0 2.21527,1.50777 3.54979,0 2.21527,-1.50777 Z"
         style="fill:#268bd2;fill-opacity:1;fill-rule:nonzero;stroke:#268bd2;stroke-width:1.37189;stroke-linecap:butt;stroke-linejoin:miter;stroke-miterlimit:10;stroke-dasharray:none;stroke-opacity:1"
         transform="matrix(-1.3333333,0,0,1.3333333,659.07889,685.88331)" />
      <path
         id="path134"
         d="M 339.56416,-226.77448 H 317.3357"
         style="fill:none;stroke:#268bd2;stroke-width:1.59404;stroke-linecap:butt;stroke-linejoin:miter;stroke-miterlimit:10;stroke-dasharray:none;stroke-opacity:1"
         transform="matrix(1.3333333,0,0,-1.3333333,299.72133,383.51733)" />
      <path
         id="path135"
         d="M 6.17612,0 2.21527,1.50777 3.54979,0 2.21527,-1.50777 Z"
         style="fill:#268bd2;fill-opacity:1;fill-rule:nonzero;stroke:#268bd2;stroke-width:1.37189;stroke-linecap:butt;stroke-linejoin:miter;stroke-miterlimit:10;stroke-dasharray:none;stroke-opacity:1"
         transform="matrix(-1.3333333,0,0,1.3333333,727.11137,685.88331)" />
      <path
         id="path136"
         d="m 408.19409,-226.77448 c 0,6.26232 -5.07646,11.33877 -11.33876,11.33877 -6.2623,0 -11.33876,-5.07645 -11.33876,-11.33877 0,-6.26229 5.07646,-11.33876 11.33876,-11.33876 6.2623,0 11.33876,5.07647 11.33876,11.33876 z"
         style="fill:#eee8d5;fill-opacity:1;fill-rule:nonzero;stroke:#586e75;stroke-width:1.19553;stroke-linecap:butt;stroke-linejoin:miter;stroke-miterlimit:10;stroke-dasharray:none;stroke-opacity:1"
         transform="matrix(1.3333333,0,0,-1.3333333,299.72133,383.51733)" />
      <path
         id="path137"
         d="m 459.21841,-226.77448 c 0,6.26232 -5.07644,11.33877 -11.33876,11.33877 -6.26229,0 -11.33875,-5.07645 -11.33875,-11.33877 0,-6.26229 5.07646,-11.33876 11.33875,-11.33876 6.26232,0 11.33876,5.07647 11.33876,11.33876 z"
         style="fill:#eee8d5;fill-opacity:1;fill-rule:nonzero;stroke:#586e75;stroke-width:1.19553;stroke-linecap:butt;stroke-linejoin:miter;stroke-miterlimit:10;stroke-dasharray:none;stroke-opacity:1"
         transform="matrix(1.3333333,0,0,-1.3333333,299.72133,383.51733)" />
      <path
         id="path138"
         d="m 510.24277,-226.77448 c 0,6.26232 -5.07647,11.33877 -11.33877,11.33877 -6.26229,0 -11.33875,-5.07645 -11.33875,-11.33877 0,-6.26229 5.07646,-11.33876 11.33875,-11.33876 6.2623,0 11.33877,5.07647 11.33877,11.33876 z"
         style="fill:#eee8d5;fill-opacity:1;fill-rule:nonzero;stroke:#586e75;stroke-width:1.19553;stroke-linecap:butt;stroke-linejoin:miter;stroke-miterlimit:10;stroke-dasharray:none;stroke-opacity:1"
         transform="matrix(1.3333333,0,0,-1.3333333,299.72133,383.51733)" />
      <path
         id="path139"
         d="m 561.26712,-226.77448 c 0,6.26232 -5.07646,11.33877 -11.33876,11.33877 -6.26231,0 -11.33876,-5.07645 -11.33876,-11.33877 0,-6.26229 5.07645,-11.33876 11.33876,-11.33876 6.2623,0 11.33876,5.07647 11.33876,11.33876 z"
         style="fill:#eee8d5;fill-opacity:1;fill-rule:nonzero;stroke:#586e75;stroke-width:1.19553;stroke-linecap:butt;stroke-linejoin:miter;stroke-miterlimit:10;stroke-dasharray:none;stroke-opacity:1"
         transform="matrix(1.3333333,0,0,-1.3333333,299.72133,383.51733)" />
      <path
         id="path140"
         d="m 484.73036,-182.5864 c 0,6.2623 -5.07644,11.33877 -11.33876,11.33877 -6.2623,0 -11.33876,-5.07647 -11.33876,-11.33877 0,-6.2623 5.07646,-11.33876 11.33876,-11.33876 6.26232,0 11.33876,5.07646 11.33876,11.33876 z"
         style="fill:#eee8d5;fill-opacity:1;fill-rule:nonzero;stroke:#586e75;stroke-width:1.19553;stroke-linecap:butt;stroke-linejoin:miter;stroke-miterlimit:10;stroke-dasharray:none;stroke-opacity:1"
         transform="matrix(1.3333333,0,0,-1.3333333,299.72133,383.51733)" />
      <path
         id="path141"
         d="m 484.73082,-270.96255 c 0,6.26231 -5.07646,11.33875 -11.33876,11.33875 -6.2623,0 -11.33876,-5.07644 -11.33876,-11.33875 0,-6.2623 5.07646,-11.33877 11.33876,-11.33877 6.2623,0 11.33876,5.07647 11.33876,11.33877 z"
         style="fill:#eee8d5;fill-opacity:1;fill-rule:nonzero;stroke:#586e75;stroke-width:1.19553;stroke-linecap:butt;stroke-linejoin:miter;stroke-miterlimit:10;stroke-dasharray:none;stroke-opacity:1"
         transform="matrix(1.3333333,0,0,-1.3333333,299.72133,383.51733)" />
      <g
         id="g141"
         aria-label="(C)"
         transform="matrix(1.3333333,0,0,1.3333333,811.09467,623.85067)">
        <path
           id="path142"
           d="m 5.507125,4.3952031 c 0,-0.023437 0,-0.058594 -0.058594,-0.1054687 -0.8203122,-0.8554688 -3.035156,-3.1523438 -3.035156,-8.765625 0,-5.6250004 2.1796875,-7.9101564 3.0585938,-8.8125004 0,-0.01172 0.035156,-0.04687 0.035156,-0.105468 0,-0.04687 -0.058594,-0.08203 -0.1289062,-0.08203 -0.1992188,0 -1.7226563,1.324219 -2.6015625,3.304688 C 1.8743125,-8.1672969 1.6165,-6.2219844 1.6165,-4.4993281 c 0,1.3007812 0.1289063,3.4921875 1.2070313,5.8125 0.8671875,1.875 2.34375,3.1875 2.5546875,3.1875 0.09375,0 0.1289062,-0.035156 0.1289062,-0.1054688 z m 0,0"
           style="fill:#d33682;fill-opacity:1;fill-rule:nonzero;stroke:none" />
        <path
           id="path143"
           d="m 19.815719,-12.514953 c 0,-0.152344 -0.117188,-0.152344 -0.152344,-0.152344 -0.04687,0 -0.117187,0 -0.257812,0.175781 l -1.242188,1.511719 c -0.632812,-1.078125 -1.617187,-1.6875 -2.964844,-1.6875 -3.890625,0 -7.9218747,3.9375001 -7.9218747,8.1679689 0,3.0117187 2.109375,4.87499997 4.7343747,4.87499997 1.441407,0 2.695313,-0.609375 3.738282,-1.48828127 1.570312,-1.3125 2.039062,-3.0585937 2.039062,-3.2109375 0,-0.1523437 -0.140625,-0.1523437 -0.199219,-0.1523437 -0.164062,0 -0.175781,0.1054687 -0.222656,0.1757812 -0.820312,2.8125 -3.257812,4.16015627 -5.050781,4.16015627 -1.910156,0 -3.5625002,-1.23046877 -3.5625002,-3.78515627 0,-0.5742187 0.1757812,-3.703125 2.2148442,-6.0585937 0.984375,-1.1601559 2.683593,-2.1679689 4.382812,-2.1679689 1.980469,0 2.871094,1.640625 2.871094,3.4804689 0,0.46875 -0.05859,0.8554687 -0.05859,0.9375 0,0.1523437 0.175781,0.1523437 0.234375,0.1523437 0.199219,0 0.210938,-0.011719 0.292969,-0.3398437 z m 0,0"
           style="fill:#d33682;fill-opacity:1;fill-rule:nonzero;stroke:none" />
        <path
           id="path144"
           d="m 25.010055,-4.4758906 c 0,-1.3007813 -0.128907,-3.4921875 -1.207032,-5.8242184 -0.867187,-1.863282 -2.34375,-3.175782 -2.554687,-3.175782 -0.05859,0 -0.128906,0.01172 -0.128906,0.105469 0,0.03516 0.02344,0.04687 0.03516,0.08203 0.867187,0.902344 3.058594,3.1875 3.058594,8.7890629 0,5.6132812 -2.167969,7.8984375 -3.058594,8.8007812 -0.01172,0.035156 -0.03516,0.058594 -0.03516,0.09375 0,0.082031 0.07031,0.1054688 0.128906,0.1054688 0.199219,0 1.722656,-1.3359375 2.613281,-3.3164063 0.890625,-1.99218748 1.148438,-3.9375 1.148438,-5.6601562 z m 0,0"
           style="fill:#d33682;fill-opacity:1;fill-rule:nonzero;stroke:none" />
      </g>
      <path
         id="path145"
         d="m 463.05444,-188.55446 -52.35109,-30.22499"
         style="fill:none;stroke:#586e75;stroke-width:1.19553;stroke-linecap:butt;stroke-linejoin:miter;stroke-miterlimit:10;stroke-dasharray:none;stroke-opacity:1"
         transform="matrix(1.3333333,0,0,-1.3333333,299.72133,383.51733)" />
      <path
         id="path146"
         d="M 5.08617,0 1.82423,1.24171 2.92336,0 1.82423,-1.24171 Z"
         style="fill:#586e75;fill-opacity:1;fill-rule:nonzero;stroke:#586e75;stroke-width:1.12978;stroke-linecap:butt;stroke-linejoin:miter;stroke-miterlimit:10;stroke-dasharray:none;stroke-opacity:1"
         transform="matrix(-1.15468,0.66664,0.66664,1.15468,850.37523,673.46268)" />
      <path
         id="path147"
         d="m 467.42354,-192.92355 -11.11447,-19.25054"
         style="fill:none;stroke:#268bd2;stroke-width:1.59404;stroke-linecap:butt;stroke-linejoin:miter;stroke-miterlimit:10;stroke-dasharray:none;stroke-opacity:1"
         transform="matrix(1.3333333,0,0,-1.3333333,299.72133,383.51733)" />
      <path
         id="path148"
         d="M 6.17612,0 2.21527,1.50777 3.54979,0 2.21527,-1.50777 Z"
         style="fill:#268bd2;fill-opacity:1;fill-rule:nonzero;stroke:#268bd2;stroke-width:1.37189;stroke-linecap:butt;stroke-linejoin:miter;stroke-miterlimit:10;stroke-dasharray:none;stroke-opacity:1"
         transform="matrix(-0.66664,1.15468,1.15468,0.66664,910.27124,662.71324)" />
      <path
         id="path149"
         d="m 483.72878,-188.55446 52.35154,-30.22499"
         style="fill:none;stroke:#586e75;stroke-width:1.19553;stroke-linecap:butt;stroke-linejoin:miter;stroke-miterlimit:10;stroke-dasharray:none;stroke-opacity:1"
         transform="matrix(1.3333333,0,0,-1.3333333,299.72133,383.51733)" />
      <path
         id="path150"
         d="M 5.08617,0 1.82423,1.24171 2.92336,0 1.82423,-1.24171 Z"
         style="fill:#586e75;fill-opacity:1;fill-rule:nonzero;stroke:#586e75;stroke-width:1.12978;stroke-linecap:butt;stroke-linejoin:miter;stroke-miterlimit:10;stroke-dasharray:none;stroke-opacity:1"
         transform="matrix(1.15468,0.66664,0.66664,-1.15468,1011.4457,673.46268)" />
      <path
         id="path151"
         d="m 407.19249,-232.74254 52.35155,-30.22499"
         style="fill:none;stroke:#586e75;stroke-width:1.19553;stroke-linecap:butt;stroke-linejoin:miter;stroke-miterlimit:10;stroke-dasharray:none;stroke-opacity:1"
         transform="matrix(1.3333333,0,0,-1.3333333,299.72133,383.51733)" />
      <path
         id="path152"
         d="M 5.08617,0 1.82423,1.24171 2.92336,0 1.82423,-1.24171 Z"
         style="fill:#586e75;fill-opacity:1;fill-rule:nonzero;stroke:#586e75;stroke-width:1.12978;stroke-linecap:butt;stroke-linejoin:miter;stroke-miterlimit:10;stroke-dasharray:none;stroke-opacity:1"
         transform="matrix(1.15468,0.66664,0.66664,-1.15468,909.39729,732.38013)" />
      <path
         id="path153"
         d="m 492.93594,-237.11163 -11.54886,-20.00289"
         style="fill:none;stroke:#586e75;stroke-width:1.19553;stroke-linecap:butt;stroke-linejoin:miter;stroke-miterlimit:10;stroke-dasharray:none;stroke-opacity:1"
         transform="matrix(1.3333333,0,0,-1.3333333,299.72133,383.51733)" />
      <path
         id="path154"
         d="M 5.08617,0 1.82423,1.24171 2.92336,0 1.82423,-1.24171 Z"
         style="fill:#586e75;fill-opacity:1;fill-rule:nonzero;stroke:#586e75;stroke-width:1.12978;stroke-linecap:butt;stroke-linejoin:miter;stroke-miterlimit:10;stroke-dasharray:none;stroke-opacity:1"
         transform="matrix(-0.66664,1.15468,1.15468,0.66664,943.33136,723.28727)" />
      <path
         id="path155"
         d="m 539.59119,-232.74254 -51.59874,-29.7906"
         style="fill:none;stroke:#268bd2;stroke-width:1.59404;stroke-linecap:butt;stroke-linejoin:miter;stroke-miterlimit:10;stroke-dasharray:none;stroke-opacity:1"
         transform="matrix(1.3333333,0,0,-1.3333333,299.72133,383.51733)" />
      <path
         id="path156"
         d="M 6.17612,0 2.21527,1.50777 3.54979,0 2.21527,-1.50777 Z"
         style="fill:#268bd2;fill-opacity:1;fill-rule:nonzero;stroke:#268bd2;stroke-width:1.37189;stroke-linecap:butt;stroke-linejoin:miter;stroke-miterlimit:10;stroke-dasharray:none;stroke-opacity:1"
         transform="matrix(-1.15468,0.66664,0.66664,1.15468,954.0808,731.42371)" />
      <path
         id="path157"
         d="M 435.94315,-226.77448 H 412.84592"
         style="fill:none;stroke:#586e75;stroke-width:1.19553;stroke-linecap:butt;stroke-linejoin:miter;stroke-miterlimit:10;stroke-dasharray:none;stroke-opacity:1"
         transform="matrix(1.3333333,0,0,-1.3333333,299.72133,383.51733)" />
      <path
         id="path158"
         d="M 5.08617,0 1.82423,1.24171 2.92336,0 1.82423,-1.24171 Z"
         style="fill:#586e75;fill-opacity:1;fill-rule:nonzero;stroke:#586e75;stroke-width:1.12978;stroke-linecap:butt;stroke-linejoin:miter;stroke-miterlimit:10;stroke-dasharray:none;stroke-opacity:1"
         transform="matrix(-1.3333333,0,0,1.3333333,853.70377,685.88331)" />
      <path
         id="path159"
         d="m 459.81618,-226.77448 h 22.22847"
         style="fill:none;stroke:#268bd2;stroke-width:1.59404;stroke-linecap:butt;stroke-linejoin:miter;stroke-miterlimit:10;stroke-dasharray:none;stroke-opacity:1"
         transform="matrix(1.3333333,0,0,-1.3333333,299.72133,383.51733)" />
      <path
         id="path160"
         d="M 6.17612,0 2.21527,1.50777 3.54979,0 2.21527,-1.50777 Z"
         style="fill:#268bd2;fill-opacity:1;fill-rule:nonzero;stroke:#268bd2;stroke-width:1.37189;stroke-linecap:butt;stroke-linejoin:miter;stroke-miterlimit:10;stroke-dasharray:none;stroke-opacity:1"
         transform="matrix(1.3333333,0,0,-1.3333333,938.17175,685.88331)" />
      <path
         id="path161"
         d="M 510.84053,-226.77448 H 533.069"
         style="fill:none;stroke:#268bd2;stroke-width:1.59404;stroke-linecap:butt;stroke-linejoin:miter;stroke-miterlimit:10;stroke-dasharray:none;stroke-opacity:1"
         transform="matrix(1.3333333,0,0,-1.3333333,299.72133,383.51733)" />
      <path
         id="path162"
         d="M 6.17612,0 2.21527,1.50777 3.54979,0 2.21527,-1.50777 Z"
         style="fill:#268bd2;fill-opacity:1;fill-rule:nonzero;stroke:#268bd2;stroke-width:1.37189;stroke-linecap:butt;stroke-linejoin:miter;stroke-miterlimit:10;stroke-dasharray:none;stroke-opacity:1"
         transform="matrix(1.3333333,0,0,-1.3333333,1006.2042,685.88331)" />
    </g>
  </g>
</svg>
