<?xml version="1.0" encoding="UTF-8" standalone="no"?>
<!-- Created with Inkscape (http://www.inkscape.org/) -->

<svg
   version="1.1"
   id="svg1"
   width="659.14252"
   height="194.3604"
   viewBox="0 0 659.14251 194.36039"
   sodipodi:docname="max-flow-vertex-cap.svg"
   inkscape:version="1.4 (e7c3feb100, 2024-10-09)"
   xmlns:inkscape="http://www.inkscape.org/namespaces/inkscape"
   xmlns:sodipodi="http://sodipodi.sourceforge.net/DTD/sodipodi-0.dtd"
   xmlns="http://www.w3.org/2000/svg"
   xmlns:svg="http://www.w3.org/2000/svg">
  <defs
     id="defs1" />
  <sodipodi:namedview
     id="namedview1"
     pagecolor="#ffffff"
     bordercolor="#666666"
     borderopacity="1.0"
     inkscape:showpageshadow="2"
     inkscape:pageopacity="0.0"
     inkscape:pagecheckerboard="0"
     inkscape:deskcolor="#d1d1d1"
     inkscape:zoom="0.8841713"
     inkscape:cx="449.00802"
     inkscape:cy="853.34143"
     inkscape:window-width="3840"
     inkscape:window-height="2346"
     inkscape:window-x="0"
     inkscape:window-y="54"
     inkscape:window-maximized="1"
     inkscape:current-layer="g1">
    <inkscape:page
       x="0"
       y="0"
       inkscape:label="1"
       id="page1"
       width="659.14252"
       height="194.3604"
       margin="0"
       bleed="0" />
  </sodipodi:namedview>
  <g
     id="g1"
     inkscape:groupmode="layer"
     inkscape:label="1"
     transform="translate(-345.07786,-269.40677)">
    <g
       id="g169">
      <path
         id="path2"
         d="M 9.10585,0 C 9.10585,5.02908 5.02908,9.10585 0,9.10585 -5.02908,9.10585 -9.10585,5.02908 -9.10585,0 c 0,-5.02908 4.07677,-9.10585 9.10585,-9.10585 5.02908,0 9.10585,4.07677 9.10585,9.10585 z"
         style="fill:#eee8d5;fill-opacity:1;fill-rule:nonzero;stroke:#586e75;stroke-width:1.19553;stroke-linecap:butt;stroke-linejoin:miter;stroke-miterlimit:10;stroke-dasharray:none;stroke-opacity:1"
         transform="matrix(1.3333333,0,0,-1.3333333,358.016,366.58667)" />
      <path
         id="path3"
         d="m 4.9689688,-4.7212578 c -0.3984375,0.1523437 -0.5039063,0.515625 -0.5039063,0.6796875 0,0.3164062 0.2460938,0.4921875 0.515625,0.4921875 0.2929688,0 0.7265625,-0.2460938 0.7265625,-0.8203125 0,-0.6328125 -0.6328125,-1.0546875 -1.7109375,-1.0546875 -0.3515625,0 -1.0195312,0.023437 -1.5703125,0.4453125 -0.5390625,0.4101562 -0.7382812,1.1015625 -0.7382812,1.40625 0,0.3632812 0.1757812,0.6914062 0.4335937,0.9140625 0.3398438,0.2578125 0.5390625,0.2929687 1.359375,0.4570312 0.3632813,0.058594 1.078125,0.1875 1.078125,0.7265625 0,0.046875 0,1.13671879 -1.78125,1.13671879 -0.5976562,0 -1.0429687,-0.1171875 -1.3007812,-0.3046875 0.4101562,-0.12890625 0.65625,-0.46874999 0.65625,-0.83203129 0,-0.4335937 -0.3398438,-0.5507812 -0.5859375,-0.5507812 -0.4101563,0 -0.86718755,0.3398437 -0.86718755,0.9375 0,0.77343749 0.84375005,1.18359374 2.06250005,1.18359374 2.7421875,0 2.7421875,-2.05078124 2.7421875,-2.06250004 0,-0.4101562 -0.1992188,-0.7265625 -0.4804688,-0.9726562 -0.375,-0.328125 -0.8320312,-0.4101563 -1.2421875,-0.4804688 -0.6679687,-0.1171875 -1.1367187,-0.1992187 -1.1367187,-0.6445312 0,-0.023437 0,-0.9257813 1.3476562,-0.9257813 0.234375,0 0.6679688,0.023437 0.9960938,0.2695313 z m 0,0"
         style="fill:#d33682;fill-opacity:1;fill-rule:nonzero;stroke:none"
         aria-label="s"
         transform="matrix(1.3333333,0,0,1.3333333,353.76533,370.14267)" />
      <path
         id="path4"
         d="m 54.048,28.3468 c 0,2.73372 -2.21606,4.94977 -4.94976,4.94977 -2.73372,0 -4.94977,-2.21605 -4.94977,-4.94977 0,-2.7337 2.21605,-4.94977 4.94977,-4.94977 2.7337,0 4.94976,2.21607 4.94976,4.94977 z"
         style="fill:#eee8d5;fill-opacity:1;fill-rule:nonzero;stroke:#586e75;stroke-width:1.19553;stroke-linecap:butt;stroke-linejoin:miter;stroke-miterlimit:10;stroke-dasharray:none;stroke-opacity:1"
         transform="matrix(1.3333333,0,0,-1.3333333,358.016,366.58667)" />
      <path
         id="path5"
         d="m 54.048,-28.3468 c 0,2.7337 -2.21606,4.94977 -4.94976,4.94977 -2.73372,0 -4.94977,-2.21607 -4.94977,-4.94977 0,-2.73372 2.21605,-4.94977 4.94977,-4.94977 2.7337,0 4.94976,2.21605 4.94976,4.94977 z"
         style="fill:#eee8d5;fill-opacity:1;fill-rule:nonzero;stroke:#586e75;stroke-width:1.19553;stroke-linecap:butt;stroke-linejoin:miter;stroke-miterlimit:10;stroke-dasharray:none;stroke-opacity:1"
         transform="matrix(1.3333333,0,0,-1.3333333,358.016,366.58667)" />
      <path
         id="path6"
         d="m 110.74162,28.3468 c 0,2.73372 -2.21606,4.94977 -4.94977,4.94977 -2.73371,0 -4.94976,-2.21605 -4.94976,-4.94977 0,-2.7337 2.21605,-4.94977 4.94976,-4.94977 2.73371,0 4.94977,2.21607 4.94977,4.94977 z"
         style="fill:#eee8d5;fill-opacity:1;fill-rule:nonzero;stroke:#586e75;stroke-width:1.19553;stroke-linecap:butt;stroke-linejoin:miter;stroke-miterlimit:10;stroke-dasharray:none;stroke-opacity:1"
         transform="matrix(1.3333333,0,0,-1.3333333,358.016,366.58667)" />
      <path
         id="path7"
         d="m 110.74162,-28.3468 c 0,2.7337 -2.21606,4.94977 -4.94977,4.94977 -2.73371,0 -4.94976,-2.21607 -4.94976,-4.94977 0,-2.73372 2.21605,-4.94977 4.94976,-4.94977 2.73371,0 4.94977,2.21605 4.94977,4.94977 z"
         style="fill:#eee8d5;fill-opacity:1;fill-rule:nonzero;stroke:#586e75;stroke-width:1.19553;stroke-linecap:butt;stroke-linejoin:miter;stroke-miterlimit:10;stroke-dasharray:none;stroke-opacity:1"
         transform="matrix(1.3333333,0,0,-1.3333333,358.016,366.58667)" />
      <path
         id="path8"
         d="m 164.34038,0 c 0,5.2193 -4.23098,9.45027 -9.45029,9.45027 -5.21931,0 -9.45027,-4.23097 -9.45027,-9.45027 0,-5.2193 4.23096,-9.45027 9.45027,-9.45027 5.21931,0 9.45029,4.23097 9.45029,9.45027 z"
         style="fill:#eee8d5;fill-opacity:1;fill-rule:nonzero;stroke:#586e75;stroke-width:1.19553;stroke-linecap:butt;stroke-linejoin:miter;stroke-miterlimit:10;stroke-dasharray:none;stroke-opacity:1"
         transform="matrix(1.3333333,0,0,-1.3333333,358.016,366.58667)" />
      <path
         id="path9"
         d="m 3.0245703,-4.7685547 h 1.0664063 c 0.2460937,0 0.2695312,0 0.328125,-0.058594 0.070312,-0.046875 0.1054687,-0.2109375 0.1054687,-0.28125 0,-0.2226563 -0.1992187,-0.2226563 -0.3984375,-0.2226563 H 3.1651953 L 3.5519141,-6.87793 c 0.046875,-0.1875 0.046875,-0.2578125 0.046875,-0.3046875 0,-0.3867187 -0.3046875,-0.5273437 -0.5625,-0.5273437 -0.1757813,0 -0.5039063,0.082031 -0.6914063,0.4101562 -0.046875,0.1054688 -0.1992187,0.65625 -0.28125,0.984375 l -0.234375,0.984375 H 0.73941406 c -0.234375,0 -0.43359375,0 -0.43359375,0.3515625 0,0.2109375 0.1875,0.2109375 0.3984375,0.2109375 H 1.6769141 l -0.67968754,2.7421875 c -0.0820313,0.3164063 -0.19921875,0.8203125 -0.19921875,0.9492188 0,0.77343746 0.76171879,1.17187496 1.51171879,1.17187496 1.4179687,0 2.2382812,-1.66406246 2.2382812,-1.87499996 0,-0.1640625 -0.1757812,-0.1640625 -0.28125,-0.1640625 -0.2109375,0 -0.2226562,0.011719 -0.3046875,0.1875 -0.4570312,1.04296871 -1.125,1.41796871 -1.59375,1.41796871 -0.1054687,0 -0.2929687,0 -0.2929687,-0.4453125 0,-0.22265621 0.035156,-0.35156251 0.070312,-0.51562501 z m 0,0"
         style="fill:#d33682;fill-opacity:1;fill-rule:nonzero;stroke:none"
         aria-label="t"
         transform="matrix(1.3333333,0,0,1.3333333,561.21333,371.66667)" />
      <path
         id="path10"
         d="m 8.40344,4.85164 32.3797,18.69455"
         style="fill:none;stroke:#586e75;stroke-width:1.19553;stroke-linecap:butt;stroke-linejoin:miter;stroke-miterlimit:10;stroke-dasharray:none;stroke-opacity:1"
         transform="matrix(1.3333333,0,0,-1.3333333,358.016,366.58667)" />
      <path
         id="path11"
         d="M 5.08617,0 1.82423,1.24171 2.92336,0 1.82423,-1.24171 Z"
         style="fill:#586e75;fill-opacity:1;fill-rule:nonzero;stroke:#586e75;stroke-width:1.12978;stroke-linecap:butt;stroke-linejoin:miter;stroke-miterlimit:10;stroke-dasharray:none;stroke-opacity:1"
         transform="matrix(1.15468,-0.66664,-0.66664,-1.15468,409.34411,336.95233)" />
      <path
         id="path12"
         d="m 8.40344,-4.85164 32.3797,-18.69455"
         style="fill:none;stroke:#586e75;stroke-width:1.19553;stroke-linecap:butt;stroke-linejoin:miter;stroke-miterlimit:10;stroke-dasharray:none;stroke-opacity:1"
         transform="matrix(1.3333333,0,0,-1.3333333,358.016,366.58667)" />
      <path
         id="path13"
         d="M 5.08617,0 1.82423,1.24171 2.92336,0 1.82423,-1.24171 Z"
         style="fill:#586e75;fill-opacity:1;fill-rule:nonzero;stroke:#586e75;stroke-width:1.12978;stroke-linecap:butt;stroke-linejoin:miter;stroke-miterlimit:10;stroke-dasharray:none;stroke-opacity:1"
         transform="matrix(1.15468,0.66664,0.66664,-1.15468,409.34411,396.221)" />
      <path
         id="path14"
         d="M 49.09824,-22.79929 V 18.74522"
         style="fill:none;stroke:#586e75;stroke-width:1.19553;stroke-linecap:butt;stroke-linejoin:miter;stroke-miterlimit:10;stroke-dasharray:none;stroke-opacity:1"
         transform="matrix(1.3333333,0,0,-1.3333333,358.016,366.58667)" />
      <path
         id="path15"
         d="M 5.08617,0 1.82423,1.24171 2.92336,0 1.82423,-1.24171 Z"
         style="fill:#586e75;fill-opacity:1;fill-rule:nonzero;stroke:#586e75;stroke-width:1.12978;stroke-linecap:butt;stroke-linejoin:miter;stroke-miterlimit:10;stroke-dasharray:none;stroke-opacity:1"
         transform="matrix(0,-1.3333333,-1.3333333,0,423.48032,345.11427)" />
      <path
         id="path16"
         d="M 54.64575,28.3468 H 96.19026"
         style="fill:none;stroke:#586e75;stroke-width:1.19553;stroke-linecap:butt;stroke-linejoin:miter;stroke-miterlimit:10;stroke-dasharray:none;stroke-opacity:1"
         transform="matrix(1.3333333,0,0,-1.3333333,358.016,366.58667)" />
      <path
         id="path17"
         d="M 5.08617,0 1.82423,1.24171 2.92336,0 1.82423,-1.24171 Z"
         style="fill:#586e75;fill-opacity:1;fill-rule:nonzero;stroke:#586e75;stroke-width:1.12978;stroke-linecap:butt;stroke-linejoin:miter;stroke-miterlimit:10;stroke-dasharray:none;stroke-opacity:1"
         transform="matrix(1.3333333,0,0,-1.3333333,482.74847,328.79093)" />
      <path
         id="path18"
         d="M 54.64575,-28.3468 H 96.19026"
         style="fill:none;stroke:#586e75;stroke-width:1.19553;stroke-linecap:butt;stroke-linejoin:miter;stroke-miterlimit:10;stroke-dasharray:none;stroke-opacity:1"
         transform="matrix(1.3333333,0,0,-1.3333333,358.016,366.58667)" />
      <path
         id="path19"
         d="M 5.08617,0 1.82423,1.24171 2.92336,0 1.82423,-1.24171 Z"
         style="fill:#586e75;fill-opacity:1;fill-rule:nonzero;stroke:#586e75;stroke-width:1.12978;stroke-linecap:butt;stroke-linejoin:miter;stroke-miterlimit:10;stroke-dasharray:none;stroke-opacity:1"
         transform="matrix(1.3333333,0,0,-1.3333333,482.74847,404.3824)" />
      <path
         id="path20"
         d="M 105.79185,-22.79929 V 18.74522"
         style="fill:none;stroke:#586e75;stroke-width:1.19553;stroke-linecap:butt;stroke-linejoin:miter;stroke-miterlimit:10;stroke-dasharray:none;stroke-opacity:1"
         transform="matrix(1.3333333,0,0,-1.3333333,358.016,366.58667)" />
      <path
         id="path21"
         d="M 5.08617,0 1.82423,1.24171 2.92336,0 1.82423,-1.24171 Z"
         style="fill:#586e75;fill-opacity:1;fill-rule:nonzero;stroke:#586e75;stroke-width:1.12978;stroke-linecap:butt;stroke-linejoin:miter;stroke-miterlimit:10;stroke-dasharray:none;stroke-opacity:1"
         transform="matrix(0,-1.3333333,-1.3333333,0,499.0718,345.11427)" />
      <path
         id="path22"
         d="m 53.02092,-24.42412 45.9816,45.98158"
         style="fill:none;stroke:#586e75;stroke-width:1.19553;stroke-linecap:butt;stroke-linejoin:miter;stroke-miterlimit:10;stroke-dasharray:none;stroke-opacity:1"
         transform="matrix(1.3333333,0,0,-1.3333333,358.016,366.58667)" />
      <path
         id="path23"
         d="M 5.08617,0 1.82423,1.24171 2.92336,0 1.82423,-1.24171 Z"
         style="fill:#586e75;fill-opacity:1;fill-rule:nonzero;stroke:#586e75;stroke-width:1.12978;stroke-linecap:butt;stroke-linejoin:miter;stroke-miterlimit:10;stroke-dasharray:none;stroke-opacity:1"
         transform="matrix(0.9428,-0.9428,-0.9428,-0.9428,487.52947,340.33327)" />
      <path
         id="path24"
         d="M 110.59607,25.57314 142.6775,7.05089"
         style="fill:none;stroke:#586e75;stroke-width:1.19553;stroke-linecap:butt;stroke-linejoin:miter;stroke-miterlimit:10;stroke-dasharray:none;stroke-opacity:1"
         transform="matrix(1.3333333,0,0,-1.3333333,358.016,366.58667)" />
      <path
         id="path25"
         d="M 5.08617,0 1.82423,1.24171 2.92336,0 1.82423,-1.24171 Z"
         style="fill:#586e75;fill-opacity:1;fill-rule:nonzero;stroke:#586e75;stroke-width:1.12978;stroke-linecap:butt;stroke-linejoin:miter;stroke-miterlimit:10;stroke-dasharray:none;stroke-opacity:1"
         transform="matrix(1.15468,0.66666667,0.66666667,-1.15468,545.20325,355.42488)" />
      <path
         id="path26"
         d="M 110.59607,-25.57314 142.6775,-7.05089"
         style="fill:none;stroke:#586e75;stroke-width:1.19553;stroke-linecap:butt;stroke-linejoin:miter;stroke-miterlimit:10;stroke-dasharray:none;stroke-opacity:1"
         transform="matrix(1.3333333,0,0,-1.3333333,358.016,366.58667)" />
      <path
         id="path27"
         d="M 5.08617,0 1.82423,1.24171 2.92336,0 1.82423,-1.24171 Z"
         style="fill:#586e75;fill-opacity:1;fill-rule:nonzero;stroke:#586e75;stroke-width:1.12978;stroke-linecap:butt;stroke-linejoin:miter;stroke-miterlimit:10;stroke-dasharray:none;stroke-opacity:1"
         transform="matrix(1.15468,-0.66666667,-0.66666667,-1.15468,545.20325,377.74845)" />
      <path
         id="path28"
         d="m 228.82538,14.7292 c 0,5.82945 -4.72557,10.55504 -10.55502,10.55504 -5.82947,0 -10.55504,-4.72559 -10.55504,-10.55504 0,-5.82945 4.72557,-10.55504 10.55504,-10.55504 5.82945,0 10.55502,4.72559 10.55502,10.55504 z"
         style="fill:#eee8d5;fill-opacity:1;fill-rule:nonzero;stroke:#586e75;stroke-width:1.19553;stroke-linecap:butt;stroke-linejoin:miter;stroke-miterlimit:10;stroke-dasharray:none;stroke-opacity:1"
         transform="matrix(1.3333333,0,0,-1.3333333,358.016,366.58667)" />
      <g
         id="g28"
         aria-label="s&#10;i"
         transform="matrix(1.3333333,0,0,1.3333333,643.09867,349.192)">
        <path
           id="path29"
           d="m 2.7297109,-2.4027891 c 0.2109375,0.035156 0.5390625,0.1054688 0.609375,0.1171875 0.1523438,0.058594 0.6914063,0.2460938 0.6914063,0.8203125 0,0.375 -0.3398438,1.34765629 -1.7226563,1.34765629 -0.2578125,0 -1.1601562,-0.0351563 -1.39453121,-0.703125 0.48046871,0.0585938 0.71484371,-0.30468749 0.71484371,-0.57421879 0,-0.2460937 -0.1640625,-0.3867187 -0.4101562,-0.3867187 -0.25781251,0 -0.60937501,0.2109375 -0.60937501,0.75 0,0.70312499 0.72656251,1.14843749 1.68750001,1.14843749 1.8164062,0 2.3554687,-1.33593749 2.3554687,-1.96874999 0,-0.1757813 0,-0.515625 -0.375,-0.890625 -0.3046875,-0.2929688 -0.5976562,-0.3515625 -1.2421875,-0.4804688 -0.328125,-0.082031 -0.84375,-0.1875 -0.84375,-0.7265625 0,-0.234375 0.2226563,-1.1015625 1.359375,-1.1015625 0.5039063,0 0.9960938,0.1875 1.1132813,0.6210938 -0.5273438,0 -0.5507813,0.4570312 -0.5507813,0.46875 0,0.2578125 0.234375,0.328125 0.3398438,0.328125 0.1640625,0 0.5039062,-0.140625 0.5039062,-0.6445313 0,-0.5039062 -0.4570312,-1.0195312 -1.3945312,-1.0195312 -1.5703125,0 -1.9921875,1.2421875 -1.9921875,1.734375 0,0.9140625 0.890625,1.1015625 1.1601562,1.1601562 z m 0,0"
           style="fill:#d33682;fill-opacity:1;fill-rule:nonzero;stroke:none" />
        <path
           id="path30"
           d="m 7.9123281,-3.1674375 c 0,-0.1757813 -0.1289062,-0.3046875 -0.3164062,-0.3046875 -0.2109375,0 -0.4335938,0.1875 -0.4335938,0.4335937 0,0.1757813 0.1289063,0.2929688 0.3046875,0.2929688 0.2109375,0 0.4453125,-0.1875 0.4453125,-0.421875 z m -1.171875,2.91796875 -0.421875,1.1015625 c -0.046875,0.1171875 -0.082031,0.21093745 -0.082031,0.35156245 0,0.3867188 0.3046875,0.6796875 0.7265625,0.6796875 0.7734375,0 1.1015625,-1.1132812 1.1015625,-1.21874995 0,-0.0820313 -0.070313,-0.10546875 -0.1289063,-0.10546875 -0.09375,0 -0.1054687,0.0585938 -0.1289062,0.12890625 -0.1875,0.64453125 -0.515625,0.97265625 -0.8320313,0.97265625 -0.09375,0 -0.1875,-0.046875 -0.1875,-0.2578125 0,-0.1875 0.058594,-0.3398438 0.1523438,-0.5859375 C 7.0217031,0.606 7.1037344,0.3950625 7.1857656,0.17240625 L 7.4435781,-0.472125 c 0.070312,-0.17578125 0.1640625,-0.43359375 0.1640625,-0.5625 0,-0.3984375 -0.3164062,-0.6796875 -0.7265625,-0.6796875 -0.7734375,0 -1.1132812,1.11328125 -1.1132812,1.21875 0,0.0703125 0.058594,0.10546875 0.1289062,0.10546875 0.09375,0 0.1054688,-0.046875 0.1289063,-0.12890625 0.2226562,-0.75 0.5859375,-0.9726563 0.8320312,-0.9726563 0.1054688,0 0.1875,0.046875 0.1875,0.2695313 0,0.070312 0,0.1875 -0.082031,0.421875 z m 0,0"
           style="fill:#d33682;fill-opacity:1;fill-rule:nonzero;stroke:none" />
      </g>
      <path
         id="path31"
         d="m 246.29382,-14.7292 c 0,6.08362 -4.93161,11.01523 -11.01522,11.01523 -6.08362,0 -11.01523,-4.93161 -11.01523,-11.01523 0,-6.08362 4.93161,-11.01523 11.01523,-11.01523 6.08361,0 11.01522,4.93161 11.01522,11.01523 z"
         style="fill:#eee8d5;fill-opacity:1;fill-rule:nonzero;stroke:#586e75;stroke-width:1.19553;stroke-linecap:butt;stroke-linejoin:miter;stroke-miterlimit:10;stroke-dasharray:none;stroke-opacity:1"
         transform="matrix(1.3333333,0,0,-1.3333333,358.016,366.58667)" />
      <g
         id="g31"
         aria-label="s&#10;o"
         transform="matrix(1.3333333,0,0,1.3333333,664.97067,388.47067)">
        <path
           id="path32"
           d="m 2.7290313,-2.4037813 c 0.2109375,0.035156 0.5390625,0.1054688 0.609375,0.1171875 C 3.49075,-2.228 4.0298125,-2.0405 4.0298125,-1.4662813 c 0,0.375 -0.3398437,1.3476563 -1.7226562,1.3476563 -0.2578125,0 -1.1601563,-0.0351563 -1.3945313,-0.703125 0.4804688,0.0585938 0.7148438,-0.3046875 0.7148438,-0.5742188 0,-0.2460937 -0.1640625,-0.3867187 -0.4101563,-0.3867187 -0.2578125,0 -0.609375,0.2109375 -0.609375,0.75 0,0.703125 0.7265625,1.1484375 1.6875,1.1484375 1.8164063,0 2.3554688,-1.3359375 2.3554688,-1.96875 0,-0.1757813 0,-0.515625 -0.375,-0.890625 C 3.9712188,-3.0365938 3.67825,-3.0951875 3.0337188,-3.2240938 c -0.328125,-0.082031 -0.84375,-0.1875 -0.84375,-0.7265625 0,-0.234375 0.2226562,-1.1015625 1.359375,-1.1015625 0.5039062,0 0.9960937,0.1875 1.1132812,0.6210938 -0.5273437,0 -0.5507812,0.4570312 -0.5507812,0.46875 0,0.2578125 0.234375,0.328125 0.3398437,0.328125 0.1640625,0 0.5039063,-0.140625 0.5039063,-0.6445313 0,-0.5039062 -0.4570313,-1.0195312 -1.3945313,-1.0195312 -1.5703125,0 -1.9921875,1.2421875 -1.9921875,1.734375 0,0.9140625 0.890625,1.1015625 1.1601563,1.1601562 z m 0,0"
           style="fill:#d33682;fill-opacity:1;fill-rule:nonzero;stroke:none" />
        <path
           id="path33"
           d="m 9.5053984,-0.33249219 c 0,-0.78515621 -0.5625,-1.38281251 -1.3945312,-1.38281251 -1.125,0 -2.2265625,1.10156251 -2.2265625,2.21484376 0,0.82031254 0.5742187,1.38281254 1.3828125,1.38281254 1.1367187,0 2.2382812,-1.11328129 2.2382812,-2.21484379 z M 7.2788359,1.6596953 c -0.28125,0 -0.75,-0.140625 -0.75,-0.87890624 0,-0.328125 0.1523438,-1.18359375 0.5390625,-1.6875 0.3867188,-0.49218746 0.8203125,-0.58593746 1.0429688,-0.58593746 0.328125,0 0.75,0.1992187 0.75,0.86718746 0,0.31640625 -0.1523438,1.078125 -0.4570313,1.55859375 -0.2929687,0.45703129 -0.7265625,0.72656249 -1.125,0.72656249 z m 0,0"
           style="fill:#d33682;fill-opacity:1;fill-rule:nonzero;stroke:none" />
      </g>
      <path
         id="path34"
         d="m 223.84674,5.07076 3.59834,-6.23211"
         style="fill:none;stroke:#586e75;stroke-width:1.19553;stroke-linecap:butt;stroke-linejoin:miter;stroke-miterlimit:10;stroke-dasharray:none;stroke-opacity:1"
         transform="matrix(1.3333333,0,0,-1.3333333,358.016,366.58667)" />
      <path
         id="path35"
         d="M 5.08617,0 1.82423,1.24171 2.92336,0 1.82423,-1.24171 Z"
         style="fill:#586e75;fill-opacity:1;fill-rule:nonzero;stroke:#586e75;stroke-width:1.12978;stroke-linecap:butt;stroke-linejoin:miter;stroke-miterlimit:10;stroke-dasharray:none;stroke-opacity:1"
         transform="matrix(0.66666667,1.15468,1.15468,-0.66666667,659.51549,365.08573)" />
      <path
         id="path36"
         d="M 251.91962,29.96622 V -29.96664 H 201.6293 v 59.93286 z"
         style="fill:none;stroke:#586e75;stroke-width:0.79701;stroke-linecap:butt;stroke-linejoin:miter;stroke-miterlimit:10;stroke-dasharray:2.98883, 2.98883;stroke-dashoffset:0;stroke-opacity:1"
         transform="matrix(1.3333333,0,0,-1.3333333,358.016,366.58667)" />
      <path
         id="path37"
         d="m 296.86748,57.2494 c 0,2.73372 -2.21605,4.94977 -4.94977,4.94977 -2.73371,0 -4.94975,-2.21605 -4.94975,-4.94977 0,-2.7337 2.21604,-4.94975 4.94975,-4.94975 2.73372,0 4.94977,2.21605 4.94977,4.94975 z"
         style="fill:#eee8d5;fill-opacity:1;fill-rule:nonzero;stroke:#586e75;stroke-width:1.19553;stroke-linecap:butt;stroke-linejoin:miter;stroke-miterlimit:10;stroke-dasharray:none;stroke-opacity:1"
         transform="matrix(1.3333333,0,0,-1.3333333,358.016,366.58667)" />
      <path
         id="path38"
         d="m 313.87573,27.79099 c 0,2.73371 -2.21606,4.94976 -4.94977,4.94976 -2.73371,0 -4.94976,-2.21605 -4.94976,-4.94976 0,-2.73371 2.21605,-4.94977 4.94976,-4.94977 2.73371,0 4.94977,2.21606 4.94977,4.94977 z"
         style="fill:#eee8d5;fill-opacity:1;fill-rule:nonzero;stroke:#586e75;stroke-width:1.19553;stroke-linecap:butt;stroke-linejoin:miter;stroke-miterlimit:10;stroke-dasharray:none;stroke-opacity:1"
         transform="matrix(1.3333333,0,0,-1.3333333,358.016,366.58667)" />
      <path
         id="path39"
         d="m 294.69147,52.44519 9.43371,-16.33911"
         style="fill:none;stroke:#586e75;stroke-width:1.19553;stroke-linecap:butt;stroke-linejoin:miter;stroke-miterlimit:10;stroke-dasharray:none;stroke-opacity:1"
         transform="matrix(1.3333333,0,0,-1.3333333,358.016,366.58667)" />
      <path
         id="path40"
         d="M 5.08617,0 1.82423,1.24171 2.92336,0 1.82423,-1.24171 Z"
         style="fill:#586e75;fill-opacity:1;fill-rule:nonzero;stroke:#586e75;stroke-width:1.12978;stroke-linecap:butt;stroke-linejoin:miter;stroke-miterlimit:10;stroke-dasharray:none;stroke-opacity:1"
         transform="matrix(0.66666667,1.15468,1.15468,-0.66666667,761.75563,315.39581)" />
      <path
         id="path41"
         d="M 325.56699,72.48643 V 12.55354 h -50.29032 v 59.93289 z"
         style="fill:none;stroke:#586e75;stroke-width:0.79701;stroke-linecap:butt;stroke-linejoin:miter;stroke-miterlimit:10;stroke-dasharray:2.98883, 2.98883;stroke-dashoffset:0;stroke-opacity:1"
         transform="matrix(1.3333333,0,0,-1.3333333,358.016,366.58667)" />
      <path
         id="path42"
         d="m 296.86748,-27.79099 c 0,2.73371 -2.21605,4.94977 -4.94977,4.94977 -2.73371,0 -4.94975,-2.21606 -4.94975,-4.94977 0,-2.73371 2.21604,-4.94976 4.94975,-4.94976 2.73372,0 4.94977,2.21605 4.94977,4.94976 z"
         style="fill:#eee8d5;fill-opacity:1;fill-rule:nonzero;stroke:#586e75;stroke-width:1.19553;stroke-linecap:butt;stroke-linejoin:miter;stroke-miterlimit:10;stroke-dasharray:none;stroke-opacity:1"
         transform="matrix(1.3333333,0,0,-1.3333333,358.016,366.58667)" />
      <path
         id="path43"
         d="m 313.87573,-57.2494 c 0,2.7337 -2.21606,4.94975 -4.94977,4.94975 -2.73371,0 -4.94976,-2.21605 -4.94976,-4.94975 0,-2.73372 2.21605,-4.94977 4.94976,-4.94977 2.73371,0 4.94977,2.21605 4.94977,4.94977 z"
         style="fill:#eee8d5;fill-opacity:1;fill-rule:nonzero;stroke:#586e75;stroke-width:1.19553;stroke-linecap:butt;stroke-linejoin:miter;stroke-miterlimit:10;stroke-dasharray:none;stroke-opacity:1"
         transform="matrix(1.3333333,0,0,-1.3333333,358.016,366.58667)" />
      <path
         id="path44"
         d="m 294.69147,-32.59521 9.43371,-16.33912"
         style="fill:none;stroke:#586e75;stroke-width:1.19553;stroke-linecap:butt;stroke-linejoin:miter;stroke-miterlimit:10;stroke-dasharray:none;stroke-opacity:1"
         transform="matrix(1.3333333,0,0,-1.3333333,358.016,366.58667)" />
      <path
         id="path45"
         d="M 5.08617,0 1.82423,1.24171 2.92336,0 1.82423,-1.24171 Z"
         style="fill:#586e75;fill-opacity:1;fill-rule:nonzero;stroke:#586e75;stroke-width:1.12978;stroke-linecap:butt;stroke-linejoin:miter;stroke-miterlimit:10;stroke-dasharray:none;stroke-opacity:1"
         transform="matrix(0.66666667,1.15468,1.15468,-0.66666667,761.75563,428.78301)" />
      <path
         id="path46"
         d="m 325.56699,-12.55397 v -59.93289 h -50.29032 v 59.93289 z"
         style="fill:none;stroke:#586e75;stroke-width:0.79701;stroke-linecap:butt;stroke-linejoin:miter;stroke-miterlimit:10;stroke-dasharray:2.98883, 2.98883;stroke-dashoffset:0;stroke-opacity:1"
         transform="matrix(1.3333333,0,0,-1.3333333,358.016,366.58667)" />
      <path
         id="path47"
         d="m 381.90791,57.2494 c 0,2.73372 -2.21606,4.94977 -4.94976,4.94977 -2.73371,0 -4.94977,-2.21605 -4.94977,-4.94977 0,-2.7337 2.21606,-4.94975 4.94977,-4.94975 2.7337,0 4.94976,2.21605 4.94976,4.94975 z"
         style="fill:#eee8d5;fill-opacity:1;fill-rule:nonzero;stroke:#586e75;stroke-width:1.19553;stroke-linecap:butt;stroke-linejoin:miter;stroke-miterlimit:10;stroke-dasharray:none;stroke-opacity:1"
         transform="matrix(1.3333333,0,0,-1.3333333,358.016,366.58667)" />
      <path
         id="path48"
         d="m 398.91615,27.79099 c 0,2.73371 -2.21605,4.94976 -4.94977,4.94976 -2.7337,0 -4.94975,-2.21605 -4.94975,-4.94976 0,-2.73371 2.21605,-4.94977 4.94975,-4.94977 2.73372,0 4.94977,2.21606 4.94977,4.94977 z"
         style="fill:#eee8d5;fill-opacity:1;fill-rule:nonzero;stroke:#586e75;stroke-width:1.19553;stroke-linecap:butt;stroke-linejoin:miter;stroke-miterlimit:10;stroke-dasharray:none;stroke-opacity:1"
         transform="matrix(1.3333333,0,0,-1.3333333,358.016,366.58667)" />
      <path
         id="path49"
         d="m 379.7319,52.44519 9.4337,-16.33911"
         style="fill:none;stroke:#586e75;stroke-width:1.19553;stroke-linecap:butt;stroke-linejoin:miter;stroke-miterlimit:10;stroke-dasharray:none;stroke-opacity:1"
         transform="matrix(1.3333333,0,0,-1.3333333,358.016,366.58667)" />
      <path
         id="path50"
         d="M 5.08617,0 1.82423,1.24171 2.92336,0 1.82423,-1.24171 Z"
         style="fill:#586e75;fill-opacity:1;fill-rule:nonzero;stroke:#586e75;stroke-width:1.12978;stroke-linecap:butt;stroke-linejoin:miter;stroke-miterlimit:10;stroke-dasharray:none;stroke-opacity:1"
         transform="matrix(0.66666667,1.15468,1.15468,-0.66666667,875.14287,315.39581)" />
      <path
         id="path51"
         d="M 410.60742,72.48643 V 12.55354 h -50.29031 v 59.93289 z"
         style="fill:none;stroke:#586e75;stroke-width:0.79701;stroke-linecap:butt;stroke-linejoin:miter;stroke-miterlimit:10;stroke-dasharray:2.98883, 2.98883;stroke-dashoffset:0;stroke-opacity:1"
         transform="matrix(1.3333333,0,0,-1.3333333,358.016,366.58667)" />
      <path
         id="path52"
         d="m 381.90791,-27.79099 c 0,2.73371 -2.21606,4.94977 -4.94976,4.94977 -2.73371,0 -4.94977,-2.21606 -4.94977,-4.94977 0,-2.73371 2.21606,-4.94976 4.94977,-4.94976 2.7337,0 4.94976,2.21605 4.94976,4.94976 z"
         style="fill:#eee8d5;fill-opacity:1;fill-rule:nonzero;stroke:#586e75;stroke-width:1.19553;stroke-linecap:butt;stroke-linejoin:miter;stroke-miterlimit:10;stroke-dasharray:none;stroke-opacity:1"
         transform="matrix(1.3333333,0,0,-1.3333333,358.016,366.58667)" />
      <path
         id="path53"
         d="m 398.91615,-57.2494 c 0,2.7337 -2.21605,4.94975 -4.94977,4.94975 -2.7337,0 -4.94975,-2.21605 -4.94975,-4.94975 0,-2.73372 2.21605,-4.94977 4.94975,-4.94977 2.73372,0 4.94977,2.21605 4.94977,4.94977 z"
         style="fill:#eee8d5;fill-opacity:1;fill-rule:nonzero;stroke:#586e75;stroke-width:1.19553;stroke-linecap:butt;stroke-linejoin:miter;stroke-miterlimit:10;stroke-dasharray:none;stroke-opacity:1"
         transform="matrix(1.3333333,0,0,-1.3333333,358.016,366.58667)" />
      <path
         id="path54"
         d="m 379.7319,-32.59521 9.4337,-16.33912"
         style="fill:none;stroke:#586e75;stroke-width:1.19553;stroke-linecap:butt;stroke-linejoin:miter;stroke-miterlimit:10;stroke-dasharray:none;stroke-opacity:1"
         transform="matrix(1.3333333,0,0,-1.3333333,358.016,366.58667)" />
      <path
         id="path55"
         d="M 5.08617,0 1.82423,1.24171 2.92336,0 1.82423,-1.24171 Z"
         style="fill:#586e75;fill-opacity:1;fill-rule:nonzero;stroke:#586e75;stroke-width:1.12978;stroke-linecap:butt;stroke-linejoin:miter;stroke-miterlimit:10;stroke-dasharray:none;stroke-opacity:1"
         transform="matrix(0.66666667,1.15468,1.15468,-0.66666667,875.14287,428.78301)" />
      <path
         id="path56"
         d="m 410.60742,-12.55397 v -59.93289 h -50.29031 v 59.93289 z"
         style="fill:none;stroke:#586e75;stroke-width:0.79701;stroke-linecap:butt;stroke-linejoin:miter;stroke-miterlimit:10;stroke-dasharray:2.98883, 2.98883;stroke-dashoffset:0;stroke-opacity:1"
         transform="matrix(1.3333333,0,0,-1.3333333,358.016,366.58667)" />
      <path
         id="path57"
         d="m 461.50594,14.7292 c 0,6.02022 -4.88022,10.90042 -10.90043,10.90042 -6.02021,0 -10.90041,-4.8802 -10.90041,-10.90042 0,-6.0202 4.8802,-10.90042 10.90041,-10.90042 6.02021,0 10.90043,4.88022 10.90043,10.90042 z"
         style="fill:#eee8d5;fill-opacity:1;fill-rule:nonzero;stroke:#586e75;stroke-width:1.19553;stroke-linecap:butt;stroke-linejoin:miter;stroke-miterlimit:10;stroke-dasharray:none;stroke-opacity:1"
         transform="matrix(1.3333333,0,0,-1.3333333,358.016,366.58667)" />
      <g
         id="g57"
         aria-label="t&#10;i"
         transform="matrix(1.3333333,0,0,1.3333333,953.74,350.668)">
        <path
           id="path58"
           d="m 2.4127734,-4.8281484 h 1.1015625 c 0.2226563,0 0.3515625,0 0.3515625,-0.2109375 0,-0.1289063 -0.070312,-0.1289063 -0.3164062,-0.1289063 H 2.4948047 l 0.4453125,-1.7578125 c 0.046875,-0.1640625 0.046875,-0.1875 0.046875,-0.2695312 0,-0.1992188 -0.1523438,-0.3046875 -0.3164063,-0.3046875 -0.09375,0 -0.3632812,0.035156 -0.46875,0.421875 l -0.46875,1.9101562 H 0.60808594 c -0.234375,0 -0.33984375,0 -0.33984375,0.2226563 0,0.1171875 0.0820313,0.1171875 0.3046875,0.1171875 H 1.6393359 l -0.78515621,3.1757812 c -0.09375,0.421875 -0.140625,0.5390625 -0.140625,0.69140626 0,0.5625 0.39843751,1.078125 1.07812501,1.078125 1.2070312,0 1.8515625,-1.74609376 1.8515625,-1.82812496 0,-0.082031 -0.046875,-0.1171875 -0.1171875,-0.1171875 -0.023437,0 -0.070312,0 -0.09375,0.046875 -0.011719,0.011719 -0.023437,0.023437 -0.1054688,0.2226562 -0.2578125,0.59765626 -0.8085937,1.44140626 -1.5,1.44140626 -0.3632812,0 -0.3867187,-0.3046875 -0.3867187,-0.5625 0,-0.0117188 0,-0.24609375 0.035156,-0.38671876 z m 0,0"
           style="fill:#d33682;fill-opacity:1;fill-rule:nonzero;stroke:none" />
        <path
           id="path59"
           d="m 6.6227344,-3.1699453 c 0,-0.1757813 -0.1289063,-0.3046875 -0.3164063,-0.3046875 -0.2109375,0 -0.4335937,0.1875 -0.4335937,0.4335937 0,0.1757813 0.1289062,0.2929688 0.3046875,0.2929688 0.2109375,0 0.4453125,-0.1875 0.4453125,-0.421875 z m -1.171875,2.91796874 -0.421875,1.1015625 c -0.046875,0.1171875 -0.082031,0.21093746 -0.082031,0.35156246 0,0.3867188 0.3046875,0.6796875 0.7265625,0.6796875 0.7734375,0 1.1015625,-1.11328121 1.1015625,-1.21874996 0,-0.0820313 -0.070312,-0.10546875 -0.1289062,-0.10546875 -0.09375,0 -0.1054688,0.0585938 -0.1289063,0.12890625 -0.1875,0.64453126 -0.515625,0.97265626 -0.8320312,0.97265626 -0.09375,0 -0.1875,-0.046875 -0.1875,-0.2578125 0,-0.1875 0.058594,-0.3398438 0.1523437,-0.58593751 0.082031,-0.2109375 0.1640625,-0.421875 0.2460938,-0.64453125 l 0.2578125,-0.64453125 c 0.070312,-0.17578125 0.1640625,-0.43359375 0.1640625,-0.56249999 0,-0.3984375 -0.3164063,-0.6796875 -0.7265625,-0.6796875 -0.7734375,0 -1.1132813,1.11328124 -1.1132813,1.21874999 0,0.0703125 0.058594,0.10546875 0.1289063,0.10546875 0.09375,0 0.1054687,-0.046875 0.1289062,-0.12890625 0.2226563,-0.74999999 0.5859375,-0.97265629 0.8320313,-0.97265629 0.1054687,0 0.1875,0.046875 0.1875,0.2695313 0,0.070312 0,0.1875 -0.082031,0.42187499 z m 0,0"
           style="fill:#d33682;fill-opacity:1;fill-rule:nonzero;stroke:none" />
      </g>
      <path
         id="path60"
         d="m 478.93109,-14.7292 c 0,6.25046 -5.06686,11.31732 -11.31734,11.31732 -6.25045,0 -11.31732,-5.06686 -11.31732,-11.31732 0,-6.25046 5.06687,-11.31732 11.31732,-11.31732 6.25048,0 11.31734,5.06686 11.31734,11.31732 z"
         style="fill:#eee8d5;fill-opacity:1;fill-rule:nonzero;stroke:#586e75;stroke-width:1.19553;stroke-linecap:butt;stroke-linejoin:miter;stroke-miterlimit:10;stroke-dasharray:none;stroke-opacity:1"
         transform="matrix(1.3333333,0,0,-1.3333333,358.016,366.58667)" />
      <g
         id="g60"
         aria-label="t&#10;o"
         transform="matrix(1.3333333,0,0,1.3333333,975.612,389.94667)">
        <path
           id="path61"
           d="m 2.4150234,-4.8291406 h 1.1015625 c 0.2226563,0 0.3515625,0 0.3515625,-0.2109375 0,-0.1289063 -0.070312,-0.1289063 -0.3164062,-0.1289063 H 2.4970547 l 0.4453125,-1.7578125 c 0.046875,-0.1640625 0.046875,-0.1875 0.046875,-0.2695312 0,-0.1992188 -0.1523438,-0.3046875 -0.3164063,-0.3046875 -0.09375,0 -0.3632812,0.035156 -0.46875,0.421875 l -0.46875,1.9101562 H 0.61033594 c -0.234375,0 -0.33984375,0 -0.33984375,0.2226563 0,0.1171875 0.0820313,0.1171875 0.3046875,0.1171875 H 1.6415859 l -0.78515621,3.1757812 c -0.09375,0.421875 -0.140625,0.5390625 -0.140625,0.69140628 0,0.5625 0.39843751,1.078125 1.07812501,1.078125 1.2070312,0 1.8515625,-1.74609378 1.8515625,-1.82812498 0,-0.082031 -0.046875,-0.1171875 -0.1171875,-0.1171875 -0.023437,0 -0.070312,0 -0.09375,0.046875 -0.011719,0.011719 -0.023437,0.023437 -0.1054688,0.2226562 -0.2578125,0.59765628 -0.8085937,1.44140628 -1.5,1.44140628 -0.3632812,0 -0.3867187,-0.3046875 -0.3867187,-0.5625 0,-0.0117188 0,-0.24609375 0.035156,-0.38671878 z m 0,0"
           style="fill:#d33682;fill-opacity:1;fill-rule:nonzero;stroke:none" />
        <path
           id="path62"
           d="m 8.2158047,-0.33207031 c 0,-0.78515629 -0.5625,-1.38281249 -1.3945313,-1.38281249 -1.125,0 -2.2265625,1.10156249 -2.2265625,2.21484374 0,0.82031246 0.5742188,1.38281246 1.3828125,1.38281246 1.1367188,0 2.2382813,-1.11328121 2.2382813,-2.21484371 z M 5.9892422,1.6601172 c -0.28125,0 -0.75,-0.140625 -0.75,-0.87890626 0,-0.328125 0.1523437,-1.18359375 0.5390625,-1.6875 0.3867187,-0.49218754 0.8203125,-0.58593754 1.0429687,-0.58593754 0.328125,0 0.75,0.1992188 0.75,0.86718754 0,0.31640625 -0.1523437,1.078125 -0.4570312,1.55859375 -0.2929688,0.45703121 -0.7265625,0.72656251 -1.125,0.72656251 z m 0,0"
           style="fill:#d33682;fill-opacity:1;fill-rule:nonzero;stroke:none" />
      </g>
      <path
         id="path63"
         d="m 456.3546,4.77164 3.2746,-5.67137"
         style="fill:none;stroke:#586e75;stroke-width:1.19553;stroke-linecap:butt;stroke-linejoin:miter;stroke-miterlimit:10;stroke-dasharray:none;stroke-opacity:1"
         transform="matrix(1.3333333,0,0,-1.3333333,358.016,366.58667)" />
      <path
         id="path64"
         d="M 5.08617,0 1.82423,1.24171 2.92336,0 1.82423,-1.24171 Z"
         style="fill:#586e75;fill-opacity:1;fill-rule:nonzero;stroke:#586e75;stroke-width:1.12978;stroke-linecap:butt;stroke-linejoin:miter;stroke-miterlimit:10;stroke-dasharray:none;stroke-opacity:1"
         transform="matrix(0.66666667,1.15468,1.15468,-0.66666667,969.09431,364.73692)" />
      <path
         id="path65"
         d="M 484.25479,29.96622 V -29.96664 H 433.96446 V 29.96622 Z"
         style="fill:none;stroke:#586e75;stroke-width:0.79701;stroke-linecap:butt;stroke-linejoin:miter;stroke-miterlimit:10;stroke-dasharray:2.98883, 2.98883;stroke-dashoffset:0;stroke-opacity:1"
         transform="matrix(1.3333333,0,0,-1.3333333,358.016,366.58667)" />
      <path
         id="path66"
         d="M 242.45963,-5.60323 285.9804,49.70416"
         style="fill:none;stroke:#586e75;stroke-width:1.19553;stroke-linecap:butt;stroke-linejoin:miter;stroke-miterlimit:10;stroke-dasharray:none;stroke-opacity:1"
         transform="matrix(1.3333333,0,0,-1.3333333,358.016,366.58667)" />
      <path
         id="path67"
         d="M 5.08617,0 1.82423,1.24171 2.92336,0 1.82423,-1.24171 Z"
         style="fill:#586e75;fill-opacity:1;fill-rule:nonzero;stroke:#586e75;stroke-width:1.12978;stroke-linecap:butt;stroke-linejoin:miter;stroke-miterlimit:10;stroke-dasharray:none;stroke-opacity:1"
         transform="matrix(0.82448,-1.0477867,-1.0477867,-0.82448,737.14576,303.08156)" />
      <path
         id="path68"
         d="M 246.59424,-17.33864 282.5619,-25.6337"
         style="fill:none;stroke:#586e75;stroke-width:1.19553;stroke-linecap:butt;stroke-linejoin:miter;stroke-miterlimit:10;stroke-dasharray:none;stroke-opacity:1"
         transform="matrix(1.3333333,0,0,-1.3333333,358.016,366.58667)" />
      <path
         id="path69"
         d="M 5.08617,0 1.82423,1.24171 2.92336,0 1.82423,-1.24171 Z"
         style="fill:#586e75;fill-opacity:1;fill-rule:nonzero;stroke:#586e75;stroke-width:1.12978;stroke-linecap:butt;stroke-linejoin:miter;stroke-miterlimit:10;stroke-dasharray:none;stroke-opacity:1"
         transform="matrix(1.2992,0.2996,0.2996,-1.2992,731.33413,399.97371)" />
      <path
         id="path70"
         d="M 308.11096,-51.76242 293.3283,47.7526"
         style="fill:none;stroke:#586e75;stroke-width:1.19553;stroke-linecap:butt;stroke-linejoin:miter;stroke-miterlimit:10;stroke-dasharray:none;stroke-opacity:1"
         transform="matrix(1.3333333,0,0,-1.3333333,358.016,366.58667)" />
      <path
         id="path71"
         d="M 5.08617,0 1.82423,1.24171 2.92336,0 1.82423,-1.24171 Z"
         style="fill:#586e75;fill-opacity:1;fill-rule:nonzero;stroke:#586e75;stroke-width:1.12978;stroke-linecap:butt;stroke-linejoin:miter;stroke-miterlimit:10;stroke-dasharray:none;stroke-opacity:1"
         transform="matrix(-0.19588,-1.3187867,-1.3187867,0.19588,749.63771,306.39935)" />
      <path
         id="path72"
         d="m 314.01646,29.99522 54.13111,23.43921"
         style="fill:none;stroke:#586e75;stroke-width:1.19553;stroke-linecap:butt;stroke-linejoin:miter;stroke-miterlimit:10;stroke-dasharray:none;stroke-opacity:1"
         transform="matrix(1.3333333,0,0,-1.3333333,358.016,366.58667)" />
      <path
         id="path73"
         d="M 5.08617,0 1.82423,1.24171 2.92336,0 1.82423,-1.24171 Z"
         style="fill:#586e75;fill-opacity:1;fill-rule:nonzero;stroke:#586e75;stroke-width:1.12978;stroke-linecap:butt;stroke-linejoin:miter;stroke-miterlimit:10;stroke-dasharray:none;stroke-opacity:1"
         transform="matrix(1.2234933,-0.52978667,-0.52978667,-1.2234933,845.64828,296.73987)" />
      <path
         id="path74"
         d="m 314.01646,-55.04517 54.13111,23.4392"
         style="fill:none;stroke:#586e75;stroke-width:1.19553;stroke-linecap:butt;stroke-linejoin:miter;stroke-miterlimit:10;stroke-dasharray:none;stroke-opacity:1"
         transform="matrix(1.3333333,0,0,-1.3333333,358.016,366.58667)" />
      <path
         id="path75"
         d="M 5.08617,0 1.82423,1.24171 2.92336,0 1.82423,-1.24171 Z"
         style="fill:#586e75;fill-opacity:1;fill-rule:nonzero;stroke:#586e75;stroke-width:1.12978;stroke-linecap:butt;stroke-linejoin:miter;stroke-miterlimit:10;stroke-dasharray:none;stroke-opacity:1"
         transform="matrix(1.2234933,-0.52978667,-0.52978667,-1.2234933,845.64828,410.12707)" />
      <path
         id="path76"
         d="M 393.1514,-51.76242 378.36873,47.7526"
         style="fill:none;stroke:#586e75;stroke-width:1.19553;stroke-linecap:butt;stroke-linejoin:miter;stroke-miterlimit:10;stroke-dasharray:none;stroke-opacity:1"
         transform="matrix(1.3333333,0,0,-1.3333333,358.016,366.58667)" />
      <path
         id="path77"
         d="M 5.08617,0 1.82423,1.24171 2.92336,0 1.82423,-1.24171 Z"
         style="fill:#586e75;fill-opacity:1;fill-rule:nonzero;stroke:#586e75;stroke-width:1.12978;stroke-linecap:butt;stroke-linejoin:miter;stroke-miterlimit:10;stroke-dasharray:none;stroke-opacity:1"
         transform="matrix(-0.19588,-1.3187867,-1.3187867,0.19588,863.02493,306.39935)" />
      <path
         id="path78"
         d="m 311.75957,-52.48048 60.29422,101.4759"
         style="fill:none;stroke:#586e75;stroke-width:1.19553;stroke-linecap:butt;stroke-linejoin:miter;stroke-miterlimit:10;stroke-dasharray:none;stroke-opacity:1"
         transform="matrix(1.3333333,0,0,-1.3333333,358.016,366.58667)" />
      <path
         id="path79"
         d="M 5.08617,0 1.82423,1.24171 2.92336,0 1.82423,-1.24171 Z"
         style="fill:#586e75;fill-opacity:1;fill-rule:nonzero;stroke:#586e75;stroke-width:1.12978;stroke-linecap:butt;stroke-linejoin:miter;stroke-miterlimit:10;stroke-dasharray:none;stroke-opacity:1"
         transform="matrix(0.68105333,-1.1462,-1.1462,-0.68105333,852.28909,304.28645)" />
      <path
         id="path80"
         d="m 399.37187,26.54445 36.07944,-8.32102"
         style="fill:none;stroke:#586e75;stroke-width:1.19553;stroke-linecap:butt;stroke-linejoin:miter;stroke-miterlimit:10;stroke-dasharray:none;stroke-opacity:1"
         transform="matrix(1.3333333,0,0,-1.3333333,358.016,366.58667)" />
      <path
         id="path81"
         d="M 5.08617,0 1.82423,1.24171 2.92336,0 1.82423,-1.24171 Z"
         style="fill:#586e75;fill-opacity:1;fill-rule:nonzero;stroke:#586e75;stroke-width:1.12978;stroke-linecap:butt;stroke-linejoin:miter;stroke-miterlimit:10;stroke-dasharray:none;stroke-opacity:1"
         transform="matrix(1.2992,0.2996,0.2996,-1.2992,935.18669,341.49753)" />
      <path
         id="path82"
         d="M 397.39676,-52.88994 440.98843,2.50777"
         style="fill:none;stroke:#586e75;stroke-width:1.19553;stroke-linecap:butt;stroke-linejoin:miter;stroke-miterlimit:10;stroke-dasharray:none;stroke-opacity:1"
         transform="matrix(1.3333333,0,0,-1.3333333,358.016,366.58667)" />
      <path
         id="path83"
         d="M 5.08617,0 1.82423,1.24171 2.92336,0 1.82423,-1.24171 Z"
         style="fill:#586e75;fill-opacity:1;fill-rule:nonzero;stroke:#586e75;stroke-width:1.12978;stroke-linecap:butt;stroke-linejoin:miter;stroke-miterlimit:10;stroke-dasharray:none;stroke-opacity:1"
         transform="matrix(0.82448,-1.0477867,-1.0477867,-0.82448,943.82317,366.01009)" />
    </g>
  </g>
</svg>
