<?xml version="1.0" encoding="UTF-8" standalone="no"?>
<!-- Created with Inkscape (http://www.inkscape.org/) -->

<svg
   version="1.1"
   id="svg1"
   width="315.2988"
   height="195.49153"
   viewBox="0 0 315.29879 195.49153"
   sodipodi:docname="max-flow-edge-disjoint1.svg"
   inkscape:version="1.4 (e7c3feb100, 2024-10-09)"
   xmlns:inkscape="http://www.inkscape.org/namespaces/inkscape"
   xmlns:sodipodi="http://sodipodi.sourceforge.net/DTD/sodipodi-0.dtd"
   xmlns="http://www.w3.org/2000/svg"
   xmlns:svg="http://www.w3.org/2000/svg">
  <defs
     id="defs1" />
  <sodipodi:namedview
     id="namedview1"
     pagecolor="#ffffff"
     bordercolor="#666666"
     borderopacity="1.0"
     inkscape:showpageshadow="2"
     inkscape:pageopacity="0.0"
     inkscape:pagecheckerboard="0"
     inkscape:deskcolor="#d1d1d1"
     inkscape:zoom="0.90509668"
     inkscape:cx="798.80969"
     inkscape:cy="523.14853"
     inkscape:window-width="3840"
     inkscape:window-height="2346"
     inkscape:window-x="0"
     inkscape:window-y="54"
     inkscape:window-maximized="1"
     inkscape:current-layer="g1">
    <inkscape:page
       x="0"
       y="0"
       inkscape:label="1"
       id="page1"
       width="315.2988"
       height="195.49153"
       margin="0"
       bleed="0" />
  </sodipodi:namedview>
  <g
     id="g1"
     inkscape:groupmode="layer"
     inkscape:label="1"
     transform="translate(-346.91797,-269.40622)">
    <g
       id="g70">
      <path
         id="path2"
         d="M 11.33876,0 C 11.33876,6.2623 6.2623,11.33876 0,11.33876 -6.2623,11.33876 -11.33876,6.2623 -11.33876,0 c 0,-6.2623 5.07646,-11.33876 11.33876,-11.33876 6.2623,0 11.33876,5.07646 11.33876,11.33876 z"
         style="fill:#eee8d5;fill-opacity:1;fill-rule:nonzero;stroke:#586e75;stroke-width:1.19553;stroke-linecap:butt;stroke-linejoin:miter;stroke-miterlimit:10;stroke-dasharray:none;stroke-opacity:1"
         transform="matrix(1.3333333,0,0,-1.3333333,362.83333,367.152)" />
      <path
         id="path3"
         d="m 3.6103672,-1.4284453 c -0.058594,0.2109375 -0.058594,0.234375 -0.2226563,0.45703124 -0.2695312,0.33984375 -0.796875,0.85546875 -1.359375,0.85546875 -0.4921875,0 -0.7617187,-0.4453125 -0.7617187,-1.16015629 0,-0.65625 0.3632812,-2.0039062 0.5976562,-2.5078125 0.4101563,-0.8320312 0.9726563,-1.265625 1.4414063,-1.265625 0.7851562,0 0.9375,0.984375 0.9375,1.078125 0,0.011719 -0.035156,0.1640625 -0.046875,0.1875 z m 0.7734375,-3.0703125 c -0.140625,-0.3164063 -0.4570313,-0.796875 -1.078125,-0.796875 -1.359375,0 -2.82421876,1.7578125 -2.82421876,3.5273437 0,1.19531254 0.69140626,1.88671879 1.51171876,1.88671879 0.65625,0 1.21875,-0.515625 1.5585937,-0.9140625 0.1171875,0.71484375 0.6796875,0.9140625 1.0429688,0.9140625 0.3632812,0 0.6445312,-0.2109375 0.8671875,-0.64453125 0.1875,-0.41015625 0.3632812,-1.13671874 0.3632812,-1.18359374 0,-0.070312 -0.046875,-0.1171875 -0.1289062,-0.1171875 -0.1054688,0 -0.1171875,0.058594 -0.1640625,0.2460937 -0.1757813,0.70312504 -0.4101563,1.46484379 -0.9023438,1.46484379 -0.3398437,0 -0.3632812,-0.31640625 -0.3632812,-0.55078125 0,-0.28125 0.035156,-0.41015624 0.140625,-0.87890624 0.082031,-0.3046875 0.140625,-0.5625 0.234375,-0.9140625 0.4453125,-1.8046875 0.5507812,-2.2265625 0.5507812,-2.3085938 0,-0.1640625 -0.1289062,-0.2929687 -0.3046875,-0.2929687 -0.3867187,0 -0.4804687,0.421875 -0.5039062,0.5625 z m 0,0"
         style="fill:#d33682;fill-opacity:1;fill-rule:nonzero;stroke:none"
         aria-label="a"
         transform="matrix(1.3333333,0,0,1.3333333,358.72133,370.596)" />
      <path
         id="path4"
         d="m 82.20576,0 c 0,6.2623 -5.07644,11.33876 -11.33876,11.33876 C 64.6047,11.33876 59.52824,6.2623 59.52824,0 c 0,-6.2623 5.07646,-11.33876 11.33876,-11.33876 6.26232,0 11.33876,5.07646 11.33876,11.33876 z"
         style="fill:#eee8d5;fill-opacity:1;fill-rule:nonzero;stroke:#586e75;stroke-width:1.19553;stroke-linecap:butt;stroke-linejoin:miter;stroke-miterlimit:10;stroke-dasharray:none;stroke-opacity:1"
         transform="matrix(1.3333333,0,0,-1.3333333,362.83333,367.152)" />
      <path
         id="path5"
         d="m 2.7774844,-8.0280703 c 0.011719,-0.046875 0.035156,-0.1171875 0.035156,-0.1757813 0,-0.1289062 -0.1289062,-0.1289062 -0.1523437,-0.1289062 -0.011719,0 -0.4453125,0.035156 -0.65625,0.058594 -0.1992188,0.011719 -0.3867188,0.046875 -0.5976563,0.058594 -0.2929687,0.023437 -0.375,0.035156 -0.375,0.2460937 0,0.1171875 0.1171875,0.1171875 0.2460938,0.1171875 0.609375,0 0.609375,0.1171875 0.609375,0.234375 0,0.082031 -0.09375,0.4335938 -0.1523438,0.6445313 l -0.28125,1.1484375 c -0.1171875,0.4804687 -0.80859372,3.2109375 -0.85546872,3.421875 -0.0585938,0.3046875 -0.0585938,0.5039062 -0.0585938,0.6679687 0,1.21875004 0.67968752,1.85156254 1.46484382,1.85156254 1.3945312,0 2.8359374,-1.78125004 2.8359374,-3.52734374 0,-1.1015625 -0.6328125,-1.8867188 -1.5234374,-1.8867188 -0.6328125,0 -1.1953125,0.515625 -1.4179688,0.7617188 z m -0.7617188,7.91015624 c -0.3867187,0 -0.8085937,-0.29296875 -0.8085937,-1.23046874 0,-0.3867188 0.035156,-0.6210938 0.2578125,-1.4648438 0.035156,-0.1523437 0.2226562,-0.9140625 0.2695312,-1.078125 0.035156,-0.09375 0.7382813,-1.1601562 1.5585938,-1.1601562 0.5273437,0 0.7617187,0.5273437 0.7617187,1.1484375 0,0.5742187 -0.3398437,1.9335937 -0.6328125,2.5546875 -0.3046875,0.65624999 -0.8554687,1.23046874 -1.40625,1.23046874 z m 0,0"
         style="fill:#d33682;fill-opacity:1;fill-rule:nonzero;stroke:none"
         aria-label="b"
         transform="matrix(1.3333333,0,0,1.3333333,453.992,372.708)" />
      <path
         id="path6"
         d="m 153.0728,0 c 0,6.2623 -5.07646,11.33876 -11.33876,11.33876 -6.2623,0 -11.33876,-5.07646 -11.33876,-11.33876 0,-6.2623 5.07646,-11.33876 11.33876,-11.33876 6.2623,0 11.33876,5.07646 11.33876,11.33876 z"
         style="fill:#eee8d5;fill-opacity:1;fill-rule:nonzero;stroke:#586e75;stroke-width:1.19553;stroke-linecap:butt;stroke-linejoin:miter;stroke-miterlimit:10;stroke-dasharray:none;stroke-opacity:1"
         transform="matrix(1.3333333,0,0,-1.3333333,362.83333,367.152)" />
      <path
         id="path7"
         d="m 4.6875547,-4.5104766 c -0.2226563,0 -0.328125,0 -0.5039063,0.140625 -0.070312,0.058594 -0.1992187,0.2460938 -0.1992187,0.4335938 0,0.2460937 0.1757812,0.3867187 0.4101562,0.3867187 0.28125,0 0.609375,-0.2460937 0.609375,-0.7265625 0,-0.5742187 -0.5507812,-1.0195312 -1.3828125,-1.0195312 -1.5703125,0 -3.14062496,1.7226562 -3.14062496,3.421875 0,1.04296874 0.64453126,1.99218749 1.87499996,1.99218749 1.6289063,0 2.6601563,-1.26562499 2.6601563,-1.42968749 0,-0.070312 -0.070312,-0.1289063 -0.1171875,-0.1289063 -0.035156,0 -0.046875,0.011719 -0.1640625,0.1171875 -0.7617188,1.01953129 -1.8984375,1.20703129 -2.3554688,1.20703129 -0.8320312,0 -1.0898437,-0.7265625 -1.0898437,-1.32421879 0,-0.421875 0.1992187,-1.5820312 0.6328125,-2.4023437 0.3046875,-0.5625 0.9609375,-1.2070313 1.7109375,-1.2070313 0.1640625,0 0.8203125,0.023437 1.0546875,0.5390625 z m 0,0"
         style="fill:#d33682;fill-opacity:1;fill-rule:nonzero;stroke:none"
         aria-label="c"
         transform="matrix(1.3333333,0,0,1.3333333,548.44133,370.596)" />
      <path
         id="path8"
         d="m 223.93982,0 c 0,6.2623 -5.07646,11.33876 -11.33876,11.33876 -6.2623,0 -11.33876,-5.07646 -11.33876,-11.33876 0,-6.2623 5.07646,-11.33876 11.33876,-11.33876 6.2623,0 11.33876,5.07646 11.33876,11.33876 z"
         style="fill:#eee8d5;fill-opacity:1;fill-rule:nonzero;stroke:#586e75;stroke-width:1.19553;stroke-linecap:butt;stroke-linejoin:miter;stroke-miterlimit:10;stroke-dasharray:none;stroke-opacity:1"
         transform="matrix(1.3333333,0,0,-1.3333333,362.83333,367.152)" />
      <path
         id="path9"
         d="m 6.0350078,-8.0280703 c 0.011719,-0.046875 0.035156,-0.1171875 0.035156,-0.1757813 0,-0.1289062 -0.1171875,-0.1289062 -0.140625,-0.1289062 -0.011719,0 -0.5976563,0.046875 -0.65625,0.058594 -0.2109375,0.011719 -0.3867188,0.046875 -0.609375,0.058594 -0.2929688,0.023437 -0.375,0.035156 -0.375,0.2460937 0,0.1171875 0.09375,0.1171875 0.2578125,0.1171875 0.5859375,0 0.5976562,0.1171875 0.5976562,0.234375 0,0.070312 -0.023437,0.1640625 -0.035156,0.1992188 L 4.382664,-4.5007261 c -0.140625,-0.3164062 -0.4570313,-0.796875 -1.078125,-0.796875 -1.359375,0 -2.82421879,1.7578125 -2.82421879,3.5273438 0,1.19531249 0.69140629,1.88671874 1.51171879,1.88671874 0.65625,0 1.21875,-0.515625 1.5585937,-0.9140625 0.1171875,0.71484375 0.6796875,0.9140625 1.0429688,0.9140625 0.3632812,0 0.6445312,-0.2109375 0.8671875,-0.64453125 0.1875,-0.41015625 0.3632812,-1.13671879 0.3632812,-1.18359379 0,-0.070312 -0.046875,-0.1171875 -0.1289062,-0.1171875 -0.1054688,0 -0.1171875,0.058594 -0.1640625,0.2460938 -0.1757813,0.70312499 -0.4101563,1.46484374 -0.9023438,1.46484374 -0.3398437,0 -0.3632812,-0.31640625 -0.3632812,-0.55078125 0,-0.046875 0,-0.3046875 0.082031,-0.64453129 z m -2.4257812,6.5976562 c -0.058594,0.2109375 -0.058594,0.234375 -0.2226563,0.45703129 -0.2695312,0.33984375 -0.796875,0.85546875 -1.359375,0.85546875 -0.4921875,0 -0.7617187,-0.4453125 -0.7617187,-1.16015624 0,-0.65625 0.3632812,-2.0039063 0.5976562,-2.5078125 0.4101563,-0.8320313 0.9726563,-1.265625 1.4414063,-1.265625 0.7851562,0 0.9375,0.984375 0.9375,1.078125 0,0.011719 -0.035156,0.1640625 -0.046875,0.1875 z m 0,0"
         style="fill:#d33682;fill-opacity:1;fill-rule:nonzero;stroke:none"
         aria-label="d"
         transform="matrix(1.3333333,0,0,1.3333333,642.23067,372.708)" />
      <path
         id="path10"
         d="m 117.63927,61.3728 c 0,6.2623 -5.07645,11.33876 -11.33877,11.33876 -6.26229,0 -11.33875,-5.07646 -11.33875,-11.33876 0,-6.26231 5.07646,-11.33876 11.33875,-11.33876 6.26232,0 11.33877,5.07645 11.33877,11.33876 z"
         style="fill:#eee8d5;fill-opacity:1;fill-rule:nonzero;stroke:#586e75;stroke-width:1.19553;stroke-linecap:butt;stroke-linejoin:miter;stroke-miterlimit:10;stroke-dasharray:none;stroke-opacity:1"
         transform="matrix(1.3333333,0,0,-1.3333333,362.83333,367.152)" />
      <path
         id="path11"
         d="m 2.7316484,-2.403125 c 0.2109375,0.035156 0.5390625,0.1054688 0.609375,0.1171875 0.1523438,0.058594 0.6914063,0.2460938 0.6914063,0.8203125 0,0.375 -0.3398438,1.34765625 -1.7226563,1.34765625 -0.2578125,0 -1.1601562,-0.0351563 -1.39453121,-0.703125 C 1.3957109,-0.7625 1.6300859,-1.1257812 1.6300859,-1.3953125 c 0,-0.2460937 -0.1640625,-0.3867187 -0.4101562,-0.3867187 -0.25781251,0 -0.60937501,0.2109375 -0.60937501,0.75 0,0.70312495 0.72656251,1.14843745 1.68750001,1.14843745 1.8164062,0 2.3554687,-1.33593745 2.3554687,-1.96874995 0,-0.1757813 0,-0.515625 -0.375,-0.890625 -0.3046875,-0.2929688 -0.5976562,-0.3515625 -1.2421875,-0.4804688 -0.328125,-0.082031 -0.84375,-0.1875 -0.84375,-0.7265625 0,-0.234375 0.2226563,-1.1015625 1.359375,-1.1015625 0.5039063,0 0.9960938,0.1875 1.1132813,0.6210938 -0.5273438,0 -0.5507813,0.4570312 -0.5507813,0.46875 0,0.2578125 0.234375,0.328125 0.3398438,0.328125 0.1640625,0 0.5039062,-0.140625 0.5039062,-0.6445313 0,-0.5039062 -0.4570312,-1.0195312 -1.3945312,-1.0195312 -1.5703125,0 -1.9921875,1.2421875 -1.9921875,1.734375 0,0.9140625 0.890625,1.1015625 1.1601562,1.1601562 z m 0,0"
         style="fill:#d33682;fill-opacity:1;fill-rule:nonzero;stroke:none"
         aria-label="s"
         transform="matrix(1.3333333,0,0,1.3333333,500.87733,288.76667)" />
      <path
         id="path12"
         d="m 117.6393,-61.3728 c 0,6.26231 -5.07645,11.33876 -11.33876,11.33876 -6.2623,0 -11.33876,-5.07645 -11.33876,-11.33876 0,-6.2623 5.07646,-11.33876 11.33876,-11.33876 6.26231,0 11.33876,5.07646 11.33876,11.33876 z"
         style="fill:#eee8d5;fill-opacity:1;fill-rule:nonzero;stroke:#586e75;stroke-width:1.19553;stroke-linecap:butt;stroke-linejoin:miter;stroke-miterlimit:10;stroke-dasharray:none;stroke-opacity:1"
         transform="matrix(1.3333333,0,0,-1.3333333,362.83333,367.152)" />
      <path
         id="path13"
         d="m 2.4137734,-4.8283672 h 1.1015625 c 0.2226563,0 0.3515625,0 0.3515625,-0.2109375 0,-0.1289062 -0.070312,-0.1289062 -0.3164062,-0.1289062 H 2.4958047 l 0.4453125,-1.7578125 c 0.046875,-0.1640625 0.046875,-0.1875 0.046875,-0.2695313 0,-0.1992187 -0.1523438,-0.3046875 -0.3164063,-0.3046875 -0.09375,0 -0.3632812,0.035156 -0.46875,0.421875 l -0.46875,1.9101563 H 0.60908594 c -0.234375,0 -0.33984375,0 -0.33984375,0.2226562 0,0.1171875 0.0820313,0.1171875 0.3046875,0.1171875 H 1.6403359 l -0.78515621,3.1757813 c -0.09375,0.421875 -0.140625,0.5390625 -0.140625,0.69140621 0,0.5625 0.39843751,1.078125 1.07812501,1.078125 1.2070312,0 1.8515625,-1.74609371 1.8515625,-1.82812501 0,-0.082031 -0.046875,-0.1171875 -0.1171875,-0.1171875 -0.023437,0 -0.070312,0 -0.09375,0.046875 -0.011719,0.011719 -0.023437,0.023437 -0.1054688,0.2226563 -0.2578125,0.59765621 -0.8085937,1.44140621 -1.5,1.44140621 -0.3632812,0 -0.3867187,-0.3046875 -0.3867187,-0.5625 0,-0.0117188 0,-0.24609375 0.035156,-0.38671871 z m 0,0"
         style="fill:#d33682;fill-opacity:1;fill-rule:nonzero;stroke:none"
         aria-label="t"
         transform="matrix(1.3333333,0,0,1.3333333,501.73867,453.90267)" />
      <path
         id="path14"
         d="M 95.96335,55.40472 14.60039,8.4294"
         style="fill:none;stroke:#268bd2;stroke-width:1.59404;stroke-linecap:butt;stroke-linejoin:miter;stroke-miterlimit:10;stroke-dasharray:none;stroke-opacity:1"
         transform="matrix(1.3333333,0,0,-1.3333333,362.83333,367.152)" />
      <path
         id="path15"
         d="M 6.17612,0 2.21527,1.50777 3.54979,0 2.21527,-1.50777 Z"
         style="fill:#268bd2;fill-opacity:1;fill-rule:nonzero;stroke:#268bd2;stroke-width:1.37189;stroke-linecap:butt;stroke-linejoin:miter;stroke-miterlimit:10;stroke-dasharray:none;stroke-opacity:1"
         transform="matrix(-1.15468,0.66664,0.66664,1.15468,386.0034,353.77499)" />
      <path
         id="path16"
         d="M 100.33226,51.03563 79.29642,14.60039"
         style="fill:none;stroke:#268bd2;stroke-width:1.59404;stroke-linecap:butt;stroke-linejoin:miter;stroke-miterlimit:10;stroke-dasharray:none;stroke-opacity:1"
         transform="matrix(1.3333333,0,0,-1.3333333,362.83333,367.152)" />
      <path
         id="path17"
         d="M 6.17612,0 2.21527,1.50777 3.54979,0 2.21527,-1.50777 Z"
         style="fill:#268bd2;fill-opacity:1;fill-rule:nonzero;stroke:#268bd2;stroke-width:1.37189;stroke-linecap:butt;stroke-linejoin:miter;stroke-miterlimit:10;stroke-dasharray:none;stroke-opacity:1"
         transform="matrix(-0.66664,1.15468,1.15468,0.66664,470.69971,343.98193)" />
      <path
         id="path18"
         d="M 116.63768,55.40472 198.00067,8.4294"
         style="fill:none;stroke:#268bd2;stroke-width:1.59404;stroke-linecap:butt;stroke-linejoin:miter;stroke-miterlimit:10;stroke-dasharray:none;stroke-opacity:1"
         transform="matrix(1.3333333,0,0,-1.3333333,362.83333,367.152)" />
      <path
         id="path19"
         d="M 6.17612,0 2.21527,1.50777 3.54979,0 2.21527,-1.50777 Z"
         style="fill:#268bd2;fill-opacity:1;fill-rule:nonzero;stroke:#268bd2;stroke-width:1.37189;stroke-linecap:butt;stroke-linejoin:miter;stroke-miterlimit:10;stroke-dasharray:none;stroke-opacity:1"
         transform="matrix(1.15468,0.66664,0.66664,-1.15468,623.13135,353.77499)" />
      <path
         id="path20"
         d="M 10.33716,-5.96806 91.70015,-52.94339"
         style="fill:none;stroke:#268bd2;stroke-width:1.59404;stroke-linecap:butt;stroke-linejoin:miter;stroke-miterlimit:10;stroke-dasharray:none;stroke-opacity:1"
         transform="matrix(1.3333333,0,0,-1.3333333,362.83333,367.152)" />
      <path
         id="path21"
         d="M 6.17612,0 2.21527,1.50777 3.54979,0 2.21527,-1.50777 Z"
         style="fill:#268bd2;fill-opacity:1;fill-rule:nonzero;stroke:#268bd2;stroke-width:1.37189;stroke-linecap:butt;stroke-linejoin:miter;stroke-miterlimit:10;stroke-dasharray:none;stroke-opacity:1"
         transform="matrix(1.15468,0.66664,0.66664,-1.15468,481.39732,435.60537)" />
      <path
         id="path22"
         d="M 135.7658,-10.33716 114.72995,-46.7724"
         style="fill:none;stroke:#268bd2;stroke-width:1.59404;stroke-linecap:butt;stroke-linejoin:miter;stroke-miterlimit:10;stroke-dasharray:none;stroke-opacity:1"
         transform="matrix(1.3333333,0,0,-1.3333333,362.83333,367.152)" />
      <path
         id="path23"
         d="M 6.17612,0 2.21527,1.50777 3.54979,0 2.21527,-1.50777 Z"
         style="fill:#268bd2;fill-opacity:1;fill-rule:nonzero;stroke:#268bd2;stroke-width:1.37189;stroke-linecap:butt;stroke-linejoin:miter;stroke-miterlimit:10;stroke-dasharray:none;stroke-opacity:1"
         transform="matrix(-0.66664,1.15468,1.15468,0.66664,517.94441,425.81233)" />
      <path
         id="path24"
         d="M 202.2639,-5.96806 120.90092,-52.94339"
         style="fill:none;stroke:#268bd2;stroke-width:1.59404;stroke-linecap:butt;stroke-linejoin:miter;stroke-miterlimit:10;stroke-dasharray:none;stroke-opacity:1"
         transform="matrix(1.3333333,0,0,-1.3333333,362.83333,367.152)" />
      <path
         id="path25"
         d="M 6.17612,0 2.21527,1.50777 3.54979,0 2.21527,-1.50777 Z"
         style="fill:#268bd2;fill-opacity:1;fill-rule:nonzero;stroke:#268bd2;stroke-width:1.37189;stroke-linecap:butt;stroke-linejoin:miter;stroke-miterlimit:10;stroke-dasharray:none;stroke-opacity:1"
         transform="matrix(-1.15468,0.66664,0.66664,1.15468,527.73745,435.60537)" />
      <path
         id="path26"
         d="M 58.9305,0 H 15.99057"
         style="fill:none;stroke:#586e75;stroke-width:1.19553;stroke-linecap:butt;stroke-linejoin:miter;stroke-miterlimit:10;stroke-dasharray:none;stroke-opacity:1"
         transform="matrix(1.3333333,0,0,-1.3333333,362.83333,367.152)" />
      <path
         id="path27"
         d="M 5.08617,0 1.82423,1.24171 2.92336,0 1.82423,-1.24171 Z"
         style="fill:#586e75;fill-opacity:1;fill-rule:nonzero;stroke:#586e75;stroke-width:1.12978;stroke-linecap:butt;stroke-linejoin:miter;stroke-miterlimit:10;stroke-dasharray:none;stroke-opacity:1"
         transform="matrix(-1.3333333,0,0,1.3333333,387.67531,367.152)" />
      <path
         id="path28"
         d="m 82.80353,0 h 42.07115"
         style="fill:none;stroke:#268bd2;stroke-width:1.59404;stroke-linecap:butt;stroke-linejoin:miter;stroke-miterlimit:10;stroke-dasharray:none;stroke-opacity:1"
         transform="matrix(1.3333333,0,0,-1.3333333,362.83333,367.152)" />
      <path
         id="path29"
         d="M 6.17612,0 2.21527,1.50777 3.54979,0 2.21527,-1.50777 Z"
         style="fill:#268bd2;fill-opacity:1;fill-rule:nonzero;stroke:#268bd2;stroke-width:1.37189;stroke-linecap:butt;stroke-linejoin:miter;stroke-miterlimit:10;stroke-dasharray:none;stroke-opacity:1"
         transform="matrix(1.3333333,0,0,-1.3333333,525.05715,367.152)" />
      <path
         id="path30"
         d="M 200.66454,0 H 157.72462"
         style="fill:none;stroke:#586e75;stroke-width:1.19553;stroke-linecap:butt;stroke-linejoin:miter;stroke-miterlimit:10;stroke-dasharray:none;stroke-opacity:1"
         transform="matrix(1.3333333,0,0,-1.3333333,362.83333,367.152)" />
      <path
         id="path31"
         d="M 5.08617,0 1.82423,1.24171 2.92336,0 1.82423,-1.24171 Z"
         style="fill:#586e75;fill-opacity:1;fill-rule:nonzero;stroke:#586e75;stroke-width:1.12978;stroke-linecap:butt;stroke-linejoin:miter;stroke-miterlimit:10;stroke-dasharray:none;stroke-opacity:1"
         transform="matrix(-1.3333333,0,0,1.3333333,576.65405,367.152)" />
    </g>
  </g>
</svg>
