<?xml version="1.0" encoding="UTF-8" standalone="no"?>
<!-- Created with Inkscape (http://www.inkscape.org/) -->

<svg
   version="1.1"
   id="svg1"
   width="787.74561"
   height="228.22366"
   viewBox="0 0 787.74559 228.22366"
   sodipodi:docname="max-flow-irrational.svg"
   inkscape:version="1.4 (e7c3feb100, 2024-10-09)"
   xmlns:inkscape="http://www.inkscape.org/namespaces/inkscape"
   xmlns:sodipodi="http://sodipodi.sourceforge.net/DTD/sodipodi-0.dtd"
   xmlns="http://www.w3.org/2000/svg"
   xmlns:svg="http://www.w3.org/2000/svg">
  <defs
     id="defs1" />
  <sodipodi:namedview
     id="namedview1"
     pagecolor="#ffffff"
     bordercolor="#666666"
     borderopacity="1.0"
     inkscape:showpageshadow="2"
     inkscape:pageopacity="0.0"
     inkscape:pagecheckerboard="0"
     inkscape:deskcolor="#d1d1d1"
     inkscape:zoom="3.6203867"
     inkscape:cx="314.60728"
     inkscape:cy="223.31869"
     inkscape:window-width="3840"
     inkscape:window-height="2346"
     inkscape:window-x="0"
     inkscape:window-y="54"
     inkscape:window-maximized="1"
     inkscape:current-layer="g1">
    <inkscape:page
       x="0"
       y="0"
       inkscape:label="1"
       id="page1"
       width="787.74561"
       height="228.22366"
       margin="0"
       bleed="0" />
  </sodipodi:namedview>
  <g
     id="g1"
     inkscape:groupmode="layer"
     inkscape:label="1"
     transform="translate(-280.77665,-269.40549)">
    <g
       id="g81">
      <path
         id="path2"
         d="M 11.33876,0 C 11.33876,6.2623 6.2623,11.33876 0,11.33876 -6.2623,11.33876 -11.33876,6.2623 -11.33876,0 c 0,-6.2623 5.07646,-11.33876 11.33876,-11.33876 6.2623,0 11.33876,5.07646 11.33876,11.33876 z"
         style="fill:#eee8d5;fill-opacity:1;fill-rule:nonzero;stroke:#586e75;stroke-width:1.19553;stroke-linecap:butt;stroke-linejoin:miter;stroke-miterlimit:10;stroke-dasharray:none;stroke-opacity:1"
         transform="matrix(1.3333333,0,0,-1.3333333,296.692,383.51733)" />
      <path
         id="path3"
         d="m 3.6079688,-1.4299844 c -0.058594,0.2109375 -0.058594,0.234375 -0.2226563,0.45703127 -0.2695312,0.33984375 -0.796875,0.85546875 -1.359375,0.85546875 -0.4921875,0 -0.7617187,-0.4453125 -0.7617187,-1.16015622 0,-0.65625 0.3632812,-2.0039063 0.5976562,-2.5078125 0.4101563,-0.8320313 0.9726563,-1.265625 1.4414063,-1.265625 0.7851562,0 0.9375,0.984375 0.9375,1.078125 0,0.011719 -0.035156,0.1640625 -0.046875,0.1875 z m 0.7734375,-3.0703125 c -0.140625,-0.3164062 -0.4570313,-0.796875 -1.078125,-0.796875 -1.359375,0 -2.8242188,1.7578125 -2.8242188,3.5273438 0,1.19531247 0.6914063,1.88671872 1.5117188,1.88671872 0.65625,0 1.21875,-0.515625 1.5585937,-0.9140625 0.1171875,0.71484375 0.6796875,0.9140625 1.0429688,0.9140625 0.3632812,0 0.6445312,-0.2109375 0.8671875,-0.64453125 0.1875,-0.41015625 0.3632812,-1.13671877 0.3632812,-1.18359377 0,-0.070312 -0.046875,-0.1171875 -0.1289062,-0.1171875 -0.1054688,0 -0.1171875,0.058594 -0.1640625,0.2460938 -0.1757813,0.70312497 -0.4101563,1.46484372 -0.9023438,1.46484372 -0.3398437,0 -0.3632812,-0.31640625 -0.3632812,-0.55078125 0,-0.28125 0.035156,-0.41015627 0.140625,-0.87890627 0.082031,-0.3046875 0.140625,-0.5625 0.234375,-0.9140625 C 5.0845313,-4.2659219 5.19,-4.6877969 5.19,-4.7698281 c 0,-0.1640625 -0.1289062,-0.2929688 -0.3046875,-0.2929688 -0.3867187,0 -0.4804687,0.421875 -0.5039062,0.5625 z m 0,0"
         style="fill:#d33682;fill-opacity:1;fill-rule:nonzero;stroke:none"
         aria-label="a"
         transform="matrix(1.3333333,0,0,1.3333333,292.58,386.96133)" />
      <path
         id="path4"
         d="m 96.37918,0 c 0,6.2623 -5.07646,11.33876 -11.33876,11.33876 -6.2623,0 -11.33876,-5.07646 -11.33876,-11.33876 0,-6.2623 5.07646,-11.33876 11.33876,-11.33876 6.2623,0 11.33876,5.07646 11.33876,11.33876 z"
         style="fill:#eee8d5;fill-opacity:1;fill-rule:nonzero;stroke:#586e75;stroke-width:1.19553;stroke-linecap:butt;stroke-linejoin:miter;stroke-miterlimit:10;stroke-dasharray:none;stroke-opacity:1"
         transform="matrix(1.3333333,0,0,-1.3333333,296.692,383.51733)" />
      <path
         id="path5"
         d="M 2.7778437,-8.0266797 C 2.7895625,-8.0735547 2.813,-8.1438672 2.813,-8.2024609 c 0,-0.1289063 -0.1289063,-0.1289063 -0.1523438,-0.1289063 -0.011719,0 -0.4453125,0.035156 -0.65625,0.058594 -0.1992187,0.011719 -0.3867187,0.046875 -0.5976562,0.058594 -0.2929688,0.023437 -0.375,0.035156 -0.375,0.2460938 0,0.1171875 0.1171875,0.1171875 0.2460937,0.1171875 0.609375,0 0.609375,0.1171875 0.609375,0.234375 0,0.082031 -0.09375,0.4335937 -0.1523437,0.6445312 l -0.28125,1.1484375 c -0.1171875,0.4804688 -0.80859375,3.2109375 -0.85546875,3.421875 -0.0585938,0.3046875 -0.0585938,0.5039063 -0.0585938,0.6679688 0,1.21874996 0.67968745,1.85156246 1.46484375,1.85156246 1.3945313,0 2.8359375,-1.78124996 2.8359375,-3.52734376 0,-1.1015625 -0.6328125,-1.8867187 -1.5234375,-1.8867187 -0.6328125,0 -1.1953125,0.515625 -1.4179687,0.7617187 z M 2.016125,-0.11652344 c -0.3867188,0 -0.8085938,-0.29296875 -0.8085938,-1.23046876 0,-0.3867187 0.035156,-0.6210937 0.2578125,-1.4648437 C 1.5005,-2.9641797 1.688,-3.7258984 1.734875,-3.8899609 c 0.035156,-0.09375 0.7382812,-1.1601563 1.5585937,-1.1601563 0.5273438,0 0.7617188,0.5273438 0.7617188,1.1484375 0,0.5742188 -0.3398438,1.9335938 -0.6328125,2.5546875 -0.3046875,0.65625001 -0.8554688,1.23046876 -1.40625,1.23046876 z m 0,0"
         style="fill:#d33682;fill-opacity:1;fill-rule:nonzero;stroke:none"
         aria-label="b"
         transform="matrix(1.3333333,0,0,1.3333333,406.74933,389.07333)" />
      <path
         id="path6"
         d="m 181.41962,0 c 0,6.2623 -5.07647,11.33876 -11.33876,11.33876 -6.26232,0 -11.33876,-5.07646 -11.33876,-11.33876 0,-6.2623 5.07644,-11.33876 11.33876,-11.33876 6.26229,0 11.33876,5.07646 11.33876,11.33876 z"
         style="fill:#eee8d5;fill-opacity:1;fill-rule:nonzero;stroke:#586e75;stroke-width:1.19553;stroke-linecap:butt;stroke-linejoin:miter;stroke-miterlimit:10;stroke-dasharray:none;stroke-opacity:1"
         transform="matrix(1.3333333,0,0,-1.3333333,296.692,383.51733)" />
      <path
         id="path7"
         d="m 4.6868125,-4.5120156 c -0.2226562,0 -0.328125,0 -0.5039062,0.140625 -0.070312,0.058594 -0.1992188,0.2460937 -0.1992188,0.4335937 0,0.2460938 0.1757813,0.3867188 0.4101563,0.3867188 0.28125,0 0.609375,-0.2460938 0.609375,-0.7265625 0,-0.5742188 -0.5507813,-1.0195313 -1.3828125,-1.0195313 -1.5703125,0 -3.14062505,1.7226563 -3.14062505,3.421875 0,1.04296877 0.64453125,1.99218752 1.87500005,1.99218752 1.6289062,0 2.6601562,-1.26562502 2.6601562,-1.42968752 0,-0.070312 -0.070312,-0.1289062 -0.1171875,-0.1289062 -0.035156,0 -0.046875,0.011719 -0.1640625,0.1171875 -0.7617187,1.01953122 -1.8984375,1.20703122 -2.3554687,1.20703122 -0.8320313,0 -1.0898438,-0.7265625 -1.0898438,-1.32421872 0,-0.421875 0.1992188,-1.5820313 0.6328125,-2.4023438 0.3046875,-0.5625 0.9609375,-1.2070312 1.7109375,-1.2070312 0.1640625,0 0.8203125,0.023437 1.0546875,0.5390625 z m 0,0"
         style="fill:#d33682;fill-opacity:1;fill-rule:nonzero;stroke:none"
         aria-label="c"
         transform="matrix(1.3333333,0,0,1.3333333,520.09467,386.96133)" />
      <path
         id="path8"
         d="m 266.46004,0 c 0,6.2623 -5.07645,11.33876 -11.33876,11.33876 -6.2623,0 -11.33876,-5.07646 -11.33876,-11.33876 0,-6.2623 5.07646,-11.33876 11.33876,-11.33876 6.26231,0 11.33876,5.07646 11.33876,11.33876 z"
         style="fill:#eee8d5;fill-opacity:1;fill-rule:nonzero;stroke:#586e75;stroke-width:1.19553;stroke-linecap:butt;stroke-linejoin:miter;stroke-miterlimit:10;stroke-dasharray:none;stroke-opacity:1"
         transform="matrix(1.3333333,0,0,-1.3333333,296.692,383.51733)" />
      <path
         id="path9"
         d="m 6.0360234,-8.0266797 c 0.011719,-0.046875 0.035156,-0.1171875 0.035156,-0.1757812 0,-0.1289063 -0.1171875,-0.1289063 -0.140625,-0.1289063 -0.011719,0 -0.5976563,0.046875 -0.65625,0.058594 -0.2109375,0.011719 -0.3867188,0.046875 -0.609375,0.058594 -0.2929688,0.023437 -0.375,0.035156 -0.375,0.2460938 0,0.1171875 0.09375,0.1171875 0.2578125,0.1171875 0.5859375,0 0.5976562,0.1171875 0.5976562,0.234375 0,0.070312 -0.023437,0.1640625 -0.035156,0.1992187 l -0.7265625,2.9179688 c -0.140625,-0.3164063 -0.4570313,-0.796875 -1.078125,-0.796875 -1.359375,0 -2.82421876,1.7578125 -2.82421876,3.5273437 0,1.19531251 0.69140626,1.88671876 1.51171876,1.88671876 0.65625,0 1.21875,-0.515625 1.5585937,-0.9140625 0.1171875,0.71484375 0.6796875,0.9140625 1.0429688,0.9140625 0.3632812,0 0.6445312,-0.2109375 0.8671875,-0.64453125 0.1875,-0.41015625 0.3632812,-1.13671871 0.3632812,-1.18359371 0,-0.070312 -0.046875,-0.1171875 -0.1289062,-0.1171875 -0.1054688,0 -0.1171875,0.058594 -0.1640625,0.2460937 -0.1757813,0.70312501 -0.4101563,1.46484376 -0.9023438,1.46484376 -0.3398437,0 -0.3632812,-0.31640625 -0.3632812,-0.55078125 0,-0.046875 0,-0.3046875 0.082031,-0.64453121 z m -2.4257812,6.5976563 c -0.058594,0.2109375 -0.058594,0.234375 -0.2226563,0.45703121 -0.2695312,0.33984375 -0.796875,0.85546875 -1.359375,0.85546875 -0.4921875,0 -0.7617187,-0.4453125 -0.7617187,-1.16015626 0,-0.65625 0.3632812,-2.0039062 0.5976562,-2.5078125 0.4101563,-0.8320312 0.9726563,-1.265625 1.4414063,-1.265625 0.7851562,0 0.9375,0.984375 0.9375,1.078125 0,0.011719 -0.035156,0.1640625 -0.046875,0.1875 z m 0,0"
         style="fill:#d33682;fill-opacity:1;fill-rule:nonzero;stroke:none"
         aria-label="d"
         transform="matrix(1.3333333,0,0,1.3333333,632.784,389.07333)" />
      <path
         id="path10"
         d="m 138.89938,73.64735 c 0,6.26232 -5.07644,11.33876 -11.33876,11.33876 -6.2623,0 -11.33876,-5.07644 -11.33876,-11.33876 0,-6.26229 5.07646,-11.33875 11.33876,-11.33875 6.26232,0 11.33876,5.07646 11.33876,11.33875 z"
         style="fill:#eee8d5;fill-opacity:1;fill-rule:nonzero;stroke:#586e75;stroke-width:1.19553;stroke-linecap:butt;stroke-linejoin:miter;stroke-miterlimit:10;stroke-dasharray:none;stroke-opacity:1"
         transform="matrix(1.3333333,0,0,-1.3333333,296.692,383.51733)" />
      <path
         id="path11"
         d="m 2.7299922,-2.402125 c 0.2109375,0.035156 0.5390625,0.1054687 0.609375,0.1171875 0.1523437,0.058594 0.6914062,0.2460937 0.6914062,0.8203125 0,0.375 -0.3398437,1.34765625 -1.7226562,1.34765625 -0.2578125,0 -1.1601563,-0.0351563 -1.39453126,-0.703125 C 1.3940547,-0.7615 1.6284297,-1.1247813 1.6284297,-1.3943125 c 0,-0.2460938 -0.1640625,-0.3867188 -0.4101563,-0.3867188 -0.25781246,0 -0.60937496,0.2109375 -0.60937496,0.75 0,0.70312505 0.72656246,1.14843755 1.68749996,1.14843755 1.8164063,0 2.3554688,-1.33593755 2.3554688,-1.96875005 0,-0.1757812 0,-0.515625 -0.375,-0.890625 -0.3046875,-0.2929687 -0.5976563,-0.3515625 -1.2421875,-0.4804687 -0.328125,-0.082031 -0.84375,-0.1875 -0.84375,-0.7265625 0,-0.234375 0.2226562,-1.1015625 1.359375,-1.1015625 0.5039062,0 0.9960937,0.1875 1.1132812,0.6210937 -0.5273437,0 -0.5507812,0.4570313 -0.5507812,0.46875 0,0.2578125 0.234375,0.328125 0.3398437,0.328125 0.1640625,0 0.5039063,-0.140625 0.5039063,-0.6445312 0,-0.5039063 -0.4570313,-1.0195313 -1.3945313,-1.0195313 -1.5703125,0 -1.9921875,1.2421875 -1.9921875,1.734375 0,0.9140625 0.890625,1.1015625 1.1601563,1.1601563 z m 0,0"
         style="fill:#d33682;fill-opacity:1;fill-rule:nonzero;stroke:none"
         aria-label="s"
         transform="matrix(1.3333333,0,0,1.3333333,463.08267,288.76533)" />
      <path
         id="path12"
         d="m 138.8994,-73.64735 c 0,6.26229 -5.07645,11.33875 -11.33876,11.33875 -6.2623,0 -11.33876,-5.07646 -11.33876,-11.33875 0,-6.26232 5.07646,-11.33876 11.33876,-11.33876 6.26231,0 11.33876,5.07644 11.33876,11.33876 z"
         style="fill:#eee8d5;fill-opacity:1;fill-rule:nonzero;stroke:#586e75;stroke-width:1.19553;stroke-linecap:butt;stroke-linejoin:miter;stroke-miterlimit:10;stroke-dasharray:none;stroke-opacity:1"
         transform="matrix(1.3333333,0,0,-1.3333333,296.692,383.51733)" />
      <path
         id="path13"
         d="m 2.4150469,-4.8295156 h 1.1015625 c 0.2226562,0 0.3515625,0 0.3515625,-0.2109375 0,-0.1289063 -0.070312,-0.1289063 -0.3164063,-0.1289063 H 2.4970781 l 0.4453125,-1.7578125 c 0.046875,-0.1640625 0.046875,-0.1875 0.046875,-0.2695312 0,-0.1992188 -0.1523437,-0.3046875 -0.3164062,-0.3046875 -0.09375,0 -0.3632813,0.035156 -0.46875,0.421875 l -0.46875,1.9101562 H 0.61035938 c -0.234375,0 -0.33984375,0 -0.33984375,0.2226563 0,0.1171875 0.0820313,0.1171875 0.3046875,0.1171875 H 1.6416094 l -0.78515627,3.1757812 c -0.09375,0.421875 -0.140625,0.5390625 -0.140625,0.69140628 0,0.5625 0.39843747,1.078125 1.07812497,1.078125 1.2070313,0 1.8515625,-1.74609378 1.8515625,-1.82812498 0,-0.082031 -0.046875,-0.1171875 -0.1171875,-0.1171875 -0.023437,0 -0.070312,0 -0.09375,0.046875 -0.011719,0.011719 -0.023437,0.023437 -0.1054687,0.2226562 -0.2578125,0.59765628 -0.8085938,1.44140628 -1.5,1.44140628 -0.3632813,0 -0.3867188,-0.3046875 -0.3867188,-0.5625 0,-0.0117188 0,-0.24609375 0.035156,-0.38671878 z m 0,0"
         style="fill:#d33682;fill-opacity:1;fill-rule:nonzero;stroke:none"
         aria-label="t"
         transform="matrix(1.3333333,0,0,1.3333333,463.944,486.63467)" />
      <path
         id="path14"
         d="M 117.22346,67.67929 13.84802,7.99501"
         style="fill:none;stroke:#586e75;stroke-width:1.19553;stroke-linecap:butt;stroke-linejoin:miter;stroke-miterlimit:10;stroke-dasharray:none;stroke-opacity:1"
         transform="matrix(1.3333333,0,0,-1.3333333,296.692,383.51733)" />
      <path
         id="path15"
         d="M 5.08617,0 1.82423,1.24171 2.92336,0 1.82423,-1.24171 Z"
         style="fill:#586e75;fill-opacity:1;fill-rule:nonzero;stroke:#586e75;stroke-width:1.12978;stroke-linecap:butt;stroke-linejoin:miter;stroke-miterlimit:10;stroke-dasharray:none;stroke-opacity:1"
         transform="matrix(-1.15468,0.66664,0.66664,1.15468,318.20545,371.09675)" />
      <path
         id="path16"
         d="m 5.6955958,-4.8699984 -1.1235861,-2.624344 c 0.1539146,-0.2900322 0.5189691,-0.3363783 0.6513263,-0.3546868 0.078472,0.00471 0.2209786,-0.00774 0.2175285,-0.2127098 0.00199,-0.1206384 -0.1084997,-0.1167685 -0.1768231,-0.1156185 -0.2151191,-0.00241 -0.4419571,0.015479 -0.6570763,0.01307 l -0.6875235,-0.00451 c -0.7355488,0.00836 -1.2645576,-0.012886 -1.2805661,-0.0086 -0.094481,-4.198e-4 -0.2151191,-0.00241 -0.2175285,0.2127098 -0.00199,0.1206384 0.1084997,0.1167685 0.2552955,0.1203279 0.7035319,2.187e-4 0.7640063,0.129856 0.8732362,0.4094288 l 1.4271081,3.340854 -2.592454,2.7793557 c -0.4323373,0.46758557 -0.953296,0.92460229 -1.84306981,0.96570996 -0.14250619,0.012449 -0.22683801,0.0178887 -0.22924738,0.23300786 0.00272,0.04216592 -0.00199,0.12063833 0.13465718,0.1183383 0.16280424,-7.3023e-4 0.35333575,-0.02604813 0.51613999,-0.02677836 l 0.56688512,0.0025187 C 1.9078213,-0.02024089 2.3263409,0.00487591 2.6941153,6.956386e-4 2.7885961,0.00111542 2.9353919,0.00467481 2.9378013,-0.21044437 2.9397909,-0.3310827 2.8410204,-0.34751093 2.772697,-0.34636091 2.5329902,-0.37649755 2.3823245,-0.49054624 2.3831641,-0.67950795 2.3855735,-0.89462713 2.5199202,-1.0335739 2.8675059,-1.401239 l 1.0779135,-1.1638893 c 0.2526851,-0.273604 0.8982613,-0.9699078 1.1552359,-1.2275033 l 1.2616933,2.94765233 c 0.014439,0.0218679 0.064764,0.14564579 0.069054,0.16165423 -0.00628,0.10462988 -0.2761227,0.3142001 -0.655616,0.33867843 -0.078472,-0.004709 -0.2108295,0.0135991 -0.2132389,0.22871825 -0.00199,0.12063833 0.1186488,0.12262791 0.1768231,0.11561848292 C 5.9544897,0.00209949 6.1871871,-0.02593822 6.4023063,-0.02352885 l 1.3125829,1.758e-5 C 7.9300084,-0.0211019 8.1595663,0.00317532 8.3645364,-2.7471919e-4 8.4430088,0.00443468 8.5796556,0.00213465 8.582065,-0.21298453 8.5797649,-0.3496313 8.4591266,-0.35162089 8.3486373,-0.34775106 7.6349564,-0.35382915 7.6017895,-0.41357331 7.4032079,-0.8665191 L 5.8251238,-4.5787069 7.3455236,-6.2043223 c 0.1284873,-0.1287978 0.3928912,-0.4226998 0.5112295,-0.557357 0.5155191,-0.5413486 0.9958817,-1.021803 1.9656977,-1.0843587 0.1163487,-0.014019 0.2369872,-0.012029 0.2335372,-0.2169994 0.002,-0.1206383 -0.1084999,-0.1167685 -0.1506658,-0.1140487 -0.1729533,-0.00513 -0.3474763,0.015899 -0.5102806,0.016629 l -0.5508767,-0.00681 c -0.3939318,0.00261 -0.8183108,-0.012357 -1.1860852,-0.00818 -0.088621,-0.010569 -0.2252682,-0.00827 -0.2218181,0.1967014 -0.00199,0.1206383 0.070623,0.1354967 0.1389468,0.1343467 0.2092597,0.012558 0.4122403,0.1297467 0.4039715,0.3550149 l -0.00586,0.010149 c -0.016428,0.09877 -0.038716,0.20769 -0.1629136,0.3524962 z m 0,0"
         style="fill:#d33682;fill-opacity:1;fill-rule:nonzero;stroke:none"
         aria-label="X"
         transform="matrix(1.15468,-0.66664,0.66664,1.15468,372.8262,333.25223)" />
      <path
         id="path17"
         d="M 121.59238,63.3102 93.46983,14.60039"
         style="fill:none;stroke:#268bd2;stroke-width:1.59404;stroke-linecap:butt;stroke-linejoin:miter;stroke-miterlimit:10;stroke-dasharray:none;stroke-opacity:1"
         transform="matrix(1.3333333,0,0,-1.3333333,296.692,383.51733)" />
      <path
         id="path18"
         d="M 6.17612,0 2.21527,1.50777 3.54979,0 2.21527,-1.50777 Z"
         style="fill:#268bd2;fill-opacity:1;fill-rule:nonzero;stroke:#268bd2;stroke-width:1.37189;stroke-linecap:butt;stroke-linejoin:miter;stroke-miterlimit:10;stroke-dasharray:none;stroke-opacity:1"
         transform="matrix(-0.66664,1.15468,1.15468,0.66664,423.45627,360.34727)" />
      <path
         id="path19"
         d="M 5.6969824,-4.8738792 4.573326,-7.4998671 c 0.139677,-0.297151 0.5101712,-0.3351366 0.6511076,-0.348845 0.078472,-0.00471 0.2092598,-0.012558 0.2127098,-0.2175286 -0.00199,-0.1206383 -0.1124788,-0.1245081 -0.1808022,-0.1256582 -0.2151192,0.00241 -0.4505364,0.016538 -0.6656556,0.018947 l -0.6875235,0.00451 c -0.7355488,-0.00836 -1.2559784,-0.019131 -1.2719868,-0.02342 -0.094481,4.198e-4 -0.2151192,0.00241 -0.2127098,0.2175285 0.00199,0.1206384 0.1124788,0.1245082 0.2592746,0.1209488 0.7035319,-2.187e-4 0.7476874,0.1231395 0.8594361,0.4104519 l 1.4393345,3.3368396 -2.6055629,2.7762865 c -0.4281394,0.47722303 -0.9363211,0.93299798 -1.83153451,0.97622214 -0.15108541,0.0195678 -0.23541724,0.0141282 -0.23300787,0.22924738 -0.00272,0.04216592 0.00199,0.12063833 0.13863636,0.12293836 0.16280424,7.3023023e-4 0.35019615,-0.02626681 0.51300039,-0.02553658 L 1.5249273,-0.029454 C 1.9028507,-0.0311331 2.3245099,-0.003935 2.6922843,2.452738e-4 2.7867651,-1.763214e-4 2.9335609,-0.00373571 2.9311515,-0.21885489 2.929162,-0.33949322 2.8389707,-0.35508187 2.7706473,-0.35623189 2.5278009,-0.37841019 2.3731561,-0.50563816 2.3723165,-0.69459987 2.3699071,-0.90971905 2.5088539,-1.0440658 2.8648002,-1.4119495 l 1.064699,-1.1559662 c 0.2618852,-0.2729831 0.9070241,-0.9837431 1.1646196,-1.2407177 l 1.2588427,2.95389637 c 0.017578,0.0304471 0.071883,0.14794581 0.067593,0.16395425 0.00628,0.10462989 -0.2704644,0.30499998 -0.646818,0.33283659 -0.078472,0.004709 -0.2194088,0.0184178 -0.2169995,0.233537 0.00199,0.12063833 0.1226279,0.11864874 0.1808023,0.12565817 0.2151192,-0.00240937 0.444677,-0.0266866 0.6597962,-0.02909597 l 1.3125829,-1.758e-5 c 0.2151192,-0.0024094 0.4478166,0.02562835 0.6527868,0.02907839 0.078472,-0.0047094 0.2151192,-0.00240937 0.2127098,-0.21752855 0.0023,-0.13664677 -0.1183383,-0.13465719 -0.2288276,-0.13852701 -0.7253997,-0.01422 -0.7445478,-0.0708245 -0.9441877,-0.51037234 L 5.8087311,-4.5865668 7.3437355,-6.2170362 c 0.1127893,-0.1327769 0.3949725,-0.4174788 0.4976128,-0.5443964 0.5136213,-0.5401067 0.9983653,-1.0364778 1.9822002,-1.0902708 0.1046299,-0.00628 0.2252685,-0.00827 0.2287185,-0.2132389 -0.002,-0.1206383 -0.1124792,-0.1245082 -0.1546451,-0.127228 -0.1729532,0.00513 -0.3560555,0.016118 -0.5188598,0.015388 l -0.5508767,0.00681 c -0.3939318,-0.00261 -0.8097316,-0.01966 -1.177506,-0.02384 -0.088621,0.010569 -0.2252682,0.00827 -0.2287182,0.213239 0.00199,0.1206383 0.086321,0.1260779 0.1546448,0.1272279 0.2006805,0.019458 0.3959214,0.1232488 0.4041902,0.3485171 l -0.014439,0.021868 c -0.015589,0.090191 -0.045616,0.2022504 -0.1626949,0.3510357 z m 0,0"
         style="fill:#d33682;fill-opacity:1;fill-rule:nonzero;stroke:none"
         aria-label="X"
         transform="matrix(0.66664,-1.15468,1.15468,0.66664,449.29087,348.92497)" />
      <path
         id="path20"
         d="M 137.8978,67.67929 241.27325,7.99501"
         style="fill:none;stroke:#586e75;stroke-width:1.19553;stroke-linecap:butt;stroke-linejoin:miter;stroke-miterlimit:10;stroke-dasharray:none;stroke-opacity:1"
         transform="matrix(1.3333333,0,0,-1.3333333,296.692,383.51733)" />
      <path
         id="path21"
         d="M 5.08617,0 1.82423,1.24171 2.92336,0 1.82423,-1.24171 Z"
         style="fill:#586e75;fill-opacity:1;fill-rule:nonzero;stroke:#586e75;stroke-width:1.12978;stroke-linecap:butt;stroke-linejoin:miter;stroke-miterlimit:10;stroke-dasharray:none;stroke-opacity:1"
         transform="matrix(1.15468,0.66664,0.66664,-1.15468,615.34025,371.09675)" />
      <path
         id="path22"
         d="M 5.6984285,-4.874687 4.5747721,-7.5006749 c 0.1396771,-0.297151 0.5101713,-0.3351367 0.6511076,-0.3488451 0.078473,-0.00471 0.2092598,-0.012558 0.2127099,-0.2175285 -0.00199,-0.1206384 -0.1124789,-0.1245082 -0.1808023,-0.1256582 -0.2151192,0.00241 -0.4505364,0.016538 -0.6656556,0.018947 l -0.6875235,0.00451 c -0.7355488,-0.00836 -1.2559784,-0.01913 -1.2719868,-0.02342 -0.094481,4.197e-4 -0.2151192,0.00241 -0.2127098,0.2175285 0.00199,0.1206383 0.1124789,0.1245082 0.2592747,0.1209488 0.7035319,-2.187e-4 0.7476874,0.1231394 0.859436,0.4104518 l 1.4393345,3.3368397 -2.6055629,2.7762865 c -0.4281394,0.477223 -0.9363211,0.93299795 -1.83153449,0.97622211 -0.15108541,0.0195678 -0.23541724,0.0141282 -0.23300787,0.22924738 -0.00272,0.04216592 0.00199,0.12063833 0.13863635,0.12293836 0.16280424,7.3023e-4 0.35019616,-0.02626681 0.5130004,-0.02553658 L 1.5263734,-0.03026183 C 1.9042968,-0.03194093 2.325956,-0.00474282 2.6937304,-5.625486e-4 2.7882112,-9.8415387e-4 2.935007,-0.00454354 2.9325977,-0.21966272 2.9306081,-0.34030105 2.8404168,-0.35588971 2.7720934,-0.35703972 2.529247,-0.37921802 2.3746022,-0.50644599 2.3737626,-0.6954077 2.3713533,-0.91052688 2.5103001,-1.0448736 2.8662463,-1.4127574 l 1.0646991,-1.1559661 c 0.2618851,-0.2729831 0.907024,-0.9837431 1.1646195,-1.2407178 l 1.2588427,2.95389644 c 0.017578,0.0304471 0.071883,0.14794581 0.067593,0.16395425 0.00628,0.10462988 -0.2704644,0.30499998 -0.646818,0.33283659 -0.078472,0.004709 -0.2194088,0.0184178 -0.2169995,0.233537 0.00199,0.12063832 0.122628,0.11864874 0.1808023,0.12565816704 0.2151192,-0.002409367 0.444677,-0.026686597 0.6597962,-0.029095967 l 1.3125829,-1.758e-5 C 7.9264839,-0.0310818 8.1591814,-0.00304405 8.3641515,4.0598914e-4 8.4426239,-0.00430341 8.5792707,-0.00200338 8.5768613,-0.21712256 8.5791614,-0.35376933 8.458523,-0.35177975 8.3480337,-0.35564958 7.622634,-0.36986954 7.6034859,-0.42647409 7.4038461,-0.86602192 L 5.8101772,-4.5873747 7.3451816,-6.217844 c 0.1127893,-0.1327769 0.3949725,-0.4174789 0.4976128,-0.5443964 0.5136213,-0.5401068 0.9983653,-1.0364778 1.9822002,-1.0902708 0.1046299,-0.00628 0.2252684,-0.00827 0.2287184,-0.2132389 -0.002,-0.1206384 -0.112479,-0.1245082 -0.154645,-0.127228 -0.1729532,0.00513 -0.3560555,0.016118 -0.5188598,0.015387 l -0.5508767,0.00681 c -0.3939318,-0.00261 -0.8097315,-0.01966 -1.1775059,-0.02384 -0.088621,0.010569 -0.2252682,0.00827 -0.2287183,0.2132389 0.00199,0.1206384 0.086321,0.126078 0.1546448,0.127228 0.2006805,0.019458 0.3959215,0.1232488 0.4041902,0.348517 l -0.014439,0.021868 c -0.015589,0.090191 -0.045616,0.2022503 -0.1626949,0.3510357 z m 0,0"
         style="fill:#d33682;fill-opacity:1;fill-rule:nonzero;stroke:none"
         aria-label="X"
         transform="matrix(1.15468,0.66664,-0.66664,1.15468,548.3697,326.12287)" />
      <path
         id="path23"
         d="M 10.33716,-5.96806 113.71262,-65.65233"
         style="fill:none;stroke:#586e75;stroke-width:1.19553;stroke-linecap:butt;stroke-linejoin:miter;stroke-miterlimit:10;stroke-dasharray:none;stroke-opacity:1"
         transform="matrix(1.3333333,0,0,-1.3333333,296.692,383.51733)" />
      <path
         id="path24"
         d="M 5.08617,0 1.82423,1.24171 2.92336,0 1.82423,-1.24171 Z"
         style="fill:#586e75;fill-opacity:1;fill-rule:nonzero;stroke:#586e75;stroke-width:1.12978;stroke-linecap:butt;stroke-linejoin:miter;stroke-miterlimit:10;stroke-dasharray:none;stroke-opacity:1"
         transform="matrix(1.15468,0.66664,0.66664,-1.15468,445.2594,469.29321)" />
      <path
         id="path25"
         d="M 5.6983162,-4.8718346 4.5746598,-7.4978225 c 0.139677,-0.297151 0.5101712,-0.3351366 0.6511076,-0.348845 0.078472,-0.00471 0.2092598,-0.012558 0.2127098,-0.2175286 -0.00199,-0.1206383 -0.1124789,-0.1245082 -0.1808022,-0.1256582 -0.2151192,0.00241 -0.4505365,0.016538 -0.6656557,0.018947 l -0.6875234,0.00451 c -0.7355488,-0.00836 -1.2559784,-0.01913 -1.2719868,-0.02342 -0.094481,4.198e-4 -0.2151192,0.00241 -0.2127099,0.2175285 0.00199,0.1206384 0.1124789,0.1245082 0.2592747,0.1209488 0.7035319,-2.187e-4 0.7476874,0.1231395 0.8594361,0.4104519 l 1.4393345,3.3368396 -2.6055629,2.7762865 c -0.4281394,0.47722302 -0.9363211,0.93299797 -1.83153453,0.97622214 -0.15108541,0.0195678 -0.23541724,0.0141282 -0.23300786,0.22924738 -0.00272,0.04216591 0.00199,0.12063832 0.13863635,0.12293835205 C 0.6091798,0.0013743 0.79657171,-0.02562274 0.95937595,-0.02489251 l 0.56688515,-0.0025187 c 0.3779234,-0.0016791 0.7995825,0.025519 1.1673569,0.02969928 0.094481,-4.1979e-4 0.2412767,-0.00397918 0.2388673,-0.21909836 -0.00199,-0.12063832 -0.092181,-0.13622698 -0.1605042,-0.137377 C 2.5291347,-0.3763656 2.3744899,-0.50359357 2.3736503,-0.69255528 2.3712409,-0.90767446 2.5101877,-1.0420212 2.8661339,-1.4099049 L 3.930833,-2.5658711 c 0.2618852,-0.2729831 0.907024,-0.9837431 1.1646196,-1.2407177 l 1.2588427,2.95389636 c 0.017578,0.0304471 0.071883,0.14794581 0.067593,0.16395425 0.00628,0.10462989 -0.2704643,0.30499998 -0.646818,0.3328366 -0.078472,0.004709 -0.2194088,0.0184178 -0.2169994,0.23353699 0.00199,0.12063833 0.1226279,0.11864874 0.1808023,0.12565817 0.2151192,-0.00240937 0.444677,-0.0266866 0.6597962,-0.02909597 l 1.3125829,-1.758e-5 c 0.2151192,-0.0024094 0.4478166,0.025628349 0.6527868,0.02907839 0.078472,-0.0047094 0.2151192,-0.002409367 0.2127098,-0.21752855 0.0023,-0.13664677 -0.1183383,-0.13465718 -0.2288276,-0.13852701 -0.7253998,-0.01422 -0.7445478,-0.0708245 -0.9441877,-0.51037234 L 5.8100648,-4.5845222 7.3450693,-6.2149916 c 0.1127893,-0.1327769 0.3949725,-0.4174788 0.4976128,-0.5443964 0.5136213,-0.5401067 0.9983653,-1.0364778 1.9822001,-1.0902708 0.1046299,-0.00628 0.2252678,-0.00827 0.2287188,-0.2132389 -0.002,-0.1206383 -0.1124794,-0.1245082 -0.1546453,-0.127228 -0.1729533,0.00513 -0.3560556,0.016118 -0.5188598,0.015388 l -0.5508767,0.00681 c -0.3939319,-0.00261 -0.8097316,-0.01966 -1.177506,-0.02384 -0.088621,0.010569 -0.2252682,0.00827 -0.2287182,0.213239 0.00199,0.1206383 0.086321,0.1260779 0.1546448,0.1272279 0.2006805,0.019458 0.3959214,0.1232488 0.4041902,0.348517 l -0.014439,0.021868 c -0.015589,0.090191 -0.045616,0.2022503 -0.1626949,0.3510357 z m 0,0"
         style="fill:#d33682;fill-opacity:1;fill-rule:nonzero;stroke:none"
         aria-label="X"
         transform="matrix(1.15468,0.66664,-0.66664,1.15468,378.2897,424.31887)" />
      <path
         id="path26"
         d="M 164.1126,-10.33716 135.99005,-59.04697"
         style="fill:none;stroke:#268bd2;stroke-width:1.59404;stroke-linecap:butt;stroke-linejoin:miter;stroke-miterlimit:10;stroke-dasharray:none;stroke-opacity:1"
         transform="matrix(1.3333333,0,0,-1.3333333,296.692,383.51733)" />
      <path
         id="path27"
         d="M 6.17612,0 2.21527,1.50777 3.54979,0 2.21527,-1.50777 Z"
         style="fill:#268bd2;fill-opacity:1;fill-rule:nonzero;stroke:#268bd2;stroke-width:1.37189;stroke-linecap:butt;stroke-linejoin:miter;stroke-miterlimit:10;stroke-dasharray:none;stroke-opacity:1"
         transform="matrix(-0.66664,1.15468,1.15468,0.66664,480.14988,458.54373)" />
      <path
         id="path28"
         d="M 5.6991063,-4.8722006 4.5754499,-7.4981885 c 0.139677,-0.2971509 0.5101712,-0.3351366 0.6511076,-0.348845 0.078472,-0.00471 0.2092598,-0.012558 0.2127098,-0.2175285 -0.00199,-0.1206384 -0.1124789,-0.1245082 -0.1808023,-0.1256582 -0.2151191,0.00241 -0.4505364,0.016538 -0.6656556,0.018947 l -0.6875234,0.00451 c -0.7355488,-0.00836 -1.2559784,-0.01913 -1.2719869,-0.02342 -0.094481,4.198e-4 -0.2151191,0.00241 -0.2127098,0.2175286 0.00199,0.1206383 0.1124789,0.1245082 0.2592747,0.1209488 0.7035319,-2.187e-4 0.7476874,0.1231394 0.8594361,0.4104518 l 1.4393345,3.3368397 -2.6055629,2.7762865 c -0.4281395,0.47722299 -0.9363211,0.93299793 -1.83153454,0.9762221 -0.15108541,0.0195678 -0.23541723,0.0141282 -0.23300786,0.22924738 -0.00272,0.04216591 0.00199,0.12063833 0.13863635,0.1229383556 C 0.60996989,0.00100836 0.7973618,-0.02598868 0.96016604,-0.02525845 l 0.56688516,-0.0025187 c 0.3779234,-0.0016791 0.7995825,0.02551901 1.1673569,0.02969928 0.094481,-4.1979e-4 0.2412767,-0.00397917 0.2388673,-0.21909835 -0.00199,-0.12063833 -0.092181,-0.13622699 -0.1605042,-0.137377 C 2.5299247,-0.37673153 2.37528,-0.5039595 2.3744404,-0.69292121 2.372031,-0.9080404 2.5109778,-1.0423871 2.866924,-1.4102709 L 3.9316231,-2.566237 c 0.2618852,-0.2729831 0.907024,-0.9837431 1.1646196,-1.2407178 l 1.2588427,2.95389642 c 0.017578,0.0304471 0.071883,0.14794581 0.067593,0.16395426 0.00628,0.10462988 -0.2704644,0.30499998 -0.646818,0.33283659 -0.078472,0.004709 -0.2194088,0.0184178 -0.2169994,0.23353699 0.00199,0.12063833 0.1226279,0.11864875 0.1808023,0.12565817 0.2151191,-0.002409366 0.444677,-0.02668659 0.6597962,-0.02909596 l 1.3125829,-1.758e-5 C 7.9271616,-0.02859531 8.159859,-5.575675e-4 8.3648292,0.00289248 8.4433012,-0.00181692 8.5799483,4.83106e-4 8.577539,-0.21463608 8.579839,-0.35128285 8.4592007,-0.34929326 8.3487114,-0.35316309 7.6233116,-0.36738309 7.6041636,-0.42398759 7.4045237,-0.86353543 L 5.8108549,-4.5848882 7.3458594,-6.2153575 c 0.1127893,-0.132777 0.3949725,-0.4174789 0.4976128,-0.5443964 0.5136213,-0.5401068 0.9983653,-1.0364778 1.9822001,-1.0902708 0.1046299,-0.00628 0.2252687,-0.00827 0.2287187,-0.213239 -0.002,-0.1206383 -0.1124793,-0.1245081 -0.1546452,-0.1272279 -0.1729533,0.00513 -0.3560556,0.016118 -0.5188598,0.015387 l -0.5508767,0.00681 c -0.3939319,-0.00261 -0.8097316,-0.01966 -1.177506,-0.02384 -0.088621,0.010569 -0.2252682,0.00827 -0.2287182,0.2132389 0.00199,0.1206384 0.086321,0.126078 0.1546448,0.127228 0.2006805,0.019459 0.3959214,0.1232488 0.4041902,0.348517 l -0.014439,0.021868 c -0.015589,0.090191 -0.045616,0.2022503 -0.1626949,0.3510357 z m 0,0"
         style="fill:#d33682;fill-opacity:1;fill-rule:nonzero;stroke:none"
         aria-label="X"
         transform="matrix(0.66664,-1.15468,1.15468,0.66664,486.59221,435.9263)" />
      <path
         id="path29"
         d="M 244.78412,-5.96806 141.40868,-65.65233"
         style="fill:none;stroke:#586e75;stroke-width:1.19553;stroke-linecap:butt;stroke-linejoin:miter;stroke-miterlimit:10;stroke-dasharray:none;stroke-opacity:1"
         transform="matrix(1.3333333,0,0,-1.3333333,296.692,383.51733)" />
      <path
         id="path30"
         d="M 5.08617,0 1.82423,1.24171 2.92336,0 1.82423,-1.24171 Z"
         style="fill:#586e75;fill-opacity:1;fill-rule:nonzero;stroke:#586e75;stroke-width:1.12978;stroke-linecap:butt;stroke-linejoin:miter;stroke-miterlimit:10;stroke-dasharray:none;stroke-opacity:1"
         transform="matrix(-1.15468,0.66664,0.66664,1.15468,488.28632,469.29321)" />
      <path
         id="path31"
         d="M 5.6951357,-4.8720142 4.5715496,-7.4963581 c 0.1539146,-0.2900322 0.5189692,-0.3363784 0.6513263,-0.3546869 0.078472,0.00471 0.2209786,-0.00774 0.2175286,-0.2127098 0.00199,-0.1206383 -0.1084997,-0.1167685 -0.1768231,-0.1156185 -0.2151192,-0.00241 -0.4419572,0.015479 -0.6570764,0.01307 l -0.6875235,-0.00451 c -0.7355487,0.00836 -1.2645576,-0.012886 -1.280566,-0.0086 -0.094481,-4.198e-4 -0.2151192,-0.00241 -0.2175286,0.2127098 -0.00199,0.1206383 0.1084997,0.1167685 0.2552955,0.1203279 0.7035319,2.187e-4 0.7640063,0.129856 0.8732363,0.4094287 l 1.427108,3.340854 -2.592454,2.7793558 c -0.4323372,0.46758553 -0.953296,0.92460226 -1.84306978,0.96570992 -0.14250618,0.0124491 -0.22683801,0.0178887 -0.22924738,0.23300787 0.00272,0.04216591 -0.00199,0.12063832 0.13465719,0.11833829422 C 0.60921697,-4.0634518e-4 0.79974848,-0.02572425 0.96255272,-0.02645448 l 0.56688518,0.0025187 c 0.3779234,0.0016791 0.7964429,0.02679593 1.1642173,0.02261566 0.094481,4.1978645e-4 0.2412767,0.00397917 0.243686,-0.21114001 C 2.9393308,-0.33309844 2.8405603,-0.34952667 2.772237,-0.34837665 2.5325301,-0.37851329 2.3818645,-0.49256198 2.382704,-0.68152369 2.3851134,-0.89664287 2.5194602,-1.0355897 2.8670458,-1.4032547 L 3.9449594,-2.567144 c 0.252685,-0.273604 0.8982612,-0.9699078 1.1552359,-1.2275034 l 1.2616933,2.9476524 c 0.014439,0.0218679 0.064764,0.14564578 0.069054,0.16165422 -0.00628,0.10462989 -0.2761227,0.3142001 -0.6556159,0.33867843 -0.078472,-0.004709 -0.2108296,0.0135991 -0.213239,0.22871825 -0.00199,0.12063833 0.1186488,0.12262791 0.1768231,0.11561849 C 5.95403,8.37558e-5 6.1867274,-0.02795396 6.4018466,-0.02554459 l 1.312583,1.758e-5 c 0.2151192,0.0024094 0.444677,0.0266866 0.6496471,0.02323655 0.078473,0.0047094 0.2151192,0.002409374 0.2175286,-0.21270981 -0.0023,-0.13664677 -0.1229384,-0.13863635 -0.2334277,-0.13476652 -0.7136809,-0.006078 -0.7468478,-0.0658223 -0.9454294,-0.51876805 L 5.8246637,-4.5807226 7.3450635,-6.2063381 c 0.1284874,-0.1287977 0.3928912,-0.4226998 0.5112295,-0.557357 0.5155191,-0.5413485 0.9958818,-1.0218029 1.9656978,-1.0843586 0.1163487,-0.014019 0.2369872,-0.012029 0.2335372,-0.2169995 0.002,-0.1206383 -0.1085,-0.1167684 -0.1506659,-0.1140486 -0.1729532,-0.00513 -0.3474763,0.015899 -0.5102805,0.016629 l -0.5508767,-0.00681 c -0.3939319,0.00261 -0.8183109,-0.012357 -1.1860852,-0.00818 -0.088621,-0.010569 -0.2252683,-0.00827 -0.2218182,0.1967014 -0.00199,0.1206383 0.070623,0.1354968 0.1389468,0.1343468 0.2092598,0.012558 0.4122403,0.1297466 0.4039715,0.3550149 l -0.00586,0.010149 c -0.016428,0.09877 -0.038716,0.2076899 -0.1629136,0.3524962 z m 0,0"
         style="fill:#d33682;fill-opacity:1;fill-rule:nonzero;stroke:none"
         aria-label="X"
         transform="matrix(1.15468,-0.66664,0.66664,1.15468,542.9062,431.44957)" />
      <path
         id="path32"
         d="M 73.1039,0 H 15.99057"
         style="fill:none;stroke:#586e75;stroke-width:1.19553;stroke-linecap:butt;stroke-linejoin:miter;stroke-miterlimit:10;stroke-dasharray:none;stroke-opacity:1"
         transform="matrix(1.3333333,0,0,-1.3333333,296.692,383.51733)" />
      <path
         id="path33"
         d="M 5.08617,0 1.82423,1.24171 2.92336,0 1.82423,-1.24171 Z"
         style="fill:#586e75;fill-opacity:1;fill-rule:nonzero;stroke:#586e75;stroke-width:1.12978;stroke-linecap:butt;stroke-linejoin:miter;stroke-miterlimit:10;stroke-dasharray:none;stroke-opacity:1"
         transform="matrix(-1.3333333,0,0,1.3333333,321.53397,383.51733)" />
      <path
         id="path34"
         d="m 3.4565938,-7.6874844 c 0,-0.28125 0,-0.2929687 -0.2460938,-0.2929687 -0.28125,0.328125 -0.8789062,0.7734375 -2.1210937,0.7734375 v 0.3398437 c 0.28125,0 0.8789062,0 1.5351562,-0.3046875 v 6.24609378 c 0,0.43359375 -0.035156,0.57421875 -1.0898437,0.57421875 h -0.375 V 1.5625e-5 C 1.4878438,-0.02342187 2.648,-0.02342187 3.0464375,-0.02342187 c 0.3984375,0 1.546875,0 1.875,0.023437495 V -0.35154687 h -0.375 c -1.0546875,0 -1.0898437,-0.140625 -1.0898437,-0.57421875 z m 0,0"
         style="fill:#d33682;fill-opacity:1;fill-rule:nonzero;stroke:none"
         aria-label="1"
         transform="matrix(1.3333333,0,0,1.3333333,349.46933,378.05467)" />
      <path
         id="path35"
         d="M 96.97694,0 H 153.2215"
         style="fill:none;stroke:#268bd2;stroke-width:1.59404;stroke-linecap:butt;stroke-linejoin:miter;stroke-miterlimit:10;stroke-dasharray:none;stroke-opacity:1"
         transform="matrix(1.3333333,0,0,-1.3333333,296.692,383.51733)" />
      <path
         id="path36"
         d="M 6.17612,0 2.21527,1.50777 3.54979,0 2.21527,-1.50777 Z"
         style="fill:#268bd2;fill-opacity:1;fill-rule:nonzero;stroke:#268bd2;stroke-width:1.37189;stroke-linecap:butt;stroke-linejoin:miter;stroke-miterlimit:10;stroke-dasharray:none;stroke-opacity:1"
         transform="matrix(1.3333333,0,0,-1.3333333,496.71155,383.51733)" />
      <path
         id="path37"
         d="m 3.4566328,-7.6867031 c 0,-0.28125 0,-0.2929688 -0.2460937,-0.2929688 -0.28125,0.328125 -0.8789063,0.7734375 -2.1210938,0.7734375 v 0.3398438 c 0.28125,0 0.8789063,0 1.5351563,-0.3046875 v 6.24609372 c 0,0.43359375 -0.035156,0.57421875 -1.0898438,0.57421875 h -0.375 V 7.96875e-4 c 0.328125,-0.023437505 1.4882813,-0.023437505 1.8867188,-0.023437505 0.3984375,0 1.546875,0 1.875,0.023437505 V -0.35076563 h -0.375 c -1.0546875,0 -1.0898438,-0.140625 -1.0898438,-0.57421875 z m 0,0"
         style="fill:#d33682;fill-opacity:1;fill-rule:nonzero;stroke:none"
         aria-label="1"
         transform="matrix(1.3333333,0,0,1.3333333,462.856,377.788)" />
      <path
         id="path38"
         d="M 243.18477,0 H 186.07143"
         style="fill:none;stroke:#586e75;stroke-width:1.19553;stroke-linecap:butt;stroke-linejoin:miter;stroke-miterlimit:10;stroke-dasharray:none;stroke-opacity:1"
         transform="matrix(1.3333333,0,0,-1.3333333,296.692,383.51733)" />
      <path
         id="path39"
         d="M 5.08617,0 1.82423,1.24171 2.92336,0 1.82423,-1.24171 Z"
         style="fill:#586e75;fill-opacity:1;fill-rule:nonzero;stroke:#586e75;stroke-width:1.12978;stroke-linecap:butt;stroke-linejoin:miter;stroke-miterlimit:10;stroke-dasharray:none;stroke-opacity:1"
         transform="matrix(-1.3333333,0,0,1.3333333,548.30848,383.51733)" />
      <path
         id="path40"
         d="m 5.1558281,-8.2157891 c 0,-0.1171875 -0.082031,-0.1171875 -0.1171875,-0.1171875 -0.1054687,0 -0.1171875,0.023437 -0.1640625,0.234375 l -0.65625,2.578125 c -0.035156,0.1523438 -0.046875,0.1640625 -0.058594,0.1757813 -0.011719,0.023437 -0.09375,0.035156 -0.1171875,0.035156 -1.96875,0.1757813 -3.48046877,1.7929688 -3.48046877,3.2929688 0,1.30078124 0.99609377,2.08593749 2.24999997,2.15624999 -0.1054687,0.375 -0.1875,0.76171875 -0.28125,1.13671871 -0.1640625,0.6328125 -0.2578125,1.03125 -0.2578125,1.078125 0,0.023437 0,0.09375 0.1171875,0.09375 0.035156,0 0.082031,0 0.1054688,-0.046875 0.023437,-0.023437 0.09375,-0.3164062 0.140625,-0.46875 L 3.0816094,0.13967969 c 2.0507812,-0.10546875 3.609375,-1.78124999 3.609375,-3.29296879 0,-1.21875 -0.9023438,-2.0742187 -2.2382813,-2.1679687 z m -0.7734375,3.140625 c 0.7851563,0.046875 1.5820313,0.4921875 1.5820313,1.6640625 0,1.359375 -0.9492188,3.15234379 -2.8242188,3.30468754 z M 2.8706719,-0.09469531 C 2.2847344,-0.12985156 1.3003594,-0.44625781 1.3003594,-1.7704766 c 0,-1.5117187 1.0898437,-3.1875 2.8125,-3.2929687 z m 0,0"
         style="fill:#d33682;fill-opacity:1;fill-rule:nonzero;stroke:none"
         aria-label="ϕ"
         transform="matrix(1.3333333,0,0,1.3333333,575.524,374.94267)" />
      <path
         id="path41"
         d="m 323.15366,0 c 0,6.2623 -5.07645,11.33876 -11.33876,11.33876 -6.2623,0 -11.33876,-5.07646 -11.33876,-11.33876 0,-6.2623 5.07646,-11.33876 11.33876,-11.33876 6.26231,0 11.33876,5.07646 11.33876,11.33876 z"
         style="fill:#eee8d5;fill-opacity:1;fill-rule:nonzero;stroke:#586e75;stroke-width:1.19553;stroke-linecap:butt;stroke-linejoin:miter;stroke-miterlimit:10;stroke-dasharray:none;stroke-opacity:1"
         transform="matrix(1.3333333,0,0,-1.3333333,296.692,383.51733)" />
      <path
         id="path42"
         d="m 3.6083984,-1.4299844 c -0.058594,0.2109375 -0.058594,0.234375 -0.2226562,0.45703127 -0.2695313,0.33984375 -0.796875,0.85546875 -1.359375,0.85546875 -0.4921875,0 -0.7617188,-0.4453125 -0.7617188,-1.16015622 0,-0.65625 0.3632813,-2.0039063 0.5976563,-2.5078125 0.4101562,-0.8320313 0.9726562,-1.265625 1.4414062,-1.265625 0.7851563,0 0.9375,0.984375 0.9375,1.078125 0,0.011719 -0.035156,0.1640625 -0.046875,0.1875 z m 0.7734375,-3.0703125 c -0.140625,-0.3164062 -0.4570312,-0.796875 -1.078125,-0.796875 -1.359375,0 -2.82421871,1.7578125 -2.82421871,3.5273438 0,1.19531247 0.69140621,1.88671872 1.51171871,1.88671872 0.65625,0 1.21875,-0.515625 1.5585938,-0.9140625 0.1171875,0.71484375 0.6796875,0.9140625 1.0429687,0.9140625 0.3632813,0 0.6445313,-0.2109375 0.8671875,-0.64453125 0.1875,-0.41015625 0.3632813,-1.13671877 0.3632813,-1.18359377 0,-0.070312 -0.046875,-0.1171875 -0.1289063,-0.1171875 -0.1054687,0 -0.1171875,0.058594 -0.1640625,0.2460938 -0.1757812,0.70312497 -0.4101562,1.46484372 -0.9023437,1.46484372 -0.3398438,0 -0.3632813,-0.31640625 -0.3632813,-0.55078125 0,-0.28125 0.035156,-0.41015627 0.140625,-0.87890627 0.082031,-0.3046875 0.140625,-0.5625 0.234375,-0.9140625 0.4453125,-1.8046875 0.5507813,-2.2265625 0.5507813,-2.3085937 0,-0.1640625 -0.1289063,-0.2929688 -0.3046875,-0.2929688 -0.3867188,0 -0.4804688,0.421875 -0.5039063,0.5625 z m 0,0"
         style="fill:#d33682;fill-opacity:1;fill-rule:nonzero;stroke:none"
         aria-label="a"
         transform="matrix(1.3333333,0,0,1.3333333,708.33333,386.96133)" />
      <path
         id="path43"
         d="m 408.19409,0 c 0,6.2623 -5.07646,11.33876 -11.33876,11.33876 -6.2623,0 -11.33876,-5.07646 -11.33876,-11.33876 0,-6.2623 5.07646,-11.33876 11.33876,-11.33876 6.2623,0 11.33876,5.07646 11.33876,11.33876 z"
         style="fill:#eee8d5;fill-opacity:1;fill-rule:nonzero;stroke:#586e75;stroke-width:1.19553;stroke-linecap:butt;stroke-linejoin:miter;stroke-miterlimit:10;stroke-dasharray:none;stroke-opacity:1"
         transform="matrix(1.3333333,0,0,-1.3333333,296.692,383.51733)" />
      <path
         id="path44"
         d="m 2.7763438,-8.0266797 c 0.011719,-0.046875 0.035156,-0.1171875 0.035156,-0.1757812 0,-0.1289063 -0.1289062,-0.1289063 -0.1523437,-0.1289063 -0.011719,0 -0.4453125,0.035156 -0.65625,0.058594 -0.1992188,0.011719 -0.3867188,0.046875 -0.5976563,0.058594 -0.2929687,0.023437 -0.375,0.035156 -0.375,0.2460938 0,0.1171875 0.1171875,0.1171875 0.2460938,0.1171875 0.609375,0 0.609375,0.1171875 0.609375,0.234375 0,0.082031 -0.09375,0.4335937 -0.1523438,0.6445312 l -0.28125,1.1484375 c -0.1171875,0.4804688 -0.80859375,3.2109375 -0.85546875,3.421875 -0.0585938,0.3046875 -0.0585938,0.5039063 -0.0585938,0.6679688 0,1.21874996 0.67968745,1.85156246 1.46484385,1.85156246 1.3945312,0 2.8359374,-1.78124996 2.8359374,-3.52734376 0,-1.1015625 -0.6328125,-1.8867187 -1.5234374,-1.8867187 -0.6328125,0 -1.1953125,0.515625 -1.4179689,0.7617187 z M 2.014625,-0.11652344 c -0.3867187,0 -0.8085937,-0.29296875 -0.8085937,-1.23046876 0,-0.3867187 0.035156,-0.6210937 0.2578125,-1.4648437 C 1.499,-2.9641797 1.6865,-3.7258984 1.733375,-3.8899609 c 0.035156,-0.09375 0.7382813,-1.1601563 1.5585938,-1.1601563 0.5273437,0 0.7617187,0.5273438 0.7617187,1.1484375 0,0.5742188 -0.3398437,1.9335938 -0.6328125,2.5546875 -0.3046875,0.65625001 -0.8554687,1.23046876 -1.40625,1.23046876 z m 0,0"
         style="fill:#d33682;fill-opacity:1;fill-rule:nonzero;stroke:none"
         aria-label="b"
         transform="matrix(1.3333333,0,0,1.3333333,822.50133,389.07333)" />
      <path
         id="path45"
         d="m 493.23453,0 c 0,6.2623 -5.07646,11.33876 -11.33876,11.33876 C 475.63345,11.33876 470.557,6.2623 470.557,0 c 0,-6.2623 5.07645,-11.33876 11.33877,-11.33876 6.2623,0 11.33876,5.07646 11.33876,11.33876 z"
         style="fill:#eee8d5;fill-opacity:1;fill-rule:nonzero;stroke:#586e75;stroke-width:1.19553;stroke-linecap:butt;stroke-linejoin:miter;stroke-miterlimit:10;stroke-dasharray:none;stroke-opacity:1"
         transform="matrix(1.3333333,0,0,-1.3333333,296.692,383.51733)" />
      <path
         id="path46"
         d="m 4.6872422,-4.5120156 c -0.2226563,0 -0.328125,0 -0.5039063,0.140625 -0.070312,0.058594 -0.1992187,0.2460937 -0.1992187,0.4335937 0,0.2460938 0.1757812,0.3867188 0.4101562,0.3867188 0.28125,0 0.609375,-0.2460938 0.609375,-0.7265625 0,-0.5742188 -0.5507812,-1.0195313 -1.3828125,-1.0195313 -1.5703125,0 -3.14062496,1.7226563 -3.14062496,3.421875 0,1.04296877 0.64453126,1.99218752 1.87499996,1.99218752 1.6289063,0 2.6601563,-1.26562502 2.6601563,-1.42968752 0,-0.070312 -0.070312,-0.1289062 -0.1171875,-0.1289062 -0.035156,0 -0.046875,0.011719 -0.1640625,0.1171875 -0.7617188,1.01953122 -1.8984375,1.20703122 -2.3554688,1.20703122 -0.8320312,0 -1.0898437,-0.7265625 -1.0898437,-1.32421872 0,-0.421875 0.1992187,-1.5820313 0.6328125,-2.4023438 0.3046875,-0.5625 0.9609375,-1.2070312 1.7109375,-1.2070312 0.1640625,0 0.8203125,0.023437 1.0546875,0.5390625 z m 0,0"
         style="fill:#d33682;fill-opacity:1;fill-rule:nonzero;stroke:none"
         aria-label="c"
         transform="matrix(1.3333333,0,0,1.3333333,935.848,386.96133)" />
      <path
         id="path47"
         d="m 578.27495,0 c 0,6.2623 -5.07646,11.33876 -11.33876,11.33876 -6.2623,0 -11.33876,-5.07646 -11.33876,-11.33876 0,-6.2623 5.07646,-11.33876 11.33876,-11.33876 6.2623,0 11.33876,5.07646 11.33876,11.33876 z"
         style="fill:#eee8d5;fill-opacity:1;fill-rule:nonzero;stroke:#586e75;stroke-width:1.19553;stroke-linecap:butt;stroke-linejoin:miter;stroke-miterlimit:10;stroke-dasharray:none;stroke-opacity:1"
         transform="matrix(1.3333333,0,0,-1.3333333,296.692,383.51733)" />
      <path
         id="path48"
         d="m 6.0345234,-8.0266797 c 0.011719,-0.046875 0.035156,-0.1171875 0.035156,-0.1757812 0,-0.1289063 -0.1171875,-0.1289063 -0.140625,-0.1289063 -0.011719,0 -0.5976563,0.046875 -0.65625,0.058594 -0.2109375,0.011719 -0.3867188,0.046875 -0.609375,0.058594 -0.2929688,0.023437 -0.375,0.035156 -0.375,0.2460938 0,0.1171875 0.09375,0.1171875 0.2578125,0.1171875 0.5859375,0 0.5976562,0.1171875 0.5976562,0.234375 0,0.070312 -0.023437,0.1640625 -0.035156,0.1992187 l -0.7265625,2.9179688 c -0.140625,-0.3164063 -0.4570313,-0.796875 -1.078125,-0.796875 -1.359375,0 -2.82421876,1.7578125 -2.82421876,3.5273437 0,1.19531251 0.69140626,1.88671876 1.51171876,1.88671876 0.65625,0 1.21875,-0.515625 1.5585937,-0.9140625 0.1171875,0.71484375 0.6796875,0.9140625 1.0429688,0.9140625 0.3632812,0 0.6445312,-0.2109375 0.8671875,-0.64453125 0.1875,-0.41015625 0.3632812,-1.13671871 0.3632812,-1.18359371 0,-0.070312 -0.046875,-0.1171875 -0.1289062,-0.1171875 -0.1054688,0 -0.1171875,0.058594 -0.1640625,0.2460937 -0.1757813,0.70312501 -0.4101563,1.46484376 -0.9023438,1.46484376 -0.3398437,0 -0.3632812,-0.31640625 -0.3632812,-0.55078125 0,-0.046875 0,-0.3046875 0.082031,-0.64453121 z m -2.4257812,6.5976563 c -0.058594,0.2109375 -0.058594,0.234375 -0.2226563,0.45703121 -0.2695312,0.33984375 -0.796875,0.85546875 -1.359375,0.85546875 -0.4921875,0 -0.7617187,-0.4453125 -0.7617187,-1.16015626 0,-0.65625 0.3632812,-2.0039062 0.5976562,-2.5078125 0.4101563,-0.8320312 0.9726563,-1.265625 1.4414063,-1.265625 0.7851562,0 0.9375,0.984375 0.9375,1.078125 0,0.011719 -0.035156,0.1640625 -0.046875,0.1875 z m 0,0"
         style="fill:#d33682;fill-opacity:1;fill-rule:nonzero;stroke:none"
         aria-label="d"
         transform="matrix(1.3333333,0,0,1.3333333,1048.536,389.07333)" />
      <path
         id="path49"
         d="m 450.7143,73.64735 c 0,6.26232 -5.07645,11.33876 -11.33877,11.33876 -6.26229,0 -11.33876,-5.07644 -11.33876,-11.33876 0,-6.26229 5.07647,-11.33875 11.33876,-11.33875 6.26232,0 11.33877,5.07646 11.33877,11.33875 z"
         style="fill:#eee8d5;fill-opacity:1;fill-rule:nonzero;stroke:#586e75;stroke-width:1.19553;stroke-linecap:butt;stroke-linejoin:miter;stroke-miterlimit:10;stroke-dasharray:none;stroke-opacity:1"
         transform="matrix(1.3333333,0,0,-1.3333333,296.692,383.51733)" />
      <path
         id="path50"
         d="m 2.7304219,-2.402125 c 0.2109375,0.035156 0.5390625,0.1054687 0.609375,0.1171875 0.1523437,0.058594 0.6914062,0.2460937 0.6914062,0.8203125 0,0.375 -0.3398437,1.34765625 -1.7226562,1.34765625 -0.2578125,0 -1.1601563,-0.0351563 -1.39453127,-0.703125 C 1.3944844,-0.7615 1.6288594,-1.1247813 1.6288594,-1.3943125 c 0,-0.2460938 -0.1640625,-0.3867188 -0.4101563,-0.3867188 -0.25781247,0 -0.60937497,0.2109375 -0.60937497,0.75 0,0.70312505 0.72656247,1.14843755 1.68749997,1.14843755 1.8164063,0 2.3554688,-1.33593755 2.3554688,-1.96875005 0,-0.1757812 0,-0.515625 -0.375,-0.890625 -0.3046875,-0.2929687 -0.5976563,-0.3515625 -1.2421875,-0.4804687 -0.328125,-0.082031 -0.84375,-0.1875 -0.84375,-0.7265625 0,-0.234375 0.2226562,-1.1015625 1.359375,-1.1015625 0.5039062,0 0.9960937,0.1875 1.1132812,0.6210937 -0.5273437,0 -0.5507812,0.4570313 -0.5507812,0.46875 0,0.2578125 0.234375,0.328125 0.3398437,0.328125 0.1640625,0 0.5039063,-0.140625 0.5039063,-0.6445312 0,-0.5039063 -0.4570313,-1.0195313 -1.3945313,-1.0195313 -1.5703125,0 -1.9921875,1.2421875 -1.9921875,1.734375 0,0.9140625 0.890625,1.1015625 1.1601563,1.1601563 z m 0,0"
         style="fill:#d33682;fill-opacity:1;fill-rule:nonzero;stroke:none"
         aria-label="s"
         transform="matrix(1.3333333,0,0,1.3333333,878.836,288.76533)" />
      <path
         id="path51"
         d="m 450.71431,-73.64735 c 0,6.26229 -5.07645,11.33875 -11.33876,11.33875 -6.2623,0 -11.33876,-5.07646 -11.33876,-11.33875 0,-6.26232 5.07646,-11.33876 11.33876,-11.33876 6.26231,0 11.33876,5.07644 11.33876,11.33876 z"
         style="fill:#eee8d5;fill-opacity:1;fill-rule:nonzero;stroke:#586e75;stroke-width:1.19553;stroke-linecap:butt;stroke-linejoin:miter;stroke-miterlimit:10;stroke-dasharray:none;stroke-opacity:1"
         transform="matrix(1.3333333,0,0,-1.3333333,296.692,383.51733)" />
      <path
         id="path52"
         d="m 2.4154766,-4.8295156 h 1.1015625 c 0.2226562,0 0.3515625,0 0.3515625,-0.2109375 0,-0.1289063 -0.070312,-0.1289063 -0.3164063,-0.1289063 H 2.4975078 l 0.4453125,-1.7578125 c 0.046875,-0.1640625 0.046875,-0.1875 0.046875,-0.2695312 0,-0.1992188 -0.1523437,-0.3046875 -0.3164062,-0.3046875 -0.09375,0 -0.3632813,0.035156 -0.46875,0.421875 l -0.46875,1.9101562 H 0.61078906 c -0.234375,0 -0.33984375,0 -0.33984375,0.2226563 0,0.1171875 0.0820313,0.1171875 0.3046875,0.1171875 H 1.6420391 l -0.78515629,3.1757812 c -0.09375,0.421875 -0.140625,0.5390625 -0.140625,0.69140628 0,0.5625 0.39843749,1.078125 1.07812499,1.078125 1.2070313,0 1.8515625,-1.74609378 1.8515625,-1.82812498 0,-0.082031 -0.046875,-0.1171875 -0.1171875,-0.1171875 -0.023437,0 -0.070312,0 -0.09375,0.046875 -0.011719,0.011719 -0.023437,0.023437 -0.1054687,0.2226562 -0.2578125,0.59765628 -0.8085938,1.44140628 -1.5,1.44140628 -0.3632813,0 -0.3867188,-0.3046875 -0.3867188,-0.5625 0,-0.0117188 0,-0.24609375 0.035156,-0.38671878 z m 0,0"
         style="fill:#d33682;fill-opacity:1;fill-rule:nonzero;stroke:none"
         aria-label="t"
         transform="matrix(1.3333333,0,0,1.3333333,879.69733,486.63467)" />
      <path
         id="path53"
         d="M 429.03838,67.67929 325.66293,7.99501"
         style="fill:none;stroke:#586e75;stroke-width:1.19553;stroke-linecap:butt;stroke-linejoin:miter;stroke-miterlimit:10;stroke-dasharray:none;stroke-opacity:1"
         transform="matrix(1.3333333,0,0,-1.3333333,296.692,383.51733)" />
      <path
         id="path54"
         d="M 5.08617,0 1.82423,1.24171 2.92336,0 1.82423,-1.24171 Z"
         style="fill:#586e75;fill-opacity:1;fill-rule:nonzero;stroke:#586e75;stroke-width:1.12978;stroke-linecap:butt;stroke-linejoin:miter;stroke-miterlimit:10;stroke-dasharray:none;stroke-opacity:1"
         transform="matrix(-1.15468,0.66664,0.66664,1.15468,733.95867,371.09675)" />
      <path
         id="path55"
         d="m 5.6934306,-4.8712485 -1.123586,-2.6243439 c 0.1539145,-0.2900322 0.5189691,-0.3363784 0.6513263,-0.3546868 0.078472,0.00471 0.2209786,-0.00774 0.2175285,-0.2127098 0.00199,-0.1206384 -0.1084997,-0.1167685 -0.1768231,-0.1156185 -0.2151192,-0.00241 -0.4419572,0.015479 -0.6570764,0.01307 l -0.6875234,-0.00451 c -0.7355488,0.00836 -1.2645576,-0.012886 -1.2805661,-0.0086 -0.094481,-4.198e-4 -0.2151192,-0.00241 -0.2175285,0.2127098 -0.00199,0.1206384 0.1084997,0.1167685 0.2552955,0.1203279 0.7035319,2.187e-4 0.7640063,0.129856 0.8732362,0.4094288 l 1.427108,3.340854 -2.5924539,2.7793557 c -0.4323373,0.46758556 -0.953296,0.92460229 -1.84306984,0.96570995 -0.14250618,0.0124491 -0.22683801,0.0178887 -0.22924738,0.23300787 0.00272,0.04216591 -0.00199,0.12063832 0.13465719,0.11833829 0.16280424,-7.3022616e-4 0.35333575,-0.02604813 0.51613999,-0.02677836 l 0.56688514,0.0025187 C 1.9056562,-0.02149085 2.3241757,0.0036259 2.6919501,-5.543698e-4 2.786431,-1.3458453e-4 2.9332268,0.0034248 2.9356362,-0.21169438 2.9376258,-0.33233271 2.8388553,-0.34876094 2.7705319,-0.34761092 2.530825,-0.37774756 2.3801594,-0.49179625 2.380999,-0.68075796 2.3834084,-0.89587714 2.5177551,-1.0348239 2.8653408,-1.402489 l 1.0779135,-1.1638893 c 0.252685,-0.273604 0.8982613,-0.9699078 1.1552359,-1.2275033 l 1.2616933,2.94765232 c 0.014439,0.0218679 0.064764,0.14564579 0.069054,0.16165423 -0.00628,0.10462988 -0.2761227,0.3142001 -0.6556159,0.33867843 -0.078472,-0.004709 -0.2108295,0.0135991 -0.2132389,0.22871825 -0.00199,0.12063833 0.1186487,0.12262791 0.1768231,0.11561848 0.2151192,0.002409375 0.4478166,-0.02562834 0.6629358,-0.02321897 l 1.3125829,1.758e-5 c 0.2151192,0.0024094 0.444677,0.0266866 0.6496472,0.02323655 0.078472,0.0047094 0.2151192,0.002409373 0.2175285,-0.21270981 -0.0023,-0.13664677 -0.1229383,-0.13863635 -0.2334276,-0.13476652 -0.713681,-0.006078 -0.7468479,-0.0658223 -0.9454295,-0.51876805 L 5.8229586,-4.5799569 7.3433585,-6.2055723 c 0.1284873,-0.1287978 0.3928912,-0.4226998 0.5112295,-0.557357 0.5155191,-0.5413486 0.9958817,-1.021803 1.9656977,-1.0843587 0.1163487,-0.014019 0.2369873,-0.012029 0.2335373,-0.2169994 0.002,-0.1206383 -0.1085,-0.1167685 -0.1506659,-0.1140487 -0.1729533,-0.00513 -0.3474764,0.015899 -0.5102806,0.016629 l -0.5508767,-0.00681 c -0.3939319,0.00261 -0.8183108,-0.012357 -1.1860852,-0.00818 -0.088621,-0.010569 -0.2252682,-0.00827 -0.2218182,0.1967013 -0.00199,0.1206384 0.070623,0.1354968 0.1389468,0.1343468 0.2092598,0.012558 0.4122404,0.1297467 0.4039716,0.3550149 l -0.00586,0.010149 c -0.016428,0.098771 -0.038716,0.20769 -0.1629136,0.3524962 z m 0,0"
         style="fill:#d33682;fill-opacity:1;fill-rule:nonzero;stroke:none"
         aria-label="X"
         transform="matrix(1.15468,-0.66664,0.66664,1.15468,788.57953,333.25223)" />
      <path
         id="path56"
         d="M 433.40729,63.3102 404.85036,13.84802"
         style="fill:none;stroke:#586e75;stroke-width:1.19553;stroke-linecap:butt;stroke-linejoin:miter;stroke-miterlimit:10;stroke-dasharray:none;stroke-opacity:1"
         transform="matrix(1.3333333,0,0,-1.3333333,296.692,383.51733)" />
      <path
         id="path57"
         d="M 5.08617,0 1.82423,1.24171 2.92336,0 1.82423,-1.24171 Z"
         style="fill:#586e75;fill-opacity:1;fill-rule:nonzero;stroke:#586e75;stroke-width:1.12978;stroke-linecap:butt;stroke-linejoin:miter;stroke-miterlimit:10;stroke-dasharray:none;stroke-opacity:1"
         transform="matrix(-0.66664,1.15468,1.15468,0.66664,838.25304,362.00388)" />
      <g
         id="g57"
         aria-label="1/X"
         transform="matrix(0.66664,-1.15468,1.15468,0.66664,861.82021,356.10897)">
        <path
           id="path58"
           d="m 3.4498478,-7.6885582 c -0.00126,-0.2834426 -0.00712,-0.2935916 -0.2483954,-0.2896124 -0.274754,0.3210084 -0.8832759,0.7670541 -2.1173865,0.7623623 l 0.010258,0.3459065 c 0.2732936,0.0046 0.8721956,0.010661 1.5307324,-0.3018779 l -0.00274,6.25331467 c 0.00482,0.43023836 -0.039647,0.56416532 -1.094945,0.56449334 l -0.3677744,-0.00418 1.093e-4,0.35176595 c 0.3240387,-0.02469701 1.4898259,-0.02115521 1.8837577,-0.01854474 0.4040809,-0.0032489 1.5437106,0.0018627 1.8810379,0.02362119 l -1.093e-4,-0.35176596 -0.3779234,0.001679 C 3.4911703,-0.35106835 3.4513044,-0.49043494 3.4464857,-0.9206733 Z M 11.019474,-8.564177 c 0.0589,-0.1557948 0.05734,-0.1819523 0.04991,-0.2182588 0.0066,-0.1526552 -0.10275,-0.2248484 -0.197231,-0.2244286 -0.146795,0.00356 -0.192831,0.1113288 -0.245876,0.2772727 L 6.5788136,2.5652676 c -0.064764,0.1456457 -0.063194,0.1718032 -0.061624,0.1979607 -0.0023,0.1366468 0.092601,0.2307078 0.2292473,0.2330079 0.1526553,0.00659 0.1869722,-0.1214779 0.2314381,-0.2554049 z m 0,0"
           style="fill:#d33682;fill-opacity:1;fill-rule:nonzero;stroke:none" />
        <path
           id="path59"
           d="m 17.44689,-4.8730224 -1.123656,-2.6259879 c 0.139677,-0.297151 0.510171,-0.3351366 0.651108,-0.3488451 0.07847,-0.00471 0.209259,-0.012558 0.212709,-0.2175285 -0.002,-0.1206383 -0.112479,-0.1245082 -0.180802,-0.1256582 -0.215119,0.00241 -0.450536,0.016538 -0.665656,0.018947 l -0.687523,0.00451 c -0.735549,-0.00836 -1.255978,-0.01913 -1.271987,-0.02342 -0.09448,4.198e-4 -0.215119,0.00241 -0.21271,0.2175285 0.002,0.1206384 0.112479,0.1245082 0.259275,0.1209488 0.703532,-2.187e-4 0.747687,0.1231395 0.859436,0.4104519 l 1.439335,3.3368396 -2.605563,2.7762865 c -0.42814,0.47722301 -0.936321,0.93299796 -1.831535,0.97622213 -0.151085,0.0195678 -0.235417,0.0141282 -0.233008,0.22924738 -0.0027,0.04216591 0.002,0.12063832 0.138637,0.122938352 0.162804,7.302294e-4 0.350196,-0.026266812 0.513,-0.025536582 l 0.566885,-0.0025187 c 0.377924,-0.0016791 0.799583,0.025519 1.167357,0.02969927 0.09448,-4.1978023e-4 0.241277,-0.00397917 0.238867,-0.21909835 -0.002,-0.12063832 -0.09218,-0.13622698 -0.160504,-0.137377 -0.242846,-0.0221783 -0.397491,-0.14940627 -0.398331,-0.33836798 -0.0024,-0.21511918 0.136538,-0.34946592 0.492484,-0.71734962 l 1.064699,-1.1559662 c 0.261885,-0.2729831 0.907024,-0.9837431 1.16462,-1.2407178 l 1.258842,2.95389646 c 0.01758,0.0304471 0.07188,0.14794581 0.06759,0.16395425 0.0063,0.10462989 -0.270465,0.30499998 -0.646818,0.3328366 -0.07847,0.004709 -0.219409,0.0184178 -0.217,0.23353699 0.002,0.12063833 0.122628,0.11864874 0.180802,0.12565817 0.21512,-0.00240937 0.444677,-0.0266866 0.659797,-0.02909597 l 1.312583,-1.758e-5 c 0.215119,-0.0024094 0.447816,0.02562835 0.652786,0.02907839 0.07847,-0.0047094 0.215119,-0.002409368 0.21271,-0.21752855 0.0023,-0.13664677 -0.118338,-0.13465718 -0.228827,-0.13852701 -0.7254,-0.01422 -0.744548,-0.0708245 -0.944188,-0.51037234 L 17.558639,-4.58571 19.093643,-6.2161794 c 0.11279,-0.1327769 0.394973,-0.4174789 0.497613,-0.5443964 0.513622,-0.5401068 0.998366,-1.0364778 1.9822,-1.0902708 0.10463,-0.00628 0.225269,-0.00827 0.228719,-0.2132389 -0.002,-0.1206384 -0.112479,-0.1245082 -0.154645,-0.127228 -0.172953,0.00513 -0.356056,0.016118 -0.51886,0.015388 l -0.550877,0.00681 c -0.393932,-0.00261 -0.809731,-0.01966 -1.177506,-0.02384 -0.08862,0.010569 -0.225268,0.00827 -0.228718,0.213239 0.002,0.1206383 0.08632,0.1260779 0.154645,0.1272279 0.20068,0.019459 0.395921,0.1232488 0.40419,0.348517 l -0.01444,0.021868 c -0.01559,0.090191 -0.04562,0.2022503 -0.162694,0.3510357 z m 0,0"
           style="fill:#d33682;fill-opacity:1;fill-rule:nonzero;stroke:none" />
      </g>
      <path
         id="path60"
         d="M 449.7127,67.67929 553.08817,7.99501"
         style="fill:none;stroke:#586e75;stroke-width:1.19553;stroke-linecap:butt;stroke-linejoin:miter;stroke-miterlimit:10;stroke-dasharray:none;stroke-opacity:1"
         transform="matrix(1.3333333,0,0,-1.3333333,296.692,383.51733)" />
      <path
         id="path61"
         d="M 5.08617,0 1.82423,1.24171 2.92336,0 1.82423,-1.24171 Z"
         style="fill:#586e75;fill-opacity:1;fill-rule:nonzero;stroke:#586e75;stroke-width:1.12978;stroke-linecap:butt;stroke-linejoin:miter;stroke-miterlimit:10;stroke-dasharray:none;stroke-opacity:1"
         transform="matrix(1.15468,0.66664,0.66664,-1.15468,1031.0935,371.09675)" />
      <path
         id="path62"
         d="M 5.6962634,-4.873437 4.572607,-7.4994249 c 0.139677,-0.297151 0.5101712,-0.3351367 0.6511076,-0.3488451 0.078472,-0.00471 0.2092598,-0.012558 0.2127098,-0.2175285 -0.00199,-0.1206383 -0.1124789,-0.1245082 -0.1808022,-0.1256582 -0.2151192,0.00241 -0.4505365,0.016538 -0.6656556,0.018947 l -0.6875235,0.00451 c -0.7355488,-0.00836 -1.2559784,-0.01913 -1.2719868,-0.02342 -0.094481,4.198e-4 -0.2151192,0.00241 -0.2127099,0.2175285 0.00199,0.1206383 0.1124789,0.1245082 0.2592747,0.1209488 0.7035319,-2.187e-4 0.7476874,0.1231395 0.8594361,0.4104518 l 1.4393345,3.3368397 -2.6055629,2.7762865 c -0.4281394,0.47722301 -0.9363211,0.93299795 -1.83153452,0.97622212 -0.15108541,0.0195678 -0.23541724,0.0141282 -0.23300787,0.22924738 -0.00272,0.04216591 0.00199,0.12063833 0.13863636,0.12293835671 C 0.60712701,-2.2811389e-4 0.79451892,-0.02722516 0.95732316,-0.02649493 L 1.5242083,-0.02901364 C 1.9021317,-0.03069278 2.3237909,-0.00349463 2.6915652,6.856397e-4 2.7860461,2.6585448e-4 2.9328419,-0.00329353 2.9304325,-0.21841271 2.9284429,-0.33905104 2.8382517,-0.3546397 2.7699283,-0.35578971 2.5270819,-0.37796801 2.3724371,-0.50519598 2.3715975,-0.69415769 2.3691881,-0.90927688 2.5081349,-1.0436236 2.8640812,-1.4115074 l 1.064699,-1.1559661 c 0.2618852,-0.2729831 0.907024,-0.9837431 1.1646196,-1.2407178 l 1.2588427,2.95389644 c 0.017578,0.0304471 0.071883,0.14794582 0.067593,0.16395426 0.00628,0.10462988 -0.2704643,0.30499998 -0.646818,0.33283659 -0.078472,0.004709 -0.2194088,0.0184178 -0.2169994,0.233537 0.00199,0.12063832 0.1226279,0.11864874 0.1808023,0.12565817 0.2151192,-0.002409375 0.444677,-0.0266866 0.6597962,-0.02909597 l 1.3125829,-1.758e-5 c 0.2151192,-0.0024094 0.4478166,0.02562834 0.6527868,0.02907839 0.078472,-0.0047094 0.2151192,-0.002409373 0.2127098,-0.21752856 0.0023,-0.13664676 -0.1183383,-0.13465718 -0.2288276,-0.13852701 -0.7253998,-0.01422 -0.7445478,-0.0708245 -0.9441877,-0.51037234 L 5.808012,-4.5861246 7.3430165,-6.216594 c 0.1127893,-0.1327769 0.3949725,-0.4174789 0.4976128,-0.5443964 0.5136213,-0.5401068 0.9983653,-1.0364778 1.9822002,-1.0902708 0.1046298,-0.00628 0.2252685,-0.00827 0.2287185,-0.2132389 -0.002,-0.1206384 -0.1124792,-0.1245082 -0.1546451,-0.127228 -0.1729533,0.00513 -0.3560556,0.016118 -0.5188598,0.015388 l -0.5508767,0.00681 c -0.3939318,-0.00261 -0.8097316,-0.01966 -1.177506,-0.02384 -0.088621,0.010569 -0.2252682,0.00827 -0.2287182,0.2132389 0.00199,0.1206384 0.086321,0.126078 0.1546448,0.127228 0.2006805,0.019459 0.3959214,0.1232488 0.4041902,0.348517 l -0.014439,0.021868 c -0.015589,0.090191 -0.045616,0.2022503 -0.1626949,0.3510357 z m 0,0"
         style="fill:#d33682;fill-opacity:1;fill-rule:nonzero;stroke:none"
         aria-label="X"
         transform="matrix(1.15468,0.66664,-0.66664,1.15468,964.12303,326.12287)" />
      <path
         id="path63"
         d="M 322.15207,-5.96806 425.52753,-65.65233"
         style="fill:none;stroke:#586e75;stroke-width:1.19553;stroke-linecap:butt;stroke-linejoin:miter;stroke-miterlimit:10;stroke-dasharray:none;stroke-opacity:1"
         transform="matrix(1.3333333,0,0,-1.3333333,296.692,383.51733)" />
      <path
         id="path64"
         d="M 5.08617,0 1.82423,1.24171 2.92336,0 1.82423,-1.24171 Z"
         style="fill:#586e75;fill-opacity:1;fill-rule:nonzero;stroke:#586e75;stroke-width:1.12978;stroke-linecap:butt;stroke-linejoin:miter;stroke-miterlimit:10;stroke-dasharray:none;stroke-opacity:1"
         transform="matrix(1.15468,0.66664,0.66664,-1.15468,861.01261,469.29321)" />
      <path
         id="path65"
         d="M 5.6986883,-4.8720495 4.5750319,-7.4980374 c 0.139677,-0.2971509 0.5101713,-0.3351366 0.6511076,-0.348845 0.078472,-0.00471 0.2092598,-0.012558 0.2127099,-0.2175285 -0.00199,-0.1206384 -0.1124789,-0.1245082 -0.1808023,-0.1256582 -0.2151192,0.00241 -0.4505364,0.016538 -0.6656556,0.018947 l -0.6875235,0.00451 c -0.7355488,-0.00836 -1.2559784,-0.01913 -1.2719868,-0.02342 -0.094481,4.198e-4 -0.2151192,0.00241 -0.2127098,0.2175286 0.00199,0.1206383 0.1124789,0.1245081 0.2592747,0.1209488 0.7035319,-2.187e-4 0.7476874,0.1231394 0.859436,0.4104518 l 1.4393345,3.3368397 -2.6055629,2.7762865 c -0.4281394,0.47722298 -0.9363211,0.93299792 -1.8315345,0.97622209 -0.15108541,0.0195678 -0.23541723,0.0141282 -0.23300786,0.22924738 -0.00272,0.04216591 0.00199,0.12063833 0.13863635,0.12293835687 C 0.60955193,0.00115946 0.79694384,-0.02583759 0.95974808,-0.02510736 l 0.56688512,-0.0025187 c 0.3779234,-0.0016791 0.7995826,0.02551901 1.167357,0.02969928 0.094481,-4.1979e-4 0.2412766,-0.00397917 0.2388673,-0.21909835 -0.00199,-0.12063833 -0.092181,-0.13622699 -0.1605043,-0.137377 C 2.5295068,-0.37658044 2.374862,-0.50380841 2.3740224,-0.69277012 2.371613,-0.90788931 2.5105598,-1.042236 2.8665061,-1.4101198 l 1.064699,-1.1559661 C 4.1930903,-2.839069 4.8382292,-3.549829 5.0958247,-3.8068037 l 1.2588427,2.95389641 c 0.017578,0.0304471 0.071883,0.14794582 0.067593,0.16395426 0.00628,0.10462988 -0.2704644,0.30499998 -0.646818,0.33283659 -0.078472,0.004709 -0.2194088,0.0184178 -0.2169995,0.233537 0.00199,0.12063832 0.1226279,0.11864874 0.1808023,0.12565817 0.2151192,-0.002409375 0.444677,-0.0266866 0.6597962,-0.02909597 l 1.3125829,-1.758e-5 C 7.9267435,-0.02844422 8.159441,-4.064762e-4 8.3644111,0.00304357 8.4428831,-0.00166583 8.5795303,6.34197e-4 8.5771209,-0.21448498 8.5794209,-0.35113175 8.4587826,-0.34914217 8.3482933,-0.353012 7.6228936,-0.367232 7.6037455,-0.4238365 7.4041057,-0.86338434 L 5.810437,-4.5847371 7.3454414,-6.2152064 c 0.1127893,-0.132777 0.3949725,-0.4174789 0.4976128,-0.5443964 0.5136213,-0.5401068 0.9983653,-1.0364778 1.9822002,-1.0902708 0.1046299,-0.00628 0.2252686,-0.00827 0.2287186,-0.213239 -0.002,-0.1206383 -0.1124792,-0.1245081 -0.1546452,-0.1272279 -0.1729532,0.00513 -0.3560555,0.016118 -0.5188598,0.015387 l -0.5508767,0.00681 c -0.3939318,-0.00261 -0.8097315,-0.01966 -1.1775059,-0.02384 -0.088621,0.010569 -0.2252683,0.00827 -0.2287183,0.2132389 0.00199,0.1206383 0.086321,0.126078 0.1546448,0.127228 0.2006805,0.019458 0.3959215,0.1232488 0.4041902,0.348517 l -0.014439,0.021868 c -0.015589,0.090191 -0.045616,0.2022503 -0.1626949,0.3510357 z m 0,0"
         style="fill:#d33682;fill-opacity:1;fill-rule:nonzero;stroke:none"
         aria-label="X"
         transform="matrix(1.15468,0.66664,-0.66664,1.15468,794.04303,424.31887)" />
      <path
         id="path66"
         d="M 475.9275,-10.33716 447.37057,-59.79933"
         style="fill:none;stroke:#586e75;stroke-width:1.19553;stroke-linecap:butt;stroke-linejoin:miter;stroke-miterlimit:10;stroke-dasharray:none;stroke-opacity:1"
         transform="matrix(1.3333333,0,0,-1.3333333,296.692,383.51733)" />
      <path
         id="path67"
         d="M 5.08617,0 1.82423,1.24171 2.92336,0 1.82423,-1.24171 Z"
         style="fill:#586e75;fill-opacity:1;fill-rule:nonzero;stroke:#586e75;stroke-width:1.12978;stroke-linecap:butt;stroke-linejoin:miter;stroke-miterlimit:10;stroke-dasharray:none;stroke-opacity:1"
         transform="matrix(-0.66664,1.15468,1.15468,0.66664,894.94668,460.20036)" />
      <g
         id="g67"
         aria-label="1/X"
         transform="matrix(0.66664,-1.15468,1.15468,0.66664,895.19487,440.8423)">
        <path
           id="path68"
           d="m 3.4492962,-7.6879511 c -0.00126,-0.2834425 -0.00712,-0.2935916 -0.2483954,-0.2896124 -0.274754,0.3210084 -0.8832759,0.7670541 -2.1173865,0.7623623 l 0.010258,0.3459066 c 0.2732936,0.0046 0.8721956,0.010661 1.5307324,-0.301878 l -0.00274,6.25331471 c 0.00482,0.43023836 -0.039647,0.56416532 -1.094945,0.56449334 l -0.3677744,-0.00418 1.093e-4,0.35176595 c 0.3240387,-0.02469701 1.4898259,-0.02115521 1.8837577,-0.01854474 0.4040809,-0.0032489 1.5437106,0.0018627 1.8810379,0.0236211854 L 4.92384,-0.35246838 4.5459166,-0.35078924 C 3.4906187,-0.35046121 3.4507528,-0.4898278 3.4459341,-0.92006616 Z m 7.5696268,-0.8756188 c 0.0589,-0.1557948 0.05733,-0.1819522 0.04991,-0.2182587 0.0066,-0.1526553 -0.102749,-0.2248485 -0.19723,-0.2244287 -0.146796,0.00356 -0.192832,0.1113289 -0.245877,0.2772727 L 6.578262,2.5658747 C 6.513498,2.7115205 6.515068,2.737678 6.516638,2.7638354 6.514338,2.9004822 6.609239,2.9945433 6.7458853,2.9968433 6.8985406,3.0034333 6.9328575,2.8753654 6.9773234,2.7414384 Z m 0,0"
           style="fill:#d33682;fill-opacity:1;fill-rule:nonzero;stroke:none" />
        <path
           id="path69"
           d="M 17.448876,-4.8738801 16.32522,-7.499868 c 0.139677,-0.297151 0.510171,-0.3351367 0.651107,-0.3488451 0.07847,-0.00471 0.20926,-0.012558 0.21271,-0.2175285 -0.002,-0.1206384 -0.112479,-0.1245082 -0.180802,-0.1256582 -0.215119,0.00241 -0.450537,0.016538 -0.665656,0.018947 l -0.687523,0.00451 c -0.735549,-0.00836 -1.255979,-0.01913 -1.271987,-0.02342 -0.09448,4.197e-4 -0.215119,0.00241 -0.21271,0.2175285 0.002,0.1206383 0.112479,0.1245082 0.259275,0.1209488 0.703532,-2.187e-4 0.747687,0.1231394 0.859436,0.4104518 l 1.439334,3.3368397 -2.605563,2.7762865 c -0.428139,0.477223 -0.936321,0.93299795 -1.831534,0.97622211 -0.151086,0.0195678 -0.235417,0.0141282 -0.233008,0.22924738 -0.0027,0.04216592 0.002,0.12063833 0.138636,0.12293836 0.162805,7.3022808e-4 0.350196,-0.02626681 0.513001,-0.02553658 l 0.566885,-0.0025187 c 0.377923,-0.0016791 0.799582,0.02551901 1.167357,0.0296992817 0.09448,-4.1978522e-4 0.241276,-0.003979172 0.238867,-0.2190983517 -0.002,-0.12063833 -0.09218,-0.13622698 -0.160504,-0.137377 -0.242847,-0.0221783 -0.397491,-0.14940627 -0.398331,-0.33836798 -0.0024,-0.21511918 0.136538,-0.34946592 0.492484,-0.71734972 l 1.064699,-1.1559661 c 0.261885,-0.2729831 0.907024,-0.9837431 1.164619,-1.2407178 l 1.258843,2.95389646 c 0.01758,0.0304471 0.07188,0.14794581 0.06759,0.16395425 0.0063,0.10462988 -0.270464,0.30499998 -0.646818,0.33283659 -0.07847,0.004709 -0.219409,0.0184178 -0.216999,0.233537 0.002,0.12063832 0.122628,0.11864874 0.180802,0.12565817 0.215119,-0.00240937 0.444677,-0.0266866 0.659796,-0.02909597 l 1.312583,-1.758e-5 c 0.215119,-0.0024094 0.447817,0.02562835 0.652787,0.02907839 0.07847,-0.0047094 0.215119,-0.00240937 0.21271,-0.21752855 0.0023,-0.13664677 -0.118339,-0.13465719 -0.228828,-0.13852702 -0.7254,-0.01422 -0.744548,-0.0708245 -0.944187,-0.51037234 l -1.593669,-3.7213528 1.535004,-1.6304693 c 0.112789,-0.1327769 0.394973,-0.4174789 0.497613,-0.5443964 0.513621,-0.5401068 0.998365,-1.0364778 1.9822,-1.0902708 0.10463,-0.00628 0.225268,-0.00827 0.228718,-0.2132389 -0.002,-0.1206384 -0.112479,-0.1245082 -0.154645,-0.127228 -0.172953,0.00513 -0.356055,0.016118 -0.518859,0.015388 l -0.550877,0.00681 c -0.393932,-0.00261 -0.809732,-0.01966 -1.177506,-0.02384 -0.08862,0.010569 -0.225268,0.00827 -0.228718,0.2132389 0.002,0.1206384 0.08632,0.126078 0.154645,0.127228 0.20068,0.019459 0.395921,0.1232488 0.40419,0.348517 l -0.01444,0.021868 c -0.01559,0.090191 -0.04562,0.2022503 -0.162695,0.3510357 z m 0,0"
           style="fill:#d33682;fill-opacity:1;fill-rule:nonzero;stroke:none" />
      </g>
      <path
         id="path70"
         d="M 556.59903,-5.96806 453.22359,-65.65233"
         style="fill:none;stroke:#586e75;stroke-width:1.19553;stroke-linecap:butt;stroke-linejoin:miter;stroke-miterlimit:10;stroke-dasharray:none;stroke-opacity:1"
         transform="matrix(1.3333333,0,0,-1.3333333,296.692,383.51733)" />
      <path
         id="path71"
         d="M 5.08617,0 1.82423,1.24171 2.92336,0 1.82423,-1.24171 Z"
         style="fill:#586e75;fill-opacity:1;fill-rule:nonzero;stroke:#586e75;stroke-width:1.12978;stroke-linecap:butt;stroke-linejoin:miter;stroke-miterlimit:10;stroke-dasharray:none;stroke-opacity:1"
         transform="matrix(-1.15468,0.66664,0.66664,1.15468,904.03953,469.29321)" />
      <path
         id="path72"
         d="m 5.6955078,-4.8717993 -1.123586,-2.6243439 c 0.1539145,-0.2900323 0.5189691,-0.3363784 0.6513263,-0.3546869 0.078472,0.00471 0.2209786,-0.00774 0.2175285,-0.2127098 0.00199,-0.1206384 -0.1084997,-0.1167685 -0.1768231,-0.1156185 -0.2151192,-0.00241 -0.4419572,0.015479 -0.6570764,0.01307 l -0.6875234,-0.00451 c -0.7355488,0.00836 -1.2645576,-0.012886 -1.2805661,-0.0086 -0.094481,-4.198e-4 -0.2151192,-0.00241 -0.2175285,0.2127098 -0.00199,0.1206384 0.1084997,0.1167685 0.2552955,0.1203279 0.7035319,2.187e-4 0.7640063,0.1298561 0.8732362,0.4094288 l 1.427108,3.340854 -2.5924539,2.7793557 c -0.4323373,0.46758558 -0.953296,0.9246023 -1.84306985,0.96570996 -0.14250618,0.0124491 -0.22683801,0.0178887 -0.22924738,0.23300787 0.00272,0.04216592 -0.00199,0.12063833 0.13465719,0.1183382994 C 0.6095891,-1.915e-4 0.80012061,-0.0255094 0.96292485,-0.02623963 L 1.52981,-0.02372092 c 0.3779234,0.0016791 0.7964429,0.02679594 1.1642173,0.02261567 0.094481,4.1978163e-4 0.2412767,0.00397917 0.2436861,-0.21114002 0.00199,-0.12063832 -0.096781,-0.13706655 -0.1651043,-0.13591654 C 2.5329022,-0.37829845 2.3822366,-0.49234713 2.3830762,-0.68130884 2.3854855,-0.89642802 2.5198323,-1.0353748 2.867418,-1.4030399 l 1.0779135,-1.1638893 c 0.252685,-0.273604 0.8982613,-0.9699078 1.1552359,-1.2275033 l 1.2616933,2.94765234 c 0.014439,0.0218679 0.064764,0.14564578 0.069054,0.16165423 -0.00628,0.10462988 -0.2761227,0.31420009 -0.6556159,0.33867842 -0.078472,-0.004709 -0.2108296,0.0135991 -0.2132389,0.22871826 -0.00199,0.12063832 0.1186487,0.12262791 0.1768231,0.11561848 0.2151192,0.002409371 0.4478166,-0.02562834 0.6629358,-0.02321897 l 1.3125829,1.758e-5 c 0.2151192,0.0024094 0.444677,0.02668659 0.6496472,0.02323655 0.078472,0.0047094 0.2151192,0.002409369 0.2175285,-0.21270981 -0.0023,-0.13664677 -0.1229383,-0.13863636 -0.2334276,-0.13476653 -0.713681,-0.006078 -0.7468479,-0.0658223 -0.9454295,-0.51876804 L 5.8250358,-4.5805078 7.3454357,-6.2061232 C 7.473923,-6.334921 7.7383269,-6.628823 7.8566652,-6.7634802 8.3721843,-7.3048288 8.8525469,-7.7852831 9.8223629,-7.8478389 9.9387116,-7.8618577 10.05935,-7.8598682 10.0559,-8.0648383 10.0579,-8.1854766 9.9474002,-8.1816068 9.9052343,-8.178887 9.732281,-8.184017 9.5577579,-8.162988 9.3949537,-8.162258 L 8.844077,-8.169066 c -0.3939319,0.00261 -0.8183108,-0.012357 -1.1860852,-0.00818 -0.088621,-0.010569 -0.2252682,-0.00827 -0.2218182,0.1967014 -0.00199,0.1206383 0.070623,0.1354967 0.1389468,0.1343467 0.2092598,0.012558 0.4122404,0.1297467 0.4039716,0.3550149 l -0.00586,0.010149 c -0.016428,0.09877 -0.038716,0.20769 -0.1629136,0.3524962 z m 0,0"
         style="fill:#d33682;fill-opacity:1;fill-rule:nonzero;stroke:none"
         aria-label="X"
         transform="matrix(1.15468,-0.66664,0.66664,1.15468,958.65953,431.44957)" />
      <path
         id="path73"
         d="M 384.91881,0 H 327.80548"
         style="fill:none;stroke:#586e75;stroke-width:1.19553;stroke-linecap:butt;stroke-linejoin:miter;stroke-miterlimit:10;stroke-dasharray:none;stroke-opacity:1"
         transform="matrix(1.3333333,0,0,-1.3333333,296.692,383.51733)" />
      <path
         id="path74"
         d="M 5.08617,0 1.82423,1.24171 2.92336,0 1.82423,-1.24171 Z"
         style="fill:#586e75;fill-opacity:1;fill-rule:nonzero;stroke:#586e75;stroke-width:1.12978;stroke-linecap:butt;stroke-linejoin:miter;stroke-miterlimit:10;stroke-dasharray:none;stroke-opacity:1"
         transform="matrix(-1.3333333,0,0,1.3333333,737.2872,383.51733)" />
      <path
         id="path75"
         d="m 3.4570234,-7.6874844 c 0,-0.28125 0,-0.2929687 -0.2460937,-0.2929687 -0.28125,0.328125 -0.8789063,0.7734375 -2.1210938,0.7734375 v 0.3398437 c 0.28125,0 0.8789063,0 1.5351563,-0.3046875 v 6.24609378 c 0,0.43359375 -0.035156,0.57421875 -1.0898438,0.57421875 h -0.375 V 1.5625e-5 c 0.328125,-0.023437495 1.4882813,-0.023437495 1.8867188,-0.023437495 0.3984375,0 1.546875,0 1.875,0.023437495 V -0.35154687 h -0.375 c -1.0546875,0 -1.0898438,-0.140625 -1.0898438,-0.57421875 z m 0,0"
         style="fill:#d33682;fill-opacity:1;fill-rule:nonzero;stroke:none"
         aria-label="1"
         transform="matrix(1.3333333,0,0,1.3333333,765.22267,378.05467)" />
      <path
         id="path76"
         d="m 408.79185,0 h 57.11333"
         style="fill:none;stroke:#586e75;stroke-width:1.19553;stroke-linecap:butt;stroke-linejoin:miter;stroke-miterlimit:10;stroke-dasharray:none;stroke-opacity:1"
         transform="matrix(1.3333333,0,0,-1.3333333,296.692,383.51733)" />
      <path
         id="path77"
         d="M 5.08617,0 1.82423,1.24171 2.92336,0 1.82423,-1.24171 Z"
         style="fill:#586e75;fill-opacity:1;fill-rule:nonzero;stroke:#586e75;stroke-width:1.12978;stroke-linecap:butt;stroke-linejoin:miter;stroke-miterlimit:10;stroke-dasharray:none;stroke-opacity:1"
         transform="matrix(1.3333333,0,0,-1.3333333,914.37769,383.51733)" />
      <path
         id="path78"
         d="m 3.4580391,-7.6874844 c 0,-0.28125 0,-0.2929687 -0.2460938,-0.2929687 -0.28125,0.328125 -0.8789062,0.7734375 -2.1210937,0.7734375 v 0.3398437 c 0.28125,0 0.8789062,0 1.5351562,-0.3046875 v 6.24609378 c 0,0.43359375 -0.035156,0.57421875 -1.0898437,0.57421875 h -0.375 V 1.5625e-5 c 0.328125,-0.023437495 1.4882812,-0.023437495 1.8867187,-0.023437495 0.3984375,0 1.546875,0 1.875,0.023437495 V -0.35154687 h -0.375 c -1.0546875,0 -1.0898437,-0.140625 -1.0898437,-0.57421875 z m 7.5673829,-0.8789062 c 0.05859,-0.1523438 0.05859,-0.1757813 0.05859,-0.2109375 0,-0.1523438 -0.117188,-0.2226563 -0.210938,-0.2226563 -0.152344,0 -0.1875,0.1054688 -0.246094,0.2695313 L 6.5722969,2.5664219 c -0.058594,0.1523437 -0.058594,0.1757812 -0.058594,0.2109375 0,0.1289062 0.09375,0.2226562 0.234375,0.2226562 0.1523438,0 0.1875,-0.1171875 0.234375,-0.2578125 z m 4.168945,0.8789062 c 0,-0.28125 0,-0.2929687 -0.246094,-0.2929687 -0.28125,0.328125 -0.878906,0.7734375 -2.121093,0.7734375 v 0.3398437 c 0.28125,0 0.878906,0 1.535156,-0.3046875 v 6.24609378 c 0,0.43359375 -0.03516,0.57421875 -1.089844,0.57421875 h -0.375 V 1.5625e-5 c 0.328125,-0.023437495 1.488281,-0.023437495 1.886719,-0.023437495 0.398437,0 1.546875,0 1.875,0.023437495 V -0.35154687 h -0.375 c -1.054688,0 -1.089844,-0.140625 -1.089844,-0.57421875 z m 0,0"
         style="fill:#d33682;fill-opacity:1;fill-rule:nonzero;stroke:none"
         aria-label="1/1"
         transform="matrix(1.3333333,0,0,1.3333333,870.776,374.05467)" />
      <path
         id="path79"
         d="M 554.99968,0 H 497.88634"
         style="fill:none;stroke:#586e75;stroke-width:1.19553;stroke-linecap:butt;stroke-linejoin:miter;stroke-miterlimit:10;stroke-dasharray:none;stroke-opacity:1"
         transform="matrix(1.3333333,0,0,-1.3333333,296.692,383.51733)" />
      <path
         id="path80"
         d="M 5.08617,0 1.82423,1.24171 2.92336,0 1.82423,-1.24171 Z"
         style="fill:#586e75;fill-opacity:1;fill-rule:nonzero;stroke:#586e75;stroke-width:1.12978;stroke-linecap:butt;stroke-linejoin:miter;stroke-miterlimit:10;stroke-dasharray:none;stroke-opacity:1"
         transform="matrix(-1.3333333,0,0,1.3333333,964.06167,383.51733)" />
      <path
         id="path81"
         d="m 5.1562578,-8.2157891 c 0,-0.1171875 -0.082031,-0.1171875 -0.1171875,-0.1171875 -0.1054687,0 -0.1171875,0.023437 -0.1640625,0.234375 l -0.65625,2.578125 c -0.035156,0.1523438 -0.046875,0.1640625 -0.058594,0.1757813 -0.011719,0.023437 -0.09375,0.035156 -0.1171875,0.035156 -1.96875,0.1757813 -3.48046879,1.7929688 -3.48046879,3.2929688 0,1.30078124 0.99609379,2.08593749 2.24999999,2.15624999 -0.1054687,0.375 -0.1875,0.76171875 -0.28125,1.13671871 -0.1640625,0.6328125 -0.2578125,1.03125 -0.2578125,1.078125 0,0.023437 0,0.09375 0.1171875,0.09375 0.035156,0 0.082031,0 0.1054688,-0.046875 0.023437,-0.023437 0.09375,-0.3164062 0.140625,-0.46875 L 3.0820391,0.13967969 c 2.0507812,-0.10546875 3.609375,-1.78124999 3.609375,-3.29296879 0,-1.21875 -0.9023438,-2.0742187 -2.2382813,-2.1679687 z m -0.7734375,3.140625 c 0.7851563,0.046875 1.5820313,0.4921875 1.5820313,1.6640625 0,1.359375 -0.9492188,3.15234379 -2.8242188,3.30468754 z M 2.8711016,-0.09469531 C 2.2851641,-0.12985156 1.3007891,-0.44625781 1.3007891,-1.7704766 c 0,-1.5117187 1.0898437,-3.1875 2.8125,-3.2929687 z m 0,0"
         style="fill:#d33682;fill-opacity:1;fill-rule:nonzero;stroke:none"
         aria-label="ϕ"
         transform="matrix(1.3333333,0,0,1.3333333,991.27733,374.94267)" />
    </g>
  </g>
</svg>
