<?xml version="1.0" encoding="UTF-8" standalone="no"?>
<!-- Created with Inkscape (http://www.inkscape.org/) -->

<svg
   version="1.1"
   id="svg1"
   width="659.14252"
   height="194.36041"
   viewBox="0 0 659.14251 194.36041"
   sodipodi:docname="max-flow-vertex-disjoint.svg"
   inkscape:version="1.4 (e7c3feb100, 2024-10-09)"
   xmlns:inkscape="http://www.inkscape.org/namespaces/inkscape"
   xmlns:sodipodi="http://sodipodi.sourceforge.net/DTD/sodipodi-0.dtd"
   xmlns="http://www.w3.org/2000/svg"
   xmlns:svg="http://www.w3.org/2000/svg">
  <defs
     id="defs1" />
  <sodipodi:namedview
     id="namedview1"
     pagecolor="#ffffff"
     bordercolor="#666666"
     borderopacity="1.0"
     inkscape:showpageshadow="2"
     inkscape:pageopacity="0.0"
     inkscape:pagecheckerboard="0"
     inkscape:deskcolor="#d1d1d1"
     inkscape:zoom="0.8841713"
     inkscape:cx="104.05224"
     inkscape:cy="281.05414"
     inkscape:window-width="3840"
     inkscape:window-height="2346"
     inkscape:window-x="0"
     inkscape:window-y="54"
     inkscape:window-maximized="1"
     inkscape:current-layer="g1">
    <inkscape:page
       x="0"
       y="0"
       inkscape:label="1"
       id="page1"
       width="659.14252"
       height="194.36041"
       margin="0"
       bleed="0" />
  </sodipodi:namedview>
  <g
     id="g1"
     inkscape:groupmode="layer"
     inkscape:label="1"
     transform="translate(-345.07786,-571.77272)">
    <g
       id="g169">
      <path
         id="path84"
         d="m 9.10585,-226.77448 c 0,5.0291 -4.07677,9.10587 -9.10585,9.10587 -5.02908,0 -9.10585,-4.07677 -9.10585,-9.10587 0,-5.02908 4.07677,-9.10586 9.10585,-9.10586 5.02908,0 9.10585,4.07678 9.10585,9.10586 z"
         style="fill:#eee8d5;fill-opacity:1;fill-rule:nonzero;stroke:#586e75;stroke-width:1.19553;stroke-linecap:butt;stroke-linejoin:miter;stroke-miterlimit:10;stroke-dasharray:none;stroke-opacity:1"
         transform="matrix(1.3333333,0,0,-1.3333333,358.016,366.58667)" />
      <path
         id="path85"
         d="m 4.9689688,-4.7227969 c -0.3984375,0.1523438 -0.5039063,0.515625 -0.5039063,0.6796875 0,0.3164063 0.2460938,0.4921875 0.515625,0.4921875 0.2929688,0 0.7265625,-0.2460937 0.7265625,-0.8203125 0,-0.6328125 -0.6328125,-1.0546875 -1.7109375,-1.0546875 -0.3515625,0 -1.0195312,0.023437 -1.5703125,0.4453125 -0.5390625,0.4101563 -0.7382812,1.1015625 -0.7382812,1.40625 0,0.3632813 0.1757812,0.6914063 0.4335937,0.9140625 0.3398438,0.2578125 0.5390625,0.2929688 1.359375,0.4570313 0.3632813,0.058594 1.078125,0.1875 1.078125,0.7265625 0,0.046875 0,1.13671872 -1.78125,1.13671872 -0.5976562,0 -1.0429687,-0.1171875 -1.3007812,-0.3046875 0.4101562,-0.12890625 0.65625,-0.46875002 0.65625,-0.83203122 0,-0.4335938 -0.3398438,-0.5507813 -0.5859375,-0.5507813 -0.4101563,0 -0.86718755,0.3398438 -0.86718755,0.9375 0,0.77343752 0.84375005,1.18359377 2.06250005,1.18359377 2.7421875,0 2.7421875,-2.05078127 2.7421875,-2.06249997 0,-0.4101563 -0.1992188,-0.7265625 -0.4804688,-0.9726563 -0.375,-0.328125 -0.8320312,-0.4101562 -1.2421875,-0.4804687 -0.6679687,-0.1171875 -1.1367187,-0.1992188 -1.1367187,-0.6445313 0,-0.023437 0,-0.9257812 1.3476562,-0.9257812 0.234375,0 0.6679688,0.023437 0.9960938,0.2695312 z m 0,0"
         style="fill:#d33682;fill-opacity:1;fill-rule:nonzero;stroke:none"
         aria-label="s"
         transform="matrix(1.3333333,0,0,1.3333333,353.76533,672.508)" />
      <path
         id="path86"
         d="m 54.048,-198.42766 c 0,2.73371 -2.21606,4.94977 -4.94976,4.94977 -2.73372,0 -4.94977,-2.21606 -4.94977,-4.94977 0,-2.73372 2.21605,-4.94977 4.94977,-4.94977 2.7337,0 4.94976,2.21605 4.94976,4.94977 z"
         style="fill:#eee8d5;fill-opacity:1;fill-rule:nonzero;stroke:#586e75;stroke-width:1.19553;stroke-linecap:butt;stroke-linejoin:miter;stroke-miterlimit:10;stroke-dasharray:none;stroke-opacity:1"
         transform="matrix(1.3333333,0,0,-1.3333333,358.016,366.58667)" />
      <path
         id="path87"
         d="m 54.048,-255.12128 c 0,2.73371 -2.21606,4.94976 -4.94976,4.94976 -2.73372,0 -4.94977,-2.21605 -4.94977,-4.94976 0,-2.73372 2.21605,-4.94976 4.94977,-4.94976 2.7337,0 4.94976,2.21604 4.94976,4.94976 z"
         style="fill:#eee8d5;fill-opacity:1;fill-rule:nonzero;stroke:#586e75;stroke-width:1.19553;stroke-linecap:butt;stroke-linejoin:miter;stroke-miterlimit:10;stroke-dasharray:none;stroke-opacity:1"
         transform="matrix(1.3333333,0,0,-1.3333333,358.016,366.58667)" />
      <path
         id="path88"
         d="m 110.74162,-198.42766 c 0,2.73371 -2.21606,4.94977 -4.94977,4.94977 -2.73371,0 -4.94976,-2.21606 -4.94976,-4.94977 0,-2.73372 2.21605,-4.94977 4.94976,-4.94977 2.73371,0 4.94977,2.21605 4.94977,4.94977 z"
         style="fill:#eee8d5;fill-opacity:1;fill-rule:nonzero;stroke:#586e75;stroke-width:1.19553;stroke-linecap:butt;stroke-linejoin:miter;stroke-miterlimit:10;stroke-dasharray:none;stroke-opacity:1"
         transform="matrix(1.3333333,0,0,-1.3333333,358.016,366.58667)" />
      <path
         id="path89"
         d="m 110.74162,-255.12128 c 0,2.73371 -2.21606,4.94976 -4.94977,4.94976 -2.73371,0 -4.94976,-2.21605 -4.94976,-4.94976 0,-2.73372 2.21605,-4.94976 4.94976,-4.94976 2.73371,0 4.94977,2.21604 4.94977,4.94976 z"
         style="fill:#eee8d5;fill-opacity:1;fill-rule:nonzero;stroke:#586e75;stroke-width:1.19553;stroke-linecap:butt;stroke-linejoin:miter;stroke-miterlimit:10;stroke-dasharray:none;stroke-opacity:1"
         transform="matrix(1.3333333,0,0,-1.3333333,358.016,366.58667)" />
      <path
         id="path90"
         d="m 164.34038,-226.77448 c 0,5.21932 -4.23098,9.45029 -9.45029,9.45029 -5.21931,0 -9.45027,-4.23097 -9.45027,-9.45029 0,-5.21929 4.23096,-9.45027 9.45027,-9.45027 5.21931,0 9.45029,4.23098 9.45029,9.45027 z"
         style="fill:#eee8d5;fill-opacity:1;fill-rule:nonzero;stroke:#586e75;stroke-width:1.19553;stroke-linecap:butt;stroke-linejoin:miter;stroke-miterlimit:10;stroke-dasharray:none;stroke-opacity:1"
         transform="matrix(1.3333333,0,0,-1.3333333,358.016,366.58667)" />
      <path
         id="path91"
         d="m 3.0245703,-4.7700937 h 1.0664063 c 0.2460937,0 0.2695312,0 0.328125,-0.058594 0.070312,-0.046875 0.1054687,-0.2109375 0.1054687,-0.28125 0,-0.2226562 -0.1992187,-0.2226562 -0.3984375,-0.2226562 H 3.1651953 l 0.3867188,-1.546875 c 0.046875,-0.1875 0.046875,-0.2578125 0.046875,-0.3046875 0,-0.3867188 -0.3046875,-0.5273438 -0.5625,-0.5273438 -0.1757813,0 -0.5039063,0.082031 -0.6914063,0.4101563 -0.046875,0.1054687 -0.1992187,0.65625 -0.28125,0.984375 l -0.234375,0.984375 H 0.73941406 c -0.234375,0 -0.43359375,0 -0.43359375,0.3515625 0,0.2109375 0.1875,0.2109375 0.3984375,0.2109375 H 1.6769141 l -0.67968754,2.7421875 c -0.0820313,0.3164062 -0.19921875,0.8203125 -0.19921875,0.9492187 0,0.7734375 0.76171879,1.171875 1.51171879,1.171875 1.4179687,0 2.2382812,-1.6640625 2.2382812,-1.875 0,-0.1640625 -0.1757812,-0.1640625 -0.28125,-0.1640625 -0.2109375,0 -0.2226562,0.011719 -0.3046875,0.1875 -0.4570312,1.04296875 -1.125,1.41796875 -1.59375,1.41796875 -0.1054687,0 -0.2929687,0 -0.2929687,-0.4453125 0,-0.22265625 0.035156,-0.35156245 0.070312,-0.51562495 z m 0,0"
         style="fill:#d33682;fill-opacity:1;fill-rule:nonzero;stroke:none"
         aria-label="t"
         transform="matrix(1.3333333,0,0,1.3333333,561.21333,674.032)" />
      <path
         id="path92"
         d="m 8.40344,-221.92282 31.62734,18.26016"
         style="fill:none;stroke:#268bd2;stroke-width:1.59404;stroke-linecap:butt;stroke-linejoin:miter;stroke-miterlimit:10;stroke-dasharray:none;stroke-opacity:1"
         transform="matrix(1.3333333,0,0,-1.3333333,358.016,366.58667)" />
      <path
         id="path93"
         d="M 6.17612,0 2.21527,1.50777 3.54979,0 2.21527,-1.50777 Z"
         style="fill:#268bd2;fill-opacity:1;fill-rule:nonzero;stroke:#268bd2;stroke-width:1.37189;stroke-linecap:butt;stroke-linejoin:miter;stroke-miterlimit:10;stroke-dasharray:none;stroke-opacity:1"
         transform="matrix(1.15468,-0.66664,-0.66664,-1.15468,407.68751,640.27469)" />
      <path
         id="path94"
         d="m 8.40344,-231.62613 31.62734,-18.26015"
         style="fill:none;stroke:#268bd2;stroke-width:1.59404;stroke-linecap:butt;stroke-linejoin:miter;stroke-miterlimit:10;stroke-dasharray:none;stroke-opacity:1"
         transform="matrix(1.3333333,0,0,-1.3333333,358.016,366.58667)" />
      <path
         id="path95"
         d="M 6.17612,0 2.21527,1.50777 3.54979,0 2.21527,-1.50777 Z"
         style="fill:#268bd2;fill-opacity:1;fill-rule:nonzero;stroke:#268bd2;stroke-width:1.37189;stroke-linecap:butt;stroke-linejoin:miter;stroke-miterlimit:10;stroke-dasharray:none;stroke-opacity:1"
         transform="matrix(1.15468,0.66664,0.66664,-1.15468,407.68751,697.63055)" />
      <path
         id="path96"
         d="m 49.09824,-249.57376 v 41.54451"
         style="fill:none;stroke:#586e75;stroke-width:1.19553;stroke-linecap:butt;stroke-linejoin:miter;stroke-miterlimit:10;stroke-dasharray:none;stroke-opacity:1"
         transform="matrix(1.3333333,0,0,-1.3333333,358.016,366.58667)" />
      <path
         id="path97"
         d="M 5.08617,0 1.82423,1.24171 2.92336,0 1.82423,-1.24171 Z"
         style="fill:#586e75;fill-opacity:1;fill-rule:nonzero;stroke:#586e75;stroke-width:1.12978;stroke-linecap:butt;stroke-linejoin:miter;stroke-miterlimit:10;stroke-dasharray:none;stroke-opacity:1"
         transform="matrix(0,-1.3333333,-1.3333333,0,423.48032,647.48023)" />
      <path
         id="path98"
         d="M 54.64575,-198.42766 H 95.32149"
         style="fill:none;stroke:#268bd2;stroke-width:1.59404;stroke-linecap:butt;stroke-linejoin:miter;stroke-miterlimit:10;stroke-dasharray:none;stroke-opacity:1"
         transform="matrix(1.3333333,0,0,-1.3333333,358.016,366.58667)" />
      <path
         id="path99"
         d="M 6.17612,0 2.21527,1.50777 3.54979,0 2.21527,-1.50777 Z"
         style="fill:#268bd2;fill-opacity:1;fill-rule:nonzero;stroke:#268bd2;stroke-width:1.37189;stroke-linecap:butt;stroke-linejoin:miter;stroke-miterlimit:10;stroke-dasharray:none;stroke-opacity:1"
         transform="matrix(1.3333333,0,0,-1.3333333,480.83556,631.15688)" />
      <path
         id="path100"
         d="M 54.64575,-255.12128 H 95.32149"
         style="fill:none;stroke:#268bd2;stroke-width:1.59404;stroke-linecap:butt;stroke-linejoin:miter;stroke-miterlimit:10;stroke-dasharray:none;stroke-opacity:1"
         transform="matrix(1.3333333,0,0,-1.3333333,358.016,366.58667)" />
      <path
         id="path101"
         d="M 6.17612,0 2.21527,1.50777 3.54979,0 2.21527,-1.50777 Z"
         style="fill:#268bd2;fill-opacity:1;fill-rule:nonzero;stroke:#268bd2;stroke-width:1.37189;stroke-linecap:butt;stroke-linejoin:miter;stroke-miterlimit:10;stroke-dasharray:none;stroke-opacity:1"
         transform="matrix(1.3333333,0,0,-1.3333333,480.83556,706.74837)" />
      <path
         id="path102"
         d="m 105.79185,-249.57376 v 41.54451"
         style="fill:none;stroke:#586e75;stroke-width:1.19553;stroke-linecap:butt;stroke-linejoin:miter;stroke-miterlimit:10;stroke-dasharray:none;stroke-opacity:1"
         transform="matrix(1.3333333,0,0,-1.3333333,358.016,366.58667)" />
      <path
         id="path103"
         d="M 5.08617,0 1.82423,1.24171 2.92336,0 1.82423,-1.24171 Z"
         style="fill:#586e75;fill-opacity:1;fill-rule:nonzero;stroke:#586e75;stroke-width:1.12978;stroke-linecap:butt;stroke-linejoin:miter;stroke-miterlimit:10;stroke-dasharray:none;stroke-opacity:1"
         transform="matrix(0,-1.3333333,-1.3333333,0,499.0718,647.48023)" />
      <path
         id="path104"
         d="m 53.02092,-251.1986 45.9816,45.9816"
         style="fill:none;stroke:#586e75;stroke-width:1.19553;stroke-linecap:butt;stroke-linejoin:miter;stroke-miterlimit:10;stroke-dasharray:none;stroke-opacity:1"
         transform="matrix(1.3333333,0,0,-1.3333333,358.016,366.58667)" />
      <path
         id="path105"
         d="M 5.08617,0 1.82423,1.24171 2.92336,0 1.82423,-1.24171 Z"
         style="fill:#586e75;fill-opacity:1;fill-rule:nonzero;stroke:#586e75;stroke-width:1.12978;stroke-linecap:butt;stroke-linejoin:miter;stroke-miterlimit:10;stroke-dasharray:none;stroke-opacity:1"
         transform="matrix(0.9428,-0.9428,-0.9428,-0.9428,487.52947,642.69921)" />
      <path
         id="path106"
         d="m 110.59607,-201.20132 31.32907,-18.08788"
         style="fill:none;stroke:#268bd2;stroke-width:1.59404;stroke-linecap:butt;stroke-linejoin:miter;stroke-miterlimit:10;stroke-dasharray:none;stroke-opacity:1"
         transform="matrix(1.3333333,0,0,-1.3333333,358.016,366.58667)" />
      <path
         id="path107"
         d="M 6.17612,0 2.21527,1.50777 3.54979,0 2.21527,-1.50777 Z"
         style="fill:#268bd2;fill-opacity:1;fill-rule:nonzero;stroke:#268bd2;stroke-width:1.37189;stroke-linecap:butt;stroke-linejoin:miter;stroke-miterlimit:10;stroke-dasharray:none;stroke-opacity:1"
         transform="matrix(1.15468,0.66666667,0.66666667,-1.15468,543.54667,656.83439)" />
      <path
         id="path108"
         d="m 110.59607,-252.34763 31.32907,18.08788"
         style="fill:none;stroke:#268bd2;stroke-width:1.59404;stroke-linecap:butt;stroke-linejoin:miter;stroke-miterlimit:10;stroke-dasharray:none;stroke-opacity:1"
         transform="matrix(1.3333333,0,0,-1.3333333,358.016,366.58667)" />
      <path
         id="path109"
         d="M 6.17612,0 2.21527,1.50777 3.54979,0 2.21527,-1.50777 Z"
         style="fill:#268bd2;fill-opacity:1;fill-rule:nonzero;stroke:#268bd2;stroke-width:1.37189;stroke-linecap:butt;stroke-linejoin:miter;stroke-miterlimit:10;stroke-dasharray:none;stroke-opacity:1"
         transform="matrix(1.15468,-0.66666667,-0.66666667,-1.15468,543.54667,681.07088)" />
      <path
         id="path110"
         d="m 228.82538,-212.04526 c 0,5.82946 -4.72557,10.55504 -10.55502,10.55504 -5.82947,0 -10.55504,-4.72558 -10.55504,-10.55504 0,-5.82945 4.72557,-10.55504 10.55504,-10.55504 5.82945,0 10.55502,4.72559 10.55502,10.55504 z"
         style="fill:#eee8d5;fill-opacity:1;fill-rule:nonzero;stroke:#586e75;stroke-width:1.19553;stroke-linecap:butt;stroke-linejoin:miter;stroke-miterlimit:10;stroke-dasharray:none;stroke-opacity:1"
         transform="matrix(1.3333333,0,0,-1.3333333,358.016,366.58667)" />
      <g
         id="g110"
         aria-label="s&#10;i"
         transform="matrix(1.3333333,0,0,1.3333333,643.09867,651.55867)">
        <path
           id="path111"
           d="m 2.7297109,-2.4023984 c 0.2109375,0.035156 0.5390625,0.1054687 0.609375,0.1171875 0.1523438,0.058594 0.6914063,0.2460937 0.6914063,0.8203125 0,0.375 -0.3398438,1.34765621 -1.7226563,1.34765621 -0.2578125,0 -1.1601562,-0.0351563 -1.39453121,-0.703125 0.48046871,0.0585938 0.71484371,-0.30468751 0.71484371,-0.57421871 0,-0.2460938 -0.1640625,-0.3867188 -0.4101562,-0.3867188 -0.25781251,0 -0.60937501,0.2109375 -0.60937501,0.75 0,0.70312501 0.72656251,1.14843751 1.68750001,1.14843751 1.8164062,0 2.3554687,-1.33593751 2.3554687,-1.96875001 0,-0.1757812 0,-0.515625 -0.375,-0.890625 -0.3046875,-0.2929687 -0.5976562,-0.3515625 -1.2421875,-0.4804687 -0.328125,-0.082031 -0.84375,-0.1875 -0.84375,-0.7265625 0,-0.234375 0.2226563,-1.1015625 1.359375,-1.1015625 0.5039063,0 0.9960938,0.1875 1.1132813,0.6210937 -0.5273438,0 -0.5507813,0.4570313 -0.5507813,0.46875 0,0.2578125 0.234375,0.328125 0.3398438,0.328125 0.1640625,0 0.5039062,-0.140625 0.5039062,-0.6445312 0,-0.5039063 -0.4570312,-1.0195313 -1.3945312,-1.0195313 -1.5703125,0 -1.9921875,1.2421875 -1.9921875,1.734375 0,0.9140625 0.890625,1.1015625 1.1601562,1.1601563 z m 0,0"
           style="fill:#d33682;fill-opacity:1;fill-rule:nonzero;stroke:none" />
        <path
           id="path112"
           d="m 7.9123281,-3.1699766 c 0,-0.1757812 -0.1289062,-0.3046875 -0.3164062,-0.3046875 -0.2109375,0 -0.4335938,0.1875 -0.4335938,0.4335938 0,0.1757812 0.1289063,0.2929687 0.3046875,0.2929687 0.2109375,0 0.4453125,-0.1875 0.4453125,-0.421875 z m -1.171875,2.91796879 -0.421875,1.1015625 c -0.046875,0.1171875 -0.082031,0.21093751 -0.082031,0.35156251 0,0.3867187 0.3046875,0.6796875 0.7265625,0.6796875 0.7734375,0 1.1015625,-1.11328126 1.1015625,-1.21875001 0,-0.0820313 -0.070313,-0.10546875 -0.1289063,-0.10546875 -0.09375,0 -0.1054687,0.0585938 -0.1289062,0.12890625 -0.1875,0.64453121 -0.515625,0.97265621 -0.8320313,0.97265621 -0.09375,0 -0.1875,-0.046875 -0.1875,-0.2578125 0,-0.1875 0.058594,-0.3398437 0.1523438,-0.58593746 0.082031,-0.2109375 0.1640625,-0.421875 0.2460937,-0.64453125 l 0.2578125,-0.64453125 c 0.070312,-0.17578125 0.1640625,-0.43359375 0.1640625,-0.56250004 0,-0.3984375 -0.3164062,-0.6796875 -0.7265625,-0.6796875 -0.7734375,0 -1.1132812,1.11328129 -1.1132812,1.21875004 0,0.0703125 0.058594,0.10546875 0.1289062,0.10546875 0.09375,0 0.1054688,-0.046875 0.1289063,-0.12890625 0.2226562,-0.75000004 0.5859375,-0.97265624 0.8320312,-0.97265624 0.1054688,0 0.1875,0.046875 0.1875,0.2695312 0,0.070312 0,0.1875 -0.082031,0.42187504 z m 0,0"
           style="fill:#d33682;fill-opacity:1;fill-rule:nonzero;stroke:none" />
      </g>
      <path
         id="path113"
         d="m 246.29382,-241.50368 c 0,6.08362 -4.93161,11.01523 -11.01522,11.01523 -6.08362,0 -11.01523,-4.93161 -11.01523,-11.01523 0,-6.08362 4.93161,-11.01524 11.01523,-11.01524 6.08361,0 11.01522,4.93162 11.01522,11.01524 z"
         style="fill:#eee8d5;fill-opacity:1;fill-rule:nonzero;stroke:#586e75;stroke-width:1.19553;stroke-linecap:butt;stroke-linejoin:miter;stroke-miterlimit:10;stroke-dasharray:none;stroke-opacity:1"
         transform="matrix(1.3333333,0,0,-1.3333333,358.016,366.58667)" />
      <g
         id="g113"
         aria-label="s&#10;o"
         transform="matrix(1.3333333,0,0,1.3333333,664.97067,690.836)">
        <path
           id="path114"
           d="m 2.7290313,-2.4023906 c 0.2109375,0.035156 0.5390625,0.1054687 0.609375,0.1171875 0.1523437,0.058594 0.6914062,0.2460937 0.6914062,0.8203125 0,0.375 -0.3398437,1.34765623 -1.7226562,1.34765623 -0.2578125,0 -1.1601563,-0.0351563 -1.3945313,-0.703125 0.4804688,0.0585938 0.7148438,-0.30468753 0.7148438,-0.57421873 0,-0.2460938 -0.1640625,-0.3867188 -0.4101563,-0.3867188 -0.2578125,0 -0.609375,0.2109375 -0.609375,0.75 0,0.70312503 0.7265625,1.14843753 1.6875,1.14843753 1.8164063,0 2.3554688,-1.33593753 2.3554688,-1.96875003 0,-0.1757812 0,-0.515625 -0.375,-0.890625 C 3.9712188,-3.0352031 3.67825,-3.0937969 3.0337188,-3.2227031 c -0.328125,-0.082031 -0.84375,-0.1875 -0.84375,-0.7265625 0,-0.234375 0.2226562,-1.1015625 1.359375,-1.1015625 0.5039062,0 0.9960937,0.1875 1.1132812,0.6210937 -0.5273437,0 -0.5507812,0.4570313 -0.5507812,0.46875 0,0.2578125 0.234375,0.328125 0.3398437,0.328125 0.1640625,0 0.5039063,-0.140625 0.5039063,-0.6445312 0,-0.5039063 -0.4570313,-1.0195313 -1.3945313,-1.0195313 -1.5703125,0 -1.9921875,1.2421875 -1.9921875,1.734375 0,0.9140625 0.890625,1.1015625 1.1601563,1.1601563 z m 0,0"
           style="fill:#d33682;fill-opacity:1;fill-rule:nonzero;stroke:none" />
        <path
           id="path115"
           d="m 9.5053984,-0.33403125 c 0,-0.78515625 -0.5625,-1.38281245 -1.3945312,-1.38281245 -1.125,0 -2.2265625,1.10156245 -2.2265625,2.2148437 0,0.8203125 0.5742187,1.3828125 1.3828125,1.3828125 1.1367187,0 2.2382812,-1.11328125 2.2382812,-2.21484375 z M 7.2788359,1.6581563 c -0.28125,0 -0.75,-0.140625 -0.75,-0.8789063 0,-0.328125 0.1523438,-1.18359375 0.5390625,-1.6875 0.3867188,-0.4921875 0.8203125,-0.5859375 1.0429688,-0.5859375 0.328125,0 0.75,0.1992188 0.75,0.8671875 0,0.31640625 -0.1523438,1.078125 -0.4570313,1.55859375 C 8.1108672,1.388625 7.6772734,1.6581563 7.2788359,1.6581563 Z m 0,0"
           style="fill:#d33682;fill-opacity:1;fill-rule:nonzero;stroke:none" />
      </g>
      <path
         id="path116"
         d="m 223.84674,-221.70372 3.59834,-6.2321"
         style="fill:none;stroke:#586e75;stroke-width:1.19553;stroke-linecap:butt;stroke-linejoin:miter;stroke-miterlimit:10;stroke-dasharray:none;stroke-opacity:1"
         transform="matrix(1.3333333,0,0,-1.3333333,358.016,366.58667)" />
      <path
         id="path117"
         d="M 5.08617,0 1.82423,1.24171 2.92336,0 1.82423,-1.24171 Z"
         style="fill:#586e75;fill-opacity:1;fill-rule:nonzero;stroke:#586e75;stroke-width:1.12978;stroke-linecap:butt;stroke-linejoin:miter;stroke-miterlimit:10;stroke-dasharray:none;stroke-opacity:1"
         transform="matrix(0.66666667,1.15468,1.15468,-0.66666667,659.51549,667.45168)" />
      <path
         id="path118"
         d="m 251.91962,-196.80824 v -59.93289 H 201.6293 v 59.93289 z"
         style="fill:none;stroke:#586e75;stroke-width:0.79701;stroke-linecap:butt;stroke-linejoin:miter;stroke-miterlimit:10;stroke-dasharray:2.98883, 2.98883;stroke-dashoffset:0;stroke-opacity:1"
         transform="matrix(1.3333333,0,0,-1.3333333,358.016,366.58667)" />
      <path
         id="path119"
         d="m 296.86748,-169.52505 c 0,2.73371 -2.21605,4.94976 -4.94977,4.94976 -2.73371,0 -4.94975,-2.21605 -4.94975,-4.94976 0,-2.73371 2.21604,-4.94977 4.94975,-4.94977 2.73372,0 4.94977,2.21606 4.94977,4.94977 z"
         style="fill:#eee8d5;fill-opacity:1;fill-rule:nonzero;stroke:#586e75;stroke-width:1.19553;stroke-linecap:butt;stroke-linejoin:miter;stroke-miterlimit:10;stroke-dasharray:none;stroke-opacity:1"
         transform="matrix(1.3333333,0,0,-1.3333333,358.016,366.58667)" />
      <path
         id="path120"
         d="m 313.87573,-198.98347 c 0,2.7337 -2.21606,4.94977 -4.94977,4.94977 -2.73371,0 -4.94976,-2.21607 -4.94976,-4.94977 0,-2.73373 2.21605,-4.94977 4.94976,-4.94977 2.73371,0 4.94977,2.21604 4.94977,4.94977 z"
         style="fill:#eee8d5;fill-opacity:1;fill-rule:nonzero;stroke:#586e75;stroke-width:1.19553;stroke-linecap:butt;stroke-linejoin:miter;stroke-miterlimit:10;stroke-dasharray:none;stroke-opacity:1"
         transform="matrix(1.3333333,0,0,-1.3333333,358.016,366.58667)" />
      <path
         id="path121"
         d="m 294.69147,-174.32927 8.99933,-15.58676"
         style="fill:none;stroke:#268bd2;stroke-width:1.59404;stroke-linecap:butt;stroke-linejoin:miter;stroke-miterlimit:10;stroke-dasharray:none;stroke-opacity:1"
         transform="matrix(1.3333333,0,0,-1.3333333,358.016,366.58667)" />
      <path
         id="path122"
         d="M 6.17612,0 2.21527,1.50777 3.54979,0 2.21527,-1.50777 Z"
         style="fill:#268bd2;fill-opacity:1;fill-rule:nonzero;stroke:#268bd2;stroke-width:1.37189;stroke-linecap:butt;stroke-linejoin:miter;stroke-miterlimit:10;stroke-dasharray:none;stroke-opacity:1"
         transform="matrix(0.66666667,1.15468,1.15468,-0.66666667,760.79919,616.10516)" />
      <path
         id="path123"
         d="m 3.4553525,-7.6945319 c 0.00126,-0.2834398 -0.00303,-0.2994481 -0.2501588,-0.2932826 -0.2718361,0.3302005 -0.8755583,0.7664846 -2.1096566,0.771155 l -1.155e-4,0.3517624 c 0.2732909,-0.0046 0.8663275,-4.965e-4 1.5305214,-0.3071435 l -0.00752,6.24739272 C 2.623743,-0.48855437 2.589737,-0.3593387 1.5344501,-0.359685 l -0.3677708,0.004174 -1.155e-4,0.35176244 c 0.3271755,-0.02761199 1.4870916,-0.02098474 1.8810195,-0.02358837 0.4040768,0.0032559 1.5436952,-0.0018359 1.877879,0.028726 l 1.155e-4,-0.35176243 -0.3779196,-0.001686 c -1.0552873,-3.463e-4 -1.093891,-0.14442151 -1.0992137,-0.58051502 z m 0,0"
         style="fill:#d33682;fill-opacity:1;fill-rule:nonzero;stroke:none"
         aria-label="1"
         transform="matrix(0.66666667,1.15468,-1.15468,0.66666667,761.58124,606.00314)" />
      <path
         id="path124"
         d="m 325.56699,-154.28804 v -59.93288 h -50.29032 v 59.93288 z"
         style="fill:none;stroke:#586e75;stroke-width:0.79701;stroke-linecap:butt;stroke-linejoin:miter;stroke-miterlimit:10;stroke-dasharray:2.98883, 2.98883;stroke-dashoffset:0;stroke-opacity:1"
         transform="matrix(1.3333333,0,0,-1.3333333,358.016,366.58667)" />
      <path
         id="path125"
         d="m 296.86748,-254.56546 c 0,2.7337 -2.21605,4.94976 -4.94977,4.94976 -2.73371,0 -4.94975,-2.21606 -4.94975,-4.94976 0,-2.73372 2.21604,-4.94977 4.94975,-4.94977 2.73372,0 4.94977,2.21605 4.94977,4.94977 z"
         style="fill:#eee8d5;fill-opacity:1;fill-rule:nonzero;stroke:#586e75;stroke-width:1.19553;stroke-linecap:butt;stroke-linejoin:miter;stroke-miterlimit:10;stroke-dasharray:none;stroke-opacity:1"
         transform="matrix(1.3333333,0,0,-1.3333333,358.016,366.58667)" />
      <path
         id="path126"
         d="m 313.87573,-284.0239 c 0,2.73372 -2.21606,4.94977 -4.94977,4.94977 -2.73371,0 -4.94976,-2.21605 -4.94976,-4.94977 0,-2.7337 2.21605,-4.94975 4.94976,-4.94975 2.73371,0 4.94977,2.21605 4.94977,4.94975 z"
         style="fill:#eee8d5;fill-opacity:1;fill-rule:nonzero;stroke:#586e75;stroke-width:1.19553;stroke-linecap:butt;stroke-linejoin:miter;stroke-miterlimit:10;stroke-dasharray:none;stroke-opacity:1"
         transform="matrix(1.3333333,0,0,-1.3333333,358.016,366.58667)" />
      <path
         id="path127"
         d="m 294.69147,-259.36969 8.99933,-15.58675"
         style="fill:none;stroke:#268bd2;stroke-width:1.59404;stroke-linecap:butt;stroke-linejoin:miter;stroke-miterlimit:10;stroke-dasharray:none;stroke-opacity:1"
         transform="matrix(1.3333333,0,0,-1.3333333,358.016,366.58667)" />
      <path
         id="path128"
         d="M 6.17612,0 2.21527,1.50777 3.54979,0 2.21527,-1.50777 Z"
         style="fill:#268bd2;fill-opacity:1;fill-rule:nonzero;stroke:#268bd2;stroke-width:1.37189;stroke-linecap:butt;stroke-linejoin:miter;stroke-miterlimit:10;stroke-dasharray:none;stroke-opacity:1"
         transform="matrix(0.66666667,1.15468,1.15468,-0.66666667,760.79919,729.49239)" />
      <path
         id="path129"
         d="m 3.4529481,-7.6940707 c 0.00126,-0.2834398 -0.00303,-0.2994481 -0.2501587,-0.2932826 -0.2718361,0.3302005 -0.8755584,0.7664846 -2.1096566,0.771155 l -1.155e-4,0.3517624 c 0.2732909,-0.0046 0.8663275,-4.965e-4 1.5305213,-0.3071435 l -0.00752,6.24739272 c 0.00532,0.43609351 -0.028686,0.56530918 -1.083973,0.56496288 l -0.3677707,0.004174 -1.155e-4,0.35176244 C 1.491339,-0.03089949 2.651255,-0.02427224 3.045183,-0.02687587 c 0.4040768,0.0032559 1.5436952,-0.0018359 1.877879,0.028726 L 4.9231775,-0.3499123 4.5452578,-0.3515983 C 3.4899705,-0.35194427 3.4513669,-0.49601948 3.4460442,-0.93211299 Z m 0,0"
         style="fill:#d33682;fill-opacity:1;fill-rule:nonzero;stroke:none"
         aria-label="1"
         transform="matrix(0.66666667,1.15468,-1.15468,0.66666667,742.72791,730.27514)" />
      <path
         id="path130"
         d="m 325.56699,-239.32845 v -59.93289 h -50.29032 v 59.93289 z"
         style="fill:none;stroke:#586e75;stroke-width:0.79701;stroke-linecap:butt;stroke-linejoin:miter;stroke-miterlimit:10;stroke-dasharray:2.98883, 2.98883;stroke-dashoffset:0;stroke-opacity:1"
         transform="matrix(1.3333333,0,0,-1.3333333,358.016,366.58667)" />
      <path
         id="path131"
         d="m 381.90791,-169.52505 c 0,2.73371 -2.21606,4.94976 -4.94976,4.94976 -2.73371,0 -4.94977,-2.21605 -4.94977,-4.94976 0,-2.73371 2.21606,-4.94977 4.94977,-4.94977 2.7337,0 4.94976,2.21606 4.94976,4.94977 z"
         style="fill:#eee8d5;fill-opacity:1;fill-rule:nonzero;stroke:#586e75;stroke-width:1.19553;stroke-linecap:butt;stroke-linejoin:miter;stroke-miterlimit:10;stroke-dasharray:none;stroke-opacity:1"
         transform="matrix(1.3333333,0,0,-1.3333333,358.016,366.58667)" />
      <path
         id="path132"
         d="m 398.91615,-198.98347 c 0,2.7337 -2.21605,4.94977 -4.94977,4.94977 -2.7337,0 -4.94975,-2.21607 -4.94975,-4.94977 0,-2.73373 2.21605,-4.94977 4.94975,-4.94977 2.73372,0 4.94977,2.21604 4.94977,4.94977 z"
         style="fill:#eee8d5;fill-opacity:1;fill-rule:nonzero;stroke:#586e75;stroke-width:1.19553;stroke-linecap:butt;stroke-linejoin:miter;stroke-miterlimit:10;stroke-dasharray:none;stroke-opacity:1"
         transform="matrix(1.3333333,0,0,-1.3333333,358.016,366.58667)" />
      <path
         id="path133"
         d="m 379.7319,-174.32927 8.99933,-15.58676"
         style="fill:none;stroke:#268bd2;stroke-width:1.59404;stroke-linecap:butt;stroke-linejoin:miter;stroke-miterlimit:10;stroke-dasharray:none;stroke-opacity:1"
         transform="matrix(1.3333333,0,0,-1.3333333,358.016,366.58667)" />
      <path
         id="path134"
         d="M 6.17612,0 2.21527,1.50777 3.54979,0 2.21527,-1.50777 Z"
         style="fill:#268bd2;fill-opacity:1;fill-rule:nonzero;stroke:#268bd2;stroke-width:1.37189;stroke-linecap:butt;stroke-linejoin:miter;stroke-miterlimit:10;stroke-dasharray:none;stroke-opacity:1"
         transform="matrix(0.66666667,1.15468,1.15468,-0.66666667,874.1864,616.10516)" />
      <path
         id="path135"
         d="m 3.455372,-7.6945658 c 0.00126,-0.2834397 -0.00303,-0.299448 -0.2501587,-0.2932825 -0.2718361,0.3302005 -0.8755584,0.7664846 -2.1096567,0.771155 l -1.154e-4,0.3517624 c 0.2732909,-0.0046 0.8663275,-4.965e-4 1.5305213,-0.3071435 l -0.00752,6.24739269 c 0.00532,0.43609351 -0.028686,0.56530918 -1.083973,0.56496288 l -0.3677708,0.004174 -1.154e-4,0.35176244 c 0.3271755,-0.02761199 1.4870915,-0.02098474 1.8810195,-0.02358837 0.4040768,0.0032559 1.5436951,-0.0018359 1.877879,0.028726 L 4.9256013,-0.35040733 4.5476817,-0.352093 C 3.4923944,-0.3524393 3.4537907,-0.49651451 3.4484681,-0.93260802 Z m 0,0"
         style="fill:#d33682;fill-opacity:1;fill-rule:nonzero;stroke:none"
         aria-label="1"
         transform="matrix(0.66666667,1.15468,-1.15468,0.66666667,874.96791,606.00314)" />
      <path
         id="path136"
         d="m 410.60742,-154.28804 v -59.93288 h -50.29031 v 59.93288 z"
         style="fill:none;stroke:#586e75;stroke-width:0.79701;stroke-linecap:butt;stroke-linejoin:miter;stroke-miterlimit:10;stroke-dasharray:2.98883, 2.98883;stroke-dashoffset:0;stroke-opacity:1"
         transform="matrix(1.3333333,0,0,-1.3333333,358.016,366.58667)" />
      <path
         id="path137"
         d="m 381.90791,-254.56546 c 0,2.7337 -2.21606,4.94976 -4.94976,4.94976 -2.73371,0 -4.94977,-2.21606 -4.94977,-4.94976 0,-2.73372 2.21606,-4.94977 4.94977,-4.94977 2.7337,0 4.94976,2.21605 4.94976,4.94977 z"
         style="fill:#eee8d5;fill-opacity:1;fill-rule:nonzero;stroke:#586e75;stroke-width:1.19553;stroke-linecap:butt;stroke-linejoin:miter;stroke-miterlimit:10;stroke-dasharray:none;stroke-opacity:1"
         transform="matrix(1.3333333,0,0,-1.3333333,358.016,366.58667)" />
      <path
         id="path138"
         d="m 398.91615,-284.0239 c 0,2.73372 -2.21605,4.94977 -4.94977,4.94977 -2.7337,0 -4.94975,-2.21605 -4.94975,-4.94977 0,-2.7337 2.21605,-4.94975 4.94975,-4.94975 2.73372,0 4.94977,2.21605 4.94977,4.94975 z"
         style="fill:#eee8d5;fill-opacity:1;fill-rule:nonzero;stroke:#586e75;stroke-width:1.19553;stroke-linecap:butt;stroke-linejoin:miter;stroke-miterlimit:10;stroke-dasharray:none;stroke-opacity:1"
         transform="matrix(1.3333333,0,0,-1.3333333,358.016,366.58667)" />
      <path
         id="path139"
         d="m 379.7319,-259.36969 8.99933,-15.58675"
         style="fill:none;stroke:#268bd2;stroke-width:1.59404;stroke-linecap:butt;stroke-linejoin:miter;stroke-miterlimit:10;stroke-dasharray:none;stroke-opacity:1"
         transform="matrix(1.3333333,0,0,-1.3333333,358.016,366.58667)" />
      <path
         id="path140"
         d="M 6.17612,0 2.21527,1.50777 3.54979,0 2.21527,-1.50777 Z"
         style="fill:#268bd2;fill-opacity:1;fill-rule:nonzero;stroke:#268bd2;stroke-width:1.37189;stroke-linecap:butt;stroke-linejoin:miter;stroke-miterlimit:10;stroke-dasharray:none;stroke-opacity:1"
         transform="matrix(0.66666667,1.15468,1.15468,-0.66666667,874.1864,729.49239)" />
      <path
         id="path141"
         d="m 3.4539325,-7.6957757 c 0.00126,-0.2834398 -0.00303,-0.2994481 -0.2501587,-0.2932826 -0.2718361,0.3302005 -0.8755584,0.7664846 -2.1096566,0.771155 l -1.155e-4,0.3517624 c 0.2732909,-0.0046 0.8663275,-4.965e-4 1.5305213,-0.3071435 l -0.00752,6.24739271 c 0.00532,0.43609351 -0.028686,0.56530919 -1.0839729,0.56496289 l -0.3677708,0.004174 -1.155e-4,0.35176243 c 0.3271755,-0.02761198 1.4870915,-0.02098474 1.8810195,-0.02358836 0.4040768,0.0032559 1.5436952,-0.0018359 1.877879,0.0287260008 L 4.9241619,-0.3516173 4.5462422,-0.35330297 C 3.4909549,-0.35364927 3.4523513,-0.49772448 3.4470286,-0.93381799 Z m 0,0"
         style="fill:#d33682;fill-opacity:1;fill-rule:nonzero;stroke:none"
         aria-label="1"
         transform="matrix(0.66666667,1.15468,-1.15468,0.66666667,856.11591,730.27514)" />
      <path
         id="path142"
         d="m 410.60742,-239.32845 v -59.93289 h -50.29031 v 59.93289 z"
         style="fill:none;stroke:#586e75;stroke-width:0.79701;stroke-linecap:butt;stroke-linejoin:miter;stroke-miterlimit:10;stroke-dasharray:2.98883, 2.98883;stroke-dashoffset:0;stroke-opacity:1"
         transform="matrix(1.3333333,0,0,-1.3333333,358.016,366.58667)" />
      <path
         id="path143"
         d="m 461.50594,-212.04526 c 0,6.02021 -4.88022,10.90042 -10.90043,10.90042 -6.02021,0 -10.90041,-4.88021 -10.90041,-10.90042 0,-6.02022 4.8802,-10.90042 10.90041,-10.90042 6.02021,0 10.90043,4.8802 10.90043,10.90042 z"
         style="fill:#eee8d5;fill-opacity:1;fill-rule:nonzero;stroke:#586e75;stroke-width:1.19553;stroke-linecap:butt;stroke-linejoin:miter;stroke-miterlimit:10;stroke-dasharray:none;stroke-opacity:1"
         transform="matrix(1.3333333,0,0,-1.3333333,358.016,366.58667)" />
      <g
         id="g143"
         aria-label="t&#10;i"
         transform="matrix(1.3333333,0,0,1.3333333,953.74,653.03467)">
        <path
           id="path144"
           d="m 2.4127734,-4.8277578 h 1.1015625 c 0.2226563,0 0.3515625,0 0.3515625,-0.2109375 0,-0.1289063 -0.070312,-0.1289063 -0.3164062,-0.1289063 H 2.4948047 l 0.4453125,-1.7578125 c 0.046875,-0.1640625 0.046875,-0.1875 0.046875,-0.2695312 0,-0.1992188 -0.1523438,-0.3046875 -0.3164063,-0.3046875 -0.09375,0 -0.3632812,0.035156 -0.46875,0.421875 l -0.46875,1.9101562 H 0.60808594 c -0.234375,0 -0.33984375,0 -0.33984375,0.2226563 0,0.1171875 0.0820313,0.1171875 0.3046875,0.1171875 H 1.6393359 l -0.78515621,3.1757812 c -0.09375,0.421875 -0.140625,0.5390625 -0.140625,0.69140629 0,0.5625 0.39843751,1.078125 1.07812501,1.078125 1.2070312,0 1.8515625,-1.74609379 1.8515625,-1.82812499 0,-0.082031 -0.046875,-0.1171875 -0.1171875,-0.1171875 -0.023437,0 -0.070312,0 -0.09375,0.046875 -0.011719,0.011719 -0.023437,0.023437 -0.1054688,0.2226562 -0.2578125,0.59765629 -0.8085937,1.44140629 -1.5,1.44140629 -0.3632812,0 -0.3867187,-0.3046875 -0.3867187,-0.5625 0,-0.0117188 0,-0.24609375 0.035156,-0.38671879 z m 0,0"
           style="fill:#d33682;fill-opacity:1;fill-rule:nonzero;stroke:none" />
        <path
           id="path145"
           d="m 6.6227344,-3.1695547 c 0,-0.1757812 -0.1289063,-0.3046875 -0.3164063,-0.3046875 -0.2109375,0 -0.4335937,0.1875 -0.4335937,0.4335938 0,0.1757812 0.1289062,0.2929687 0.3046875,0.2929687 0.2109375,0 0.4453125,-0.1875 0.4453125,-0.421875 z m -1.171875,2.91796876 -0.421875,1.1015625 c -0.046875,0.1171875 -0.082031,0.21093754 -0.082031,0.35156254 0,0.3867187 0.3046875,0.6796875 0.7265625,0.6796875 0.7734375,0 1.1015625,-1.11328129 1.1015625,-1.21875004 0,-0.0820313 -0.070312,-0.10546875 -0.1289062,-0.10546875 -0.09375,0 -0.1054688,0.0585938 -0.1289063,0.12890625 -0.1875,0.64453124 -0.515625,0.97265624 -0.8320312,0.97265624 -0.09375,0 -0.1875,-0.046875 -0.1875,-0.2578125 0,-0.1875 0.058594,-0.3398437 0.1523437,-0.58593749 0.082031,-0.2109375 0.1640625,-0.421875 0.2460938,-0.64453125 l 0.2578125,-0.64453125 c 0.070312,-0.17578125 0.1640625,-0.43359375 0.1640625,-0.56250001 0,-0.3984375 -0.3164063,-0.6796875 -0.7265625,-0.6796875 -0.7734375,0 -1.1132813,1.11328126 -1.1132813,1.21875001 0,0.0703125 0.058594,0.10546875 0.1289063,0.10546875 0.09375,0 0.1054687,-0.046875 0.1289062,-0.12890625 0.2226563,-0.75000001 0.5859375,-0.97265621 0.8320313,-0.97265621 0.1054687,0 0.1875,0.046875 0.1875,0.2695312 0,0.070312 0,0.1875 -0.082031,0.42187501 z m 0,0"
           style="fill:#d33682;fill-opacity:1;fill-rule:nonzero;stroke:none" />
      </g>
      <path
         id="path146"
         d="m 478.93109,-241.50368 c 0,6.25046 -5.06686,11.31732 -11.31734,11.31732 -6.25045,0 -11.31732,-5.06686 -11.31732,-11.31732 0,-6.25047 5.06687,-11.31733 11.31732,-11.31733 6.25048,0 11.31734,5.06686 11.31734,11.31733 z"
         style="fill:#eee8d5;fill-opacity:1;fill-rule:nonzero;stroke:#586e75;stroke-width:1.19553;stroke-linecap:butt;stroke-linejoin:miter;stroke-miterlimit:10;stroke-dasharray:none;stroke-opacity:1"
         transform="matrix(1.3333333,0,0,-1.3333333,358.016,366.58667)" />
      <g
         id="g146"
         aria-label="t&#10;o"
         transform="matrix(1.3333333,0,0,1.3333333,975.612,692.312)">
        <path
           id="path147"
           d="m 2.4150234,-4.82775 h 1.1015625 c 0.2226563,0 0.3515625,0 0.3515625,-0.2109375 0,-0.1289062 -0.070312,-0.1289062 -0.3164062,-0.1289062 H 2.4970547 l 0.4453125,-1.7578125 c 0.046875,-0.1640625 0.046875,-0.1875 0.046875,-0.2695313 0,-0.1992187 -0.1523438,-0.3046875 -0.3164063,-0.3046875 -0.09375,0 -0.3632812,0.035156 -0.46875,0.421875 l -0.46875,1.9101563 H 0.61033594 c -0.234375,0 -0.33984375,0 -0.33984375,0.2226562 0,0.1171875 0.0820313,0.1171875 0.3046875,0.1171875 H 1.6415859 l -0.78515621,3.1757813 c -0.09375,0.421875 -0.140625,0.5390625 -0.140625,0.6914062 0,0.5625 0.39843751,1.078125 1.07812501,1.078125 1.2070312,0 1.8515625,-1.7460937 1.8515625,-1.828125 0,-0.082031 -0.046875,-0.1171875 -0.1171875,-0.1171875 -0.023437,0 -0.070312,0 -0.09375,0.046875 -0.011719,0.011719 -0.023437,0.023437 -0.1054688,0.2226563 -0.2578125,0.5976562 -0.8085937,1.4414062 -1.5,1.4414062 -0.3632812,0 -0.3867187,-0.3046875 -0.3867187,-0.5625 0,-0.0117188 0,-0.24609375 0.035156,-0.3867187 z m 0,0"
           style="fill:#d33682;fill-opacity:1;fill-rule:nonzero;stroke:none" />
        <path
           id="path148"
           d="m 8.2158047,-0.33360937 c 0,-0.78515623 -0.5625,-1.38281253 -1.3945313,-1.38281253 -1.125,0 -2.2265625,1.10156253 -2.2265625,2.21484378 0,0.82031252 0.5742188,1.38281252 1.3828125,1.38281252 1.1367188,0 2.2382813,-1.11328127 2.2382813,-2.21484377 z M 5.9892422,1.6585781 c -0.28125,0 -0.75,-0.140625 -0.75,-0.87890622 0,-0.328125 0.1523437,-1.18359375 0.5390625,-1.6875 0.3867187,-0.49218748 0.8203125,-0.58593748 1.0429687,-0.58593748 0.328125,0 0.75,0.1992187 0.75,0.86718748 0,0.31640625 -0.1523437,1.078125 -0.4570312,1.55859375 -0.2929688,0.45703127 -0.7265625,0.72656247 -1.125,0.72656247 z m 0,0"
           style="fill:#d33682;fill-opacity:1;fill-rule:nonzero;stroke:none" />
      </g>
      <path
         id="path149"
         d="m 456.3546,-222.00282 3.2746,-5.67139"
         style="fill:none;stroke:#586e75;stroke-width:1.19553;stroke-linecap:butt;stroke-linejoin:miter;stroke-miterlimit:10;stroke-dasharray:none;stroke-opacity:1"
         transform="matrix(1.3333333,0,0,-1.3333333,358.016,366.58667)" />
      <path
         id="path150"
         d="M 5.08617,0 1.82423,1.24171 2.92336,0 1.82423,-1.24171 Z"
         style="fill:#586e75;fill-opacity:1;fill-rule:nonzero;stroke:#586e75;stroke-width:1.12978;stroke-linecap:butt;stroke-linejoin:miter;stroke-miterlimit:10;stroke-dasharray:none;stroke-opacity:1"
         transform="matrix(0.66666667,1.15468,1.15468,-0.66666667,969.09431,667.10288)" />
      <path
         id="path151"
         d="m 484.25479,-196.80824 v -59.93289 h -50.29033 v 59.93289 z"
         style="fill:none;stroke:#586e75;stroke-width:0.79701;stroke-linecap:butt;stroke-linejoin:miter;stroke-miterlimit:10;stroke-dasharray:2.98883, 2.98883;stroke-dashoffset:0;stroke-opacity:1"
         transform="matrix(1.3333333,0,0,-1.3333333,358.016,366.58667)" />
      <path
         id="path152"
         d="m 242.45963,-232.3777 42.98353,54.62468"
         style="fill:none;stroke:#268bd2;stroke-width:1.59404;stroke-linecap:butt;stroke-linejoin:miter;stroke-miterlimit:10;stroke-dasharray:none;stroke-opacity:1"
         transform="matrix(1.3333333,0,0,-1.3333333,358.016,366.58667)" />
      <path
         id="path153"
         d="M 6.17612,0 2.21527,1.50777 3.54979,0 2.21527,-1.50777 Z"
         style="fill:#268bd2;fill-opacity:1;fill-rule:nonzero;stroke:#268bd2;stroke-width:1.37189;stroke-linecap:butt;stroke-linejoin:miter;stroke-miterlimit:10;stroke-dasharray:none;stroke-opacity:1"
         transform="matrix(0.82448,-1.0477867,-1.0477867,-0.82448,735.96289,606.95076)" />
      <path
         id="path154"
         d="m 246.59424,-244.11311 35.12112,-8.09986"
         style="fill:none;stroke:#268bd2;stroke-width:1.59404;stroke-linecap:butt;stroke-linejoin:miter;stroke-miterlimit:10;stroke-dasharray:none;stroke-opacity:1"
         transform="matrix(1.3333333,0,0,-1.3333333,358.016,366.58667)" />
      <path
         id="path155"
         d="M 6.17612,0 2.21527,1.50777 3.54979,0 2.21527,-1.50777 Z"
         style="fill:#268bd2;fill-opacity:1;fill-rule:nonzero;stroke:#268bd2;stroke-width:1.37189;stroke-linecap:butt;stroke-linejoin:miter;stroke-miterlimit:10;stroke-dasharray:none;stroke-opacity:1"
         transform="matrix(1.2992,0.2996,0.2996,-1.2992,729.47019,701.90985)" />
      <path
         id="path156"
         d="m 308.11096,-278.53691 -14.78266,99.51504"
         style="fill:none;stroke:#586e75;stroke-width:1.19553;stroke-linecap:butt;stroke-linejoin:miter;stroke-miterlimit:10;stroke-dasharray:none;stroke-opacity:1"
         transform="matrix(1.3333333,0,0,-1.3333333,358.016,366.58667)" />
      <path
         id="path157"
         d="M 5.08617,0 1.82423,1.24171 2.92336,0 1.82423,-1.24171 Z"
         style="fill:#586e75;fill-opacity:1;fill-rule:nonzero;stroke:#586e75;stroke-width:1.12978;stroke-linecap:butt;stroke-linejoin:miter;stroke-miterlimit:10;stroke-dasharray:none;stroke-opacity:1"
         transform="matrix(-0.19588,-1.3187867,-1.3187867,0.19588,749.63771,608.76529)" />
      <path
         id="path158"
         d="m 314.01646,-196.77924 53.3339,23.09401"
         style="fill:none;stroke:#268bd2;stroke-width:1.59404;stroke-linecap:butt;stroke-linejoin:miter;stroke-miterlimit:10;stroke-dasharray:none;stroke-opacity:1"
         transform="matrix(1.3333333,0,0,-1.3333333,358.016,366.58667)" />
      <path
         id="path159"
         d="M 6.17612,0 2.21527,1.50777 3.54979,0 2.21527,-1.50777 Z"
         style="fill:#268bd2;fill-opacity:1;fill-rule:nonzero;stroke:#268bd2;stroke-width:1.37189;stroke-linecap:butt;stroke-linejoin:miter;stroke-miterlimit:10;stroke-dasharray:none;stroke-opacity:1"
         transform="matrix(1.2234933,-0.52978667,-0.52978667,-1.2234933,843.89297,599.86591)" />
      <path
         id="path160"
         d="m 314.01646,-281.81966 53.3339,23.09401"
         style="fill:none;stroke:#268bd2;stroke-width:1.59404;stroke-linecap:butt;stroke-linejoin:miter;stroke-miterlimit:10;stroke-dasharray:none;stroke-opacity:1"
         transform="matrix(1.3333333,0,0,-1.3333333,358.016,366.58667)" />
      <path
         id="path161"
         d="M 6.17612,0 2.21527,1.50777 3.54979,0 2.21527,-1.50777 Z"
         style="fill:#268bd2;fill-opacity:1;fill-rule:nonzero;stroke:#268bd2;stroke-width:1.37189;stroke-linecap:butt;stroke-linejoin:miter;stroke-miterlimit:10;stroke-dasharray:none;stroke-opacity:1"
         transform="matrix(1.2234933,-0.52978667,-0.52978667,-1.2234933,843.89297,713.25311)" />
      <path
         id="path162"
         d="m 393.1514,-278.53691 -14.78267,99.51504"
         style="fill:none;stroke:#586e75;stroke-width:1.19553;stroke-linecap:butt;stroke-linejoin:miter;stroke-miterlimit:10;stroke-dasharray:none;stroke-opacity:1"
         transform="matrix(1.3333333,0,0,-1.3333333,358.016,366.58667)" />
      <path
         id="path163"
         d="M 5.08617,0 1.82423,1.24171 2.92336,0 1.82423,-1.24171 Z"
         style="fill:#586e75;fill-opacity:1;fill-rule:nonzero;stroke:#586e75;stroke-width:1.12978;stroke-linecap:butt;stroke-linejoin:miter;stroke-miterlimit:10;stroke-dasharray:none;stroke-opacity:1"
         transform="matrix(-0.19588,-1.3187867,-1.3187867,0.19588,863.02493,608.76529)" />
      <path
         id="path164"
         d="m 311.75957,-279.25497 60.29422,101.47593"
         style="fill:none;stroke:#586e75;stroke-width:1.19553;stroke-linecap:butt;stroke-linejoin:miter;stroke-miterlimit:10;stroke-dasharray:none;stroke-opacity:1"
         transform="matrix(1.3333333,0,0,-1.3333333,358.016,366.58667)" />
      <path
         id="path165"
         d="M 5.08617,0 1.82423,1.24171 2.92336,0 1.82423,-1.24171 Z"
         style="fill:#586e75;fill-opacity:1;fill-rule:nonzero;stroke:#586e75;stroke-width:1.12978;stroke-linecap:butt;stroke-linejoin:miter;stroke-miterlimit:10;stroke-dasharray:none;stroke-opacity:1"
         transform="matrix(0.68105333,-1.1462,-1.1462,-0.68105333,852.28909,606.6524)" />
      <path
         id="path166"
         d="m 399.37187,-200.23001 35.23291,-8.12581"
         style="fill:none;stroke:#268bd2;stroke-width:1.59404;stroke-linecap:butt;stroke-linejoin:miter;stroke-miterlimit:10;stroke-dasharray:none;stroke-opacity:1"
         transform="matrix(1.3333333,0,0,-1.3333333,358.016,366.58667)" />
      <path
         id="path167"
         d="M 6.17612,0 2.21527,1.50777 3.54979,0 2.21527,-1.50777 Z"
         style="fill:#268bd2;fill-opacity:1;fill-rule:nonzero;stroke:#268bd2;stroke-width:1.37189;stroke-linecap:butt;stroke-linejoin:miter;stroke-miterlimit:10;stroke-dasharray:none;stroke-opacity:1"
         transform="matrix(1.2992,0.2996,0.2996,-1.2992,933.32275,643.43365)" />
      <path
         id="path168"
         d="m 397.39676,-279.66441 43.05446,54.71499"
         style="fill:none;stroke:#268bd2;stroke-width:1.59404;stroke-linecap:butt;stroke-linejoin:miter;stroke-miterlimit:10;stroke-dasharray:none;stroke-opacity:1"
         transform="matrix(1.3333333,0,0,-1.3333333,358.016,366.58667)" />
      <path
         id="path169"
         d="M 6.17612,0 2.21527,1.50777 3.54979,0 2.21527,-1.50777 Z"
         style="fill:#268bd2;fill-opacity:1;fill-rule:nonzero;stroke:#268bd2;stroke-width:1.37189;stroke-linecap:butt;stroke-linejoin:miter;stroke-miterlimit:10;stroke-dasharray:none;stroke-opacity:1"
         transform="matrix(0.82448,-1.0477867,-1.0477867,-0.82448,942.64029,669.87931)" />
    </g>
  </g>
</svg>
